# 3ds Max Wavefront OBJ Exporter v0.97b - (c)2007 guruware
# File Created: 24.02.2018 16:58:38

mtllib 10x4 Ramp.mtl

#
# object Ramp
#

v  -0.3133 -3.5360 -152.4000
v  117.4501 -13.9632 -152.4000
v  117.4501 -13.9632 152.4000
v  -0.3133 -3.5360 152.4000
v  117.7630 -10.4270 152.4000
v  117.7630 -10.4270 -152.4000
v  -0.0004 0.0002 -152.4000
v  -0.0004 0.0002 152.4000
v  117.5361 -13.8998 152.3293
v  117.5361 -13.8998 -152.3293
v  117.8365 -10.5045 -152.3293
v  117.8364 -10.5045 152.3293
# 12 vertices

vn -0.0882 -0.9961 -0.0000
vn 0.0882 0.9961 -0.0000
vn 0.0000 0.0000 1.0000
vn -0.9961 0.0881 -0.0000
vn 0.0000 0.0000 -1.0000
vn 0.5936 -0.8047 0.0000
vn 0.7258 0.6879 0.0000
vn 0.6597 -0.0584 0.7492
vn 0.6597 -0.0584 -0.7492
# 9 vertex normals

vt -0.7390 0.9852 0.4716
vt -0.7390 0.0155 0.4726
vt 1.7390 0.0155 0.4726
vt 1.7390 0.9852 0.4716
vt -0.7390 0.0155 0.4435
vt 1.7390 0.0155 0.4435
vt 1.7390 0.9852 0.4425
vt -0.7390 0.9852 0.4425
vt 0.5274 0.0155 1.7390
vt 0.5565 0.0155 1.7390
vt 0.5575 0.9852 1.7390
vt 0.5284 0.9852 1.7390
vt 0.4716 -0.7390 0.9852
vt 0.4716 1.7390 0.9852
vt 0.4425 1.7390 0.9852
vt 0.4425 -0.7390 0.9852
vt 0.4716 0.9852 -0.7390
vt 0.4425 0.9852 -0.7390
vt 0.4435 0.0155 -0.7390
vt 0.4726 0.0155 -0.7390
vt 1.7384 0.0148 0.4720
vt -0.7384 0.0148 0.4720
vt 1.7384 0.0148 0.4441
vt -0.7384 0.0148 0.4441
vt 0.5559 0.0148 1.7384
vt 0.5280 0.0148 1.7384
vt 0.4720 0.0148 -0.7384
vt 0.4441 0.0148 -0.7384
# 28 texture coords

g Ramp
usemtl Material__30
s 2
f 1/1/1 2/2/1 3/3/1 4/4/1 
s 4
f 5/5/2 6/6/2 7/7/2 8/8/2 
s 8
f 3/9/3 5/10/3 8/11/3 4/12/3 
s 64
f 1/13/4 4/14/4 8/15/4 7/16/4 
s 32
f 1/17/5 7/18/5 6/19/5 2/20/5 
s off
f 9/21/6 3/3/6 2/2/6 10/22/6 
f 11/23/7 6/6/7 5/5/7 12/24/7 
f 12/25/8 5/10/8 3/9/8 9/26/8 
f 10/27/9 2/20/9 6/19/9 11/28/9 
# 9 polygons

