# 3ds Max Wavefront OBJ Exporter v0.97b - (c)2007 guruware
# File Created: 24.02.2018 16:58:22

mtllib 10x4 Ramp Supports.mtl

#
# object Ramp_Supports
#

v  58.9655 -13.8446 152.4000
v  58.9655 -13.8446 -152.4000
v  63.9460 -14.2856 -152.4000
v  63.9460 -14.2856 152.4000
v  59.4065 -8.8641 152.4000
v  64.3870 -9.3051 152.4000
v  64.3870 -9.3051 -152.4000
v  59.4065 -8.8641 -152.4000
v  121.1316 -14.2892 152.4000
v  121.1316 -14.2892 -152.4000
v  121.4535 -10.7537 -152.4000
v  121.4535 -10.7537 152.4000
v  117.6095 -13.9773 -152.4000
v  117.9314 -10.4419 -152.4000
v  117.6095 -13.9773 152.4000
v  117.9314 -10.4419 152.4000
v  117.8455 -10.5052 -152.3293
v  117.5360 -13.8998 -152.3293
v  117.5360 -13.8998 152.3293
v  117.8455 -10.5052 152.3293
# 20 vertices

vn -0.0882 -0.9961 -0.0000
vn 0.0882 0.9961 -0.0000
vn 0.0000 0.0000 1.0000
vn 0.9961 -0.0882 -0.0000
vn 0.0000 0.0000 -1.0000
vn -0.9961 0.0882 -0.0000
vn 0.9959 -0.0907 -0.0000
vn -0.6595 0.0601 -0.7493
vn -0.7257 -0.6880 -0.0000
vn -0.5937 0.8047 -0.0000
vn -0.6595 0.0601 0.7493
# 11 vertex normals

vt 0.0018 4.4532 0.0000
vt 0.0018 -3.7172 0.0000
vt 0.1358 -3.7172 0.0000
vt 0.1358 4.4532 0.0000
vt 0.4039 4.4532 0.0000
vt 0.2698 4.4532 0.0000
vt 0.2698 -3.7172 0.0000
vt 0.4039 -3.7172 0.0000
vt 0.1358 4.5872 0.0000
vt 0.0018 4.5872 0.0000
vt 0.0018 -3.8512 0.0000
vt 0.1358 -3.8512 0.0000
vt 0.5379 -3.7172 0.0000
vt 0.5379 4.4532 0.0000
vt 0.8052 4.3998 0.0000
vt 0.8052 -3.7705 0.0000
vt 0.9004 -3.7705 0.0000
vt 0.9004 4.3998 0.0000
vt 0.8050 -3.8653 0.0000
vt 0.9002 -3.8653 0.0000
vt 0.7105 4.3998 0.0000
vt 0.7105 -3.7705 0.0000
vt 0.9952 -3.7706 0.0000
vt 0.9952 4.3998 0.0000
vt 0.9002 4.4946 0.0000
vt 0.8050 4.4946 0.0000
vt 0.8983 -3.8682 0.0000
vt 0.8069 -3.8682 0.0000
vt 0.7076 -3.7686 0.0000
vt 0.7076 4.3979 0.0000
vt 0.9981 4.3979 0.0000
vt 0.9981 -3.7687 0.0000
vt 0.8069 4.4975 0.0000
vt 0.8983 4.4974 0.0000
# 34 texture coords

g Ramp_Supports
usemtl Material__32
s 2
f 1/1/1 2/2/1 3/3/1 4/4/1 
s 4
f 5/5/2 6/6/2 7/7/2 8/8/2 
s 8
f 1/1/3 4/4/3 6/9/3 5/10/3 
s 16
f 4/4/4 3/3/4 7/7/4 6/6/4 
s 32
f 3/3/5 2/2/5 8/11/5 7/12/5 
s 64
f 2/13/6 1/14/6 5/5/6 8/8/6 
s 16
f 9/15/7 10/16/7 11/17/7 12/18/7 
s 32
f 13/19/5 14/20/5 11/17/5 10/16/5 
s 2
f 10/16/1 9/15/1 15/21/1 13/22/1 
s 4
f 12/18/2 11/17/2 14/23/2 16/24/2 
s 8
f 9/15/3 12/18/3 16/25/3 15/26/3 
s off
f 17/27/8 14/20/8 13/19/8 18/28/8 
f 18/29/9 13/22/9 15/21/9 19/30/9 
f 20/31/10 16/24/10 14/23/10 17/32/10 
f 19/33/11 15/26/11 16/25/11 20/34/11 
# 15 polygons

