# 3ds Max Wavefront OBJ Exporter v0.97b - (c)2007 guruware
# File Created: 31.08.2018 21:45:04

mtllib 10x8_overhead_garage_door_corner_wall_parts_for_metal_frame.mtl

#
# object Corner_Wall_Parts
#

v  0.0000 228.2020 -158.3020
v  0.0000 258.8400 -158.3020
v  0.0000 258.8400 -127.6640
v  0.0000 258.8400 127.6640
v  0.0000 258.8400 158.3020
v  0.0000 228.2020 158.3020
# 6 vertices

vn 1.0000 0.0000 -0.0000
# 1 vertex normals

vt 1.7984 0.9614 0.0000
vt 1.7984 1.2127 0.0000
vt 1.5471 1.2127 0.0000
vt -0.5471 1.2127 0.0000
vt -0.7984 1.2127 0.0000
vt -0.7984 0.9614 0.0000
# 6 texture coords

g Corner_Wall_Parts
usemtl Material__38
s 1
f 1/1/1 2/2/1 3/3/1 
f 4/4/1 5/5/1 6/6/1 
# 0 polygons - 2 triangles

