# 3ds Max Wavefront OBJ Exporter v0.97b - (c)2007 guruware
# File Created: 22.02.2018 19:36:07

mtllib 16 inch Cupola Bottom Part.mtl

#
# object Bottom_Part
#

v  -20.3200 0.0000 20.3200
v  -20.3200 0.0000 -20.3200
v  20.3200 0.0000 -20.3200
v  20.3200 0.0000 20.3200
v  -20.3200 10.0000 20.3200
v  -20.3200 10.0000 -20.3200
v  20.3200 10.0000 -20.3200
v  20.3200 10.0000 20.3200
# 8 vertices

vn 0.0000 -1.0000 -0.0000
vn -1.0000 0.0000 -0.0000
vn 0.0000 0.0000 -1.0000
vn 1.0000 0.0000 -0.0000
vn 0.0000 0.0000 1.0000
# 5 vertex normals

vt -2.5555 1.2755 0.0000
vt -2.5555 -0.4070 0.0000
vt -0.8730 -0.4070 0.0000
vt -0.8730 1.2755 0.0000
vt -2.9695 1.2755 0.0000
vt -2.9695 -0.4070 0.0000
vt -2.5555 -0.8210 0.0000
vt -0.8730 -0.8210 0.0000
vt -0.4590 -0.4070 0.0000
vt -0.4590 1.2755 0.0000
vt -0.8730 1.6895 0.0000
vt -2.5555 1.6895 0.0000
# 12 texture coords

g Bottom_Part
usemtl Material__42
s 2
f 1/1/1 2/2/1 3/3/1 4/4/1 
s off
f 5/5/2 6/6/2 2/2/2 1/1/2 
f 6/7/3 7/8/3 3/3/3 2/2/3 
f 7/9/4 8/10/4 4/4/4 3/3/4 
f 8/11/5 5/12/5 1/1/5 4/4/5 
# 5 polygons

