# 3ds Max Wavefront OBJ Exporter v0.97b - (c)2007 guruware
# File Created: 09.03.2018 00:17:15

mtllib 16 inch Cupola Roof Corners.mtl

#
# object Roof_Corners
#

v  -4.2108 53.2022 -0.1626
v  -25.7093 36.3328 21.3360
v  -25.7093 36.3328 25.7090
v  -2.2040 54.7769 2.2040
v  -21.3360 36.3328 25.7093
v  0.1626 53.2022 4.2108
v  0.0000 56.4400 -0.0000
v  -3.9014 52.8093 -0.1626
v  -25.4000 35.9400 21.3360
v  -25.4000 35.9400 25.4000
v  -21.3360 35.9400 25.4000
v  0.1626 52.8093 3.9014
v  -2.2040 54.7769 -2.2040
v  -25.7093 36.3329 -25.7093
v  -25.7093 36.3328 -21.6611
v  -21.6611 36.3328 -25.7093
v  -0.1626 53.2022 -4.2108
v  -0.1626 52.8093 -3.9014
v  -21.6611 35.9400 -25.4000
v  -25.4000 35.9400 -25.4000
v  -25.4000 35.9400 -21.6611
v  2.2040 54.7769 -2.2040
v  25.7092 36.3329 -25.7093
v  21.3360 36.3328 -25.7093
v  4.2108 53.2022 0.1626
v  25.7093 36.3328 -21.3360
v  3.9014 52.8093 0.1626
v  25.4000 35.9400 -21.3360
v  25.4000 35.9400 -25.4000
v  21.3360 35.9400 -25.4000
v  2.2040 54.7769 2.2040
v  25.7092 36.3328 25.7090
v  25.7093 36.3328 21.6611
v  21.6611 36.3328 25.7093
v  21.6611 35.9400 25.4000
v  25.4000 35.9400 25.4000
v  25.4000 35.9400 21.6611
# 37 vertices

vn -0.6173 0.7867 0.0000
vn -0.0000 0.7867 0.6173
vn -0.6093 0.7929 -0.0109
vn 0.0109 0.7929 0.6093
vn -0.4858 -0.3825 -0.7859
vn -0.7856 -0.6187 -0.0000
vn -0.0000 -0.6185 0.7858
vn 0.7859 -0.3825 0.4858
vn 0.0000 0.7867 -0.6173
vn 0.7859 -0.3825 -0.4858
vn -0.0000 -0.6186 -0.7857
vn -0.7857 -0.6186 -0.0000
vn -0.4858 -0.3825 0.7859
vn -0.6098 0.7925 0.0118
vn 0.0118 0.7925 -0.6098
vn -0.0000 0.7867 -0.6173
vn 0.6173 0.7867 -0.0000
vn -0.0109 0.7929 -0.6093
vn 0.6093 0.7929 0.0109
vn 0.4858 -0.3825 0.7859
vn 0.7857 -0.6186 -0.0000
vn 0.0000 -0.6186 -0.7857
vn -0.7859 -0.3825 -0.4858
vn 0.6173 0.7867 0.0000
vn 0.0000 0.7867 0.6173
vn -0.7859 -0.3825 0.4858
vn 0.0000 -0.6185 0.7858
vn 0.7857 -0.6186 0.0000
vn 0.4858 -0.3825 -0.7859
vn -0.0118 0.7925 0.6098
vn 0.6098 0.7925 -0.0118
# 31 vertex normals

vt 0.5993 0.6778 0.4757
vt 0.5990 1.2878 0.4771
vt 0.5513 1.3350 0.5027
vt 0.5514 0.6682 0.5012
vt 0.5038 1.2878 0.4771
vt 0.5035 0.6778 0.4757
vt 0.5514 0.6062 0.5000
vt 0.6778 0.4672 0.5953
vt 1.2878 0.4692 0.5956
vt 1.2878 0.4771 0.5990
vt 0.6778 0.4751 0.5987
vt 0.4044 0.4692 1.2878
vt 0.4486 0.4938 1.3318
vt 0.4498 0.5041 1.3331
vt 0.4010 0.4771 1.2878
vt 0.4928 0.4692 1.2878
vt 0.4962 0.4771 1.2878
vt 0.4473 0.5039 1.3331
vt -0.2878 0.4692 0.5072
vt 0.3222 0.4672 0.5075
vt 0.3222 0.4751 0.5041
vt -0.2878 0.4771 0.5038
vt 0.5477 0.6647 0.5012
vt 0.5476 1.3316 0.5027
vt 0.5036 1.2878 0.4790
vt 0.5033 0.6778 0.4777
vt 0.5917 1.2878 0.4790
vt 0.5920 0.6778 0.4777
vt 0.6778 0.4692 0.5880
vt 1.2878 0.4711 0.5884
vt 1.2878 0.4790 0.5917
vt 0.6778 0.4771 0.5914
vt 0.4116 0.4711 1.2878
vt 0.4523 0.4938 1.3283
vt 0.4536 0.5039 1.3296
vt 0.4083 0.4790 1.2878
vt 0.4930 0.4711 1.2878
vt 0.4964 0.4790 1.2878
vt 0.4510 0.5039 1.3296
vt -0.2878 0.4711 0.5070
vt 0.3222 0.4692 0.5073
vt 0.3222 0.4771 0.5040
vt -0.2878 0.4790 0.5036
vt 0.5477 0.6027 0.5000
vt 0.5528 0.6692 0.5012
vt 0.5527 1.3361 0.5027
vt 0.5052 1.2888 0.4771
vt 0.5049 0.6788 0.4757
vt 0.6007 0.6788 0.4757
vt 0.6004 1.2888 0.4771
vt 0.5528 0.6073 0.5000
vt 0.6789 0.4672 0.5967
vt 1.2888 0.4692 0.5970
vt 1.2888 0.4771 0.6004
vt 0.6788 0.4751 0.6001
vt 0.4030 0.4692 1.2888
vt 0.4472 0.4938 1.3328
vt 0.4484 0.5041 1.3341
vt 0.3996 0.4771 1.2888
vt 0.4914 0.4692 1.2888
vt 0.4948 0.4771 1.2888
vt 0.4459 0.5039 1.3342
vt -0.2888 0.4692 0.5086
vt 0.3211 0.4672 0.5089
vt 0.3212 0.4751 0.5055
vt -0.2888 0.4771 0.5052
vt 0.5540 0.6649 0.5012
vt 0.5539 1.3317 0.5027
vt 0.5100 1.2880 0.4790
vt 0.5097 0.6780 0.4777
vt 0.5981 1.2880 0.4790
vt 0.5984 0.6780 0.4777
vt 0.6780 0.4692 0.5944
vt 1.2880 0.4711 0.5947
vt 1.2880 0.4790 0.5981
vt 0.6780 0.4771 0.5978
vt 0.4053 0.4711 1.2880
vt 0.4460 0.4938 1.3285
vt 0.4472 0.5039 1.3298
vt 0.4019 0.4790 1.2880
vt 0.4866 0.4711 1.2880
vt 0.4900 0.4790 1.2880
vt 0.4447 0.5039 1.3298
vt -0.2880 0.4711 0.5134
vt 0.3220 0.4692 0.5137
vt 0.3220 0.4771 0.5103
vt -0.2880 0.4790 0.5100
vt 0.5540 0.6029 0.5000
# 88 texture coords

g Roof_Corners
usemtl Material__43
s off
f 1/1/1 2/2/1 3/3/1 4/4/1 
f 4/4/2 3/3/2 5/5/2 6/6/2 
f 4/4/3 7/7/3 1/1/3 
f 6/6/4 7/7/4 4/4/4 
f 8/8/5 9/9/5 2/10/5 1/11/5 
f 9/12/6 10/13/6 3/14/6 2/15/6 
f 10/13/7 11/16/7 5/17/7 3/18/7 
f 11/19/8 12/20/8 6/21/8 5/22/8 
f 13/23/1 14/24/1 15/25/1 1/26/1 
f 16/27/9 14/24/9 13/23/9 17/28/9 
f 18/29/10 19/30/10 16/31/10 17/32/10 
f 19/33/11 20/34/11 14/35/11 16/36/11 
f 20/34/12 21/37/12 15/38/12 14/39/12 
f 21/40/13 8/41/13 1/42/13 15/43/13 
f 7/44/14 13/23/14 1/26/14 
f 17/28/15 13/23/15 7/44/15 
f 22/45/16 23/46/16 24/47/16 17/48/16 
f 22/45/17 25/49/17 26/50/17 23/46/17 
f 17/48/18 7/51/18 22/45/18 
f 22/45/19 7/51/19 25/49/19 
f 27/52/20 28/53/20 26/54/20 25/55/20 
f 28/56/21 29/57/21 23/58/21 26/59/21 
f 29/57/22 30/60/22 24/61/22 23/62/22 
f 30/63/23 18/64/23 17/65/23 24/66/23 
f 31/67/24 32/68/24 33/69/24 25/70/24 
f 34/71/25 32/68/25 31/67/25 6/72/25 
f 12/73/26 35/74/26 34/75/26 6/76/26 
f 35/77/27 36/78/27 32/79/27 34/80/27 
f 36/78/28 37/81/28 33/82/28 32/83/28 
f 37/84/29 27/85/29 25/86/29 33/87/29 
f 6/72/30 31/67/30 7/88/30 
f 7/88/31 31/67/31 25/70/31 
# 24 polygons - 8 triangles

