# 3ds Max Wavefront OBJ Exporter v0.97b - (c)2007 guruware
# File Created: 22.02.2018 19:35:51

mtllib 16 inch Cupola.mtl

#
# object Cupola
#

v  20.3200 10.0000 20.3200
v  20.3200 36.4400 20.3200
v  -20.3200 36.4400 20.3200
v  -20.3200 10.0000 20.3200
v  20.3200 10.0000 -20.3200
v  20.3200 36.4400 -20.3200
v  -20.3200 10.0000 -20.3200
v  -20.3200 36.4400 -20.3200
v  -22.7949 36.4400 22.7949
v  22.7949 36.4400 22.7949
v  22.7949 36.4400 -22.7949
v  -22.7949 36.4400 -22.7949
# 12 vertices

vn 0.0000 0.0000 1.0000
vn 1.0000 0.0000 -0.0000
vn 0.0000 0.0000 -1.0000
vn -1.0000 0.0000 -0.0000
vn 0.0000 -1.0000 -0.0000
# 5 vertex normals

vt 0.8695 0.2460 0.1305
vt 0.8695 0.7540 0.1305
vt 0.1305 0.7540 0.1305
vt 0.1305 0.2460 0.1305
vt 0.8695 0.2460 0.8695
vt 0.8695 0.7540 0.8695
vt 0.1305 0.7540 0.8695
vt 0.1305 0.2460 0.8695
vt 0.9145 0.0855 0.7540
vt 0.8695 0.1305 0.7540
vt 0.1305 0.1305 0.7540
vt 0.0855 0.0855 0.7540
vt 0.1305 0.8695 0.7540
vt 0.0855 0.9145 0.7540
vt 0.8695 0.8695 0.7540
vt 0.9145 0.9145 0.7540
# 16 texture coords

g Cupola
usemtl Material__41
s 8
f 1/1/1 2/2/1 3/3/1 4/4/1 
s 16
f 5/5/2 6/6/2 2/7/2 1/8/2 
s 32
f 7/5/3 8/6/3 6/7/3 5/8/3 
s 64
f 4/1/4 3/2/4 8/3/4 7/4/4 
s off
f 9/9/5 3/10/5 2/11/5 10/12/5 
f 10/12/5 2/11/5 6/13/5 11/14/5 
f 11/14/5 6/13/5 8/15/5 12/16/5 
f 12/16/5 8/15/5 3/10/5 9/9/5 
# 8 polygons

