# 3ds Max Wavefront OBJ Exporter v0.97b - (c)2007 guruware
# File Created: 22.02.2018 19:52:35

mtllib 24 inch Cupola Bottom Part.mtl

#
# object Bottom_Part
#

v  -30.4800 0.0000 30.4800
v  -30.4800 0.0000 -30.4800
v  30.4800 0.0000 -30.4800
v  30.4800 0.0000 30.4800
v  -30.4800 10.0000 30.4800
v  -30.4800 10.0000 -30.4800
v  30.4800 10.0000 -30.4800
v  30.4800 10.0000 30.4800
# 8 vertices

vn 0.0000 -1.0000 -0.0000
vn -1.0000 0.0000 -0.0000
vn 0.0000 0.0000 -1.0000
vn 1.0000 0.0000 -0.0000
vn 0.0000 0.0000 1.0000
# 5 vertex normals

vt -1.9900 1.9346 0.0000
vt -1.9900 -1.0375 0.0000
vt 0.9821 -1.0375 0.0000
vt 0.9821 1.9346 0.0000
vt -2.4775 1.9346 0.0000
vt -2.4775 -1.0375 0.0000
vt 1.6184 1.9225 0.0000
vt 1.6184 -1.0495 0.0000
vt 2.1060 -1.0495 0.0000
vt 2.1060 1.9225 0.0000
vt 1.4697 -1.0375 0.0000
vt 1.4697 1.9346 0.0000
vt 2.2306 1.9346 0.0000
vt 2.2306 -1.0375 0.0000
vt 2.7182 -1.0375 0.0000
vt 2.7182 1.9346 0.0000
# 16 texture coords

g Bottom_Part
usemtl Material__42
s 2
f 1/1/1 2/2/1 3/3/1 4/4/1 
s off
f 5/5/2 6/6/2 2/2/2 1/1/2 
f 6/7/3 7/8/3 3/9/3 2/10/3 
f 7/11/4 8/12/4 4/4/4 3/3/4 
f 8/13/5 5/14/5 1/15/5 4/16/5 
# 5 polygons

