# 3ds Max Wavefront OBJ Exporter v0.97b - (c)2007 guruware
# File Created: 22.02.2018 19:51:57

mtllib 24 inch Cupola Corners.mtl

#
# object Corners
#

v  32.9800 47.6000 32.9800
v  30.4800 47.6000 32.9800
v  30.4800 10.0000 32.9800
v  32.9800 10.0000 32.9800
v  27.9800 47.6000 32.9800
v  27.9800 47.6000 30.4800
v  27.9800 10.0000 30.4800
v  27.9800 10.0000 32.9800
v  32.9800 47.6000 27.9800
v  32.9800 47.6000 30.4800
v  32.9800 10.0000 30.4800
v  32.9800 10.0000 27.9800
v  30.4800 10.0000 30.4800
v  -32.9800 10.0000 27.9800
v  -32.9800 10.0000 30.4800
v  -32.9800 47.6000 30.4800
v  -32.9800 47.6000 27.9800
v  -32.9800 10.0000 32.9800
v  -30.4800 10.0000 32.9800
v  -30.4800 47.6000 32.9800
v  -32.9800 47.6000 32.9800
v  -27.9800 10.0000 32.9800
v  -27.9800 10.0000 30.4800
v  -27.9800 47.6000 30.4800
v  -27.9800 47.6000 32.9800
v  -30.4800 47.6000 30.4800
v  -30.4800 47.6000 27.9800
v  -30.4800 10.0000 30.4800
v  32.9800 47.6000 -27.9800
v  30.4800 47.6000 -27.9800
v  30.4800 10.0000 -27.9800
v  32.9800 10.0000 -27.9800
v  27.9800 47.6000 -32.9800
v  30.4800 47.6000 -32.9800
v  30.4800 10.0000 -32.9800
v  27.9800 10.0000 -32.9800
v  32.9800 47.6000 -32.9800
v  32.9800 47.6000 -30.4800
v  32.9800 10.0000 -30.4800
v  32.9800 10.0000 -32.9800
v  27.9800 47.6000 -30.4800
v  30.4800 47.6000 -30.4800
v  -32.9800 47.6000 -27.9800
v  -32.9800 47.6000 -30.4800
v  -32.9800 10.0000 -30.4800
v  -32.9800 10.0000 -27.9800
v  -32.9800 47.6000 -32.9800
v  -30.4800 47.6000 -32.9800
v  -30.4800 10.0000 -32.9800
v  -32.9800 10.0000 -32.9800
v  -27.9800 47.6000 -32.9800
v  -27.9800 47.6000 -30.4800
v  -27.9800 10.0000 -30.4800
v  -27.9800 10.0000 -32.9800
v  -30.4800 10.0000 -30.4800
v  -30.4800 10.0000 -27.9800
v  -30.4800 47.6000 -30.4800
v  30.4800 10.0000 27.9800
v  30.4800 47.6000 27.9800
v  30.4800 47.6000 30.4800
v  -30.4800 10.0000 27.9800
v  30.4800 10.0000 -30.4800
v  -30.4800 47.6000 -27.9800
v  27.9800 10.0000 -30.4800
# 64 vertices

vn 0.0000 0.0000 1.0000
vn -1.0000 0.0000 -0.0000
vn 1.0000 0.0000 -0.0000
vn 0.0000 -1.0000 -0.0000
vn 0.0000 1.0000 -0.0000
vn 0.0000 0.0000 -1.0000
# 6 vertex normals

vt 0.6962 1.2291 0.0000
vt 0.5555 1.2292 0.0000
vt 0.5546 -0.3158 0.0000
vt 0.6954 -0.3159 0.0000
vt 0.4147 1.2292 0.0000
vt 0.2739 1.2293 0.0000
vt 0.2731 -0.3157 0.0000
vt 0.4139 -0.3157 0.0000
vt 0.9778 1.2383 0.0000
vt 0.8370 1.2290 0.0000
vt 0.8361 -0.3160 0.0000
vt 0.9769 -0.3160 0.0000
vt 1.2584 -0.4569 0.0000
vt 1.1176 -0.4569 0.0000
vt 1.1176 -0.5976 0.0000
vt 1.2583 -0.5977 0.0000
vt -0.5809 -0.3142 0.0000
vt -0.4401 -0.3132 0.0000
vt -0.4512 1.2317 0.0000
vt -0.5920 1.2401 0.0000
vt -0.2994 -0.3122 0.0000
vt -0.1586 -0.3112 0.0000
vt -0.1696 1.2337 0.0000
vt -0.3104 1.2327 0.0000
vt -0.0178 -0.3102 0.0000
vt 0.1229 -0.3092 0.0000
vt 0.1119 1.2357 0.0000
vt -0.0289 1.2347 0.0000
vt -0.5931 1.3996 0.0000
vt -0.7339 1.3986 0.0000
vt -0.7328 1.2438 0.0000
vt -0.5799 -0.4550 0.0000
vt -0.7207 -0.4560 0.0000
vt -0.7197 -0.5967 0.0000
vt -0.5790 -0.5957 0.0000
vt 2.7033 1.2456 0.0000
vt 2.5625 1.2457 0.0000
vt 2.5615 -0.2993 0.0000
vt 2.7023 -0.2994 0.0000
vt 3.2663 1.2546 0.0000
vt 3.1256 1.2454 0.0000
vt 3.1246 -0.2996 0.0000
vt 3.2653 -0.2997 0.0000
vt 2.9848 1.2454 0.0000
vt 2.8441 1.2455 0.0000
vt 2.8431 -0.2995 0.0000
vt 2.9838 -0.2995 0.0000
vt 3.4071 1.2592 0.0000
vt 3.4072 1.4141 0.0000
vt 3.2665 1.4142 0.0000
vt 2.2504 1.2398 0.0000
vt 2.1096 1.2411 0.0000
vt 2.0951 -0.3038 0.0000
vt 2.2359 -0.3051 0.0000
vt 1.9689 1.2424 0.0000
vt 1.8281 1.2437 0.0000
vt 1.8136 -0.3012 0.0000
vt 1.9544 -0.3025 0.0000
vt 1.6874 1.2544 0.0000
vt 1.5467 1.2604 0.0000
vt 1.5321 -0.2985 0.0000
vt 1.6729 -0.2999 0.0000
vt 1.5295 -0.5800 0.0000
vt 1.5308 -0.4393 0.0000
vt 1.3900 -0.4380 0.0000
vt 1.3887 -0.5787 0.0000
vt 1.5494 1.5560 0.0000
vt 1.5481 1.4152 0.0000
vt 1.6889 1.4140 0.0000
vt 1.6902 1.5547 0.0000
vt 1.1177 -0.3161 0.0000
vt 1.1185 1.2429 0.0000
vt 0.9769 -0.4568 0.0000
vt 0.9780 1.5386 0.0000
vt 0.9779 1.3979 0.0000
vt 1.1186 1.3978 0.0000
vt 1.1187 1.5385 0.0000
vt -0.7217 -0.3152 0.0000
vt -0.8757 1.5383 0.0000
vt -0.8747 1.3976 0.0000
vt -0.7349 1.5393 0.0000
vt 3.2652 -0.5813 0.0000
vt 3.4060 -0.5813 0.0000
vt 3.4060 -0.4406 0.0000
vt 3.2653 -0.4405 0.0000
vt 3.5481 1.5547 0.0000
vt 3.4074 1.5548 0.0000
vt 3.5480 1.4139 0.0000
vt 2.3767 -0.3065 0.0000
vt 2.3911 1.2385 0.0000
vt 1.6716 -0.4406 0.0000
vt 1.2595 1.5384 0.0000
vt 1.2594 1.3977 0.0000
vt -0.5942 1.5404 0.0000
vt 3.4061 -0.2998 0.0000
vt 1.6702 -0.5814 0.0000
vt 1.4087 1.5573 0.0000
vt 1.4074 1.4165 0.0000
vt 0.9768 -0.5976 0.0000
vt -0.8605 -0.5977 0.0000
vt -0.8614 -0.4569 0.0000
vt 3.5467 -0.5814 0.0000
vt 3.5468 -0.4406 0.0000
vt 3.2666 1.5549 0.0000
# 104 texture coords

g Corners
usemtl Material__42
s 1
f 1/1/1 2/2/1 3/3/1 4/4/1 
s 2
f 5/5/2 6/6/2 7/7/2 8/8/2 
f 9/9/3 10/10/3 11/11/3 12/12/3 
s 4
f 7/13/4 13/14/4 3/15/4 8/16/4 
s 2
f 14/17/2 15/18/2 16/19/2 17/20/2 
s 1
f 18/21/1 19/22/1 20/23/1 21/24/1 
s 2
f 22/25/3 23/26/3 24/27/3 25/28/3 
s 4
f 16/29/5 26/30/5 27/31/5 17/20/5 
f 15/32/4 28/33/4 19/34/4 18/35/4 
s 1
f 29/36/1 30/37/1 31/38/1 32/39/1 
f 33/40/6 34/41/6 35/42/6 36/43/6 
s 2
f 37/44/3 38/45/3 39/46/3 40/47/3 
s 4
f 41/48/5 42/49/5 34/50/5 33/40/5 
s 2
f 43/51/2 44/52/2 45/53/2 46/54/2 
s 1
f 47/55/6 48/56/6 49/57/6 50/58/6 
s 2
f 51/59/3 52/60/3 53/61/3 54/62/3 
s 4
f 45/63/4 55/64/4 56/65/4 46/66/4 
f 44/67/5 57/68/5 48/69/5 47/70/5 
s 1
f 5/5/1 8/8/1 3/3/1 2/2/1 
f 9/9/6 12/12/6 58/71/6 59/72/6 
s 4
f 12/12/4 11/73/4 13/14/4 58/71/4 
f 1/74/5 10/75/5 60/76/5 2/77/5 
s 1
f 14/17/6 17/20/6 27/31/6 61/78/6 
f 22/25/1 25/28/1 20/23/1 19/22/1 
s 4
f 25/79/5 24/80/5 26/30/5 20/81/5 
s 1
f 37/44/6 40/47/6 35/42/6 34/41/6 
s 4
f 40/82/4 39/83/4 62/84/4 35/85/4 
f 29/86/5 38/87/5 42/49/5 30/88/5 
s 1
f 43/51/1 46/54/1 56/89/1 63/90/1 
f 51/59/6 54/62/6 49/57/6 48/56/6 
s 4
f 54/62/4 53/61/4 55/64/4 49/91/4 
s 2
f 1/1/3 4/4/3 11/11/3 10/10/3 
s 4
f 5/92/5 2/77/5 60/76/5 6/93/5 
s 2
f 18/21/2 21/24/2 16/19/2 15/18/2 
s 4
f 21/94/5 20/81/5 26/30/5 16/29/5 
f 14/17/4 61/78/4 28/33/4 15/32/4 
s 2
f 33/40/2 36/43/2 64/95/2 41/48/2 
f 29/36/3 32/39/3 39/46/3 38/45/3 
s 4
f 36/43/4 35/85/4 62/84/4 64/95/4 
s 2
f 47/55/2 50/58/2 45/53/2 44/52/2 
s 4
f 50/96/4 49/91/4 55/64/4 45/63/4 
f 43/97/5 63/98/5 57/68/5 44/67/5 
f 4/99/4 3/15/4 13/14/4 11/73/4 
f 9/9/5 59/72/5 60/76/5 10/75/5 
f 22/100/4 19/34/4 28/33/4 23/101/4 
f 32/102/4 31/103/4 62/84/4 39/83/4 
f 37/104/5 34/50/5 42/49/5 38/87/5 
f 51/59/5 48/69/5 57/68/5 52/60/5 
# 48 polygons

