# 3ds Max Wavefront OBJ Exporter v0.97b - (c)2007 guruware
# File Created: 09.03.2018 00:20:55

mtllib 24 inch Cupola Roof.mtl

#
# object Roof
#

v  35.5600 46.3236 35.5600
v  -35.5600 46.3236 35.5600
v  -35.2298 45.9462 35.2298
v  35.2298 45.9462 35.2298
v  0.0000 75.7276 -0.0000
v  32.9805 47.7039 32.9805
v  -32.9805 47.7039 32.9805
v  35.5600 46.3236 -35.5600
v  35.2298 45.9462 -35.2298
v  32.9805 47.7039 -32.9805
v  -35.5600 46.3236 -35.5600
v  -35.2298 45.9462 -35.2298
v  -32.9805 47.7039 -32.9805
# 13 vertices

vn 0.0000 -0.6584 0.7526
vn 0.0000 0.7707 0.6372
vn 0.0000 -0.7879 -0.6158
vn 0.7526 -0.6584 -0.0000
vn 0.6372 0.7707 -0.0000
vn -0.6158 -0.7879 -0.0000
vn 0.0000 -0.6584 -0.7526
vn 0.0000 0.7707 -0.6372
vn 0.0000 -0.7879 0.6158
vn -0.7526 -0.6584 -0.0000
vn -0.6372 0.7707 -0.0000
vn 0.6158 -0.7879 -0.0000
# 12 vertex normals

vt 0.9209 0.7844 0.8373
vt -0.1733 0.7844 0.8373
vt -0.1682 0.7767 0.8370
vt 0.9158 0.7767 0.8370
vt 0.0791 0.8373 0.7844
vt 0.6262 0.1274 0.7848
vt 1.1733 0.8373 0.7844
vt 0.8812 0.7931 0.7755
vt 0.9158 0.8370 0.7767
vt -0.1682 0.8370 0.7767
vt -0.1336 0.7931 0.7755
vt 0.7503 0.9193 1.0007
vt -0.3439 0.9193 1.0007
vt -0.3388 0.9116 1.0004
vt 0.7452 0.9116 1.0004
vt 0.7968 0.2908 0.9197
vt 1.3439 1.0007 0.9193
vt 0.2497 1.0007 0.9193
vt 0.7106 0.9565 0.9104
vt 0.7452 1.0004 0.9116
vt -0.3388 1.0004 0.9116
vt -0.3042 0.9565 0.9104
vt 1.0433 0.9193 1.0006
vt -0.0509 0.9193 1.0006
vt -0.0458 0.9116 1.0004
vt 1.0382 0.9116 1.0004
vt -0.0433 1.0006 0.9193
vt 0.5038 0.2908 0.9197
vt 1.0509 1.0006 0.9193
vt 1.0036 0.9565 0.9104
vt 1.0382 1.0004 0.9116
vt -0.0458 1.0004 0.9116
vt -0.0112 0.9565 0.9104
vt 1.3890 0.9193 1.0007
vt 0.2948 0.9193 1.0007
vt 0.2999 0.9116 1.0004
vt 1.3839 0.9116 1.0004
vt 0.1581 0.2908 0.9197
vt 0.7052 1.0007 0.9193
vt -0.3890 1.0007 0.9193
vt 1.3493 0.9565 0.9104
vt 1.3839 1.0004 0.9116
vt 0.2999 1.0004 0.9116
vt 0.3345 0.9565 0.9104
# 44 texture coords

g Roof
usemtl Material__43
s off
f 1/1/1 2/2/1 3/3/1 4/4/1 
f 1/5/2 5/6/2 2/7/2 
f 6/8/3 4/9/3 3/10/3 7/11/3 
f 8/12/4 1/13/4 4/14/4 9/15/4 
f 5/16/5 1/17/5 8/18/5 
f 10/19/6 9/20/6 4/21/6 6/22/6 
f 11/23/7 8/24/7 9/25/7 12/26/7 
f 11/27/8 5/28/8 8/29/8 
f 13/30/9 12/31/9 9/32/9 10/33/9 
f 2/34/10 11/35/10 12/36/10 3/37/10 
f 5/38/11 11/39/11 2/40/11 
f 7/41/12 3/42/12 12/43/12 13/44/12 
# 8 polygons - 4 triangles

