# 3ds Max Wavefront OBJ Exporter v0.97b - (c)2007 guruware
# File Created: 11.09.2018 18:05:41

mtllib 24x36_Vinyl_double_pane_window_with_grids_(frame).mtl

#
# object Windows_Frame
#

v  2.0000 101.7146 -30.4799
v  2.0000 101.7146 -37.3261
v  2.0000 193.1539 -37.3261
v  2.0000 193.1539 -30.4799
v  2.0000 193.1539 30.4799
v  2.0000 193.1539 37.3261
v  2.0000 101.7146 37.3261
v  2.0000 101.7146 30.4799
v  2.0000 200.0001 -30.4799
v  2.0000 200.0001 30.4799
v  2.0000 94.8684 30.4799
v  2.0000 94.8684 -30.4799
v  2.0000 200.0001 -37.3261
v  2.0000 94.8684 -37.3261
v  2.0000 94.8684 37.3261
v  2.0000 200.0001 37.3261
v  2.0000 193.1539 38.8261
v  2.0000 200.0001 38.8261
v  0.0000 200.0001 38.8261
v  0.0000 193.1539 38.8261
v  0.0000 193.1539 37.3261
v  0.0000 101.7146 37.3261
v  2.0000 94.8684 38.8261
v  2.0000 101.7146 38.8261
v  0.0000 101.7146 38.8261
v  0.0000 94.8684 38.8261
v  0.0000 94.8684 37.3261
v  0.0000 94.8684 30.4799
v  0.0000 94.8684 -30.4799
v  0.0000 94.8684 -37.3261
v  2.0000 101.7146 -38.8261
v  2.0000 94.8684 -38.8261
v  0.0000 94.8684 -38.8261
v  0.0000 101.7146 -38.8261
v  0.0000 101.7146 -37.3261
v  0.0000 193.1539 -37.3261
v  2.0000 200.0001 -38.8261
v  2.0000 193.1539 -38.8261
v  0.0000 193.1539 -38.8261
v  0.0000 200.0001 -38.8261
v  0.0000 200.0001 -37.3261
v  0.0000 200.0001 -30.4799
v  0.0000 200.0001 30.4799
v  0.0000 200.0001 37.3261
v  0.0000 193.1539 -30.4799
v  0.0000 101.7146 -30.4799
v  0.0000 101.7146 30.4799
v  0.0000 193.1539 30.4799
# 48 vertices

vn 1.0000 0.0000 -0.0000
vn 0.0000 0.0000 1.0000
vn 0.0000 -1.0000 -0.0000
vn 0.0000 0.0000 -1.0000
vn 0.0000 1.0000 -0.0000
# 5 vertex normals

vt 0.6758 -1.7562 0.0000
vt 0.9980 -1.7562 0.0000
vt 0.9980 2.5468 0.0000
vt 0.6758 2.5468 0.0000
vt 1.8478 2.5468 0.0000
vt 1.5256 2.5468 0.0000
vt 1.5256 -1.7562 0.0000
vt 1.8478 -1.7562 0.0000
vt -0.1610 1.9343 0.0000
vt -0.1610 -0.9343 0.0000
vt 0.1612 -0.9343 0.0000
vt 0.1612 1.9343 0.0000
vt -0.7163 -0.9343 0.0000
vt -0.7163 1.9343 0.0000
vt -1.0385 1.9343 0.0000
vt -1.0385 -0.9343 0.0000
vt -0.1610 -1.2565 0.0000
vt 0.1612 -1.2565 0.0000
vt -0.7163 -1.2565 0.0000
vt -1.0385 -1.2565 0.0000
vt -0.7163 2.2565 0.0000
vt -1.0385 2.2565 0.0000
vt -0.1610 2.2565 0.0000
vt 0.1612 2.2565 0.0000
vt -0.1610 2.3271 0.0000
vt 0.1612 2.3271 0.0000
vt 0.1612 2.4212 0.0000
vt -0.1610 2.4212 0.0000
vt 1.4315 2.5468 0.0000
vt 1.4315 -1.7562 0.0000
vt -1.0385 2.3271 0.0000
vt -0.7163 2.3271 0.0000
vt -0.7163 2.4212 0.0000
vt -1.0385 2.4212 0.0000
vt -1.1326 2.2565 0.0000
vt -1.1326 1.9343 0.0000
vt -1.1326 -0.9343 0.0000
vt -1.1326 -1.2565 0.0000
vt -0.7163 -1.3271 0.0000
vt -1.0385 -1.3271 0.0000
vt -1.0385 -1.4212 0.0000
vt -0.7163 -1.4212 0.0000
vt 1.0921 -1.7562 0.0000
vt 1.0921 2.5468 0.0000
vt 0.1612 -1.3271 0.0000
vt -0.1610 -1.3271 0.0000
vt -0.1610 -1.4212 0.0000
vt 0.1612 -1.4212 0.0000
vt 0.2553 -1.2565 0.0000
vt 0.2553 -0.9343 0.0000
vt 0.2553 1.9343 0.0000
vt 0.2553 2.2565 0.0000
vt 0.5817 2.5468 0.0000
vt 0.5817 -1.7562 0.0000
vt -0.6222 -0.9343 0.0000
vt -0.6222 1.9343 0.0000
vt 1.9419 -1.7562 0.0000
vt 1.9419 2.5468 0.0000
vt -0.2551 1.9343 0.0000
vt -0.2551 -0.9343 0.0000
vt -0.2551 2.3271 0.0000
vt -0.2551 2.2565 0.0000
vt 0.2553 2.3271 0.0000
vt -1.1326 2.3271 0.0000
vt -0.6222 2.3271 0.0000
vt -0.6222 2.2565 0.0000
vt -0.6222 -1.3271 0.0000
vt -0.6222 -1.2565 0.0000
vt -1.1326 -1.3271 0.0000
vt 0.2553 -1.3271 0.0000
vt -0.2551 -1.3271 0.0000
vt -0.2551 -1.2565 0.0000
# 72 texture coords

g Windows_Frame
usemtl Material__27
s 1
f 1/1/1 2/2/1 3/3/1 4/4/1 
f 5/5/1 6/6/1 7/7/1 8/8/1 
f 5/9/1 4/10/1 9/11/1 10/12/1 
f 1/13/1 8/14/1 11/15/1 12/16/1 
f 4/10/1 3/17/1 13/18/1 9/11/1 
f 2/19/1 1/13/1 12/16/1 14/20/1 
f 8/14/1 7/21/1 15/22/1 11/15/1 
f 6/23/1 5/9/1 10/12/1 16/24/1 
f 17/25/2 18/26/2 19/27/2 20/28/2 
f 7/7/2 6/6/2 21/29/2 22/30/2 
f 23/31/2 24/32/2 25/33/2 26/34/2 
f 11/15/3 15/22/3 27/35/3 28/36/3 
f 12/16/3 11/15/3 28/36/3 29/37/3 
f 14/20/3 12/16/3 29/37/3 30/38/3 
f 31/39/4 32/40/4 33/41/4 34/42/4 
f 3/3/4 2/2/4 35/43/4 36/44/4 
f 37/45/4 38/46/4 39/47/4 40/48/4 
f 9/11/5 13/18/5 41/49/5 42/50/5 
f 10/12/5 9/11/5 42/50/5 43/51/5 
f 16/24/5 10/12/5 43/51/5 44/52/5 
f 1/1/2 4/4/2 45/53/2 46/54/2 
f 8/14/5 1/13/5 46/55/5 47/56/5 
f 5/5/4 8/8/4 47/57/4 48/58/4 
f 4/10/3 5/9/3 48/59/3 45/60/3 
f 17/25/3 20/61/3 21/62/3 6/23/3 
f 18/26/1 17/25/1 6/23/1 16/24/1 
f 19/63/5 18/26/5 16/24/5 44/52/5 
f 23/31/3 26/64/3 27/35/3 15/22/3 
f 24/32/1 23/31/1 15/22/1 7/21/1 
f 25/65/5 24/32/5 7/21/5 22/66/5 
f 31/39/5 34/67/5 35/68/5 2/19/5 
f 32/40/1 31/39/1 2/19/1 14/20/1 
f 33/69/3 32/40/3 14/20/3 30/38/3 
f 37/45/5 40/70/5 41/49/5 13/18/5 
f 38/46/1 37/45/1 13/18/1 3/17/1 
f 39/71/3 38/46/3 3/17/3 36/72/3 
# 36 polygons

