# 3ds Max Wavefront OBJ Exporter v0.97b - (c)2007 guruware
# File Created: 19.07.2019 14:07:40

mtllib 36x72_single_wood_door.mtl

#
# object 36x72_single_wood_door
#

v  2.9993 97.4411 -16.3692
v  2.9993 97.4411 16.3696
v  2.9993 91.3499 16.3696
v  2.9993 91.3499 -16.3692
v  2.9993 91.3499 -39.4448
v  2.9993 91.3499 -45.7199
v  2.9993 97.4411 -45.7199
v  2.9993 97.4411 -39.4448
v  2.9993 186.4525 -39.4448
v  2.9993 186.4525 39.4448
v  2.9993 179.9044 39.4448
v  2.9993 179.9044 -39.4448
v  2.9993 3.5197 16.3696
v  2.9993 3.5197 -16.3692
v  2.9993 10.0476 -16.3692
v  2.9993 10.0476 16.3696
v  2.9993 179.9045 45.7199
v  2.9993 97.4411 45.7199
v  2.9993 97.4411 39.4448
v  2.9993 68.3580 45.7199
v  2.9993 32.8986 45.7199
v  2.9993 32.8986 39.4448
v  2.9993 68.3580 39.4448
v  2.9993 68.3580 -39.4448
v  2.9993 32.8986 -39.4448
v  2.9993 32.8986 -45.7199
v  2.9993 68.3580 -45.7199
v  2.9993 179.9044 -45.7199
v  2.9993 23.3187 45.7199
v  2.9993 23.3187 39.4448
v  2.9993 77.3142 39.4448
v  2.9993 77.3142 45.7199
v  2.9993 23.3187 -39.4448
v  2.9993 23.3187 -45.7199
v  2.9993 77.3142 -45.7199
v  2.9993 77.3142 -39.4448
v  2.9993 97.4411 -25.0242
v  2.9993 91.3499 -25.0242
v  2.9993 97.4411 25.4696
v  2.9993 91.3499 25.4696
v  2.9993 3.5197 25.4696
v  2.9993 10.0476 25.4696
v  2.9993 3.5197 -25.0242
v  2.9993 10.0476 -25.0242
v  2.9993 91.3499 39.4448
v  2.9993 91.3499 45.7199
v  2.9993 10.0476 45.7199
v  2.9993 10.0476 39.4448
v  2.9993 3.5197 -39.4448
v  2.9993 10.0476 -39.4448
v  2.9993 10.0476 -45.7199
v  2.9993 186.4525 45.7199
v  2.9993 3.5197 39.4448
v  2.9993 3.5197 -45.7199
v  0.0000 3.5197 -39.4448
v  0.0000 3.5197 -45.7199
v  0.0000 3.5197 -25.0242
v  0.0000 3.5197 -16.3692
v  0.0000 3.5197 16.3696
v  0.0000 3.5197 25.4696
v  0.0000 3.5197 39.4448
v  2.9993 3.5197 45.7199
v  0.0000 3.5197 45.7199
v  0.0000 10.0476 45.7199
v  0.0000 23.3187 45.7199
v  0.0000 32.8986 45.7199
v  0.0000 68.3580 45.7199
v  0.0000 77.3142 45.7199
v  0.0000 91.3499 45.7199
v  0.0000 97.4411 45.7199
v  0.0000 179.9045 45.7199
v  0.0000 186.4525 45.7199
v  0.0000 186.4525 39.4448
v  0.0000 186.4525 -39.4448
v  2.9993 186.4525 -45.7199
v  0.0000 186.4525 -45.7199
v  0.0000 179.9044 -45.7199
v  0.0000 97.4411 -45.7199
v  0.0000 91.3499 -45.7199
v  0.0000 77.3142 -45.7199
v  0.0000 68.3580 -45.7199
v  0.0000 32.8986 -45.7199
v  0.0000 23.3187 -45.7199
v  0.0000 10.0476 -45.7199
v  0.0000 10.0476 39.4448
v  0.0000 23.3187 39.4448
v  0.0000 10.0476 25.4696
v  0.0000 10.0476 -39.4448
v  0.0000 10.0476 -25.0242
v  0.0000 23.3187 -39.4448
v  0.0000 97.4411 25.4696
v  0.0000 97.4411 39.4448
v  0.0000 91.3499 -39.4448
v  0.0000 77.3142 -39.4448
v  0.0000 91.3499 -25.0242
v  0.0000 32.8986 39.4448
v  0.0000 68.3580 39.4448
v  0.0000 10.0476 16.3696
v  0.0000 10.0476 -16.3692
v  0.0000 32.8986 -39.4448
v  0.0000 68.3580 -39.4448
v  0.0000 91.3499 -16.3692
v  0.0000 91.3499 16.3696
v  0.0000 179.9044 39.4448
v  0.0000 179.9044 -39.4448
v  0.0000 97.4411 -16.3692
v  0.0000 97.4411 16.3696
v  0.0000 97.4411 -39.4448
v  0.0000 97.4411 -25.0242
v  0.0000 77.3142 39.4448
v  0.0000 91.3499 39.4448
v  0.0000 91.3499 25.4696
# 112 vertices

vn 1.0000 0.0000 -0.0000
vn 0.0000 -1.0000 -0.0000
vn 0.0000 0.0000 1.0000
vn 0.0000 1.0000 -0.0000
vn 0.0000 0.0000 -1.0000
vn 0.0000 -0.7252 0.6886
vn 0.0000 -0.7359 -0.6771
vn 0.0000 0.7166 -0.6975
vn 0.0000 0.7165 -0.6976
vn 0.0000 0.9249 -0.3803
vn 0.0000 0.7107 -0.7035
vn 0.0000 0.9249 0.3803
vn 0.0000 0.7107 0.7035
vn 0.0000 -0.9241 0.3821
vn 0.0000 -0.7086 0.7056
vn 0.0000 -0.9241 -0.3821
vn 0.0000 -0.7086 -0.7056
vn 0.0000 0.7056 0.7086
# 18 vertex normals

vt 0.6139 -0.3657 0.0000
vt 0.6139 -1.4236 0.0000
vt 0.8107 -1.4236 0.0000
vt 0.8107 -0.3657 0.0000
vt -1.2378 0.4579 0.0000
vt -1.0350 0.4579 0.0000
vt -1.0350 0.6547 0.0000
vt -1.2377 0.6547 0.0000
vt -0.3204 0.6796 0.0000
vt -0.3204 -1.8695 0.0000
vt -0.1088 -1.8695 0.0000
vt -0.1088 0.6796 0.0000
vt 0.3580 -1.1239 0.0000
vt 0.3580 -0.0660 0.0000
vt 0.1471 -0.0660 0.0000
vt 0.1471 -1.1239 0.0000
vt -0.7790 3.3192 0.0000
vt -0.7790 0.6547 0.0000
vt -0.5762 0.6547 0.0000
vt -0.5763 3.3192 0.0000
vt -0.7790 -0.2851 0.0000
vt -0.7791 -1.4308 0.0000
vt -0.5763 -1.4308 0.0000
vt -0.5763 -0.2851 0.0000
vt -1.2378 -0.2851 0.0000
vt -1.2378 -1.4308 0.0000
vt -1.0351 -1.4308 0.0000
vt -1.0350 -0.2851 0.0000
vt -1.2377 3.3193 0.0000
vt -1.0350 3.3193 0.0000
vt -0.7791 -1.7404 0.0000
vt -0.5763 -1.7404 0.0000
vt -0.5763 0.0043 0.0000
vt -0.7790 0.0043 0.0000
vt -1.2379 -1.7404 0.0000
vt -1.0351 -1.7404 0.0000
vt -1.0350 0.0043 0.0000
vt -1.2378 0.0043 0.0000
vt 0.6139 -0.0861 0.0000
vt 0.8107 -0.0861 0.0000
vt 0.6139 -1.7176 0.0000
vt 0.8107 -1.7176 0.0000
vt 0.3580 -1.4180 0.0000
vt 0.1471 -1.4180 0.0000
vt 0.3580 0.2136 0.0000
vt 0.1471 0.2136 0.0000
vt 0.6123 1.4094 0.0000
vt 0.6284 0.7869 0.0000
vt 0.8363 0.5790 0.0000
vt 0.8312 1.6283 0.0000
vt 0.8364 2.5212 0.0000
vt 0.6175 2.7401 0.0000
vt 0.6124 1.6908 0.0000
vt 0.8101 1.8885 0.0000
vt -0.3190 1.2461 0.0000
vt -0.1144 1.0415 0.0000
vt -0.1125 2.0940 0.0000
vt -0.3204 1.8861 0.0000
vt -0.5762 0.4578 0.0000
vt -0.7790 0.4578 0.0000
vt 0.3448 1.8963 0.0000
vt 0.1471 2.0940 0.0000
vt 0.1490 1.0414 0.0000
vt 0.3536 1.2461 0.0000
vt -0.7791 -2.1692 0.0000
vt -0.5763 -2.1692 0.0000
vt 0.6139 -2.1692 0.0000
vt 0.8107 -2.1692 0.0000
vt 0.8107 0.3799 0.0000
vt 0.6139 0.3799 0.0000
vt 0.3580 0.6796 0.0000
vt 0.1471 0.6796 0.0000
vt -1.0351 -2.1692 0.0000
vt -1.2379 -2.1692 0.0000
vt -0.3204 -2.0723 0.0000
vt -0.1088 -2.0723 0.0000
vt 0.1471 -1.8695 0.0000
vt 0.3580 -1.8695 0.0000
vt 0.3580 0.8823 0.0000
vt 0.1471 0.8823 0.0000
vt 0.4549 0.6796 0.0000
vt 0.4549 0.8823 0.0000
vt 0.4549 0.2136 0.0000
vt 0.4549 -0.0660 0.0000
vt 0.4549 -1.1239 0.0000
vt 0.4549 -1.4179 0.0000
vt 0.4549 -1.8695 0.0000
vt 0.3580 -2.0723 0.0000
vt 0.4549 -2.0723 0.0000
vt 0.1471 -2.0723 0.0000
vt 0.1471 -2.1692 0.0000
vt 0.3580 -2.1692 0.0000
vt -0.8760 -1.7404 0.0000
vt -0.8760 -2.1692 0.0000
vt -0.8760 -1.4308 0.0000
vt -0.8760 -0.2851 0.0000
vt -0.8759 0.0043 0.0000
vt -0.8759 0.4578 0.0000
vt -0.8759 0.6547 0.0000
vt -0.8759 3.3192 0.0000
vt -0.3204 -2.1692 0.0000
vt -0.1088 -2.1692 0.0000
vt -0.4173 -1.8695 0.0000
vt -0.4173 -2.0723 0.0000
vt -0.4173 0.6796 0.0000
vt -0.3204 0.8823 0.0000
vt -0.4173 0.8823 0.0000
vt -0.1088 0.8823 0.0000
vt -0.1088 0.9792 0.0000
vt -0.3204 0.9792 0.0000
vt -0.9381 0.6547 0.0000
vt -0.9381 3.3193 0.0000
vt -0.9381 0.4579 0.0000
vt -0.9381 0.0043 0.0000
vt -0.9381 -0.2851 0.0000
vt -0.9382 -1.4308 0.0000
vt -0.9382 -1.7404 0.0000
vt -0.9382 -2.1692 0.0000
vt 0.3580 0.9792 0.0000
vt 0.1471 0.9792 0.0000
vt -0.4794 -2.1692 0.0000
vt -0.4794 -1.7404 0.0000
vt 0.0502 -1.4180 0.0000
vt 0.0502 -1.8695 0.0000
vt 0.5154 1.4069 0.0000
vt 0.5315 0.7844 0.0000
vt 0.0502 0.6796 0.0000
vt 0.0502 0.2136 0.0000
vt -1.3348 -1.7404 0.0000
vt -1.3348 -2.1692 0.0000
vt 0.9069 1.8845 0.0000
vt 0.9332 2.5172 0.0000
vt 0.5170 -1.7176 0.0000
vt 0.5170 -2.1692 0.0000
vt -1.3347 0.4579 0.0000
vt -1.3347 0.0043 0.0000
vt 0.9076 -0.0861 0.0000
vt 0.9076 0.3799 0.0000
vt 0.4505 1.2474 0.0000
vt 0.4417 1.8976 0.0000
vt -0.4794 -1.4308 0.0000
vt -0.4794 -0.2851 0.0000
vt 0.9332 0.5794 0.0000
vt 0.9281 1.6288 0.0000
vt 0.0502 -0.0660 0.0000
vt 0.0502 -1.1239 0.0000
vt 0.5206 2.7406 0.0000
vt 0.5154 1.6913 0.0000
vt -1.3347 -0.2851 0.0000
vt -1.3348 -1.4308 0.0000
vt 0.0502 2.0938 0.0000
vt 0.0521 1.0413 0.0000
vt 0.9076 -1.4236 0.0000
vt 0.9076 -0.3657 0.0000
vt -0.0174 1.0413 0.0000
vt -0.0155 2.0938 0.0000
vt -0.0119 -1.8695 0.0000
vt -0.0119 0.6796 0.0000
vt -0.4793 0.6547 0.0000
vt -0.4793 3.3192 0.0000
vt 0.5170 -0.3657 0.0000
vt 0.5170 -1.4236 0.0000
vt -1.3346 3.3193 0.0000
vt -1.3346 0.6547 0.0000
vt 0.5170 0.3799 0.0000
vt 0.5170 -0.0861 0.0000
vt -0.4793 0.0043 0.0000
vt -0.4793 0.4578 0.0000
vt -0.4173 1.8859 0.0000
vt -0.4159 1.2459 0.0000
vt 0.9076 -2.1692 0.0000
vt 0.9076 -1.7176 0.0000
# 172 texture coords

g 36x72_single_wood_door
usemtl Material__27
s off
f 1/1/1 2/2/1 3/3/1 4/4/1 
f 5/5/1 6/6/1 7/7/1 8/8/1 
f 9/9/1 10/10/1 11/11/1 12/12/1 
f 13/13/1 14/14/1 15/15/1 16/16/1 
f 17/17/1 18/18/1 19/19/1 11/20/1 
f 20/21/1 21/22/1 22/23/1 23/24/1 
f 24/25/1 25/26/1 26/27/1 27/28/1 
f 12/29/1 8/8/1 7/7/1 28/30/1 
f 21/22/1 29/31/1 30/32/1 22/23/1 
f 23/24/1 31/33/1 32/34/1 20/21/1 
f 25/26/1 33/35/1 34/36/1 26/27/1 
f 27/28/1 35/37/1 36/38/1 24/25/1 
f 37/39/1 1/1/1 4/4/1 38/40/1 
f 3/3/1 2/2/1 39/41/1 40/42/1 
f 41/43/1 13/13/1 16/16/1 42/44/1 
f 15/15/1 14/14/1 43/45/1 44/46/1 
f 30/47/1 42/48/1 16/49/1 22/50/1 
f 33/51/1 25/52/1 15/53/1 44/54/1 
f 31/55/1 23/56/1 3/57/1 40/58/1 
f 31/33/1 45/59/1 46/60/1 32/34/1 
f 35/37/1 6/6/1 5/5/1 36/38/1 
f 38/61/1 4/62/1 24/63/1 36/64/1 
f 29/31/1 47/65/1 48/66/1 30/32/1 
f 40/42/1 39/41/1 19/67/1 45/68/1 
f 37/39/1 38/40/1 5/69/1 8/70/1 
f 44/46/1 43/45/1 49/71/1 50/72/1 
f 51/73/1 34/36/1 33/35/1 50/74/1 
f 52/75/1 17/76/1 11/11/1 10/10/1 
f 48/77/1 53/78/1 41/43/1 42/44/1 
f 54/79/1 51/80/1 50/72/1 49/71/1 
f 49/71/2 55/81/2 56/82/2 54/79/2 
f 43/45/2 57/83/2 55/81/2 49/71/2 
f 14/14/2 58/84/2 57/83/2 43/45/2 
f 13/13/2 59/85/2 58/84/2 14/14/2 
f 41/43/2 60/86/2 59/85/2 13/13/2 
f 53/78/2 61/87/2 60/86/2 41/43/2 
f 62/88/2 63/89/2 61/87/2 53/78/2 
f 47/90/3 64/91/3 63/92/3 62/88/3 
f 29/31/3 65/93/3 64/94/3 47/65/3 
f 21/22/3 66/95/3 65/93/3 29/31/3 
f 20/21/3 67/96/3 66/95/3 21/22/3 
f 32/34/3 68/97/3 67/96/3 20/21/3 
f 46/60/3 69/98/3 68/97/3 32/34/3 
f 18/18/3 70/99/3 69/98/3 46/60/3 
f 17/17/3 71/100/3 70/99/3 18/18/3 
f 52/75/3 72/101/3 71/102/3 17/76/3 
f 10/10/4 73/103/4 72/104/4 52/75/4 
f 9/9/4 74/105/4 73/103/4 10/10/4 
f 75/106/4 76/107/4 74/105/4 9/9/4 
f 28/108/5 77/109/5 76/110/5 75/106/5 
f 7/7/5 78/111/5 77/112/5 28/30/5 
f 6/6/5 79/113/5 78/111/5 7/7/5 
f 35/37/5 80/114/5 79/113/5 6/6/5 
f 27/28/5 81/115/5 80/114/5 35/37/5 
f 26/27/5 82/116/5 81/115/5 27/28/5 
f 34/36/5 83/117/5 82/116/5 26/27/5 
f 51/73/5 84/118/5 83/117/5 34/36/5 
f 54/79/5 56/119/5 84/120/5 51/80/5 
f 48/66/5 85/121/5 86/122/5 30/32/5 
f 42/44/4 87/123/4 85/124/4 48/77/4 
f 30/47/6 86/125/6 87/126/6 42/48/6 
f 50/72/4 88/127/4 89/128/4 44/46/4 
f 33/35/3 90/129/3 88/130/3 50/74/3 
f 44/54/7 89/131/7 90/132/7 33/51/7 
f 39/41/4 91/133/4 92/134/4 19/67/4 
f 5/5/3 93/135/3 94/136/3 36/38/3 
f 38/40/2 95/137/2 93/138/2 5/69/2 
f 36/64/8 94/139/8 95/140/9 38/61/9 
f 22/23/5 96/141/5 97/142/5 23/24/5 
f 16/49/10 98/143/10 96/144/11 22/50/11 
f 15/15/12 99/145/12 98/146/10 16/16/10 
f 25/52/13 100/147/13 99/148/12 15/53/12 
f 24/25/3 101/149/3 100/150/3 25/26/3 
f 4/62/14 102/151/14 101/152/15 24/63/15 
f 3/3/16 103/153/16 102/154/14 4/4/14 
f 23/56/17 97/155/17 103/156/16 3/57/16 
f 11/11/2 104/157/2 105/158/2 12/12/2 
f 19/19/5 92/159/5 104/160/5 11/20/5 
f 1/1/4 106/161/4 107/162/4 2/2/4 
f 12/29/3 105/163/3 108/164/3 8/8/3 
f 8/70/4 108/165/4 109/166/4 37/39/4 
f 31/33/5 110/167/5 111/168/5 45/59/5 
f 40/58/18 112/169/18 110/170/18 31/55/18 
f 45/68/2 111/171/2 112/172/2 40/42/2 
f 19/19/1 18/18/1 46/60/1 45/59/1 
f 12/12/1 28/108/1 75/106/1 9/9/1 
f 48/77/1 47/90/1 62/88/1 53/78/1 
f 1/1/4 37/39/4 109/166/4 106/161/4 
f 39/41/4 2/2/4 107/162/4 91/133/4 
# 89 polygons

