# 3ds Max Wavefront OBJ Exporter v0.97b - (c)2007 guruware
# File Created: 19.07.2019 14:07:53

mtllib 36x72_single_wood_door_frame.mtl

#
# object 36x72_single_wood_door_frame
#

v  3.0000 193.1368 46.0113
v  3.0000 193.1367 52.6527
v  3.0000 186.7211 52.6532
v  3.0000 186.7211 46.0113
v  3.0000 186.7213 -46.0107
v  3.0000 193.1369 -46.0107
v  3.0000 0.0005 -46.0110
v  3.0000 0.0005 -52.6525
v  3.0000 186.7213 -52.6522
v  3.0000 0.0003 52.6529
v  3.0000 0.0003 46.0110
v  3.0000 193.1370 -52.6517
v  0.0000 186.7211 52.6532
v  0.0000 0.0003 52.6529
v  3.0000 193.1368 54.1527
v  0.0000 193.1368 54.1527
v  0.0000 186.7211 54.1532
v  3.0000 186.7211 54.1532
v  0.0000 193.1368 46.0113
v  0.0000 193.1367 52.6527
v  0.0000 193.1369 -46.0107
v  0.0000 193.1370 -52.6517
v  3.0000 186.7214 -54.1522
v  0.0000 186.7214 -54.1522
v  0.0000 193.1371 -54.1517
v  3.0000 193.1371 -54.1517
v  0.0000 0.0005 -52.6525
v  0.0000 186.7213 -52.6522
v  0.0000 0.0005 -46.0110
v  0.0000 186.7213 -46.0107
v  0.0000 186.7211 46.0113
v  0.0000 0.0003 46.0110
# 32 vertices

vn 1.0000 0.0000 -0.0000
vn 0.0000 -0.0000 1.0000
vn 0.0000 0.0001 1.0000
vn 0.0000 1.0000 0.0000
vn 0.0000 0.0001 -1.0000
vn 0.0000 0.0000 -1.0000
vn 0.0000 -1.0000 -0.0000
vn 0.0000 1.0000 -0.0001
vn 0.0000 -1.0000 0.0001
vn 0.0000 -1.0000 -0.0001
vn 0.0000 1.0000 0.0001
# 11 vertex normals

vt 2.1337 0.8152 0.0000
vt 2.1337 1.0074 0.0000
vt 1.9481 1.0074 0.0000
vt 1.9481 0.8152 0.0000
vt 1.9481 -1.8469 0.0000
vt 2.1337 -1.8469 0.0000
vt 1.5367 3.3192 0.0000
vt 1.5368 -2.0824 0.0000
vt 1.7289 -2.0824 0.0000
vt 1.7289 3.3192 0.0000
vt 1.3175 3.3193 0.0000
vt 1.1254 3.3193 0.0000
vt 1.1254 -2.0824 0.0000
vt 1.3176 -2.0824 0.0000
vt 1.9481 -2.0390 0.0000
vt 2.1337 -2.0390 0.0000
vt 1.0386 3.3193 0.0000
vt 1.0386 -2.0824 0.0000
vt 2.1337 1.0508 0.0000
vt 2.1337 1.1375 0.0000
vt 1.9481 1.1376 0.0000
vt 1.9481 1.0508 0.0000
vt 2.2205 0.8152 0.0000
vt 2.2205 1.0074 0.0000
vt 2.2205 -1.8469 0.0000
vt 2.2205 -2.0390 0.0000
vt 1.9481 -2.0824 0.0000
vt 1.9481 -2.1692 0.0000
vt 2.1337 -2.1692 0.0000
vt 2.1337 -2.0824 0.0000
vt 1.8157 -2.0824 0.0000
vt 1.8157 3.3192 0.0000
vt 1.5368 -2.1692 0.0000
vt 1.7289 -2.1692 0.0000
vt 1.4500 3.3192 0.0000
vt 1.4500 -2.0824 0.0000
vt 1.8613 0.8152 0.0000
vt 1.8613 -1.8469 0.0000
vt 1.4043 -2.0824 0.0000
vt 1.4043 3.3193 0.0000
vt 1.1254 -2.1692 0.0000
vt 1.3176 -2.1692 0.0000
vt 2.2205 1.0508 0.0000
vt 1.8613 1.0508 0.0000
vt 1.8613 1.0074 0.0000
vt 1.8613 -2.0824 0.0000
vt 1.8613 -2.0390 0.0000
vt 2.2205 -2.0824 0.0000
# 48 texture coords

g 36x72_single_wood_door_frame
usemtl Material__27
s off
f 1/1/1 2/2/1 3/3/1 4/4/1 
f 5/5/1 6/6/1 1/1/1 4/4/1 
f 5/7/1 7/8/1 8/9/1 9/10/1 
f 4/11/1 3/12/1 10/13/1 11/14/1 
f 9/15/1 12/16/1 6/6/1 5/5/1 
f 3/12/2 13/17/2 14/18/2 10/13/2 
f 15/19/3 16/20/3 17/21/3 18/22/3 
f 1/1/4 19/23/4 20/24/4 2/2/4 
f 6/6/4 21/25/4 19/23/4 1/1/4 
f 12/16/4 22/26/4 21/25/4 6/6/4 
f 23/27/5 24/28/5 25/29/5 26/30/5 
f 8/9/6 27/31/6 28/32/6 9/10/6 
f 7/8/7 29/33/7 27/34/7 8/9/7 
f 5/7/2 30/35/2 29/36/2 7/8/2 
f 4/4/7 31/37/7 30/38/7 5/5/7 
f 11/14/6 32/39/6 31/40/6 4/11/6 
f 10/13/7 14/41/7 32/42/7 11/14/7 
f 15/19/1 18/22/1 3/3/1 2/2/1 
f 16/43/8 15/19/8 2/2/8 20/24/8 
f 18/22/9 17/44/9 13/45/9 3/3/9 
f 23/27/1 26/30/1 12/16/1 9/15/1 
f 24/46/10 23/27/10 9/15/10 28/47/10 
f 26/30/11 25/48/11 22/26/11 12/16/11 
# 23 polygons

