# 3ds Max Wavefront OBJ Exporter v0.97b - (c)2007 guruware
# File Created: 12.03.2019 20:00:06

mtllib 3_shed_door.mtl

#
# object 3_shed_door
#

v  3.0000 94.5000 -15.2972
v  3.0000 103.1313 -15.2972
v  3.0000 103.1313 15.2972
v  3.0000 94.5000 15.2972
v  3.0000 94.5001 -36.9068
v  3.0000 94.5001 -45.7219
v  3.0000 103.1313 -45.7219
v  3.0000 103.1313 -36.9068
v  3.0000 103.1313 36.9068
v  3.0000 103.1313 45.7219
v  3.0000 94.5000 45.7219
v  3.0000 94.5000 36.9068
v  3.0000 182.5775 -15.2972
v  3.0000 190.7755 -15.2972
v  3.0000 190.7755 15.2972
v  3.0000 182.5775 15.2972
v  3.0000 16.0827 15.2972
v  3.0000 7.8846 15.2972
v  3.0000 7.8846 -15.2972
v  3.0000 16.0827 -15.2972
v  2.2500 125.3762 -36.9068
v  2.2500 125.3762 -45.7219
v  2.2500 160.3325 -45.7219
v  2.2500 160.3325 -36.9068
v  2.2500 72.5432 -45.7219
v  2.2500 72.5432 -36.9068
v  2.2500 38.0396 -36.9068
v  2.2500 38.0396 -45.7219
v  2.2500 72.5432 36.9068
v  2.2500 72.5432 45.7219
v  2.2500 38.0395 45.7219
v  2.2500 38.0395 36.9068
v  2.2500 125.3762 45.7219
v  2.2500 125.3762 36.9068
v  2.2500 160.3325 36.9068
v  2.2500 160.3325 45.7219
v  2.2500 172.8065 -45.7219
v  2.2500 172.8065 -36.9068
v  2.2500 112.1554 -36.9068
v  2.2500 112.1554 -45.7219
v  2.2500 25.0597 -36.9068
v  2.2500 25.0597 -45.7219
v  2.2500 84.8993 -45.7219
v  2.2500 84.8993 -36.9068
v  2.2500 25.0596 45.7219
v  2.2500 25.0596 36.9068
v  2.2500 84.8993 36.9068
v  2.2500 84.8993 45.7219
v  2.2500 172.8065 36.9068
v  2.2500 172.8065 45.7219
v  2.2500 112.1554 45.7219
v  2.2500 112.1554 36.9068
v  3.0000 103.1313 27.3522
v  3.0000 94.5000 27.3522
v  3.0000 94.5000 -27.7972
v  3.0000 103.1313 -27.7972
v  3.0000 190.7755 27.3522
v  3.0000 182.5775 27.3522
v  3.0000 182.5775 -27.7972
v  3.0000 190.7755 -27.7972
v  3.0000 7.8846 -27.7972
v  3.0000 16.0827 -27.7972
v  3.0000 16.0827 27.3522
v  3.0000 7.8846 27.3522
v  2.2500 182.5775 -27.7972
v  2.2500 182.5775 -15.2972
v  2.2500 103.1313 -15.2972
v  2.2500 103.1313 -27.7972
v  2.2500 103.1313 27.3522
v  2.2500 103.1313 15.2972
v  2.2500 16.0827 -15.2972
v  2.2500 16.0827 -27.7972
v  2.2500 16.0827 27.3522
v  2.2500 16.0827 15.2972
v  2.2500 94.5000 -27.7972
v  2.2500 94.5000 -15.2972
v  2.2500 182.5775 36.9068
v  2.2500 182.5775 45.7219
v  2.2500 182.5775 15.2972
v  2.2500 182.5775 27.3522
v  2.2500 103.1313 -36.9068
v  2.2500 103.1313 -45.7219
v  2.2500 103.1313 45.7219
v  2.2500 103.1313 36.9068
v  2.2500 94.5001 -45.7219
v  2.2500 94.5001 -36.9068
v  2.2500 94.5000 36.9068
v  2.2500 94.5000 45.7219
v  2.2500 94.5000 27.3522
v  2.2500 94.5000 15.2972
v  2.2500 16.0827 -36.9068
v  2.2500 16.0827 -45.7219
v  3.0000 182.5775 -36.9068
v  3.0000 190.7755 -36.9068
v  3.0000 16.0827 36.9068
v  3.0000 7.8846 36.9068
v  3.0000 190.7755 45.7219
v  3.0000 182.5775 45.7219
v  3.0000 182.5775 36.9068
v  3.0000 190.7755 36.9068
v  2.2500 182.5775 -45.7219
v  2.2500 182.5775 -36.9068
v  3.0000 7.8846 -45.7219
v  3.0000 16.0827 -45.7219
v  3.0000 16.0827 -36.9068
v  3.0000 7.8846 -36.9068
v  2.2500 16.0827 45.7219
v  2.2500 16.0827 36.9068
v  3.0000 190.7755 -45.7219
v  3.0000 182.5775 -45.7219
v  3.0000 7.8846 45.7219
v  3.0000 16.0827 45.7219
v  2.2500 7.8846 36.9068
v  2.2500 7.8846 45.7219
v  0.0000 7.8846 45.7219
v  0.0000 7.8846 36.9068
v  2.2500 7.8846 27.3522
v  0.0000 7.8846 27.3522
v  2.2500 7.8846 15.2972
v  0.0000 7.8846 15.2972
v  2.2500 7.8846 -15.2972
v  0.0000 7.8846 -15.2972
v  2.2500 7.8846 -27.7972
v  0.0000 7.8846 -27.7972
v  2.2500 7.8846 -36.9068
v  0.0000 7.8846 -36.9068
v  2.2500 7.8846 -45.7219
v  0.0000 7.8846 -45.7219
v  0.0000 16.0827 -45.7219
v  0.0000 25.0597 -45.7219
v  0.0000 38.0396 -45.7219
v  0.0000 72.5432 -45.7219
v  0.0000 84.8993 -45.7219
v  0.0000 94.5001 -45.7219
v  0.0000 103.1313 -45.7219
v  0.0000 112.1554 -45.7219
v  0.0000 125.3762 -45.7219
v  0.0000 160.3325 -45.7219
v  0.0000 172.8065 -45.7219
v  0.0000 182.5775 -45.7219
v  2.2500 190.7755 -45.7219
v  0.0000 190.7755 -45.7219
v  2.2500 190.7755 -36.9068
v  0.0000 190.7755 -36.9068
v  2.2500 190.7755 -27.7972
v  0.0000 190.7755 -27.7972
v  2.2500 190.7755 -15.2972
v  0.0000 190.7755 -15.2972
v  2.2500 190.7755 15.2972
v  0.0000 190.7755 15.2972
v  2.2500 190.7755 27.3522
v  0.0000 190.7755 27.3522
v  2.2500 190.7755 36.9068
v  0.0000 190.7755 36.9068
v  2.2500 190.7755 45.7219
v  0.0000 190.7755 45.7219
v  0.0000 182.5775 45.7219
v  0.0000 172.8065 45.7219
v  0.0000 160.3325 45.7219
v  0.0000 125.3762 45.7219
v  0.0000 112.1554 45.7219
v  0.0000 103.1313 45.7219
v  0.0000 94.5000 45.7219
v  0.0000 84.8993 45.7219
v  0.0000 72.5432 45.7219
v  0.0000 38.0395 45.7219
v  0.0000 25.0596 45.7219
v  0.0000 16.0827 45.7219
v  0.0000 25.0597 -36.9068
v  0.0000 16.0827 -36.9068
v  0.0000 16.0827 -27.7972
v  0.0000 172.8065 36.9068
v  0.0000 182.5775 36.9068
v  0.0000 182.5775 27.3522
v  0.0000 182.5775 -27.7972
v  0.0000 182.5775 -36.9068
v  0.0000 172.8065 -36.9068
v  0.0000 16.0827 27.3522
v  0.0000 16.0827 36.9068
v  0.0000 25.0596 36.9068
v  0.0000 112.1554 -36.9068
v  0.0000 103.1313 -36.9068
v  0.0000 103.1313 -27.7972
v  0.0000 84.8993 36.9068
v  0.0000 94.5000 36.9068
v  0.0000 94.5000 27.3522
v  0.0000 72.5432 -36.9068
v  0.0000 38.0396 -36.9068
v  0.0000 16.0827 -15.2972
v  0.0000 16.0827 15.2972
v  0.0000 38.0395 36.9068
v  0.0000 72.5432 36.9068
v  0.0000 94.5000 15.2972
v  0.0000 94.5000 -15.2972
v  0.0000 125.3762 36.9068
v  0.0000 160.3325 36.9068
v  0.0000 182.5775 15.2972
v  0.0000 182.5775 -15.2972
v  0.0000 160.3325 -36.9068
v  0.0000 125.3762 -36.9068
v  0.0000 103.1313 -15.2972
v  0.0000 103.1313 15.2972
v  0.0000 103.1313 36.9068
v  0.0000 112.1554 36.9068
v  0.0000 103.1313 27.3522
v  0.0000 94.5001 -36.9068
v  0.0000 84.8993 -36.9068
v  0.0000 94.5000 -27.7972
# 208 vertices

vn 1.0000 0.0000 -0.0000
vn 0.0000 -1.0000 -0.0000
vn 0.0000 0.0000 -1.0000
vn 0.0000 1.0000 -0.0000
vn 0.0000 0.0000 1.0000
vn 0.0000 -0.7123 -0.7019
vn 0.0000 0.6991 0.7150
vn 0.0000 0.6819 -0.7314
vn 0.0000 -0.7288 0.6847
vn 0.0000 -0.7104 -0.7038
vn 0.0000 0.7054 0.7088
vn 0.0000 0.7014 0.7127
vn 0.0000 0.7014 -0.7127
vn 0.0000 -0.7014 -0.7127
vn 0.0000 -0.7014 0.7127
vn 0.0000 -0.6968 -0.7173
vn 0.0000 -0.6968 0.7173
vn 0.0000 0.6968 0.7173
vn 0.0000 0.6968 -0.7173
vn 0.0000 -0.7270 0.6866
vn 0.0000 0.6883 -0.7254
# 21 vertex normals

vt 0.3412 -0.8915 0.0000
vt 0.5634 -0.8915 0.0000
vt 0.5634 -0.1039 0.0000
vt 0.3412 -0.1039 0.0000
vt 0.3412 -1.4477 0.0000
vt 0.3412 -1.6746 0.0000
vt 0.5634 -1.6746 0.0000
vt 0.5634 -1.4477 0.0000
vt 0.5634 0.4523 0.0000
vt 0.5634 0.6792 0.0000
vt 0.3412 0.6792 0.0000
vt 0.3412 0.4523 0.0000
vt 0.3382 1.4719 0.0000
vt 0.5488 1.4719 0.0000
vt 0.5488 2.2579 0.0000
vt 0.3382 2.2579 0.0000
vt 0.9880 -0.1047 0.0000
vt 0.7773 -0.1047 0.0000
vt 0.7773 -0.8907 0.0000
vt 0.9880 -0.8907 0.0000
vt 1.5736 1.2682 0.0000
vt 1.7945 1.2682 0.0000
vt 1.7945 2.1440 0.0000
vt 1.5736 2.1440 0.0000
vt 1.3892 0.0635 0.0000
vt 1.1684 0.0635 0.0000
vt 1.1684 -0.8010 0.0000
vt 1.3893 -0.8010 0.0000
vt 0.9622 2.4260 0.0000
vt 0.7414 2.4260 0.0000
vt 0.7414 1.5616 0.0000
vt 0.9623 1.5616 0.0000
vt 1.5739 -0.9992 0.0000
vt 1.7948 -0.9992 0.0000
vt 1.7948 -0.1234 0.0000
vt 1.5739 -0.1234 0.0000
vt 1.7945 2.4565 0.0000
vt 1.5736 2.4565 0.0000
vt 1.5737 0.9370 0.0000
vt 1.7945 0.9370 0.0000
vt 1.1684 -1.1262 0.0000
vt 1.3893 -1.1262 0.0000
vt 1.3892 0.3730 0.0000
vt 1.1684 0.3730 0.0000
vt 0.7414 1.2364 0.0000
vt 0.9623 1.2364 0.0000
vt 0.9622 2.7356 0.0000
vt 0.7414 2.7356 0.0000
vt 1.7948 0.1891 0.0000
vt 1.5739 0.1891 0.0000
vt 1.5740 -1.3304 0.0000
vt 1.7948 -1.3304 0.0000
vt 0.5634 0.2064 0.0000
vt 0.3412 0.2064 0.0000
vt 0.3412 -1.2132 0.0000
vt 0.5634 -1.2132 0.0000
vt 0.5488 2.5676 0.0000
vt 0.3382 2.5676 0.0000
vt 0.3382 1.1507 0.0000
vt 0.5488 1.1507 0.0000
vt 0.7773 -1.2119 0.0000
vt 0.9880 -1.2119 0.0000
vt 0.9880 0.2050 0.0000
vt 0.7773 0.2050 0.0000
vt 2.2199 0.3384 0.0000
vt 2.2253 0.6733 0.0000
vt 1.9996 0.8907 0.0000
vt 2.0029 0.1131 0.0000
vt 1.9591 -0.8034 0.0000
vt 1.9740 -1.5807 0.0000
vt 2.1946 -1.3581 0.0000
vt 2.1946 -1.0366 0.0000
vt -0.1757 2.2360 0.0000
vt -0.1624 1.9070 0.0000
vt 0.0549 1.6974 0.0000
vt 0.0571 2.4743 0.0000
vt 2.6103 -1.0374 0.0000
vt 2.3785 -0.8090 0.0000
vt 2.3903 -1.5812 0.0000
vt 2.6102 -1.3580 0.0000
vt 2.0007 -0.1942 0.0000
vt 2.0136 -0.5229 0.0000
vt 2.2292 -0.7349 0.0000
vt 2.2291 0.0379 0.0000
vt 2.6408 -0.5089 0.0000
vt 2.6444 -0.1772 0.0000
vt 2.4194 0.0410 0.0000
vt 2.4252 -0.7313 0.0000
vt 1.7947 0.4339 0.0000
vt 1.5739 0.4339 0.0000
vt 1.3671 1.6540 0.0000
vt 1.1502 1.4439 0.0000
vt 1.1485 1.1016 0.0000
vt 1.3658 0.8771 0.0000
vt 1.5737 0.7109 0.0000
vt 1.7945 0.7109 0.0000
vt 1.5740 -1.5565 0.0000
vt 1.7948 -1.5565 0.0000
vt 1.3892 0.6136 0.0000
vt 1.1684 0.6136 0.0000
vt 0.9622 2.9761 0.0000
vt 0.7414 2.9761 0.0000
vt 2.7980 -1.0201 0.0000
vt 2.7959 -1.3594 0.0000
vt 3.0128 -1.5802 0.0000
vt 3.0134 -0.8085 0.0000
vt 1.1684 -1.3511 0.0000
vt 1.3893 -1.3511 0.0000
vt 0.3382 0.9167 0.0000
vt 0.5488 0.9167 0.0000
vt 0.9880 0.4505 0.0000
vt 0.7773 0.4505 0.0000
vt 0.5488 3.0396 0.0000
vt 0.3382 3.0396 0.0000
vt 0.3382 2.8131 0.0000
vt 0.5488 2.8131 0.0000
vt 1.7944 2.7013 0.0000
vt 1.5736 2.7013 0.0000
vt 0.7773 -1.6724 0.0000
vt 0.9880 -1.6724 0.0000
vt 0.9880 -1.4459 0.0000
vt 0.7773 -1.4459 0.0000
vt 0.7414 1.0115 0.0000
vt 0.9623 1.0115 0.0000
vt 0.5488 0.6902 0.0000
vt 0.3382 0.6902 0.0000
vt 0.7773 0.6770 0.0000
vt 0.9880 0.6770 0.0000
vt 0.7581 0.4505 0.0000
vt 0.7581 0.6770 0.0000
vt 0.7003 0.6770 0.0000
vt 0.7003 0.4505 0.0000
vt 0.7581 0.2050 0.0000
vt 0.7003 0.2050 0.0000
vt 0.7581 -0.1047 0.0000
vt 0.7003 -0.1047 0.0000
vt 0.7581 -0.8907 0.0000
vt 0.7003 -0.8907 0.0000
vt 0.7581 -1.2119 0.0000
vt 0.7003 -1.2119 0.0000
vt 0.7581 -1.4459 0.0000
vt 0.7003 -1.4459 0.0000
vt 0.7581 -1.6724 0.0000
vt 0.7003 -1.6724 0.0000
vt 1.3891 -1.5565 0.0000
vt 1.4455 -1.5565 0.0000
vt 1.4456 -1.3511 0.0000
vt 1.4456 -1.1262 0.0000
vt 1.4456 -0.8010 0.0000
vt 1.4456 0.0635 0.0000
vt 1.4456 0.3730 0.0000
vt 1.4456 0.6136 0.0000
vt 1.3891 0.8298 0.0000
vt 1.4454 0.8298 0.0000
vt 1.8509 0.7109 0.0000
vt 1.8509 0.9370 0.0000
vt 1.8509 1.2682 0.0000
vt 1.8508 2.1440 0.0000
vt 1.8508 2.4565 0.0000
vt 1.8508 2.7014 0.0000
vt 1.7941 2.9067 0.0000
vt 1.8505 2.9068 0.0000
vt 0.5681 0.9167 0.0000
vt 0.5681 0.6902 0.0000
vt 0.6259 0.6902 0.0000
vt 0.6259 0.9167 0.0000
vt 0.5681 1.1507 0.0000
vt 0.6259 1.1507 0.0000
vt 0.5681 1.4719 0.0000
vt 0.6259 1.4719 0.0000
vt 0.5681 2.2579 0.0000
vt 0.6259 2.2579 0.0000
vt 0.5681 2.5676 0.0000
vt 0.6259 2.5676 0.0000
vt 0.5681 2.8131 0.0000
vt 0.6259 2.8131 0.0000
vt 0.5681 3.0396 0.0000
vt 0.6259 3.0396 0.0000
vt 1.5737 0.6393 0.0000
vt 1.5174 0.6393 0.0000
vt 1.5175 0.4339 0.0000
vt 1.5175 0.1891 0.0000
vt 1.5176 -0.1234 0.0000
vt 1.5176 -0.9992 0.0000
vt 1.5176 -1.3304 0.0000
vt 1.5176 -1.5565 0.0000
vt 0.7412 3.1924 0.0000
vt 0.6848 3.1924 0.0000
vt 0.6850 2.9761 0.0000
vt 0.6850 2.7356 0.0000
vt 0.6850 2.4260 0.0000
vt 0.6850 1.5616 0.0000
vt 0.6850 1.2364 0.0000
vt 0.6850 1.0115 0.0000
vt 0.7413 0.8061 0.0000
vt 0.6849 0.8061 0.0000
vt 1.1120 -1.1262 0.0000
vt 1.1120 -1.3511 0.0000
vt 1.0072 -1.2119 0.0000
vt 1.0072 -1.4459 0.0000
vt 1.0650 -1.4459 0.0000
vt 1.0650 -1.2119 0.0000
vt 2.6667 -1.3580 0.0000
vt 2.6667 -1.0374 0.0000
vt 1.8511 0.1891 0.0000
vt 1.8511 0.4339 0.0000
vt 0.3189 2.5676 0.0000
vt 0.3189 2.8131 0.0000
vt 0.2611 2.8131 0.0000
vt 0.2611 2.5676 0.0000
vt 1.0938 1.4442 0.0000
vt 1.0921 1.1018 0.0000
vt 0.3189 0.9167 0.0000
vt 0.3189 1.1507 0.0000
vt 0.2611 1.1507 0.0000
vt 0.2611 0.9167 0.0000
vt 1.5172 2.7013 0.0000
vt 1.5172 2.4565 0.0000
vt 2.2763 0.3375 0.0000
vt 2.2817 0.6724 0.0000
vt 1.0072 0.4505 0.0000
vt 1.0072 0.2050 0.0000
vt 1.0650 0.2050 0.0000
vt 1.0650 0.4505 0.0000
vt 1.0186 1.0115 0.0000
vt 1.0186 1.2364 0.0000
vt 1.9443 -0.1964 0.0000
vt 1.9572 -0.5251 0.0000
vt 1.5173 0.9370 0.0000
vt 1.5173 0.7109 0.0000
vt 0.5827 -1.2132 0.0000
vt 0.5827 -1.4477 0.0000
vt 0.6406 -1.4477 0.0000
vt 0.6406 -1.2132 0.0000
vt 2.2510 -1.3581 0.0000
vt 2.2510 -1.0366 0.0000
vt 1.0186 2.7356 0.0000
vt 1.0186 2.9761 0.0000
vt 0.3219 0.2064 0.0000
vt 0.3219 0.4523 0.0000
vt 0.2640 0.4523 0.0000
vt 0.2640 0.2064 0.0000
vt 2.7417 -1.0198 0.0000
vt 2.7395 -1.3590 0.0000
vt 1.1120 0.0635 0.0000
vt 1.1120 -0.8010 0.0000
vt 2.3221 -0.8099 0.0000
vt 2.3339 -1.5820 0.0000
vt 1.0072 -0.1047 0.0000
vt 1.0072 -0.8907 0.0000
vt 1.0650 -0.8907 0.0000
vt 1.0650 -0.1047 0.0000
vt 2.2856 -0.7349 0.0000
vt 2.2855 0.0379 0.0000
vt 1.0186 1.5616 0.0000
vt 1.0186 2.4260 0.0000
vt 3.0692 -1.5802 0.0000
vt 3.0697 -0.8085 0.0000
vt 0.3219 -0.8915 0.0000
vt 0.3219 -0.1039 0.0000
vt 0.2640 -0.1039 0.0000
vt 0.2640 -0.8915 0.0000
vt 2.3630 0.0405 0.0000
vt 2.3688 -0.7318 0.0000
vt 1.8512 -0.9992 0.0000
vt 1.8511 -0.1234 0.0000
vt 1.4222 0.8770 0.0000
vt 1.4235 1.6539 0.0000
vt 0.3189 1.4719 0.0000
vt 0.3189 2.2579 0.0000
vt 0.2611 2.2579 0.0000
vt 0.2611 1.4719 0.0000
vt 1.9432 0.8905 0.0000
vt 1.9465 0.1129 0.0000
vt 1.5173 2.1440 0.0000
vt 1.5173 1.2682 0.0000
vt 1.9027 -0.8044 0.0000
vt 1.9176 -1.5818 0.0000
vt 0.5827 -0.1039 0.0000
vt 0.5827 -0.8915 0.0000
vt 0.6406 -0.8915 0.0000
vt 0.6406 -0.1039 0.0000
vt 0.0810 1.6973 0.0000
vt 0.0832 2.4743 0.0000
vt 1.8512 -1.5565 0.0000
vt 1.8512 -1.3304 0.0000
vt -0.2635 2.2325 0.0000
vt -0.2503 1.9035 0.0000
vt 0.5827 0.4523 0.0000
vt 0.5827 0.2064 0.0000
vt 0.6406 0.2064 0.0000
vt 0.6406 0.4523 0.0000
vt 1.1120 0.6136 0.0000
vt 1.1120 0.3730 0.0000
vt 2.6972 -0.5095 0.0000
vt 2.7008 -0.1778 0.0000
vt 0.3219 -1.4477 0.0000
vt 0.3219 -1.2132 0.0000
vt 0.2640 -1.2132 0.0000
vt 0.2640 -1.4477 0.0000
vt 0.5827 -1.6746 0.0000
vt 0.5827 0.6792 0.0000
vt 0.7602 2.9762 0.0000
vt 0.7600 3.1924 0.0000
vt 0.3219 0.6792 0.0000
vt 0.3219 -1.6746 0.0000
vt 1.3703 0.8298 0.0000
vt 1.3704 0.6135 0.0000
vt 0.3189 0.6902 0.0000
vt 1.7753 2.9067 0.0000
vt 1.7756 2.7013 0.0000
vt 1.5927 0.4339 0.0000
vt 1.5925 0.6393 0.0000
vt 0.3189 3.0396 0.0000
vt 1.0072 0.6770 0.0000
vt 0.7601 0.8061 0.0000
vt 0.7602 1.0115 0.0000
vt 1.3705 -1.3511 0.0000
vt 1.3703 -1.5564 0.0000
vt 1.0072 -1.6724 0.0000
# 320 texture coords

g 3_shed_door
usemtl Material__27
s 1
f 1/1/1 2/2/1 3/3/1 4/4/1 
f 5/5/1 6/6/1 7/7/1 8/8/1 
f 9/9/1 10/10/1 11/11/1 12/12/1 
f 13/13/1 14/14/1 15/15/1 16/16/1 
f 17/17/1 18/18/1 19/19/1 20/20/1 
f 21/21/1 22/22/1 23/23/1 24/24/1 
f 25/25/1 26/26/1 27/27/1 28/28/1 
f 29/29/1 30/30/1 31/31/1 32/32/1 
f 33/33/1 34/34/1 35/35/1 36/36/1 
f 24/24/1 23/23/1 37/37/1 38/38/1 
f 22/22/1 21/21/1 39/39/1 40/40/1 
f 28/28/1 27/27/1 41/41/1 42/42/1 
f 26/26/1 25/25/1 43/43/1 44/44/1 
f 32/32/1 31/31/1 45/45/1 46/46/1 
f 30/30/1 29/29/1 47/47/1 48/48/1 
f 36/36/1 35/35/1 49/49/1 50/50/1 
f 34/34/1 33/33/1 51/51/1 52/52/1 
f 4/4/1 3/3/1 53/53/1 54/54/1 
f 2/2/1 1/1/1 55/55/1 56/56/1 
f 16/16/1 15/15/1 57/57/1 58/58/1 
f 14/14/1 13/13/1 59/59/1 60/60/1 
f 20/20/1 19/19/1 61/61/1 62/62/1 
f 18/18/1 17/17/1 63/63/1 64/64/1 
f 38/65/1 65/66/1 66/67/1 24/68/1 
f 21/69/1 67/70/1 68/71/1 39/72/1 
f 52/73/1 69/74/1 70/75/1 34/76/1 
f 41/77/1 27/78/1 71/79/1 72/80/1 
f 46/81/1 73/82/1 74/83/1 32/84/1 
f 44/85/1 75/86/1 76/87/1 26/88/1 
f 50/50/1 49/49/1 77/89/1 78/90/1 
f 79/91/1 80/92/1 49/93/1 35/94/1 
f 40/40/1 39/39/1 81/95/1 82/96/1 
f 52/52/1 51/51/1 83/97/1 84/98/1 
f 44/44/1 43/43/1 85/99/1 86/100/1 
f 48/48/1 47/47/1 87/101/1 88/102/1 
f 89/103/1 47/104/1 29/105/1 90/106/1 
f 42/42/1 41/41/1 91/107/1 92/108/1 
f 56/56/1 55/55/1 5/5/1 8/8/1 
f 60/60/1 59/59/1 93/109/1 94/110/1 
f 54/54/1 53/53/1 9/9/1 12/12/1 
f 64/64/1 63/63/1 95/111/1 96/112/1 
f 97/113/1 98/114/1 99/115/1 100/116/1 
f 37/37/1 101/117/1 102/118/1 38/38/1 
f 103/119/1 104/120/1 105/121/1 106/122/1 
f 107/123/1 108/124/1 46/46/1 45/45/1 
f 100/116/1 99/115/1 58/58/1 57/57/1 
f 109/125/1 94/110/1 93/109/1 110/126/1 
f 106/122/1 105/121/1 62/62/1 61/61/1 
f 111/127/1 96/112/1 95/111/1 112/128/1 
s 2
f 113/129/2 114/130/2 115/131/2 116/132/2 
f 117/133/2 113/129/2 116/132/2 118/134/2 
f 119/135/2 117/133/2 118/134/2 120/136/2 
f 121/137/2 119/135/2 120/136/2 122/138/2 
f 123/139/2 121/137/2 122/138/2 124/140/2 
f 125/141/2 123/139/2 124/140/2 126/142/2 
f 127/143/2 125/141/2 126/142/2 128/144/2 
s 4
f 92/108/3 127/145/3 128/146/3 129/147/3 
f 42/42/3 92/108/3 129/147/3 130/148/3 
f 28/28/3 42/42/3 130/148/3 131/149/3 
f 25/25/3 28/28/3 131/149/3 132/150/3 
f 43/43/3 25/25/3 132/150/3 133/151/3 
f 85/99/3 43/43/3 133/151/3 134/152/3 
f 82/153/3 85/99/3 134/152/3 135/154/3 
f 40/40/3 82/96/3 135/155/3 136/156/3 
f 22/22/3 40/40/3 136/156/3 137/157/3 
f 23/23/3 22/22/3 137/157/3 138/158/3 
f 37/37/3 23/23/3 138/158/3 139/159/3 
f 101/117/3 37/37/3 139/159/3 140/160/3 
f 141/161/3 101/117/3 140/160/3 142/162/3 
s 2
f 143/163/4 141/164/4 142/165/4 144/166/4 
f 145/167/4 143/163/4 144/166/4 146/168/4 
f 147/169/4 145/167/4 146/168/4 148/170/4 
f 149/171/4 147/169/4 148/170/4 150/172/4 
f 151/173/4 149/171/4 150/172/4 152/174/4 
f 153/175/4 151/173/4 152/174/4 154/176/4 
f 155/177/4 153/175/4 154/176/4 156/178/4 
s 4
f 78/90/5 155/179/5 156/180/5 157/181/5 
f 50/50/5 78/90/5 157/181/5 158/182/5 
f 36/36/5 50/50/5 158/182/5 159/183/5 
f 33/33/5 36/36/5 159/183/5 160/184/5 
f 51/51/5 33/33/5 160/184/5 161/185/5 
f 83/97/5 51/51/5 161/185/5 162/186/5 
f 88/102/5 83/187/5 162/188/5 163/189/5 
f 48/48/5 88/102/5 163/189/5 164/190/5 
f 30/30/5 48/48/5 164/190/5 165/191/5 
f 31/31/5 30/30/5 165/191/5 166/192/5 
f 45/45/5 31/31/5 166/192/5 167/193/5 
f 107/123/5 45/45/5 167/193/5 168/194/5 
f 114/195/5 107/123/5 168/194/5 115/196/5 
s 2
f 91/107/5 41/41/5 169/197/5 170/198/5 
s 8
f 72/199/4 91/200/4 170/201/4 171/202/4 
s 4
f 41/77/6 72/80/6 171/203/6 169/204/6 
s 2
f 77/89/3 49/49/3 172/205/3 173/206/3 
s 8
f 80/207/2 77/208/2 173/209/2 174/210/2 
s 4
f 49/93/7 80/92/7 174/211/7 172/212/7 
s 8
f 102/213/2 65/214/2 175/215/2 176/216/2 
s 2
f 38/38/5 102/118/5 176/217/5 177/218/5 
s 4
f 65/66/8 38/65/8 177/219/8 175/220/8 
s 8
f 108/221/4 73/222/4 178/223/4 179/224/4 
s 2
f 46/46/3 108/124/3 179/225/3 180/226/3 
s 4
f 73/82/9 46/81/9 180/227/9 178/228/9 
s 2
f 81/95/5 39/39/5 181/229/5 182/230/5 
s 8
f 68/231/4 81/232/4 182/233/4 183/234/4 
s 4
f 39/72/10 68/71/10 183/235/10 181/236/10 
s 2
f 87/101/3 47/47/3 184/237/3 185/238/3 
s 8
f 89/239/2 87/240/2 185/241/2 186/242/2 
s 4
f 47/104/11 89/103/11 186/243/11 184/244/11 
s 2
f 27/27/5 26/26/5 187/245/5 188/246/5 
f 71/79/12 27/78/12 188/247/12 189/248/12 
s 8
f 74/249/4 71/250/4 189/251/4 190/252/4 
s 2
f 32/84/13 74/83/13 190/253/13 191/254/13 
f 29/29/3 32/32/3 191/255/3 192/256/3 
f 90/106/14 29/105/14 192/257/14 193/258/14 
s 8
f 76/259/2 90/260/2 193/261/2 194/262/2 
s 2
f 26/88/15 76/87/15 194/263/15 187/264/15 
f 35/35/3 34/34/3 195/265/3 196/266/3 
f 79/91/16 35/94/16 196/267/16 197/268/16 
s 8
f 66/269/2 79/270/2 197/271/2 198/272/2 
s 2
f 24/68/17 66/67/17 198/273/17 199/274/17 
f 21/21/5 24/24/5 199/275/5 200/276/5 
f 67/70/18 21/69/18 200/277/18 201/278/18 
s 8
f 70/279/4 67/280/4 201/281/4 202/282/4 
s 2
f 34/76/19 70/75/19 202/283/19 195/284/19 
f 52/52/3 84/98/3 203/285/3 204/286/3 
s 4
f 69/74/20 52/73/20 204/287/20 205/288/20 
s 8
f 84/289/4 69/290/4 205/291/4 203/292/4 
s 2
f 44/44/5 86/100/5 206/293/5 207/294/5 
s 4
f 75/86/21 44/85/21 207/295/21 208/296/21 
s 8
f 86/297/2 75/298/2 208/299/2 206/300/2 
f 8/8/4 7/7/4 82/301/4 81/232/4 
f 56/56/4 8/8/4 81/232/4 68/231/4 
f 2/2/4 56/56/4 68/231/4 67/280/4 
f 3/3/4 2/2/4 67/280/4 70/279/4 
f 53/53/4 3/3/4 70/279/4 69/290/4 
f 9/9/4 53/53/4 69/290/4 84/289/4 
f 10/10/4 9/9/4 84/289/4 83/302/4 
s 4
f 11/303/5 10/304/5 83/187/5 88/102/5 
s 8
f 12/12/2 11/11/2 88/305/2 87/240/2 
f 54/54/2 12/12/2 87/240/2 89/239/2 
f 4/4/2 54/54/2 89/239/2 90/260/2 
f 1/1/2 4/4/2 90/260/2 76/259/2 
f 55/55/2 1/1/2 76/259/2 75/298/2 
f 5/5/2 55/55/2 75/298/2 86/297/2 
f 6/6/2 5/5/2 86/297/2 85/306/2 
s 4
f 7/307/3 6/308/3 85/99/3 82/153/3 
s 8
f 16/16/2 58/58/2 80/207/2 79/270/2 
f 13/13/2 16/16/2 79/270/2 66/269/2 
f 59/59/2 13/13/2 66/269/2 65/214/2 
f 93/109/2 59/59/2 65/214/2 102/213/2 
f 110/126/2 93/109/2 102/213/2 101/309/2 
s 4
f 109/310/3 110/311/3 101/117/3 141/161/3 
s 2
f 94/110/4 109/125/4 141/164/4 143/163/4 
f 60/60/4 94/110/4 143/163/4 145/167/4 
f 14/14/4 60/60/4 145/167/4 147/169/4 
f 15/15/4 14/14/4 147/169/4 149/171/4 
f 57/57/4 15/15/4 149/171/4 151/173/4 
f 100/116/4 57/57/4 151/173/4 153/175/4 
f 97/113/4 100/116/4 153/175/4 155/177/4 
s 4
f 98/312/5 97/313/5 155/179/5 78/90/5 
s 8
f 99/115/2 98/114/2 78/314/2 77/208/2 
f 58/58/2 99/115/2 77/208/2 80/207/2 
f 20/20/4 62/62/4 72/199/4 71/250/4 
f 17/17/4 20/20/4 71/250/4 74/249/4 
f 63/63/4 17/17/4 74/249/4 73/222/4 
f 95/111/4 63/63/4 73/222/4 108/221/4 
f 112/128/4 95/111/4 108/221/4 107/315/4 
s 4
f 111/316/5 112/317/5 107/123/5 114/195/5 
s 2
f 96/112/2 111/127/2 114/130/2 113/129/2 
f 64/64/2 96/112/2 113/129/2 117/133/2 
f 18/18/2 64/64/2 117/133/2 119/135/2 
f 19/19/2 18/18/2 119/135/2 121/137/2 
f 61/61/2 19/19/2 121/137/2 123/139/2 
f 106/122/2 61/61/2 123/139/2 125/141/2 
f 103/119/2 106/122/2 125/141/2 127/143/2 
s 4
f 104/318/3 103/319/3 127/145/3 92/108/3 
s 8
f 105/121/4 104/120/4 92/320/4 91/200/4 
f 62/62/4 105/121/4 91/200/4 72/199/4 
# 177 polygons

