# 3ds Max Wavefront OBJ Exporter v0.97b - (c)2007 guruware
# File Created: 19.07.2019 14:08:33

mtllib 42x72_single_wood_door.mtl

#
# object 42x72_single_wood_door
#

v  2.9993 97.4411 -23.9892
v  2.9993 97.4411 23.9896
v  2.9993 91.3499 23.9896
v  2.9993 91.3499 -23.9892
v  2.9993 91.3499 -47.0648
v  2.9993 91.3499 -53.3399
v  2.9993 97.4411 -53.3399
v  2.9993 97.4411 -47.0648
v  2.9993 186.4525 -47.0648
v  2.9993 186.4525 47.0648
v  2.9993 179.9044 47.0648
v  2.9993 179.9044 -47.0648
v  2.9993 4.3376 23.9896
v  2.9993 4.3376 -23.9892
v  2.9993 10.8655 -23.9892
v  2.9993 10.8655 23.9896
v  2.9993 179.9045 53.3399
v  2.9993 97.4411 53.3399
v  2.9993 97.4411 47.0648
v  2.9993 68.3580 53.3399
v  2.9993 33.7166 53.3399
v  2.9993 33.7166 47.0648
v  2.9993 68.3580 47.0648
v  2.9993 68.3580 -47.0648
v  2.9993 33.7165 -47.0648
v  2.9993 33.7165 -53.3399
v  2.9993 68.3580 -53.3399
v  2.9993 179.9044 -53.3399
v  2.9993 24.1367 53.3399
v  2.9993 24.1367 47.0648
v  2.9993 77.3142 47.0648
v  2.9993 77.3142 53.3399
v  2.9993 24.1366 -47.0648
v  2.9993 24.1366 -53.3399
v  2.9993 77.3142 -53.3399
v  2.9993 77.3142 -47.0648
v  2.9993 97.4411 -32.6442
v  2.9993 91.3499 -32.6442
v  2.9993 97.4411 33.0896
v  2.9993 91.3499 33.0896
v  2.9993 4.3376 33.0896
v  2.9993 10.8655 33.0896
v  2.9993 4.3376 -32.6442
v  2.9993 10.8655 -32.6442
v  2.9993 91.3499 47.0648
v  2.9993 91.3499 53.3399
v  2.9993 10.8655 53.3399
v  2.9993 10.8655 47.0648
v  2.9993 4.3376 -47.0648
v  2.9993 10.8655 -47.0648
v  2.9993 10.8655 -53.3399
v  2.9993 186.4525 53.3399
v  2.9993 4.3376 47.0648
v  2.9993 4.3376 -53.3399
v  0.0000 4.3376 -47.0648
v  0.0000 4.3376 -53.3399
v  0.0000 4.3376 -32.6442
v  0.0000 4.3376 -23.9892
v  0.0000 4.3376 23.9896
v  0.0000 4.3376 33.0896
v  0.0000 4.3376 47.0648
v  2.9993 4.3376 53.3399
v  0.0000 4.3376 53.3399
v  0.0000 10.8655 53.3399
v  0.0000 24.1367 53.3399
v  0.0000 33.7166 53.3399
v  0.0000 68.3580 53.3399
v  0.0000 77.3142 53.3399
v  0.0000 91.3499 53.3399
v  0.0000 97.4411 53.3399
v  0.0000 179.9045 53.3399
v  0.0000 186.4525 53.3399
v  0.0000 186.4525 47.0648
v  0.0000 186.4525 -47.0648
v  2.9993 186.4525 -53.3399
v  0.0000 186.4525 -53.3399
v  0.0000 179.9044 -53.3399
v  0.0000 97.4411 -53.3399
v  0.0000 91.3499 -53.3399
v  0.0000 77.3142 -53.3399
v  0.0000 68.3580 -53.3399
v  0.0000 33.7165 -53.3399
v  0.0000 24.1366 -53.3399
v  0.0000 10.8655 -53.3399
v  0.0000 10.8655 47.0648
v  0.0000 24.1367 47.0648
v  0.0000 10.8655 33.0896
v  0.0000 10.8655 -47.0648
v  0.0000 10.8655 -32.6442
v  0.0000 24.1366 -47.0648
v  0.0000 97.4411 33.0896
v  0.0000 97.4411 47.0648
v  0.0000 91.3499 -47.0648
v  0.0000 77.3142 -47.0648
v  0.0000 91.3499 -32.6442
v  0.0000 33.7166 47.0648
v  0.0000 68.3580 47.0648
v  0.0000 10.8655 23.9896
v  0.0000 10.8655 -23.9892
v  0.0000 33.7165 -47.0648
v  0.0000 68.3580 -47.0648
v  0.0000 91.3499 -23.9892
v  0.0000 91.3499 23.9896
v  0.0000 179.9044 47.0648
v  0.0000 179.9044 -47.0648
v  0.0000 97.4411 -23.9892
v  0.0000 97.4411 23.9896
v  0.0000 97.4411 -47.0648
v  0.0000 97.4411 -32.6442
v  0.0000 77.3142 47.0648
v  0.0000 91.3499 47.0648
v  0.0000 91.3499 33.0896
# 112 vertices

vn 1.0000 0.0000 -0.0000
vn 0.0000 -1.0000 -0.0000
vn 0.0000 0.0000 1.0000
vn 0.0000 1.0000 -0.0000
vn 0.0000 0.0000 -1.0000
vn 0.0000 -0.7252 0.6886
vn 0.0000 -0.7359 -0.6771
vn 0.0000 0.7166 -0.6975
vn 0.0000 0.9249 -0.3803
vn 0.0000 0.7107 -0.7035
vn 0.0000 0.9249 0.3803
vn 0.0000 0.7107 0.7035
vn 0.0000 -0.9241 0.3821
vn 0.0000 -0.7086 0.7056
vn 0.0000 -0.9241 -0.3821
vn 0.0000 -0.7086 -0.7056
vn 0.0000 0.7056 0.7086
# 17 vertex normals

vt 0.8420 -1.4762 0.0000
vt 0.8420 0.0002 0.0000
vt 0.6546 0.0002 0.0000
vt 0.6546 -1.4762 0.0000
vt -1.1159 0.5836 0.0000
vt -0.9228 0.5836 0.0000
vt -0.9228 0.7711 0.0000
vt -1.1159 0.7711 0.0000
vt -0.0372 -1.9010 0.0000
vt -0.0372 0.9957 0.0000
vt -0.2387 0.9957 0.0000
vt -0.2387 -1.9010 0.0000
vt 0.2082 0.0002 0.0000
vt 0.2082 -1.4762 0.0000
vt 0.4091 -1.4762 0.0000
vt 0.4091 0.0002 0.0000
vt -0.6773 3.3087 0.0000
vt -0.6773 0.7711 0.0000
vt -0.4842 0.7710 0.0000
vt -0.4842 3.3087 0.0000
vt -0.6773 -0.1239 0.0000
vt -0.6773 -1.1900 0.0000
vt -0.4842 -1.1900 0.0000
vt -0.4842 -0.1239 0.0000
vt -1.1159 -0.1239 0.0000
vt -1.1160 -1.1900 0.0000
vt -0.9229 -1.1900 0.0000
vt -0.9228 -0.1239 0.0000
vt -1.1159 3.3088 0.0000
vt -0.9227 3.3088 0.0000
vt -0.6772 -1.4848 0.0000
vt -0.4841 -1.4848 0.0000
vt -0.4842 0.1517 0.0000
vt -0.6773 0.1517 0.0000
vt -1.1160 -1.4848 0.0000
vt -0.9229 -1.4848 0.0000
vt -0.9228 0.1517 0.0000
vt -1.1159 0.1517 0.0000
vt 0.8420 -1.7426 0.0000
vt 0.6546 -1.7426 0.0000
vt 0.8420 0.2803 0.0000
vt 0.6546 0.2803 0.0000
vt 0.2082 0.2803 0.0000
vt 0.4091 0.2803 0.0000
vt 0.2082 -1.7426 0.0000
vt 0.4091 -1.7426 0.0000
vt 0.6366 1.5715 0.0000
vt 0.6520 0.9786 0.0000
vt 0.8500 0.7806 0.0000
vt 0.8451 1.7799 0.0000
vt 0.8500 2.6321 0.0000
vt 0.6415 2.8406 0.0000
vt 0.6367 1.8412 0.0000
vt 0.8250 2.0295 0.0000
vt -0.2374 1.5370 0.0000
vt -0.0425 1.3421 0.0000
vt -0.0407 2.3446 0.0000
vt -0.2387 2.1465 0.0000
vt -0.4842 0.5836 0.0000
vt -0.6773 0.5836 0.0000
vt 0.3966 1.5854 0.0000
vt 0.2082 1.7738 0.0000
vt 0.2101 0.7713 0.0000
vt 0.4050 0.9662 0.0000
vt -0.6772 -1.8932 0.0000
vt -0.4841 -1.8932 0.0000
vt 0.8420 0.7103 0.0000
vt 0.6546 0.7103 0.0000
vt 0.6546 -2.1864 0.0000
vt 0.8420 -2.1864 0.0000
vt 0.2082 -2.1864 0.0000
vt 0.4091 -2.1864 0.0000
vt -0.9229 -1.8932 0.0000
vt -1.1160 -1.8932 0.0000
vt -0.0372 1.1888 0.0000
vt -0.2387 1.1888 0.0000
vt 0.4091 0.7103 0.0000
vt 0.2082 0.7103 0.0000
vt -0.9229 -2.0941 0.0000
vt -1.1160 -2.0941 0.0000
vt -1.1160 -2.1864 0.0000
vt -0.9229 -2.1864 0.0000
vt 0.1159 -1.7426 0.0000
vt 0.1159 -2.1864 0.0000
vt 0.1159 -1.4762 0.0000
vt 0.1159 0.0002 0.0000
vt 0.1159 0.2803 0.0000
vt 0.1159 0.7103 0.0000
vt -0.6772 -2.0941 0.0000
vt -0.6772 -2.1864 0.0000
vt -0.4841 -2.1864 0.0000
vt -0.4841 -2.0941 0.0000
vt -0.7695 -1.8932 0.0000
vt -0.7695 -2.0941 0.0000
vt -0.7695 -1.4848 0.0000
vt -0.7696 -1.1900 0.0000
vt -0.7696 -0.1239 0.0000
vt -0.7696 0.1517 0.0000
vt -0.7696 0.5836 0.0000
vt -0.7696 0.7711 0.0000
vt -0.7696 3.3087 0.0000
vt -0.0372 1.2811 0.0000
vt -0.2387 1.2811 0.0000
vt 0.0551 0.9957 0.0000
vt 0.0551 1.1888 0.0000
vt 0.0551 -1.9010 0.0000
vt -0.0372 -2.0941 0.0000
vt 0.0551 -2.0941 0.0000
vt -0.2387 -2.0941 0.0000
vt -0.2387 -2.1864 0.0000
vt -0.0372 -2.1864 0.0000
vt -0.8305 0.7711 0.0000
vt -0.8304 3.3088 0.0000
vt -0.8305 0.5836 0.0000
vt -0.8305 0.1517 0.0000
vt -0.8305 -0.1239 0.0000
vt -0.8306 -1.1900 0.0000
vt -0.8306 -1.4848 0.0000
vt -0.8306 -1.8932 0.0000
vt -0.8306 -2.0941 0.0000
vt -0.3918 -1.8932 0.0000
vt -0.3918 -1.4848 0.0000
vt 0.5014 0.2803 0.0000
vt 0.5014 0.7103 0.0000
vt 0.5444 1.5691 0.0000
vt 0.5597 0.9762 0.0000
vt 0.5014 -2.1864 0.0000
vt 0.5014 -1.7426 0.0000
vt -1.2083 -1.4848 0.0000
vt -1.2083 -1.8932 0.0000
vt 0.9172 2.0257 0.0000
vt 0.9422 2.6283 0.0000
vt 0.9343 0.2803 0.0000
vt 0.9343 0.7103 0.0000
vt -1.2082 0.5836 0.0000
vt -1.2082 0.1517 0.0000
vt 0.5623 -1.7426 0.0000
vt 0.5623 -2.1864 0.0000
vt 0.4972 0.9675 0.0000
vt 0.4889 1.5867 0.0000
vt -0.3919 -1.1900 0.0000
vt -0.3919 -0.1239 0.0000
vt 0.9423 0.7810 0.0000
vt 0.9374 1.7804 0.0000
vt 0.5014 -1.4762 0.0000
vt 0.5014 0.0002 0.0000
vt 0.5493 2.8410 0.0000
vt 0.5444 1.8416 0.0000
vt -1.2083 -0.1239 0.0000
vt -1.2083 -1.1900 0.0000
vt 0.1159 1.7736 0.0000
vt 0.1178 0.7712 0.0000
vt 0.5623 0.0002 0.0000
vt 0.5623 -1.4762 0.0000
vt 0.0498 1.3420 0.0000
vt 0.0516 2.3444 0.0000
vt -0.3310 0.9957 0.0000
vt -0.3310 -1.9010 0.0000
vt -0.3919 0.7710 0.0000
vt -0.3919 3.3087 0.0000
vt 0.9343 -1.4762 0.0000
vt 0.9343 0.0002 0.0000
vt -1.2082 3.3088 0.0000
vt -1.2082 0.7711 0.0000
vt 0.9343 -2.1864 0.0000
vt 0.9343 -1.7426 0.0000
vt -0.3919 0.1517 0.0000
vt -0.3919 0.5836 0.0000
vt -0.3310 2.1463 0.0000
vt -0.3297 1.5368 0.0000
vt 0.5623 0.7103 0.0000
vt 0.5623 0.2803 0.0000
# 172 texture coords

g 42x72_single_wood_door
usemtl Material__27
s 1
f 1/1/1 2/2/1 3/3/1 4/4/1 
f 5/5/1 6/6/1 7/7/1 8/8/1 
f 9/9/1 10/10/1 11/11/1 12/12/1 
f 13/13/1 14/14/1 15/15/1 16/16/1 
f 17/17/1 18/18/1 19/19/1 11/20/1 
f 20/21/1 21/22/1 22/23/1 23/24/1 
f 24/25/1 25/26/1 26/27/1 27/28/1 
f 12/29/1 8/8/1 7/7/1 28/30/1 
f 21/22/1 29/31/1 30/32/1 22/23/1 
f 23/24/1 31/33/1 32/34/1 20/21/1 
f 25/26/1 33/35/1 34/36/1 26/27/1 
f 27/28/1 35/37/1 36/38/1 24/25/1 
f 37/39/1 1/1/1 4/4/1 38/40/1 
f 3/3/1 2/2/1 39/41/1 40/42/1 
f 41/43/1 13/13/1 16/16/1 42/44/1 
f 15/15/1 14/14/1 43/45/1 44/46/1 
f 30/47/1 42/48/1 16/49/1 22/50/1 
f 33/51/1 25/52/1 15/53/1 44/54/1 
f 31/55/1 23/56/1 3/57/1 40/58/1 
f 31/33/1 45/59/1 46/60/1 32/34/1 
f 35/37/1 6/6/1 5/5/1 36/38/1 
f 38/61/1 4/62/1 24/63/1 36/64/1 
f 29/31/1 47/65/1 48/66/1 30/32/1 
f 40/42/1 39/41/1 19/67/1 45/68/1 
f 37/39/1 38/40/1 5/69/1 8/70/1 
f 44/46/1 43/45/1 49/71/1 50/72/1 
f 51/73/1 34/36/1 33/35/1 50/74/1 
f 52/75/1 17/76/1 11/11/1 10/10/1 
f 48/77/1 53/78/1 41/43/1 42/44/1 
f 54/79/1 51/73/1 50/74/1 49/80/1 
s 2
f 49/80/2 55/81/2 56/82/2 54/79/2 
f 43/45/2 57/83/2 55/84/2 49/71/2 
f 14/14/2 58/85/2 57/83/2 43/45/2 
f 13/13/2 59/86/2 58/85/2 14/14/2 
f 41/43/2 60/87/2 59/86/2 13/13/2 
f 53/78/2 61/88/2 60/87/2 41/43/2 
f 62/89/2 63/90/2 61/91/2 53/92/2 
s 4
f 47/65/3 64/93/3 63/94/3 62/89/3 
f 29/31/3 65/95/3 64/93/3 47/65/3 
f 21/22/3 66/96/3 65/95/3 29/31/3 
f 20/21/3 67/97/3 66/96/3 21/22/3 
f 32/34/3 68/98/3 67/97/3 20/21/3 
f 46/60/3 69/99/3 68/98/3 32/34/3 
f 18/18/3 70/100/3 69/99/3 46/60/3 
f 17/17/3 71/101/3 70/100/3 18/18/3 
f 52/75/3 72/102/3 71/103/3 17/76/3 
s 2
f 10/10/4 73/104/4 72/105/4 52/75/4 
f 9/9/4 74/106/4 73/104/4 10/10/4 
f 75/107/4 76/108/4 74/106/4 9/9/4 
s 4
f 28/109/5 77/110/5 76/111/5 75/107/5 
f 7/7/5 78/112/5 77/113/5 28/30/5 
f 6/6/5 79/114/5 78/112/5 7/7/5 
f 35/37/5 80/115/5 79/114/5 6/6/5 
f 27/28/5 81/116/5 80/115/5 35/37/5 
f 26/27/5 82/117/5 81/116/5 27/28/5 
f 34/36/5 83/118/5 82/117/5 26/27/5 
f 51/73/5 84/119/5 83/118/5 34/36/5 
f 54/79/5 56/120/5 84/119/5 51/73/5 
s 2
f 48/66/5 85/121/5 86/122/5 30/32/5 
s 4
f 42/44/4 87/123/4 85/124/4 48/77/4 
s 8
f 30/47/6 86/125/6 87/126/6 42/48/6 
s 2
f 50/72/4 88/127/4 89/128/4 44/46/4 
s 4
f 33/35/3 90/129/3 88/130/3 50/74/3 
s 8
f 44/54/7 89/131/7 90/132/7 33/51/7 
s 2
f 39/41/4 91/133/4 92/134/4 19/67/4 
f 5/5/3 93/135/3 94/136/3 36/38/3 
s 4
f 38/40/2 95/137/2 93/138/2 5/69/2 
s 8
f 36/64/8 94/139/8 95/140/8 38/61/8 
s 2
f 22/23/5 96/141/5 97/142/5 23/24/5 
s 4
f 16/49/9 98/143/9 96/144/10 22/50/10 
f 15/15/11 99/145/11 98/146/9 16/16/9 
f 25/52/12 100/147/12 99/148/11 15/53/11 
s 2
f 24/25/3 101/149/3 100/150/3 25/26/3 
s 4
f 4/62/13 102/151/13 101/152/14 24/63/14 
f 3/3/15 103/153/15 102/154/13 4/4/13 
f 23/56/16 97/155/16 103/156/15 3/57/15 
s 2
f 11/11/2 104/157/2 105/158/2 12/12/2 
s 4
f 19/19/5 92/159/5 104/160/5 11/20/5 
s 2
f 1/1/4 106/161/4 107/162/4 2/2/4 
s 4
f 12/29/3 105/163/3 108/164/3 8/8/3 
s 2
f 8/70/4 108/165/4 109/166/4 37/39/4 
f 31/33/5 110/167/5 111/168/5 45/59/5 
s 4
f 40/58/17 112/169/17 110/170/17 31/55/17 
s 8
f 45/68/2 111/171/2 112/172/2 40/42/2 
s 1
f 19/19/1 18/18/1 46/60/1 45/59/1 
f 12/12/1 28/109/1 75/107/1 9/9/1 
f 48/66/1 47/65/1 62/89/1 53/92/1 
s 2
f 1/1/4 37/39/4 109/166/4 106/161/4 
f 39/41/4 2/2/4 107/162/4 91/133/4 
# 89 polygons

