# 3ds Max Wavefront OBJ Exporter v0.97b - (c)2007 guruware
# File Created: 05.09.2018 20:03:05

mtllib 4_dutch_shed_door.mtl

#
# object 4_dutch_shed_door
#

v  3.0000 190.7755 -30.5372
v  3.0000 190.7755 30.5372
v  3.0000 182.5775 30.5372
v  3.0000 182.5775 -30.5372
v  3.0000 7.8846 30.5372
v  3.0000 7.8846 -30.5372
v  3.0000 16.0827 -30.5372
v  3.0000 16.0827 30.5372
v  3.0000 160.3325 -52.1468
v  3.0000 108.0860 -52.1468
v  3.0000 108.0860 -60.9619
v  3.0000 160.3325 -60.9619
v  3.0000 160.3325 60.9619
v  3.0000 108.0860 60.9619
v  3.0000 108.0860 52.1468
v  3.0000 160.3325 52.1468
v  3.0000 172.8065 -60.9619
v  3.0000 172.8065 -52.1468
v  3.0000 25.0597 -52.1468
v  3.0000 25.0597 -60.9619
v  3.0000 38.0396 -60.9619
v  3.0000 38.0396 -52.1468
v  3.0000 25.0596 60.9619
v  3.0000 25.0596 52.1468
v  3.0000 38.0395 52.1468
v  3.0000 38.0395 60.9619
v  3.0000 172.8065 52.1468
v  3.0000 172.8065 60.9619
v  3.0000 190.7755 42.5922
v  3.0000 182.5775 42.5922
v  3.0000 182.5775 -43.0372
v  3.0000 190.7755 -43.0372
v  3.0000 7.8846 -43.0372
v  3.0000 16.0827 -43.0372
v  3.0000 16.0827 42.5922
v  3.0000 7.8846 42.5922
v  3.0000 182.5775 52.1468
v  3.0000 182.5775 60.9619
v  3.0000 16.0827 -52.1468
v  3.0000 16.0827 -60.9619
v  3.0000 182.5775 -52.1468
v  3.0000 190.7755 -52.1468
v  3.0000 16.0827 52.1468
v  3.0000 7.8846 52.1468
v  3.0000 182.5775 -60.9619
v  3.0000 16.0827 60.9619
v  3.0000 190.7755 52.1468
v  3.0000 7.8846 -52.1468
v  3.0000 7.8846 60.9619
v  0.0000 7.8846 60.9619
v  0.0000 7.8846 52.1468
v  0.0000 7.8846 42.5922
v  0.0000 7.8846 30.5372
v  0.0000 7.8846 -30.5372
v  0.0000 7.8846 -43.0372
v  0.0000 7.8846 -52.1468
v  0.0000 7.8846 -60.9619
v  3.0000 7.8846 -60.9619
v  0.0000 16.0827 -60.9619
v  0.0000 25.0597 -60.9619
v  0.0000 38.0396 -60.9619
v  0.0000 90.2860 -60.9619
v  3.0000 90.2860 -60.9619
v  0.0000 160.3325 -60.9619
v  0.0000 172.8065 -60.9619
v  0.0000 182.5775 -60.9619
v  0.0000 190.7755 -60.9619
v  3.0000 190.7755 -60.9619
v  0.0000 190.7755 -52.1468
v  0.0000 190.7755 -43.0372
v  0.0000 190.7755 -30.5372
v  0.0000 190.7755 30.5372
v  0.0000 190.7755 42.5922
v  0.0000 190.7755 52.1468
v  0.0000 190.7755 60.9619
v  3.0000 190.7755 60.9619
v  0.0000 182.5775 60.9619
v  0.0000 172.8065 60.9619
v  0.0000 160.3325 60.9619
v  0.0000 108.0860 60.9619
v  0.0000 38.0395 60.9619
v  0.0000 25.0596 60.9619
v  0.0000 16.0827 60.9619
v  0.0000 25.0597 -52.1468
v  0.0000 16.0827 -52.1468
v  0.0000 16.0827 -43.0372
v  0.0000 172.8065 52.1468
v  0.0000 182.5775 52.1468
v  0.0000 182.5775 42.5922
v  0.0000 182.5775 -43.0372
v  0.0000 182.5775 -52.1468
v  0.0000 172.8065 -52.1468
v  0.0000 16.0827 42.5922
v  0.0000 16.0827 52.1468
v  0.0000 25.0596 52.1468
v  0.0000 38.0396 -52.1468
v  0.0000 16.0827 -30.5372
v  0.0000 16.0827 30.5372
v  0.0000 38.0395 52.1468
v  0.0000 160.3325 52.1468
v  0.0000 182.5775 30.5372
v  0.0000 182.5775 -30.5372
v  0.0000 160.3325 -52.1468
v  0.0000 108.0860 52.1468
v  3.0000 90.2860 -52.1468
v  0.0000 90.2860 -52.1468
v  3.0000 98.9860 -60.9619
v  3.0000 98.9860 -52.1468
v  3.0000 90.2860 60.9619
v  3.0000 90.2860 52.1468
v  3.0000 98.9860 52.1468
v  3.0000 98.9860 60.9619
v  0.0000 108.0860 -60.9619
v  3.0000 99.3860 -60.9619
v  0.0000 99.3860 -60.9619
v  0.0000 90.2860 60.9619
v  0.0000 98.9860 60.9619
v  3.0000 99.3860 -52.1468
v  3.0000 99.3860 60.9619
v  3.0000 99.3860 52.1468
v  0.0000 98.9860 -60.9619
v  0.0000 99.3860 60.9619
v  0.0000 90.2860 52.1468
v  0.0000 108.0860 -52.1468
v  0.0000 98.9860 52.1468
v  0.0000 98.9860 -52.1468
v  0.0000 99.3860 -52.1468
v  0.0000 99.3860 52.1468
# 128 vertices

vn 1.0000 0.0000 -0.0000
vn 0.0000 -1.0000 -0.0000
vn 0.0000 0.0000 -1.0000
vn 0.0000 1.0000 -0.0000
vn 0.0000 0.0000 1.0000
vn 0.0000 -0.7123 -0.7019
vn 0.0000 0.6991 0.7150
vn 0.0000 0.6819 -0.7314
vn 0.0000 -0.7288 0.6847
vn 0.0000 0.7014 0.7127
vn 0.0000 0.7014 -0.7127
vn 0.0000 -0.6968 -0.7173
vn 0.0000 -0.6968 0.7173
# 13 vertex normals

vt 1.6598 -0.6482 0.0000
vt 1.6598 0.9259 0.0000
vt 1.4485 0.9259 0.0000
vt 1.4485 -0.6482 0.0000
vt 1.0054 0.9259 0.0000
vt 1.0054 -0.6482 0.0000
vt 1.2167 -0.6482 0.0000
vt 1.2167 0.9259 0.0000
vt 1.8917 -0.1631 0.0000
vt 1.8916 -1.5097 0.0000
vt 2.1188 -1.5097 0.0000
vt 2.1188 -0.1631 0.0000
vt 1.8917 1.8340 0.0000
vt 1.8917 0.4874 0.0000
vt 2.1189 0.4874 0.0000
vt 2.1189 1.8340 0.0000
vt 2.1189 0.1584 0.0000
vt 1.8917 0.1584 0.0000
vt 2.3507 -1.2783 0.0000
vt 2.5779 -1.2783 0.0000
vt 2.5779 -0.9438 0.0000
vt 2.3507 -0.9438 0.0000
vt 2.3507 0.7113 0.0000
vt 2.5779 0.7113 0.0000
vt 2.5779 1.0459 0.0000
vt 2.3507 1.0459 0.0000
vt 2.1188 2.1555 0.0000
vt 1.8917 2.1555 0.0000
vt 1.6598 1.2366 0.0000
vt 1.4485 1.2366 0.0000
vt 1.4485 -0.9704 0.0000
vt 1.6598 -0.9704 0.0000
vt 1.0054 -0.9704 0.0000
vt 1.2167 -0.9704 0.0000
vt 1.2167 1.2366 0.0000
vt 1.0054 1.2366 0.0000
vt 2.8097 0.1616 0.0000
vt 2.8133 -0.6377 0.0000
vt 3.0363 -0.4061 0.0000
vt 3.0418 -0.0619 0.0000
vt 2.8104 0.2388 0.0000
vt 3.0398 0.4650 0.0000
vt 3.0446 0.7946 0.0000
vt 2.8097 1.0328 0.0000
vt 3.0475 -1.5097 0.0000
vt 3.0429 -0.7157 0.0000
vt 2.8096 -0.9555 0.0000
vt 2.8248 -1.2931 0.0000
vt 2.1188 2.4073 0.0000
vt 1.8916 2.4073 0.0000
vt 1.8916 2.7156 0.0000
vt 2.1152 2.4846 0.0000
vt 2.1167 3.2839 0.0000
vt 1.8935 3.0679 0.0000
vt 2.3507 -1.5097 0.0000
vt 2.5779 -1.5097 0.0000
vt 1.4485 -1.2052 0.0000
vt 1.6598 -1.2052 0.0000
vt 1.2167 1.4828 0.0000
vt 1.0054 1.4828 0.0000
vt 1.8917 0.4102 0.0000
vt 2.1189 0.4102 0.0000
vt 2.3507 0.4800 0.0000
vt 2.5779 0.4800 0.0000
vt 1.6598 1.4828 0.0000
vt 1.4485 1.4828 0.0000
vt 1.0054 -1.2052 0.0000
vt 1.2167 -1.2052 0.0000
vt 1.0054 1.7100 0.0000
vt 1.2167 1.7100 0.0000
vt 0.9281 1.7100 0.0000
vt 0.9281 1.4828 0.0000
vt 0.9281 1.2366 0.0000
vt 0.9281 0.9259 0.0000
vt 0.9281 -0.6482 0.0000
vt 0.9281 -0.9704 0.0000
vt 0.9281 -1.2052 0.0000
vt 0.9281 -1.4324 0.0000
vt 1.0054 -1.4324 0.0000
vt 1.0054 -1.5097 0.0000
vt 1.2167 -1.5097 0.0000
vt 1.2167 -1.4324 0.0000
vt 2.6552 -1.5097 0.0000
vt 2.6552 -1.2783 0.0000
vt 2.6552 -0.9438 0.0000
vt 2.6552 0.4028 0.0000
vt 2.5779 0.4028 0.0000
vt 2.1962 -0.1631 0.0000
vt 2.1962 0.1584 0.0000
vt 2.1962 0.4102 0.0000
vt 1.4485 -1.5097 0.0000
vt 1.6598 -1.5097 0.0000
vt 1.6598 -1.4324 0.0000
vt 1.4485 -1.4324 0.0000
vt 1.7371 -1.4324 0.0000
vt 1.7371 -1.2052 0.0000
vt 1.7371 -0.9704 0.0000
vt 1.7371 -0.6482 0.0000
vt 1.7371 0.9259 0.0000
vt 1.7371 1.2366 0.0000
vt 1.7371 1.4828 0.0000
vt 1.7371 1.7100 0.0000
vt 1.6598 1.7100 0.0000
vt 1.6598 1.7873 0.0000
vt 1.4485 1.7873 0.0000
vt 1.4485 1.7100 0.0000
vt 1.8143 2.4073 0.0000
vt 1.8143 2.1555 0.0000
vt 1.8143 1.8340 0.0000
vt 1.8143 0.4874 0.0000
vt 2.2734 1.0459 0.0000
vt 2.2734 0.7113 0.0000
vt 2.2734 0.4800 0.0000
vt 1.2167 1.7873 0.0000
vt 1.0054 1.7873 0.0000
vt 2.2734 -1.2783 0.0000
vt 2.2734 -1.5097 0.0000
vt 1.2940 -1.2052 0.0000
vt 1.2940 -0.9704 0.0000
vt 3.1171 0.4639 0.0000
vt 3.1219 0.7935 0.0000
vt 2.1962 2.1555 0.0000
vt 2.1962 2.4073 0.0000
vt 1.3712 1.4828 0.0000
vt 1.3712 1.2366 0.0000
vt 1.8161 3.0683 0.0000
vt 1.8143 2.7160 0.0000
vt 1.3712 -0.9704 0.0000
vt 1.3712 -1.2052 0.0000
vt 1.8143 0.4102 0.0000
vt 1.8143 0.1584 0.0000
vt 3.1136 -0.4074 0.0000
vt 3.1191 -0.0631 0.0000
vt 1.2940 1.2366 0.0000
vt 1.2940 1.4828 0.0000
vt 2.6552 0.4800 0.0000
vt 2.6552 0.7113 0.0000
vt 2.7324 -0.9590 0.0000
vt 2.7476 -1.2965 0.0000
vt 2.7324 1.0328 0.0000
vt 2.7331 0.2388 0.0000
vt 1.2940 -0.6482 0.0000
vt 1.2940 0.9259 0.0000
vt 3.1249 -1.5093 0.0000
vt 3.1202 -0.7153 0.0000
vt 2.1926 2.4845 0.0000
vt 2.1940 3.2838 0.0000
vt 1.3712 0.9259 0.0000
vt 1.3712 -0.6482 0.0000
vt 2.7324 0.1612 0.0000
vt 2.7360 -0.6381 0.0000
vt 2.1962 0.4874 0.0000
vt 2.1962 1.8340 0.0000
vt 2.3507 0.4028 0.0000
vt 2.2734 0.4028 0.0000
vt 2.2734 -0.9438 0.0000
vt 0.0933 -1.2052 0.0000
vt 0.0933 -1.4324 0.0000
vt 0.3175 -1.4324 0.0000
vt 0.3175 -1.2052 0.0000
vt 0.0933 1.7100 0.0000
vt 0.0933 1.4828 0.0000
vt 0.3175 1.4828 0.0000
vt 0.3175 1.7100 0.0000
vt 0.7736 -1.5097 0.0000
vt 0.7736 -1.4324 0.0000
vt 0.5493 -1.4324 0.0000
vt 0.5493 -1.5097 0.0000
vt 0.0933 1.7873 0.0000
vt 0.3175 1.7873 0.0000
vt 0.5493 -1.2052 0.0000
vt 0.7736 -1.2052 0.0000
vt 0.5493 1.7100 0.0000
vt 0.5493 1.4828 0.0000
vt 0.7736 1.4828 0.0000
vt 0.7735 1.7100 0.0000
vt 0.3175 -1.5097 0.0000
vt 0.0933 -1.5097 0.0000
vt 0.5493 1.7873 0.0000
vt 0.7735 1.7873 0.0000
vt 2.5779 2.3924 0.0000
vt 2.3507 2.3924 0.0000
vt 2.1962 -1.5097 0.0000
vt 2.2734 2.3924 0.0000
vt 2.6552 1.0459 0.0000
vt 2.6552 2.3924 0.0000
vt 1.8143 -0.1631 0.0000
vt 1.8143 -1.5097 0.0000
vt 0.3948 1.4828 0.0000
vt 0.3948 -1.2052 0.0000
vt 0.0159 1.4828 0.0000
vt 0.0159 -1.2052 0.0000
vt 0.4720 -1.2052 0.0000
vt 0.4720 1.4828 0.0000
vt 0.8509 -1.2052 0.0000
vt 0.8509 1.4828 0.0000
vt 0.3948 1.7100 0.0000
vt 0.4720 1.7100 0.0000
vt 0.4720 -1.4324 0.0000
vt 0.3948 -1.4324 0.0000
# 200 texture coords

g 4_dutch_shed_door
usemtl Material__27
s 1
f 1/1/1 2/2/1 3/3/1 4/4/1 
f 5/5/1 6/6/1 7/7/1 8/8/1 
f 9/9/1 10/10/1 11/11/1 12/12/1 
f 13/13/1 14/14/1 15/15/1 16/16/1 
f 17/17/1 18/18/1 9/9/1 12/12/1 
f 19/19/1 20/20/1 21/21/1 22/22/1 
f 23/23/1 24/24/1 25/25/1 26/26/1 
f 27/27/1 28/28/1 13/13/1 16/16/1 
f 2/2/1 29/29/1 30/30/1 3/3/1 
f 4/4/1 31/31/1 32/32/1 1/1/1 
f 6/6/1 33/33/1 34/34/1 7/7/1 
f 8/8/1 35/35/1 36/36/1 5/5/1 
f 4/37/1 9/38/1 18/39/1 31/40/1 
f 7/41/1 34/42/1 19/43/1 22/44/1 
f 8/45/1 25/46/1 24/47/1 35/48/1 
f 37/49/1 38/50/1 28/28/1 27/27/1 
f 27/51/1 16/52/1 3/53/1 30/54/1 
f 39/55/1 40/56/1 20/20/1 19/19/1 
f 31/31/1 41/57/1 42/58/1 32/32/1 
f 35/35/1 43/59/1 44/60/1 36/36/1 
f 41/61/1 18/18/1 17/17/1 45/62/1 
f 24/24/1 23/23/1 46/63/1 43/64/1 
f 30/30/1 29/29/1 47/65/1 37/66/1 
f 34/34/1 33/33/1 48/67/1 39/68/1 
f 49/69/1 44/60/1 43/59/1 46/70/1 
f 50/71/2 51/72/2 44/60/2 49/69/2 
f 51/72/2 52/73/2 36/36/2 44/60/2 
f 52/73/2 53/74/2 5/5/2 36/36/2 
f 53/74/2 54/75/2 6/6/2 5/5/2 
f 54/75/2 55/76/2 33/33/2 6/6/2 
f 55/76/2 56/77/2 48/67/2 33/33/2 
f 56/77/2 57/78/2 58/79/2 48/67/2 
f 57/80/3 59/81/3 40/82/3 58/79/3 
f 59/83/3 60/84/3 20/20/3 40/56/3 
f 60/84/3 61/85/3 21/21/3 20/20/3 
f 62/86/3 63/87/3 21/21/3 61/85/3 
f 64/88/3 65/89/3 17/17/3 12/12/3 
f 65/89/3 66/90/3 45/62/3 17/17/3 
f 66/91/3 67/92/3 68/93/3 45/94/3 
f 67/95/4 69/96/4 42/58/4 68/93/4 
f 69/96/4 70/97/4 32/32/4 42/58/4 
f 70/97/4 71/98/4 1/1/4 32/32/4 
f 71/98/4 72/99/4 2/2/4 1/1/4 
f 72/99/4 73/100/4 29/29/4 2/2/4 
f 73/100/4 74/101/4 47/65/4 29/29/4 
f 74/101/4 75/102/4 76/103/4 47/65/4 
f 75/104/5 77/105/5 38/106/5 76/103/5 
f 77/107/5 78/108/5 28/28/5 38/50/5 
f 78/108/5 79/109/5 13/13/5 28/28/5 
f 80/110/5 14/14/5 13/13/5 79/109/5 
f 81/111/5 82/112/5 23/23/5 26/26/5 
f 82/112/5 83/113/5 46/63/5 23/23/5 
f 83/114/5 50/115/5 49/69/5 46/70/5 
f 84/116/5 85/117/5 39/55/5 19/19/5 
f 85/118/4 86/119/4 34/34/4 39/68/4 
f 86/120/6 84/121/6 19/43/6 34/42/6 
f 87/122/3 88/123/3 37/49/3 27/27/3 
f 88/124/2 89/125/2 30/30/2 37/66/2 
f 89/126/7 87/127/7 27/51/7 30/54/7 
f 90/128/2 91/129/2 41/57/2 31/31/2 
f 91/130/5 92/131/5 18/18/5 41/61/5 
f 92/132/8 90/133/8 31/40/8 18/39/8 
f 93/134/4 94/135/4 43/59/4 35/35/4 
f 94/136/3 95/137/3 24/24/3 43/64/3 
f 95/138/9 93/139/9 35/48/9 24/47/9 
f 96/140/10 97/141/10 7/41/10 22/44/10 
f 97/142/4 98/143/4 8/8/4 7/7/4 
f 98/144/11 99/145/11 25/46/11 8/45/11 
f 100/146/12 101/147/12 3/53/12 16/52/12 
f 101/148/2 102/149/2 4/4/2 3/3/2 
f 102/150/13 103/151/13 9/38/13 4/37/13 
f 16/16/3 15/15/3 104/152/3 100/153/3 
f 22/22/5 105/154/5 106/155/5 96/156/5 
f 45/94/1 68/93/1 42/58/1 41/57/1 
f 76/103/1 38/106/1 37/66/1 47/65/1 
f 58/79/1 40/82/1 39/68/1 48/67/1 
f 105/157/1 63/158/1 107/159/1 108/160/1 
f 109/161/1 110/162/1 111/163/1 112/164/1 
f 113/165/3 11/166/3 114/167/3 115/168/3 
f 116/169/5 109/161/5 112/164/5 117/170/5 
f 118/171/1 114/167/1 11/166/1 10/172/1 
f 119/173/1 120/174/1 15/175/1 14/176/1 
f 121/177/3 107/159/3 63/158/3 62/178/3 
f 122/179/5 119/173/5 14/176/5 80/180/5 
f 22/22/1 21/21/1 63/87/1 105/154/1 
f 26/26/1 25/25/1 110/181/1 109/182/1 
f 64/88/3 12/12/3 11/11/3 113/183/3 
f 81/111/5 26/26/5 109/182/5 116/184/5 
f 25/25/3 99/185/3 123/186/3 110/181/3 
f 9/9/5 103/187/5 124/188/5 10/10/5 
f 125/189/4 111/163/4 108/160/4 126/190/4 
f 111/163/1 110/162/1 105/157/1 108/160/1 
f 110/162/2 123/191/2 106/192/2 105/157/2 
f 127/193/2 118/171/2 120/174/2 128/194/2 
f 118/171/1 10/172/1 15/175/1 120/174/1 
f 10/172/4 124/195/4 104/196/4 15/175/4 
f 125/189/4 117/197/4 112/164/4 111/163/4 
f 120/174/2 119/173/2 122/198/2 128/194/2 
f 127/193/2 115/199/2 114/167/2 118/171/2 
f 108/160/4 107/159/4 121/200/4 126/190/4 
# 100 polygons

