# 3ds Max Wavefront OBJ Exporter v0.97b - (c)2007 guruware
# File Created: 05.09.2018 20:24:30

mtllib 4_shed_door_(w_transom).mtl

#
# object 4_Shed_Door_w_transom
#

v  -0.0176 7.8772 60.9346
v  -0.0176 7.8772 -60.9600
v  3.2026 7.8772 -60.9600
v  3.2026 7.8772 60.9346
v  3.2026 190.7572 60.9346
v  -0.0176 190.7572 60.9346
v  -0.0176 155.5419 60.9346
v  3.2026 155.5419 60.9346
v  3.2026 190.7572 35.9361
v  3.2026 181.2653 35.9360
v  3.2026 181.2653 -35.9360
v  3.2026 190.7572 -35.9360
v  3.2026 17.6809 -51.1448
v  3.2026 17.6809 51.1693
v  3.2026 145.8017 -35.9360
v  3.2026 155.5421 -35.9360
v  3.2026 155.5421 35.9360
v  3.2026 145.8017 35.9360
v  -0.0176 145.8019 -60.9600
v  3.2026 145.8019 -60.9600
v  0.3197 17.6809 51.1693
v  0.3197 145.8017 51.1694
v  3.2026 145.8017 51.1694
v  0.3197 17.6809 -51.1448
v  0.3197 145.8017 35.9360
v  0.3197 145.8017 -35.9360
v  3.2026 181.2653 -51.1447
v  0.3197 181.2653 -51.1447
v  0.3197 155.5421 -51.1447
v  3.2026 155.5421 -51.1447
v  -0.0176 190.7572 -35.9360
v  -0.0176 190.7572 35.9361
v  0.3197 181.2653 35.9360
v  0.3197 181.2653 -35.9360
v  0.3197 155.5421 35.9360
v  0.3197 155.5421 -35.9360
v  3.2026 155.5421 51.1694
v  3.2026 181.2653 51.1694
v  3.2026 155.5419 -60.9600
v  3.2026 190.7572 -60.9600
v  3.2026 145.8019 60.9346
v  -0.0176 145.8019 60.9346
v  -0.0176 155.5419 -60.9600
v  3.2026 145.8017 -51.1448
v  0.3197 145.8017 -51.1448
v  0.3197 155.5421 51.1694
v  0.3197 181.2653 51.1694
v  -0.0176 190.7572 -60.9600
v  3.2026 190.7572 45.4361
v  3.2026 181.2653 45.4360
v  3.2026 181.2653 -45.4360
v  3.2026 190.7572 -45.4360
v  3.2026 145.8017 -45.4360
v  3.2026 155.5421 -45.4360
v  3.2026 155.5421 45.4360
v  3.2026 145.8017 45.4360
v  0.3197 145.8017 45.4360
v  0.3197 145.8017 -45.4360
v  -0.0176 190.7572 -45.4360
v  -0.0176 190.7572 45.4361
v  0.3197 181.2653 45.4360
v  0.3197 181.2653 -45.4360
v  0.3197 155.5421 45.4360
v  0.3197 155.5421 -45.4360
# 64 vertices

vn 0.0000 -1.0000 -0.0000
vn 0.0000 0.0000 1.0000
vn 0.9996 0.0290 -0.0000
vn 1.0000 0.0000 -0.0000
vn 0.0000 0.0000 -1.0000
vn 0.0000 1.0000 -0.0000
# 6 vertex normals

vt 2.0440 1.4211 0.0000
vt 2.0440 -2.6866 0.0000
vt 2.1473 -2.6866 0.0000
vt 2.1473 1.4211 0.0000
vt 0.1932 3.4658 0.0000
vt 0.0847 3.4658 0.0000
vt 0.0847 2.2685 0.0000
vt 0.1932 2.2685 0.0000
vt 1.8326 0.5787 0.0000
vt 1.5006 0.5787 0.0000
vt 1.5006 -1.8433 0.0000
vt 1.8326 -1.8433 0.0000
vt 2.4776 -2.3558 0.0000
vt 2.4776 1.0920 0.0000
vt 2.7696 -2.1741 0.0000
vt 3.0961 -2.1741 0.0000
vt 3.0961 0.2479 0.0000
vt 2.7695 0.2479 0.0000
vt -0.1214 -2.6971 0.0000
vt -0.0129 -2.6971 0.0000
vt -0.0129 1.9403 0.0000
vt -0.1214 1.9403 0.0000
vt 0.5223 -2.3667 0.0000
vt 0.6194 -2.3667 0.0000
vt 0.6194 1.9403 0.0000
vt 0.5223 1.9403 0.0000
vt 2.5801 -2.3558 0.0000
vt 2.5801 1.0920 0.0000
vt 2.6777 0.2479 0.0000
vt 2.6777 -2.1741 0.0000
vt -0.4522 3.1354 0.0000
vt -0.5494 3.1354 0.0000
vt -0.5494 2.2685 0.0000
vt -0.4522 2.2685 0.0000
vt 1.9465 -1.8433 0.0000
vt 1.9465 0.5787 0.0000
vt 1.4104 0.5786 0.0000
vt 1.4104 -1.8433 0.0000
vt 3.2002 0.2479 0.0000
vt 3.2002 -2.1741 0.0000
vt 0.5223 2.2685 0.0000
vt 0.5223 3.1354 0.0000
vt -0.1214 2.2685 0.0000
vt -0.1214 3.4658 0.0000
vt 0.1932 1.9403 0.0000
vt 0.0847 1.9403 0.0000
vt 0.0847 -2.6971 0.0000
vt 0.1932 -2.6971 0.0000
vt -0.0129 2.2685 0.0000
vt -0.4522 1.9403 0.0000
vt -0.5494 1.9403 0.0000
vt -0.5494 -2.3667 0.0000
vt -0.4522 -2.3667 0.0000
vt 0.6194 2.2685 0.0000
vt 0.6194 3.1354 0.0000
vt -0.0129 3.4658 0.0000
vt 1.8326 0.8988 0.0000
vt 1.5006 0.8988 0.0000
vt 1.5006 -2.1635 0.0000
vt 1.8326 -2.1635 0.0000
vt 2.7695 -2.4942 0.0000
vt 3.0961 -2.4942 0.0000
vt 3.0961 0.5681 0.0000
vt 2.7695 0.5681 0.0000
vt 2.6777 0.5681 0.0000
vt 2.6777 -2.4942 0.0000
vt 1.9465 -2.1635 0.0000
vt 1.9465 0.8988 0.0000
vt 1.8327 1.4211 0.0000
vt 1.5023 1.0921 0.0000
vt 1.5023 -2.3559 0.0000
vt 1.8327 -2.6866 0.0000
vt 2.7695 -2.6866 0.0000
vt 3.0978 -2.6866 0.0000
vt 3.0978 0.7613 0.0000
vt 2.7695 0.7613 0.0000
vt 2.6777 0.7613 0.0000
vt 2.6777 -2.6866 0.0000
vt 1.9465 -2.6866 0.0000
vt 1.9465 1.4211 0.0000
vt 1.4104 1.0921 0.0000
vt 1.4104 0.8989 0.0000
vt 1.4104 -2.3559 0.0000
vt 1.4104 -2.1635 0.0000
vt 3.2002 0.7613 0.0000
vt 3.2002 0.5681 0.0000
vt 3.2002 -2.6866 0.0000
vt 3.2002 -2.4942 0.0000
vt 1.2314 3.5161 0.0000
vt 1.1343 3.5161 0.0000
vt 1.1343 2.6492 0.0000
vt 1.2314 2.6492 0.0000
vt 0.8141 3.5161 0.0000
vt 0.8141 2.6492 0.0000
vt 0.7170 3.5161 0.0000
vt 0.7170 2.6492 0.0000
vt 1.5076 2.3750 0.0000
vt 1.4104 2.3750 0.0000
vt 1.4104 1.5082 0.0000
vt 1.5076 1.5082 0.0000
vt 1.9248 2.3750 0.0000
vt 1.8277 2.3750 0.0000
vt 1.8277 1.5082 0.0000
vt 1.9248 1.5082 0.0000
# 104 texture coords

g 4_Shed_Door_w_transom
usemtl None
s 1
f 1/1/1 2/2/1 3/3/1 4/4/1 
f 5/5/2 6/6/2 7/7/2 8/8/2 
f 9/9/3 10/10/3 11/11/4 12/12/3 
f 13/13/4 14/14/4 4/4/4 3/3/4 
f 15/15/4 16/16/4 17/17/4 18/18/4 
f 3/19/5 2/20/5 19/21/5 20/22/5 
f 14/23/5 21/24/5 22/25/5 23/26/5 
f 24/27/6 21/28/6 14/14/6 13/13/6 
f 18/18/1 25/29/1 26/30/1 15/15/1 
f 27/31/2 28/32/2 29/33/2 30/34/2 
f 12/12/6 31/35/6 32/36/6 9/9/6 
f 10/10/1 33/37/1 34/38/1 11/11/1 
f 35/39/6 17/17/6 16/16/6 36/40/6 
f 8/8/4 37/41/4 38/42/4 5/5/4 
f 39/43/4 40/44/4 27/31/4 30/34/4 
f 41/45/2 42/46/2 1/47/2 4/48/2 
f 20/22/5 19/21/5 43/49/5 39/43/5 
f 44/50/2 45/51/2 24/52/2 13/53/2 
f 23/26/4 41/45/4 4/48/4 14/23/4 
f 3/19/4 20/22/4 44/50/4 13/53/4 
f 37/41/5 46/54/5 47/55/5 38/42/5 
f 8/8/2 7/7/2 42/46/2 41/45/2 
f 23/26/4 37/41/4 8/8/4 41/45/4 
f 20/22/4 39/43/4 30/34/4 44/50/4 
f 39/43/5 43/49/5 48/56/5 40/44/5 
f 9/9/4 49/57/4 50/58/4 10/10/4 
f 51/59/4 52/60/4 12/12/4 11/11/4 
f 53/61/4 54/62/4 16/16/4 15/15/4 
f 55/63/4 56/64/4 18/18/4 17/17/4 
f 56/64/1 57/65/1 25/29/1 18/18/1 
f 58/66/1 53/61/1 15/15/1 26/30/1 
f 52/60/6 59/67/6 31/35/6 12/12/6 
f 60/68/6 49/57/6 9/9/6 32/36/6 
f 49/57/4 5/69/4 38/70/4 50/58/4 
f 27/71/4 40/72/4 52/60/4 51/59/4 
f 44/73/4 30/74/4 54/62/4 53/61/4 
f 37/75/4 23/76/4 56/64/4 55/63/4 
f 23/76/1 22/77/1 57/65/1 56/64/1 
f 45/78/1 44/73/1 53/61/1 58/66/1 
f 40/72/6 48/79/6 59/67/6 52/60/6 
f 6/80/6 5/69/6 49/57/6 60/68/6 
f 38/70/1 47/81/1 61/82/1 50/58/1 
f 28/83/1 27/71/1 51/59/1 62/84/1 
f 46/85/6 37/75/6 55/63/6 63/86/6 
f 30/74/6 29/87/6 64/88/6 54/62/6 
f 33/89/5 10/90/5 17/91/5 35/92/5 
f 10/90/4 50/93/4 55/94/4 17/91/4 
f 50/93/2 61/95/2 63/96/2 55/94/2 
f 11/97/2 34/98/2 36/99/2 16/100/2 
f 62/101/5 51/102/5 54/103/5 64/104/5 
f 51/102/4 11/97/4 16/100/4 54/103/4 
# 51 polygons

