# 3ds Max Wavefront OBJ Exporter v0.97b - (c)2007 guruware
# File Created: 12.03.2019 20:11:40

mtllib 4_shed_door_w_transom.mtl

#
# object 4_shed_door_w_transom
#

v  3.2026 8.1891 -60.9600
v  3.2026 8.1891 60.9346
v  -0.0176 8.1891 60.9346
v  -0.0176 8.1891 -60.9600
v  -0.0176 155.5420 60.9346
v  3.2026 155.5420 60.9346
v  3.2026 191.0691 60.9346
v  -0.0176 191.0691 60.9346
v  3.2026 181.2654 -35.9360
v  3.2026 191.0691 -35.9360
v  3.2026 191.0691 35.9361
v  3.2026 181.2654 35.9360
v  3.2026 17.9928 -51.1448
v  3.2026 17.9928 51.1693
v  3.2026 155.5422 35.9360
v  3.2026 145.8018 35.9360
v  3.2026 145.8018 -35.9360
v  3.2026 155.5422 -35.9360
v  -0.0176 145.8020 -60.9600
v  3.2026 145.8020 -60.9600
v  0.3197 145.8018 51.1694
v  3.2026 145.8018 51.1694
v  0.3197 17.9928 51.1693
v  0.3197 17.9928 -51.1448
v  0.3197 145.8018 -35.9360
v  0.3197 145.8018 35.9360
v  0.3197 155.5422 -51.1447
v  3.2026 155.5422 -51.1447
v  3.2026 181.2654 -51.1447
v  0.3197 181.2654 -51.1447
v  -0.0176 191.0691 35.9361
v  -0.0176 191.0691 -35.9360
v  0.3197 181.2654 -35.9360
v  0.3197 181.2654 35.9360
v  0.3197 155.5422 -35.9360
v  0.3197 155.5422 35.9360
v  3.2026 181.2654 51.1694
v  3.2026 155.5422 51.1694
v  3.2026 155.5420 -60.9600
v  3.2026 191.0691 -60.9600
v  3.2026 145.8020 60.9346
v  -0.0176 145.8020 60.9346
v  -0.0176 155.5420 -60.9600
v  3.2026 145.8018 -51.1448
v  0.3197 145.8018 -51.1448
v  0.3197 181.2654 51.1694
v  0.3197 155.5422 51.1694
v  -0.0176 191.0691 -60.9600
v  3.2026 181.2654 45.4360
v  3.2026 191.0691 45.4361
v  3.2026 181.2654 -45.4360
v  3.2026 191.0691 -45.4360
v  3.2026 145.8018 -45.4360
v  3.2026 155.5422 -45.4360
v  3.2026 155.5422 45.4360
v  3.2026 145.8018 45.4360
v  0.3197 145.8018 45.4360
v  0.3197 145.8018 -45.4360
v  -0.0176 191.0691 -45.4360
v  -0.0176 191.0691 45.4361
v  0.3197 181.2654 45.4360
v  0.3197 181.2654 -45.4360
v  0.3197 155.5422 45.4360
v  0.3197 155.5422 -45.4360
# 64 vertices

vn 0.0000 -1.0000 -0.0000
vn 0.0000 0.0000 1.0000
vn 1.0000 0.0000 -0.0000
vn 0.9996 0.0290 -0.0000
vn 0.0000 0.0000 -1.0000
vn 0.0000 1.0000 -0.0000
# 6 vertex normals

vt 2.1526 -2.6866 0.0000
vt 2.1526 1.4211 0.0000
vt 2.0440 1.4211 0.0000
vt 2.0440 -2.6866 0.0000
vt 0.0847 2.2790 0.0000
vt 0.1932 2.2790 0.0000
vt 0.1932 3.4763 0.0000
vt 0.0847 3.4763 0.0000
vt 1.5076 -1.8433 0.0000
vt 1.8379 -1.8433 0.0000
vt 1.8379 0.5787 0.0000
vt 1.5076 0.5787 0.0000
vt 2.4829 -2.3558 0.0000
vt 2.4829 1.0920 0.0000
vt 3.1031 0.2479 0.0000
vt 2.7748 0.2479 0.0000
vt 2.7749 -2.1741 0.0000
vt 3.1031 -2.1741 0.0000
vt -0.0129 1.9508 0.0000
vt -0.1214 1.9508 0.0000
vt -0.1214 -2.6866 0.0000
vt -0.0129 -2.6866 0.0000
vt 0.6194 1.9508 0.0000
vt 0.5223 1.9508 0.0000
vt 0.5223 -2.3562 0.0000
vt 0.6194 -2.3562 0.0000
vt 2.5801 -2.3558 0.0000
vt 2.5801 1.0920 0.0000
vt 2.6777 -2.1741 0.0000
vt 2.6777 0.2479 0.0000
vt -0.5494 2.2790 0.0000
vt -0.4522 2.2790 0.0000
vt -0.4522 3.1459 0.0000
vt -0.5494 3.1459 0.0000
vt 1.9465 0.5787 0.0000
vt 1.9465 -1.8433 0.0000
vt 1.4104 -1.8433 0.0000
vt 1.4104 0.5786 0.0000
vt 3.2002 -2.1741 0.0000
vt 3.2002 0.2479 0.0000
vt 0.5223 3.1459 0.0000
vt 0.5223 2.2790 0.0000
vt -0.1214 2.2790 0.0000
vt -0.1214 3.4763 0.0000
vt 0.0847 -2.6866 0.0000
vt 0.1932 -2.6866 0.0000
vt 0.1932 1.9508 0.0000
vt 0.0847 1.9508 0.0000
vt -0.0129 2.2790 0.0000
vt -0.5494 -2.3562 0.0000
vt -0.4522 -2.3562 0.0000
vt -0.4522 1.9508 0.0000
vt -0.5494 1.9508 0.0000
vt 0.6194 3.1459 0.0000
vt 0.6194 2.2790 0.0000
vt -0.0129 3.4763 0.0000
vt 1.5076 0.8988 0.0000
vt 1.8379 0.8988 0.0000
vt 1.5076 -2.1635 0.0000
vt 1.8379 -2.1635 0.0000
vt 2.7748 -2.4942 0.0000
vt 3.1031 -2.4942 0.0000
vt 3.1031 0.5681 0.0000
vt 2.7748 0.5681 0.0000
vt 2.6777 0.5681 0.0000
vt 2.6777 -2.4942 0.0000
vt 1.9465 -2.1635 0.0000
vt 1.9465 0.8988 0.0000
vt 1.5076 1.0921 0.0000
vt 1.8380 1.4211 0.0000
vt 1.5076 -2.3559 0.0000
vt 1.8380 -2.6866 0.0000
vt 2.7748 -2.6866 0.0000
vt 3.1031 -2.6866 0.0000
vt 3.1031 0.7613 0.0000
vt 2.7748 0.7613 0.0000
vt 2.6777 0.7613 0.0000
vt 2.6777 -2.6866 0.0000
vt 1.9465 -2.6866 0.0000
vt 1.9465 1.4211 0.0000
vt 1.4104 0.8989 0.0000
vt 1.4104 1.0921 0.0000
vt 1.4104 -2.1635 0.0000
vt 1.4104 -2.3559 0.0000
vt 3.2002 0.5681 0.0000
vt 3.2002 0.7613 0.0000
vt 3.2002 -2.4942 0.0000
vt 3.2002 -2.6866 0.0000
vt 1.1343 2.6597 0.0000
vt 1.2314 2.6597 0.0000
vt 1.2314 3.5266 0.0000
vt 1.1343 3.5266 0.0000
vt 0.8141 2.6597 0.0000
vt 0.8141 3.5266 0.0000
vt 0.7170 2.6597 0.0000
vt 0.7170 3.5266 0.0000
vt 1.4104 1.5187 0.0000
vt 1.5076 1.5187 0.0000
vt 1.5076 2.3855 0.0000
vt 1.4104 2.3855 0.0000
vt 1.8277 1.5187 0.0000
vt 1.9248 1.5187 0.0000
vt 1.9248 2.3855 0.0000
vt 1.8277 2.3855 0.0000
# 104 texture coords

g 4_shed_door_w_transom
usemtl None
s 1
f 1/1/1 2/2/1 3/3/1 4/4/1 
s 2
f 5/5/2 6/6/2 7/7/2 8/8/2 
s 4
f 9/9/3 10/10/4 11/11/4 12/12/4 
f 2/2/3 1/1/3 13/13/3 14/14/3 
f 15/15/3 16/16/3 17/17/3 18/18/3 
s 2
f 19/19/5 20/20/5 1/21/5 4/22/5 
s 1
f 21/23/5 22/24/5 14/25/5 23/26/5 
s 2
f 14/14/6 13/13/6 24/27/6 23/28/6 
f 25/29/1 17/17/1 16/16/1 26/30/1 
s 1
f 27/31/2 28/32/2 29/33/2 30/34/2 
f 31/35/6 11/11/6 10/10/6 32/36/6 
f 33/37/1 9/9/1 12/12/1 34/38/1 
f 18/18/6 35/39/6 36/40/6 15/15/6 
s 4
f 37/41/3 7/7/3 6/6/3 38/42/3 
f 29/33/3 28/32/3 39/43/3 40/44/3 
s 2
f 3/45/2 2/46/2 41/47/2 42/48/2 
f 43/49/5 39/43/5 20/20/5 19/19/5 
s 1
f 24/50/2 13/51/2 44/52/2 45/53/2 
s 4
f 2/46/3 14/25/3 22/24/3 41/47/3 
f 44/52/3 13/51/3 1/21/3 20/20/3 
s 1
f 46/54/5 37/41/5 38/42/5 47/55/5 
s 2
f 42/48/2 41/47/2 6/6/2 5/5/2 
s 4
f 6/6/3 41/47/3 22/24/3 38/42/3 
f 28/32/3 44/52/3 20/20/3 39/43/3 
s 2
f 48/56/5 40/44/5 39/43/5 43/49/5 
s 4
f 49/57/3 12/12/3 11/11/3 50/58/3 
f 10/10/3 9/9/3 51/59/3 52/60/3 
f 18/18/3 17/17/3 53/61/3 54/62/3 
f 16/16/3 15/15/3 55/63/3 56/64/3 
s 2
f 26/30/1 16/16/1 56/64/1 57/65/1 
f 17/17/1 25/29/1 58/66/1 53/61/1 
s 1
f 32/36/6 10/10/6 52/60/6 59/67/6 
f 11/11/6 31/35/6 60/68/6 50/58/6 
s 4
f 37/69/3 49/57/3 50/58/3 7/70/3 
f 52/60/3 51/59/3 29/71/3 40/72/3 
f 54/62/3 53/61/3 44/73/3 28/74/3 
f 56/64/3 55/63/3 38/75/3 22/76/3 
s 2
f 57/65/1 56/64/1 22/76/1 21/77/1 
f 53/61/1 58/66/1 45/78/1 44/73/1 
s 1
f 59/67/6 52/60/6 40/72/6 48/79/6 
f 50/58/6 60/68/6 8/80/6 7/70/6 
s 2
f 61/81/1 49/57/1 37/69/1 46/82/1 
f 51/59/1 62/83/1 30/84/1 29/71/1 
f 55/63/6 63/85/6 47/86/6 38/75/6 
f 64/87/6 54/62/6 28/74/6 27/88/6 
f 15/89/5 36/90/5 34/91/5 12/92/5 
s 4
f 55/93/3 15/89/3 12/92/3 49/94/3 
s 1
f 63/95/2 55/93/2 49/94/2 61/96/2 
s 2
f 35/97/2 18/98/2 9/99/2 33/100/2 
s 1
f 54/101/5 64/102/5 62/103/5 51/104/5 
s 4
f 18/98/3 54/101/3 51/104/3 9/99/3 
# 51 polygons

