# 3ds Max Wavefront OBJ Exporter v0.97b - (c)2007 guruware
# File Created: 14.06.2018 19:56:32

mtllib 4' Single Wood Door.mtl

#
# object 4__Shed_Door
#

v  3.0000 94.5000 52.1468
v  3.0000 94.5001 -52.1468
v  3.0000 103.1313 -52.1468
v  3.0000 103.1313 52.1468
v  3.0000 191.0442 -70.9645
v  5.2500 199.9999 -75.0854
v  5.2500 199.9999 -70.9645
v  3.0000 191.0442 -61.2530
v  5.2500 199.9999 70.9645
v  3.0000 191.0442 61.2530
v  3.0000 0.0000 70.9645
v  3.0000 0.0000 61.2530
v  3.0000 191.0442 70.9645
v  3.0000 94.5001 -60.9619
v  3.0000 103.1313 -60.9619
v  3.0000 94.5000 60.9619
v  3.0000 103.1313 60.9619
v  3.0000 190.7755 -37.5372
v  3.0000 190.7755 37.5372
v  3.0000 182.5775 37.5372
v  3.0000 182.5775 -37.5372
v  3.0000 16.0827 52.1468
v  3.0000 7.8846 52.1468
v  3.0000 7.8846 -52.1468
v  3.0000 16.0827 -52.1468
v  3.0000 167.3325 -52.1468
v  3.0000 167.3325 -60.9619
v  3.0000 89.0701 -60.9619
v  3.0000 89.0701 -52.1468
v  3.0000 21.5127 -52.1468
v  3.0000 21.5127 -60.9619
v  3.0000 89.0700 52.1468
v  3.0000 89.0700 60.9619
v  3.0000 21.5127 60.9619
v  3.0000 21.5127 52.1468
v  3.0000 167.3325 60.9619
v  3.0000 167.3325 52.1468
v  3.0000 172.8065 -60.9619
v  3.0000 172.8065 -52.1468
v  3.0000 172.8065 52.1468
v  3.0000 172.8065 60.9619
v  3.0000 190.7755 42.5922
v  3.0000 182.5775 42.5922
v  3.0000 182.5775 -43.0372
v  3.0000 190.7755 -43.0372
v  3.0000 182.5775 52.1468
v  3.0000 182.5775 60.9619
v  3.0000 182.5775 -52.1468
v  3.0000 190.7755 -52.1468
v  3.0000 0.0000 -70.9645
v  3.0000 0.0000 -61.2530
v  5.2500 199.9999 75.0854
v  3.0000 190.7755 52.1468
v  3.0000 190.7755 60.9619
v  3.0000 182.5775 -60.9619
v  3.0000 7.8846 -60.9619
v  3.0000 16.0827 -60.9619
v  3.0000 190.7755 -60.9619
v  3.0000 16.0827 60.9619
v  3.0000 7.8846 60.9619
v  -0.0000 0.0000 -70.9645
v  -0.0000 191.0442 -70.9645
v  -0.0000 199.9999 -75.0854
v  -0.0000 199.9999 -70.9645
v  0.0000 199.9999 70.9645
v  0.0000 199.9999 75.0854
v  0.0000 191.0442 70.9645
v  -0.0000 0.0000 70.9645
v  -0.0000 0.0000 61.2530
v  0.0000 191.0442 61.2530
v  -0.0000 191.0442 -61.2530
v  -0.0000 0.0000 -61.2530
v  -0.0000 7.8846 60.9619
v  -0.0000 7.8846 52.1468
v  -0.0000 7.8846 -52.1468
v  -0.0000 7.8846 -60.9619
v  -0.0000 16.0827 -60.9619
v  -0.0000 89.0701 -60.9619
v  -0.0000 21.5127 -60.9619
v  -0.0000 94.5001 -60.9619
v  -0.0000 103.1313 -60.9619
v  -0.0000 167.3325 -60.9619
v  -0.0000 172.8065 -60.9619
v  -0.0000 182.5775 -60.9619
v  -0.0000 190.7755 -60.9619
v  -0.0000 190.7755 -52.1468
v  0.0000 190.7755 -43.0372
v  0.0000 190.7755 -37.5372
v  0.0000 190.7755 37.5372
v  0.0000 190.7755 42.5922
v  0.0000 190.7755 52.1468
v  0.0000 190.7755 60.9619
v  0.0000 182.5775 60.9619
v  0.0000 172.8065 60.9619
v  0.0000 167.3325 60.9619
v  0.0000 103.1313 60.9619
v  0.0000 94.5000 60.9619
v  -0.0000 21.5127 60.9619
v  0.0000 89.0700 60.9619
v  -0.0000 16.0827 60.9619
v  0.0000 172.8065 52.1468
v  0.0000 182.5775 52.1468
v  0.0000 182.5775 42.5922
v  0.0000 182.5775 -43.0372
v  -0.0000 182.5775 -52.1468
v  -0.0000 172.8065 -52.1468
v  -0.0000 16.0827 52.1468
v  -0.0000 16.0827 -52.1468
v  -0.0000 21.5127 52.1468
v  -0.0000 89.0700 52.1468
v  0.0000 167.3325 52.1468
v  0.0000 182.5775 37.5372
v  0.0000 182.5775 -37.5372
v  -0.0000 167.3325 -52.1468
v  -0.0000 103.1313 -52.1468
v  0.0000 103.1313 52.1468
v  -0.0000 21.5127 -52.1468
v  -0.0000 89.0701 -52.1468
v  -0.0000 94.5001 -52.1468
v  0.0000 94.5000 52.1468
v  -0.0000 55.2910 3.8795
v  3.0000 55.2910 3.8795
v  3.0000 58.0064 0.0000
v  3.0000 55.2910 -3.8795
v  -0.0000 55.2910 -3.8795
v  3.0000 52.5764 0.0000
v  -0.0000 52.5764 0.0000
v  -0.0000 58.0064 0.0000
# 128 vertices

vn 1.0000 -0.0000 -0.0000
vn 0.9905 -0.1372 -0.0000
vn 0.9699 -0.2437 -0.0000
vn 0.9865 -0.1635 -0.0000
vn 0.0000 0.0000 -1.0000
vn 0.0000 -0.2140 -0.9768
vn 0.0000 -0.2282 -0.9736
vn 0.0000 -0.4180 -0.9084
vn 0.0000 1.0000 -0.0000
vn 0.0000 -0.4180 0.9084
vn 0.0000 -0.2140 0.9768
vn 0.0000 -0.2282 0.9736
vn 0.0000 0.0000 1.0000
vn 0.0000 -1.0000 -0.0000
vn 0.0000 -0.0000 -1.0000
vn 0.0000 -0.0000 1.0000
vn 0.0000 0.6991 0.7150
vn 0.0000 0.6819 -0.7314
vn 0.0000 1.0000 0.0000
vn 0.0000 -0.3728 -0.9279
vn 0.0000 -0.6919 -0.7220
vn 0.0000 -0.6919 0.7220
vn 0.0000 -0.3728 0.9279
vn 0.0000 -0.8193 0.5734
vn 0.0000 -0.8193 -0.5734
vn 0.0000 0.8193 -0.5734
vn 0.0000 0.8193 0.5734
vn -0.0000 -0.8193 0.5734
vn -0.0000 0.8193 0.5734
# 29 vertex normals

vt 0.2119 0.9925 0.0000
vt 0.2119 -1.7270 0.0000
vt 0.4370 -1.7270 0.0000
vt 0.4370 0.9925 0.0000
vt -0.3224 -1.7399 0.0000
vt -0.0817 -1.8474 0.0000
vt -0.0817 -1.7399 0.0000
vt -0.3224 -1.4867 0.0000
vt -0.0817 1.9608 0.0000
vt -0.3224 1.7076 0.0000
vt -0.8106 -1.8786 0.0000
vt -0.5574 -1.8786 0.0000
vt -0.5574 3.1028 0.0000
vt -0.8106 3.1028 0.0000
vt 0.2119 -1.9568 0.0000
vt 0.4370 -1.9568 0.0000
vt 0.2119 1.2223 0.0000
vt 0.4370 1.2223 0.0000
vt 0.8857 -1.3460 0.0000
vt 0.8857 0.6115 0.0000
vt 0.6719 0.6115 0.0000
vt 0.6719 -1.3460 0.0000
vt 1.3344 0.9925 0.0000
vt 1.1207 0.9925 0.0000
vt 1.1207 -1.7270 0.0000
vt 1.3344 -1.7270 0.0000
vt 2.3852 -0.2818 0.0000
vt 2.3852 -1.9559 0.0000
vt 2.6150 -1.9559 0.0000
vt 2.6150 -0.2818 0.0000
vt 2.1502 0.1601 0.0000
vt 1.9203 0.1601 0.0000
vt 1.9203 -1.6015 0.0000
vt 2.1502 -1.6015 0.0000
vt 2.1502 2.7222 0.0000
vt 1.9204 2.7222 0.0000
vt 1.9203 0.9606 0.0000
vt 2.1502 0.9606 0.0000
vt 2.3851 2.0820 0.0000
vt 2.3851 0.4080 0.0000
vt 2.6150 0.4080 0.0000
vt 2.6150 2.0820 0.0000
vt 2.6150 -0.1391 0.0000
vt 2.3851 -0.1391 0.0000
vt 2.6150 2.2247 0.0000
vt 2.3852 2.2247 0.0000
vt 0.8857 0.7433 0.0000
vt 0.6719 0.7433 0.0000
vt 0.6720 -1.4894 0.0000
vt 0.8857 -1.4894 0.0000
vt -0.3224 2.8073 0.0000
vt -0.3193 2.2567 0.0000
vt -0.2212 2.3603 0.0000
vt -0.2183 2.7086 0.0000
vt 2.6150 2.4795 0.0000
vt 2.3852 2.4795 0.0000
vt 1.1206 1.4037 0.0000
vt 1.2195 1.3008 0.0000
vt 1.2188 1.8514 0.0000
vt 1.1238 1.7601 0.0000
vt 0.6720 -1.7270 0.0000
vt 0.8857 -1.7270 0.0000
vt -1.0455 -1.8786 0.0000
vt -1.0455 3.1028 0.0000
vt -1.2988 3.1028 0.0000
vt -1.2988 -1.8786 0.0000
vt -0.0817 2.0683 0.0000
vt -0.3224 1.9609 0.0000
vt 0.8857 0.9925 0.0000
vt 0.8857 1.2223 0.0000
vt 0.6719 1.2223 0.0000
vt 0.6719 0.9925 0.0000
vt 2.3851 0.1157 0.0000
vt 2.6150 0.1157 0.0000
vt 1.1207 -1.9568 0.0000
vt 1.3344 -1.9568 0.0000
vt 0.6720 -1.9568 0.0000
vt 0.8857 -1.9568 0.0000
vt 1.3344 1.2223 0.0000
vt 1.1206 1.2223 0.0000
vt -0.9673 -1.8786 0.0000
vt -0.9673 3.1028 0.0000
vt -0.3694 -1.8025 0.0000
vt -0.1639 -1.9568 0.0000
vt 0.0552 -1.8474 0.0000
vt 0.0552 -1.7399 0.0000
vt 0.0552 1.9608 0.0000
vt 0.0552 2.0683 0.0000
vt -0.1639 2.1778 0.0000
vt -0.3694 2.0234 0.0000
vt -0.8888 3.1028 0.0000
vt -0.8888 -1.8786 0.0000
vt -0.8106 -1.9568 0.0000
vt -0.5574 -1.9568 0.0000
vt -0.4791 -1.8786 0.0000
vt -0.4791 3.1028 0.0000
vt -0.4007 1.7076 0.0000
vt -0.4007 -1.4867 0.0000
vt -1.3770 3.1028 0.0000
vt -1.3770 -1.8786 0.0000
vt -1.2988 -1.9568 0.0000
vt -1.0455 -1.9568 0.0000
vt 1.0424 1.2223 0.0000
vt 1.0424 0.9925 0.0000
vt 1.0424 -1.7270 0.0000
vt 1.0424 -1.9568 0.0000
vt 2.2283 -1.9568 0.0000
vt 2.2284 -1.7431 0.0000
vt 2.1502 -1.7430 0.0000
vt 2.1501 -1.9568 0.0000
vt 2.2284 0.1601 0.0000
vt 2.2284 -1.6015 0.0000
vt 2.2284 0.3017 0.0000
vt 2.2283 0.5268 0.0000
vt 2.1501 0.5267 0.0000
vt 2.1502 0.3017 0.0000
vt 2.6932 -0.2818 0.0000
vt 2.6933 -1.9559 0.0000
vt 2.6932 -0.1391 0.0000
vt 2.6932 0.1157 0.0000
vt 2.6931 0.3295 0.0000
vt 2.6149 0.3294 0.0000
vt 0.9639 -1.9568 0.0000
vt 0.9639 -1.7270 0.0000
vt 0.9639 -1.4894 0.0000
vt 0.9639 -1.3460 0.0000
vt 0.9639 0.6115 0.0000
vt 0.9639 0.7433 0.0000
vt 0.9639 0.9925 0.0000
vt 0.9639 1.2223 0.0000
vt 2.3070 2.6933 0.0000
vt 2.3069 2.4795 0.0000
vt 2.3852 2.6933 0.0000
vt 2.3069 2.2247 0.0000
vt 2.3069 2.0820 0.0000
vt 2.3069 0.4080 0.0000
vt 1.8422 3.0888 0.0000
vt 1.8421 2.8638 0.0000
vt 1.9204 2.8637 0.0000
vt 1.9204 3.0888 0.0000
vt 1.8421 0.9606 0.0000
vt 1.8421 2.7222 0.0000
vt 1.8421 0.8190 0.0000
vt 1.8422 0.6052 0.0000
vt 1.9204 0.6053 0.0000
vt 1.9204 0.8190 0.0000
vt 2.6932 2.2247 0.0000
vt 2.6932 2.4795 0.0000
vt 0.5937 0.9925 0.0000
vt 0.5937 0.7433 0.0000
vt 1.0455 1.7607 0.0000
vt 1.0424 1.4044 0.0000
vt 0.5937 -1.4895 0.0000
vt 0.5937 -1.7270 0.0000
vt 2.3069 0.1157 0.0000
vt 2.3069 -0.1391 0.0000
vt -0.1429 2.3597 0.0000
vt -0.1401 2.7080 0.0000
vt 1.4126 0.9925 0.0000
vt 1.4126 -1.7270 0.0000
vt 2.2284 0.9606 0.0000
vt 2.2284 2.7222 0.0000
vt 1.2978 1.3009 0.0000
vt 1.2970 1.8515 0.0000
vt 0.5937 0.6115 0.0000
vt 0.5937 -1.3460 0.0000
vt -0.4007 2.8068 0.0000
vt -0.3976 2.2562 0.0000
vt 2.3317 -1.9568 0.0000
vt 2.4099 -1.9557 0.0000
vt 2.3070 -0.2830 0.0000
vt 2.6932 2.0820 0.0000
vt 2.6932 0.4080 0.0000
vt 0.5152 0.9925 0.0000
vt 0.5152 -1.7270 0.0000
vt 1.8421 -1.6015 0.0000
vt 1.8421 0.1601 0.0000
vt 0.1337 -1.7270 0.0000
vt 0.1337 0.9925 0.0000
vt 1.9203 0.3017 0.0000
vt 1.9203 -1.7430 0.0000
vt 2.1502 2.8637 0.0000
vt 2.1502 0.8190 0.0000
vt 0.1337 2.8793 0.0000
vt 0.1337 1.3431 0.0000
vt 0.2119 1.3431 0.0000
vt 0.2119 2.8793 0.0000
vt 1.6854 1.3624 0.0000
vt 1.5694 1.4436 0.0000
vt 1.5694 -0.2160 0.0000
vt 1.6854 -0.1738 0.0000
vt 1.7636 -0.1738 0.0000
vt 1.7636 1.3624 0.0000
vt 0.8661 1.3820 0.0000
vt 0.8661 2.9182 0.0000
vt 0.7879 2.9182 0.0000
vt 0.7879 1.3820 0.0000
vt 1.5693 -1.8756 0.0000
vt 1.5694 -0.3395 0.0000
vt 1.4911 -0.3395 0.0000
vt 1.4911 -1.8756 0.0000
vt 0.6719 1.3008 0.0000
vt 0.6719 2.9605 0.0000
vt 0.5937 1.3008 0.0000
vt 0.5937 2.9605 0.0000
vt 0.4062 2.9605 0.0000
vt 0.3279 2.9605 0.0000
vt 0.3279 1.3008 0.0000
vt 0.4062 1.3008 0.0000
vt 1.6854 -1.9568 0.0000
vt 1.7636 -1.9568 0.0000
vt 1.7636 -0.2972 0.0000
vt 1.6854 -0.2972 0.0000
vt 1.4912 1.4436 0.0000
vt 1.4912 -0.2160 0.0000
# 215 texture coords

g 4__Shed_Door
usemtl Material__27
s 1
f 1/1/1 2/2/1 3/3/1 4/4/1 
f 5/5/2 6/6/3 7/7/3 8/8/4 
f 7/7/3 9/9/3 10/10/4 8/8/4 
f 11/11/1 12/12/1 10/13/4 13/14/2 
f 14/15/1 15/16/1 3/3/1 2/2/1 
f 16/17/1 1/1/1 4/4/1 17/18/1 
f 18/19/1 19/20/1 20/21/1 21/22/1 
f 22/23/1 23/24/1 24/25/1 25/26/1 
f 26/27/1 3/28/1 15/29/1 27/30/1 
f 28/31/1 29/32/1 30/33/1 31/34/1 
f 32/35/1 33/36/1 34/37/1 35/38/1 
f 36/39/1 17/40/1 4/41/1 37/42/1 
f 38/43/1 39/44/1 26/27/1 27/30/1 
f 40/45/1 41/46/1 36/39/1 37/42/1 
f 19/20/1 42/47/1 43/48/1 20/21/1 
f 21/22/1 44/49/1 45/50/1 18/19/1 
f 21/51/1 26/52/1 39/53/1 44/54/1 
f 46/55/1 47/56/1 41/46/1 40/45/1 
f 40/57/1 37/58/1 20/59/1 43/60/1 
f 44/49/1 48/61/1 49/62/1 45/50/1 
f 50/63/1 5/64/2 8/65/4 51/66/1 
f 9/9/3 52/67/3 13/68/2 10/10/4 
f 53/69/1 54/70/1 47/71/1 46/72/1 
f 48/73/1 39/44/1 38/43/1 55/74/1 
f 24/25/1 56/75/1 57/76/1 25/26/1 
f 43/48/1 42/47/1 53/69/1 46/72/1 
f 48/61/1 55/77/1 58/78/1 49/62/1 
f 22/23/1 59/79/1 60/80/1 23/24/1 
s 2
f 61/81/5 62/82/6 5/64/7 50/63/5 
f 62/83/6 63/84/8 6/6/8 5/5/7 
s 4
f 63/85/9 64/86/9 7/7/9 6/6/9 
f 64/86/9 65/87/9 9/9/9 7/7/9 
f 65/87/9 66/88/9 52/67/9 9/9/9 
s 2
f 66/89/10 67/90/11 13/68/12 52/67/10 
f 67/91/11 68/92/13 11/11/13 13/14/12 
s 4
f 68/93/14 69/94/14 12/12/14 11/11/14 
s 2
f 69/95/15 70/96/15 10/13/15 12/12/15 
s 4
f 70/97/14 71/98/14 8/8/14 10/10/14 
s 2
f 71/99/13 72/100/13 51/66/13 8/65/13 
s 4
f 72/101/14 61/102/14 50/63/14 51/66/14 
s 2
f 73/103/14 74/104/14 23/24/14 60/80/14 
f 75/105/14 24/25/14 23/24/14 74/104/14 
f 75/105/14 76/106/14 56/75/14 24/25/14 
s 4
f 76/107/5 77/108/5 57/109/5 56/110/5 
f 78/111/5 28/31/5 31/34/5 79/112/5 
f 80/113/15 81/114/15 15/115/15 14/116/15 
f 82/117/5 27/30/5 15/29/15 81/118/15 
f 82/117/5 83/119/15 38/43/15 27/30/5 
f 83/119/15 84/120/15 55/74/15 38/43/15 
f 84/120/15 85/121/5 58/122/5 55/74/15 
s 2
f 85/123/9 86/124/9 49/62/9 58/78/9 
f 86/124/9 87/125/9 45/50/9 49/62/9 
f 87/125/9 88/126/9 18/19/9 45/50/9 
f 88/126/9 89/127/9 19/20/9 18/19/9 
f 89/127/9 90/128/9 42/47/9 19/20/9 
f 90/128/9 91/129/9 53/69/9 42/47/9 
f 91/129/9 92/130/9 54/70/9 53/69/9 
s 4
f 92/131/13 93/132/13 47/56/13 54/133/13 
f 93/132/13 94/134/13 41/46/13 47/56/13 
f 94/134/13 95/135/13 36/39/13 41/46/13 
f 96/136/13 17/40/13 36/39/13 95/135/13 
f 96/137/13 97/138/13 16/139/13 17/140/13 
f 98/141/16 34/37/16 33/36/13 99/142/13 
f 100/143/16 73/144/13 60/145/13 59/146/16 
s 2
f 101/147/5 102/148/5 46/55/5 40/45/5 
s 4
f 102/149/14 103/150/14 43/48/14 46/72/14 
s 8
f 103/151/17 101/152/17 40/57/17 43/60/17 
s 2
f 104/153/14 105/154/14 48/61/14 44/49/14 
s 4
f 105/155/13 106/156/13 39/44/13 48/73/13 
s 8
f 106/157/18 104/158/18 44/54/18 39/53/18 
s 2
f 107/159/19 22/23/19 25/26/19 108/160/19 
f 35/38/15 109/161/15 110/162/15 32/35/15 
f 111/163/20 112/164/21 20/59/21 37/58/20 
s 4
f 112/165/14 113/166/14 21/22/14 20/21/14 
s 2
f 113/167/22 114/168/23 26/52/23 21/51/22 
f 115/169/13 3/170/13 26/27/23 114/171/23 
f 111/172/20 37/42/20 4/41/15 116/173/15 
s 4
f 116/174/19 4/4/19 3/3/19 115/175/19 
s 2
f 117/176/13 30/33/13 29/32/13 118/177/13 
f 119/178/14 2/2/14 1/1/14 120/179/14 
s 1
f 14/116/1 2/180/1 29/32/1 28/31/1 
f 25/181/1 57/109/1 31/34/1 30/33/1 
f 1/182/1 16/139/1 33/36/1 32/35/1 
f 59/146/1 22/183/1 35/38/1 34/37/1 
s 4
f 80/113/15 14/116/15 28/31/5 78/111/5 
f 57/109/5 77/108/5 79/112/5 31/34/5 
f 100/143/16 59/146/16 34/37/16 98/141/16 
f 16/139/13 97/138/13 99/142/13 33/36/13 
f 110/184/24 121/185/24 122/186/24 32/187/24 
s 1
f 29/188/1 2/189/1 123/190/1 124/191/1 
s 4
f 29/188/25 124/191/25 125/192/25 118/193/25 
s 8
f 117/194/26 125/195/26 124/196/26 30/197/26 
f 35/198/27 122/199/27 121/200/27 109/201/27 
s 1
f 25/202/1 30/197/1 124/196/1 126/203/1 
s 4
f 108/204/28 25/202/24 126/203/28 127/205/28 
f 120/206/26 1/207/26 123/208/26 128/209/26 
s 8
f 22/210/25 107/211/25 127/212/25 126/213/25 
f 2/189/29 119/214/27 128/215/29 123/190/29 
s 1
f 123/208/1 1/207/1 32/187/1 122/186/1 
f 123/190/1 122/199/1 126/213/1 124/191/1 
f 122/199/1 35/198/1 22/210/1 126/213/1 
# 101 polygons

