# 3ds Max Wavefront OBJ Exporter v0.97b - (c)2007 guruware
# File Created: 06.09.2018 18:19:30

mtllib 4_single_wood_door_V2.mtl

#
# object 4_new_single_wood_door
#

v  3.0000 94.5001 -42.3812
v  3.0000 103.1313 -42.3812
v  3.0000 103.1313 42.4207
v  3.0000 94.5000 42.4207
v  3.0000 103.1313 -52.1270
v  3.0000 94.5001 -52.1270
v  3.0000 94.5001 -60.9421
v  3.0000 103.1313 -60.9421
v  3.0000 103.1313 52.1666
v  3.0000 103.1313 60.9817
v  3.0000 94.5000 60.9817
v  3.0000 94.5000 52.1666
v  3.0000 190.7755 42.6120
v  3.0000 182.5775 42.6120
v  3.0000 182.5775 -43.0174
v  3.0000 190.7755 -43.0174
v  3.0000 7.8846 -42.3812
v  3.0000 16.0827 -42.3812
v  3.0000 16.0827 42.4207
v  3.0000 7.8846 42.4207
v  3.0000 172.8065 -60.9421
v  3.0000 172.8065 -52.1270
v  3.0000 25.8692 -52.1270
v  3.0000 25.8692 -60.9421
v  3.0000 84.7136 -60.9421
v  3.0000 84.7136 -52.1270
v  3.0000 25.8692 60.9817
v  3.0000 25.8692 52.1666
v  3.0000 84.7135 52.1666
v  3.0000 84.7135 60.9817
v  3.0000 172.8065 52.1666
v  3.0000 172.8065 60.9817
v  3.0000 182.5775 52.1666
v  3.0000 182.5775 60.9817
v  3.0000 190.7755 -52.1270
v  3.0000 182.5775 -52.1270
v  3.0000 190.7755 52.1666
v  3.0000 190.7755 60.9817
v  3.0000 182.5775 -60.9421
v  3.0000 16.0827 -60.9421
v  3.0000 16.0827 -52.1270
v  3.0000 7.8846 -52.1270
v  3.0000 7.8846 -60.9421
v  3.0000 190.7755 -60.9421
v  3.0000 7.8846 60.9817
v  3.0000 7.8846 52.1666
v  3.0000 16.0827 52.1666
v  3.0000 16.0827 60.9817
v  0.0000 7.8846 60.9817
v  0.0000 7.8846 52.1666
v  0.0000 7.8846 42.4207
v  0.0000 7.8846 -42.3812
v  0.0000 7.8846 -52.1270
v  0.0000 7.8846 -60.9421
v  0.0000 16.0827 -60.9421
v  0.0000 25.8692 -60.9421
v  0.0000 84.7136 -60.9421
v  0.0000 94.5001 -60.9421
v  0.0000 103.1313 -60.9421
v  0.0000 172.8065 -60.9421
v  0.0000 182.5775 -60.9421
v  0.0000 190.7755 -60.9421
v  0.0000 190.7755 -52.1270
v  0.0000 190.7755 -43.0174
v  0.0000 190.7755 42.6120
v  0.0000 190.7755 52.1666
v  0.0000 190.7755 60.9817
v  0.0000 182.5775 60.9817
v  0.0000 172.8065 60.9817
v  0.0000 103.1313 60.9817
v  0.0000 94.5000 60.9817
v  0.0000 84.7135 60.9817
v  0.0000 25.8692 60.9817
v  0.0000 16.0827 60.9817
v  0.0000 16.0827 -42.3812
v  0.0000 16.0827 42.4207
v  0.0000 84.7135 52.1666
v  0.0000 25.8692 52.1666
v  0.0000 182.5775 42.6120
v  0.0000 182.5775 -43.0174
v  0.0000 103.1313 -52.1270
v  0.0000 172.8065 -52.1270
v  0.0000 172.8065 52.1666
v  0.0000 103.1313 52.1666
v  0.0000 103.1313 -42.3812
v  0.0000 103.1313 42.4207
v  0.0000 84.7136 -52.1270
v  0.0000 25.8692 -52.1270
v  0.0000 94.5000 42.4207
v  0.0000 94.5001 -42.3812
v  5.2500 199.9999 -70.9645
v  3.0000 191.0442 -61.2530
v  3.0000 191.0442 -70.9645
v  5.2500 199.9999 -75.0854
v  3.0000 191.0442 61.2530
v  5.2500 199.9999 70.9645
v  3.0000 191.0442 70.9645
v  3.0000 0.0000 70.9645
v  3.0000 0.0000 61.2530
v  3.0000 0.0000 -61.2530
v  3.0000 0.0000 -70.9645
v  5.2500 199.9999 75.0854
v  0.0000 0.0000 -70.9645
v  0.0000 191.0442 -70.9645
v  0.0000 199.9999 -75.0854
v  0.0000 199.9999 -70.9645
v  0.0000 199.9999 70.9645
v  0.0000 199.9999 75.0854
v  0.0000 191.0442 70.9645
v  0.0000 0.0000 70.9645
v  0.0000 0.0000 61.2530
v  0.0000 191.0442 61.2530
v  0.0000 191.0442 -61.2530
v  0.0000 0.0000 -61.2530
# 114 vertices

vn 1.0000 0.0000 -0.0000
vn 0.0000 -1.0000 -0.0000
vn 0.0000 0.0000 -1.0000
vn 0.0000 1.0000 -0.0000
vn 0.0000 0.0000 1.0000
vn 0.0000 -0.6819 0.7314
vn 0.0000 -0.6991 -0.7150
vn 0.0000 -0.7056 -0.7086
vn 0.0000 -0.7056 0.7086
vn 0.0000 0.7056 0.7086
vn 0.0000 0.7056 -0.7086
vn 0.9699 -0.2437 -0.0000
vn 0.9865 -0.1635 -0.0000
vn 0.9905 -0.1372 -0.0000
vn 0.0000 -0.2282 -0.9736
vn 0.0000 -0.2140 -0.9768
vn 0.0000 -0.4180 -0.9084
vn 0.0000 -0.2282 0.9736
vn 0.0000 -0.4180 0.9084
vn 0.0000 -0.2140 0.9768
# 20 vertex normals

vt 0.2790 -1.8523 0.0000
vt 0.5712 -1.8523 0.0000
vt 0.5712 0.7453 0.0000
vt 0.2790 0.7453 0.0000
vt 0.5712 -2.3183 0.0000
vt 0.2790 -2.3183 0.0000
vt 0.2790 -2.6166 0.0000
vt 0.5712 -2.6166 0.0000
vt 0.5712 1.2113 0.0000
vt 0.5712 1.5096 0.0000
vt 0.2790 1.5096 0.0000
vt 0.2790 1.2113 0.0000
vt 1.7213 0.8618 0.0000
vt 1.4459 0.8618 0.0000
vt 1.4460 -2.0144 0.0000
vt 1.7213 -2.0144 0.0000
vt 0.8703 -1.8523 0.0000
vt 1.1477 -1.8523 0.0000
vt 1.1477 0.7454 0.0000
vt 0.8703 0.7454 0.0000
vt 2.9085 -2.6166 0.0000
vt 2.9085 -0.2762 0.0000
vt 2.6124 -0.2762 0.0000
vt 2.6124 -2.6165 0.0000
vt 2.0188 -2.0125 0.0000
vt 2.3149 -2.0125 0.0000
vt 2.3149 -0.0359 0.0000
vt 2.0188 -0.0359 0.0000
vt 2.0188 1.2828 0.0000
vt 2.3149 1.2828 0.0000
vt 2.3149 3.2594 0.0000
vt 2.0188 3.2594 0.0000
vt 2.9085 0.4234 0.0000
vt 2.9085 2.7636 0.0000
vt 2.6125 2.7636 0.0000
vt 2.6123 0.4234 0.0000
vt 2.9085 3.0919 0.0000
vt 2.6125 3.0919 0.0000
vt 1.7213 -2.3205 0.0000
vt 1.4460 -2.3205 0.0000
vt 1.4459 1.4789 0.0000
vt 1.4459 1.1828 0.0000
vt 1.7213 1.1828 0.0000
vt 1.7213 1.4789 0.0000
vt 2.9084 0.0520 0.0000
vt 2.6124 0.0520 0.0000
vt 1.1477 -2.6166 0.0000
vt 1.1477 -2.3183 0.0000
vt 0.8703 -2.3183 0.0000
vt 0.8703 -2.6166 0.0000
vt 1.7213 -2.6166 0.0000
vt 1.4460 -2.6166 0.0000
vt 0.8702 1.5097 0.0000
vt 0.8703 1.2114 0.0000
vt 1.1477 1.2114 0.0000
vt 1.1477 1.5097 0.0000
vt 0.7687 1.5097 0.0000
vt 0.7687 1.2114 0.0000
vt 0.7687 0.7454 0.0000
vt 0.7687 -1.8523 0.0000
vt 0.7687 -2.3183 0.0000
vt 0.7687 -2.6166 0.0000
vt 2.3149 -2.3412 0.0000
vt 2.3148 -2.6165 0.0000
vt 2.4156 -2.6166 0.0000
vt 2.4156 -2.3412 0.0000
vt 2.4156 -2.0125 0.0000
vt 2.4156 -0.0359 0.0000
vt 2.3148 0.5828 0.0000
vt 2.3149 0.2929 0.0000
vt 2.4156 0.2929 0.0000
vt 2.4156 0.5828 0.0000
vt 3.0092 -0.2762 0.0000
vt 3.0092 -2.6166 0.0000
vt 3.0092 0.0520 0.0000
vt 2.9084 0.3274 0.0000
vt 3.0091 0.3274 0.0000
vt 1.8220 -2.6166 0.0000
vt 1.8220 -2.3205 0.0000
vt 1.8220 -2.0144 0.0000
vt 1.8220 0.8618 0.0000
vt 1.8220 1.1828 0.0000
vt 1.8220 1.4789 0.0000
vt 2.6125 3.3673 0.0000
vt 2.5117 3.3673 0.0000
vt 2.5116 3.0919 0.0000
vt 2.5116 2.7636 0.0000
vt 2.5116 0.4234 0.0000
vt 2.0188 3.5882 0.0000
vt 2.0188 3.8781 0.0000
vt 1.9180 3.8781 0.0000
vt 1.9180 3.5882 0.0000
vt 1.9180 3.2594 0.0000
vt 1.9180 1.2828 0.0000
vt 2.0188 0.6788 0.0000
vt 2.0188 0.9541 0.0000
vt 1.9180 0.9541 0.0000
vt 1.9180 0.6788 0.0000
vt 1.2492 -1.8523 0.0000
vt 1.2492 0.7454 0.0000
vt 2.4156 3.2595 0.0000
vt 2.4156 1.2828 0.0000
vt 1.3451 0.8618 0.0000
vt 1.3451 -2.0146 0.0000
vt 2.5116 -2.6165 0.0000
vt 2.5116 -0.2762 0.0000
vt 3.0092 2.7636 0.0000
vt 3.0092 0.4234 0.0000
vt 0.6727 -1.8523 0.0000
vt 0.6727 0.7453 0.0000
vt 1.9180 -0.0358 0.0000
vt 1.9180 -2.0125 0.0000
vt 0.1775 0.7453 0.0000
vt 0.1775 -1.8523 0.0000
vt 2.0188 -2.3412 0.0000
vt 2.0188 0.2929 0.0000
vt 2.3149 0.9541 0.0000
vt 2.3149 3.5882 0.0000
vt 0.6727 -2.3183 0.0000
vt 0.6727 1.2113 0.0000
vt 2.6124 3.4633 0.0000
vt 2.6144 3.9120 0.0000
vt 2.5136 3.9124 0.0000
vt 2.5116 3.4637 0.0000
vt 3.2080 -2.6161 0.0000
vt 3.2060 -2.1571 0.0000
vt 3.1052 -2.1575 0.0000
vt 3.1072 -2.6166 0.0000
vt 1.4459 1.5748 0.0000
vt 1.4496 2.0387 0.0000
vt 1.3489 2.0396 0.0000
vt 1.3451 1.5757 0.0000
vt 0.2783 1.6056 0.0000
vt 0.2874 2.0694 0.0000
vt 0.1867 2.0714 0.0000
vt 0.1775 1.6076 0.0000
vt -0.4050 2.8056 0.0000
vt -0.3917 3.2694 0.0000
vt -0.4925 3.2722 0.0000
vt -0.5057 2.8085 0.0000
vt 0.7741 2.0707 0.0000
vt 0.7687 1.6068 0.0000
vt 0.8694 1.6056 0.0000
vt 0.8749 2.0695 0.0000
vt 1.6797 1.8040 0.0000
vt -0.1665 3.0299 0.0000
vt 3.4365 -2.3907 0.0000
vt 2.8372 3.7023 0.0000
vt 0.5148 1.8339 0.0000
vt 1.1041 1.8358 0.0000
vt -0.0948 -2.3371 0.0000
vt -0.4049 -2.0110 0.0000
vt -0.4049 -2.3371 0.0000
vt -0.0948 -2.4756 0.0000
vt -0.4049 2.1039 0.0000
vt -0.0948 2.4301 0.0000
vt -1.3263 3.9010 0.0000
vt -1.6524 3.9010 0.0000
vt -1.6524 -2.5158 0.0000
vt -1.3263 -2.5158 0.0000
vt -1.0287 3.9010 0.0000
vt -1.0287 -2.5158 0.0000
vt -0.7024 -2.5158 0.0000
vt -0.7024 3.9010 0.0000
vt -0.4049 2.4302 0.0000
vt -0.0948 2.5686 0.0000
vt -0.6017 -2.5158 0.0000
vt -0.6017 3.9010 0.0000
vt -0.4654 -2.4178 0.0000
vt -0.2007 -2.6166 0.0000
vt 0.0816 -2.4756 0.0000
vt 0.0816 -2.3371 0.0000
vt 0.0816 2.4301 0.0000
vt 0.0816 2.5686 0.0000
vt -0.2007 2.7097 0.0000
vt -0.4654 2.5108 0.0000
vt -1.7532 3.9010 0.0000
vt -1.7532 -2.5158 0.0000
vt -1.6524 -2.6166 0.0000
vt -1.3263 -2.6166 0.0000
vt -1.2254 -2.5158 0.0000
vt -1.2254 3.9010 0.0000
vt -0.5057 2.1039 0.0000
vt -0.5057 -2.0110 0.0000
vt -1.1294 3.9010 0.0000
vt -1.1294 -2.5158 0.0000
vt -1.0287 -2.6166 0.0000
vt -0.7024 -2.6166 0.0000
# 188 texture coords

g 4_new_single_wood_door
usemtl Material__27
s off
f 1/1/1 2/2/1 3/3/1 4/4/1 
f 5/5/1 6/6/1 7/7/1 8/8/1 
f 9/9/1 10/10/1 11/11/1 12/12/1 
f 13/13/1 14/14/1 15/15/1 16/16/1 
f 17/17/1 18/18/1 19/19/1 20/20/1 
f 8/21/1 21/22/1 22/23/1 5/24/1 
f 23/25/1 24/26/1 25/27/1 26/28/1 
f 27/29/1 28/30/1 29/31/1 30/32/1 
f 9/33/1 31/34/1 32/35/1 10/36/1 
f 32/35/1 31/34/1 33/37/1 34/38/1 
f 35/39/1 16/16/1 15/15/1 36/40/1 
f 34/41/1 33/42/1 37/43/1 38/44/1 
f 21/22/1 39/45/1 36/46/1 22/23/1 
f 40/47/1 41/48/1 42/49/1 43/50/1 
f 37/43/1 33/42/1 14/14/1 13/13/1 
f 44/51/1 35/39/1 36/40/1 39/52/1 
f 45/53/1 46/54/1 47/55/1 48/56/1 
f 46/54/2 45/53/2 49/57/2 50/58/2 
f 20/20/2 51/59/2 52/60/2 17/17/2 
f 43/50/2 42/49/2 53/61/2 54/62/2 
f 40/63/3 43/64/3 54/65/3 55/66/3 
f 24/26/3 56/67/3 57/68/3 25/27/3 
f 8/69/3 7/70/3 58/71/3 59/72/3 
f 60/73/3 21/22/3 8/21/3 59/74/3 
f 39/45/3 21/22/3 60/73/3 61/75/3 
f 44/76/3 39/45/3 61/75/3 62/77/3 
f 35/39/4 44/51/4 62/78/4 63/79/4 
f 16/16/4 35/39/4 63/79/4 64/80/4 
f 65/81/4 13/13/4 16/16/4 64/80/4 
f 37/43/4 13/13/4 65/81/4 66/82/4 
f 38/44/4 37/43/4 66/82/4 67/83/4 
f 34/38/5 38/84/5 67/85/5 68/86/5 
f 32/35/5 34/38/5 68/86/5 69/87/5 
f 70/88/5 10/36/5 32/35/5 69/87/5 
f 11/89/5 10/90/5 70/91/5 71/92/5 
f 30/32/5 72/93/5 73/94/5 27/29/5 
f 45/95/5 48/96/5 74/97/5 49/98/5 
f 18/18/4 75/99/4 76/100/4 19/19/4 
f 77/101/3 29/31/3 28/30/3 78/102/3 
f 15/15/2 14/14/2 79/103/2 80/104/2 
f 81/105/5 5/24/5 22/23/5 82/106/5 
f 83/107/3 31/34/3 9/33/3 84/108/3 
f 2/2/4 85/109/4 86/110/4 3/3/4 
f 26/28/5 87/111/5 88/112/5 23/25/5 
f 4/4/2 89/113/2 90/114/2 1/1/2 
f 41/115/1 40/63/1 24/26/1 23/25/1 
f 7/70/1 6/116/1 26/28/1 25/27/1 
f 48/96/1 47/117/1 28/30/1 27/29/1 
f 12/118/1 11/89/1 30/32/1 29/31/1 
f 40/63/3 55/66/3 56/67/3 24/26/3 
f 58/71/3 7/70/3 25/27/3 57/68/3 
f 11/89/5 71/92/5 72/93/5 30/32/5 
f 74/97/5 48/96/5 27/29/5 73/94/5 
f 6/6/1 5/5/1 2/2/1 1/1/1 
f 9/9/1 12/12/1 4/4/1 3/3/1 
f 42/49/1 41/48/1 18/18/1 17/17/1 
f 47/55/1 46/54/1 20/20/1 19/19/1 
f 46/54/2 50/58/2 51/59/2 20/20/2 
f 53/61/2 42/49/2 17/17/2 52/60/2 
f 5/5/4 81/119/4 85/109/4 2/2/4 
f 84/120/4 9/9/4 3/3/4 86/110/4 
f 22/121/6 15/122/6 80/123/6 82/124/6 
f 14/125/7 31/126/7 83/127/7 79/128/7 
f 4/129/8 29/130/8 77/131/8 89/132/8 
f 26/133/9 1/134/9 90/135/9 87/136/9 
f 18/137/10 23/138/10 88/139/10 75/140/10 
f 76/141/11 78/142/11 28/143/11 19/144/11 
f 12/145/1 29/130/1 4/129/1 
f 41/146/1 23/138/1 18/137/1 
f 31/126/1 14/125/1 33/147/1 
f 15/122/1 22/121/1 36/148/1 
f 6/149/1 1/134/1 26/133/1 
f 47/150/1 19/144/1 28/143/1 
f 91/151/12 92/152/13 93/153/14 94/154/12 
f 95/155/13 92/152/13 91/151/12 96/156/12 
f 95/157/13 97/158/14 98/159/1 99/160/1 
f 92/161/13 100/162/1 101/163/1 93/164/14 
f 97/165/14 95/155/13 96/156/12 102/166/12 
f 93/164/15 101/163/3 103/167/3 104/168/16 
f 94/154/17 93/153/15 104/169/16 105/170/17 
f 91/151/4 94/154/4 105/171/4 106/172/4 
f 96/156/4 91/151/4 106/172/4 107/173/4 
f 102/166/4 96/156/4 107/173/4 108/174/4 
f 97/165/18 102/166/19 108/175/19 109/176/20 
f 98/159/5 97/158/18 109/177/20 110/178/5 
f 99/160/2 98/159/2 110/179/2 111/180/2 
f 95/157/3 99/160/3 111/181/3 112/182/3 
f 92/152/2 95/155/2 112/183/2 113/184/2 
f 100/162/5 92/161/5 113/185/5 114/186/5 
f 101/163/2 100/162/2 114/187/2 103/188/2 
# 84 polygons - 6 triangles

