# 3ds Max Wavefront OBJ Exporter v0.97b - (c)2007 guruware
# File Created: 24.02.2018 16:17:52

mtllib 4x4 Ramp.mtl

#
# object Ramp
#

v  -0.3133 -3.5360 -60.9600
v  117.4501 -13.9632 -60.9600
v  117.4501 -13.9632 60.9600
v  -0.3133 -3.5360 60.9600
v  117.7630 -10.4270 60.9600
v  117.7630 -10.4270 -60.9600
v  -0.0004 0.0002 -60.9600
v  -0.0004 0.0002 60.9600
v  117.5361 -13.8998 60.8893
v  117.5361 -13.8998 -60.8893
v  117.8365 -10.5045 -60.8893
v  117.8364 -10.5045 60.8893
# 12 vertices

vn -0.0882 -0.9961 -0.0000
vn 0.0882 0.9961 -0.0000
vn 0.0000 0.0000 1.0000
vn -0.9961 0.0881 -0.0000
vn 0.0000 0.0000 -1.0000
vn 0.5936 -0.8047 0.0000
vn 0.7258 0.6879 0.0000
vn 0.6597 -0.0584 0.7492
vn 0.6597 -0.0584 -0.7492
# 9 vertex normals

vt 0.0044 0.9804 0.4655
vt 0.0020 0.0222 0.4665
vt 0.9956 0.0214 0.4665
vt 0.9956 0.9804 0.4655
vt 0.0043 0.0231 0.4340
vt 0.9956 0.0258 0.4340
vt 0.9956 0.9804 0.4330
vt 0.0044 0.9804 0.4330
vt 0.5310 0.0222 0.9956
vt 0.5621 0.0214 0.9956
vt 0.5633 0.9804 0.9956
vt 0.5345 0.9804 0.9956
vt 0.4655 0.0044 0.9804
vt 0.4655 0.9956 0.9804
vt 0.4367 0.9956 0.9804
vt 0.4367 0.0044 0.9804
vt 0.4655 0.9804 0.0044
vt 0.4367 0.9804 0.0044
vt 0.4361 0.0223 0.0044
vt 0.4665 0.0214 0.0044
vt 1.0005 0.0246 0.4665
vt 0.0044 0.0229 0.4665
vt 1.0103 0.0299 0.4340
vt 0.0044 0.0247 0.4340
vt 0.5796 0.0325 0.9956
vt 0.5335 0.0229 0.9956
vt 0.4716 0.0246 0.0044
vt 0.4384 0.0231 0.0044
# 28 texture coords

g Ramp
usemtl Material__30
s 2
f 1/1/1 2/2/1 3/3/1 4/4/1 
s 4
f 5/5/2 6/6/2 7/7/2 8/8/2 
s 8
f 3/9/3 5/10/3 8/11/3 4/12/3 
s 64
f 1/13/4 4/14/4 8/15/4 7/16/4 
s 32
f 1/17/5 7/18/5 6/19/5 2/20/5 
s off
f 9/21/6 3/3/6 2/2/6 10/22/6 
f 11/23/7 6/6/7 5/5/7 12/24/7 
f 12/25/8 5/10/8 3/9/8 9/26/8 
f 10/27/9 2/20/9 6/19/9 11/28/9 
# 9 polygons

