# 3ds Max Wavefront OBJ Exporter v0.97b - (c)2007 guruware
# File Created: 21.11.2018 21:14:02

mtllib 4x6_Transom_Trim_Shed_door.mtl

#
# object 4_Shed_Door_w_transom
#

v  3.2026 8.1891 -60.9477
v  3.2026 8.1891 60.9469
v  -0.0176 8.1891 60.9469
v  -0.0176 8.1891 -60.9477
v  -0.0176 155.5420 60.9469
v  3.2026 155.5420 60.9469
v  3.2026 191.0691 60.9469
v  -0.0176 191.0691 60.9469
v  3.2026 181.2654 51.1567
v  3.2026 181.2654 -51.1575
v  3.2026 191.0691 -60.9477
v  3.2026 17.9928 -51.1575
v  3.2026 17.9928 51.1566
v  3.2026 145.8018 -51.1575
v  3.2026 155.5422 -51.1575
v  3.2026 155.5422 51.1567
v  3.2026 145.8018 51.1567
v  -0.0176 32.3512 -60.9477
v  3.2026 32.3512 -60.9477
v  0.3197 17.9928 51.1566
v  0.3197 131.6321 51.1567
v  3.2026 131.6321 51.1567
v  0.3197 17.9928 -51.1575
v  0.3197 145.8018 51.1567
v  0.3197 145.8018 -51.1575
v  0.3197 155.5422 -51.1575
v  0.3197 181.2654 -51.1575
v  -0.0176 191.0691 -60.9477
v  4.9469 200.7141 61.0667
v  3.1352 191.1780 61.0723
v  3.1352 191.1780 -61.0619
v  4.9469 200.7142 -61.0676
v  3.1352 191.1780 70.5929
v  4.9469 200.7141 73.5792
v  0.1059 200.7141 73.5792
v  0.0022 191.1780 70.5929
v  4.9469 200.7142 -73.5801
v  3.1352 191.1780 -70.5937
v  0.0022 191.1780 -70.5937
v  0.1059 200.7142 -73.5801
v  0.0022 191.1780 -61.0619
v  0.0022 191.1780 61.0723
v  0.1059 200.7141 61.0667
v  0.1059 200.7142 -61.0676
v  3.1352 0.0019 -70.5930
v  3.1352 0.0019 -61.0517
v  0.0022 0.0019 -61.0517
v  0.0022 0.0019 -70.5930
v  3.1352 0.0019 61.0509
v  3.1352 0.0019 70.5922
v  0.0022 0.0019 70.5922
v  0.0022 0.0019 61.0509
v  3.2026 155.5420 -60.9477
v  -0.0176 145.8020 60.9469
v  -0.0176 131.6321 60.9469
v  3.2026 131.6321 60.9469
v  3.2026 145.8020 60.9469
v  -0.0176 155.5420 -60.9477
v  3.2026 145.8020 -60.9477
v  -0.0176 145.8020 -60.9477
v  0.3197 32.3512 -51.1575
v  3.2026 32.3512 -51.1575
v  0.3197 181.2654 51.1567
v  0.3197 155.5422 51.1567
# 64 vertices

vn 0.0000 -1.0000 -0.0000
vn 0.0000 0.0000 1.0000
vn 0.9996 0.0290 -0.0000
vn 1.0000 0.0000 -0.0000
vn 0.0000 0.0000 -1.0000
vn 0.0000 1.0000 -0.0000
vn 0.9825 -0.1862 -0.0000
vn 0.0000 -0.2990 0.9542
vn 0.0000 -0.2990 -0.9542
vn 0.0000 0.0002 -1.0000
vn 0.9824 -0.1866 -0.0000
vn 0.0000 0.6697 -0.7426
vn 0.0000 -0.6691 0.7432
# 13 vertex normals

vt 2.1521 -2.6917 0.0000
vt 2.1521 1.4271 0.0000
vt 2.0433 1.4271 0.0000
vt 2.0433 -2.6917 0.0000
vt 0.0508 2.2600 0.0000
vt 0.1596 2.2600 0.0000
vt 0.1596 3.4605 0.0000
vt 0.0508 3.4605 0.0000
vt 1.8384 1.4271 0.0000
vt 1.5072 1.0963 0.0000
vt 1.5072 -2.3609 0.0000
vt 1.8384 -2.6917 0.0000
vt 2.4834 -2.3609 0.0000
vt 2.4834 1.0963 0.0000
vt 2.7744 -2.6912 0.0000
vt 3.1035 -2.6912 0.0000
vt 3.1035 0.7659 0.0000
vt 2.7744 0.7659 0.0000
vt -0.0406 -2.6849 0.0000
vt -0.0406 -1.8684 0.0000
vt -0.1495 -1.8684 0.0000
vt -0.1495 -2.6849 0.0000
vt 0.5879 -2.3878 0.0000
vt 0.5879 1.4521 0.0000
vt 0.4904 1.4521 0.0000
vt 0.4904 -2.3878 0.0000
vt 2.5808 -2.3609 0.0000
vt 2.5808 1.0963 0.0000
vt 2.6770 0.7659 0.0000
vt 2.6770 -2.6912 0.0000
vt -0.5777 2.2942 0.0000
vt -0.4803 2.2942 0.0000
vt -0.4803 3.1634 0.0000
vt -0.5777 3.1634 0.0000
vt 1.9472 -2.6917 0.0000
vt 1.9472 1.4271 0.0000
vt 1.1500 2.0014 0.0000
vt 0.8220 2.0016 0.0000
vt 0.8220 -2.1253 0.0000
vt 1.1500 -2.1255 0.0000
vt 0.8220 2.3233 0.0000
vt 1.1500 2.4242 0.0000
vt 1.0748 2.5694 0.0000
vt 0.7733 2.4173 0.0000
vt 1.1500 -2.5483 0.0000
vt 0.8220 -2.4474 0.0000
vt 0.7733 -2.5414 0.0000
vt 1.0748 -2.6935 0.0000
vt 0.7162 -2.1253 0.0000
vt 0.7162 2.0016 0.0000
vt 1.3136 2.0014 0.0000
vt 1.3136 -2.1255 0.0000
vt -0.7521 -2.5875 0.0000
vt -0.7520 3.8723 0.0000
vt -1.0741 3.8723 0.0000
vt -1.0745 -2.5875 0.0000
vt -1.0745 -2.6934 0.0000
vt -0.7521 -2.6934 0.0000
vt -0.6462 -2.5875 0.0000
vt -0.6462 3.8723 0.0000
vt -1.1803 -2.5875 0.0000
vt -1.1800 3.8723 0.0000
vt -1.3823 -2.5875 0.0000
vt -1.3831 3.8723 0.0000
vt -1.7048 3.8723 0.0000
vt -1.7047 -2.5875 0.0000
vt -1.7047 -2.6934 0.0000
vt -1.3823 -2.6934 0.0000
vt -1.2765 -2.5875 0.0000
vt -1.2772 3.8723 0.0000
vt -1.8106 -2.5875 0.0000
vt -1.8106 3.8723 0.0000
vt 1.3136 2.4242 0.0000
vt 1.3136 -2.5483 0.0000
vt 0.4905 3.1292 0.0000
vt 0.4905 2.2600 0.0000
vt -0.1495 2.2942 0.0000
vt -0.1495 3.4946 0.0000
vt 0.0508 1.9309 0.0000
vt 0.0508 1.4521 0.0000
vt 0.1596 1.4521 0.0000
vt 0.1596 1.9309 0.0000
vt -0.0406 2.2942 0.0000
vt -0.1495 1.9651 0.0000
vt -0.0406 1.9650 0.0000
vt -0.5777 1.9650 0.0000
vt -0.5777 -1.8684 0.0000
vt -0.4803 -1.8684 0.0000
vt -0.4803 1.9650 0.0000
vt 0.4904 1.9309 0.0000
vt -0.4803 -2.3536 0.0000
vt 0.5879 3.1292 0.0000
vt 0.5879 2.2600 0.0000
vt -0.0406 3.4946 0.0000
vt 1.4097 -2.3609 0.0000
vt 1.4097 1.0963 0.0000
vt 3.2009 -2.6912 0.0000
vt 3.2009 0.7659 0.0000
vt 0.0508 -2.7190 0.0000
vt 0.1596 -2.7190 0.0000
vt 3.8674 2.7469 0.0000
vt 3.7700 2.7463 0.0000
vt 3.7977 -2.4157 0.0000
vt 3.8951 -2.4152 0.0000
vt 3.4513 2.3891 0.0000
vt 3.4747 -2.7778 0.0000
vt 3.3538 2.3886 0.0000
vt 3.3772 -2.7782 0.0000
# 108 texture coords

g 4_Shed_Door_w_transom
usemtl None
s 1
f 1/1/1 2/2/1 3/3/1 4/4/1 
s 2
f 5/5/2 6/6/2 7/7/2 8/8/2 
s 4
f 7/9/3 9/10/4 10/11/4 11/12/4 
f 2/2/4 1/1/4 12/13/4 13/14/4 
f 14/15/4 15/16/4 16/17/4 17/18/4 
s 2
f 4/19/5 18/20/5 19/21/5 1/22/5 
s 1
f 20/23/5 21/24/5 22/25/5 13/26/5 
s 2
f 13/14/6 12/13/6 23/27/6 20/28/6 
f 17/18/1 24/29/1 25/30/1 14/15/1 
s 1
f 26/31/2 15/32/2 10/33/2 27/34/2 
f 11/12/6 28/35/6 8/36/6 7/9/6 
f 29/37/7 30/38/7 31/39/7 32/40/7 
s 2
f 33/41/8 34/42/8 35/43/8 36/44/8 
f 37/45/9 38/46/9 39/47/9 40/48/9 
f 41/49/1 31/39/1 30/38/1 42/50/1 
s 4
f 43/51/6 29/37/6 32/40/6 44/52/6 
s 1
f 45/53/4 38/54/4 31/55/4 46/56/4 
s 4
f 45/53/1 46/56/1 47/57/1 48/58/1 
s 2
f 48/59/5 39/60/5 38/54/5 45/53/5 
s 8
f 47/61/2 46/56/2 31/55/2 41/62/2 
s 1
f 49/63/4 30/64/4 33/65/4 50/66/4 
s 4
f 49/63/1 50/66/1 51/67/1 52/68/1 
s 8
f 52/69/5 42/70/5 30/64/10 49/63/10 
s 2
f 51/71/2 50/66/2 33/65/2 36/72/2 
s 1
f 29/37/11 34/42/11 33/41/11 30/38/11 
f 38/46/11 37/45/11 32/40/11 31/39/11 
s 4
f 35/73/6 34/42/6 29/37/6 43/51/6 
f 37/45/6 40/74/6 44/52/6 32/40/6 
f 9/75/4 7/7/4 6/6/4 16/76/4 
f 10/33/4 15/32/4 53/77/4 11/78/4 
s 2
f 54/79/2 55/80/2 56/81/2 57/82/2 
f 58/83/5 53/77/5 59/84/5 60/85/5 
s 1
f 25/86/2 61/87/2 62/88/2 14/89/2 
s 4
f 57/82/4 56/81/4 22/25/4 17/90/4 
f 19/21/4 62/88/4 12/91/4 1/22/4 
s 1
f 63/92/5 9/75/5 16/76/5 64/93/5 
s 2
f 54/79/2 57/82/2 6/6/2 5/5/2 
s 4
f 6/6/4 57/82/4 17/90/4 16/76/4 
f 15/32/4 14/89/4 59/84/4 53/77/4 
s 2
f 28/94/5 11/78/5 53/77/5 58/83/5 
f 27/95/1 10/11/1 9/10/1 63/96/1 
f 15/16/6 26/97/6 64/98/6 16/17/6 
f 60/85/5 59/84/5 19/21/5 18/20/5 
f 3/99/2 2/100/2 56/81/2 55/80/2 
s 4
f 56/81/4 2/100/4 13/26/4 22/25/4 
f 59/84/4 14/89/4 62/88/4 19/21/4 
s 8
f 24/101/12 17/102/12 62/103/12 61/104/12 
s 16
f 17/102/4 22/105/4 12/106/4 62/103/4 
s 8
f 22/105/13 21/107/13 23/108/13 12/106/13 
# 49 polygons

