# 3ds Max Wavefront OBJ Exporter v0.97b - (c)2007 guruware
# File Created: 11.04.2019 18:45:08

mtllib 4x6_transom_trim_shed_door_w_transom_w_uprights_short_hinge_door.mtl

#
# object 4x6_transom_door
#

v  3.2026 8.1891 -60.9477
v  3.2026 8.1891 60.9469
v  -0.0176 8.1891 60.9469
v  -0.0176 8.1891 -60.9477
v  -0.0176 137.5420 60.9469
v  3.2026 137.5420 60.9469
v  3.2026 191.0691 60.9469
v  -0.0176 191.0691 60.9469
v  3.2026 181.2654 51.1567
v  3.2026 181.2654 -51.1575
v  3.2026 191.0691 -60.9477
v  3.2026 17.9928 -51.1575
v  3.2026 17.9928 51.1566
v  3.2026 127.8018 -51.1575
v  3.2026 137.5422 -51.1575
v  3.2026 137.5422 51.1567
v  3.2026 127.8018 51.1567
v  -0.0176 32.3512 -60.9477
v  3.2026 32.3512 -60.9477
v  0.3197 17.9928 51.1566
v  0.3197 113.6321 51.1567
v  3.2026 113.6321 51.1567
v  0.3197 17.9928 -51.1575
v  0.3197 127.8018 51.1567
v  0.3197 127.8018 -51.1575
v  0.3197 137.5422 -51.1575
v  0.3197 181.2654 -51.1575
v  -0.0176 191.0691 -60.9477
v  3.2026 137.5420 -60.9477
v  -0.0176 127.8020 60.9469
v  -0.0176 113.6321 60.9469
v  3.2026 113.6321 60.9469
v  3.2026 127.8020 60.9469
v  -0.0176 137.5420 -60.9477
v  3.2026 127.8020 -60.9477
v  -0.0176 127.8020 -60.9477
v  0.3197 32.3512 -51.1575
v  3.2026 32.3512 -51.1575
v  0.3197 181.2654 51.1567
v  0.3197 137.5422 51.1567
v  -0.0176 137.5420 1.2501
v  2.0000 137.5422 1.2500
v  2.0000 181.2654 1.2500
v  -0.0176 181.2650 1.2501
v  2.0000 181.2654 -1.2500
v  2.0000 137.5422 -1.2500
v  0.3197 181.2654 -1.2500
v  0.3197 137.5422 -1.2500
v  -0.0176 137.5420 -24.9499
v  2.0000 137.5422 -24.9500
v  2.0000 181.2654 -24.9500
v  -0.0176 181.2650 -24.9499
v  2.0000 181.2654 -27.4500
v  2.0000 137.5422 -27.4500
v  0.3197 181.2654 -27.4500
v  0.3197 137.5422 -27.4500
v  -0.0176 137.5420 27.4501
v  2.0000 137.5422 27.4500
v  2.0000 181.2654 27.4500
v  -0.0176 181.2650 27.4501
v  2.0000 181.2654 24.9500
v  2.0000 137.5422 24.9500
v  0.3197 181.2654 24.9500
v  0.3197 137.5422 24.9500
# 64 vertices

vn 0.0000 -1.0000 -0.0000
vn 0.0000 0.0000 1.0000
vn 0.9996 0.0290 -0.0000
vn 1.0000 0.0000 -0.0000
vn 0.0000 0.0000 -1.0000
vn 0.0000 1.0000 -0.0000
vn 0.0000 0.7312 -0.6822
vn 0.0000 -0.7305 0.6829
vn 0.0001 0.0000 1.0000
# 9 vertex normals

vt 1.9589 -2.6469 0.0000
vt 1.9589 1.5179 0.0000
vt 1.8489 1.5179 0.0000
vt 1.8489 -2.6469 0.0000
vt -0.3010 1.5011 0.0000
vt -0.1910 1.5011 0.0000
vt -0.1910 3.3300 0.0000
vt -0.3011 3.3300 0.0000
vt 1.5954 1.5179 0.0000
vt 1.2604 1.1834 0.0000
vt 1.2604 -2.3124 0.0000
vt 1.5954 -2.6469 0.0000
vt 2.2939 -2.3124 0.0000
vt 2.2939 1.1834 0.0000
vt 2.6307 -2.5970 0.0000
vt 2.9635 -2.5970 0.0000
vt 2.9635 0.8988 0.0000
vt 2.6307 0.8988 0.0000
vt -0.4536 -2.8142 0.0000
vt -0.4536 -1.9887 0.0000
vt -0.5636 -1.9887 0.0000
vt -0.5636 -2.8142 0.0000
vt 0.2420 -2.5836 0.0000
vt 0.2420 0.6842 0.0000
vt 0.1435 0.6842 0.0000
vt 0.1435 -2.5836 0.0000
vt 2.3924 -2.3124 0.0000
vt 2.3924 1.1834 0.0000
vt 2.5322 0.8988 0.0000
vt 2.5322 -2.5970 0.0000
vt -0.9966 1.6055 0.0000
vt -0.8981 1.6055 0.0000
vt -0.8981 3.0994 0.0000
vt -0.9966 3.0994 0.0000
vt 1.7054 -2.6469 0.0000
vt 1.7054 1.5179 0.0000
vt 0.1435 2.9950 0.0000
vt 0.1435 1.5011 0.0000
vt -0.5636 1.6055 0.0000
vt -0.5636 3.4344 0.0000
vt -0.3010 1.1683 0.0000
vt -0.3010 0.6841 0.0000
vt -0.1910 0.6841 0.0000
vt -0.1910 1.1683 0.0000
vt -0.4536 1.6055 0.0000
vt -0.5636 1.2727 0.0000
vt -0.4536 1.2727 0.0000
vt -0.9966 1.2727 0.0000
vt -0.9966 -1.9887 0.0000
vt -0.8981 -1.9887 0.0000
vt -0.8981 1.2727 0.0000
vt 0.1435 1.1683 0.0000
vt -0.8981 -2.4793 0.0000
vt 0.2420 2.9950 0.0000
vt 0.2420 1.5011 0.0000
vt -0.4536 3.4344 0.0000
vt 1.1619 -2.3124 0.0000
vt 1.1619 1.1834 0.0000
vt 3.0620 -2.5970 0.0000
vt 3.0620 0.8988 0.0000
vt -0.3010 -2.9186 0.0000
vt -0.1910 -2.9186 0.0000
vt 3.7390 2.3285 0.0000
vt 3.6405 2.3289 0.0000
vt 3.6217 -2.4520 0.0000
vt 3.7202 -2.4524 0.0000
vt 3.2852 2.0000 0.0000
vt 3.2617 -2.7853 0.0000
vt 3.1867 2.0005 0.0000
vt 3.1632 -2.7848 0.0000
vt 2.1066 1.7327 0.0000
vt 2.1961 1.7327 0.0000
vt 2.1961 3.2267 0.0000
vt 2.1066 3.2266 0.0000
vt 2.3226 3.2267 0.0000
vt 2.3226 1.7327 0.0000
vt 2.4005 3.2267 0.0000
vt 2.4005 1.7327 0.0000
vt 2.6337 1.7197 0.0000
vt 2.7232 1.7197 0.0000
vt 2.7232 3.2136 0.0000
vt 2.6337 3.2136 0.0000
vt 2.8497 3.2137 0.0000
vt 2.8497 1.7197 0.0000
vt 2.9277 3.2137 0.0000
vt 2.9277 1.7197 0.0000
vt 1.5948 1.7206 0.0000
vt 1.6843 1.7206 0.0000
vt 1.6843 3.2145 0.0000
vt 1.5948 3.2145 0.0000
vt 1.8108 3.2145 0.0000
vt 1.8108 1.7206 0.0000
vt 1.8888 3.2145 0.0000
vt 1.8888 1.7206 0.0000
# 94 texture coords

g 4x6_transom_door
usemtl None
s 1
f 1/1/1 2/2/1 3/3/1 4/4/1 
s 2
f 5/5/2 6/6/2 7/7/2 8/8/2 
s 4
f 7/9/3 9/10/4 10/11/4 11/12/4 
f 2/2/4 1/1/4 12/13/4 13/14/4 
f 14/15/4 15/16/4 16/17/4 17/18/4 
s 2
f 4/19/5 18/20/5 19/21/5 1/22/5 
s 1
f 20/23/5 21/24/5 22/25/5 13/26/5 
s 2
f 13/14/6 12/13/6 23/27/6 20/28/6 
f 17/18/1 24/29/1 25/30/1 14/15/1 
s 1
f 26/31/2 15/32/2 10/33/2 27/34/2 
f 11/12/6 28/35/6 8/36/6 7/9/6 
s 4
f 9/37/4 7/7/4 6/6/4 16/38/4 
f 10/33/4 15/32/4 29/39/4 11/40/4 
s 2
f 30/41/2 31/42/2 32/43/2 33/44/2 
f 34/45/5 29/39/5 35/46/5 36/47/5 
s 1
f 25/48/2 37/49/2 38/50/2 14/51/2 
s 4
f 33/44/4 32/43/4 22/25/4 17/52/4 
f 19/21/4 38/50/4 12/53/4 1/22/4 
s 1
f 39/54/5 9/37/5 16/38/5 40/55/5 
s 2
f 30/41/2 33/44/2 6/6/2 5/5/2 
s 4
f 6/6/4 33/44/4 17/52/4 16/38/4 
f 15/32/4 14/51/4 35/46/4 29/39/4 
s 2
f 28/56/5 11/40/5 29/39/5 34/45/5 
f 27/57/1 10/11/1 9/10/1 39/58/1 
f 15/16/6 26/59/6 40/60/6 16/17/6 
f 36/47/5 35/46/5 19/21/5 18/20/5 
f 3/61/2 2/62/2 32/43/2 31/42/2 
s 4
f 32/43/4 2/62/4 13/26/4 22/25/4 
f 35/46/4 14/51/4 38/50/4 19/21/4 
s 8
f 24/63/7 17/64/7 38/65/7 37/66/7 
s 16
f 17/64/4 22/67/4 12/68/4 38/65/4 
s 8
f 22/67/8 21/69/8 23/70/8 12/68/8 
s 2
f 41/71/9 42/72/9 43/73/9 44/74/9 
s 4
f 45/75/4 43/73/4 42/72/4 46/76/4 
s 1
f 47/77/5 45/75/5 46/76/5 48/78/5 
s 2
f 49/79/9 50/80/9 51/81/9 52/82/9 
s 4
f 53/83/4 51/81/4 50/80/4 54/84/4 
s 1
f 55/85/5 53/83/5 54/84/5 56/86/5 
s 2
f 57/87/9 58/88/9 59/89/9 60/90/9 
s 4
f 61/91/4 59/89/4 58/88/4 62/92/4 
s 1
f 63/93/5 61/91/5 62/92/5 64/94/5 
# 41 polygons

