# 3ds Max Wavefront OBJ Exporter v0.97b - (c)2007 guruware
# File Created: 11.04.2019 18:33:15

mtllib 4x6_transom_trim_shed_door_w_transom_short_hinge_door.mtl

#
# object 4_Shed_Door_w_transom
#

v  3.2026 8.1891 -60.9477
v  3.2026 8.1891 60.9469
v  -0.0176 8.1891 60.9469
v  -0.0176 8.1891 -60.9477
v  -0.0176 155.5420 60.9469
v  3.2026 155.5420 60.9469
v  3.2026 191.0691 60.9469
v  -0.0176 191.0691 60.9469
v  3.2026 181.2654 51.1567
v  3.2026 181.2654 -51.1575
v  3.2026 191.0691 -60.9477
v  3.2026 17.9928 -51.1575
v  3.2026 17.9928 51.1566
v  3.2026 145.8018 -51.1575
v  3.2026 155.5422 -51.1575
v  3.2026 155.5422 51.1567
v  3.2026 145.8018 51.1567
v  -0.0176 32.3512 -60.9477
v  3.2026 32.3512 -60.9477
v  0.3197 17.9928 51.1566
v  0.3197 131.6321 51.1567
v  3.2026 131.6321 51.1567
v  0.3197 17.9928 -51.1575
v  0.3197 145.8018 51.1567
v  0.3197 145.8018 -51.1575
v  0.3197 155.5422 -51.1575
v  0.3197 181.2654 -51.1575
v  -0.0176 191.0691 -60.9477
v  3.2026 155.5420 -60.9477
v  -0.0176 145.8020 60.9469
v  -0.0176 131.6321 60.9469
v  3.2026 131.6321 60.9469
v  3.2026 145.8020 60.9469
v  -0.0176 155.5420 -60.9477
v  3.2026 145.8020 -60.9477
v  -0.0176 145.8020 -60.9477
v  0.3197 32.3512 -51.1575
v  3.2026 32.3512 -51.1575
v  0.3197 181.2654 51.1567
v  0.3197 155.5422 51.1567
# 40 vertices

vn 0.0000 -1.0000 -0.0000
vn 0.0000 0.0000 1.0000
vn 0.9996 0.0290 -0.0000
vn 1.0000 0.0000 -0.0000
vn 0.0000 0.0000 -1.0000
vn 0.0000 1.0000 -0.0000
vn 0.0000 0.6697 -0.7426
vn 0.0000 -0.6691 0.7432
# 8 vertex normals

vt 2.1521 -2.6917 0.0000
vt 2.1521 1.4271 0.0000
vt 2.0433 1.4271 0.0000
vt 2.0433 -2.6917 0.0000
vt 0.0508 2.2600 0.0000
vt 0.1596 2.2600 0.0000
vt 0.1596 3.4605 0.0000
vt 0.0508 3.4605 0.0000
vt 1.8384 1.4271 0.0000
vt 1.5072 1.0963 0.0000
vt 1.5072 -2.3609 0.0000
vt 1.8384 -2.6917 0.0000
vt 2.4834 -2.3609 0.0000
vt 2.4834 1.0963 0.0000
vt 2.7744 -2.6912 0.0000
vt 3.1035 -2.6912 0.0000
vt 3.1035 0.7659 0.0000
vt 2.7744 0.7659 0.0000
vt -0.0406 -2.6849 0.0000
vt -0.0406 -1.8684 0.0000
vt -0.1495 -1.8684 0.0000
vt -0.1495 -2.6849 0.0000
vt 0.5879 -2.3878 0.0000
vt 0.5879 1.4521 0.0000
vt 0.4904 1.4521 0.0000
vt 0.4904 -2.3878 0.0000
vt 2.5808 -2.3609 0.0000
vt 2.5808 1.0963 0.0000
vt 2.6770 0.7659 0.0000
vt 2.6770 -2.6912 0.0000
vt -0.5777 2.2942 0.0000
vt -0.4803 2.2942 0.0000
vt -0.4803 3.1634 0.0000
vt -0.5777 3.1634 0.0000
vt 1.9472 -2.6917 0.0000
vt 1.9472 1.4271 0.0000
vt 0.4905 3.1292 0.0000
vt 0.4905 2.2600 0.0000
vt -0.1495 2.2942 0.0000
vt -0.1495 3.4946 0.0000
vt 0.0508 1.9309 0.0000
vt 0.0508 1.4521 0.0000
vt 0.1596 1.4521 0.0000
vt 0.1596 1.9309 0.0000
vt -0.0406 2.2942 0.0000
vt -0.1495 1.9651 0.0000
vt -0.0406 1.9650 0.0000
vt -0.5777 1.9650 0.0000
vt -0.5777 -1.8684 0.0000
vt -0.4803 -1.8684 0.0000
vt -0.4803 1.9650 0.0000
vt 0.4904 1.9309 0.0000
vt -0.4803 -2.3536 0.0000
vt 0.5879 3.1292 0.0000
vt 0.5879 2.2600 0.0000
vt -0.0406 3.4946 0.0000
vt 1.4097 -2.3609 0.0000
vt 1.4097 1.0963 0.0000
vt 3.2009 -2.6912 0.0000
vt 3.2009 0.7659 0.0000
vt 0.0508 -2.7190 0.0000
vt 0.1596 -2.7190 0.0000
vt 3.8674 2.7469 0.0000
vt 3.7700 2.7463 0.0000
vt 3.7977 -2.4157 0.0000
vt 3.8951 -2.4152 0.0000
vt 3.4513 2.3891 0.0000
vt 3.4747 -2.7778 0.0000
vt 3.3538 2.3886 0.0000
vt 3.3772 -2.7782 0.0000
# 70 texture coords

g 4_Shed_Door_w_transom
usemtl None
s 1
f 1/1/1 2/2/1 3/3/1 4/4/1 
s 2
f 5/5/2 6/6/2 7/7/2 8/8/2 
s 4
f 7/9/3 9/10/4 10/11/4 11/12/4 
f 2/2/4 1/1/4 12/13/4 13/14/4 
f 14/15/4 15/16/4 16/17/4 17/18/4 
s 2
f 4/19/5 18/20/5 19/21/5 1/22/5 
s 1
f 20/23/5 21/24/5 22/25/5 13/26/5 
s 2
f 13/14/6 12/13/6 23/27/6 20/28/6 
f 17/18/1 24/29/1 25/30/1 14/15/1 
s 1
f 26/31/2 15/32/2 10/33/2 27/34/2 
f 11/12/6 28/35/6 8/36/6 7/9/6 
s 4
f 9/37/4 7/7/4 6/6/4 16/38/4 
f 10/33/4 15/32/4 29/39/4 11/40/4 
s 2
f 30/41/2 31/42/2 32/43/2 33/44/2 
f 34/45/5 29/39/5 35/46/5 36/47/5 
s 1
f 25/48/2 37/49/2 38/50/2 14/51/2 
s 4
f 33/44/4 32/43/4 22/25/4 17/52/4 
f 19/21/4 38/50/4 12/53/4 1/22/4 
s 1
f 39/54/5 9/37/5 16/38/5 40/55/5 
s 2
f 30/41/2 33/44/2 6/6/2 5/5/2 
s 4
f 6/6/4 33/44/4 17/52/4 16/38/4 
f 15/32/4 14/51/4 35/46/4 29/39/4 
s 2
f 28/56/5 11/40/5 29/39/5 34/45/5 
f 27/57/1 10/11/1 9/10/1 39/58/1 
f 15/16/6 26/59/6 40/60/6 16/17/6 
f 36/47/5 35/46/5 19/21/5 18/20/5 
f 3/61/2 2/62/2 32/43/2 31/42/2 
s 4
f 32/43/4 2/62/4 13/26/4 22/25/4 
f 35/46/4 14/51/4 38/50/4 19/21/4 
s 8
f 24/63/7 17/64/7 38/65/7 37/66/7 
s 16
f 17/64/4 22/67/4 12/68/4 38/65/4 
s 8
f 22/67/8 21/69/8 23/70/8 12/68/8 
# 32 polygons

