# 3ds Max Wavefront OBJ Exporter v0.97b - (c)2007 guruware
# File Created: 26.01.2019 21:24:33

mtllib 4x6_Transom_trim_ door_with_uprights.mtl

#
# object 4x6_transom_door
#

v  3.2026 8.1891 -60.9477
v  3.2026 8.1891 60.9469
v  -0.0176 8.1891 60.9469
v  -0.0176 8.1891 -60.9477
v  -0.0176 137.5420 60.9469
v  3.2026 137.5420 60.9469
v  3.2026 191.0691 60.9469
v  -0.0176 191.0691 60.9469
v  3.2026 181.2654 51.1567
v  3.2026 181.2654 -51.1575
v  3.2026 191.0691 -60.9477
v  3.2026 17.9928 -51.1575
v  3.2026 17.9928 51.1566
v  3.2026 127.8018 -51.1575
v  3.2026 137.5422 -51.1575
v  3.2026 137.5422 51.1567
v  3.2026 127.8018 51.1567
v  -0.0176 32.3512 -60.9477
v  3.2026 32.3512 -60.9477
v  0.3197 17.9928 51.1566
v  0.3197 113.6321 51.1567
v  3.2026 113.6321 51.1567
v  0.3197 17.9928 -51.1575
v  0.3197 127.8018 51.1567
v  0.3197 127.8018 -51.1575
v  0.3197 137.5422 -51.1575
v  0.3197 181.2654 -51.1575
v  -0.0176 191.0691 -60.9477
v  4.9469 200.7141 61.0667
v  3.1352 191.1780 61.0723
v  3.1352 191.1780 -61.0619
v  4.9469 200.7142 -61.0676
v  3.1352 191.1780 70.5929
v  4.9469 200.7141 73.5792
v  0.1059 200.7141 73.5792
v  0.0022 191.1780 70.5929
v  4.9469 200.7142 -73.5801
v  3.1352 191.1780 -70.5937
v  0.0022 191.1780 -70.5937
v  0.1059 200.7142 -73.5801
v  0.0022 191.1780 -61.0619
v  0.0022 191.1780 61.0723
v  0.1059 200.7141 61.0667
v  0.1059 200.7142 -61.0676
v  3.1352 0.0019 -70.5930
v  3.1352 0.0019 -61.0517
v  0.0022 0.0019 -61.0517
v  0.0022 0.0019 -70.5930
v  3.1352 0.0019 61.0509
v  3.1352 0.0019 70.5922
v  0.0022 0.0019 70.5922
v  0.0022 0.0019 61.0509
v  3.2026 137.5420 -60.9477
v  -0.0176 127.8020 60.9469
v  -0.0176 113.6321 60.9469
v  3.2026 113.6321 60.9469
v  3.2026 127.8020 60.9469
v  -0.0176 137.5420 -60.9477
v  3.2026 127.8020 -60.9477
v  -0.0176 127.8020 -60.9477
v  0.3197 32.3512 -51.1575
v  3.2026 32.3512 -51.1575
v  0.3197 181.2654 51.1567
v  0.3197 137.5422 51.1567
v  -0.0176 137.5420 1.2501
v  2.0000 137.5422 1.2500
v  2.0000 181.2654 1.2500
v  -0.0176 181.2650 1.2501
v  2.0000 181.2654 -1.2500
v  2.0000 137.5422 -1.2500
v  0.3197 181.2654 -1.2500
v  0.3197 137.5422 -1.2500
v  -0.0176 137.5420 -24.9499
v  2.0000 137.5422 -24.9500
v  2.0000 181.2654 -24.9500
v  -0.0176 181.2650 -24.9499
v  2.0000 181.2654 -27.4500
v  2.0000 137.5422 -27.4500
v  0.3197 181.2654 -27.4500
v  0.3197 137.5422 -27.4500
v  -0.0176 137.5420 27.4501
v  2.0000 137.5422 27.4500
v  2.0000 181.2654 27.4500
v  -0.0176 181.2650 27.4501
v  2.0000 181.2654 24.9500
v  2.0000 137.5422 24.9500
v  0.3197 181.2654 24.9500
v  0.3197 137.5422 24.9500
# 88 vertices

vn 0.0000 -1.0000 -0.0000
vn 0.0000 0.0000 1.0000
vn 0.9996 0.0290 -0.0000
vn 1.0000 0.0000 -0.0000
vn 0.0000 0.0000 -1.0000
vn 0.0000 1.0000 -0.0000
vn 0.9825 -0.1862 -0.0000
vn 0.0000 -0.2990 0.9542
vn 0.0000 -0.2990 -0.9542
vn 0.0000 0.0002 -1.0000
vn 0.9824 -0.1866 -0.0000
vn 0.0000 0.7312 -0.6822
vn 0.0000 -0.7305 0.6829
vn 0.0001 0.0000 1.0000
# 14 vertex normals

vt 1.9589 -2.6469 0.0000
vt 1.9589 1.5179 0.0000
vt 1.8489 1.5179 0.0000
vt 1.8489 -2.6469 0.0000
vt -0.3010 1.5011 0.0000
vt -0.1910 1.5011 0.0000
vt -0.1910 3.3300 0.0000
vt -0.3011 3.3300 0.0000
vt 1.5954 1.5179 0.0000
vt 1.2604 1.1834 0.0000
vt 1.2604 -2.3124 0.0000
vt 1.5954 -2.6469 0.0000
vt 2.2939 -2.3124 0.0000
vt 2.2939 1.1834 0.0000
vt 2.6307 -2.5970 0.0000
vt 2.9635 -2.5970 0.0000
vt 2.9635 0.8988 0.0000
vt 2.6307 0.8988 0.0000
vt -0.4536 -2.8142 0.0000
vt -0.4536 -1.9887 0.0000
vt -0.5636 -1.9887 0.0000
vt -0.5636 -2.8142 0.0000
vt 0.2420 -2.5836 0.0000
vt 0.2420 0.6842 0.0000
vt 0.1435 0.6842 0.0000
vt 0.1435 -2.5836 0.0000
vt 2.3924 -2.3124 0.0000
vt 2.3924 1.1834 0.0000
vt 2.5322 0.8988 0.0000
vt 2.5322 -2.5970 0.0000
vt -0.9966 1.6055 0.0000
vt -0.8981 1.6055 0.0000
vt -0.8981 3.0994 0.0000
vt -0.9966 3.0994 0.0000
vt 1.7054 -2.6469 0.0000
vt 1.7054 1.5179 0.0000
vt 0.8524 2.0134 0.0000
vt 0.5207 2.0136 0.0000
vt 0.5207 -2.1595 0.0000
vt 0.8524 -2.1597 0.0000
vt 0.5207 2.3389 0.0000
vt 0.8524 2.4409 0.0000
vt 0.7763 2.5878 0.0000
vt 0.4715 2.4339 0.0000
vt 0.8524 -2.5872 0.0000
vt 0.5207 -2.4851 0.0000
vt 0.4715 -2.5802 0.0000
vt 0.7763 -2.7341 0.0000
vt 0.4137 -2.1595 0.0000
vt 0.4137 2.0136 0.0000
vt 1.0178 2.0134 0.0000
vt 1.0178 -2.1597 0.0000
vt -1.2319 -2.6094 0.0000
vt -1.2319 3.9226 0.0000
vt -1.5575 3.9226 0.0000
vt -1.5579 -2.6094 0.0000
vt -1.5579 -2.7165 0.0000
vt -1.2319 -2.7165 0.0000
vt -1.1248 -2.6094 0.0000
vt -1.1248 3.9226 0.0000
vt -1.6649 -2.6094 0.0000
vt -1.6646 3.9226 0.0000
vt -1.9172 -2.6094 0.0000
vt -1.9179 3.9226 0.0000
vt -2.2432 3.9226 0.0000
vt -2.2432 -2.6094 0.0000
vt -2.2432 -2.7165 0.0000
vt -1.9172 -2.7165 0.0000
vt -1.8101 -2.6094 0.0000
vt -1.8109 3.9226 0.0000
vt -2.3502 -2.6094 0.0000
vt -2.3502 3.9226 0.0000
vt 1.0178 2.4409 0.0000
vt 1.0178 -2.5872 0.0000
vt 0.1435 2.9950 0.0000
vt 0.1435 1.5011 0.0000
vt -0.5636 1.6055 0.0000
vt -0.5636 3.4344 0.0000
vt -0.3010 1.1683 0.0000
vt -0.3010 0.6841 0.0000
vt -0.1910 0.6841 0.0000
vt -0.1910 1.1683 0.0000
vt -0.4536 1.6055 0.0000
vt -0.5636 1.2727 0.0000
vt -0.4536 1.2727 0.0000
vt -0.9966 1.2727 0.0000
vt -0.9966 -1.9887 0.0000
vt -0.8981 -1.9887 0.0000
vt -0.8981 1.2727 0.0000
vt 0.1435 1.1683 0.0000
vt -0.8981 -2.4793 0.0000
vt 0.2420 2.9950 0.0000
vt 0.2420 1.5011 0.0000
vt -0.4536 3.4344 0.0000
vt 1.1619 -2.3124 0.0000
vt 1.1619 1.1834 0.0000
vt 3.0620 -2.5970 0.0000
vt 3.0620 0.8988 0.0000
vt -0.3010 -2.9186 0.0000
vt -0.1910 -2.9186 0.0000
vt 3.7390 2.3285 0.0000
vt 3.6405 2.3289 0.0000
vt 3.6217 -2.4520 0.0000
vt 3.7202 -2.4524 0.0000
vt 3.2852 2.0000 0.0000
vt 3.2617 -2.7853 0.0000
vt 3.1867 2.0005 0.0000
vt 3.1632 -2.7848 0.0000
vt 2.1066 1.7327 0.0000
vt 2.1961 1.7327 0.0000
vt 2.1961 3.2267 0.0000
vt 2.1066 3.2266 0.0000
vt 2.3226 3.2267 0.0000
vt 2.3226 1.7327 0.0000
vt 2.4005 3.2267 0.0000
vt 2.4005 1.7327 0.0000
vt 2.6337 1.7197 0.0000
vt 2.7232 1.7197 0.0000
vt 2.7232 3.2136 0.0000
vt 2.6337 3.2136 0.0000
vt 2.8497 3.2137 0.0000
vt 2.8497 1.7197 0.0000
vt 2.9277 3.2137 0.0000
vt 2.9277 1.7197 0.0000
vt 1.5948 1.7206 0.0000
vt 1.6843 1.7206 0.0000
vt 1.6843 3.2145 0.0000
vt 1.5948 3.2145 0.0000
vt 1.8108 3.2145 0.0000
vt 1.8108 1.7206 0.0000
vt 1.8888 3.2145 0.0000
vt 1.8888 1.7206 0.0000
# 132 texture coords

g 4x6_transom_door
usemtl None
s 1
f 1/1/1 2/2/1 3/3/1 4/4/1 
s 2
f 5/5/2 6/6/2 7/7/2 8/8/2 
s 4
f 7/9/3 9/10/4 10/11/4 11/12/4 
f 2/2/4 1/1/4 12/13/4 13/14/4 
f 14/15/4 15/16/4 16/17/4 17/18/4 
s 2
f 4/19/5 18/20/5 19/21/5 1/22/5 
s 1
f 20/23/5 21/24/5 22/25/5 13/26/5 
s 2
f 13/14/6 12/13/6 23/27/6 20/28/6 
f 17/18/1 24/29/1 25/30/1 14/15/1 
s 1
f 26/31/2 15/32/2 10/33/2 27/34/2 
f 11/12/6 28/35/6 8/36/6 7/9/6 
f 29/37/7 30/38/7 31/39/7 32/40/7 
s 2
f 33/41/8 34/42/8 35/43/8 36/44/8 
f 37/45/9 38/46/9 39/47/9 40/48/9 
f 41/49/1 31/39/1 30/38/1 42/50/1 
s 4
f 43/51/6 29/37/6 32/40/6 44/52/6 
s 1
f 45/53/4 38/54/4 31/55/4 46/56/4 
s 4
f 45/53/1 46/56/1 47/57/1 48/58/1 
s 2
f 48/59/5 39/60/5 38/54/5 45/53/5 
s 8
f 47/61/2 46/56/2 31/55/2 41/62/2 
s 1
f 49/63/4 30/64/4 33/65/4 50/66/4 
s 4
f 49/63/1 50/66/1 51/67/1 52/68/1 
s 8
f 52/69/5 42/70/5 30/64/10 49/63/10 
s 2
f 51/71/2 50/66/2 33/65/2 36/72/2 
s 1
f 29/37/11 34/42/11 33/41/11 30/38/11 
f 38/46/11 37/45/11 32/40/11 31/39/11 
s 4
f 35/73/6 34/42/6 29/37/6 43/51/6 
f 37/45/6 40/74/6 44/52/6 32/40/6 
f 9/75/4 7/7/4 6/6/4 16/76/4 
f 10/33/4 15/32/4 53/77/4 11/78/4 
s 2
f 54/79/2 55/80/2 56/81/2 57/82/2 
f 58/83/5 53/77/5 59/84/5 60/85/5 
s 1
f 25/86/2 61/87/2 62/88/2 14/89/2 
s 4
f 57/82/4 56/81/4 22/25/4 17/90/4 
f 19/21/4 62/88/4 12/91/4 1/22/4 
s 1
f 63/92/5 9/75/5 16/76/5 64/93/5 
s 2
f 54/79/2 57/82/2 6/6/2 5/5/2 
s 4
f 6/6/4 57/82/4 17/90/4 16/76/4 
f 15/32/4 14/89/4 59/84/4 53/77/4 
s 2
f 28/94/5 11/78/5 53/77/5 58/83/5 
f 27/95/1 10/11/1 9/10/1 63/96/1 
f 15/16/6 26/97/6 64/98/6 16/17/6 
f 60/85/5 59/84/5 19/21/5 18/20/5 
f 3/99/2 2/100/2 56/81/2 55/80/2 
s 4
f 56/81/4 2/100/4 13/26/4 22/25/4 
f 59/84/4 14/89/4 62/88/4 19/21/4 
s 8
f 24/101/12 17/102/12 62/103/12 61/104/12 
s 16
f 17/102/4 22/105/4 12/106/4 62/103/4 
s 8
f 22/105/13 21/107/13 23/108/13 12/106/13 
s 2
f 65/109/14 66/110/14 67/111/14 68/112/14 
s 4
f 69/113/4 67/111/4 66/110/4 70/114/4 
s 1
f 71/115/5 69/113/5 70/114/5 72/116/5 
s 2
f 73/117/14 74/118/14 75/119/14 76/120/14 
s 4
f 77/121/4 75/119/4 74/118/4 78/122/4 
s 1
f 79/123/5 77/121/5 78/122/5 80/124/5 
s 2
f 81/125/14 82/126/14 83/127/14 84/128/14 
s 4
f 85/129/4 83/127/4 82/126/4 86/130/4 
s 1
f 87/131/5 85/129/5 86/130/5 88/132/5 
# 58 polygons

