# 3ds Max Wavefront OBJ Exporter v0.97b - (c)2007 guruware
# File Created: 24.02.2018 16:24:40

mtllib 5x4 Ramp Supports.mtl

#
# object Ramp_Supports
#

v  58.9655 -13.8446 76.2000
v  58.9655 -13.8446 -76.2000
v  63.9460 -14.2856 -76.2000
v  63.9460 -14.2856 76.2000
v  59.4065 -8.8641 76.2000
v  64.3870 -9.3051 76.2000
v  64.3870 -9.3051 -76.2000
v  59.4065 -8.8641 -76.2000
v  121.1316 -14.2892 76.2000
v  121.1316 -14.2892 -76.2000
v  121.4535 -10.7537 -76.2000
v  121.4535 -10.7537 76.2000
v  117.6095 -13.9773 -76.2000
v  117.9314 -10.4419 -76.2000
v  117.6095 -13.9773 76.2000
v  117.9314 -10.4419 76.2000
v  117.8455 -10.5052 -76.1293
v  117.5360 -13.8998 -76.1293
v  117.5360 -13.8998 76.1293
v  117.8455 -10.5052 76.1293
# 20 vertices

vn -0.0882 -0.9961 -0.0000
vn 0.0882 0.9961 -0.0000
vn 0.0000 0.0000 1.0000
vn 0.9961 -0.0882 -0.0000
vn 0.0000 0.0000 -1.0000
vn -0.9961 0.0882 -0.0000
vn 0.9959 -0.0907 -0.0000
vn -0.6595 0.0601 -0.7493
vn -0.7257 -0.6880 -0.0000
vn -0.5937 0.8047 -0.0000
vn -0.6595 0.0601 0.7493
# 11 vertex normals

vt 0.5869 -1.5730 0.0000
vt 0.5869 2.4325 0.0000
vt 0.4555 2.4325 0.0000
vt 0.4555 -1.5730 0.0000
vt 0.1927 -1.5730 0.0000
vt 0.3241 -1.5730 0.0000
vt 0.3241 2.4325 0.0000
vt 0.1927 2.4325 0.0000
vt 0.4555 -1.7044 0.0000
vt 0.5870 -1.7044 0.0000
vt 0.5870 2.5639 0.0000
vt 0.4555 2.5639 0.0000
vt 0.0613 2.4325 0.0000
vt 0.0613 -1.5730 0.0000
vt 0.8443 2.4405 0.0000
vt 0.8436 -1.5650 0.0000
vt 0.9369 -1.5650 0.0000
vt 0.9376 2.4406 0.0000
vt 0.8434 -1.6579 0.0000
vt 0.9367 -1.6579 0.0000
vt 0.7514 2.4406 0.0000
vt 0.7507 -1.5649 0.0000
vt 1.0299 -1.5650 0.0000
vt 1.0306 2.4405 0.0000
vt 0.9374 2.5335 0.0000
vt 0.8441 2.5335 0.0000
vt 0.9349 -1.6607 0.0000
vt 0.8453 -1.6607 0.0000
vt 0.7479 -1.5631 0.0000
vt 0.7486 2.4387 0.0000
vt 1.0334 2.4387 0.0000
vt 1.0327 -1.5631 0.0000
vt 0.8459 2.5363 0.0000
vt 0.9355 2.5363 0.0000
# 34 texture coords

g Ramp_Supports
usemtl Material__32
s 2
f 1/1/1 2/2/1 3/3/1 4/4/1 
s 4
f 5/5/2 6/6/2 7/7/2 8/8/2 
s 8
f 1/1/3 4/4/3 6/9/3 5/10/3 
s 16
f 4/4/4 3/3/4 7/7/4 6/6/4 
s 32
f 3/3/5 2/2/5 8/11/5 7/12/5 
s 64
f 2/13/6 1/14/6 5/5/6 8/8/6 
s 16
f 9/15/7 10/16/7 11/17/7 12/18/7 
s 32
f 13/19/5 14/20/5 11/17/5 10/16/5 
s 2
f 10/16/1 9/15/1 15/21/1 13/22/1 
s 4
f 12/18/2 11/17/2 14/23/2 16/24/2 
s 8
f 9/15/3 12/18/3 16/25/3 15/26/3 
s off
f 17/27/8 14/20/8 13/19/8 18/28/8 
f 18/29/9 13/22/9 15/21/9 19/30/9 
f 20/31/10 16/24/10 14/23/10 17/32/10 
f 19/33/11 15/26/11 16/25/11 20/34/11 
# 15 polygons

