# 3ds Max Wavefront OBJ Exporter v0.97b - (c)2007 guruware
# File Created: 05.09.2018 20:41:51

mtllib 5x6_double_wood_door.mtl

#
# object 5x6_double_wood_door
#

v  2.9993 91.3499 46.8496
v  2.9993 91.3499 29.4508
v  2.9993 97.4411 29.4508
v  2.9993 97.4411 46.8496
v  2.9993 97.4411 0.1001
v  2.9993 97.4411 6.3752
v  2.9993 91.3499 6.3752
v  2.9993 91.3499 0.1001
v  2.9993 179.9044 69.9248
v  2.9993 179.9044 6.3752
v  2.9993 186.4525 6.3752
v  2.9993 186.4525 69.9248
v  2.9993 10.0476 29.4508
v  2.9993 10.0476 46.8496
v  2.9993 3.5197 46.8496
v  2.9993 3.5197 29.4508
v  2.9993 97.4411 69.9248
v  2.9993 179.9045 76.1999
v  2.9993 97.4411 76.1999
v  2.9993 32.8986 69.9248
v  2.9993 68.3580 69.9248
v  2.9993 68.3580 76.1999
v  2.9993 32.8986 76.1999
v  2.9993 32.8986 0.1001
v  2.9993 68.3580 0.1001
v  2.9993 68.3580 6.3752
v  2.9993 32.8986 6.3752
v  2.9993 179.9044 0.1001
v  2.9993 23.3187 69.9248
v  2.9993 23.3187 76.1999
v  2.9993 77.3142 76.1999
v  2.9993 77.3142 69.9248
v  2.9993 23.3187 0.1001
v  2.9993 23.3187 6.3752
v  2.9993 77.3142 6.3752
v  2.9993 77.3142 0.1001
v  2.9993 91.3499 20.7958
v  2.9993 97.4411 20.7958
v  2.9993 97.4411 55.9496
v  2.9993 91.3499 55.9496
v  2.9993 10.0476 55.9496
v  2.9993 3.5197 55.9496
v  2.9993 3.5197 20.7958
v  2.9993 10.0476 20.7958
v  2.9993 91.3499 76.1999
v  2.9993 91.3499 69.9248
v  2.9993 10.0476 69.9248
v  2.9993 10.0476 76.1999
v  2.9993 3.5197 6.3752
v  2.9993 10.0476 6.3752
v  2.9993 10.0476 0.1001
v  2.9993 186.4525 76.1999
v  2.9993 3.5197 69.9248
v  2.9993 3.5197 0.1001
v  0.0000 3.5197 0.1001
v  0.0000 3.5197 6.3752
v  0.0000 3.5197 20.7958
v  0.0000 3.5197 29.4508
v  0.0000 3.5197 46.8496
v  0.0000 3.5197 55.9496
v  0.0000 3.5197 69.9248
v  2.9993 3.5197 76.1999
v  0.0000 3.5197 76.1999
v  0.0000 10.0476 76.1999
v  0.0000 23.3187 76.1999
v  0.0000 32.8986 76.1999
v  0.0000 68.3580 76.1999
v  0.0000 77.3142 76.1999
v  0.0000 91.3499 76.1999
v  0.0000 97.4411 76.1999
v  0.0000 179.9045 76.1999
v  0.0000 186.4525 76.1999
v  0.0000 186.4525 69.9248
v  0.0000 186.4525 6.3752
v  2.9993 186.4525 0.1001
v  0.0000 186.4525 0.1001
v  0.0000 179.9044 0.1001
v  0.0000 97.4411 0.1001
v  0.0000 91.3499 0.1001
v  0.0000 77.3142 0.1001
v  0.0000 68.3580 0.1001
v  0.0000 32.8986 0.1001
v  0.0000 23.3187 0.1001
v  0.0000 10.0476 0.1001
v  0.0000 23.3187 69.9248
v  0.0000 10.0476 69.9248
v  0.0000 10.0476 55.9496
v  0.0000 10.0476 20.7958
v  0.0000 10.0476 6.3752
v  0.0000 23.3187 6.3752
v  0.0000 97.4411 69.9248
v  0.0000 97.4411 55.9496
v  0.0000 77.3142 6.3752
v  0.0000 91.3499 6.3752
v  0.0000 91.3499 20.7958
v  0.0000 68.3580 69.9248
v  0.0000 32.8986 69.9248
v  0.0000 10.0476 46.8496
v  0.0000 10.0476 29.4508
v  0.0000 32.8986 6.3752
v  0.0000 68.3580 6.3752
v  0.0000 91.3499 29.4508
v  0.0000 91.3499 46.8496
v  0.0000 179.9044 6.3752
v  0.0000 179.9044 69.9248
v  0.0000 97.4411 46.8496
v  0.0000 97.4411 29.4508
v  0.0000 97.4411 6.3752
v  0.0000 97.4411 20.7958
v  0.0000 91.3499 69.9248
v  0.0000 77.3142 69.9248
v  0.0000 91.3499 55.9496
v  2.9993 91.3499 -29.4830
v  2.9993 91.3499 -46.8817
v  2.9993 97.4411 -46.8817
v  2.9993 97.4411 -29.4830
v  2.9993 97.4411 -76.2325
v  2.9993 97.4411 -69.9574
v  2.9993 91.3499 -69.9574
v  2.9993 91.3499 -76.2325
v  2.9993 179.9044 -6.4077
v  2.9993 179.9044 -69.9574
v  2.9993 186.4525 -69.9574
v  2.9993 186.4525 -6.4077
v  2.9993 10.0476 -46.8817
v  2.9993 10.0476 -29.4830
v  2.9993 3.5197 -29.4830
v  2.9993 3.5197 -46.8817
v  2.9993 97.4411 -6.4077
v  2.9993 179.9045 -0.1326
v  2.9993 97.4411 -0.1326
v  2.9993 32.8986 -6.4077
v  2.9993 68.3580 -6.4077
v  2.9993 68.3580 -0.1326
v  2.9993 32.8986 -0.1326
v  2.9993 32.8986 -76.2325
v  2.9993 68.3580 -76.2325
v  2.9993 68.3580 -69.9574
v  2.9993 32.8986 -69.9574
v  2.9993 179.9044 -76.2325
v  2.9993 23.3187 -6.4077
v  2.9993 23.3187 -0.1326
v  2.9993 77.3142 -0.1326
v  2.9993 77.3142 -6.4077
v  2.9993 23.3187 -76.2325
v  2.9993 23.3187 -69.9574
v  2.9993 77.3142 -69.9574
v  2.9993 77.3142 -76.2325
v  2.9993 91.3499 -55.5367
v  2.9993 97.4411 -55.5367
v  2.9993 97.4411 -20.3829
v  2.9993 91.3499 -20.3829
v  2.9993 10.0476 -20.3830
v  2.9993 3.5197 -20.3830
v  2.9993 3.5197 -55.5367
v  2.9993 10.0476 -55.5367
v  2.9993 91.3499 -0.1326
v  2.9993 91.3499 -6.4077
v  2.9993 10.0476 -6.4077
v  2.9993 10.0476 -0.1326
v  2.9993 3.5197 -69.9574
v  2.9993 10.0476 -69.9574
v  2.9993 10.0476 -76.2325
v  2.9993 186.4525 -0.1326
v  2.9993 3.5197 -6.4077
v  2.9993 3.5197 -76.2325
v  0.0000 3.5197 -76.2325
v  0.0000 3.5197 -69.9574
v  0.0000 3.5197 -55.5367
v  0.0000 3.5197 -46.8817
v  0.0000 3.5197 -29.4830
v  0.0000 3.5197 -20.3830
v  0.0000 3.5197 -6.4077
v  2.9993 3.5197 -0.1326
v  0.0000 3.5197 -0.1326
v  0.0000 10.0476 -0.1326
v  0.0000 23.3187 -0.1326
v  0.0000 32.8986 -0.1326
v  0.0000 68.3580 -0.1326
v  0.0000 77.3142 -0.1326
v  0.0000 91.3499 -0.1326
v  0.0000 97.4411 -0.1326
v  0.0000 179.9045 -0.1326
v  0.0000 186.4525 -0.1326
v  0.0000 186.4525 -6.4077
v  0.0000 186.4525 -69.9574
v  2.9993 186.4525 -76.2325
v  0.0000 186.4525 -76.2325
v  0.0000 179.9044 -76.2325
v  0.0000 97.4411 -76.2325
v  0.0000 91.3499 -76.2325
v  0.0000 77.3142 -76.2325
v  0.0000 68.3580 -76.2325
v  0.0000 32.8986 -76.2325
v  0.0000 23.3187 -76.2325
v  0.0000 10.0476 -76.2325
v  0.0000 23.3187 -6.4077
v  0.0000 10.0476 -6.4077
v  0.0000 10.0476 -20.3830
v  0.0000 10.0476 -55.5367
v  0.0000 10.0476 -69.9574
v  0.0000 23.3187 -69.9574
v  0.0000 97.4411 -6.4077
v  0.0000 97.4411 -20.3829
v  0.0000 77.3142 -69.9574
v  0.0000 91.3499 -69.9574
v  0.0000 91.3499 -55.5367
v  0.0000 68.3580 -6.4077
v  0.0000 32.8986 -6.4077
v  0.0000 10.0476 -29.4830
v  0.0000 10.0476 -46.8817
v  0.0000 32.8986 -69.9574
v  0.0000 68.3580 -69.9574
v  0.0000 91.3499 -46.8817
v  0.0000 91.3499 -29.4830
v  0.0000 179.9044 -69.9574
v  0.0000 179.9044 -6.4077
v  0.0000 97.4411 -29.4830
v  0.0000 97.4411 -46.8817
v  0.0000 97.4411 -69.9574
v  0.0000 97.4411 -55.5367
v  0.0000 91.3499 -6.4077
v  0.0000 77.3142 -6.4077
v  0.0000 91.3499 -20.3829
# 224 vertices

vn 1.0000 0.0000 -0.0000
vn 0.0000 -1.0000 -0.0000
vn 0.0000 0.0000 1.0000
vn 0.0000 1.0000 -0.0000
vn 0.0000 0.0000 -1.0000
vn 0.0000 -0.7251 0.6886
vn 0.0000 -0.7358 -0.6772
vn 0.0000 0.7166 -0.6975
vn 0.0000 0.7106 -0.7036
vn 0.0000 0.9248 -0.3804
vn 0.0000 0.9248 0.3804
vn 0.0000 0.7106 0.7036
vn 0.0000 -0.7084 0.7058
vn 0.0000 -0.9242 0.3818
vn 0.0000 -0.9242 -0.3818
vn 0.0000 -0.7084 -0.7058
vn 0.0000 0.7056 0.7086
# 17 vertex normals

vt 2.1349 -0.7982 0.0000
vt 2.1349 -1.3420 0.0000
vt 2.3253 -1.3420 0.0000
vt 2.3253 -0.7982 0.0000
vt -2.0997 0.6729 0.0000
vt -2.2958 0.6694 0.0000
vt -2.2924 0.4791 0.0000
vt -2.0964 0.4825 0.0000
vt 1.1544 2.8771 0.0000
vt 1.1544 0.8909 0.0000
vt 1.3591 0.8909 0.0000
vt 1.3591 2.8771 0.0000
vt 1.6450 2.1559 0.0000
vt 1.6450 1.6121 0.0000
vt 1.8490 1.6121 0.0000
vt 1.8490 2.1559 0.0000
vt -0.0958 0.6682 0.0000
vt -0.0958 3.2454 0.0000
vt -0.2919 3.2455 0.0000
vt -0.2919 0.6682 0.0000
vt -0.0957 -1.3490 0.0000
vt -0.0957 -0.2408 0.0000
vt -0.2918 -0.2408 0.0000
vt -0.2918 -1.3490 0.0000
vt -2.0639 -1.3440 0.0000
vt -2.0837 -0.2359 0.0000
vt -2.2798 -0.2394 0.0000
vt -2.2600 -1.3475 0.0000
vt -2.1446 3.2498 0.0000
vt -2.3407 3.2463 0.0000
vt -0.0957 -1.6484 0.0000
vt -0.2918 -1.6484 0.0000
vt -0.2919 0.0391 0.0000
vt -0.0957 0.0391 0.0000
vt -2.0586 -1.6433 0.0000
vt -2.2547 -1.6468 0.0000
vt -2.2847 0.0405 0.0000
vt -2.0886 0.0439 0.0000
vt 2.1349 -1.6125 0.0000
vt 2.3252 -1.6125 0.0000
vt 2.3252 -0.5138 0.0000
vt 2.1349 -0.5138 0.0000
vt 1.6450 1.3277 0.0000
vt 1.8490 1.3277 0.0000
vt 1.8490 2.4264 0.0000
vt 1.6450 2.4264 0.0000
vt 2.8278 -2.0632 0.0000
vt 2.8228 -1.0483 0.0000
vt 2.6111 -1.2600 0.0000
vt 2.6266 -1.8621 0.0000
vt 2.6111 1.2782 0.0000
vt 2.8024 1.4695 0.0000
vt 2.8278 2.0815 0.0000
vt 2.6161 2.2932 0.0000
vt 1.3555 4.2836 0.0000
vt 1.1544 4.0825 0.0000
vt 1.1558 3.4634 0.0000
vt 1.3537 3.2655 0.0000
vt -0.2919 0.4778 0.0000
vt -0.0958 0.4778 0.0000
vt 3.1154 1.2784 0.0000
vt 3.3134 1.4763 0.0000
vt 3.3049 2.1052 0.0000
vt 3.1136 2.2965 0.0000
vt -0.0957 -2.0632 0.0000
vt -0.2918 -2.0632 0.0000
vt 2.3252 -0.0771 0.0000
vt 2.1349 -0.0771 0.0000
vt 2.1349 -2.0632 0.0000
vt 2.3252 -2.0632 0.0000
vt 1.8490 2.8771 0.0000
vt 1.6450 2.8771 0.0000
vt -2.2473 -2.0616 0.0000
vt -2.0512 -2.0581 0.0000
vt 1.3591 3.0732 0.0000
vt 1.1544 3.0732 0.0000
vt 1.6450 0.8909 0.0000
vt 1.8490 0.8909 0.0000
vt 1.8490 3.0732 0.0000
vt 1.6450 3.0732 0.0000
vt 1.9427 3.0732 0.0000
vt 1.9427 2.8771 0.0000
vt 1.9427 2.4264 0.0000
vt 1.9427 2.1559 0.0000
vt 1.9427 1.6121 0.0000
vt 1.9427 1.3277 0.0000
vt 1.9427 0.8909 0.0000
vt 1.8490 0.6948 0.0000
vt 1.9427 0.6948 0.0000
vt 1.8490 0.6011 0.0000
vt 1.6450 0.6948 0.0000
vt 1.6450 0.6011 0.0000
vt -0.3855 -2.0632 0.0000
vt -0.3855 -1.6485 0.0000
vt -0.3855 -1.3490 0.0000
vt -0.3856 -0.2408 0.0000
vt -0.3856 0.0391 0.0000
vt -0.3856 0.4778 0.0000
vt -0.3856 0.6682 0.0000
vt -0.3856 3.2455 0.0000
vt 1.1544 3.1669 0.0000
vt 1.3591 3.1669 0.0000
vt 1.4528 3.0732 0.0000
vt 1.4528 2.8771 0.0000
vt 1.4528 0.8909 0.0000
vt 1.3591 0.6948 0.0000
vt 1.4528 0.6948 0.0000
vt 1.3591 0.6011 0.0000
vt 1.1544 0.6948 0.0000
vt 1.1544 0.6011 0.0000
vt -2.0509 3.2514 0.0000
vt -2.0060 0.6745 0.0000
vt -2.0026 0.4842 0.0000
vt -1.9949 0.0456 0.0000
vt -1.9900 -0.2343 0.0000
vt -1.9702 -1.3423 0.0000
vt -1.9649 -1.6417 0.0000
vt -1.9575 -2.0564 0.0000
vt 1.6450 3.1669 0.0000
vt 1.8490 3.1669 0.0000
vt -0.0019 -1.6484 0.0000
vt -0.0019 -2.0632 0.0000
vt 1.5512 0.8909 0.0000
vt 1.5512 1.3277 0.0000
vt 2.5329 -1.8645 0.0000
vt 2.5174 -1.2624 0.0000
vt 1.5512 2.4264 0.0000
vt 1.5512 2.8771 0.0000
vt -2.3410 -2.0632 0.0000
vt -2.3484 -1.6485 0.0000
vt 2.9215 2.0776 0.0000
vt 2.8960 1.4656 0.0000
vt 2.4190 -0.0771 0.0000
vt 2.4190 -0.5138 0.0000
vt -2.3784 0.0388 0.0000
vt -2.3862 0.4774 0.0000
vt 2.0411 -2.0632 0.0000
vt 2.0411 -1.6125 0.0000
vt 3.3986 2.1065 0.0000
vt 3.4071 1.4776 0.0000
vt -0.0020 -0.2408 0.0000
vt -0.0019 -1.3490 0.0000
vt 2.9165 -1.0478 0.0000
vt 2.9215 -2.0628 0.0000
vt 1.5512 1.6121 0.0000
vt 1.5512 2.1559 0.0000
vt 2.5174 1.2787 0.0000
vt 2.5223 2.2936 0.0000
vt -2.3537 -1.3491 0.0000
vt -2.3735 -0.2411 0.0000
vt 3.0217 1.2782 0.0000
vt 3.0198 2.2963 0.0000
vt 2.0411 -1.3420 0.0000
vt 2.0411 -0.7982 0.0000
vt 1.4493 4.2834 0.0000
vt 1.4474 3.2653 0.0000
vt 1.0607 0.8909 0.0000
vt 1.0607 2.8771 0.0000
vt -0.0020 3.2454 0.0000
vt -0.0020 0.6682 0.0000
vt 2.4190 -0.7982 0.0000
vt 2.4190 -1.3420 0.0000
vt -2.3895 0.6678 0.0000
vt -2.4345 3.2447 0.0000
vt 2.4190 -1.6125 0.0000
vt 2.4190 -2.0632 0.0000
vt -0.0020 0.4778 0.0000
vt -0.0020 0.0391 0.0000
vt 1.0620 3.4632 0.0000
vt 1.0607 4.0823 0.0000
vt 2.0411 -0.5138 0.0000
vt 2.0411 -0.0771 0.0000
vt 2.3252 0.7425 0.0000
vt 2.3252 1.2863 0.0000
vt 2.1349 1.2863 0.0000
vt 2.1349 0.7425 0.0000
vt 0.8684 0.6682 0.0000
vt 0.6723 0.6682 0.0000
vt 0.6723 0.4778 0.0000
vt 0.8685 0.4778 0.0000
vt 1.3591 -1.7734 0.0000
vt 1.3591 0.2128 0.0000
vt 1.1544 0.2128 0.0000
vt 1.1544 -1.7734 0.0000
vt 1.8490 -1.0522 0.0000
vt 1.8490 -0.5084 0.0000
vt 1.6450 -0.5084 0.0000
vt 1.6450 -1.0522 0.0000
vt 0.3863 0.6681 0.0000
vt 0.3863 3.2454 0.0000
vt 0.1902 3.2454 0.0000
vt 0.1902 0.6681 0.0000
vt 0.3864 -1.3490 0.0000
vt 0.3864 -0.2408 0.0000
vt 0.1903 -0.2408 0.0000
vt 0.1903 -1.3490 0.0000
vt 0.8685 -1.3490 0.0000
vt 0.8685 -0.2408 0.0000
vt 0.6724 -0.2408 0.0000
vt 0.6724 -1.3490 0.0000
vt 0.8685 3.2455 0.0000
vt 0.6723 3.2455 0.0000
vt 0.3864 -1.6484 0.0000
vt 0.1903 -1.6484 0.0000
vt 0.1903 0.0391 0.0000
vt 0.3864 0.0391 0.0000
vt 0.8686 -1.6484 0.0000
vt 0.6724 -1.6484 0.0000
vt 0.6724 0.0391 0.0000
vt 0.8685 0.0391 0.0000
vt 2.3252 1.5568 0.0000
vt 2.1349 1.5568 0.0000
vt 2.1349 0.4581 0.0000
vt 2.3252 0.4581 0.0000
vt 1.8490 -0.2240 0.0000
vt 1.6450 -0.2240 0.0000
vt 1.6450 -1.3227 0.0000
vt 1.8490 -1.3227 0.0000
vt 2.8278 -0.9494 0.0000
vt 2.8228 0.0655 0.0000
vt 2.6111 -0.1462 0.0000
vt 2.6266 -0.7483 0.0000
vt 2.6111 0.1644 0.0000
vt 2.8024 0.3557 0.0000
vt 2.8278 0.9676 0.0000
vt 2.6161 1.1794 0.0000
vt 1.8461 4.2836 0.0000
vt 1.6450 4.0825 0.0000
vt 1.6463 3.4634 0.0000
vt 1.8442 3.2655 0.0000
vt 0.1902 0.4778 0.0000
vt 0.3863 0.4778 0.0000
vt 2.6130 2.3922 0.0000
vt 2.8109 2.5901 0.0000
vt 2.8024 3.2190 0.0000
vt 2.6111 3.4103 0.0000
vt 0.3865 -2.0632 0.0000
vt 0.1903 -2.0632 0.0000
vt 2.1349 0.0213 0.0000
vt 2.3253 0.0213 0.0000
vt 2.3252 2.0075 0.0000
vt 2.1349 2.0075 0.0000
vt 1.6450 -1.7734 0.0000
vt 1.8490 -1.7734 0.0000
vt 0.6724 -2.0632 0.0000
vt 0.8686 -2.0632 0.0000
vt 1.1544 -1.9695 0.0000
vt 1.3591 -1.9695 0.0000
vt 1.8490 0.2128 0.0000
vt 1.6450 0.2128 0.0000
vt 1.6450 -1.9695 0.0000
vt 1.8490 -1.9695 0.0000
vt 1.5512 -1.9695 0.0000
vt 1.5512 -1.7734 0.0000
vt 1.5512 -1.3227 0.0000
vt 1.5512 -1.0522 0.0000
vt 1.5512 -0.5084 0.0000
vt 1.5512 -0.2240 0.0000
vt 1.5512 0.2128 0.0000
vt 1.6450 0.4089 0.0000
vt 1.5512 0.4089 0.0000
vt 1.6450 0.5027 0.0000
vt 1.8490 0.4089 0.0000
vt 1.8490 0.5027 0.0000
vt 0.0966 -2.0632 0.0000
vt 0.0966 -1.6485 0.0000
vt 0.0966 -1.3490 0.0000
vt 0.0965 -0.2408 0.0000
vt 0.0965 0.0391 0.0000
vt 0.0965 0.4778 0.0000
vt 0.0965 0.6681 0.0000
vt 0.0965 3.2454 0.0000
vt 1.3591 -2.0632 0.0000
vt 1.1544 -2.0632 0.0000
vt 1.0607 -1.9695 0.0000
vt 1.0607 -1.7734 0.0000
vt 1.0607 0.2128 0.0000
vt 1.1544 0.4089 0.0000
vt 1.0607 0.4089 0.0000
vt 1.1544 0.5027 0.0000
vt 1.3591 0.4089 0.0000
vt 1.3591 0.5027 0.0000
vt 0.9622 3.2455 0.0000
vt 0.9622 0.6682 0.0000
vt 0.9622 0.4778 0.0000
vt 0.9622 0.0391 0.0000
vt 0.9622 -0.2408 0.0000
vt 0.9623 -1.3490 0.0000
vt 0.9623 -1.6484 0.0000
vt 0.9623 -2.0632 0.0000
vt 1.8490 -2.0632 0.0000
vt 1.6450 -2.0632 0.0000
vt 0.4802 -1.6484 0.0000
vt 0.4802 -2.0632 0.0000
vt 1.9427 0.2128 0.0000
vt 1.9427 -0.2240 0.0000
vt 2.5329 -0.7507 0.0000
vt 2.5174 -0.1486 0.0000
vt 1.9427 -1.3227 0.0000
vt 1.9427 -1.7734 0.0000
vt 0.5787 -2.0632 0.0000
vt 0.5787 -1.6485 0.0000
vt 2.9215 0.9638 0.0000
vt 2.8960 0.3518 0.0000
vt 2.0411 0.0213 0.0000
vt 2.0411 0.4581 0.0000
vt 0.5786 0.0391 0.0000
vt 0.5786 0.4778 0.0000
vt 2.4190 2.0075 0.0000
vt 2.4190 1.5568 0.0000
vt 2.8961 3.2203 0.0000
vt 2.9046 2.5914 0.0000
vt 0.4801 -0.2408 0.0000
vt 0.4802 -1.3490 0.0000
vt 2.9165 0.0660 0.0000
vt 2.9215 -0.9490 0.0000
vt 1.9427 -0.5084 0.0000
vt 1.9427 -1.0522 0.0000
vt 2.5174 0.1649 0.0000
vt 2.5223 1.1798 0.0000
vt 0.5787 -1.3490 0.0000
vt 0.5786 -0.2408 0.0000
vt 2.5192 2.3920 0.0000
vt 2.5174 3.4101 0.0000
vt 2.4190 1.2863 0.0000
vt 2.4190 0.7425 0.0000
vt 1.9398 4.2834 0.0000
vt 1.9380 3.2653 0.0000
vt 1.4528 0.2128 0.0000
vt 1.4528 -1.7734 0.0000
vt 0.4801 3.2454 0.0000
vt 0.4801 0.6681 0.0000
vt 2.0411 0.7425 0.0000
vt 2.0411 1.2863 0.0000
vt 0.5786 0.6682 0.0000
vt 0.5786 3.2455 0.0000
vt 2.0411 1.5568 0.0000
vt 2.0411 2.0075 0.0000
vt 0.4801 0.4778 0.0000
vt 0.4801 0.0391 0.0000
vt 1.5526 3.4632 0.0000
vt 1.5512 4.0823 0.0000
vt 2.4190 0.4581 0.0000
vt 2.4190 0.0213 0.0000
# 344 texture coords

g 5x6_double_wood_door
usemtl Material__27
s 1
f 1/1/1 2/2/1 3/3/1 4/4/1 
f 5/5/1 6/6/1 7/7/1 8/8/1 
f 9/9/1 10/10/1 11/11/1 12/12/1 
f 13/13/1 14/14/1 15/15/1 16/16/1 
f 17/17/1 9/18/1 18/19/1 19/20/1 
f 20/21/1 21/22/1 22/23/1 23/24/1 
f 24/25/1 25/26/1 26/27/1 27/28/1 
f 5/5/1 28/29/1 10/30/1 6/6/1 
f 29/31/1 20/21/1 23/24/1 30/32/1 
f 31/33/1 22/23/1 21/22/1 32/34/1 
f 33/35/1 24/25/1 27/28/1 34/36/1 
f 35/37/1 26/27/1 25/26/1 36/38/1 
f 2/2/1 37/39/1 38/40/1 3/3/1 
f 39/41/1 40/42/1 1/1/1 4/4/1 
f 14/14/1 41/43/1 42/44/1 15/15/1 
f 43/45/1 44/46/1 13/13/1 16/16/1 
f 14/47/1 20/48/1 29/49/1 41/50/1 
f 13/51/1 44/52/1 34/53/1 27/54/1 
f 1/55/1 40/56/1 32/57/1 21/58/1 
f 45/59/1 31/33/1 32/34/1 46/60/1 
f 7/7/1 35/37/1 36/38/1 8/8/1 
f 26/61/1 35/62/1 37/63/1 2/64/1 
f 47/65/1 29/31/1 30/32/1 48/66/1 
f 17/67/1 46/68/1 40/42/1 39/41/1 
f 7/69/1 6/70/1 38/40/1 37/39/1 
f 49/71/1 50/72/1 44/46/1 43/45/1 
f 34/36/1 50/73/1 51/74/1 33/35/1 
f 9/9/1 12/12/1 52/75/1 18/76/1 
f 42/44/1 41/43/1 47/77/1 53/78/1 
f 50/72/1 49/71/1 54/79/1 51/80/1 
f 55/81/2 54/79/2 49/71/2 56/82/2 
f 56/82/2 49/71/2 43/45/2 57/83/2 
f 57/83/2 43/45/2 16/16/2 58/84/2 
f 58/84/2 16/16/2 15/15/2 59/85/2 
f 59/85/2 15/15/2 42/44/2 60/86/2 
f 60/86/2 42/44/2 53/78/2 61/87/2 
f 61/87/2 53/78/2 62/88/2 63/89/2 
f 63/90/3 62/88/3 48/91/3 64/92/3 
f 64/93/3 48/66/3 30/32/3 65/94/3 
f 65/94/3 30/32/3 23/24/3 66/95/3 
f 66/95/3 23/24/3 22/23/3 67/96/3 
f 67/96/3 22/23/3 31/33/3 68/97/3 
f 68/97/3 31/33/3 45/59/3 69/98/3 
f 69/98/3 45/59/3 19/20/3 70/99/3 
f 70/99/3 19/20/3 18/19/3 71/100/3 
f 71/101/3 18/76/3 52/75/3 72/102/3 
f 72/103/4 52/75/4 12/12/4 73/104/4 
f 73/104/4 12/12/4 11/11/4 74/105/4 
f 74/105/4 11/11/4 75/106/4 76/107/4 
f 76/108/5 75/106/5 28/109/5 77/110/5 
f 77/111/5 28/29/5 5/5/5 78/112/5 
f 78/112/5 5/5/5 8/8/5 79/113/5 
f 79/113/5 8/8/5 36/38/5 80/114/5 
f 80/114/5 36/38/5 25/26/5 81/115/5 
f 81/115/5 25/26/5 24/25/5 82/116/5 
f 82/116/5 24/25/5 33/35/5 83/117/5 
f 83/117/5 33/35/5 51/74/5 84/118/5 
f 84/119/5 51/80/5 54/79/5 55/120/5 
f 85/121/5 29/31/5 47/65/5 86/122/5 
f 86/123/4 47/77/4 41/43/4 87/124/4 
f 87/125/6 41/50/6 29/49/6 85/126/6 
f 88/127/4 44/46/4 50/72/4 89/128/4 
f 89/129/3 50/73/3 34/36/3 90/130/3 
f 90/131/7 34/53/7 44/52/7 88/132/7 
f 91/133/4 17/67/4 39/41/4 92/134/4 
f 93/135/3 35/37/3 7/7/3 94/136/3 
f 94/137/2 7/69/2 37/39/2 95/138/2 
f 95/139/8 37/63/8 35/62/8 93/140/8 
f 96/141/5 21/22/5 20/21/5 97/142/5 
f 97/143/9 20/48/9 14/47/10 98/144/10 
f 98/145/10 14/14/10 13/13/11 99/146/11 
f 99/147/11 13/51/11 27/54/12 100/148/12 
f 100/149/3 27/28/3 26/27/3 101/150/3 
f 101/151/13 26/61/13 2/64/14 102/152/14 
f 102/153/14 2/2/14 1/1/15 103/154/15 
f 103/155/15 1/55/15 21/58/16 96/156/16 
f 104/157/2 10/10/2 9/9/2 105/158/2 
f 105/159/5 9/18/5 17/17/5 91/160/5 
f 106/161/4 4/4/4 3/3/4 107/162/4 
f 108/163/3 6/6/3 10/30/3 104/164/3 
f 109/165/4 38/40/4 6/70/4 108/166/4 
f 110/167/5 46/60/5 32/34/5 111/168/5 
f 111/169/17 32/57/17 40/56/17 112/170/17 
f 112/171/2 40/42/2 46/68/2 110/172/2 
f 45/59/1 46/60/1 17/17/1 19/20/1 
f 75/106/1 11/11/1 10/10/1 28/109/1 
f 62/88/1 53/78/1 47/77/1 48/91/1 
f 109/165/4 107/162/4 3/3/4 38/40/4 
f 106/161/4 92/134/4 39/41/4 4/4/4 
f 113/173/1 114/174/1 115/175/1 116/176/1 
f 117/177/1 118/178/1 119/179/1 120/180/1 
f 121/181/1 122/182/1 123/183/1 124/184/1 
f 125/185/1 126/186/1 127/187/1 128/188/1 
f 129/189/1 121/190/1 130/191/1 131/192/1 
f 132/193/1 133/194/1 134/195/1 135/196/1 
f 136/197/1 137/198/1 138/199/1 139/200/1 
f 117/177/1 140/201/1 122/202/1 118/178/1 
f 141/203/1 132/193/1 135/196/1 142/204/1 
f 143/205/1 134/195/1 133/194/1 144/206/1 
f 145/207/1 136/197/1 139/200/1 146/208/1 
f 147/209/1 138/199/1 137/198/1 148/210/1 
f 114/174/1 149/211/1 150/212/1 115/175/1 
f 151/213/1 152/214/1 113/173/1 116/176/1 
f 126/186/1 153/215/1 154/216/1 127/187/1 
f 155/217/1 156/218/1 125/185/1 128/188/1 
f 126/219/1 132/220/1 141/221/1 153/222/1 
f 125/223/1 156/224/1 146/225/1 139/226/1 
f 113/227/1 152/228/1 144/229/1 133/230/1 
f 157/231/1 143/205/1 144/206/1 158/232/1 
f 119/179/1 147/209/1 148/210/1 120/180/1 
f 138/233/1 147/234/1 149/235/1 114/236/1 
f 159/237/1 141/203/1 142/204/1 160/238/1 
f 129/239/1 158/240/1 152/214/1 151/213/1 
f 119/241/1 118/242/1 150/212/1 149/211/1 
f 161/243/1 162/244/1 156/218/1 155/217/1 
f 146/208/1 162/245/1 163/246/1 145/207/1 
f 121/181/1 124/184/1 164/247/1 130/248/1 
f 154/216/1 153/215/1 159/249/1 165/250/1 
f 162/244/1 161/243/1 166/251/1 163/252/1 
f 167/253/2 166/251/2 161/243/2 168/254/2 
f 168/254/2 161/243/2 155/217/2 169/255/2 
f 169/255/2 155/217/2 128/188/2 170/256/2 
f 170/256/2 128/188/2 127/187/2 171/257/2 
f 171/257/2 127/187/2 154/216/2 172/258/2 
f 172/258/2 154/216/2 165/250/2 173/259/2 
f 173/259/2 165/250/2 174/260/2 175/261/2 
f 175/262/3 174/260/3 160/263/3 176/264/3 
f 176/265/3 160/238/3 142/204/3 177/266/3 
f 177/266/3 142/204/3 135/196/3 178/267/3 
f 178/267/3 135/196/3 134/195/3 179/268/3 
f 179/268/3 134/195/3 143/205/3 180/269/3 
f 180/269/3 143/205/3 157/231/3 181/270/3 
f 181/270/3 157/231/3 131/192/3 182/271/3 
f 182/271/3 131/192/3 130/191/3 183/272/3 
f 183/273/3 130/248/3 164/247/3 184/274/3 
f 184/275/4 164/247/4 124/184/4 185/276/4 
f 185/276/4 124/184/4 123/183/4 186/277/4 
f 186/277/4 123/183/4 187/278/4 188/279/4 
f 188/280/5 187/278/5 140/281/5 189/282/5 
f 189/283/5 140/201/5 117/177/5 190/284/5 
f 190/284/5 117/177/5 120/180/5 191/285/5 
f 191/285/5 120/180/5 148/210/5 192/286/5 
f 192/286/5 148/210/5 137/198/5 193/287/5 
f 193/287/5 137/198/5 136/197/5 194/288/5 
f 194/288/5 136/197/5 145/207/5 195/289/5 
f 195/289/5 145/207/5 163/246/5 196/290/5 
f 196/291/5 163/252/5 166/251/5 167/292/5 
f 197/293/5 141/203/5 159/237/5 198/294/5 
f 198/295/4 159/249/4 153/215/4 199/296/4 
f 199/297/6 153/222/6 141/221/6 197/298/6 
f 200/299/4 156/218/4 162/244/4 201/300/4 
f 201/301/3 162/245/3 146/208/3 202/302/3 
f 202/303/7 146/225/7 156/224/7 200/304/7 
f 203/305/4 129/239/4 151/213/4 204/306/4 
f 205/307/3 147/209/3 119/179/3 206/308/3 
f 206/309/2 119/241/2 149/211/2 207/310/2 
f 207/311/8 149/235/8 147/234/8 205/312/8 
f 208/313/5 133/194/5 132/193/5 209/314/5 
f 209/315/9 132/220/9 126/219/10 210/316/10 
f 210/317/10 126/186/10 125/185/11 211/318/11 
f 211/319/11 125/223/11 139/226/12 212/320/12 
f 212/321/3 139/200/3 138/199/3 213/322/3 
f 213/323/13 138/233/13 114/236/14 214/324/14 
f 214/325/14 114/174/14 113/173/15 215/326/15 
f 215/327/15 113/227/15 133/230/16 208/328/16 
f 216/329/2 122/182/2 121/181/2 217/330/2 
f 217/331/5 121/190/5 129/189/5 203/332/5 
f 218/333/4 116/176/4 115/175/4 219/334/4 
f 220/335/3 118/178/3 122/202/3 216/336/3 
f 221/337/4 150/212/4 118/242/4 220/338/4 
f 222/339/5 158/232/5 144/206/5 223/340/5 
f 223/341/17 144/229/17 152/228/17 224/342/17 
f 224/343/2 152/214/2 158/240/2 222/344/2 
f 157/231/1 158/232/1 129/189/1 131/192/1 
f 187/278/1 123/183/1 122/182/1 140/281/1 
f 174/260/1 165/250/1 159/249/1 160/263/1 
f 221/337/4 219/334/4 115/175/4 150/212/4 
f 218/333/4 204/306/4 151/213/4 116/176/4 
# 178 polygons

