# 3ds Max Wavefront OBJ Exporter v0.97b - (c)2007 guruware
# File Created: 15.02.2018 16:16:37

mtllib 5x6 Double wood door (Arch Top Trim).mtl

#
# object 4__Shed_Door
#

v  3.0000 186.7212 83.1329
v  3.0000 186.7212 76.4910
v  3.0000 193.1369 76.4910
v  3.0000 193.1369 83.1324
v  3.0000 186.7212 -76.4910
v  3.0000 193.1369 -76.4910
v  3.0000 0.0004 -83.1325
v  3.0000 186.7212 -83.1325
v  3.0000 0.0004 -76.4910
v  2.9993 101.0411 0.1001
v  2.9993 101.0411 6.3752
v  2.9993 87.7499 6.3752
v  2.9993 87.7499 0.1001
v  2.9993 174.8265 61.9811
v  2.9993 186.4525 61.9811
v  2.9993 186.4525 69.9248
v  2.9993 172.7045 69.9248
v  2.9993 101.0411 69.9248
v  2.9993 172.7045 76.1999
v  2.9993 101.0411 76.1999
v  2.9993 87.7499 76.1999
v  2.9993 17.2480 76.1999
v  2.9993 17.2476 69.9248
v  2.9993 87.7499 69.9248
v  2.9993 17.2476 6.3752
v  2.9993 17.2476 0.1001
v  2.9993 179.9044 0.1001
v  2.9993 179.9044 6.3752
v  2.9993 3.5197 6.3752
v  2.9993 3.5197 69.9248
v  3.0000 0.0004 83.1329
v  3.0000 0.0004 76.4910
v  3.0000 193.1369 -83.1320
v  2.9993 186.4525 76.1999
v  2.9993 3.5197 0.1001
v  -0.0000 0.0004 83.1329
v  -0.0000 186.7212 83.1329
v  -0.0000 186.7213 84.6329
v  3.0000 186.7213 84.6329
v  3.0000 193.1370 84.6324
v  -0.0000 193.1370 84.6324
v  -0.0000 193.1369 83.1324
v  -0.0000 193.1369 76.4910
v  0.0000 193.1369 -76.4910
v  0.0000 193.1369 -83.1320
v  0.0000 193.1370 -84.6320
v  3.0000 193.1370 -84.6320
v  3.0000 186.7213 -84.6325
v  0.0000 186.7213 -84.6325
v  0.0000 186.7212 -83.1325
v  0.0000 0.0004 -83.1325
v  0.0000 0.0004 -76.4910
v  0.0000 186.7212 -76.4910
v  -0.0000 186.7212 76.4910
v  -0.0000 0.0004 76.4910
v  0.0000 3.5197 0.1001
v  0.0000 3.5197 6.3752
v  -0.0000 3.5197 69.9248
v  2.9993 3.5197 76.1999
v  -0.0000 3.5197 76.1999
v  -0.0000 17.2480 76.1999
v  -0.0000 87.7499 76.1999
v  -0.0000 101.0411 76.1999
v  -0.0000 172.7045 76.1999
v  -0.0000 186.4525 76.1999
v  -0.0000 186.4525 69.9248
v  -0.0000 186.4525 61.9811
v  0.0000 186.4525 6.3752
v  2.9993 186.4525 6.3752
v  2.9993 186.4525 0.1001
v  0.0000 186.4525 0.1001
v  0.0000 179.9044 0.1001
v  0.0000 101.0411 0.1001
v  0.0000 87.7499 0.1001
v  0.0000 17.2476 0.1001
v  -0.0000 17.2476 69.9248
v  0.0000 17.2476 6.3752
v  0.0000 87.7499 6.3752
v  2.9993 179.4524 22.2626
v  0.0000 179.4524 22.2626
v  0.0000 179.9044 6.3752
v  -0.0000 172.7045 69.9248
v  -0.0000 101.0411 69.9248
v  0.0000 101.0411 6.3752
v  -0.0000 87.7499 69.9248
v  2.9993 101.0411 -76.2325
v  2.9993 101.0411 -69.9574
v  2.9993 87.7499 -69.9574
v  2.9993 87.7499 -76.2325
v  2.9993 179.9044 -6.4077
v  2.9993 179.4524 -22.2951
v  2.9993 186.4525 -22.2951
v  2.9993 186.4525 -6.4077
v  2.9993 101.0411 -6.4077
v  2.9993 179.9045 -0.1326
v  2.9993 101.0411 -0.1326
v  2.9993 87.7499 -0.1326
v  2.9993 17.2476 -0.1326
v  2.9993 17.2476 -6.4077
v  2.9993 87.7499 -6.4077
v  2.9993 17.2476 -69.9574
v  2.9993 17.2476 -76.2325
v  2.9993 172.7045 -76.2325
v  2.9993 172.7045 -69.9574
v  2.9993 3.5197 -69.9574
v  2.9993 3.5197 -6.4077
v  2.9993 186.4525 -0.1326
v  2.9993 3.5197 -76.2325
v  0.0000 3.5197 -76.2325
v  0.0000 3.5197 -69.9574
v  -0.0000 3.5197 -6.4077
v  2.9993 3.5197 -0.1326
v  -0.0000 3.5197 -0.1326
v  -0.0000 17.2476 -0.1326
v  -0.0000 87.7499 -0.1326
v  -0.0000 101.0411 -0.1326
v  -0.0000 179.9045 -0.1326
v  -0.0000 186.4525 -0.1326
v  -0.0000 186.4525 -6.4077
v  -0.0000 186.4525 -22.2951
v  0.0000 186.4525 -69.9574
v  2.9993 186.4525 -69.9574
v  2.9993 186.4525 -76.2325
v  0.0000 186.4525 -76.2325
v  0.0000 172.7045 -76.2325
v  0.0000 101.0411 -76.2325
v  0.0000 87.7499 -76.2325
v  0.0000 17.2476 -76.2325
v  -0.0000 17.2476 -6.4077
v  0.0000 17.2476 -69.9574
v  0.0000 87.7499 -69.9574
v  2.9993 174.8265 -62.0136
v  0.0000 174.8265 -62.0136
v  0.0000 172.7045 -69.9574
v  -0.0000 179.9044 -6.4077
v  -0.0000 101.0411 -6.4077
v  0.0000 101.0411 -69.9574
v  -0.0000 87.7499 -6.4077
v  2.9993 179.0602 30.2138
v  2.9993 186.4525 30.2063
v  2.9993 186.4525 38.1500
v  2.9993 178.4481 38.1500
v  0.0000 186.4525 30.2063
v  0.0000 186.4525 38.1500
v  2.9993 177.5881 46.1167
v  -0.0000 177.5881 46.1167
v  0.0000 178.4481 38.1500
v  2.9993 178.4481 -38.1825
v  2.9993 177.5881 -46.1492
v  2.9993 186.4525 -46.1262
v  2.9993 186.4525 -38.1825
v  0.0000 186.4525 -46.1262
v  0.0000 186.4525 -38.1825
v  2.9993 179.0602 -30.2463
v  -0.0000 179.0602 -30.2463
v  0.0000 178.4481 -38.1825
v  2.9993 186.4525 46.0937
v  2.9993 186.4525 54.0374
v  2.9993 176.3701 54.0374
v  -0.0000 186.4525 46.0937
v  -0.0000 186.4525 54.0374
v  0.0000 179.0602 30.2138
v  2.9993 186.4525 -30.2388
v  0.0000 186.4525 -30.2388
v  0.0000 177.5881 -46.1492
v  0.0000 176.3701 -54.0699
v  2.9993 176.3701 -54.0699
v  2.9993 186.4525 22.2626
v  0.0000 186.4525 22.2626
v  -0.0000 174.8265 61.9811
v  -0.0000 176.3701 54.0374
v  2.9993 186.4525 -62.0137
v  2.9993 186.4525 -54.0700
v  0.0000 186.4525 -62.0137
v  0.0000 186.4525 -54.0700
v  -0.0000 179.4524 -22.2951
# 176 vertices

vn 1.0000 0.0000 0.0000
vn 1.0000 -0.0000 0.0000
vn 1.0000 0.0000 -0.0000
vn -0.0000 0.0000 1.0000
vn -0.0000 0.0001 1.0000
vn 0.0000 1.0000 -0.0000
vn -0.0000 1.0000 0.0000
vn 0.0000 0.0001 -1.0000
vn 0.0000 0.0000 -1.0000
vn 0.0000 -1.0000 -0.0000
vn -0.0000 -0.0000 1.0000
vn 0.0000 0.7071 -0.7071
vn -0.0000 0.7071 0.7071
vn -0.0000 -0.7071 0.7071
vn 0.0000 -0.9996 -0.0284
vn 0.0000 -0.9992 -0.0389
vn 0.0000 -0.7071 -0.7071
vn 0.0000 1.0000 -0.0001
vn -0.0000 -1.0000 0.0001
vn 0.0000 -1.0000 -0.0001
vn -0.0000 1.0000 0.0001
vn 0.0000 -0.0000 -1.0000
vn -0.0000 0.7071 -0.7071
vn -0.0000 -0.9661 0.2581
vn -0.0000 -0.9745 0.2246
vn -0.0000 0.0000 -1.0000
vn -0.0000 1.0000 -0.0000
vn -0.0000 -0.7071 -0.7071
vn 0.0000 -0.9916 -0.1297
vn 0.0000 -0.9957 -0.0921
vn -0.0000 -0.9980 0.0631
vn -0.0000 -0.9957 0.0921
vn 0.0000 -0.9980 -0.0631
vn -0.0000 -0.9916 0.1297
vn -0.0000 -0.9852 0.1714
vn 0.0000 -0.9745 -0.2246
vn 0.0000 -0.9852 -0.1714
vn 0.0000 -0.9996 0.0284
vn -0.0000 -0.9992 0.0389
vn 0.0000 -0.9661 -0.2581
# 40 vertex normals

vt -0.7859 -1.9991 0.0000
vt -0.7859 -1.7936 0.0000
vt -0.9844 -1.7936 0.0000
vt -0.9844 -1.9991 0.0000
vt -0.7859 2.9380 0.0000
vt -0.9844 2.9381 0.0000
vt -1.2722 -2.3348 0.0000
vt -1.2722 3.4404 0.0000
vt -1.4776 3.4404 0.0000
vt -1.4776 -2.3348 0.0000
vt -2.2678 0.5367 0.0000
vt -2.4619 0.5367 0.0000
vt -2.4618 0.1257 0.0000
vt -2.2678 0.1257 0.0000
vt 1.0763 2.6273 0.0000
vt 1.4364 2.6264 0.0000
vt 1.4369 2.8723 0.0000
vt 1.0120 2.8740 0.0000
vt -0.2909 0.7915 0.0000
vt -0.2909 3.0081 0.0000
vt -0.4850 3.0081 0.0000
vt -0.4850 0.7915 0.0000
vt -0.4850 0.3804 0.0000
vt -0.4850 -1.8002 0.0000
vt -0.2909 -1.8002 0.0000
vt -0.2909 0.3804 0.0000
vt -2.4618 -2.0550 0.0000
vt -2.2678 -2.0550 0.0000
vt -2.2678 2.9760 0.0000
vt -2.4619 2.9760 0.0000
vt 3.0565 -1.4891 0.0000
vt 3.0565 0.4765 0.0000
vt 2.6454 0.4765 0.0000
vt 2.6454 -1.4891 0.0000
vt 2.2359 2.8666 0.0000
vt 1.8113 2.8666 0.0000
vt 1.8113 0.9011 0.0000
vt 2.2359 0.9011 0.0000
vt -1.9841 -2.3219 0.0000
vt -1.7786 -2.3219 0.0000
vt -1.7786 3.4533 0.0000
vt -1.9841 3.4533 0.0000
vt -0.7859 3.1435 0.0000
vt -0.9844 3.1435 0.0000
vt 1.4372 3.0667 0.0000
vt 1.0121 3.0673 0.0000
vt 2.2359 3.0607 0.0000
vt 1.8113 3.0607 0.0000
vt -2.0768 -2.3219 0.0000
vt -2.0769 3.4533 0.0000
vt -0.7859 -2.1383 0.0000
vt -0.7859 -2.0455 0.0000
vt -0.9844 -2.0455 0.0000
vt -0.9844 -2.1383 0.0000
vt -1.0772 -1.9991 0.0000
vt -1.0772 -1.7936 0.0000
vt -1.0772 2.9381 0.0000
vt -1.0772 3.1435 0.0000
vt -0.9844 3.2827 0.0000
vt -0.9844 3.1899 0.0000
vt -0.7859 3.1899 0.0000
vt -0.7859 3.2827 0.0000
vt -1.1794 3.4404 0.0000
vt -1.1794 -2.3348 0.0000
vt -1.2722 -2.4276 0.0000
vt -1.4776 -2.4276 0.0000
vt -1.5704 -2.3348 0.0000
vt -1.5704 3.4404 0.0000
vt -0.6931 2.9380 0.0000
vt -0.6931 -1.7936 0.0000
vt -1.6858 3.4533 0.0000
vt -1.6858 -2.3219 0.0000
vt -1.7786 -2.4147 0.0000
vt -1.9841 -2.4147 0.0000
vt 2.3286 3.0607 0.0000
vt 2.3286 2.8666 0.0000
vt 2.3286 0.9011 0.0000
vt 2.2359 0.7070 0.0000
vt 2.3286 0.7070 0.0000
vt 2.2359 0.6142 0.0000
vt 1.8112 0.7070 0.0000
vt 1.8112 0.6142 0.0000
vt -0.5778 -1.8002 0.0000
vt -0.5778 0.3804 0.0000
vt -0.5778 0.7915 0.0000
vt -0.5778 3.0081 0.0000
vt 1.0120 3.1598 0.0000
vt 1.4373 3.1598 0.0000
vt 1.5297 3.0665 0.0000
vt 1.5296 2.8723 0.0000
vt 1.5293 2.6263 0.0000
vt 1.5301 0.9044 0.0000
vt 1.4374 0.9044 0.0000
vt 1.4375 0.7102 0.0000
vt 1.5302 0.7103 0.0000
vt 1.4375 0.6174 0.0000
vt 1.2350 0.7101 0.0000
vt 1.2350 0.6174 0.0000
vt -2.1750 2.9760 0.0000
vt -2.1750 0.5367 0.0000
vt -2.1750 0.1257 0.0000
vt -2.1750 -2.0550 0.0000
vt 1.8113 3.1535 0.0000
vt 2.2359 3.1535 0.0000
vt 1.7185 0.9011 0.0000
vt 1.7185 2.8666 0.0000
vt -2.5546 -2.0550 0.0000
vt -2.5546 0.1256 0.0000
vt 1.2350 0.9040 0.0000
vt 1.2206 1.3954 0.0000
vt 1.1279 1.3915 0.0000
vt 1.1424 0.9009 0.0000
vt -0.1982 3.0081 0.0000
vt -0.1982 0.7915 0.0000
vt -2.5546 0.5367 0.0000
vt -2.5546 2.9760 0.0000
vt 3.1493 0.4765 0.0000
vt 3.1493 -1.4891 0.0000
vt -0.1982 0.3804 0.0000
vt -0.1982 -1.8002 0.0000
vt 2.5527 -1.4891 0.0000
vt 2.5527 0.4765 0.0000
vt -1.0772 -2.0455 0.0000
vt -0.6932 -1.9991 0.0000
vt -0.6932 -2.0455 0.0000
vt -0.6931 3.1435 0.0000
vt -0.6931 3.1899 0.0000
vt -1.0772 3.1899 0.0000
vt 0.6737 0.7786 0.0000
vt 0.4796 0.7786 0.0000
vt 0.4796 0.3675 0.0000
vt 0.6737 0.3675 0.0000
vt 1.2525 -1.7419 0.0000
vt 1.2669 -1.2505 0.0000
vt 1.0504 -1.2500 0.0000
vt 1.0501 -1.7415 0.0000
vt 0.1912 0.7532 0.0000
vt 0.1912 3.1924 0.0000
vt -0.0029 3.1924 0.0000
vt -0.0029 0.7532 0.0000
vt -0.0029 0.3421 0.0000
vt -0.0029 -1.8386 0.0000
vt 0.1912 -1.8386 0.0000
vt 0.1912 0.3421 0.0000
vt 0.4796 -1.8131 0.0000
vt 0.6737 -1.8131 0.0000
vt 0.6737 2.9951 0.0000
vt 0.4796 2.9951 0.0000
vt 3.0528 0.5792 0.0000
vt 3.0528 2.5448 0.0000
vt 2.6417 2.5448 0.0000
vt 2.6417 0.5792 0.0000
vt 1.8268 -1.7630 0.0000
vt 2.2514 -1.7630 0.0000
vt 2.2514 0.2026 0.0000
vt 1.8268 0.2026 0.0000
vt 1.0500 -1.9357 0.0000
vt 1.2524 -1.9358 0.0000
vt 1.8268 -1.9571 0.0000
vt 2.2514 -1.9571 0.0000
vt 1.7340 -1.9571 0.0000
vt 1.7340 -1.7630 0.0000
vt 1.7340 0.2026 0.0000
vt 1.8268 0.3967 0.0000
vt 1.7340 0.3967 0.0000
vt 1.8268 0.4894 0.0000
vt 2.2514 0.3967 0.0000
vt 2.2514 0.4894 0.0000
vt -0.0957 -1.8386 0.0000
vt -0.0957 0.3421 0.0000
vt -0.0957 0.7532 0.0000
vt -0.0957 3.1924 0.0000
vt 1.2525 -2.0285 0.0000
vt 1.0499 -2.0285 0.0000
vt 0.9573 -1.9356 0.0000
vt 0.9574 -1.7415 0.0000
vt 0.9576 -1.2499 0.0000
vt 0.9579 0.2264 0.0000
vt 1.0506 0.2265 0.0000
vt 1.0503 0.4208 0.0000
vt 0.9578 0.4206 0.0000
vt 1.0502 0.5139 0.0000
vt 1.4754 0.4214 0.0000
vt 1.4755 0.5139 0.0000
vt 0.7664 2.9951 0.0000
vt 0.7664 0.7786 0.0000
vt 0.7664 0.3675 0.0000
vt 0.7664 -1.8131 0.0000
vt 2.2514 -2.0499 0.0000
vt 1.8268 -2.0499 0.0000
vt 2.3442 0.2026 0.0000
vt 2.3442 -1.7630 0.0000
vt 0.3868 -1.8131 0.0000
vt 0.3868 0.3675 0.0000
vt 1.4755 0.2280 0.0000
vt 1.4112 -0.0186 0.0000
vt 1.5020 -0.0389 0.0000
vt 1.5649 0.2057 0.0000
vt 0.2840 3.1924 0.0000
vt 0.2840 0.7532 0.0000
vt 0.3868 0.7786 0.0000
vt 0.3868 2.9951 0.0000
vt 2.5490 0.5792 0.0000
vt 2.5490 2.5448 0.0000
vt 0.2840 0.3421 0.0000
vt 0.2840 -1.8386 0.0000
vt 3.1456 2.5448 0.0000
vt 3.1456 0.5792 0.0000
vt 1.2082 1.6417 0.0000
vt 1.4369 1.6420 0.0000
vt 1.4366 1.8881 0.0000
vt 1.1891 1.8877 0.0000
vt 1.5296 1.6420 0.0000
vt 1.5294 1.8881 0.0000
vt 1.1621 2.1347 0.0000
vt 1.0702 2.1226 0.0000
vt 1.0968 1.8789 0.0000
vt 1.2984 -0.7582 0.0000
vt 1.3253 -0.5112 0.0000
vt 1.0511 -0.5117 0.0000
vt 1.0508 -0.7578 0.0000
vt 0.9582 -0.5117 0.0000
vt 0.9581 -0.7578 0.0000
vt 1.2793 -1.0042 0.0000
vt 1.3718 -1.0102 0.0000
vt 1.3907 -0.7670 0.0000
vt 1.4364 2.1342 0.0000
vt 1.4363 2.3804 0.0000
vt 1.1244 2.3806 0.0000
vt 1.5292 2.1342 0.0000
vt 1.5292 2.3803 0.0000
vt 1.1156 1.6357 0.0000
vt 1.0506 -1.0039 0.0000
vt 0.9578 -1.0039 0.0000
vt 1.4173 -0.5233 0.0000
vt 1.4544 -0.2813 0.0000
vt 1.3631 -0.2653 0.0000
vt 1.4371 1.3959 0.0000
vt 1.5299 1.3960 0.0000
vt 0.9854 2.6070 0.0000
vt 1.0331 2.3646 0.0000
vt 1.0511 -0.0195 0.0000
vt 1.0512 -0.2655 0.0000
vt 0.9582 -0.0195 0.0000
vt 0.9583 -0.2656 0.0000
vt 1.3450 -1.7450 0.0000
vt 1.3596 -1.2544 0.0000
vt 0.9226 2.8517 0.0000
# 248 texture coords

g 4__Shed_Door
usemtl Material__27
s 1
f 1/1/1 2/2/1 3/3/1 4/4/1 
f 3/3/1 2/2/1 5/5/1 6/6/1 
f 7/7/2 8/8/3 5/9/1 9/10/2 
f 10/11/2 11/12/2 12/13/2 13/14/2 
f 14/15/2 15/16/2 16/17/2 17/18/2 
f 18/19/2 17/20/2 19/21/2 20/22/2 
f 21/23/2 22/24/2 23/25/2 24/26/2 
f 12/13/2 25/27/2 26/28/2 13/14/2 
f 10/11/2 27/29/2 28/30/2 11/12/2 
f 11/31/2 18/32/2 24/33/2 12/34/2 
f 29/35/2 25/36/2 23/37/2 30/38/2 
f 31/39/2 32/40/2 2/41/1 1/42/1 
f 6/6/1 5/5/1 8/43/3 33/44/3 
f 17/18/2 16/17/2 34/45/2 19/46/2 
f 25/36/2 29/35/2 35/47/2 26/48/2 
s 2
f 36/49/4 31/39/4 1/42/4 37/50/4 
f 38/51/5 39/52/5 40/53/5 41/54/5 
s 4
f 42/55/6 4/4/6 3/3/6 43/56/6 
f 43/56/6 3/3/6 6/6/6 44/57/6 
f 44/57/6 6/6/6 33/44/7 45/58/7 
s 2
f 46/59/8 47/60/8 48/61/8 49/62/8 
f 50/63/9 8/8/9 7/7/9 51/64/9 
s 4
f 51/65/10 7/7/10 9/10/10 52/66/10 
s 2
f 52/67/4 9/10/4 5/9/4 53/68/4 
s 4
f 53/69/10 5/5/10 2/2/10 54/70/10 
s 2
f 54/71/9 2/41/9 32/40/9 55/72/9 
s 4
f 55/73/10 32/40/10 31/39/10 36/74/10 
s 2
f 56/75/10 35/47/10 29/35/10 57/76/10 
f 57/76/10 29/35/10 30/38/10 58/77/10 
f 58/77/10 30/38/10 59/78/10 60/79/10 
s 4
f 60/80/4 59/78/4 22/81/4 61/82/4 
f 61/83/4 22/24/4 21/23/11 62/84/11 
f 62/84/11 21/23/11 20/22/11 63/85/11 
f 63/85/11 20/22/11 19/21/4 64/86/4 
f 64/87/4 19/46/4 34/45/4 65/88/4 
s 2
f 65/89/6 34/45/6 16/17/6 66/90/6 
f 16/17/6 15/16/6 67/91/6 66/90/6 
f 68/92/6 69/93/6 70/94/6 71/95/6 
s 4
f 71/96/9 70/94/9 27/97/9 72/98/9 
f 72/99/9 27/29/9 10/11/9 73/100/9 
f 73/100/9 10/11/9 13/14/9 74/101/9 
f 74/101/9 13/14/9 26/28/9 75/102/9 
f 75/103/9 26/48/9 35/47/9 56/104/9 
s 14
f 76/105/12 23/37/12 25/36/13 77/106/13 
f 77/107/13 25/27/13 12/13/14 78/108/14 
s 2
f 28/109/15 79/110/16 80/111/16 81/112/15 
s 4
f 82/113/9 17/20/9 18/19/9 83/114/9 
f 84/115/11 11/12/11 28/30/11 81/116/11 
s 2
f 83/117/6 18/32/6 11/31/6 84/118/6 
s 6
f 85/119/17 24/26/17 23/25/12 76/120/12 
s 14
f 78/121/14 12/34/14 24/33/17 85/122/17 
s 1
f 21/23/2 24/26/2 18/19/2 20/22/2 
f 70/94/2 69/93/2 28/109/2 27/97/2 
f 59/78/2 30/38/2 23/37/2 22/81/2 
f 1/1/1 4/4/1 40/53/1 39/52/1 
s 4
f 4/4/6 42/55/6 41/123/18 40/53/18 
f 37/124/19 1/1/19 39/52/19 38/125/19 
s 1
f 33/44/3 8/43/3 48/61/3 47/60/3 
s 4
f 8/43/20 50/126/20 49/127/20 48/61/20 
f 45/58/7 33/44/7 47/60/21 46/128/21 
s 1
f 86/129/2 87/130/2 88/131/2 89/132/2 
f 90/133/2 91/134/2 92/135/2 93/136/2 
f 94/137/2 90/138/2 95/139/2 96/140/2 
f 97/141/2 98/142/2 99/143/2 100/144/2 
f 88/131/2 101/145/2 102/146/2 89/132/2 
f 86/129/2 103/147/2 104/148/2 87/130/2 
f 100/149/2 88/150/2 87/151/2 94/152/2 
f 105/153/2 101/154/2 99/155/2 106/156/2 
f 90/133/2 93/136/2 107/157/2 95/158/2 
f 101/154/2 105/153/2 108/159/2 102/160/2 
s 2
f 109/161/10 108/159/10 105/153/10 110/162/10 
f 110/162/10 105/153/10 106/156/10 111/163/10 
f 111/163/10 106/156/10 112/164/10 113/165/10 
s 4
f 113/166/4 112/164/4 98/167/4 114/168/4 
f 114/169/4 98/142/4 97/141/11 115/170/11 
f 115/170/11 97/141/11 96/140/11 116/171/11 
f 116/171/11 96/140/11 95/139/4 117/172/4 
f 117/173/4 95/158/4 107/157/4 118/174/4 
s 2
f 118/175/6 107/157/6 93/136/6 119/176/6 
f 93/136/6 92/135/6 120/177/6 119/176/6 
f 121/178/6 122/179/6 123/180/6 124/181/6 
s 4
f 124/182/9 123/180/9 103/183/22 125/184/22 
f 125/185/22 103/147/22 86/129/9 126/186/9 
f 126/186/9 86/129/9 89/132/9 127/187/9 
f 127/187/9 89/132/9 102/146/9 128/188/9 
f 128/189/9 102/160/9 108/159/9 109/190/9 
s 14
f 129/191/23 99/155/23 101/154/13 130/192/13 
f 130/193/13 101/145/13 88/131/14 131/194/14 
s 2
f 104/195/24 132/196/25 133/197/25 134/198/24 
s 4
f 135/199/26 90/138/26 94/137/26 136/200/26 
f 137/201/4 87/130/4 104/148/4 134/202/4 
s 2
f 136/203/27 94/152/27 87/151/6 137/204/6 
s 6
f 138/205/28 100/144/28 99/143/23 129/206/23 
s 14
f 131/207/14 88/150/14 100/149/28 138/208/28 
s 1
f 97/141/2 100/144/2 94/137/2 96/140/2 
f 123/180/2 122/179/2 104/195/2 103/183/2 
f 112/164/2 106/156/2 99/155/2 98/167/2 
f 139/209/2 140/210/2 141/211/2 142/212/2 
s 2
f 140/210/6 143/213/6 144/214/6 141/211/6 
f 145/215/29 146/216/29 147/217/30 142/212/30 
s 1
f 148/218/2 149/219/2 150/220/2 151/221/2 
s 2
f 150/220/6 152/222/6 153/223/6 151/221/6 
f 154/224/31 155/225/31 156/226/32 148/218/32 
s 1
f 145/215/2 157/227/2 158/228/2 159/229/2 
s 2
f 157/227/6 160/230/6 161/231/6 158/228/6 
f 139/209/33 162/232/33 80/111/16 79/110/16 
s 1
f 91/134/2 154/224/2 163/233/2 92/135/2 
s 2
f 163/233/6 164/234/6 120/177/6 92/135/6 
f 149/219/34 165/235/34 166/236/35 167/237/35 
s 1
f 28/109/2 69/93/2 168/238/2 79/110/2 
s 2
f 69/93/6 68/92/6 169/239/6 168/238/6 
f 14/15/36 170/240/36 171/241/37 159/229/37 
s 1
f 167/237/1 132/196/2 172/242/1 173/243/2 
s 2
f 172/242/6 174/244/6 175/245/6 173/243/6 
f 90/133/38 135/246/38 176/247/39 91/134/39 
s 1
f 159/229/2 158/228/2 15/16/2 14/15/2 
s 2
f 158/228/6 161/231/6 67/91/6 15/16/6 
f 167/237/35 166/236/35 133/197/25 132/196/25 
f 17/18/40 82/248/40 170/240/36 14/15/36 
s 1
f 132/196/2 104/195/2 122/179/2 172/242/1 
s 2
f 122/179/6 121/178/6 174/244/6 172/242/6 
f 159/229/37 171/241/37 146/216/29 145/215/29 
s 1
f 142/212/2 141/211/2 157/227/2 145/215/2 
s 2
f 141/211/6 144/214/6 160/230/6 157/227/6 
s 1
f 79/110/2 168/238/2 140/210/2 139/209/2 
s 2
f 168/238/6 169/239/6 143/213/6 140/210/6 
f 142/212/30 147/217/30 162/232/33 139/209/33 
s 1
f 149/219/2 167/237/1 173/243/2 150/220/2 
s 2
f 173/243/6 175/245/6 152/222/6 150/220/6 
f 148/218/32 156/226/32 165/235/34 149/219/34 
f 91/134/39 176/247/39 155/225/31 154/224/31 
s 1
f 154/224/2 148/218/2 151/221/2 163/233/2 
s 2
f 151/221/6 153/223/6 164/234/6 163/233/6 
# 133 polygons

