# 3ds Max Wavefront OBJ Exporter v0.97b - (c)2007 guruware
# File Created: 05.09.2018 20:42:34

mtllib 5x6_double_wood_door_arch_top_trim.mtl

#
# object 5x6_double_wood_door_arch_top_trim
#

v  2.9993 101.0411 0.1001
v  2.9993 101.0411 6.3752
v  2.9993 87.7499 6.3752
v  2.9993 87.7499 0.1001
v  2.9993 174.8265 61.9811
v  2.9993 186.4525 61.9811
v  2.9993 186.4525 69.9248
v  2.9993 172.7045 69.9248
v  2.9993 101.0411 69.9248
v  2.9993 172.7045 76.1999
v  2.9993 101.0411 76.1999
v  2.9993 87.7499 76.1999
v  2.9993 17.2480 76.1999
v  2.9993 17.2476 69.9248
v  2.9993 87.7499 69.9248
v  2.9993 17.2476 6.3752
v  2.9993 17.2476 0.1001
v  2.9993 179.9044 0.1001
v  2.9993 179.9044 6.3752
v  2.9993 3.5197 6.3752
v  2.9993 3.5197 69.9248
v  2.9993 186.4525 76.1999
v  2.9993 3.5197 0.1001
v  0.0000 3.5197 0.1001
v  0.0000 3.5197 6.3752
v  0.0000 3.5197 69.9248
v  2.9993 3.5197 76.1999
v  0.0000 3.5197 76.1999
v  0.0000 17.2480 76.1999
v  0.0000 87.7499 76.1999
v  0.0000 101.0411 76.1999
v  0.0000 172.7045 76.1999
v  0.0000 186.4525 76.1999
v  0.0000 186.4525 69.9248
v  0.0000 186.4525 61.9811
v  0.0000 186.4525 6.3752
v  2.9993 186.4525 6.3752
v  2.9993 186.4525 0.1001
v  0.0000 186.4525 0.1001
v  0.0000 179.9044 0.1001
v  0.0000 101.0411 0.1001
v  0.0000 87.7499 0.1001
v  0.0000 17.2476 0.1001
v  0.0000 17.2476 69.9248
v  0.0000 17.2476 6.3752
v  0.0000 87.7499 6.3752
v  2.9993 179.4524 22.2626
v  0.0000 179.4524 22.2626
v  0.0000 179.9044 6.3752
v  0.0000 172.7045 69.9248
v  0.0000 101.0411 69.9248
v  0.0000 101.0411 6.3752
v  0.0000 87.7499 69.9248
v  2.9993 101.0411 -76.2325
v  2.9993 101.0411 -69.9574
v  2.9993 87.7499 -69.9574
v  2.9993 87.7499 -76.2325
v  2.9993 179.9044 -6.4077
v  2.9993 179.4524 -22.2951
v  2.9993 186.4525 -22.2951
v  2.9993 186.4525 -6.4077
v  2.9993 101.0411 -6.4077
v  2.9993 179.9045 -0.1326
v  2.9993 101.0411 -0.1326
v  2.9993 87.7499 -0.1326
v  2.9993 17.2476 -0.1326
v  2.9993 17.2476 -6.4077
v  2.9993 87.7499 -6.4077
v  2.9993 17.2476 -69.9574
v  2.9993 17.2476 -76.2325
v  2.9993 172.7045 -76.2325
v  2.9993 172.7045 -69.9574
v  2.9993 3.5197 -69.9574
v  2.9993 3.5197 -6.4077
v  2.9993 186.4525 -0.1326
v  2.9993 3.5197 -76.2325
v  0.0000 3.5197 -76.2325
v  0.0000 3.5197 -69.9574
v  0.0000 3.5197 -6.4077
v  2.9993 3.5197 -0.1326
v  0.0000 3.5197 -0.1326
v  0.0000 17.2476 -0.1326
v  0.0000 87.7499 -0.1326
v  0.0000 101.0411 -0.1326
v  0.0000 179.9045 -0.1326
v  0.0000 186.4525 -0.1326
v  0.0000 186.4525 -6.4077
v  0.0000 186.4525 -22.2951
v  0.0000 186.4525 -69.9574
v  2.9993 186.4525 -69.9574
v  2.9993 186.4525 -76.2325
v  0.0000 186.4525 -76.2325
v  0.0000 172.7045 -76.2325
v  0.0000 101.0411 -76.2325
v  0.0000 87.7499 -76.2325
v  0.0000 17.2476 -76.2325
v  0.0000 17.2476 -6.4077
v  0.0000 17.2476 -69.9574
v  0.0000 87.7499 -69.9574
v  2.9993 174.8265 -62.0136
v  0.0000 174.8265 -62.0136
v  0.0000 172.7045 -69.9574
v  0.0000 179.9044 -6.4077
v  0.0000 101.0411 -6.4077
v  0.0000 101.0411 -69.9574
v  0.0000 87.7499 -6.4077
v  2.9993 179.0602 30.2138
v  2.9993 186.4525 30.2063
v  2.9993 186.4525 38.1500
v  2.9993 178.4481 38.1500
v  0.0000 186.4525 30.2063
v  0.0000 186.4525 38.1500
v  2.9993 177.5881 46.1167
v  0.0000 177.5881 46.1167
v  0.0000 178.4481 38.1500
v  2.9993 178.4481 -38.1825
v  2.9993 177.5881 -46.1492
v  2.9993 186.4525 -46.1262
v  2.9993 186.4525 -38.1825
v  0.0000 186.4525 -46.1262
v  0.0000 186.4525 -38.1825
v  2.9993 179.0602 -30.2463
v  0.0000 179.0602 -30.2463
v  0.0000 178.4481 -38.1825
v  2.9993 186.4525 46.0937
v  2.9993 186.4525 54.0374
v  2.9993 176.3701 54.0374
v  0.0000 186.4525 46.0937
v  0.0000 186.4525 54.0374
v  0.0000 179.0602 30.2138
v  2.9993 186.4525 -30.2388
v  0.0000 186.4525 -30.2388
v  0.0000 177.5881 -46.1492
v  0.0000 176.3701 -54.0699
v  2.9993 176.3701 -54.0699
v  2.9993 186.4525 22.2626
v  0.0000 186.4525 22.2626
v  0.0000 174.8265 61.9811
v  0.0000 176.3701 54.0374
v  2.9993 186.4525 -62.0137
v  2.9993 186.4525 -54.0700
v  0.0000 186.4525 -62.0137
v  0.0000 186.4525 -54.0700
v  0.0000 179.4524 -22.2951
# 144 vertices

vn 1.0000 0.0000 -0.0000
vn 0.0000 -1.0000 -0.0000
vn 0.0000 0.0000 1.0000
vn 0.0000 1.0000 -0.0000
vn 0.0000 0.0000 -1.0000
vn 0.0000 0.7070 -0.7072
vn 0.0000 0.7070 0.7072
vn 0.0000 -0.7072 0.7071
vn 0.0000 -0.9996 -0.0284
vn 0.0000 -0.9992 -0.0389
vn 0.0000 -0.7071 -0.7071
vn 0.0000 0.7071 -0.7072
vn 0.0000 -0.9662 0.2579
vn 0.0000 -0.9745 0.2246
vn 0.0000 -0.7072 -0.7070
vn 0.0000 -0.9916 -0.1297
vn 0.0000 -0.9958 -0.0919
vn 0.0000 -0.9980 0.0631
vn 0.0000 -0.9958 0.0919
vn 0.0000 -0.9980 -0.0631
vn 0.0000 -0.9916 0.1297
vn 0.0000 -0.9852 0.1712
vn 0.0000 -0.9745 -0.2246
vn 0.0000 -0.9852 -0.1712
vn 0.0000 -0.9996 0.0284
vn 0.0000 -0.9992 0.0389
vn 0.0000 -0.9662 -0.2579
# 27 vertex normals

vt -2.2678 0.5367 0.0000
vt -2.4619 0.5367 0.0000
vt -2.4618 0.1257 0.0000
vt -2.2678 0.1257 0.0000
vt 1.0763 2.6273 0.0000
vt 1.4364 2.6264 0.0000
vt 1.4369 2.8723 0.0000
vt 1.0120 2.8740 0.0000
vt -0.2909 0.7915 0.0000
vt -0.2909 3.0081 0.0000
vt -0.4850 3.0081 0.0000
vt -0.4850 0.7915 0.0000
vt -0.4850 0.3804 0.0000
vt -0.4850 -1.8002 0.0000
vt -0.2909 -1.8002 0.0000
vt -0.2909 0.3804 0.0000
vt -2.4618 -2.0550 0.0000
vt -2.2678 -2.0550 0.0000
vt -2.2678 2.9760 0.0000
vt -2.4619 2.9760 0.0000
vt 3.0565 -1.4891 0.0000
vt 3.0565 0.4765 0.0000
vt 2.6454 0.4765 0.0000
vt 2.6454 -1.4891 0.0000
vt 2.2359 2.8666 0.0000
vt 1.8113 2.8666 0.0000
vt 1.8113 0.9011 0.0000
vt 2.2359 0.9011 0.0000
vt 1.4372 3.0667 0.0000
vt 1.0121 3.0673 0.0000
vt 2.2359 3.0607 0.0000
vt 1.8113 3.0607 0.0000
vt 2.3286 3.0607 0.0000
vt 2.3286 2.8666 0.0000
vt 2.3286 0.9011 0.0000
vt 2.2359 0.7070 0.0000
vt 2.3286 0.7070 0.0000
vt 2.2359 0.6142 0.0000
vt 1.8112 0.7070 0.0000
vt 1.8112 0.6142 0.0000
vt -0.5778 -1.8002 0.0000
vt -0.5778 0.3804 0.0000
vt -0.5778 0.7915 0.0000
vt -0.5778 3.0081 0.0000
vt 1.0120 3.1598 0.0000
vt 1.4373 3.1598 0.0000
vt 1.5297 3.0665 0.0000
vt 1.5296 2.8723 0.0000
vt 1.5293 2.6263 0.0000
vt 1.5301 0.9044 0.0000
vt 1.4374 0.9044 0.0000
vt 1.4375 0.7102 0.0000
vt 1.5302 0.7103 0.0000
vt 1.4375 0.6174 0.0000
vt 1.2350 0.7101 0.0000
vt 1.2350 0.6174 0.0000
vt -2.1750 2.9760 0.0000
vt -2.1750 0.5367 0.0000
vt -2.1750 0.1257 0.0000
vt -2.1750 -2.0550 0.0000
vt 1.8113 3.1535 0.0000
vt 2.2359 3.1535 0.0000
vt 1.7185 0.9011 0.0000
vt 1.7185 2.8666 0.0000
vt -2.5546 -2.0550 0.0000
vt -2.5546 0.1256 0.0000
vt 1.2350 0.9040 0.0000
vt 1.2206 1.3954 0.0000
vt 1.1279 1.3915 0.0000
vt 1.1424 0.9009 0.0000
vt -0.1982 3.0081 0.0000
vt -0.1982 0.7915 0.0000
vt -2.5546 0.5367 0.0000
vt -2.5546 2.9760 0.0000
vt 3.1493 0.4765 0.0000
vt 3.1493 -1.4891 0.0000
vt -0.1982 0.3804 0.0000
vt -0.1982 -1.8002 0.0000
vt 2.5527 -1.4891 0.0000
vt 2.5527 0.4765 0.0000
vt 0.6737 0.7786 0.0000
vt 0.4796 0.7786 0.0000
vt 0.4796 0.3675 0.0000
vt 0.6737 0.3675 0.0000
vt 1.2525 -1.7419 0.0000
vt 1.2669 -1.2505 0.0000
vt 1.0504 -1.2500 0.0000
vt 1.0501 -1.7415 0.0000
vt 0.1912 0.7532 0.0000
vt 0.1912 3.1924 0.0000
vt -0.0029 3.1924 0.0000
vt -0.0029 0.7532 0.0000
vt -0.0029 0.3421 0.0000
vt -0.0029 -1.8386 0.0000
vt 0.1912 -1.8386 0.0000
vt 0.1912 0.3421 0.0000
vt 0.4796 -1.8131 0.0000
vt 0.6737 -1.8131 0.0000
vt 0.6737 2.9951 0.0000
vt 0.4796 2.9951 0.0000
vt 3.0528 0.5792 0.0000
vt 3.0528 2.5448 0.0000
vt 2.6417 2.5448 0.0000
vt 2.6417 0.5792 0.0000
vt 1.8268 -1.7630 0.0000
vt 2.2514 -1.7630 0.0000
vt 2.2514 0.2026 0.0000
vt 1.8268 0.2026 0.0000
vt 1.0500 -1.9357 0.0000
vt 1.2524 -1.9358 0.0000
vt 1.8268 -1.9571 0.0000
vt 2.2514 -1.9571 0.0000
vt 1.7340 -1.9571 0.0000
vt 1.7340 -1.7630 0.0000
vt 1.7340 0.2026 0.0000
vt 1.8268 0.3967 0.0000
vt 1.7340 0.3967 0.0000
vt 1.8268 0.4894 0.0000
vt 2.2514 0.3967 0.0000
vt 2.2514 0.4894 0.0000
vt -0.0957 -1.8386 0.0000
vt -0.0957 0.3421 0.0000
vt -0.0957 0.7532 0.0000
vt -0.0957 3.1924 0.0000
vt 1.2525 -2.0285 0.0000
vt 1.0499 -2.0285 0.0000
vt 0.9573 -1.9356 0.0000
vt 0.9574 -1.7415 0.0000
vt 0.9576 -1.2499 0.0000
vt 0.9579 0.2264 0.0000
vt 1.0506 0.2265 0.0000
vt 1.0503 0.4208 0.0000
vt 0.9578 0.4206 0.0000
vt 1.0502 0.5139 0.0000
vt 1.4754 0.4214 0.0000
vt 1.4755 0.5139 0.0000
vt 0.7664 2.9951 0.0000
vt 0.7664 0.7786 0.0000
vt 0.7664 0.3675 0.0000
vt 0.7664 -1.8131 0.0000
vt 2.2514 -2.0499 0.0000
vt 1.8268 -2.0499 0.0000
vt 2.3442 0.2026 0.0000
vt 2.3442 -1.7630 0.0000
vt 0.3868 -1.8131 0.0000
vt 0.3868 0.3675 0.0000
vt 1.4755 0.2280 0.0000
vt 1.4112 -0.0186 0.0000
vt 1.5020 -0.0389 0.0000
vt 1.5649 0.2057 0.0000
vt 0.2840 3.1924 0.0000
vt 0.2840 0.7532 0.0000
vt 0.3868 0.7786 0.0000
vt 0.3868 2.9951 0.0000
vt 2.5490 0.5792 0.0000
vt 2.5490 2.5448 0.0000
vt 0.2840 0.3421 0.0000
vt 0.2840 -1.8386 0.0000
vt 3.1456 2.5448 0.0000
vt 3.1456 0.5792 0.0000
vt 1.2082 1.6417 0.0000
vt 1.4369 1.6420 0.0000
vt 1.4366 1.8881 0.0000
vt 1.1891 1.8877 0.0000
vt 1.5296 1.6420 0.0000
vt 1.5294 1.8881 0.0000
vt 1.1621 2.1347 0.0000
vt 1.0702 2.1226 0.0000
vt 1.0968 1.8789 0.0000
vt 1.2984 -0.7582 0.0000
vt 1.3253 -0.5112 0.0000
vt 1.0511 -0.5117 0.0000
vt 1.0508 -0.7578 0.0000
vt 0.9582 -0.5117 0.0000
vt 0.9581 -0.7578 0.0000
vt 1.2793 -1.0042 0.0000
vt 1.3718 -1.0102 0.0000
vt 1.3907 -0.7670 0.0000
vt 1.4364 2.1342 0.0000
vt 1.4363 2.3804 0.0000
vt 1.1244 2.3806 0.0000
vt 1.5292 2.1342 0.0000
vt 1.5292 2.3803 0.0000
vt 1.1156 1.6357 0.0000
vt 1.0506 -1.0039 0.0000
vt 0.9578 -1.0039 0.0000
vt 1.4173 -0.5233 0.0000
vt 1.4544 -0.2813 0.0000
vt 1.3631 -0.2653 0.0000
vt 1.4371 1.3959 0.0000
vt 1.5299 1.3960 0.0000
vt 0.9854 2.6070 0.0000
vt 1.0331 2.3646 0.0000
vt 1.0511 -0.0195 0.0000
vt 1.0512 -0.2655 0.0000
vt 0.9582 -0.0195 0.0000
vt 0.9583 -0.2656 0.0000
vt 1.3450 -1.7450 0.0000
vt 1.3596 -1.2544 0.0000
vt 0.9226 2.8517 0.0000
# 200 texture coords

g 5x6_double_wood_door_arch_top_trim
usemtl Material__27
s 1
f 1/1/1 2/2/1 3/3/1 4/4/1 
f 5/5/1 6/6/1 7/7/1 8/8/1 
f 9/9/1 8/10/1 10/11/1 11/12/1 
f 12/13/1 13/14/1 14/15/1 15/16/1 
f 3/3/1 16/17/1 17/18/1 4/4/1 
f 1/1/1 18/19/1 19/20/1 2/2/1 
f 2/21/1 9/22/1 15/23/1 3/24/1 
f 20/25/1 16/26/1 14/27/1 21/28/1 
f 8/8/1 7/7/1 22/29/1 10/30/1 
f 16/26/1 20/25/1 23/31/1 17/32/1 
f 24/33/2 23/31/2 20/25/2 25/34/2 
f 25/34/2 20/25/2 21/28/2 26/35/2 
f 26/35/2 21/28/2 27/36/2 28/37/2 
f 28/38/3 27/36/3 13/39/3 29/40/3 
f 29/41/3 13/14/3 12/13/3 30/42/3 
f 30/42/3 12/13/3 11/12/3 31/43/3 
f 31/43/3 11/12/3 10/11/3 32/44/3 
f 32/45/3 10/30/3 22/29/3 33/46/3 
f 33/47/4 22/29/4 7/7/4 34/48/4 
f 7/7/4 6/6/4 35/49/4 34/48/4 
f 36/50/4 37/51/4 38/52/4 39/53/4 
f 39/54/5 38/52/5 18/55/5 40/56/5 
f 40/57/5 18/19/5 1/1/5 41/58/5 
f 41/58/5 1/1/5 4/4/5 42/59/5 
f 42/59/5 4/4/5 17/18/5 43/60/5 
f 43/61/5 17/32/5 23/31/5 24/62/5 
f 44/63/6 14/27/6 16/26/7 45/64/7 
f 45/65/7 16/17/7 3/3/8 46/66/8 
f 19/67/9 47/68/10 48/69/10 49/70/9 
f 50/71/5 8/10/5 9/9/5 51/72/5 
f 52/73/3 2/2/3 19/20/3 49/74/3 
f 51/75/4 9/22/4 2/21/4 52/76/4 
f 53/77/11 15/16/11 14/15/6 44/78/6 
f 46/79/8 3/24/8 15/23/11 53/80/11 
f 12/13/1 15/16/1 9/9/1 11/12/1 
f 38/52/1 37/51/1 19/67/1 18/55/1 
f 27/36/1 21/28/1 14/27/1 13/39/1 
f 54/81/1 55/82/1 56/83/1 57/84/1 
f 58/85/1 59/86/1 60/87/1 61/88/1 
f 62/89/1 58/90/1 63/91/1 64/92/1 
f 65/93/1 66/94/1 67/95/1 68/96/1 
f 56/83/1 69/97/1 70/98/1 57/84/1 
f 54/81/1 71/99/1 72/100/1 55/82/1 
f 68/101/1 56/102/1 55/103/1 62/104/1 
f 73/105/1 69/106/1 67/107/1 74/108/1 
f 58/85/1 61/88/1 75/109/1 63/110/1 
f 69/106/1 73/105/1 76/111/1 70/112/1 
f 77/113/2 76/111/2 73/105/2 78/114/2 
f 78/114/2 73/105/2 74/108/2 79/115/2 
f 79/115/2 74/108/2 80/116/2 81/117/2 
f 81/118/3 80/116/3 66/119/3 82/120/3 
f 82/121/3 66/94/3 65/93/3 83/122/3 
f 83/122/3 65/93/3 64/92/3 84/123/3 
f 84/123/3 64/92/3 63/91/3 85/124/3 
f 85/125/3 63/110/3 75/109/3 86/126/3 
f 86/127/4 75/109/4 61/88/4 87/128/4 
f 61/88/4 60/87/4 88/129/4 87/128/4 
f 89/130/4 90/131/4 91/132/4 92/133/4 
f 92/134/5 91/132/5 71/135/5 93/136/5 
f 93/137/5 71/99/5 54/81/5 94/138/5 
f 94/138/5 54/81/5 57/84/5 95/139/5 
f 95/139/5 57/84/5 70/98/5 96/140/5 
f 96/141/5 70/112/5 76/111/5 77/142/5 
f 97/143/12 67/107/12 69/106/7 98/144/7 
f 98/145/7 69/97/7 56/83/8 99/146/8 
f 72/147/13 100/148/14 101/149/14 102/150/13 
f 103/151/5 58/90/5 62/89/5 104/152/5 
f 105/153/3 55/82/3 72/100/3 102/154/3 
f 104/155/4 62/104/4 55/103/4 105/156/4 
f 106/157/15 68/96/15 67/95/12 97/158/12 
f 99/159/8 56/102/8 68/101/15 106/160/15 
f 65/93/1 68/96/1 62/89/1 64/92/1 
f 91/132/1 90/131/1 72/147/1 71/135/1 
f 80/116/1 74/108/1 67/107/1 66/119/1 
f 107/161/1 108/162/1 109/163/1 110/164/1 
f 108/162/4 111/165/4 112/166/4 109/163/4 
f 113/167/16 114/168/16 115/169/17 110/164/17 
f 116/170/1 117/171/1 118/172/1 119/173/1 
f 118/172/4 120/174/4 121/175/4 119/173/4 
f 122/176/18 123/177/18 124/178/19 116/170/19 
f 113/167/1 125/179/1 126/180/1 127/181/1 
f 125/179/4 128/182/4 129/183/4 126/180/4 
f 107/161/20 130/184/20 48/69/10 47/68/10 
f 59/86/1 122/176/1 131/185/1 60/87/1 
f 131/185/4 132/186/4 88/129/4 60/87/4 
f 117/171/21 133/187/21 134/188/22 135/189/22 
f 19/67/1 37/51/1 136/190/1 47/68/1 
f 37/51/4 36/50/4 137/191/4 136/190/4 
f 5/5/23 138/192/23 139/193/24 127/181/24 
f 135/189/1 100/148/1 140/194/1 141/195/1 
f 140/194/4 142/196/4 143/197/4 141/195/4 
f 58/85/25 103/198/25 144/199/26 59/86/26 
f 127/181/1 126/180/1 6/6/1 5/5/1 
f 126/180/4 129/183/4 35/49/4 6/6/4 
f 135/189/22 134/188/22 101/149/14 100/148/14 
f 8/8/27 50/200/27 138/192/23 5/5/23 
f 100/148/1 72/147/1 90/131/1 140/194/1 
f 90/131/4 89/130/4 142/196/4 140/194/4 
f 127/181/24 139/193/24 114/168/16 113/167/16 
f 110/164/1 109/163/1 125/179/1 113/167/1 
f 109/163/4 112/166/4 128/182/4 125/179/4 
f 47/68/1 136/190/1 108/162/1 107/161/1 
f 136/190/4 137/191/4 111/165/4 108/162/4 
f 110/164/17 115/169/17 130/184/20 107/161/20 
f 117/171/1 135/189/1 141/195/1 118/172/1 
f 141/195/4 143/197/4 120/174/4 118/172/4 
f 116/170/19 124/178/19 133/187/21 117/171/21 
f 59/86/26 144/199/26 123/177/18 122/176/18 
f 122/176/1 116/170/1 119/173/1 131/185/1 
f 119/173/4 121/175/4 132/186/4 131/185/4 
# 110 polygons

