# 3ds Max Wavefront OBJ Exporter v0.97b - (c)2007 guruware
# File Created: 12.03.2019 23:25:12

mtllib 5x6_double_wood_door_arch_top_trim_frame.mtl

#
# object 5x6_double_wood_door_arch_top_trim_frame
#

v  3.0000 193.1369 76.4910
v  3.0000 193.1369 83.1324
v  3.0000 186.7212 83.1329
v  3.0000 186.7212 76.4910
v  3.0000 186.7212 -76.4910
v  3.0000 193.1369 -76.4910
v  3.0000 0.0004 -76.4910
v  3.0000 0.0004 -83.1325
v  3.0000 186.7212 -83.1325
v  3.0000 0.0004 83.1329
v  3.0000 0.0004 76.4910
v  3.0000 193.1369 -83.1320
v  0.0000 186.7212 83.1329
v  0.0000 0.0004 83.1329
v  3.0000 193.1370 84.6324
v  0.0000 193.1370 84.6324
v  0.0000 186.7213 84.6329
v  3.0000 186.7213 84.6329
v  0.0000 193.1369 76.4910
v  0.0000 193.1369 83.1324
v  0.0000 193.1369 -76.4910
v  0.0000 193.1369 -83.1320
v  3.0000 186.7213 -84.6325
v  0.0000 186.7213 -84.6325
v  0.0000 193.1370 -84.6320
v  3.0000 193.1370 -84.6320
v  0.0000 0.0004 -83.1325
v  0.0000 186.7212 -83.1325
v  0.0000 0.0004 -76.4910
v  0.0000 186.7212 -76.4910
v  0.0000 186.7212 76.4910
v  0.0000 0.0004 76.4910
# 32 vertices

vn 1.0000 0.0000 -0.0000
vn 0.0000 0.0000 1.0000
vn 0.0000 0.0001 1.0000
vn 0.0000 1.0000 -0.0000
vn 0.0000 1.0000 0.0000
vn 0.0000 0.0001 -1.0000
vn 0.0000 0.0000 -1.0000
vn 0.0000 -1.0000 -0.0000
vn 0.0000 1.0000 -0.0001
vn 0.0000 -1.0000 0.0001
vn 0.0000 -1.0000 -0.0001
vn 0.0000 1.0000 0.0001
# 12 vertex normals

vt -0.9844 -1.7936 0.0000
vt -0.9844 -1.9991 0.0000
vt -0.7859 -1.9991 0.0000
vt -0.7859 -1.7936 0.0000
vt -0.7859 2.9380 0.0000
vt -0.9844 2.9381 0.0000
vt -1.4776 3.4404 0.0000
vt -1.4776 -2.3348 0.0000
vt -1.2722 -2.3348 0.0000
vt -1.2722 3.4404 0.0000
vt -1.7786 3.4533 0.0000
vt -1.9841 3.4533 0.0000
vt -1.9841 -2.3219 0.0000
vt -1.7786 -2.3219 0.0000
vt -0.7859 3.1435 0.0000
vt -0.9844 3.1435 0.0000
vt -2.0769 3.4533 0.0000
vt -2.0768 -2.3219 0.0000
vt -0.9844 -2.0455 0.0000
vt -0.9844 -2.1383 0.0000
vt -0.7859 -2.1383 0.0000
vt -0.7859 -2.0455 0.0000
vt -1.0772 -1.7936 0.0000
vt -1.0772 -1.9991 0.0000
vt -1.0772 2.9381 0.0000
vt -1.0772 3.1435 0.0000
vt -0.7859 3.1899 0.0000
vt -0.7859 3.2827 0.0000
vt -0.9844 3.2827 0.0000
vt -0.9844 3.1899 0.0000
vt -1.1794 -2.3348 0.0000
vt -1.1794 3.4404 0.0000
vt -1.4776 -2.4276 0.0000
vt -1.2722 -2.4276 0.0000
vt -1.5704 3.4404 0.0000
vt -1.5704 -2.3348 0.0000
vt -0.6931 -1.7936 0.0000
vt -0.6931 2.9380 0.0000
vt -1.6858 -2.3219 0.0000
vt -1.6858 3.4533 0.0000
vt -1.9841 -2.4147 0.0000
vt -1.7786 -2.4147 0.0000
vt -1.0772 -2.0455 0.0000
vt -0.6932 -2.0455 0.0000
vt -0.6932 -1.9991 0.0000
vt -0.6931 3.1899 0.0000
vt -0.6931 3.1435 0.0000
vt -1.0772 3.1899 0.0000
# 48 texture coords

g 5x6_double_wood_door_arch_top_trim_frame
usemtl Material__27
s 1
f 1/1/1 2/2/1 3/3/1 4/4/1 
f 5/5/1 6/6/1 1/1/1 4/4/1 
f 5/7/1 7/8/1 8/9/1 9/10/1 
f 4/11/1 3/12/1 10/13/1 11/14/1 
f 9/15/1 12/16/1 6/6/1 5/5/1 
s 2
f 3/12/2 13/17/2 14/18/2 10/13/2 
f 15/19/3 16/20/3 17/21/3 18/22/3 
s 4
f 1/1/4 19/23/4 20/24/4 2/2/4 
f 6/6/4 21/25/4 19/23/4 1/1/4 
f 12/16/5 22/26/5 21/25/4 6/6/4 
s 2
f 23/27/6 24/28/6 25/29/6 26/30/6 
f 8/9/7 27/31/7 28/32/7 9/10/7 
s 4
f 7/8/8 29/33/8 27/34/8 8/9/8 
s 2
f 5/7/2 30/35/2 29/36/2 7/8/2 
s 4
f 4/4/8 31/37/8 30/38/8 5/5/8 
s 2
f 11/14/7 32/39/7 31/40/7 4/11/7 
s 4
f 10/13/8 14/41/8 32/42/8 11/14/8 
s 1
f 15/19/1 18/22/1 3/3/1 2/2/1 
s 4
f 16/43/9 15/19/9 2/2/4 20/24/4 
f 18/22/10 17/44/10 13/45/10 3/3/10 
s 1
f 23/27/1 26/30/1 12/16/1 9/15/1 
s 4
f 24/46/11 23/27/11 9/15/11 28/47/11 
f 26/30/12 25/48/12 22/26/5 12/16/5 
# 23 polygons

