# 3ds Max Wavefront OBJ Exporter v0.97b - (c)2007 guruware
# File Created: 12.03.2019 23:02:33

mtllib 5x7_double_wood_door_frame.mtl

#
# object 5x7_double_wood_door_frame
#

v  3.0000 223.6169 76.4910
v  3.0000 223.6169 83.1324
v  3.0000 217.2012 83.1329
v  3.0000 217.2012 76.4910
v  3.0000 217.2012 -76.4910
v  3.0000 223.6169 -76.4910
v  3.0000 0.0004 -76.4910
v  3.0000 0.0004 -83.1325
v  3.0000 217.2012 -83.1325
v  3.0000 0.0004 83.1329
v  3.0000 0.0004 76.4910
v  3.0000 223.6169 -83.1320
v  0.0000 217.2012 83.1329
v  0.0000 0.0004 83.1329
v  3.0000 223.6170 84.6324
v  0.0000 223.6170 84.6324
v  0.0000 217.2013 84.6329
v  3.0000 217.2013 84.6329
v  0.0000 223.6169 76.4910
v  0.0000 223.6169 83.1324
v  0.0000 223.6169 -76.4910
v  0.0000 223.6169 -83.1320
v  3.0000 217.2013 -84.6325
v  0.0000 217.2013 -84.6325
v  0.0000 223.6170 -84.6320
v  3.0000 223.6170 -84.6320
v  0.0000 0.0004 -83.1325
v  0.0000 217.2012 -83.1325
v  0.0000 0.0004 -76.4910
v  0.0000 217.2012 -76.4910
v  0.0000 217.2012 76.4910
v  0.0000 0.0004 76.4910
# 32 vertices

vn 1.0000 0.0000 -0.0000
vn 0.0000 0.0000 1.0000
vn 0.0000 0.0001 1.0000
vn 0.0000 1.0000 -0.0000
vn 0.0000 1.0000 0.0000
vn 0.0000 0.0001 -1.0000
vn 0.0000 0.0000 -1.0000
vn 0.0000 -1.0000 -0.0000
vn 0.0000 1.0000 -0.0001
vn 0.0000 -1.0000 0.0001
vn 0.0000 -1.0000 -0.0001
vn 0.0000 1.0000 0.0001
# 12 vertex normals

vt -0.7720 -1.5265 0.0000
vt -0.7720 -1.7177 0.0000
vt -0.5873 -1.7177 0.0000
vt -0.5873 -1.5265 0.0000
vt -0.5873 2.8778 0.0000
vt -0.7720 2.8778 0.0000
vt -1.2636 4.1263 0.0000
vt -1.2636 -2.1269 0.0000
vt -1.0724 -2.1269 0.0000
vt -1.0724 4.1263 0.0000
vt -1.5659 4.1263 0.0000
vt -1.7571 4.1263 0.0000
vt -1.7571 -2.1270 0.0000
vt -1.5659 -2.1270 0.0000
vt -0.5873 3.0691 0.0000
vt -0.7720 3.0690 0.0000
vt -1.8435 4.1263 0.0000
vt -1.8435 -2.1270 0.0000
vt -0.7720 -1.7609 0.0000
vt -0.7720 -1.8473 0.0000
vt -0.5873 -1.8473 0.0000
vt -0.5873 -1.7609 0.0000
vt -0.8583 -1.5265 0.0000
vt -0.8583 -1.7177 0.0000
vt -0.8583 2.8778 0.0000
vt -0.8583 3.0690 0.0000
vt -0.5873 3.1122 0.0000
vt -0.5873 3.1986 0.0000
vt -0.7720 3.1986 0.0000
vt -0.7720 3.1122 0.0000
vt -0.9860 -2.1270 0.0000
vt -0.9860 4.1263 0.0000
vt -1.2636 -2.2133 0.0000
vt -1.0724 -2.2133 0.0000
vt -1.3500 4.1263 0.0000
vt -1.3500 -2.1270 0.0000
vt -0.5009 -1.5265 0.0000
vt -0.5009 2.8778 0.0000
vt -1.4795 -2.1270 0.0000
vt -1.4795 4.1263 0.0000
vt -1.7571 -2.2133 0.0000
vt -1.5659 -2.2133 0.0000
vt -0.8583 -1.7609 0.0000
vt -0.5009 -1.7609 0.0000
vt -0.5009 -1.7178 0.0000
vt -0.5009 3.1122 0.0000
vt -0.5009 3.0691 0.0000
vt -0.8583 3.1122 0.0000
# 48 texture coords

g 5x7_double_wood_door_frame
usemtl Material__27
s 1
f 1/1/1 2/2/1 3/3/1 4/4/1 
f 5/5/1 6/6/1 1/1/1 4/4/1 
f 5/7/1 7/8/1 8/9/1 9/10/1 
f 4/11/1 3/12/1 10/13/1 11/14/1 
f 9/15/1 12/16/1 6/6/1 5/5/1 
s 2
f 3/12/2 13/17/2 14/18/2 10/13/2 
f 15/19/3 16/20/3 17/21/3 18/22/3 
s 4
f 1/1/4 19/23/4 20/24/4 2/2/4 
f 6/6/4 21/25/4 19/23/4 1/1/4 
f 12/16/5 22/26/5 21/25/4 6/6/4 
s 2
f 23/27/6 24/28/6 25/29/6 26/30/6 
f 8/9/7 27/31/7 28/32/7 9/10/7 
s 4
f 7/8/8 29/33/8 27/34/8 8/9/8 
s 2
f 5/7/2 30/35/2 29/36/2 7/8/2 
s 4
f 4/4/8 31/37/8 30/38/8 5/5/8 
s 2
f 11/14/7 32/39/7 31/40/7 4/11/7 
s 4
f 10/13/8 14/41/8 32/42/8 11/14/8 
s 1
f 15/19/1 18/22/1 3/3/1 2/2/1 
s 4
f 16/43/9 15/19/9 2/2/4 20/24/4 
f 18/22/10 17/44/10 13/45/10 3/3/10 
s 1
f 23/27/1 26/30/1 12/16/1 9/15/1 
s 4
f 24/46/11 23/27/11 9/15/11 28/47/11 
f 26/30/12 25/48/12 22/26/5 12/16/5 
# 23 polygons

