# 3ds Max Wavefront OBJ Exporter v0.97b - (c)2007 guruware
# File Created: 25.04.2018 18:13:25

mtllib 5x7 Double wood door (Arch Top Trim).mtl

#
# object 4__Shed_Door
#

v  3.0000 217.2012 83.1329
v  3.0000 217.2012 76.4910
v  3.0000 223.6169 76.4910
v  3.0000 223.6169 83.1324
v  3.0000 217.2012 -76.4910
v  3.0000 223.6169 -76.4910
v  3.0000 0.0004 -83.1325
v  3.0000 217.2012 -83.1325
v  3.0000 0.0004 -76.4910
v  2.9993 116.2811 0.1001
v  2.9993 116.2811 6.3752
v  2.9993 102.9899 6.3752
v  2.9993 102.9899 0.1001
v  2.9993 205.3065 61.9811
v  2.9993 216.9325 61.9811
v  2.9993 216.9325 69.9248
v  2.9993 203.1844 69.9248
v  2.9993 116.2811 69.9248
v  2.9993 203.1845 76.1999
v  2.9993 116.2811 76.1999
v  2.9993 102.9899 76.1999
v  2.9993 17.2480 76.1999
v  2.9993 17.2476 69.9248
v  2.9993 102.9899 69.9248
v  2.9993 17.2476 6.3752
v  2.9993 17.2476 0.1001
v  2.9993 210.3844 0.1001
v  2.9993 210.3844 6.3752
v  2.9993 3.5197 6.3752
v  2.9993 3.5197 69.9248
v  3.0000 0.0004 83.1329
v  3.0000 0.0004 76.4910
v  3.0000 223.6169 -83.1320
v  2.9993 216.9325 76.1999
v  2.9993 3.5197 0.1001
v  -0.0000 0.0004 83.1329
v  -0.0000 217.2012 83.1329
v  -0.0000 217.2013 84.6329
v  3.0000 217.2013 84.6329
v  3.0000 223.6170 84.6324
v  -0.0000 223.6170 84.6324
v  -0.0000 223.6169 83.1324
v  -0.0000 223.6169 76.4910
v  0.0000 223.6169 -76.4910
v  0.0000 223.6169 -83.1320
v  0.0000 223.6170 -84.6320
v  3.0000 223.6170 -84.6320
v  3.0000 217.2013 -84.6325
v  0.0000 217.2013 -84.6325
v  0.0000 217.2012 -83.1325
v  0.0000 0.0004 -83.1325
v  0.0000 0.0004 -76.4910
v  0.0000 217.2012 -76.4910
v  -0.0000 217.2012 76.4910
v  -0.0000 0.0004 76.4910
v  0.0000 3.5197 0.1001
v  0.0000 3.5197 6.3752
v  -0.0000 3.5197 69.9248
v  2.9993 3.5197 76.1999
v  -0.0000 3.5197 76.1999
v  -0.0000 17.2480 76.1999
v  -0.0000 102.9899 76.1999
v  -0.0000 116.2811 76.1999
v  -0.0000 203.1845 76.1999
v  -0.0000 216.9325 76.1999
v  -0.0000 216.9325 69.9248
v  -0.0000 216.9325 61.9811
v  0.0000 216.9325 6.3752
v  2.9993 216.9325 6.3752
v  2.9993 216.9325 0.1001
v  0.0000 216.9325 0.1001
v  0.0000 210.3844 0.1001
v  0.0000 116.2811 0.1001
v  0.0000 102.9899 0.1001
v  0.0000 17.2476 0.1001
v  -0.0000 17.2476 69.9248
v  0.0000 17.2476 6.3752
v  0.0000 102.9899 6.3752
v  2.9993 209.9324 22.2626
v  0.0000 209.9324 22.2626
v  0.0000 210.3844 6.3752
v  -0.0000 203.1844 69.9248
v  -0.0000 116.2811 69.9248
v  0.0000 116.2811 6.3752
v  -0.0000 102.9899 69.9248
v  2.9993 116.2811 -76.2325
v  2.9993 116.2811 -69.9574
v  2.9993 102.9899 -69.9574
v  2.9993 102.9899 -76.2325
v  2.9993 210.3844 -6.4077
v  2.9993 209.9324 -22.2951
v  2.9993 216.9325 -22.2951
v  2.9993 216.9325 -6.4077
v  2.9993 116.2811 -6.4077
v  2.9993 210.3845 -0.1326
v  2.9993 116.2811 -0.1326
v  2.9993 102.9899 -0.1326
v  2.9993 17.2476 -0.1326
v  2.9993 17.2476 -6.4077
v  2.9993 102.9899 -6.4077
v  2.9993 17.2476 -69.9574
v  2.9993 17.2476 -76.2325
v  2.9993 203.1844 -76.2325
v  2.9993 203.1844 -69.9574
v  2.9993 3.5197 -69.9574
v  2.9993 3.5197 -6.4077
v  2.9993 216.9325 -0.1326
v  2.9993 3.5197 -76.2325
v  0.0000 3.5197 -76.2325
v  0.0000 3.5197 -69.9574
v  -0.0000 3.5197 -6.4077
v  2.9993 3.5197 -0.1326
v  -0.0000 3.5197 -0.1326
v  -0.0000 17.2476 -0.1326
v  -0.0000 102.9899 -0.1326
v  -0.0000 116.2811 -0.1326
v  -0.0000 210.3845 -0.1326
v  -0.0000 216.9325 -0.1326
v  -0.0000 216.9325 -6.4077
v  -0.0000 216.9325 -22.2951
v  0.0000 216.9325 -69.9574
v  2.9993 216.9325 -69.9574
v  2.9993 216.9325 -76.2325
v  0.0000 216.9325 -76.2325
v  0.0000 203.1844 -76.2325
v  0.0000 116.2811 -76.2325
v  0.0000 102.9899 -76.2325
v  0.0000 17.2476 -76.2325
v  -0.0000 17.2476 -6.4077
v  0.0000 17.2476 -69.9574
v  0.0000 102.9899 -69.9574
v  2.9993 205.3065 -62.0136
v  0.0000 205.3065 -62.0136
v  0.0000 203.1844 -69.9574
v  -0.0000 210.3844 -6.4077
v  -0.0000 116.2811 -6.4077
v  0.0000 116.2811 -69.9574
v  -0.0000 102.9899 -6.4077
v  2.9993 209.5401 30.2138
v  2.9993 216.9325 30.2063
v  2.9993 216.9325 38.1500
v  2.9993 208.9281 38.1500
v  0.0000 216.9325 30.2063
v  0.0000 216.9325 38.1500
v  2.9993 208.0681 46.1167
v  -0.0000 208.0681 46.1167
v  0.0000 208.9281 38.1500
v  2.9993 208.9281 -38.1825
v  2.9993 208.0681 -46.1492
v  2.9993 216.9325 -46.1262
v  2.9993 216.9325 -38.1825
v  0.0000 216.9325 -46.1262
v  0.0000 216.9325 -38.1825
v  2.9993 209.5401 -30.2463
v  -0.0000 209.5401 -30.2463
v  0.0000 208.9281 -38.1825
v  2.9993 216.9325 46.0937
v  2.9993 216.9325 54.0374
v  2.9993 206.8501 54.0374
v  -0.0000 216.9325 46.0937
v  -0.0000 216.9325 54.0374
v  0.0000 209.5401 30.2138
v  2.9993 216.9325 -30.2388
v  0.0000 216.9325 -30.2388
v  0.0000 208.0681 -46.1492
v  0.0000 206.8501 -54.0699
v  2.9993 206.8501 -54.0699
v  2.9993 216.9325 22.2626
v  0.0000 216.9325 22.2626
v  -0.0000 205.3065 61.9811
v  -0.0000 206.8501 54.0374
v  2.9993 216.9325 -62.0137
v  2.9993 216.9325 -54.0700
v  0.0000 216.9325 -62.0137
v  0.0000 216.9325 -54.0700
v  -0.0000 209.9324 -22.2951
# 176 vertices

vn 1.0000 0.0000 0.0000
vn 1.0000 -0.0000 0.0000
vn 1.0000 0.0000 -0.0000
vn -0.0000 0.0000 1.0000
vn -0.0000 0.0001 1.0000
vn 0.0000 1.0000 -0.0000
vn -0.0000 1.0000 0.0000
vn 0.0000 0.0001 -1.0000
vn 0.0000 0.0000 -1.0000
vn 0.0000 -1.0000 -0.0000
vn -0.0000 -0.0000 1.0000
vn 0.0000 0.7071 -0.7071
vn -0.0000 0.7071 0.7071
vn -0.0000 -0.7071 0.7071
vn 0.0000 -0.9996 -0.0284
vn 0.0000 -0.9992 -0.0389
vn 0.0000 -0.7071 -0.7071
vn 0.0000 1.0000 -0.0001
vn -0.0000 -1.0000 0.0001
vn 0.0000 -1.0000 -0.0001
vn -0.0000 1.0000 0.0001
vn 0.0000 -0.0000 -1.0000
vn -0.0000 0.7071 -0.7071
vn -0.0000 -0.9661 0.2581
vn -0.0000 -0.9745 0.2246
vn -0.0000 0.0000 -1.0000
vn -0.0000 1.0000 -0.0000
vn -0.0000 -0.7071 -0.7071
vn 0.0000 -0.9916 -0.1297
vn 0.0000 -0.9957 -0.0921
vn -0.0000 -0.9980 0.0631
vn -0.0000 -0.9957 0.0921
vn 0.0000 -0.9980 -0.0631
vn -0.0000 -0.9916 0.1297
vn -0.0000 -0.9852 0.1714
vn 0.0000 -0.9745 -0.2246
vn 0.0000 -0.9852 -0.1714
vn 0.0000 -0.9996 0.0284
vn -0.0000 -0.9992 0.0389
vn 0.0000 -0.9661 -0.2581
# 40 vertex normals

vt -1.1126 -2.1460 0.0000
vt -1.1126 -1.9157 0.0000
vt -1.3350 -1.9157 0.0000
vt -1.3350 -2.1460 0.0000
vt -1.1126 3.3869 0.0000
vt -1.3350 3.3869 0.0000
vt -3.0286 -2.7410 0.0000
vt -3.0286 4.7875 0.0000
vt -3.2588 4.7875 0.0000
vt -3.2588 -2.7410 0.0000
vt -2.4513 0.9971 0.0000
vt -2.6688 0.9971 0.0000
vt -2.6688 0.5364 0.0000
vt -2.4513 0.5364 0.0000
vt 1.2753 3.1476 0.0000
vt 1.6788 3.1466 0.0000
vt 1.6794 3.4222 0.0000
vt 1.2032 3.4240 0.0000
vt -0.4349 1.3113 0.0000
vt -0.4349 4.3235 0.0000
vt -0.6525 4.3235 0.0000
vt -0.6525 1.3113 0.0000
vt -0.6524 0.8506 0.0000
vt -0.6524 -2.1213 0.0000
vt -0.4349 -2.1213 0.0000
vt -0.4349 0.8506 0.0000
vt -2.6688 -2.4355 0.0000
vt -2.4513 -2.4355 0.0000
vt -2.4513 4.2589 0.0000
vt -2.6688 4.2589 0.0000
vt 3.4729 -1.6713 0.0000
vt 3.4729 0.5315 0.0000
vt 3.0122 0.5315 0.0000
vt 3.0122 -1.6713 0.0000
vt 2.5415 3.3624 0.0000
vt 2.0656 3.3624 0.0000
vt 2.0656 1.1597 0.0000
vt 2.5415 1.1597 0.0000
vt -2.1019 -2.6365 0.0000
vt -1.8717 -2.6365 0.0000
vt -1.8716 4.8920 0.0000
vt -2.1019 4.8920 0.0000
vt -1.1126 3.6171 0.0000
vt -1.3350 3.6171 0.0000
vt 1.6797 3.6400 0.0000
vt 1.2033 3.6407 0.0000
vt 2.5415 3.5799 0.0000
vt 2.0656 3.5799 0.0000
vt -2.2059 -2.6365 0.0000
vt -2.2059 4.8920 0.0000
vt -1.1126 -2.3019 0.0000
vt -1.1126 -2.1980 0.0000
vt -1.3350 -2.1980 0.0000
vt -1.3350 -2.3019 0.0000
vt -1.4389 -2.1460 0.0000
vt -1.4389 -1.9157 0.0000
vt -1.4389 3.3869 0.0000
vt -1.4389 3.6171 0.0000
vt -1.3350 3.7730 0.0000
vt -1.3350 3.6691 0.0000
vt -1.1126 3.6691 0.0000
vt -1.1126 3.7730 0.0000
vt -2.9246 4.7875 0.0000
vt -2.9246 -2.7410 0.0000
vt -3.0286 -2.8450 0.0000
vt -3.2588 -2.8450 0.0000
vt -3.3628 -2.7410 0.0000
vt -3.3628 4.7875 0.0000
vt -1.0086 3.3868 0.0000
vt -1.0086 -1.9157 0.0000
vt -1.7677 4.8920 0.0000
vt -1.7677 -2.6365 0.0000
vt -1.8716 -2.7405 0.0000
vt -2.1019 -2.7405 0.0000
vt 2.6454 3.5799 0.0000
vt 2.6454 3.3624 0.0000
vt 2.6454 1.1597 0.0000
vt 2.5415 0.9422 0.0000
vt 2.6454 0.9422 0.0000
vt 2.5415 0.8382 0.0000
vt 2.0656 0.9422 0.0000
vt 2.0656 0.8382 0.0000
vt -0.7564 -2.1213 0.0000
vt -0.7564 0.8506 0.0000
vt -0.7564 1.3113 0.0000
vt -0.7564 4.3235 0.0000
vt 1.2032 3.7443 0.0000
vt 1.6798 3.7443 0.0000
vt 1.7834 3.6398 0.0000
vt 1.7832 3.4222 0.0000
vt 1.7830 3.1466 0.0000
vt 1.7841 1.2168 0.0000
vt 1.6802 1.2167 0.0000
vt 1.6804 0.9991 0.0000
vt 1.7842 0.9992 0.0000
vt 1.6804 0.8951 0.0000
vt 1.4535 0.9990 0.0000
vt 1.4534 0.8951 0.0000
vt -2.3473 4.2589 0.0000
vt -2.3473 0.9971 0.0000
vt -2.3473 0.5364 0.0000
vt -2.3473 -2.4355 0.0000
vt 2.0656 3.6839 0.0000
vt 2.5415 3.6839 0.0000
vt 1.9617 1.1597 0.0000
vt 1.9617 3.3624 0.0000
vt -2.7727 -2.4355 0.0000
vt -2.7727 0.5364 0.0000
vt 1.4534 1.2163 0.0000
vt 1.4373 1.7670 0.0000
vt 1.3334 1.7626 0.0000
vt 1.3497 1.2128 0.0000
vt -0.3310 4.3235 0.0000
vt -0.3310 1.3113 0.0000
vt -2.7727 0.9971 0.0000
vt -2.7727 4.2589 0.0000
vt 3.5768 0.5315 0.0000
vt 3.5768 -1.6713 0.0000
vt -0.3310 0.8506 0.0000
vt -0.3310 -2.1213 0.0000
vt 2.9082 -1.6713 0.0000
vt 2.9082 0.5315 0.0000
vt -1.4389 -2.1980 0.0000
vt -1.0086 -2.1460 0.0000
vt -1.0086 -2.1980 0.0000
vt -1.0086 3.6171 0.0000
vt -1.0086 3.6691 0.0000
vt -1.4389 3.6691 0.0000
vt 0.8173 1.1385 0.0000
vt 0.5998 1.1385 0.0000
vt 0.5998 0.6778 0.0000
vt 0.8173 0.6778 0.0000
vt 1.4699 -1.9491 0.0000
vt 1.4861 -1.3984 0.0000
vt 1.2435 -1.3978 0.0000
vt 1.2431 -1.9487 0.0000
vt 0.2038 1.2453 0.0000
vt 0.2038 4.5071 0.0000
vt -0.0137 4.5071 0.0000
vt -0.0137 1.2453 0.0000
vt -0.0137 0.7846 0.0000
vt -0.0137 -2.1874 0.0000
vt 0.2038 -2.1874 0.0000
vt 0.2038 0.7846 0.0000
vt 0.5998 -2.2941 0.0000
vt 0.8173 -2.2941 0.0000
vt 0.8173 4.1507 0.0000
vt 0.5998 4.1507 0.0000
vt 3.4376 0.8927 0.0000
vt 3.4376 3.0955 0.0000
vt 2.9769 3.0955 0.0000
vt 2.9769 0.8927 0.0000
vt 2.0909 -1.9110 0.0000
vt 2.5667 -1.9110 0.0000
vt 2.5667 0.2917 0.0000
vt 2.0909 0.2917 0.0000
vt 1.2430 -2.1663 0.0000
vt 1.4699 -2.1664 0.0000
vt 2.0909 -2.1285 0.0000
vt 2.5667 -2.1285 0.0000
vt 1.9869 -2.1285 0.0000
vt 1.9869 -1.9110 0.0000
vt 1.9869 0.2917 0.0000
vt 2.0909 0.5092 0.0000
vt 1.9869 0.5092 0.0000
vt 2.0909 0.6132 0.0000
vt 2.5667 0.5092 0.0000
vt 2.5667 0.6132 0.0000
vt -0.1177 -2.1874 0.0000
vt -0.1177 0.7846 0.0000
vt -0.1177 1.2453 0.0000
vt -0.1177 4.5071 0.0000
vt 1.4700 -2.2703 0.0000
vt 1.2430 -2.2703 0.0000
vt 1.1392 -2.1662 0.0000
vt 1.1393 -1.9486 0.0000
vt 1.1395 -1.3977 0.0000
vt 1.1401 0.2567 0.0000
vt 1.2440 0.2568 0.0000
vt 1.2436 0.4746 0.0000
vt 1.1399 0.4744 0.0000
vt 1.2436 0.5789 0.0000
vt 1.7200 0.4753 0.0000
vt 1.7201 0.5789 0.0000
vt 0.9213 4.1507 0.0000
vt 0.9213 1.1385 0.0000
vt 0.9213 0.6778 0.0000
vt 0.9213 -2.2941 0.0000
vt 2.5667 -2.2325 0.0000
vt 2.0909 -2.2325 0.0000
vt 2.6707 0.2917 0.0000
vt 2.6707 -1.9110 0.0000
vt 0.4958 -2.2941 0.0000
vt 0.4958 0.6778 0.0000
vt 1.7202 0.2585 0.0000
vt 1.6481 -0.0178 0.0000
vt 1.7498 -0.0406 0.0000
vt 1.8203 0.2335 0.0000
vt 0.3077 4.5071 0.0000
vt 0.3077 1.2453 0.0000
vt 0.4958 1.1385 0.0000
vt 0.4958 4.1507 0.0000
vt 2.8729 0.8927 0.0000
vt 2.8729 3.0955 0.0000
vt 0.3077 0.7846 0.0000
vt 0.3077 -2.1874 0.0000
vt 3.5416 3.0955 0.0000
vt 3.5416 0.8927 0.0000
vt 1.4233 2.0430 0.0000
vt 1.6796 2.0433 0.0000
vt 1.6793 2.3192 0.0000
vt 1.4019 2.3187 0.0000
vt 1.7835 2.0434 0.0000
vt 1.7832 2.3192 0.0000
vt 1.3716 2.5955 0.0000
vt 1.2685 2.5819 0.0000
vt 1.2984 2.3088 0.0000
vt 1.5215 -0.8467 0.0000
vt 1.5517 -0.5699 0.0000
vt 1.2444 -0.5704 0.0000
vt 1.2441 -0.8462 0.0000
vt 1.1404 -0.5704 0.0000
vt 1.1401 -0.8462 0.0000
vt 1.5000 -1.1223 0.0000
vt 1.6038 -1.1291 0.0000
vt 1.6249 -0.8565 0.0000
vt 1.6790 2.5950 0.0000
vt 1.6788 2.8709 0.0000
vt 1.3293 2.8710 0.0000
vt 1.7830 2.5950 0.0000
vt 1.7829 2.8708 0.0000
vt 1.3196 2.0363 0.0000
vt 1.2438 -1.1221 0.0000
vt 1.1398 -1.1220 0.0000
vt 1.6548 -0.5835 0.0000
vt 1.6964 -0.3123 0.0000
vt 1.5941 -0.2944 0.0000
vt 1.6799 1.7676 0.0000
vt 1.7838 1.7677 0.0000
vt 1.1735 3.1248 0.0000
vt 1.2270 2.8532 0.0000
vt 1.2445 -0.0188 0.0000
vt 1.2446 -0.2946 0.0000
vt 1.1404 -0.0189 0.0000
vt 1.1405 -0.2946 0.0000
vt 1.5737 -1.9526 0.0000
vt 1.5900 -1.4028 0.0000
vt 1.1030 3.3990 0.0000
# 248 texture coords

g 4__Shed_Door
usemtl Material__27
s 1
f 1/1/1 2/2/1 3/3/1 4/4/1 
f 3/3/1 2/2/1 5/5/1 6/6/1 
f 7/7/2 8/8/3 5/9/1 9/10/2 
f 10/11/2 11/12/2 12/13/2 13/14/2 
f 14/15/2 15/16/2 16/17/2 17/18/2 
f 18/19/2 17/20/2 19/21/2 20/22/2 
f 21/23/2 22/24/2 23/25/2 24/26/2 
f 12/13/2 25/27/2 26/28/2 13/14/2 
f 10/11/2 27/29/2 28/30/2 11/12/2 
f 11/31/2 18/32/2 24/33/2 12/34/2 
f 29/35/2 25/36/2 23/37/2 30/38/2 
f 31/39/2 32/40/2 2/41/1 1/42/1 
f 6/6/1 5/5/1 8/43/3 33/44/3 
f 17/18/2 16/17/2 34/45/2 19/46/2 
f 25/36/2 29/35/2 35/47/2 26/48/2 
s 2
f 36/49/4 31/39/4 1/42/4 37/50/4 
f 38/51/5 39/52/5 40/53/5 41/54/5 
s 4
f 42/55/6 4/4/6 3/3/6 43/56/6 
f 43/56/6 3/3/6 6/6/6 44/57/6 
f 44/57/6 6/6/6 33/44/7 45/58/7 
s 2
f 46/59/8 47/60/8 48/61/8 49/62/8 
f 50/63/9 8/8/9 7/7/9 51/64/9 
s 4
f 51/65/10 7/7/10 9/10/10 52/66/10 
s 2
f 52/67/4 9/10/4 5/9/4 53/68/4 
s 4
f 53/69/10 5/5/10 2/2/10 54/70/10 
s 2
f 54/71/9 2/41/9 32/40/9 55/72/9 
s 4
f 55/73/10 32/40/10 31/39/10 36/74/10 
s 2
f 56/75/10 35/47/10 29/35/10 57/76/10 
f 57/76/10 29/35/10 30/38/10 58/77/10 
f 58/77/10 30/38/10 59/78/10 60/79/10 
s 4
f 60/80/4 59/78/4 22/81/4 61/82/4 
f 61/83/4 22/24/4 21/23/11 62/84/11 
f 62/84/11 21/23/11 20/22/11 63/85/11 
f 63/85/11 20/22/11 19/21/4 64/86/4 
f 64/87/4 19/46/4 34/45/4 65/88/4 
s 2
f 65/89/6 34/45/6 16/17/6 66/90/6 
f 16/17/6 15/16/6 67/91/6 66/90/6 
f 68/92/6 69/93/6 70/94/6 71/95/6 
s 4
f 71/96/9 70/94/9 27/97/9 72/98/9 
f 72/99/9 27/29/9 10/11/9 73/100/9 
f 73/100/9 10/11/9 13/14/9 74/101/9 
f 74/101/9 13/14/9 26/28/9 75/102/9 
f 75/103/9 26/48/9 35/47/9 56/104/9 
s 14
f 76/105/12 23/37/12 25/36/13 77/106/13 
f 77/107/13 25/27/13 12/13/14 78/108/14 
s 2
f 28/109/15 79/110/16 80/111/16 81/112/15 
s 4
f 82/113/9 17/20/9 18/19/9 83/114/9 
f 84/115/11 11/12/11 28/30/11 81/116/11 
s 2
f 83/117/6 18/32/6 11/31/6 84/118/6 
s 6
f 85/119/17 24/26/17 23/25/12 76/120/12 
s 14
f 78/121/14 12/34/14 24/33/17 85/122/17 
s 1
f 21/23/2 24/26/2 18/19/2 20/22/2 
f 70/94/2 69/93/2 28/109/2 27/97/2 
f 59/78/2 30/38/2 23/37/2 22/81/2 
f 1/1/1 4/4/1 40/53/1 39/52/1 
s 4
f 4/4/6 42/55/6 41/123/18 40/53/18 
f 37/124/19 1/1/19 39/52/19 38/125/19 
s 1
f 33/44/3 8/43/3 48/61/3 47/60/3 
s 4
f 8/43/20 50/126/20 49/127/20 48/61/20 
f 45/58/7 33/44/7 47/60/21 46/128/21 
s 1
f 86/129/2 87/130/2 88/131/2 89/132/2 
f 90/133/2 91/134/2 92/135/2 93/136/2 
f 94/137/2 90/138/2 95/139/2 96/140/2 
f 97/141/2 98/142/2 99/143/2 100/144/2 
f 88/131/2 101/145/2 102/146/2 89/132/2 
f 86/129/2 103/147/2 104/148/2 87/130/2 
f 100/149/2 88/150/2 87/151/2 94/152/2 
f 105/153/2 101/154/2 99/155/2 106/156/2 
f 90/133/2 93/136/2 107/157/2 95/158/2 
f 101/154/2 105/153/2 108/159/2 102/160/2 
s 2
f 109/161/10 108/159/10 105/153/10 110/162/10 
f 110/162/10 105/153/10 106/156/10 111/163/10 
f 111/163/10 106/156/10 112/164/10 113/165/10 
s 4
f 113/166/4 112/164/4 98/167/4 114/168/4 
f 114/169/4 98/142/4 97/141/11 115/170/11 
f 115/170/11 97/141/11 96/140/11 116/171/11 
f 116/171/11 96/140/11 95/139/4 117/172/4 
f 117/173/4 95/158/4 107/157/4 118/174/4 
s 2
f 118/175/6 107/157/6 93/136/6 119/176/6 
f 93/136/6 92/135/6 120/177/6 119/176/6 
f 121/178/6 122/179/6 123/180/6 124/181/6 
s 4
f 124/182/9 123/180/9 103/183/22 125/184/22 
f 125/185/22 103/147/22 86/129/9 126/186/9 
f 126/186/9 86/129/9 89/132/9 127/187/9 
f 127/187/9 89/132/9 102/146/22 128/188/22 
f 128/189/22 102/160/22 108/159/9 109/190/9 
s 14
f 129/191/23 99/155/23 101/154/13 130/192/13 
f 130/193/13 101/145/13 88/131/14 131/194/14 
s 2
f 104/195/24 132/196/25 133/197/25 134/198/24 
s 4
f 135/199/26 90/138/26 94/137/26 136/200/26 
f 137/201/4 87/130/4 104/148/4 134/202/4 
s 2
f 136/203/27 94/152/27 87/151/6 137/204/6 
s 6
f 138/205/28 100/144/28 99/143/23 129/206/23 
s 14
f 131/207/14 88/150/14 100/149/28 138/208/28 
s 1
f 97/141/2 100/144/2 94/137/2 96/140/2 
f 123/180/2 122/179/2 104/195/2 103/183/2 
f 112/164/2 106/156/2 99/155/2 98/167/2 
f 139/209/2 140/210/2 141/211/2 142/212/2 
s 2
f 140/210/6 143/213/6 144/214/6 141/211/6 
f 145/215/29 146/216/29 147/217/30 142/212/30 
s 1
f 148/218/2 149/219/2 150/220/2 151/221/2 
s 2
f 150/220/6 152/222/6 153/223/6 151/221/6 
f 154/224/31 155/225/31 156/226/32 148/218/32 
s 1
f 145/215/2 157/227/2 158/228/2 159/229/2 
s 2
f 157/227/6 160/230/6 161/231/6 158/228/6 
f 139/209/33 162/232/33 80/111/16 79/110/16 
s 1
f 91/134/2 154/224/2 163/233/2 92/135/2 
s 2
f 163/233/6 164/234/6 120/177/6 92/135/6 
f 149/219/34 165/235/34 166/236/35 167/237/35 
s 1
f 28/109/2 69/93/2 168/238/2 79/110/2 
s 2
f 69/93/6 68/92/6 169/239/6 168/238/6 
f 14/15/36 170/240/36 171/241/37 159/229/37 
s 1
f 167/237/1 132/196/2 172/242/1 173/243/2 
s 2
f 172/242/6 174/244/6 175/245/6 173/243/6 
f 90/133/38 135/246/38 176/247/39 91/134/39 
s 1
f 159/229/2 158/228/2 15/16/2 14/15/2 
s 2
f 158/228/6 161/231/6 67/91/6 15/16/6 
f 167/237/35 166/236/35 133/197/25 132/196/25 
f 17/18/40 82/248/40 170/240/36 14/15/36 
s 1
f 132/196/2 104/195/2 122/179/2 172/242/1 
s 2
f 122/179/6 121/178/6 174/244/6 172/242/6 
f 159/229/37 171/241/37 146/216/29 145/215/29 
s 1
f 142/212/2 141/211/2 157/227/2 145/215/2 
s 2
f 141/211/6 144/214/6 160/230/6 157/227/6 
s 1
f 79/110/2 168/238/2 140/210/2 139/209/2 
s 2
f 168/238/6 169/239/6 143/213/6 140/210/6 
f 142/212/30 147/217/30 162/232/33 139/209/33 
s 1
f 149/219/2 167/237/1 173/243/2 150/220/2 
s 2
f 173/243/6 175/245/6 152/222/6 150/220/6 
f 148/218/32 156/226/32 165/235/34 149/219/34 
f 91/134/39 176/247/39 155/225/31 154/224/31 
s 1
f 154/224/2 148/218/2 151/221/2 163/233/2 
s 2
f 151/221/6 153/223/6 164/234/6 163/233/6 
# 133 polygons

