# 3ds Max Wavefront OBJ Exporter v0.97b - (c)2007 guruware
# File Created: 12.03.2019 23:30:58

mtllib 5x7_double_wood_door_arch_top_trim_frame.mtl

#
# object 5x7_double_wood_door_arch_top_trim_frame
#

v  3.0000 223.6169 76.4910
v  3.0000 223.6169 83.1324
v  3.0000 217.2012 83.1329
v  3.0000 217.2012 76.4910
v  3.0000 217.2012 -76.4910
v  3.0000 223.6169 -76.4910
v  3.0000 0.0004 -76.4910
v  3.0000 0.0004 -83.1325
v  3.0000 217.2012 -83.1325
v  3.0000 0.0004 83.1329
v  3.0000 0.0004 76.4910
v  3.0000 223.6169 -83.1320
v  0.0000 217.2012 83.1329
v  0.0000 0.0004 83.1329
v  3.0000 223.6170 84.6324
v  0.0000 223.6170 84.6324
v  0.0000 217.2013 84.6329
v  3.0000 217.2013 84.6329
v  0.0000 223.6169 76.4910
v  0.0000 223.6169 83.1324
v  0.0000 223.6169 -76.4910
v  0.0000 223.6169 -83.1320
v  3.0000 217.2013 -84.6325
v  0.0000 217.2013 -84.6325
v  0.0000 223.6170 -84.6320
v  3.0000 223.6170 -84.6320
v  0.0000 0.0004 -83.1325
v  0.0000 217.2012 -83.1325
v  0.0000 0.0004 -76.4910
v  0.0000 217.2012 -76.4910
v  0.0000 217.2012 76.4910
v  0.0000 0.0004 76.4910
# 32 vertices

vn 1.0000 0.0000 -0.0000
vn 0.0000 0.0000 1.0000
vn 0.0000 0.0001 1.0000
vn 0.0000 1.0000 -0.0000
vn 0.0000 1.0000 0.0000
vn 0.0000 0.0001 -1.0000
vn 0.0000 0.0000 -1.0000
vn 0.0000 -1.0000 -0.0000
vn 0.0000 1.0000 -0.0001
vn 0.0000 -1.0000 0.0001
vn 0.0000 -1.0000 -0.0001
vn 0.0000 1.0000 0.0001
# 12 vertex normals

vt -1.3350 -1.9157 0.0000
vt -1.3350 -2.1460 0.0000
vt -1.1126 -2.1460 0.0000
vt -1.1126 -1.9157 0.0000
vt -1.1126 3.3869 0.0000
vt -1.3350 3.3869 0.0000
vt -3.2588 4.7875 0.0000
vt -3.2588 -2.7410 0.0000
vt -3.0286 -2.7410 0.0000
vt -3.0286 4.7875 0.0000
vt -1.8716 4.8920 0.0000
vt -2.1019 4.8920 0.0000
vt -2.1019 -2.6365 0.0000
vt -1.8717 -2.6365 0.0000
vt -1.1126 3.6171 0.0000
vt -1.3350 3.6171 0.0000
vt -2.2059 4.8920 0.0000
vt -2.2059 -2.6365 0.0000
vt -1.3350 -2.1980 0.0000
vt -1.3350 -2.3019 0.0000
vt -1.1126 -2.3019 0.0000
vt -1.1126 -2.1980 0.0000
vt -1.4389 -1.9157 0.0000
vt -1.4389 -2.1460 0.0000
vt -1.4389 3.3869 0.0000
vt -1.4389 3.6171 0.0000
vt -1.1126 3.6691 0.0000
vt -1.1126 3.7730 0.0000
vt -1.3350 3.7730 0.0000
vt -1.3350 3.6691 0.0000
vt -2.9246 -2.7410 0.0000
vt -2.9246 4.7875 0.0000
vt -3.2588 -2.8450 0.0000
vt -3.0286 -2.8450 0.0000
vt -3.3628 4.7875 0.0000
vt -3.3628 -2.7410 0.0000
vt -1.0086 -1.9157 0.0000
vt -1.0086 3.3868 0.0000
vt -1.7677 -2.6365 0.0000
vt -1.7677 4.8920 0.0000
vt -2.1019 -2.7405 0.0000
vt -1.8716 -2.7405 0.0000
vt -1.4389 -2.1980 0.0000
vt -1.0086 -2.1980 0.0000
vt -1.0086 -2.1460 0.0000
vt -1.0086 3.6691 0.0000
vt -1.0086 3.6171 0.0000
vt -1.4389 3.6691 0.0000
# 48 texture coords

g 5x7_double_wood_door_arch_top_trim_frame
usemtl Material__27
s 1
f 1/1/1 2/2/1 3/3/1 4/4/1 
f 5/5/1 6/6/1 1/1/1 4/4/1 
f 5/7/1 7/8/1 8/9/1 9/10/1 
f 4/11/1 3/12/1 10/13/1 11/14/1 
f 9/15/1 12/16/1 6/6/1 5/5/1 
s 2
f 3/12/2 13/17/2 14/18/2 10/13/2 
f 15/19/3 16/20/3 17/21/3 18/22/3 
s 4
f 1/1/4 19/23/4 20/24/4 2/2/4 
f 6/6/4 21/25/4 19/23/4 1/1/4 
f 12/16/5 22/26/5 21/25/4 6/6/4 
s 2
f 23/27/6 24/28/6 25/29/6 26/30/6 
f 8/9/7 27/31/7 28/32/7 9/10/7 
s 4
f 7/8/8 29/33/8 27/34/8 8/9/8 
s 2
f 5/7/2 30/35/2 29/36/2 7/8/2 
s 4
f 4/4/8 31/37/8 30/38/8 5/5/8 
s 2
f 11/14/7 32/39/7 31/40/7 4/11/7 
s 4
f 10/13/8 14/41/8 32/42/8 11/14/8 
s 1
f 15/19/1 18/22/1 3/3/1 2/2/1 
s 4
f 16/43/9 15/19/9 2/2/4 20/24/4 
f 18/22/10 17/44/10 13/45/10 3/3/10 
s 1
f 23/27/1 26/30/1 12/16/1 9/15/1 
s 4
f 24/46/11 23/27/11 9/15/11 28/47/11 
f 26/30/12 25/48/12 22/26/5 12/16/5 
# 23 polygons

