# 3ds Max Wavefront OBJ Exporter v0.97b - (c)2007 guruware
# File Created: 21.11.2018 22:01:27

mtllib New_6x6_8_Double_Shed_Door_Tiles.mtl

#
# object Door_tiles
#

v  0.2000 10.5476 6.3252
v  0.2000 103.0099 6.3252
v  0.2000 103.0099 85.6648
v  0.2000 10.5476 85.6648
v  0.2000 108.1011 85.6648
v  0.2000 108.1011 6.3252
v  0.2000 201.7244 6.3252
v  0.2000 201.7244 85.6648
v  0.2000 10.5476 -85.2144
v  0.2000 103.0099 -85.2144
v  0.2000 103.0099 -5.8747
v  0.2000 10.5476 -5.8747
v  0.2000 108.1011 -5.8747
v  0.2000 108.1011 -85.2143
v  0.2000 201.7244 -85.2143
v  0.2000 201.7244 -5.8747
# 16 vertices

vn 1.0000 0.0000 -0.0000
# 1 vertex normals

vt 0.5118 0.0117 0.0000
vt 0.5118 0.5830 0.0000
vt 0.0137 0.5830 0.0000
vt 0.0137 0.0117 0.0000
vt 0.0137 0.3943 0.0000
vt 0.5118 0.3943 0.0000
vt 0.5118 0.9763 0.0000
vt 0.0137 0.9763 0.0000
vt 0.9863 0.0117 0.0000
vt 0.9863 0.5830 0.0000
vt 0.4865 0.5830 0.0000
vt 0.4865 0.0117 0.0000
vt 0.4865 0.3943 0.0000
vt 0.9863 0.3943 0.0000
vt 0.9863 0.9763 0.0000
vt 0.4865 0.9763 0.0000
# 16 texture coords

g Door_tiles
usemtl Material__25
s off
f 1/1/1 2/2/1 3/3/1 4/4/1 
f 5/5/1 6/6/1 7/7/1 8/8/1 
f 9/9/1 10/10/1 11/11/1 12/12/1 
f 13/13/1 14/14/1 15/15/1 16/16/1 
# 4 polygons

