# 3ds Max Wavefront OBJ Exporter v0.97b - (c)2007 guruware
# File Created: 21.11.2018 22:00:50

mtllib New_6x6_8_Double_Shed_Door.mtl

#
# object 4__Shed_Door
#

v  2.9993 109.6011 7.3752
v  2.9993 109.6011 84.1648
v  2.9993 102.0099 84.1648
v  2.9993 102.0099 7.3752
v  3.0000 214.9569 91.7310
v  3.0000 214.9569 98.3724
v  3.0000 208.5412 98.3729
v  3.0000 208.5412 91.7310
v  3.0000 208.5412 -91.7310
v  3.0000 214.9569 -91.7310
v  3.0000 0.0004 -91.7310
v  3.0000 0.0004 -98.3725
v  3.0000 208.5412 -98.3725
v  2.9993 102.0099 0.1001
v  2.9993 109.6011 0.1001
v  2.9993 208.2725 7.3752
v  2.9993 208.2725 84.1648
v  2.9993 200.7244 84.1648
v  2.9993 200.7244 7.3752
v  2.9993 5.0197 84.1648
v  2.9993 5.0197 7.3752
v  2.9993 12.5476 7.3752
v  2.9993 12.5476 84.1648
v  2.9993 200.7245 91.4399
v  2.9993 109.6011 91.4399
v  2.9993 102.0099 91.4399
v  2.9993 12.5476 91.4399
v  2.9993 12.5476 0.1001
v  2.9993 200.7244 0.1001
v  3.0000 0.0004 98.3729
v  3.0000 0.0004 91.7310
v  3.0000 214.9569 -98.3720
v  2.9993 208.2725 91.4399
v  2.9993 5.0197 0.1001
v  0.0000 208.5412 98.3729
v  0.0000 0.0004 98.3729
v  3.0000 214.9570 99.8724
v  0.0000 214.9570 99.8724
v  0.0000 208.5413 99.8729
v  3.0000 208.5413 99.8729
v  0.0000 214.9569 91.7310
v  0.0000 214.9569 98.3724
v  0.0000 214.9569 -91.7310
v  0.0000 214.9569 -98.3720
v  3.0000 208.5413 -99.8725
v  0.0000 208.5413 -99.8725
v  0.0000 214.9570 -99.8720
v  3.0000 214.9570 -99.8720
v  0.0000 0.0004 -98.3725
v  0.0000 208.5412 -98.3725
v  0.0000 0.0004 -91.7310
v  0.0000 208.5412 -91.7310
v  0.0000 208.5412 91.7310
v  0.0000 0.0004 91.7310
v  0.0000 5.0197 7.3752
v  0.0000 5.0197 0.1001
v  0.0000 5.0197 84.1648
v  2.9993 5.0197 91.4399
v  0.0000 5.0197 91.4399
v  0.0000 12.5476 91.4399
v  0.0000 102.0099 91.4399
v  0.0000 109.6011 91.4399
v  0.0000 200.7245 91.4399
v  0.0000 208.2725 91.4399
v  0.0000 208.2725 84.1648
v  0.0000 208.2725 7.3752
v  2.9993 208.2725 0.1001
v  0.0000 208.2725 0.1001
v  0.0000 200.7244 0.1001
v  0.0000 109.6011 0.1001
v  0.0000 102.0099 0.1001
v  0.0000 12.5476 0.1001
v  0.0000 12.5476 84.1648
v  0.0000 12.5476 7.3752
v  0.0000 102.0099 7.3752
v  0.0000 200.7244 84.1648
v  0.0000 200.7244 7.3752
v  0.0000 109.6011 84.1648
v  0.0000 109.6011 7.3752
v  0.0000 102.0099 84.1648
v  2.9993 109.6011 -84.1643
v  2.9993 109.6011 -7.3747
v  2.9993 102.0099 -7.3747
v  2.9993 102.0099 -84.1644
v  2.9993 102.0099 -91.4395
v  2.9993 109.6011 -91.4395
v  2.9993 208.2725 -84.1644
v  2.9993 208.2725 -7.3747
v  2.9993 200.7244 -7.3747
v  2.9993 200.7244 -84.1643
v  2.9993 5.0197 -7.3747
v  2.9993 5.0197 -84.1644
v  2.9993 12.5476 -84.1644
v  2.9993 12.5476 -7.3747
v  2.9993 200.7245 -0.0996
v  2.9993 109.6011 -0.0996
v  2.9993 102.0099 -0.0996
v  2.9993 12.5476 -0.0996
v  2.9993 12.5476 -91.4395
v  2.9993 200.7244 -91.4395
v  2.9993 208.2725 -0.0996
v  2.9993 5.0197 -91.4395
v  0.0000 5.0197 -84.1644
v  0.0000 5.0197 -91.4395
v  0.0000 5.0197 -7.3747
v  2.9993 5.0197 -0.0996
v  0.0000 5.0197 -0.0996
v  0.0000 12.5476 -0.0996
v  0.0000 102.0099 -0.0996
v  0.0000 109.6011 -0.0996
v  0.0000 200.7245 -0.0996
v  0.0000 208.2725 -0.0996
v  0.0000 208.2725 -7.3747
v  0.0000 208.2725 -84.1644
v  2.9993 208.2725 -91.4395
v  0.0000 208.2725 -91.4395
v  0.0000 200.7244 -91.4395
v  0.0000 109.6011 -91.4395
v  0.0000 102.0099 -91.4395
v  0.0000 12.5476 -91.4395
v  0.0000 12.5476 -7.3747
v  0.0000 12.5476 -84.1644
v  0.0000 102.0099 -84.1644
v  0.0000 200.7244 -7.3747
v  0.0000 200.7244 -84.1643
v  0.0000 109.6011 -7.3747
v  0.0000 109.6011 -84.1643
v  0.0000 102.0099 -7.3747
# 128 vertices

vn 1.0000 0.0000 -0.0000
vn 0.0000 0.0000 1.0000
vn 0.0000 0.0001 1.0000
vn 0.0000 1.0000 -0.0000
vn 0.0000 0.0001 -1.0000
vn 0.0000 0.0000 -1.0000
vn 0.0000 -1.0000 -0.0000
vn 0.0000 0.9248 -0.3804
vn 0.0000 -0.9242 -0.3818
vn 0.0000 -0.9242 0.3818
vn 0.0000 1.0000 -0.0001
vn 0.0000 -1.0000 0.0001
vn 0.0000 -1.0000 -0.0001
vn 0.0000 1.0000 0.0001
# 14 vertex normals

vt 2.8567 -2.2277 0.0000
vt 2.8567 0.3829 0.0000
vt 2.6242 0.3829 0.0000
vt 2.6242 -2.2277 0.0000
vt -1.1024 -2.4499 0.0000
vt -1.0972 -2.6462 0.0000
vt -1.0030 -2.6748 0.0000
vt -1.0034 -2.4498 0.0000
vt -1.0034 3.7872 0.0000
vt -1.1024 3.7872 0.0000
vt -1.2901 4.8802 0.0000
vt -1.2897 -2.2095 0.0000
vt -1.0639 -2.2095 0.0000
vt -1.0639 4.8802 0.0000
vt -2.4228 0.8831 0.0000
vt -2.1866 0.8831 0.0000
vt -2.1866 1.1412 0.0000
vt -2.4223 1.1412 0.0000
vt 1.9476 1.4720 0.0000
vt 1.9462 4.0771 0.0000
vt 1.8165 4.0823 0.0000
vt 1.8170 1.4781 0.0000
vt 2.1362 1.1646 0.0000
vt 2.1362 3.7751 0.0000
vt 1.8818 3.7753 0.0000
vt 1.8828 1.1661 0.0000
vt -0.2331 4.1756 0.0000
vt -0.2331 1.0777 0.0000
vt 0.0028 1.0777 0.0000
vt -0.0034 4.1756 0.0000
vt -0.2331 0.8196 0.0000
vt -0.2330 -2.2217 0.0000
vt -0.0027 -2.2217 0.0000
vt 0.0032 0.8196 0.0000
vt -2.4168 -2.1582 0.0000
vt -2.1864 -2.1582 0.0000
vt -2.4162 4.2391 0.0000
vt -2.1866 4.2391 0.0000
vt -1.5968 4.6657 0.0000
vt -1.8226 4.6657 0.0000
vt -1.8227 -2.4240 0.0000
vt -1.5968 -2.4240 0.0000
vt -1.0033 4.0113 0.0000
vt -1.1024 4.0130 0.0000
vt 2.0572 4.2914 0.0000
vt 2.0388 4.3200 0.0000
vt 2.1268 4.0215 0.0000
vt 1.8508 4.0204 0.0000
vt -1.9246 4.6657 0.0000
vt -1.9246 -2.4240 0.0000
vt -1.2332 -2.6874 0.0000
vt -1.4876 -2.8387 0.0000
vt -1.2483 -2.7122 0.0000
vt -1.0211 -2.7234 0.0000
vt -0.8469 -2.4498 0.0000
vt -0.8469 -2.6756 0.0000
vt -0.8469 3.7872 0.0000
vt -0.8469 4.0130 0.0000
vt -1.0152 4.0257 0.0000
vt -1.2681 4.1565 0.0000
vt -1.4685 4.0495 0.0000
vt -1.2328 4.0238 0.0000
vt -0.9619 -2.2095 0.0000
vt -0.9619 4.8802 0.0000
vt -1.2897 -2.3115 0.0000
vt -1.0639 -2.3115 0.0000
vt -1.3917 4.8801 0.0000
vt -1.3917 -2.2095 0.0000
vt -0.4249 -2.4499 0.0000
vt -0.4249 3.7872 0.0000
vt -1.4949 -2.4240 0.0000
vt -1.4949 4.6657 0.0000
vt -1.8227 -2.5259 0.0000
vt -1.5969 -2.5260 0.0000
vt 2.2637 3.7752 0.0000
vt 2.2637 4.0225 0.0000
vt 2.2636 1.1646 0.0000
vt 2.1267 0.9176 0.0000
vt 2.2636 0.9173 0.0000
vt 1.8506 0.9170 0.0000
vt 1.8547 0.8147 0.0000
vt 2.1109 0.8183 0.0000
vt -0.3350 -2.2217 0.0000
vt -0.3350 0.8196 0.0000
vt -0.3350 1.0777 0.0000
vt -0.3350 4.1756 0.0000
vt 2.3461 4.4308 0.0000
vt 2.0894 4.4401 0.0000
vt 1.7063 4.0825 0.0000
vt 1.7063 4.3298 0.0000
vt 1.7063 1.4719 0.0000
vt 2.0634 1.2323 0.0000
vt 1.7063 1.2246 0.0000
vt 2.0392 1.2215 0.0000
vt 2.0887 1.1316 0.0000
vt 2.3254 1.2451 0.0000
vt -2.0846 1.1412 0.0000
vt -2.0846 4.2391 0.0000
vt -2.0846 0.8831 0.0000
vt -2.0845 -2.1582 0.0000
vt 2.1107 4.1245 0.0000
vt 1.8548 4.1251 0.0000
vt 1.8375 1.1646 0.0000
vt 1.8378 3.7752 0.0000
vt -2.5017 -2.1582 0.0000
vt -2.5019 0.8831 0.0000
vt 1.2797 4.0825 0.0000
vt 1.2796 1.4719 0.0000
vt 0.0822 1.0777 0.0000
vt 0.0822 4.1756 0.0000
vt -2.5019 4.2391 0.0000
vt -2.5019 1.1412 0.0000
vt 2.7679 0.3829 0.0000
vt 2.7679 -2.2277 0.0000
vt 0.0822 0.8196 0.0000
vt 0.0823 -2.2217 0.0000
vt 2.3569 -2.2276 0.0000
vt 2.3569 0.3829 0.0000
vt -0.8469 -2.7266 0.0000
vt -0.4248 -2.7266 0.0000
vt -0.4248 -2.6756 0.0000
vt -0.4248 4.0640 0.0000
vt -0.4248 4.0130 0.0000
vt -0.8469 4.0640 0.0000
vt 2.2680 3.3241 0.0000
vt 2.2680 0.7136 0.0000
vt 2.5005 0.7136 0.0000
vt 2.5005 3.3241 0.0000
vt 0.8363 0.8438 0.0000
vt 1.0723 0.8438 0.0000
vt 1.0723 1.1019 0.0000
vt 0.8366 1.1019 0.0000
vt 1.0615 0.6224 0.0000
vt 1.0629 -1.9826 0.0000
vt 1.1926 -1.9878 0.0000
vt 1.1921 0.6163 0.0000
vt 1.9584 0.2231 0.0000
vt 1.9585 -2.3873 0.0000
vt 2.2129 -2.3875 0.0000
vt 2.2117 0.2216 0.0000
vt 0.3347 4.1998 0.0000
vt 0.3347 1.1019 0.0000
vt 0.5704 1.1019 0.0000
vt 0.5643 4.1998 0.0000
vt 0.3347 0.8438 0.0000
vt 0.3347 -2.1975 0.0000
vt 0.5651 -2.1975 0.0000
vt 0.5709 0.8438 0.0000
vt 0.8419 -2.1975 0.0000
vt 1.0722 -2.1975 0.0000
vt 0.8427 4.1998 0.0000
vt 1.0723 4.1998 0.0000
vt 0.9519 -2.1970 0.0000
vt 0.9703 -2.2256 0.0000
vt 1.9679 -2.6338 0.0000
vt 2.2439 -2.6326 0.0000
vt 1.8310 -2.3874 0.0000
vt 1.8310 -2.6348 0.0000
vt 1.8309 0.2231 0.0000
vt 1.9678 0.4702 0.0000
vt 1.8309 0.4705 0.0000
vt 2.2439 0.4708 0.0000
vt 2.2398 0.5730 0.0000
vt 1.9836 0.5694 0.0000
vt 0.2328 -2.1975 0.0000
vt 0.2328 0.8438 0.0000
vt 0.2328 1.1019 0.0000
vt 0.2328 4.1998 0.0000
vt 0.6630 -2.3363 0.0000
vt 0.9197 -2.3457 0.0000
vt 1.3028 -1.9880 0.0000
vt 1.3028 -2.2354 0.0000
vt 1.3028 0.6225 0.0000
vt 0.9457 0.8622 0.0000
vt 1.3029 0.8699 0.0000
vt 0.9699 0.8730 0.0000
vt 0.9204 0.9628 0.0000
vt 0.6838 0.8492 0.0000
vt 1.1743 1.1019 0.0000
vt 1.1743 4.1998 0.0000
vt 1.1743 0.8438 0.0000
vt 1.1742 -2.1975 0.0000
vt 1.9840 -2.7367 0.0000
vt 2.2399 -2.7373 0.0000
vt 2.2571 0.2231 0.0000
vt 2.2568 -2.3874 0.0000
vt 0.7569 -2.1975 0.0000
vt 0.7570 0.8439 0.0000
vt 1.7294 -1.9880 0.0000
vt 1.7295 0.6225 0.0000
vt 0.6500 1.1019 0.0000
vt 0.6500 4.1998 0.0000
vt 0.7570 4.1998 0.0000
vt 0.7570 1.1019 0.0000
vt 2.3567 0.7136 0.0000
vt 2.3567 3.3241 0.0000
vt 0.6500 0.8438 0.0000
vt 0.6500 -2.1975 0.0000
vt 2.7678 3.3241 0.0000
vt 2.7678 0.7136 0.0000
# 200 texture coords

g 4__Shed_Door
usemtl Material__27
s 1
f 1/1/1 2/2/1 3/3/1 4/4/1 
f 5/5/1 6/6/1 7/7/1 8/8/1 
f 9/9/1 10/10/1 5/5/1 8/8/1 
f 9/11/1 11/12/1 12/13/1 13/14/1 
f 4/15/1 14/16/1 15/17/1 1/18/1 
f 16/19/1 17/20/1 18/21/1 19/22/1 
f 20/23/1 21/24/1 22/25/1 23/26/1 
f 24/27/1 25/28/1 2/29/1 18/30/1 
f 26/31/1 27/32/1 23/33/1 3/34/1 
f 4/15/1 22/35/1 28/36/1 14/16/1 
f 19/37/1 1/18/1 15/17/1 29/38/1 
f 8/39/1 7/40/1 30/41/1 31/42/1 
f 13/43/1 32/44/1 10/10/1 9/9/1 
f 33/45/1 24/46/1 18/21/1 17/20/1 
f 34/47/1 28/48/1 22/25/1 21/24/1 
f 7/40/2 35/49/2 36/50/2 30/41/2 
f 37/51/3 38/52/3 39/53/3 40/54/3 
f 5/5/4 41/55/4 42/56/4 6/6/4 
f 10/10/4 43/57/4 41/55/4 5/5/4 
f 32/44/4 44/58/4 43/57/4 10/10/4 
f 45/59/5 46/60/5 47/61/5 48/62/5 
f 12/13/6 49/63/6 50/64/6 13/14/6 
f 11/12/7 51/65/7 49/66/7 12/13/7 
f 9/11/2 52/67/2 51/68/2 11/12/2 
f 8/8/7 53/69/7 52/70/7 9/9/7 
f 31/42/6 54/71/6 53/72/6 8/39/6 
f 30/41/7 36/73/7 54/74/7 31/42/7 
f 21/24/7 55/75/7 56/76/7 34/47/7 
f 55/75/7 21/24/7 20/23/7 57/77/7 
f 58/78/7 59/79/7 57/77/7 20/23/7 
f 27/80/2 60/81/2 59/82/2 58/78/2 
f 60/83/2 27/32/2 26/31/2 61/84/2 
f 25/28/2 62/85/2 61/84/2 26/31/2 
f 24/27/2 63/86/2 62/85/2 25/28/2 
f 33/45/2 64/87/2 63/88/2 24/46/2 
f 17/20/4 65/89/4 64/90/4 33/45/4 
f 16/19/4 66/91/4 65/89/4 17/20/4 
f 67/92/4 68/93/4 66/91/4 16/19/4 
f 29/94/6 69/95/6 68/96/6 67/92/6 
f 15/17/6 70/97/6 69/98/6 29/38/6 
f 14/16/6 71/99/6 70/97/6 15/17/6 
f 71/99/6 14/16/6 28/36/6 72/100/6 
f 34/47/6 56/101/6 72/102/6 28/48/6 
f 73/103/8 23/26/4 22/25/4 74/104/4 
f 74/105/2 22/35/2 4/15/2 75/106/2 
f 18/21/7 76/107/7 77/108/7 19/22/7 
f 2/29/6 78/109/6 76/110/6 18/30/6 
f 19/37/2 77/111/2 79/112/2 1/18/2 
f 78/113/4 2/2/4 1/1/4 79/114/4 
f 80/115/6 3/34/6 23/33/6 73/116/6 
f 75/117/7 4/4/9 3/3/10 80/118/7 
f 2/29/1 25/28/1 26/31/1 3/34/1 
f 19/22/1 29/94/1 67/92/1 16/19/1 
f 23/26/1 27/80/1 58/78/1 20/23/1 
f 37/51/1 40/54/1 7/7/1 6/6/1 
f 38/119/11 37/51/11 6/6/4 42/56/4 
f 40/54/12 39/120/12 35/121/12 7/7/12 
f 45/59/1 48/62/1 32/44/1 13/43/1 
f 46/122/13 45/59/13 13/43/13 50/123/13 
f 48/62/14 47/124/14 44/58/4 32/44/4 
f 81/125/1 82/126/1 83/127/1 84/128/1 
f 84/129/1 85/130/1 86/131/1 81/132/1 
f 87/133/1 88/134/1 89/135/1 90/136/1 
f 91/137/1 92/138/1 93/139/1 94/140/1 
f 95/141/1 96/142/1 82/143/1 89/144/1 
f 97/145/1 98/146/1 94/147/1 83/148/1 
f 84/129/1 93/149/1 99/150/1 85/130/1 
f 90/151/1 81/132/1 86/131/1 100/152/1 
f 101/153/1 95/154/1 89/135/1 88/134/1 
f 102/155/1 99/156/1 93/139/1 92/138/1 
f 92/138/7 103/157/7 104/158/7 102/155/7 
f 103/157/7 92/138/7 91/137/7 105/159/7 
f 106/160/7 107/161/7 105/159/7 91/137/7 
f 98/162/2 108/163/2 107/164/2 106/160/2 
f 108/165/2 98/146/2 97/145/2 109/166/2 
f 96/142/2 110/167/2 109/166/2 97/145/2 
f 95/141/2 111/168/2 110/167/2 96/142/2 
f 101/153/2 112/169/2 111/170/2 95/154/2 
f 88/134/4 113/171/4 112/172/4 101/153/4 
f 87/133/4 114/173/4 113/171/4 88/134/4 
f 115/174/4 116/175/4 114/173/4 87/133/4 
f 100/176/6 117/177/6 116/178/6 115/174/6 
f 86/131/6 118/179/6 117/180/6 100/152/6 
f 85/130/6 119/181/6 118/179/6 86/131/6 
f 119/181/6 85/130/6 99/150/6 120/182/6 
f 102/155/6 104/183/6 120/184/6 99/156/6 
f 121/185/8 94/140/4 93/139/4 122/186/4 
f 122/187/2 93/149/2 84/129/2 123/188/2 
f 89/135/7 124/189/7 125/190/7 90/136/7 
f 82/143/6 126/191/6 124/192/6 89/144/6 
f 90/151/2 125/193/2 127/194/2 81/132/2 
f 126/195/4 82/126/4 81/125/4 127/196/4 
f 128/197/6 83/148/6 94/147/6 121/198/6 
f 123/199/7 84/128/9 83/127/10 128/200/7 
f 82/143/1 96/142/1 97/145/1 83/148/1 
f 90/136/1 100/176/1 115/174/1 87/133/1 
f 94/140/1 98/162/1 106/160/1 91/137/1 
# 97 polygons

