# 3ds Max Wavefront OBJ Exporter v0.97b - (c)2007 guruware
# File Created: 24.02.2018 16:28:39

mtllib 6x4 Ramp Supports.mtl

#
# object Ramp_Supports
#

v  58.9655 -13.8446 91.4400
v  58.9655 -13.8446 -91.4400
v  63.9460 -14.2856 -91.4400
v  63.9460 -14.2856 91.4400
v  59.4065 -8.8641 91.4400
v  64.3870 -9.3051 91.4400
v  64.3870 -9.3051 -91.4400
v  59.4065 -8.8641 -91.4400
v  121.1316 -14.2892 91.4400
v  121.1316 -14.2892 -91.4400
v  121.4535 -10.7537 -91.4400
v  121.4535 -10.7537 91.4400
v  117.6095 -13.9773 -91.4400
v  117.9314 -10.4419 -91.4400
v  117.6095 -13.9773 91.4400
v  117.9314 -10.4419 91.4400
v  117.8455 -10.5052 -91.3693
v  117.5360 -13.8998 -91.3693
v  117.5360 -13.8998 91.3693
v  117.8455 -10.5052 91.3693
# 20 vertices

vn -0.0882 -0.9961 -0.0000
vn 0.0882 0.9961 -0.0000
vn 0.0000 0.0000 1.0000
vn 0.9961 -0.0882 -0.0000
vn 0.0000 0.0000 -1.0000
vn -0.9961 0.0882 -0.0000
vn 0.9959 -0.0907 -0.0000
vn -0.6595 0.0601 -0.7493
vn -0.7257 -0.6880 -0.0000
vn -0.5937 0.8047 -0.0000
vn -0.6595 0.0601 0.7493
# 11 vertex normals

vt 0.4531 -1.6836 0.0000
vt 0.4531 2.4038 0.0000
vt 0.3413 2.4038 0.0000
vt 0.3413 -1.6836 0.0000
vt 0.1178 -1.6836 0.0000
vt 0.2295 -1.6836 0.0000
vt 0.2295 2.4038 0.0000
vt 0.1178 2.4038 0.0000
vt 0.3413 -1.7954 0.0000
vt 0.4531 -1.7953 0.0000
vt 0.4531 2.5155 0.0000
vt 0.3413 2.5156 0.0000
vt 0.0060 2.4038 0.0000
vt 0.0060 -1.6836 0.0000
vt 0.9281 -1.6892 0.0000
vt 0.9281 2.3982 0.0000
vt 0.8487 2.3982 0.0000
vt 0.8487 -1.6892 0.0000
vt 0.9283 2.4772 0.0000
vt 0.8489 2.4772 0.0000
vt 1.0071 -1.6892 0.0000
vt 1.0071 2.3982 0.0000
vt 0.7697 2.3982 0.0000
vt 0.7697 -1.6892 0.0000
vt 0.8489 -1.7683 0.0000
vt 0.9283 -1.7683 0.0000
vt 0.8505 2.4795 0.0000
vt 0.9267 2.4796 0.0000
vt 1.0095 2.3966 0.0000
vt 1.0095 -1.6877 0.0000
vt 0.7673 -1.6877 0.0000
vt 0.7673 2.3966 0.0000
vt 0.9267 -1.7707 0.0000
vt 0.8505 -1.7706 0.0000
# 34 texture coords

g Ramp_Supports
usemtl Material__32
s 2
f 1/1/1 2/2/1 3/3/1 4/4/1 
s 4
f 5/5/2 6/6/2 7/7/2 8/8/2 
s 8
f 1/1/3 4/4/3 6/9/3 5/10/3 
s 16
f 4/4/4 3/3/4 7/7/4 6/6/4 
s 32
f 3/3/5 2/2/5 8/11/5 7/12/5 
s 64
f 2/13/6 1/14/6 5/5/6 8/8/6 
s 16
f 9/15/7 10/16/7 11/17/7 12/18/7 
s 32
f 13/19/5 14/20/5 11/17/5 10/16/5 
s 2
f 10/16/1 9/15/1 15/21/1 13/22/1 
s 4
f 12/18/2 11/17/2 14/23/2 16/24/2 
s 8
f 9/15/3 12/18/3 16/25/3 15/26/3 
s off
f 17/27/8 14/20/8 13/19/8 18/28/8 
f 18/29/9 13/22/9 15/21/9 19/30/9 
f 20/31/10 16/24/10 14/23/10 17/32/10 
f 19/33/11 15/26/11 16/25/11 20/34/11 
# 15 polygons

