# 3ds Max Wavefront OBJ Exporter v0.97b - (c)2007 guruware
# File Created: 21.11.2018 19:41:13

mtllib 6x6_Transom_Trim_Shed_door_tiles.mtl

#
# object Door_tiles
#

v  0.3197 17.9878 -81.7228
v  0.3197 145.8068 -81.7228
v  0.3197 145.8068 -9.8533
v  0.3197 17.9878 -9.8534
v  0.3197 17.9878 9.8532
v  0.3197 145.8068 9.8532
v  0.3197 145.8068 81.7227
v  0.3197 17.9878 81.7227
# 8 vertices

vn 1.0000 0.0000 -0.0000
# 1 vertex normals

vt 1.0573 0.0803 0.0000
vt 1.0573 0.9239 0.0000
vt 0.5830 0.9239 0.0000
vt 0.5830 0.0803 0.0000
vt 0.5019 0.0803 0.0000
vt 0.5019 0.9239 0.0000
vt 0.0276 0.9239 0.0000
vt 0.0276 0.0803 0.0000
# 8 texture coords

g Door_tiles
usemtl Material__92
s off
f 1/1/1 2/2/1 3/3/1 4/4/1 
f 5/5/1 6/6/1 7/7/1 8/8/1 
# 2 polygons

