# 3ds Max Wavefront OBJ Exporter v0.97b - (c)2007 guruware
# File Created: 11.04.2019 18:54:25

mtllib 6x6_transom_trim_shed_door_w_transom_w_uprights_short_hinge_door.mtl

#
# object 6x6_transom_door
#

v  3.2026 8.1891 -91.5331
v  3.2026 8.1891 -0.0931
v  -0.0176 8.1891 -0.0931
v  -0.0176 8.1891 -91.5331
v  -0.0176 137.5420 -0.0931
v  3.2026 137.5420 -0.0931
v  3.2026 191.0691 -0.0931
v  -0.0176 191.0691 -0.0931
v  3.2026 181.2654 -81.7178
v  3.2026 191.0691 -91.5331
v  3.2026 181.2654 -9.8583
v  3.2026 17.9928 -81.7178
v  3.2026 17.9928 -9.8584
v  3.2026 137.5422 -9.8583
v  3.2026 127.8018 -9.8583
v  3.2026 127.8018 -81.7178
v  3.2026 137.5422 -81.7178
v  -0.0176 34.1374 -91.5331
v  3.2026 34.1374 -91.5331
v  0.3197 111.3117 -9.8583
v  3.2026 111.3117 -9.8583
v  0.3197 17.9928 -9.8584
v  0.3197 17.9928 -81.7178
v  0.3197 127.8018 -9.8583
v  0.3197 127.8018 -81.7178
v  0.3197 137.5422 -81.7178
v  0.3197 181.2654 -81.7178
v  -0.0176 191.0691 -91.5331
v  0.3197 181.2654 -9.8583
v  0.3197 137.5422 -9.8583
v  3.2026 137.5420 -91.5331
v  3.2026 111.3117 -0.0931
v  -0.0176 111.3117 -0.0931
v  -0.0176 137.5420 -91.5331
v  3.2026 127.8020 -91.5331
v  -0.0176 127.8020 -91.5331
v  0.3197 34.1374 -81.7178
v  3.2026 34.1374 -81.7178
v  -0.0176 127.8020 -0.0931
v  3.2026 127.8020 -0.0931
v  3.2026 8.1891 0.0929
v  3.2026 8.1891 91.5329
v  -0.0176 8.1891 91.5329
v  -0.0176 8.1891 0.0929
v  -0.0176 137.5420 91.5330
v  3.2026 137.5420 91.5330
v  3.2026 191.0690 91.5330
v  -0.0176 191.0690 91.5330
v  3.2026 181.2654 9.8582
v  3.2026 191.0691 0.0930
v  3.2026 181.2653 81.7177
v  3.2026 17.9928 9.8582
v  3.2026 17.9928 81.7177
v  3.2026 137.5422 81.7177
v  3.2026 127.8018 81.7177
v  3.2026 127.8018 9.8582
v  3.2026 137.5422 9.8582
v  -0.0176 111.3117 0.0930
v  3.2026 111.3117 0.0930
v  0.3197 17.9928 9.8582
v  0.3197 17.9928 81.7177
v  0.3197 127.8018 81.7177
v  0.3197 127.8018 9.8582
v  0.3197 137.5422 9.8582
v  0.3197 181.2654 9.8582
v  -0.0176 191.0691 0.0930
v  0.3197 181.2653 81.7177
v  3.2026 137.5420 0.0930
v  -0.0176 127.8020 91.5330
v  -0.0176 34.1374 91.5329
v  3.2026 34.1374 91.5329
v  3.2026 127.8020 91.5330
v  -0.0176 137.5420 0.0930
v  3.2026 127.8020 0.0930
v  -0.0176 127.8020 0.0930
v  3.2026 111.3117 9.8582
v  0.3197 111.3117 9.8582
v  3.2026 34.1374 81.7177
v  0.3197 137.5422 81.7177
v  0.3197 34.1374 81.7177
v  -0.0176 137.5420 -44.5379
v  2.0000 137.5422 -44.5380
v  2.0000 181.2654 -44.5380
v  -0.0176 181.2650 -44.5379
v  2.0000 181.2654 -47.0380
v  2.0000 137.5422 -47.0380
v  0.3197 181.2654 -47.0380
v  0.3197 137.5422 -47.0380
v  -0.0176 137.5420 -63.1279
v  2.0000 137.5422 -63.1280
v  2.0000 181.2654 -63.1280
v  -0.0176 181.2650 -63.1279
v  2.0000 181.2654 -65.6280
v  2.0000 137.5422 -65.6280
v  0.3197 181.2654 -65.6280
v  0.3197 137.5422 -65.6280
v  -0.0176 137.5420 -25.9479
v  2.0000 137.5422 -25.9480
v  2.0000 181.2654 -25.9480
v  -0.0176 181.2650 -25.9479
v  2.0000 181.2654 -28.4480
v  2.0000 137.5422 -28.4480
v  0.3197 181.2654 -28.4480
v  0.3197 137.5422 -28.4480
v  -0.0176 137.5420 47.0381
v  2.0000 137.5422 47.0380
v  2.0000 181.2654 47.0380
v  -0.0176 181.2650 47.0381
v  2.0000 181.2654 44.5380
v  2.0000 137.5422 44.5380
v  0.3197 181.2654 44.5380
v  0.3197 137.5422 44.5380
v  -0.0176 137.5420 28.4481
v  2.0000 137.5422 28.4480
v  2.0000 181.2654 28.4480
v  -0.0176 181.2650 28.4481
v  2.0000 181.2654 25.9480
v  2.0000 137.5422 25.9480
v  0.3197 181.2654 25.9480
v  0.3197 137.5422 25.9480
v  -0.0176 137.5420 65.6281
v  2.0000 137.5422 65.6280
v  2.0000 181.2654 65.6280
v  -0.0176 181.2650 65.6281
v  2.0000 181.2654 63.1280
v  2.0000 137.5422 63.1280
v  0.3197 181.2654 63.1280
v  0.3197 137.5422 63.1280
# 128 vertices

vn 0.0000 -1.0000 -0.0000
vn 0.0000 0.0000 1.0000
vn 0.9996 0.0290 -0.0000
vn 1.0000 0.0000 -0.0000
vn 0.0000 0.0000 -1.0000
vn 0.0000 1.0000 -0.0000
vn 0.0000 1.0000 0.0000
vn 0.0000 -0.0000 1.0000
vn 0.0000 0.6087 -0.7934
vn 0.0000 -0.6101 0.7923
vn 0.0000 -0.6101 -0.7923
vn 0.0000 0.6087 0.7934
vn 0.0001 0.0000 1.0000
# 13 vertex normals

vt 1.7153 -2.0269 0.0000
vt 1.7153 0.5548 0.0000
vt 1.6244 0.5548 0.0000
vt 1.6244 -2.0269 0.0000
vt 1.0552 1.6805 0.0000
vt 1.1461 1.6805 0.0000
vt 1.1461 3.1918 0.0000
vt 1.0552 3.1918 0.0000
vt 2.2696 0.9694 0.0000
vt 2.5464 0.6923 0.0000
vt 2.5464 3.2740 0.0000
vt 2.2696 2.9983 0.0000
vt 1.9921 -1.7498 0.0000
vt 1.9921 0.2791 0.0000
vt 3.1309 -0.0619 0.0000
vt 2.8559 -0.0619 0.0000
vt 2.8559 -2.0908 0.0000
vt 3.1309 -2.0908 0.0000
vt 0.3840 -1.9985 0.0000
vt 0.3840 -1.2659 0.0000
vt 0.2931 -1.2659 0.0000
vt 0.2931 -1.9985 0.0000
vt 1.5032 0.9399 0.0000
vt 1.4218 0.9399 0.0000
vt 1.4218 -1.6949 0.0000
vt 1.5032 -1.6949 0.0000
vt 2.0735 -1.7498 0.0000
vt 2.0735 0.2791 0.0000
vt 2.7745 -0.0619 0.0000
vt 2.7745 -2.0908 0.0000
vt -0.0655 1.6537 0.0000
vt 0.0159 1.6537 0.0000
vt 0.0159 2.8882 0.0000
vt -0.0655 2.8882 0.0000
vt 2.6373 0.6923 0.0000
vt 2.6373 3.2740 0.0000
vt 2.1882 0.9694 0.0000
vt 2.1882 2.9983 0.0000
vt 3.2123 -2.0908 0.0000
vt 3.2123 -0.0619 0.0000
vt 1.4218 2.9150 0.0000
vt 1.4218 1.6805 0.0000
vt 0.2931 1.6537 0.0000
vt 0.2931 3.1650 0.0000
vt 1.0551 -1.9717 0.0000
vt 1.1461 -1.9717 0.0000
vt 1.1461 0.9399 0.0000
vt 1.0551 0.9399 0.0000
vt 0.3840 1.6537 0.0000
vt 0.2931 1.3787 0.0000
vt 0.3840 1.3787 0.0000
vt -0.0655 1.3787 0.0000
vt -0.0655 -1.2659 0.0000
vt 0.0159 -1.2659 0.0000
vt 0.0159 1.3787 0.0000
vt 0.0159 -1.7217 0.0000
vt 1.5032 2.9150 0.0000
vt 1.5032 1.6805 0.0000
vt 1.0552 1.4055 0.0000
vt 1.1461 1.4055 0.0000
vt 1.4218 1.4054 0.0000
vt 0.3840 3.1650 0.0000
vt 1.7153 0.6924 0.0000
vt 1.7153 3.2741 0.0000
vt 1.6244 3.2741 0.0000
vt 1.6244 0.6924 0.0000
vt 0.5053 1.6542 0.0000
vt 0.5962 1.6542 0.0000
vt 0.5962 3.1655 0.0000
vt 0.5053 3.1655 0.0000
vt 2.2696 -1.7511 0.0000
vt 2.5464 -2.0268 0.0000
vt 2.5464 0.5549 0.0000
vt 2.2696 0.2778 0.0000
vt 1.9921 0.9681 0.0000
vt 1.9921 2.9970 0.0000
vt 3.1309 2.1466 0.0000
vt 2.8559 2.1466 0.0000
vt 2.8559 0.1177 0.0000
vt 3.1309 0.1177 0.0000
vt -0.1571 0.9397 0.0000
vt -0.2481 0.9397 0.0000
vt -0.2480 -1.9719 0.0000
vt -0.1571 -1.9719 0.0000
vt 2.0735 0.9681 0.0000
vt 2.0735 2.9970 0.0000
vt 2.7745 2.1466 0.0000
vt 2.7745 0.1177 0.0000
vt -0.6052 1.6803 0.0000
vt -0.5238 1.6803 0.0000
vt -0.5238 2.9148 0.0000
vt -0.6052 2.9148 0.0000
vt 2.6373 -2.0268 0.0000
vt 2.6373 0.5549 0.0000
vt 2.1882 -1.7511 0.0000
vt 2.1882 0.2778 0.0000
vt -0.2481 1.6803 0.0000
vt -0.2481 3.1916 0.0000
vt 0.8734 2.8887 0.0000
vt 0.8734 1.6542 0.0000
vt 0.5053 1.3792 0.0000
vt 0.5053 -1.2654 0.0000
vt 0.5962 -1.2654 0.0000
vt 0.5962 1.3792 0.0000
vt -0.1571 1.6803 0.0000
vt -0.2481 1.4053 0.0000
vt -0.1571 1.4053 0.0000
vt -0.6052 -1.6951 0.0000
vt -0.5238 -1.6951 0.0000
vt -0.5238 0.9397 0.0000
vt -0.6052 0.9397 0.0000
vt 0.8733 -1.2654 0.0000
vt 0.8733 1.3792 0.0000
vt 0.9548 2.8887 0.0000
vt 0.9548 1.6542 0.0000
vt -0.5238 1.4053 0.0000
vt -0.1571 3.1916 0.0000
vt 3.2123 0.1177 0.0000
vt 3.2123 2.1466 0.0000
vt 0.9547 1.3792 0.0000
vt 0.9547 -1.2654 0.0000
vt 0.5053 -1.9980 0.0000
vt 0.5962 -1.9980 0.0000
vt 0.8733 -1.7212 0.0000
vt 3.7719 1.5909 0.0000
vt 3.6905 1.5912 0.0000
vt 3.6811 -1.7420 0.0000
vt 3.7625 -1.7422 0.0000
vt 3.4061 1.2226 0.0000
vt 3.4026 -2.1029 0.0000
vt 3.3247 1.2227 0.0000
vt 3.3212 -2.1028 0.0000
vt 4.2568 -2.0968 0.0000
vt 4.3382 -2.0966 0.0000
vt 4.3333 1.2288 0.0000
vt 4.2519 1.2287 0.0000
vt 3.8968 -1.7363 0.0000
vt 3.9782 -1.7360 0.0000
vt 3.9673 1.5972 0.0000
vt 3.8859 1.5969 0.0000
vt 4.2631 2.4133 0.0000
vt 4.3201 2.4133 0.0000
vt 4.3201 3.6478 0.0000
vt 4.2631 3.6478 0.0000
vt 4.3907 3.6478 0.0000
vt 4.3907 2.4133 0.0000
vt 4.4381 3.6478 0.0000
vt 4.4381 2.4133 0.0000
vt 4.6197 2.4016 0.0000
vt 4.6766 2.4016 0.0000
vt 4.6766 3.6361 0.0000
vt 4.6197 3.6361 0.0000
vt 4.7472 3.6361 0.0000
vt 4.7472 2.4016 0.0000
vt 4.7947 3.6361 0.0000
vt 4.7947 2.4016 0.0000
vt 3.9204 2.4024 0.0000
vt 3.9773 2.4024 0.0000
vt 3.9773 3.6369 0.0000
vt 3.9204 3.6369 0.0000
vt 4.0479 3.6369 0.0000
vt 4.0479 2.4024 0.0000
vt 4.0954 3.6369 0.0000
vt 4.0954 2.4024 0.0000
vt 3.1724 2.4133 0.0000
vt 3.2293 2.4133 0.0000
vt 3.2293 3.6478 0.0000
vt 3.1724 3.6478 0.0000
vt 3.2999 3.6478 0.0000
vt 3.2999 2.4133 0.0000
vt 3.3474 3.6478 0.0000
vt 3.3474 2.4133 0.0000
vt 3.5283 2.4017 0.0000
vt 3.5853 2.4017 0.0000
vt 3.5853 3.6362 0.0000
vt 3.5283 3.6361 0.0000
vt 3.6559 3.6362 0.0000
vt 3.6559 2.4017 0.0000
vt 3.7033 3.6362 0.0000
vt 3.7033 2.4017 0.0000
vt 2.8301 2.4024 0.0000
vt 2.8871 2.4024 0.0000
vt 2.8871 3.6369 0.0000
vt 2.8301 3.6369 0.0000
vt 2.9577 3.6369 0.0000
vt 2.9577 2.4024 0.0000
vt 3.0051 3.6369 0.0000
vt 3.0051 2.4024 0.0000
# 188 texture coords

g 6x6_transom_door
usemtl None
s 1
f 1/1/1 2/2/1 3/3/1 4/4/1 
s 2
f 5/5/2 6/6/2 7/7/2 8/8/2 
s 4
f 9/9/3 10/10/3 7/11/3 11/12/4 
f 2/2/4 1/1/4 12/13/4 13/14/4 
f 14/15/4 15/16/4 16/17/4 17/18/4 
s 2
f 4/19/5 18/20/5 19/21/5 1/22/5 
s 1
f 20/23/5 21/24/5 13/25/5 22/26/5 
s 2
f 13/14/6 12/13/6 23/27/6 22/28/6 
f 16/17/1 15/16/1 24/29/1 25/30/1 
s 1
f 26/31/2 17/32/2 9/33/2 27/34/2 
f 7/11/6 10/10/6 28/35/6 8/36/6 
s 2
f 27/37/1 9/9/1 11/12/1 29/38/1 
f 26/39/6 30/40/6 14/15/6 17/18/6 
s 4
f 11/41/4 7/7/4 6/6/4 14/42/4 
f 9/33/4 17/32/4 31/43/4 10/44/4 
s 2
f 3/45/2 2/46/2 32/47/2 33/48/2 
f 34/49/5 31/43/5 35/50/5 36/51/5 
s 1
f 25/52/2 37/53/2 38/54/2 16/55/2 
s 4
f 32/47/4 2/46/4 13/25/4 21/24/4 
f 19/21/4 38/54/4 12/56/4 1/22/4 
s 1
f 29/57/5 11/41/5 14/42/5 30/58/5 
s 2
f 39/59/2 40/60/2 6/6/2 5/5/2 
s 4
f 6/6/4 40/60/4 15/61/4 14/42/4 
f 17/32/4 16/55/4 35/50/4 31/43/4 
s 2
f 28/62/5 10/44/5 31/43/5 34/49/5 
s 1
f 41/63/1 42/64/1 43/65/1 44/66/1 
s 2
f 45/67/2 46/68/2 47/69/2 48/70/2 
s 4
f 49/71/4 50/72/4 47/73/4 51/74/4 
f 42/64/4 41/63/4 52/75/4 53/76/4 
f 54/77/4 55/78/4 56/79/4 57/80/4 
s 2
f 58/81/5 59/82/5 41/83/5 44/84/5 
f 53/76/6 52/75/6 60/85/6 61/86/6 
f 56/79/1 55/78/1 62/87/1 63/88/1 
s 1
f 64/89/2 57/90/2 49/91/2 65/92/2 
f 47/73/7 50/72/7 66/93/7 48/94/7 
s 2
f 65/95/1 49/71/1 51/74/1 67/96/1 
s 4
f 49/91/4 57/90/4 68/97/4 50/98/4 
f 51/99/4 47/69/4 46/68/4 54/100/4 
s 2
f 69/101/8 70/102/8 71/103/8 72/104/8 
f 73/105/5 68/97/5 74/106/5 75/107/5 
s 1
f 60/108/2 52/109/2 76/110/2 77/111/2 
s 4
f 76/110/4 52/109/4 41/83/4 59/82/4 
f 72/104/4 71/103/4 78/112/4 55/113/4 
s 1
f 67/114/5 51/99/5 54/100/5 79/115/5 
s 2
f 69/101/8 72/104/8 46/68/2 45/67/2 
s 4
f 57/90/4 56/116/4 74/106/4 68/97/4 
f 46/68/4 72/104/4 55/113/4 54/100/4 
s 2
f 66/117/5 50/98/5 68/97/5 73/105/5 
f 64/118/6 79/119/6 54/77/6 57/80/6 
f 40/60/2 39/59/2 33/48/2 32/47/2 
s 4
f 21/24/4 15/61/4 40/60/4 32/47/4 
s 2
f 75/107/5 74/106/5 59/82/5 58/81/5 
s 4
f 74/106/4 56/116/4 76/110/4 59/82/4 
s 2
f 36/51/5 35/50/5 19/21/5 18/20/5 
s 4
f 35/50/4 16/55/4 38/54/4 19/21/4 
s 1
f 62/120/5 55/113/5 78/112/5 80/121/5 
s 2
f 43/122/8 42/123/8 71/103/8 70/102/8 
s 4
f 71/103/4 42/123/4 53/124/4 78/112/4 
s 8
f 24/125/9 15/126/9 38/127/9 37/128/9 
s 16
f 15/126/4 21/129/4 12/130/4 38/127/4 
s 8
f 21/129/10 20/131/10 23/132/10 12/130/10 
f 53/133/11 61/134/11 77/135/11 76/136/11 
f 80/137/12 78/138/12 56/139/12 63/140/12 
s 16
f 78/138/4 53/133/4 76/136/4 56/139/4 
s 2
f 81/141/13 82/142/13 83/143/13 84/144/13 
s 4
f 85/145/4 83/143/4 82/142/4 86/146/4 
s 1
f 87/147/5 85/145/5 86/146/5 88/148/5 
s 2
f 89/149/13 90/150/13 91/151/13 92/152/13 
s 4
f 93/153/4 91/151/4 90/150/4 94/154/4 
s 1
f 95/155/5 93/153/5 94/154/5 96/156/5 
s 2
f 97/157/13 98/158/13 99/159/13 100/160/13 
s 4
f 101/161/4 99/159/4 98/158/4 102/162/4 
s 1
f 103/163/5 101/161/5 102/162/5 104/164/5 
s 2
f 105/165/13 106/166/13 107/167/13 108/168/13 
s 4
f 109/169/4 107/167/4 106/166/4 110/170/4 
s 1
f 111/171/5 109/169/5 110/170/5 112/172/5 
s 2
f 113/173/13 114/174/13 115/175/13 116/176/13 
s 4
f 117/177/4 115/175/4 114/174/4 118/178/4 
s 1
f 119/179/5 117/177/5 118/178/5 120/180/5 
s 2
f 121/181/13 122/182/13 123/183/13 124/184/13 
s 4
f 125/185/4 123/183/4 122/182/4 126/186/4 
s 1
f 127/187/5 125/185/5 126/186/5 128/188/5 
# 82 polygons

