# 3ds Max Wavefront OBJ Exporter v0.97b - (c)2007 guruware
# File Created: 15.02.2018 16:18:27

mtllib 6x6 Double wood door (Arch Top Trim).mtl

#
# object 4__Shed_Door
#

v  3.0000 186.7212 98.3729
v  3.0000 186.7212 91.7310
v  3.0000 193.1369 91.7310
v  3.0000 193.1369 98.3724
v  3.0000 186.7212 -91.7310
v  3.0000 193.1369 -91.7310
v  3.0000 0.0004 -98.3725
v  3.0000 186.7212 -98.3725
v  3.0000 0.0004 -91.7310
v  3.0000 0.0004 98.3729
v  3.0000 0.0004 91.7310
v  3.0000 193.1369 -98.3720
v  -0.0000 0.0004 98.3729
v  -0.0000 186.7212 98.3729
v  -0.0000 186.7213 99.8729
v  3.0000 186.7213 99.8729
v  3.0000 193.1370 99.8724
v  -0.0000 193.1370 99.8724
v  -0.0000 193.1369 98.3724
v  -0.0000 193.1369 91.7310
v  0.0000 193.1369 -91.7310
v  0.0000 193.1369 -98.3720
v  0.0000 193.1370 -99.8720
v  3.0000 193.1370 -99.8720
v  3.0000 186.7213 -99.8725
v  0.0000 186.7213 -99.8725
v  0.0000 186.7212 -98.3725
v  0.0000 0.0004 -98.3725
v  0.0000 0.0004 -91.7310
v  0.0000 186.7212 -91.7310
v  -0.0000 186.7212 91.7310
v  -0.0000 0.0004 91.7310
v  2.9993 101.0411 -91.4725
v  2.9993 101.0411 -85.1973
v  2.9993 87.7499 -85.1974
v  2.9993 87.7499 -91.4725
v  2.9993 179.9044 -6.4077
v  2.9993 179.5875 -22.2951
v  2.9993 186.4525 -22.2951
v  2.9993 186.4525 -6.4077
v  2.9993 101.0411 -6.4077
v  2.9993 179.9045 -0.1326
v  2.9993 101.0411 -0.1326
v  2.9993 87.7499 -0.1326
v  2.9993 17.2476 -0.1326
v  2.9993 17.2476 -6.4077
v  2.9993 87.7499 -6.4077
v  2.9993 17.2476 -85.1974
v  2.9993 17.2476 -91.4725
v  2.9993 172.7045 -91.4725
v  2.9993 172.7045 -85.1973
v  2.9993 3.5197 -85.1974
v  2.9993 3.5197 -6.4077
v  2.9993 186.4525 -0.1326
v  2.9993 3.5197 -91.4725
v  0.0000 3.5197 -91.4725
v  0.0000 3.5197 -85.1974
v  -0.0000 3.5197 -6.4077
v  2.9993 3.5197 -0.1326
v  -0.0000 3.5197 -0.1326
v  -0.0000 17.2476 -0.1326
v  -0.0000 87.7499 -0.1326
v  -0.0000 101.0411 -0.1326
v  -0.0000 179.9045 -0.1326
v  -0.0000 186.4525 -0.1326
v  -0.0000 186.4525 -6.4077
v  -0.0000 186.4525 -22.2951
v  0.0000 186.4525 -85.1974
v  2.9993 186.4525 -85.1974
v  2.9993 186.4525 -91.4725
v  0.0000 186.4525 -91.4725
v  0.0000 172.7045 -91.4725
v  0.0000 101.0411 -91.4725
v  0.0000 87.7499 -91.4725
v  0.0000 17.2476 -91.4725
v  -0.0000 17.2476 -6.4077
v  0.0000 17.2476 -85.1974
v  0.0000 87.7499 -85.1974
v  2.9993 174.8265 -77.2536
v  0.0000 174.8265 -77.2536
v  0.0000 172.7045 -85.1973
v  -0.0000 179.9044 -6.4077
v  -0.0000 101.0411 -6.4077
v  0.0000 101.0411 -85.1973
v  -0.0000 87.7499 -6.4077
v  2.9993 179.2416 -36.1252
v  2.9993 186.4525 -36.0348
v  0.0000 186.4525 -36.0348
v  -0.0000 179.5875 -22.2951
v  2.9993 176.1332 -70.4986
v  0.0000 176.1332 -70.4986
v  2.9993 186.4525 -77.2537
v  0.0000 186.4525 -77.2537
v  2.9993 177.8232 -56.8131
v  0.0000 177.8232 -56.8131
v  0.0000 177.0523 -63.6733
v  2.9993 177.0523 -63.6733
v  2.9993 186.4525 -70.3838
v  2.9993 186.4525 -63.5140
v  0.0000 186.4525 -70.3838
v  0.0000 186.4525 -63.5140
v  2.9993 178.5209 -49.9343
v  2.9993 186.4525 -56.6442
v  2.9993 186.4525 -49.7744
v  0.0000 186.4525 -56.6442
v  0.0000 186.4525 -49.7744
v  0.0000 179.2416 -36.1252
v  0.0000 178.5209 -49.9343
v  2.9992 101.0411 91.4725
v  2.9992 87.7499 91.4725
v  2.9992 87.7499 85.1974
v  2.9992 101.0411 85.1973
v  2.9993 179.9044 6.4077
v  2.9993 186.4525 6.4077
v  2.9993 186.4525 22.2951
v  2.9993 179.5875 22.2951
v  2.9993 101.0411 6.4077
v  2.9993 101.0411 0.1326
v  2.9993 179.9045 0.1326
v  2.9993 87.7499 0.1326
v  2.9993 87.7499 6.4077
v  2.9993 17.2476 6.4077
v  2.9993 17.2476 0.1326
v  2.9992 17.2476 91.4725
v  2.9992 17.2476 85.1974
v  2.9992 172.7045 85.1973
v  2.9992 172.7045 91.4725
v  2.9992 3.5197 85.1974
v  2.9993 3.5197 6.4077
v  2.9993 186.4525 0.1326
v  2.9992 3.5197 91.4725
v  -0.0000 3.5197 91.4725
v  -0.0000 3.5197 85.1974
v  -0.0000 3.5197 6.4077
v  -0.0000 3.5197 0.1326
v  2.9993 3.5197 0.1326
v  -0.0000 17.2476 0.1326
v  0.0000 87.7499 0.1326
v  0.0000 101.0411 0.1326
v  0.0000 179.9045 0.1326
v  0.0000 186.4525 0.1326
v  0.0000 186.4525 6.4077
v  -0.0000 186.4525 22.2951
v  -0.0000 186.4525 85.1974
v  -0.0000 186.4525 91.4725
v  2.9992 186.4525 91.4725
v  2.9992 186.4525 85.1974
v  -0.0000 172.7045 91.4725
v  -0.0000 101.0411 91.4725
v  -0.0000 87.7499 91.4725
v  -0.0000 17.2476 91.4725
v  -0.0000 17.2476 6.4077
v  -0.0000 17.2476 85.1974
v  -0.0000 87.7499 85.1974
v  -0.0000 172.7045 85.1973
v  -0.0000 174.8265 77.2536
v  2.9992 174.8265 77.2536
v  0.0000 179.9044 6.4077
v  0.0000 101.0411 6.4077
v  -0.0000 101.0411 85.1973
v  -0.0000 87.7499 6.4077
v  2.9993 186.4525 36.0348
v  2.9993 179.2416 36.1252
v  -0.0000 186.4525 36.0348
v  -0.0000 179.5875 22.2951
v  2.9993 176.1332 70.4986
v  -0.0000 176.1332 70.4986
v  2.9992 186.4525 77.2537
v  -0.0000 186.4525 77.2537
v  2.9993 177.8232 56.8131
v  2.9993 177.0523 63.6733
v  -0.0000 177.0523 63.6733
v  -0.0000 177.8232 56.8131
v  2.9993 186.4525 63.5140
v  2.9993 186.4525 70.3838
v  -0.0000 186.4525 63.5140
v  -0.0000 186.4525 70.3838
v  2.9993 178.5209 49.9343
v  2.9993 186.4525 49.7744
v  2.9993 186.4525 56.6442
v  -0.0000 186.4525 49.7744
v  -0.0000 186.4525 56.6442
v  -0.0000 178.5209 49.9343
v  -0.0000 179.2416 36.1252
# 184 vertices

vn 1.0000 0.0000 0.0000
vn 1.0000 -0.0000 0.0000
vn 1.0000 0.0000 -0.0000
vn -0.0000 0.0000 1.0000
vn -0.0000 0.0001 1.0000
vn 0.0000 1.0000 -0.0000
vn -0.0000 1.0000 0.0000
vn 0.0000 0.0001 -1.0000
vn 0.0000 0.0000 -1.0000
vn 0.0000 -1.0000 -0.0000
vn 0.0000 1.0000 -0.0001
vn -0.0000 -1.0000 0.0001
vn 0.0000 -1.0000 -0.0001
vn -0.0000 1.0000 0.0001
vn -0.0000 -0.0000 1.0000
vn -0.0000 0.7071 -0.7071
vn -0.0000 0.7071 0.7071
vn -0.0000 -0.7071 0.7071
vn -0.0000 -0.9661 0.2581
vn -0.0000 -0.9746 0.2241
vn -0.0000 0.0000 -1.0000
vn -0.0000 1.0000 -0.0000
vn -0.0000 -0.7071 -0.7071
vn 0.0000 -0.9998 0.0199
vn -0.0000 -0.9997 0.0225
vn -0.0000 -0.9868 0.1618
vn -0.0000 -0.9943 0.1063
vn -0.0000 -0.9925 0.1226
vn -0.0000 -0.9993 0.0386
vn -0.0000 -0.9971 0.0765
vn 0.0000 -0.0000 -1.0000
vn 0.0000 0.7071 -0.7071
vn 0.0000 -0.7071 -0.7071
vn 0.0000 -0.9661 -0.2581
vn 0.0000 -0.9746 -0.2241
vn 0.0000 -0.9998 -0.0199
vn 0.0000 -0.9997 -0.0225
vn 0.0000 -0.9868 -0.1618
vn 0.0000 -0.9943 -0.1063
vn 0.0000 -0.9925 -0.1226
vn 0.0000 -0.9993 -0.0386
vn 0.0000 -0.9971 -0.0765
# 42 vertex normals

vt -1.3778 -2.4433 0.0000
vt -1.3778 -2.2327 0.0000
vt -1.5812 -2.2327 0.0000
vt -1.5812 -2.4433 0.0000
vt -1.3778 3.5840 0.0000
vt -1.5812 3.5840 0.0000
vt -1.8591 -2.3242 0.0000
vt -1.8591 3.5958 0.0000
vt -2.0696 3.5958 0.0000
vt -2.0696 -2.3242 0.0000
vt -2.5739 -2.3242 0.0000
vt -2.3633 -2.3242 0.0000
vt -2.3633 3.5958 0.0000
vt -2.5739 3.5958 0.0000
vt -1.3778 3.7945 0.0000
vt -1.5812 3.7945 0.0000
vt -2.6691 -2.3242 0.0000
vt -2.6691 3.5958 0.0000
vt -1.3778 -2.5860 0.0000
vt -1.3778 -2.4908 0.0000
vt -1.5812 -2.4908 0.0000
vt -1.5812 -2.5860 0.0000
vt -1.6763 -2.4433 0.0000
vt -1.6763 -2.2327 0.0000
vt -1.6763 3.5840 0.0000
vt -1.6763 3.7945 0.0000
vt -1.5812 3.9372 0.0000
vt -1.5812 3.8421 0.0000
vt -1.3778 3.8421 0.0000
vt -1.3778 3.9372 0.0000
vt -1.7640 3.5958 0.0000
vt -1.7640 -2.3242 0.0000
vt -1.8591 -2.4193 0.0000
vt -2.0696 -2.4193 0.0000
vt -2.1648 -2.3242 0.0000
vt -2.1648 3.5958 0.0000
vt -1.2827 3.5840 0.0000
vt -1.2827 -2.2327 0.0000
vt -2.2682 3.5958 0.0000
vt -2.2682 -2.3242 0.0000
vt -2.3634 -2.4193 0.0000
vt -2.5739 -2.4193 0.0000
vt -1.6763 -2.4908 0.0000
vt -1.2827 -2.4433 0.0000
vt -1.2827 -2.4908 0.0000
vt -1.2827 3.7946 0.0000
vt -1.2827 3.8421 0.0000
vt -1.6763 3.8421 0.0000
vt 0.1560 0.7836 0.0000
vt -0.0430 0.7836 0.0000
vt -0.0430 0.3622 0.0000
vt 0.1560 0.3622 0.0000
vt 1.2496 -2.4524 0.0000
vt 1.2535 -1.9485 0.0000
vt 1.0378 -1.9487 0.0000
vt 1.0402 -2.4527 0.0000
vt -0.8792 0.7829 0.0000
vt -0.8792 3.2833 0.0000
vt -1.0782 3.2833 0.0000
vt -1.0782 0.7829 0.0000
vt -1.0782 0.3615 0.0000
vt -1.0782 -1.8737 0.0000
vt -0.8792 -1.8737 0.0000
vt -0.8792 0.3615 0.0000
vt -0.0430 -1.8731 0.0000
vt 0.1560 -1.8731 0.0000
vt 0.1560 3.0556 0.0000
vt -0.0430 3.0556 0.0000
vt 2.1787 0.7924 0.0000
vt 2.1787 3.2904 0.0000
vt 1.7573 3.2904 0.0000
vt 1.7573 0.7924 0.0000
vt 1.7900 -2.2130 0.0000
vt 2.2252 -2.2130 0.0000
vt 2.2252 0.2850 0.0000
vt 1.7900 0.2850 0.0000
vt 1.0404 -2.6515 0.0000
vt 1.2482 -2.6516 0.0000
vt 1.7900 -2.4119 0.0000
vt 2.2252 -2.4119 0.0000
vt 1.6949 -2.4119 0.0000
vt 1.6949 -2.2130 0.0000
vt 1.6949 0.2850 0.0000
vt 1.7900 0.4840 0.0000
vt 1.6949 0.4840 0.0000
vt 1.7900 0.5791 0.0000
vt 2.2252 0.4840 0.0000
vt 2.2252 0.5791 0.0000
vt -1.1733 -1.8737 0.0000
vt -1.1733 0.3615 0.0000
vt -1.1733 0.7829 0.0000
vt -1.1733 3.2833 0.0000
vt 1.2481 -2.7466 0.0000
vt 1.0405 -2.7466 0.0000
vt 0.9449 -2.6515 0.0000
vt 0.9444 -2.4525 0.0000
vt 0.9435 -1.9485 0.0000
vt 0.9430 0.0486 0.0000
vt 1.0380 0.0487 0.0000
vt 1.0376 0.2479 0.0000
vt 0.9428 0.2477 0.0000
vt 1.0376 0.3433 0.0000
vt 1.4734 0.2485 0.0000
vt 1.4735 0.3433 0.0000
vt 0.2511 3.0556 0.0000
vt 0.2511 0.7836 0.0000
vt 0.2511 0.3622 0.0000
vt 0.2511 -1.8731 0.0000
vt 2.2252 -2.5070 0.0000
vt 1.7900 -2.5070 0.0000
vt 2.3203 0.2850 0.0000
vt 2.3203 -2.2130 0.0000
vt -0.1380 -1.8731 0.0000
vt -0.1381 0.3622 0.0000
vt 1.4735 0.0503 0.0000
vt 1.4077 -0.2025 0.0000
vt 1.5008 -0.2232 0.0000
vt 1.5652 0.0275 0.0000
vt -0.7841 3.2833 0.0000
vt -0.7841 0.7829 0.0000
vt -0.1381 0.7836 0.0000
vt -0.1381 3.0556 0.0000
vt 1.6622 0.7924 0.0000
vt 1.6622 3.2904 0.0000
vt -0.7841 0.3615 0.0000
vt -0.7841 -1.8737 0.0000
vt 2.2738 3.2904 0.0000
vt 2.2738 0.7924 0.0000
vt 1.2663 -1.5098 0.0000
vt 1.0379 -1.5124 0.0000
vt 0.9430 -1.5125 0.0000
vt 1.3469 -2.4529 0.0000
vt 1.3475 -1.9501 0.0000
vt 1.3660 -0.4180 0.0000
vt 1.4598 -0.4337 0.0000
vt 1.0385 -0.2035 0.0000
vt 0.9432 -0.2035 0.0000
vt 1.3114 -0.8528 0.0000
vt 1.4058 -0.8627 0.0000
vt 1.4303 -0.6471 0.0000
vt 1.3361 -0.6351 0.0000
vt 1.0385 -0.4216 0.0000
vt 1.0382 -0.6398 0.0000
vt 0.9433 -0.4216 0.0000
vt 0.9432 -0.6398 0.0000
vt 1.2898 -1.0714 0.0000
vt 1.0381 -0.8581 0.0000
vt 1.0381 -1.0764 0.0000
vt 0.9430 -0.8581 0.0000
vt 0.9430 -1.0764 0.0000
vt 1.3613 -1.5138 0.0000
vt 1.3848 -1.0786 0.0000
vt 0.4594 0.7836 0.0000
vt 0.4594 0.3622 0.0000
vt 0.6583 0.3622 0.0000
vt 0.6583 0.7836 0.0000
vt 1.1038 0.7828 0.0000
vt 1.3113 0.7782 0.0000
vt 1.3220 1.2817 0.0000
vt 1.1042 1.2868 0.0000
vt -0.5718 0.7830 0.0000
vt -0.3729 0.7829 0.0000
vt -0.3729 3.2833 0.0000
vt -0.5718 3.2833 0.0000
vt -0.3729 0.3615 0.0000
vt -0.5718 0.3615 0.0000
vt -0.5718 -1.8737 0.0000
vt -0.3729 -1.8737 0.0000
vt 0.4594 -1.8730 0.0000
vt 0.6583 -1.8730 0.0000
vt 0.6583 3.0557 0.0000
vt 0.4594 3.0557 0.0000
vt 2.5849 0.8053 0.0000
vt 3.0063 0.8053 0.0000
vt 3.0063 3.3033 0.0000
vt 2.5849 3.3033 0.0000
vt 2.9867 -2.2130 0.0000
vt 2.9867 0.2851 0.0000
vt 2.5514 0.2850 0.0000
vt 2.5514 -2.2130 0.0000
vt 1.0993 0.5839 0.0000
vt 1.3069 0.5793 0.0000
vt 2.5514 -2.4119 0.0000
vt 2.9867 -2.4119 0.0000
vt 3.0818 -2.4119 0.0000
vt 3.0818 -2.2130 0.0000
vt 3.0818 0.2851 0.0000
vt 3.0818 0.4840 0.0000
vt 2.9867 0.4840 0.0000
vt 2.9867 0.5791 0.0000
vt 2.5514 0.5791 0.0000
vt 2.5514 0.4840 0.0000
vt -0.2778 -1.8737 0.0000
vt -0.2778 0.3615 0.0000
vt -0.2778 0.7829 0.0000
vt -0.2778 3.2833 0.0000
vt 1.0972 0.4889 0.0000
vt 1.3047 0.4842 0.0000
vt 1.4019 0.5772 0.0000
vt 1.4063 0.7761 0.0000
vt 1.4171 1.2794 0.0000
vt 1.4507 3.2814 0.0000
vt 1.4510 3.4805 0.0000
vt 1.3562 3.4808 0.0000
vt 1.3558 3.2814 0.0000
vt 1.3563 3.5764 0.0000
vt 0.9204 3.5764 0.0000
vt 0.9205 3.4817 0.0000
vt 0.3643 3.0557 0.0000
vt 0.3643 0.7836 0.0000
vt 0.3643 0.3622 0.0000
vt 0.3643 -1.8730 0.0000
vt 2.5514 -2.5070 0.0000
vt 2.9867 -2.5070 0.0000
vt 2.4563 0.2850 0.0000
vt 2.4563 -2.2130 0.0000
vt 0.7534 -1.8730 0.0000
vt 0.7534 0.3622 0.0000
vt 0.9203 3.2838 0.0000
vt 0.8287 3.2613 0.0000
vt 0.8928 3.0106 0.0000
vt 0.9859 3.0311 0.0000
vt -0.6669 3.2833 0.0000
vt -0.6669 0.7830 0.0000
vt 0.7534 0.7836 0.0000
vt 0.7534 3.0557 0.0000
vt 3.1014 0.8053 0.0000
vt 3.1014 3.3033 0.0000
vt -0.6669 0.3615 0.0000
vt -0.6669 -1.8737 0.0000
vt 2.4898 3.3033 0.0000
vt 2.4898 0.8053 0.0000
vt 1.3340 1.7172 0.0000
vt 1.1043 1.7258 0.0000
vt 1.4292 1.7147 0.0000
vt 1.0088 1.2867 0.0000
vt 1.0089 0.7829 0.0000
vt 1.0274 2.8158 0.0000
vt 0.9335 2.8004 0.0000
vt 1.3550 3.0291 0.0000
vt 1.4502 3.0290 0.0000
vt 1.0808 2.3820 0.0000
vt 1.0569 2.5991 0.0000
vt 0.9627 2.5875 0.0000
vt 0.9865 2.3730 0.0000
vt 1.3545 2.5920 0.0000
vt 1.3547 2.8107 0.0000
vt 1.4493 2.5917 0.0000
vt 1.4498 2.8106 0.0000
vt 1.1008 2.1642 0.0000
vt 1.3517 2.1533 0.0000
vt 1.3537 2.3728 0.0000
vt 1.4473 2.1518 0.0000
vt 1.4484 2.3724 0.0000
vt 1.0069 2.1595 0.0000
vt 1.0082 1.7249 0.0000
# 256 texture coords

g 4__Shed_Door
usemtl Material__27
s 1
f 1/1/1 2/2/1 3/3/1 4/4/1 
f 3/3/1 2/2/1 5/5/1 6/6/1 
f 7/7/2 8/8/1 5/9/1 9/10/2 
f 10/11/2 11/12/2 2/13/1 1/14/1 
f 6/6/1 5/5/1 8/15/1 12/16/3 
s 2
f 13/17/4 10/11/4 1/14/4 14/18/4 
f 15/19/5 16/20/5 17/21/5 18/22/5 
s 4
f 19/23/6 4/4/6 3/3/6 20/24/6 
f 20/24/6 3/3/6 6/6/6 21/25/6 
f 21/25/6 6/6/6 12/16/7 22/26/7 
s 2
f 23/27/8 24/28/8 25/29/8 26/30/8 
f 27/31/9 8/8/9 7/7/9 28/32/9 
s 4
f 28/33/10 7/7/10 9/10/10 29/34/10 
s 2
f 29/35/4 9/10/4 5/9/4 30/36/4 
s 4
f 30/37/10 5/5/10 2/2/10 31/38/10 
s 2
f 31/39/9 2/13/9 11/12/9 32/40/9 
s 4
f 32/41/10 11/12/10 10/11/10 13/42/10 
s 1
f 1/1/1 4/4/1 17/21/1 16/20/1 
s 4
f 4/4/6 19/23/6 18/43/11 17/21/11 
f 14/44/12 1/1/12 16/20/12 15/45/12 
s 1
f 12/16/3 8/15/1 25/29/3 24/28/3 
s 4
f 8/15/13 27/46/13 26/47/13 25/29/13 
f 22/26/7 12/16/7 24/28/14 23/48/14 
s 1
f 33/49/2 34/50/2 35/51/2 36/52/2 
f 37/53/2 38/54/2 39/55/2 40/56/2 
f 41/57/2 37/58/2 42/59/2 43/60/2 
f 44/61/2 45/62/2 46/63/2 47/64/2 
f 35/51/2 48/65/2 49/66/2 36/52/2 
f 33/49/2 50/67/2 51/68/2 34/50/2 
f 47/69/2 35/70/2 34/71/2 41/72/2 
f 52/73/2 48/74/2 46/75/2 53/76/2 
f 37/53/2 40/56/2 54/77/2 42/78/2 
f 48/74/2 52/73/2 55/79/2 49/80/2 
s 2
f 56/81/10 55/79/10 52/73/10 57/82/10 
f 57/82/10 52/73/10 53/76/10 58/83/10 
f 58/83/10 53/76/10 59/84/10 60/85/10 
s 4
f 60/86/4 59/84/4 45/87/4 61/88/4 
f 61/89/4 45/62/4 44/61/15 62/90/15 
f 62/90/15 44/61/15 43/60/15 63/91/15 
f 63/91/15 43/60/15 42/59/4 64/92/4 
f 64/93/4 42/78/4 54/77/4 65/94/4 
s 2
f 65/95/6 54/77/6 40/56/6 66/96/6 
f 40/56/6 39/55/6 67/97/6 66/96/6 
f 68/98/6 69/99/6 70/100/6 71/101/6 
s 4
f 71/102/9 70/100/9 50/103/9 72/104/9 
f 72/105/9 50/67/9 33/49/9 73/106/9 
f 73/106/9 33/49/9 36/52/9 74/107/9 
f 74/107/9 36/52/9 49/66/9 75/108/9 
f 75/109/9 49/80/9 55/79/9 56/110/9 
s 14
f 76/111/16 46/75/16 48/74/17 77/112/17 
f 77/113/17 48/65/17 35/51/18 78/114/18 
s 2
f 51/115/19 79/116/20 80/117/20 81/118/19 
s 4
f 82/119/21 37/58/21 41/57/21 83/120/21 
f 84/121/4 34/50/4 51/68/4 81/122/4 
s 2
f 83/123/22 41/72/22 34/71/6 84/124/6 
s 6
f 85/125/23 47/64/23 46/63/16 76/126/16 
s 14
f 78/127/18 35/70/18 47/69/23 85/128/23 
s 1
f 44/61/2 47/64/2 41/57/2 43/60/2 
f 70/100/2 69/99/2 51/115/2 50/103/2 
f 59/84/2 53/76/2 46/75/2 45/87/2 
f 38/54/2 86/129/2 87/130/2 39/55/2 
s 2
f 87/130/6 88/131/6 67/97/6 39/55/6 
f 37/53/24 82/132/24 89/133/25 38/54/25 
f 90/134/26 91/135/26 80/117/20 79/116/20 
s 1
f 79/116/2 51/115/2 69/99/2 92/136/2 
s 2
f 69/99/6 68/98/6 93/137/6 92/136/6 
f 94/138/27 95/139/27 96/140/28 97/141/28 
s 1
f 97/141/2 90/134/2 98/142/2 99/143/2 
s 2
f 98/142/6 100/144/6 101/145/6 99/143/6 
s 1
f 102/146/2 94/138/2 103/147/2 104/148/2 
s 2
f 103/147/6 105/149/6 106/150/6 104/148/6 
f 86/129/29 107/151/29 108/152/30 102/146/30 
s 1
f 86/129/2 102/146/2 104/148/2 87/130/2 
s 2
f 104/148/6 106/150/6 88/131/6 87/130/6 
f 38/54/25 89/133/25 107/151/29 86/129/29 
f 97/141/28 96/140/28 91/135/26 90/134/26 
s 1
f 90/134/2 79/116/2 92/136/2 98/142/2 
s 2
f 92/136/6 93/137/6 100/144/6 98/142/6 
f 102/146/30 108/152/30 95/139/27 94/138/27 
s 1
f 94/138/2 97/141/2 99/143/2 103/147/2 
s 2
f 99/143/6 101/145/6 105/149/6 103/147/6 
s 1
f 109/153/2 110/154/2 111/155/2 112/156/2 
f 113/157/2 114/158/2 115/159/2 116/160/2 
f 117/161/2 118/162/2 119/163/2 113/164/2 
f 120/165/2 121/166/2 122/167/2 123/168/2 
f 111/155/2 110/154/2 124/169/2 125/170/2 
f 109/153/2 112/156/2 126/171/2 127/172/2 
f 121/173/2 117/174/2 112/175/2 111/176/2 
f 128/177/2 129/178/2 122/179/2 125/180/2 
f 113/157/2 119/181/2 130/182/2 114/158/2 
f 125/180/2 124/183/2 131/184/2 128/177/2 
s 2
f 132/185/10 133/186/10 128/177/10 131/184/10 
f 133/186/10 134/187/10 129/178/10 128/177/10 
f 134/187/10 135/188/10 136/189/10 129/178/10 
s 4
f 135/190/9 137/191/9 123/192/9 136/189/9 
f 137/193/9 138/194/31 120/165/31 123/168/9 
f 138/194/31 139/195/31 118/162/31 120/165/31 
f 139/195/31 140/196/9 119/163/9 118/162/31 
f 140/197/9 141/198/9 130/182/9 119/181/9 
s 2
f 141/199/6 142/200/6 114/158/6 130/182/6 
f 114/158/6 142/200/6 143/201/6 115/159/6 
f 144/202/6 145/203/6 146/204/6 147/205/6 
s 4
f 145/206/4 148/207/4 127/208/4 146/204/4 
f 148/209/4 149/210/4 109/153/4 127/172/4 
f 149/210/4 150/211/4 110/154/4 109/153/4 
f 150/211/4 151/212/4 124/169/4 110/154/4 
f 151/213/4 132/214/4 131/184/4 124/183/4 
s 14
f 152/215/17 153/216/32 125/180/32 122/179/17 
f 153/217/32 154/218/33 111/155/33 125/170/32 
s 2
f 126/219/34 155/220/34 156/221/35 157/222/35 
s 4
f 158/223/4 159/224/4 117/161/4 113/164/4 
f 160/225/9 155/226/9 126/171/9 112/156/9 
s 2
f 159/227/7 160/228/7 112/175/7 117/174/7 
s 6
f 161/229/18 152/230/17 122/167/17 121/166/18 
s 14
f 154/231/33 161/232/18 121/173/18 111/176/33 
s 1
f 120/165/2 118/162/2 117/161/2 121/166/2 
f 146/204/2 127/208/2 126/219/2 147/205/2 
f 136/189/2 123/192/2 122/179/2 129/178/2 
f 116/160/2 115/159/2 162/233/2 163/234/2 
s 2
f 162/233/6 115/159/6 143/201/6 164/235/6 
f 113/157/36 116/160/37 165/236/37 158/237/36 
f 166/238/38 157/222/35 156/221/35 167/239/38 
s 1
f 157/222/2 168/240/1 147/205/2 126/219/2 
s 2
f 147/205/6 168/240/6 169/241/6 144/202/6 
f 170/242/39 171/243/40 172/244/40 173/245/39 
s 1
f 171/243/1 174/246/1 175/247/1 166/238/1 
s 2
f 175/247/6 174/246/6 176/248/6 177/249/6 
s 1
f 178/250/1 179/251/2 180/252/1 170/242/1 
s 2
f 180/252/6 179/251/6 181/253/6 182/254/6 
f 163/234/41 178/250/42 183/255/42 184/256/41 
s 1
f 163/234/2 162/233/2 179/251/2 178/250/1 
s 2
f 179/251/6 162/233/6 164/235/6 181/253/6 
f 116/160/37 163/234/41 184/256/41 165/236/37 
f 171/243/40 166/238/38 167/239/38 172/244/40 
s 1
f 166/238/1 175/247/1 168/240/1 157/222/2 
s 2
f 168/240/6 175/247/6 177/249/6 169/241/6 
f 178/250/42 170/242/39 173/245/39 183/255/42 
s 1
f 170/242/1 180/252/1 174/246/1 171/243/1 
s 2
f 174/246/6 180/252/6 182/254/6 176/248/6 
# 139 polygons

