# 3ds Max Wavefront OBJ Exporter v0.97b - (c)2007 guruware
# File Created: 05.09.2018 20:47:07

mtllib 6x6_double_wood_door.mtl

#
# object 6x6_double_wood_door
#

v  2.9993 91.3499 62.0896
v  2.9993 91.3499 29.4508
v  2.9993 97.4411 29.4508
v  2.9993 97.4411 62.0896
v  2.9993 97.4411 0.1001
v  2.9993 97.4411 6.3752
v  2.9993 91.3499 6.3752
v  2.9993 91.3499 0.1001
v  2.9993 179.9044 85.1648
v  2.9993 179.9044 6.3752
v  2.9993 186.4525 6.3752
v  2.9993 186.4525 85.1648
v  2.9993 10.0476 29.4508
v  2.9993 10.0476 62.0896
v  2.9993 3.5197 62.0896
v  2.9993 3.5197 29.4508
v  2.9993 97.4411 85.1648
v  2.9993 179.9045 91.4399
v  2.9993 97.4411 91.4399
v  2.9993 32.8986 85.1648
v  2.9993 68.3580 85.1648
v  2.9993 68.3580 91.4399
v  2.9993 32.8986 91.4399
v  2.9993 32.8986 0.1001
v  2.9993 68.3580 0.1001
v  2.9993 68.3580 6.3752
v  2.9993 32.8986 6.3752
v  2.9993 179.9044 0.1001
v  2.9993 23.3187 85.1648
v  2.9993 23.3187 91.4399
v  2.9993 77.3142 91.4399
v  2.9993 77.3142 85.1648
v  2.9993 23.3187 0.1001
v  2.9993 23.3187 6.3752
v  2.9993 77.3142 6.3752
v  2.9993 77.3142 0.1001
v  2.9993 91.3499 20.7958
v  2.9993 97.4411 20.7958
v  2.9993 97.4411 71.1896
v  2.9993 91.3499 71.1896
v  2.9993 10.0476 71.1896
v  2.9993 3.5197 71.1896
v  2.9993 3.5197 20.7958
v  2.9993 10.0476 20.7958
v  2.9993 91.3499 91.4399
v  2.9993 91.3499 85.1648
v  2.9993 10.0476 85.1648
v  2.9993 10.0476 91.4399
v  2.9993 3.5197 6.3752
v  2.9993 10.0476 6.3752
v  2.9993 10.0476 0.1001
v  2.9993 186.4525 91.4399
v  2.9993 3.5197 85.1648
v  2.9993 3.5197 0.1001
v  0.0000 3.5197 0.1001
v  0.0000 3.5197 6.3752
v  0.0000 3.5197 20.7958
v  0.0000 3.5197 29.4508
v  0.0000 3.5197 62.0896
v  0.0000 3.5197 71.1896
v  0.0000 3.5197 85.1648
v  2.9993 3.5197 91.4399
v  0.0000 3.5197 91.4399
v  0.0000 10.0476 91.4399
v  0.0000 23.3187 91.4399
v  0.0000 32.8986 91.4399
v  0.0000 68.3580 91.4399
v  0.0000 77.3142 91.4399
v  0.0000 91.3499 91.4399
v  0.0000 97.4411 91.4399
v  0.0000 179.9045 91.4399
v  0.0000 186.4525 91.4399
v  0.0000 186.4525 85.1648
v  0.0000 186.4525 6.3752
v  2.9993 186.4525 0.1001
v  0.0000 186.4525 0.1001
v  0.0000 179.9044 0.1001
v  0.0000 97.4411 0.1001
v  0.0000 91.3499 0.1001
v  0.0000 77.3142 0.1001
v  0.0000 68.3580 0.1001
v  0.0000 32.8986 0.1001
v  0.0000 23.3187 0.1001
v  0.0000 10.0476 0.1001
v  0.0000 23.3187 85.1648
v  0.0000 10.0476 85.1648
v  0.0000 10.0476 71.1896
v  0.0000 10.0476 20.7958
v  0.0000 10.0476 6.3752
v  0.0000 23.3187 6.3752
v  0.0000 97.4411 85.1648
v  0.0000 97.4411 71.1896
v  0.0000 77.3142 6.3752
v  0.0000 91.3499 6.3752
v  0.0000 91.3499 20.7958
v  0.0000 68.3580 85.1648
v  0.0000 32.8986 85.1648
v  0.0000 10.0476 62.0896
v  0.0000 10.0476 29.4508
v  0.0000 32.8986 6.3752
v  0.0000 68.3580 6.3752
v  0.0000 91.3499 29.4508
v  0.0000 91.3499 62.0896
v  0.0000 179.9044 6.3752
v  0.0000 179.9044 85.1648
v  0.0000 97.4411 62.0896
v  0.0000 97.4411 29.4508
v  0.0000 97.4411 6.3752
v  0.0000 97.4411 20.7958
v  0.0000 91.3499 85.1648
v  0.0000 77.3142 85.1648
v  0.0000 91.3499 71.1896
v  2.9993 91.3499 -29.4830
v  2.9993 91.3499 -62.1217
v  2.9993 97.4411 -62.1217
v  2.9993 97.4411 -29.4830
v  2.9993 97.4411 -91.4725
v  2.9993 97.4411 -85.1973
v  2.9993 91.3499 -85.1974
v  2.9993 91.3499 -91.4725
v  2.9993 179.9044 -6.4077
v  2.9993 179.9044 -85.1973
v  2.9993 186.4525 -85.1974
v  2.9993 186.4525 -6.4077
v  2.9993 10.0476 -62.1217
v  2.9993 10.0476 -29.4830
v  2.9993 3.5197 -29.4830
v  2.9993 3.5197 -62.1217
v  2.9993 97.4411 -6.4077
v  2.9993 179.9045 -0.1326
v  2.9993 97.4411 -0.1326
v  2.9993 32.8986 -6.4077
v  2.9993 68.3580 -6.4077
v  2.9993 68.3580 -0.1326
v  2.9993 32.8986 -0.1326
v  2.9993 32.8986 -91.4725
v  2.9993 68.3580 -91.4725
v  2.9993 68.3580 -85.1974
v  2.9993 32.8986 -85.1974
v  2.9993 179.9044 -91.4725
v  2.9993 23.3187 -6.4077
v  2.9993 23.3187 -0.1326
v  2.9993 77.3142 -0.1326
v  2.9993 77.3142 -6.4077
v  2.9993 23.3187 -91.4725
v  2.9993 23.3187 -85.1974
v  2.9993 77.3142 -85.1974
v  2.9993 77.3142 -91.4725
v  2.9993 91.3499 -70.7767
v  2.9993 97.4411 -70.7767
v  2.9993 97.4411 -20.3829
v  2.9993 91.3499 -20.3829
v  2.9993 10.0476 -20.3830
v  2.9993 3.5197 -20.3830
v  2.9993 3.5197 -70.7767
v  2.9993 10.0476 -70.7767
v  2.9993 91.3499 -0.1326
v  2.9993 91.3499 -6.4077
v  2.9993 10.0476 -6.4077
v  2.9993 10.0476 -0.1326
v  2.9993 3.5197 -85.1974
v  2.9993 10.0476 -85.1974
v  2.9993 10.0476 -91.4725
v  2.9993 186.4525 -0.1326
v  2.9993 3.5197 -6.4077
v  2.9993 3.5197 -91.4725
v  0.0000 3.5197 -91.4725
v  0.0000 3.5197 -85.1974
v  0.0000 3.5197 -70.7767
v  0.0000 3.5197 -62.1217
v  0.0000 3.5197 -29.4830
v  0.0000 3.5197 -20.3830
v  0.0000 3.5197 -6.4077
v  2.9993 3.5197 -0.1326
v  0.0000 3.5197 -0.1326
v  0.0000 10.0476 -0.1326
v  0.0000 23.3187 -0.1326
v  0.0000 32.8986 -0.1326
v  0.0000 68.3580 -0.1326
v  0.0000 77.3142 -0.1326
v  0.0000 91.3499 -0.1326
v  0.0000 97.4411 -0.1326
v  0.0000 179.9045 -0.1326
v  0.0000 186.4525 -0.1326
v  0.0000 186.4525 -6.4077
v  0.0000 186.4525 -85.1974
v  2.9993 186.4525 -91.4725
v  0.0000 186.4525 -91.4725
v  0.0000 179.9044 -91.4725
v  0.0000 97.4411 -91.4725
v  0.0000 91.3499 -91.4725
v  0.0000 77.3142 -91.4725
v  0.0000 68.3580 -91.4725
v  0.0000 32.8986 -91.4725
v  0.0000 23.3187 -91.4725
v  0.0000 10.0476 -91.4725
v  0.0000 23.3187 -6.4077
v  0.0000 10.0476 -6.4077
v  0.0000 10.0476 -20.3830
v  0.0000 10.0476 -70.7767
v  0.0000 10.0476 -85.1974
v  0.0000 23.3187 -85.1974
v  0.0000 97.4411 -6.4077
v  0.0000 97.4411 -20.3829
v  0.0000 77.3142 -85.1974
v  0.0000 91.3499 -85.1974
v  0.0000 91.3499 -70.7767
v  0.0000 68.3580 -6.4077
v  0.0000 32.8986 -6.4077
v  0.0000 10.0476 -29.4830
v  0.0000 10.0476 -62.1217
v  0.0000 32.8986 -85.1974
v  0.0000 68.3580 -85.1974
v  0.0000 91.3499 -62.1217
v  0.0000 91.3499 -29.4830
v  0.0000 179.9044 -85.1973
v  0.0000 179.9044 -6.4077
v  0.0000 97.4411 -29.4830
v  0.0000 97.4411 -62.1217
v  0.0000 97.4411 -85.1973
v  0.0000 97.4411 -70.7767
v  0.0000 91.3499 -6.4077
v  0.0000 77.3142 -6.4077
v  0.0000 91.3499 -20.3829
# 224 vertices

vn 1.0000 0.0000 -0.0000
vn 0.0000 -1.0000 -0.0000
vn 0.0000 0.0000 1.0000
vn 0.0000 1.0000 -0.0000
vn 0.0000 0.0000 -1.0000
vn 0.0000 -0.7251 0.6886
vn 0.0000 -0.7358 -0.6772
vn 0.0000 0.7166 -0.6975
vn 0.0000 0.7106 -0.7036
vn 0.0000 0.9248 -0.3804
vn 0.0000 0.9248 0.3804
vn 0.0000 0.7106 0.7036
vn 0.0000 -0.7084 0.7058
vn 0.0000 -0.9242 0.3818
vn 0.0000 -0.9242 -0.3818
vn 0.0000 -0.7084 -0.7058
vn 0.0000 0.7056 0.7086
# 17 vertex normals

vt 2.4589 -0.3676 0.0000
vt 2.4589 -1.4772 0.0000
vt 2.6660 -1.4772 0.0000
vt 2.6660 -0.3676 0.0000
vt -2.1866 0.7278 0.0000
vt -2.3999 0.7278 0.0000
vt -2.3999 0.5207 0.0000
vt -2.1866 0.5207 0.0000
vt 1.3817 4.1165 0.0000
vt 1.3817 1.4379 0.0000
vt 1.6043 1.4379 0.0000
vt 1.6043 4.1165 0.0000
vt 1.9398 3.0247 0.0000
vt 1.9398 1.9151 0.0000
vt 2.1617 1.9151 0.0000
vt 2.1617 3.0247 0.0000
vt -0.0197 0.6643 0.0000
vt -0.0197 3.4678 0.0000
vt -0.2331 3.4678 0.0000
vt -0.2331 0.6643 0.0000
vt -0.0197 -1.5299 0.0000
vt -0.0197 -0.3244 0.0000
vt -0.2331 -0.3244 0.0000
vt -0.2330 -1.5299 0.0000
vt -2.1865 -1.4664 0.0000
vt -2.1865 -0.2609 0.0000
vt -2.3998 -0.2609 0.0000
vt -2.3998 -1.4664 0.0000
vt -2.1866 3.5313 0.0000
vt -2.3999 3.5313 0.0000
vt -0.0197 -1.8556 0.0000
vt -0.2330 -1.8556 0.0000
vt -0.2331 -0.0199 0.0000
vt -0.0197 -0.0199 0.0000
vt -2.1864 -1.7921 0.0000
vt -2.3998 -1.7921 0.0000
vt -2.3999 0.0436 0.0000
vt -2.1865 0.0436 0.0000
vt 2.4589 -1.7714 0.0000
vt 2.6660 -1.7714 0.0000
vt 2.6660 -0.0582 0.0000
vt 2.4589 -0.0582 0.0000
vt 1.9397 1.6058 0.0000
vt 2.1617 1.6058 0.0000
vt 2.1617 3.3190 0.0000
vt 1.9398 3.3190 0.0000
vt 3.2376 -2.3954 0.0000
vt 3.2432 -1.2914 0.0000
vt 3.0141 -1.5182 0.0000
vt 3.0176 -2.1734 0.0000
vt 3.0486 1.2247 0.0000
vt 3.2556 1.4338 0.0000
vt 3.2800 2.0996 0.0000
vt 3.0486 2.3288 0.0000
vt 3.8335 3.3817 0.0000
vt 3.6151 3.1625 0.0000
vt 3.6178 2.4892 0.0000
vt 3.8334 2.2742 0.0000
vt -0.2331 0.4572 0.0000
vt -0.0197 0.4572 0.0000
vt 3.6912 -0.1909 0.0000
vt 3.9055 0.0228 0.0000
vt 3.9034 0.7069 0.0000
vt 3.6943 0.9165 0.0000
vt -0.0197 -2.3067 0.0000
vt -0.2330 -2.3067 0.0000
vt 2.6660 0.4169 0.0000
vt 2.4589 0.4169 0.0000
vt 2.4589 -2.2616 0.0000
vt 2.6660 -2.2617 0.0000
vt 2.1617 3.8092 0.0000
vt 1.9398 3.8092 0.0000
vt -2.3998 -2.2432 0.0000
vt -2.1864 -2.2432 0.0000
vt 1.6043 4.3298 0.0000
vt 1.3817 4.3298 0.0000
vt 1.9397 1.1306 0.0000
vt 2.1617 1.1306 0.0000
vt 2.1617 4.0225 0.0000
vt 1.9398 4.0225 0.0000
vt 2.2637 4.0225 0.0000
vt 2.2637 3.8092 0.0000
vt 2.2637 3.3189 0.0000
vt 2.2637 3.0247 0.0000
vt 2.2636 1.9151 0.0000
vt 2.2636 1.6058 0.0000
vt 2.2636 1.1306 0.0000
vt 2.1617 0.9173 0.0000
vt 2.2636 0.9173 0.0000
vt 2.1616 0.8153 0.0000
vt 1.9397 0.9173 0.0000
vt 1.9397 0.8153 0.0000
vt -0.3350 -2.3067 0.0000
vt -0.3350 -1.8556 0.0000
vt -0.3350 -1.5299 0.0000
vt -0.3350 -0.3244 0.0000
vt -0.3350 -0.0199 0.0000
vt -0.3350 0.4572 0.0000
vt -0.3350 0.6643 0.0000
vt -0.3350 3.4678 0.0000
vt 1.3817 4.4318 0.0000
vt 1.6043 4.4318 0.0000
vt 1.7063 4.3298 0.0000
vt 1.7063 4.1165 0.0000
vt 1.7063 1.4379 0.0000
vt 1.6043 1.2246 0.0000
vt 1.7063 1.2246 0.0000
vt 1.6043 1.1226 0.0000
vt 1.3817 1.2246 0.0000
vt 1.3817 1.1226 0.0000
vt -2.0846 3.5313 0.0000
vt -2.0846 0.7278 0.0000
vt -2.0846 0.5207 0.0000
vt -2.0846 0.0436 0.0000
vt -2.0845 -0.2609 0.0000
vt -2.0845 -1.4664 0.0000
vt -2.0845 -1.7921 0.0000
vt -2.0845 -2.2432 0.0000
vt 1.9398 4.1245 0.0000
vt 2.1617 4.1245 0.0000
vt 0.0823 -1.8556 0.0000
vt 0.0823 -2.3067 0.0000
vt 1.8378 1.1306 0.0000
vt 1.8378 1.6058 0.0000
vt 2.9139 -2.1734 0.0000
vt 2.9139 -1.5182 0.0000
vt 1.8378 3.3190 0.0000
vt 1.8378 3.8092 0.0000
vt -2.5017 -2.2432 0.0000
vt -2.5017 -1.7921 0.0000
vt 3.3819 2.0959 0.0000
vt 3.3575 1.4301 0.0000
vt 2.7679 0.4169 0.0000
vt 2.7679 -0.0582 0.0000
vt -2.5018 0.0436 0.0000
vt -2.5019 0.5207 0.0000
vt 2.3569 -2.2616 0.0000
vt 2.3569 -1.7714 0.0000
vt 4.0064 0.7069 0.0000
vt 4.0064 0.0228 0.0000
vt 0.0822 -0.3244 0.0000
vt 0.0823 -1.5299 0.0000
vt 3.3424 -1.2914 0.0000
vt 3.3424 -2.3954 0.0000
vt 1.8378 1.9151 0.0000
vt 1.8378 3.0247 0.0000
vt 2.9466 1.2247 0.0000
vt 2.9466 2.3288 0.0000
vt -2.5018 -1.4664 0.0000
vt -2.5018 -0.2609 0.0000
vt 3.5908 -0.1909 0.0000
vt 3.5908 0.9165 0.0000
vt 2.3570 -1.4772 0.0000
vt 2.3570 -0.3676 0.0000
vt 3.9354 3.3816 0.0000
vt 3.9354 2.2742 0.0000
vt 1.2797 1.4379 0.0000
vt 1.2797 4.1165 0.0000
vt 0.0822 3.4678 0.0000
vt 0.0822 0.6643 0.0000
vt 2.7680 -0.3676 0.0000
vt 2.7680 -1.4772 0.0000
vt -2.5019 0.7278 0.0000
vt -2.5019 3.5313 0.0000
vt 2.7679 -1.7714 0.0000
vt 2.7679 -2.2617 0.0000
vt 0.0822 0.4572 0.0000
vt 0.0822 -0.0199 0.0000
vt 3.5158 2.4888 0.0000
vt 3.5131 3.1621 0.0000
vt 2.3569 -0.0582 0.0000
vt 2.3569 0.4169 0.0000
vt 2.6658 1.4640 0.0000
vt 2.6658 2.5736 0.0000
vt 2.4587 2.5736 0.0000
vt 2.4587 1.4640 0.0000
vt 1.0723 0.6885 0.0000
vt 0.8590 0.6885 0.0000
vt 0.8590 0.4814 0.0000
vt 1.0723 0.4814 0.0000
vt 1.6274 -2.0220 0.0000
vt 1.6274 0.6565 0.0000
vt 1.4048 0.6565 0.0000
vt 1.4048 -2.0220 0.0000
vt 2.1549 -1.6369 0.0000
vt 2.1548 -0.5273 0.0000
vt 1.9329 -0.5273 0.0000
vt 1.9329 -1.6369 0.0000
vt 0.5480 0.6885 0.0000
vt 0.5480 3.4920 0.0000
vt 0.3347 3.4920 0.0000
vt 0.3347 0.6885 0.0000
vt 0.5481 -1.5057 0.0000
vt 0.5480 -0.3002 0.0000
vt 0.3347 -0.3002 0.0000
vt 0.3347 -1.5057 0.0000
vt 1.0722 -1.5057 0.0000
vt 1.0723 -0.3002 0.0000
vt 0.8589 -0.3002 0.0000
vt 0.8589 -1.5057 0.0000
vt 1.0723 3.4920 0.0000
vt 0.8590 3.4920 0.0000
vt 0.5481 -1.8313 0.0000
vt 0.3347 -1.8314 0.0000
vt 0.3347 0.0043 0.0000
vt 0.5480 0.0043 0.0000
vt 1.0722 -1.8314 0.0000
vt 0.8589 -1.8314 0.0000
vt 0.8589 0.0043 0.0000
vt 1.0723 0.0043 0.0000
vt 2.6658 2.8679 0.0000
vt 2.4587 2.8679 0.0000
vt 2.4587 1.1547 0.0000
vt 2.6658 1.1547 0.0000
vt 2.1548 -0.2180 0.0000
vt 1.9329 -0.2180 0.0000
vt 1.9329 -1.9312 0.0000
vt 2.1549 -1.9312 0.0000
vt 3.2576 -1.1366 0.0000
vt 3.2576 -0.0326 0.0000
vt 3.0262 -0.2618 0.0000
vt 3.0399 -0.9168 0.0000
vt 3.0573 0.0112 0.0000
vt 3.2643 0.2202 0.0000
vt 3.2887 0.8861 0.0000
vt 3.0573 1.1152 0.0000
vt 3.9237 2.0890 0.0000
vt 3.7053 1.8699 0.0000
vt 3.7080 1.1965 0.0000
vt 3.9237 0.9816 0.0000
vt 0.3347 0.4814 0.0000
vt 0.5480 0.4814 0.0000
vt 3.0608 2.4852 0.0000
vt 3.2751 2.6989 0.0000
vt 3.2731 3.3830 0.0000
vt 3.0640 3.5926 0.0000
vt 0.5481 -2.2825 0.0000
vt 0.3347 -2.2825 0.0000
vt 2.4587 0.6796 0.0000
vt 2.6658 0.6796 0.0000
vt 2.6658 3.3581 0.0000
vt 2.4587 3.3581 0.0000
vt 1.9330 -2.4214 0.0000
vt 2.1549 -2.4214 0.0000
vt 0.8589 -2.2825 0.0000
vt 1.0722 -2.2825 0.0000
vt 1.4048 -2.2354 0.0000
vt 1.6274 -2.2354 0.0000
vt 2.1548 0.2571 0.0000
vt 1.9329 0.2571 0.0000
vt 1.9330 -2.6348 0.0000
vt 2.1549 -2.6347 0.0000
vt 1.8310 -2.6348 0.0000
vt 1.8310 -2.4214 0.0000
vt 1.8310 -1.9312 0.0000
vt 1.8310 -1.6369 0.0000
vt 1.8309 -0.5273 0.0000
vt 1.8309 -0.2180 0.0000
vt 1.8309 0.2571 0.0000
vt 1.9329 0.4705 0.0000
vt 1.8309 0.4705 0.0000
vt 1.9329 0.5724 0.0000
vt 2.1548 0.4705 0.0000
vt 2.1548 0.5724 0.0000
vt 0.2328 -2.2825 0.0000
vt 0.2328 -1.8314 0.0000
vt 0.2328 -1.5057 0.0000
vt 0.2328 -0.3002 0.0000
vt 0.2328 0.0043 0.0000
vt 0.2328 0.4814 0.0000
vt 0.2328 0.6885 0.0000
vt 0.2328 3.4920 0.0000
vt 1.6274 -2.3373 0.0000
vt 1.4048 -2.3373 0.0000
vt 1.3028 -2.2354 0.0000
vt 1.3028 -2.0220 0.0000
vt 1.3028 0.6565 0.0000
vt 1.4048 0.8699 0.0000
vt 1.3029 0.8699 0.0000
vt 1.4048 0.9718 0.0000
vt 1.6274 0.8699 0.0000
vt 1.6274 0.9718 0.0000
vt 1.1743 3.4920 0.0000
vt 1.1743 0.6885 0.0000
vt 1.1743 0.4814 0.0000
vt 1.1742 0.0043 0.0000
vt 1.1742 -0.3002 0.0000
vt 1.1742 -1.5057 0.0000
vt 1.1742 -1.8314 0.0000
vt 1.1742 -2.2825 0.0000
vt 2.1549 -2.7367 0.0000
vt 1.9330 -2.7367 0.0000
vt 0.6500 -1.8313 0.0000
vt 0.6500 -2.2825 0.0000
vt 2.2568 0.2571 0.0000
vt 2.2568 -0.2180 0.0000
vt 2.9380 -0.9190 0.0000
vt 2.9242 -0.2639 0.0000
vt 2.2568 -1.9312 0.0000
vt 2.2568 -2.4214 0.0000
vt 0.7569 -2.2825 0.0000
vt 0.7569 -1.8313 0.0000
vt 3.3906 0.8823 0.0000
vt 3.3662 0.2165 0.0000
vt 2.3567 0.6796 0.0000
vt 2.3567 1.1547 0.0000
vt 0.7570 0.0043 0.0000
vt 0.7570 0.4815 0.0000
vt 2.7678 3.3581 0.0000
vt 2.7678 2.8679 0.0000
vt 3.3761 3.3830 0.0000
vt 3.3761 2.6989 0.0000
vt 0.6500 -0.3002 0.0000
vt 0.6500 -1.5057 0.0000
vt 3.3596 -0.0326 0.0000
vt 3.3596 -1.1366 0.0000
vt 2.2568 -0.5273 0.0000
vt 2.2568 -1.6369 0.0000
vt 2.9553 0.0112 0.0000
vt 2.9553 1.1152 0.0000
vt 0.7570 -1.5057 0.0000
vt 0.7570 -0.3002 0.0000
vt 2.9604 2.4852 0.0000
vt 2.9604 3.5926 0.0000
vt 2.7677 2.5736 0.0000
vt 2.7677 1.4640 0.0000
vt 4.0256 2.0890 0.0000
vt 4.0256 0.9816 0.0000
vt 1.7294 0.6565 0.0000
vt 1.7294 -2.0220 0.0000
vt 0.6500 3.4920 0.0000
vt 0.6500 0.6885 0.0000
vt 2.3567 1.4640 0.0000
vt 2.3567 2.5736 0.0000
vt 0.7570 0.6885 0.0000
vt 0.7570 3.4920 0.0000
vt 2.3567 2.8679 0.0000
vt 2.3567 3.3581 0.0000
vt 0.6500 0.4814 0.0000
vt 0.6500 0.0043 0.0000
vt 3.6060 1.1961 0.0000
vt 3.6034 1.8695 0.0000
vt 2.7678 1.1547 0.0000
vt 2.7678 0.6796 0.0000
# 344 texture coords

g 6x6_double_wood_door
usemtl Material__27
s 1
f 1/1/1 2/2/1 3/3/1 4/4/1 
f 5/5/1 6/6/1 7/7/1 8/8/1 
f 9/9/1 10/10/1 11/11/1 12/12/1 
f 13/13/1 14/14/1 15/15/1 16/16/1 
f 17/17/1 9/18/1 18/19/1 19/20/1 
f 20/21/1 21/22/1 22/23/1 23/24/1 
f 24/25/1 25/26/1 26/27/1 27/28/1 
f 5/5/1 28/29/1 10/30/1 6/6/1 
f 29/31/1 20/21/1 23/24/1 30/32/1 
f 31/33/1 22/23/1 21/22/1 32/34/1 
f 33/35/1 24/25/1 27/28/1 34/36/1 
f 35/37/1 26/27/1 25/26/1 36/38/1 
f 2/2/1 37/39/1 38/40/1 3/3/1 
f 39/41/1 40/42/1 1/1/1 4/4/1 
f 14/14/1 41/43/1 42/44/1 15/15/1 
f 43/45/1 44/46/1 13/13/1 16/16/1 
f 14/47/1 20/48/1 29/49/1 41/50/1 
f 13/51/1 44/52/1 34/53/1 27/54/1 
f 1/55/1 40/56/1 32/57/1 21/58/1 
f 45/59/1 31/33/1 32/34/1 46/60/1 
f 7/7/1 35/37/1 36/38/1 8/8/1 
f 26/61/1 35/62/1 37/63/1 2/64/1 
f 47/65/1 29/31/1 30/32/1 48/66/1 
f 17/67/1 46/68/1 40/42/1 39/41/1 
f 7/69/1 6/70/1 38/40/1 37/39/1 
f 49/71/1 50/72/1 44/46/1 43/45/1 
f 34/36/1 50/73/1 51/74/1 33/35/1 
f 9/9/1 12/12/1 52/75/1 18/76/1 
f 42/44/1 41/43/1 47/77/1 53/78/1 
f 50/72/1 49/71/1 54/79/1 51/80/1 
f 55/81/2 54/79/2 49/71/2 56/82/2 
f 56/82/2 49/71/2 43/45/2 57/83/2 
f 57/83/2 43/45/2 16/16/2 58/84/2 
f 58/84/2 16/16/2 15/15/2 59/85/2 
f 59/85/2 15/15/2 42/44/2 60/86/2 
f 60/86/2 42/44/2 53/78/2 61/87/2 
f 61/87/2 53/78/2 62/88/2 63/89/2 
f 63/90/3 62/88/3 48/91/3 64/92/3 
f 64/93/3 48/66/3 30/32/3 65/94/3 
f 65/94/3 30/32/3 23/24/3 66/95/3 
f 66/95/3 23/24/3 22/23/3 67/96/3 
f 67/96/3 22/23/3 31/33/3 68/97/3 
f 68/97/3 31/33/3 45/59/3 69/98/3 
f 69/98/3 45/59/3 19/20/3 70/99/3 
f 70/99/3 19/20/3 18/19/3 71/100/3 
f 71/101/3 18/76/3 52/75/3 72/102/3 
f 72/103/4 52/75/4 12/12/4 73/104/4 
f 73/104/4 12/12/4 11/11/4 74/105/4 
f 74/105/4 11/11/4 75/106/4 76/107/4 
f 76/108/5 75/106/5 28/109/5 77/110/5 
f 77/111/5 28/29/5 5/5/5 78/112/5 
f 78/112/5 5/5/5 8/8/5 79/113/5 
f 79/113/5 8/8/5 36/38/5 80/114/5 
f 80/114/5 36/38/5 25/26/5 81/115/5 
f 81/115/5 25/26/5 24/25/5 82/116/5 
f 82/116/5 24/25/5 33/35/5 83/117/5 
f 83/117/5 33/35/5 51/74/5 84/118/5 
f 84/119/5 51/80/5 54/79/5 55/120/5 
f 85/121/5 29/31/5 47/65/5 86/122/5 
f 86/123/4 47/77/4 41/43/4 87/124/4 
f 87/125/6 41/50/6 29/49/6 85/126/6 
f 88/127/4 44/46/4 50/72/4 89/128/4 
f 89/129/3 50/73/3 34/36/3 90/130/3 
f 90/131/7 34/53/7 44/52/7 88/132/7 
f 91/133/4 17/67/4 39/41/4 92/134/4 
f 93/135/3 35/37/3 7/7/3 94/136/3 
f 94/137/2 7/69/2 37/39/2 95/138/2 
f 95/139/8 37/63/8 35/62/8 93/140/8 
f 96/141/5 21/22/5 20/21/5 97/142/5 
f 97/143/9 20/48/9 14/47/10 98/144/10 
f 98/145/10 14/14/10 13/13/11 99/146/11 
f 99/147/11 13/51/11 27/54/12 100/148/12 
f 100/149/3 27/28/3 26/27/3 101/150/3 
f 101/151/13 26/61/13 2/64/14 102/152/14 
f 102/153/14 2/2/14 1/1/15 103/154/15 
f 103/155/15 1/55/15 21/58/16 96/156/16 
f 104/157/2 10/10/2 9/9/2 105/158/2 
f 105/159/5 9/18/5 17/17/5 91/160/5 
f 106/161/4 4/4/4 3/3/4 107/162/4 
f 108/163/3 6/6/3 10/30/3 104/164/3 
f 109/165/4 38/40/4 6/70/4 108/166/4 
f 110/167/5 46/60/5 32/34/5 111/168/5 
f 111/169/17 32/57/17 40/56/17 112/170/17 
f 112/171/2 40/42/2 46/68/2 110/172/2 
f 45/59/1 46/60/1 17/17/1 19/20/1 
f 75/106/1 11/11/1 10/10/1 28/109/1 
f 62/88/1 53/78/1 47/77/1 48/91/1 
f 109/165/4 107/162/4 3/3/4 38/40/4 
f 106/161/4 92/134/4 39/41/4 4/4/4 
f 113/173/1 114/174/1 115/175/1 116/176/1 
f 117/177/1 118/178/1 119/179/1 120/180/1 
f 121/181/1 122/182/1 123/183/1 124/184/1 
f 125/185/1 126/186/1 127/187/1 128/188/1 
f 129/189/1 121/190/1 130/191/1 131/192/1 
f 132/193/1 133/194/1 134/195/1 135/196/1 
f 136/197/1 137/198/1 138/199/1 139/200/1 
f 117/177/1 140/201/1 122/202/1 118/178/1 
f 141/203/1 132/193/1 135/196/1 142/204/1 
f 143/205/1 134/195/1 133/194/1 144/206/1 
f 145/207/1 136/197/1 139/200/1 146/208/1 
f 147/209/1 138/199/1 137/198/1 148/210/1 
f 114/174/1 149/211/1 150/212/1 115/175/1 
f 151/213/1 152/214/1 113/173/1 116/176/1 
f 126/186/1 153/215/1 154/216/1 127/187/1 
f 155/217/1 156/218/1 125/185/1 128/188/1 
f 126/219/1 132/220/1 141/221/1 153/222/1 
f 125/223/1 156/224/1 146/225/1 139/226/1 
f 113/227/1 152/228/1 144/229/1 133/230/1 
f 157/231/1 143/205/1 144/206/1 158/232/1 
f 119/179/1 147/209/1 148/210/1 120/180/1 
f 138/233/1 147/234/1 149/235/1 114/236/1 
f 159/237/1 141/203/1 142/204/1 160/238/1 
f 129/239/1 158/240/1 152/214/1 151/213/1 
f 119/241/1 118/242/1 150/212/1 149/211/1 
f 161/243/1 162/244/1 156/218/1 155/217/1 
f 146/208/1 162/245/1 163/246/1 145/207/1 
f 121/181/1 124/184/1 164/247/1 130/248/1 
f 154/216/1 153/215/1 159/249/1 165/250/1 
f 162/244/1 161/243/1 166/251/1 163/252/1 
f 167/253/2 166/251/2 161/243/2 168/254/2 
f 168/254/2 161/243/2 155/217/2 169/255/2 
f 169/255/2 155/217/2 128/188/2 170/256/2 
f 170/256/2 128/188/2 127/187/2 171/257/2 
f 171/257/2 127/187/2 154/216/2 172/258/2 
f 172/258/2 154/216/2 165/250/2 173/259/2 
f 173/259/2 165/250/2 174/260/2 175/261/2 
f 175/262/3 174/260/3 160/263/3 176/264/3 
f 176/265/3 160/238/3 142/204/3 177/266/3 
f 177/266/3 142/204/3 135/196/3 178/267/3 
f 178/267/3 135/196/3 134/195/3 179/268/3 
f 179/268/3 134/195/3 143/205/3 180/269/3 
f 180/269/3 143/205/3 157/231/3 181/270/3 
f 181/270/3 157/231/3 131/192/3 182/271/3 
f 182/271/3 131/192/3 130/191/3 183/272/3 
f 183/273/3 130/248/3 164/247/3 184/274/3 
f 184/275/4 164/247/4 124/184/4 185/276/4 
f 185/276/4 124/184/4 123/183/4 186/277/4 
f 186/277/4 123/183/4 187/278/4 188/279/4 
f 188/280/5 187/278/5 140/281/5 189/282/5 
f 189/283/5 140/201/5 117/177/5 190/284/5 
f 190/284/5 117/177/5 120/180/5 191/285/5 
f 191/285/5 120/180/5 148/210/5 192/286/5 
f 192/286/5 148/210/5 137/198/5 193/287/5 
f 193/287/5 137/198/5 136/197/5 194/288/5 
f 194/288/5 136/197/5 145/207/5 195/289/5 
f 195/289/5 145/207/5 163/246/5 196/290/5 
f 196/291/5 163/252/5 166/251/5 167/292/5 
f 197/293/5 141/203/5 159/237/5 198/294/5 
f 198/295/4 159/249/4 153/215/4 199/296/4 
f 199/297/6 153/222/6 141/221/6 197/298/6 
f 200/299/4 156/218/4 162/244/4 201/300/4 
f 201/301/3 162/245/3 146/208/3 202/302/3 
f 202/303/7 146/225/7 156/224/7 200/304/7 
f 203/305/4 129/239/4 151/213/4 204/306/4 
f 205/307/3 147/209/3 119/179/3 206/308/3 
f 206/309/2 119/241/2 149/211/2 207/310/2 
f 207/311/8 149/235/8 147/234/8 205/312/8 
f 208/313/5 133/194/5 132/193/5 209/314/5 
f 209/315/9 132/220/9 126/219/10 210/316/10 
f 210/317/10 126/186/10 125/185/11 211/318/11 
f 211/319/11 125/223/11 139/226/12 212/320/12 
f 212/321/3 139/200/3 138/199/3 213/322/3 
f 213/323/13 138/233/13 114/236/14 214/324/14 
f 214/325/14 114/174/14 113/173/15 215/326/15 
f 215/327/15 113/227/15 133/230/16 208/328/16 
f 216/329/2 122/182/2 121/181/2 217/330/2 
f 217/331/5 121/190/5 129/189/5 203/332/5 
f 218/333/4 116/176/4 115/175/4 219/334/4 
f 220/335/3 118/178/3 122/202/3 216/336/3 
f 221/337/4 150/212/4 118/242/4 220/338/4 
f 222/339/5 158/232/5 144/206/5 223/340/5 
f 223/341/17 144/229/17 152/228/17 224/342/17 
f 224/343/2 152/214/2 158/240/2 222/344/2 
f 157/231/1 158/232/1 129/189/1 131/192/1 
f 187/278/1 123/183/1 122/182/1 140/281/1 
f 174/260/1 165/250/1 159/249/1 160/263/1 
f 221/337/4 219/334/4 115/175/4 150/212/4 
f 218/333/4 204/306/4 151/213/4 116/176/4 
# 178 polygons

