# 3ds Max Wavefront OBJ Exporter v0.97b - (c)2007 guruware
# File Created: 05.09.2018 20:59:21

mtllib 6x7_double_wood_door_arch_top_trim.mtl

#
# object 6x7_double_wood_door_arch_top_trim
#

v  2.9993 116.2811 -91.4725
v  2.9993 116.2811 -85.1973
v  2.9993 102.9899 -85.1974
v  2.9993 102.9899 -91.4725
v  2.9993 210.3844 -6.4077
v  2.9993 210.0675 -22.2951
v  2.9993 216.9325 -22.2951
v  2.9993 216.9325 -6.4077
v  2.9993 116.2811 -6.4077
v  2.9993 210.3845 -0.1326
v  2.9993 116.2811 -0.1326
v  2.9993 102.9899 -0.1326
v  2.9993 17.2476 -0.1326
v  2.9993 17.2476 -6.4077
v  2.9993 102.9899 -6.4077
v  2.9993 17.2476 -85.1974
v  2.9993 17.2476 -91.4725
v  2.9993 203.1844 -91.4725
v  2.9993 203.1844 -85.1973
v  2.9993 3.5197 -85.1974
v  2.9993 3.5197 -6.4077
v  2.9993 216.9325 -0.1326
v  2.9993 3.5197 -91.4725
v  0.0000 3.5197 -91.4725
v  0.0000 3.5197 -85.1974
v  0.0000 3.5197 -6.4077
v  2.9993 3.5197 -0.1326
v  0.0000 3.5197 -0.1326
v  0.0000 17.2476 -0.1326
v  0.0000 102.9899 -0.1326
v  0.0000 116.2811 -0.1326
v  0.0000 210.3845 -0.1326
v  0.0000 216.9325 -0.1326
v  0.0000 216.9325 -6.4077
v  0.0000 216.9325 -22.2951
v  0.0000 216.9325 -85.1974
v  2.9993 216.9325 -85.1974
v  2.9993 216.9325 -91.4725
v  0.0000 216.9325 -91.4725
v  0.0000 203.1844 -91.4725
v  0.0000 116.2811 -91.4725
v  0.0000 102.9899 -91.4725
v  0.0000 17.2476 -91.4725
v  0.0000 17.2476 -6.4077
v  0.0000 17.2476 -85.1974
v  0.0000 102.9899 -85.1974
v  2.9993 205.3065 -77.2536
v  0.0000 205.3065 -77.2536
v  0.0000 203.1844 -85.1973
v  0.0000 210.3844 -6.4077
v  0.0000 116.2811 -6.4077
v  0.0000 116.2811 -85.1973
v  0.0000 102.9899 -6.4077
v  2.9993 209.7216 -36.1252
v  2.9993 216.9325 -36.0348
v  0.0000 216.9325 -36.0348
v  0.0000 210.0675 -22.2951
v  2.9993 206.6132 -70.4986
v  0.0000 206.6132 -70.4986
v  2.9993 216.9325 -77.2537
v  0.0000 216.9325 -77.2537
v  2.9993 208.3032 -56.8131
v  0.0000 208.3032 -56.8131
v  0.0000 207.5323 -63.6733
v  2.9993 207.5323 -63.6733
v  2.9993 216.9325 -70.3838
v  2.9993 216.9325 -63.5140
v  0.0000 216.9325 -70.3838
v  0.0000 216.9325 -63.5140
v  2.9993 209.0009 -49.9343
v  2.9993 216.9325 -56.6442
v  2.9993 216.9325 -49.7744
v  0.0000 216.9325 -56.6442
v  0.0000 216.9325 -49.7744
v  0.0000 209.7216 -36.1252
v  0.0000 209.0009 -49.9343
v  2.9992 116.2811 91.4725
v  2.9992 102.9899 91.4725
v  2.9992 102.9899 85.1974
v  2.9992 116.2811 85.1973
v  2.9993 210.3844 6.4077
v  2.9993 216.9325 6.4077
v  2.9993 216.9325 22.2951
v  2.9993 210.0675 22.2951
v  2.9993 116.2811 6.4077
v  2.9993 116.2811 0.1326
v  2.9993 210.3845 0.1326
v  2.9993 102.9899 0.1326
v  2.9993 102.9899 6.4077
v  2.9993 17.2476 6.4077
v  2.9993 17.2476 0.1326
v  2.9992 17.2476 91.4725
v  2.9992 17.2476 85.1974
v  2.9992 203.1844 85.1973
v  2.9992 203.1844 91.4725
v  2.9992 3.5197 85.1974
v  2.9993 3.5197 6.4077
v  2.9993 216.9325 0.1326
v  2.9992 3.5197 91.4725
v  0.0000 3.5197 91.4725
v  0.0000 3.5197 85.1974
v  0.0000 3.5197 6.4077
v  0.0000 3.5197 0.1326
v  2.9993 3.5197 0.1326
v  0.0000 17.2476 0.1326
v  0.0000 102.9899 0.1326
v  0.0000 116.2811 0.1326
v  0.0000 210.3845 0.1326
v  0.0000 216.9325 0.1326
v  0.0000 216.9325 6.4077
v  0.0000 216.9325 22.2951
v  0.0000 216.9325 85.1974
v  0.0000 216.9325 91.4725
v  2.9992 216.9325 91.4725
v  2.9992 216.9325 85.1974
v  0.0000 203.1844 91.4725
v  0.0000 116.2811 91.4725
v  0.0000 102.9899 91.4725
v  0.0000 17.2476 91.4725
v  0.0000 17.2476 6.4077
v  0.0000 17.2476 85.1974
v  0.0000 102.9899 85.1974
v  0.0000 203.1844 85.1973
v  0.0000 205.3065 77.2536
v  2.9992 205.3065 77.2536
v  0.0000 210.3844 6.4077
v  0.0000 116.2811 6.4077
v  0.0000 116.2811 85.1973
v  0.0000 102.9899 6.4077
v  2.9993 216.9325 36.0348
v  2.9993 209.7216 36.1252
v  0.0000 216.9325 36.0348
v  0.0000 210.0675 22.2951
v  2.9993 206.6132 70.4986
v  0.0000 206.6132 70.4986
v  2.9992 216.9325 77.2537
v  0.0000 216.9325 77.2537
v  2.9993 208.3032 56.8131
v  2.9993 207.5323 63.6733
v  0.0000 207.5323 63.6733
v  0.0000 208.3032 56.8131
v  2.9993 216.9325 63.5140
v  2.9993 216.9325 70.3838
v  0.0000 216.9325 63.5140
v  0.0000 216.9325 70.3838
v  2.9993 209.0009 49.9343
v  2.9993 216.9325 49.7744
v  2.9993 216.9325 56.6442
v  0.0000 216.9325 49.7744
v  0.0000 216.9325 56.6442
v  0.0000 209.0009 49.9343
v  0.0000 209.7216 36.1252
# 152 vertices

vn 1.0000 0.0000 -0.0000
vn 0.0000 -1.0000 -0.0000
vn 0.0000 0.0000 1.0000
vn 0.0000 1.0000 -0.0000
vn 0.0000 0.0000 -1.0000
vn 0.0000 0.7071 -0.7071
vn 0.0000 0.7071 0.7071
vn 0.0000 -0.7071 0.7071
vn 0.0000 -0.9661 0.2581
vn 0.0000 -0.9746 0.2241
vn 0.0000 -0.7071 -0.7071
vn 0.0000 -0.9998 0.0199
vn 0.0000 -0.9997 0.0225
vn 0.0000 -0.9868 0.1618
vn 0.0000 -0.9943 0.1063
vn 0.0000 -0.9925 0.1226
vn 0.0000 -0.9993 0.0386
vn 0.0000 -0.9971 0.0765
vn 0.0000 -0.9661 -0.2581
vn 0.0000 -0.9746 -0.2241
vn 0.0000 -0.9998 -0.0199
vn 0.0000 -0.9997 -0.0225
vn 0.0000 -0.9868 -0.1618
vn 0.0000 -0.9943 -0.1063
vn 0.0000 -0.9925 -0.1226
vn 0.0000 -0.9993 -0.0386
vn 0.0000 -0.9971 -0.0765
# 27 vertex normals

vt 0.1273 1.3027 0.0000
vt -0.1037 1.3027 0.0000
vt -0.1037 0.8134 0.0000
vt 0.1273 0.8134 0.0000
vt 1.3767 -2.8061 0.0000
vt 1.3885 -2.2212 0.0000
vt 1.1359 -2.2207 0.0000
vt 1.1357 -2.8058 0.0000
vt -1.1529 1.3458 0.0000
vt -1.1529 4.8102 0.0000
vt -1.3839 4.8102 0.0000
vt -1.3839 1.3458 0.0000
vt -1.3839 0.8564 0.0000
vt -1.3839 -2.3002 0.0000
vt -1.1529 -2.3002 0.0000
vt -1.1529 0.8564 0.0000
vt -0.1037 -2.3432 0.0000
vt 0.1273 -2.3432 0.0000
vt 0.1273 4.5021 0.0000
vt -0.1037 4.5021 0.0000
vt 2.5732 1.0973 0.0000
vt 2.5732 3.9979 0.0000
vt 2.0839 3.9979 0.0000
vt 2.0839 1.0973 0.0000
vt 2.0378 -2.5026 0.0000
vt 2.5432 -2.5025 0.0000
vt 2.5432 0.3981 0.0000
vt 2.0378 0.3981 0.0000
vt 1.1357 -3.0369 0.0000
vt 1.3767 -3.0369 0.0000
vt 2.0378 -2.7336 0.0000
vt 2.5432 -2.7336 0.0000
vt 1.9274 -2.7336 0.0000
vt 1.9274 -2.5026 0.0000
vt 1.9274 0.3981 0.0000
vt 2.0378 0.6291 0.0000
vt 1.9274 0.6291 0.0000
vt 2.0378 0.7396 0.0000
vt 2.5432 0.6291 0.0000
vt 2.5432 0.7396 0.0000
vt -1.4944 -2.3002 0.0000
vt -1.4944 0.8564 0.0000
vt -1.4944 1.3458 0.0000
vt -1.4944 4.8102 0.0000
vt 1.3767 -3.1473 0.0000
vt 1.1356 -3.1473 0.0000
vt 1.0253 -3.0368 0.0000
vt 1.0254 -2.8057 0.0000
vt 1.0256 -2.2207 0.0000
vt 1.0262 0.0980 0.0000
vt 1.1365 0.0981 0.0000
vt 1.1362 0.3294 0.0000
vt 1.0260 0.3292 0.0000
vt 1.1361 0.4402 0.0000
vt 1.6422 0.3302 0.0000
vt 1.6422 0.4402 0.0000
vt 0.2378 4.5021 0.0000
vt 0.2378 1.3027 0.0000
vt 0.2378 0.8134 0.0000
vt 0.2378 -2.3432 0.0000
vt 2.5432 -2.8440 0.0000
vt 2.0378 -2.8440 0.0000
vt 2.6536 0.3981 0.0000
vt 2.6536 -2.5025 0.0000
vt -0.2141 -2.3432 0.0000
vt -0.2141 0.8134 0.0000
vt 1.6423 0.1000 0.0000
vt 1.5658 -0.1936 0.0000
vt 1.6739 -0.2176 0.0000
vt 1.7487 0.0735 0.0000
vt -1.0425 4.8102 0.0000
vt -1.0425 1.3458 0.0000
vt -0.2141 1.3027 0.0000
vt -0.2141 4.5021 0.0000
vt 1.9735 1.0973 0.0000
vt 1.9735 3.9979 0.0000
vt -1.0425 0.8564 0.0000
vt -1.0425 -2.3002 0.0000
vt 2.6837 3.9979 0.0000
vt 2.6837 1.0973 0.0000
vt 1.4018 -1.7118 0.0000
vt 1.1363 -1.7146 0.0000
vt 1.0258 -1.7145 0.0000
vt 1.4870 -2.8085 0.0000
vt 1.4989 -2.2240 0.0000
vt 1.5173 -0.4439 0.0000
vt 1.6263 -0.4621 0.0000
vt 1.1371 -0.1947 0.0000
vt 1.0265 -0.1947 0.0000
vt 1.4539 -0.9487 0.0000
vt 1.5635 -0.9602 0.0000
vt 1.5920 -0.7099 0.0000
vt 1.4826 -0.6959 0.0000
vt 1.1371 -0.4479 0.0000
vt 1.1367 -0.7013 0.0000
vt 1.0265 -0.4480 0.0000
vt 1.0263 -0.7014 0.0000
vt 1.4288 -1.2026 0.0000
vt 1.1365 -0.9549 0.0000
vt 1.1365 -1.2083 0.0000
vt 1.0262 -0.9548 0.0000
vt 1.0260 -1.2083 0.0000
vt 1.5121 -1.7164 0.0000
vt 1.5391 -1.2109 0.0000
vt 0.4890 1.3028 0.0000
vt 0.4890 0.8134 0.0000
vt 0.7200 0.8134 0.0000
vt 0.7200 1.3028 0.0000
vt 1.3585 1.1049 0.0000
vt 1.5994 1.1052 0.0000
vt 1.5993 1.6902 0.0000
vt 1.3466 1.6898 0.0000
vt -0.7457 1.2986 0.0000
vt -0.5146 1.2986 0.0000
vt -0.5146 4.7630 0.0000
vt -0.7457 4.7630 0.0000
vt -0.5146 0.8092 0.0000
vt -0.7457 0.8092 0.0000
vt -0.7457 -2.3474 0.0000
vt -0.5146 -2.3474 0.0000
vt 0.4890 -2.3432 0.0000
vt 0.7200 -2.3432 0.0000
vt 0.7200 4.5022 0.0000
vt 0.4890 4.5021 0.0000
vt 2.9952 1.0168 0.0000
vt 3.4845 1.0168 0.0000
vt 3.4845 3.9175 0.0000
vt 2.9952 3.9175 0.0000
vt 3.4268 -2.5261 0.0000
vt 3.4268 0.3745 0.0000
vt 2.9214 0.3745 0.0000
vt 2.9214 -2.5261 0.0000
vt 1.3585 0.8740 0.0000
vt 1.5995 0.8741 0.0000
vt 2.9214 -2.7572 0.0000
vt 3.4268 -2.7572 0.0000
vt 3.5372 -2.7572 0.0000
vt 3.5372 -2.5261 0.0000
vt 3.5372 0.3745 0.0000
vt 3.5372 0.6055 0.0000
vt 3.4268 0.6055 0.0000
vt 3.4268 0.7160 0.0000
vt 2.9214 0.7160 0.0000
vt 2.9214 0.6055 0.0000
vt -0.4042 -2.3474 0.0000
vt -0.4042 0.8092 0.0000
vt -0.4042 1.2986 0.0000
vt -0.4042 4.7630 0.0000
vt 1.3585 0.7637 0.0000
vt 1.5995 0.7637 0.0000
vt 1.7099 0.8742 0.0000
vt 1.7098 1.1052 0.0000
vt 1.7096 1.6903 0.0000
vt 1.7092 4.0091 0.0000
vt 1.7094 4.2402 0.0000
vt 1.5993 4.2405 0.0000
vt 1.5989 4.0091 0.0000
vt 1.5993 4.3512 0.0000
vt 1.0932 4.3512 0.0000
vt 1.0933 4.2412 0.0000
vt 0.3786 4.5021 0.0000
vt 0.3786 1.3028 0.0000
vt 0.3786 0.8134 0.0000
vt 0.3786 -2.3432 0.0000
vt 2.9214 -2.8676 0.0000
vt 3.4268 -2.8676 0.0000
vt 2.8110 0.3745 0.0000
vt 2.8110 -2.5261 0.0000
vt 0.8305 -2.3432 0.0000
vt 0.8305 0.8134 0.0000
vt 1.0931 4.0110 0.0000
vt 0.9867 3.9845 0.0000
vt 1.0615 3.6934 0.0000
vt 1.1696 3.7174 0.0000
vt -0.8561 4.7630 0.0000
vt -0.8561 1.2986 0.0000
vt 0.8305 1.3028 0.0000
vt 0.8305 4.5022 0.0000
vt 3.5949 1.0168 0.0000
vt 3.5949 3.9175 0.0000
vt -0.8561 0.8092 0.0000
vt -0.8561 -2.3474 0.0000
vt 2.8848 3.9175 0.0000
vt 2.8848 1.0168 0.0000
vt 1.5990 2.1964 0.0000
vt 1.3334 2.1992 0.0000
vt 1.7094 2.1964 0.0000
vt 1.2363 1.6870 0.0000
vt 1.2481 1.1025 0.0000
vt 1.2181 3.4671 0.0000
vt 1.1090 3.4489 0.0000
vt 1.5983 3.7163 0.0000
vt 1.7089 3.7163 0.0000
vt 1.2814 2.9623 0.0000
vt 1.2527 3.2151 0.0000
vt 1.1433 3.2011 0.0000
vt 1.1718 2.9508 0.0000
vt 1.5986 3.2096 0.0000
vt 1.5983 3.4630 0.0000
vt 1.7090 3.2096 0.0000
vt 1.7088 3.4630 0.0000
vt 1.3064 2.7084 0.0000
vt 1.5987 2.7026 0.0000
vt 1.5988 2.9561 0.0000
vt 1.7092 2.7027 0.0000
vt 1.7091 2.9561 0.0000
vt 1.1962 2.7001 0.0000
vt 1.2231 2.1946 0.0000
# 208 texture coords

g 6x7_double_wood_door_arch_top_trim
usemtl Material__27
s 1
f 1/1/1 2/2/1 3/3/1 4/4/1 
f 5/5/1 6/6/1 7/7/1 8/8/1 
f 9/9/1 5/10/1 10/11/1 11/12/1 
f 12/13/1 13/14/1 14/15/1 15/16/1 
f 3/3/1 16/17/1 17/18/1 4/4/1 
f 1/1/1 18/19/1 19/20/1 2/2/1 
f 15/21/1 3/22/1 2/23/1 9/24/1 
f 20/25/1 16/26/1 14/27/1 21/28/1 
f 5/5/1 8/8/1 22/29/1 10/30/1 
f 16/26/1 20/25/1 23/31/1 17/32/1 
f 24/33/2 23/31/2 20/25/2 25/34/2 
f 25/34/2 20/25/2 21/28/2 26/35/2 
f 26/35/2 21/28/2 27/36/2 28/37/2 
f 28/38/3 27/36/3 13/39/3 29/40/3 
f 29/41/3 13/14/3 12/13/3 30/42/3 
f 30/42/3 12/13/3 11/12/3 31/43/3 
f 31/43/3 11/12/3 10/11/3 32/44/3 
f 32/45/3 10/30/3 22/29/3 33/46/3 
f 33/47/4 22/29/4 8/8/4 34/48/4 
f 8/8/4 7/7/4 35/49/4 34/48/4 
f 36/50/4 37/51/4 38/52/4 39/53/4 
f 39/54/5 38/52/5 18/55/5 40/56/5 
f 40/57/5 18/19/5 1/1/5 41/58/5 
f 41/58/5 1/1/5 4/4/5 42/59/5 
f 42/59/5 4/4/5 17/18/5 43/60/5 
f 43/61/5 17/32/5 23/31/5 24/62/5 
f 44/63/6 14/27/6 16/26/7 45/64/7 
f 45/65/7 16/17/7 3/3/8 46/66/8 
f 19/67/9 47/68/10 48/69/10 49/70/9 
f 50/71/5 5/10/5 9/9/5 51/72/5 
f 52/73/3 2/2/3 19/20/3 49/74/3 
f 51/75/4 9/24/4 2/23/4 52/76/4 
f 53/77/11 15/16/11 14/15/6 44/78/6 
f 46/79/8 3/22/8 15/21/11 53/80/11 
f 12/13/1 15/16/1 9/9/1 11/12/1 
f 38/52/1 37/51/1 19/67/1 18/55/1 
f 27/36/1 21/28/1 14/27/1 13/39/1 
f 6/6/1 54/81/1 55/82/1 7/7/1 
f 55/82/4 56/83/4 35/49/4 7/7/4 
f 5/5/12 50/84/12 57/85/13 6/6/13 
f 58/86/14 59/87/14 48/69/10 47/68/10 
f 47/68/1 19/67/1 37/51/1 60/88/1 
f 37/51/4 36/50/4 61/89/4 60/88/4 
f 62/90/15 63/91/15 64/92/16 65/93/16 
f 65/93/1 58/86/1 66/94/1 67/95/1 
f 66/94/4 68/96/4 69/97/4 67/95/4 
f 70/98/1 62/90/1 71/99/1 72/100/1 
f 71/99/4 73/101/4 74/102/4 72/100/4 
f 54/81/17 75/103/17 76/104/18 70/98/18 
f 54/81/1 70/98/1 72/100/1 55/82/1 
f 72/100/4 74/102/4 56/83/4 55/82/4 
f 6/6/13 57/85/13 75/103/17 54/81/17 
f 65/93/16 64/92/16 59/87/14 58/86/14 
f 58/86/1 47/68/1 60/88/1 66/94/1 
f 60/88/4 61/89/4 68/96/4 66/94/4 
f 70/98/18 76/104/18 63/91/15 62/90/15 
f 62/90/1 65/93/1 67/95/1 71/99/1 
f 67/95/4 69/97/4 73/101/4 71/99/4 
f 77/105/1 78/106/1 79/107/1 80/108/1 
f 81/109/1 82/110/1 83/111/1 84/112/1 
f 85/113/1 86/114/1 87/115/1 81/116/1 
f 88/117/1 89/118/1 90/119/1 91/120/1 
f 79/107/1 78/106/1 92/121/1 93/122/1 
f 77/105/1 80/108/1 94/123/1 95/124/1 
f 89/125/1 85/126/1 80/127/1 79/128/1 
f 96/129/1 97/130/1 90/131/1 93/132/1 
f 81/109/1 87/133/1 98/134/1 82/110/1 
f 93/132/1 92/135/1 99/136/1 96/129/1 
f 100/137/2 101/138/2 96/129/2 99/136/2 
f 101/138/2 102/139/2 97/130/2 96/129/2 
f 102/139/2 103/140/2 104/141/2 97/130/2 
f 103/142/5 105/143/5 91/144/5 104/141/5 
f 105/145/5 106/146/5 88/117/5 91/120/5 
f 106/146/5 107/147/5 86/114/5 88/117/5 
f 107/147/5 108/148/5 87/115/5 86/114/5 
f 108/149/5 109/150/5 98/134/5 87/133/5 
f 109/151/4 110/152/4 82/110/4 98/134/4 
f 82/110/4 110/152/4 111/153/4 83/111/4 
f 112/154/4 113/155/4 114/156/4 115/157/4 
f 113/158/3 116/159/3 95/160/3 114/156/3 
f 116/161/3 117/162/3 77/105/3 95/124/3 
f 117/162/3 118/163/3 78/106/3 77/105/3 
f 118/163/3 119/164/3 92/121/3 78/106/3 
f 119/165/3 100/166/3 99/136/3 92/135/3 
f 120/167/7 121/168/6 93/132/6 90/131/7 
f 121/169/6 122/170/11 79/107/11 93/122/6 
f 94/171/19 123/172/19 124/173/20 125/174/20 
f 126/175/3 127/176/3 85/113/3 81/116/3 
f 128/177/5 123/178/5 94/123/5 80/108/5 
f 127/179/4 128/180/4 80/127/4 85/126/4 
f 129/181/8 120/182/7 90/119/7 89/118/8 
f 122/183/11 129/184/8 89/125/8 79/128/11 
f 88/117/1 86/114/1 85/113/1 89/118/1 
f 114/156/1 95/160/1 94/171/1 115/157/1 
f 104/141/1 91/144/1 90/131/1 97/130/1 
f 84/112/1 83/111/1 130/185/1 131/186/1 
f 130/185/4 83/111/4 111/153/4 132/187/4 
f 81/109/21 84/112/22 133/188/22 126/189/21 
f 134/190/23 125/174/20 124/173/20 135/191/23 
f 125/174/1 136/192/1 115/157/1 94/171/1 
f 115/157/4 136/192/4 137/193/4 112/154/4 
f 138/194/24 139/195/25 140/196/25 141/197/24 
f 139/195/1 142/198/1 143/199/1 134/190/1 
f 143/199/4 142/198/4 144/200/4 145/201/4 
f 146/202/1 147/203/1 148/204/1 138/194/1 
f 148/204/4 147/203/4 149/205/4 150/206/4 
f 131/186/26 146/202/27 151/207/27 152/208/26 
f 131/186/1 130/185/1 147/203/1 146/202/1 
f 147/203/4 130/185/4 132/187/4 149/205/4 
f 84/112/22 131/186/26 152/208/26 133/188/22 
f 139/195/25 134/190/23 135/191/23 140/196/25 
f 134/190/1 143/199/1 136/192/1 125/174/1 
f 136/192/4 143/199/4 145/201/4 137/193/4 
f 146/202/27 138/194/24 141/197/24 151/207/27 
f 138/194/1 148/204/1 142/198/1 139/195/1 
f 142/198/4 148/204/4 150/206/4 144/200/4 
# 116 polygons

