# 3ds Max Wavefront OBJ Exporter v0.97b - (c)2007 guruware
# File Created: 22.12.2018 04:30:54

mtllib 72x78_double_shed_door_with_transom.mtl

#
# object default
#

v  -0.0176 8.1891 -0.1000
v  -0.0176 8.1891 -91.4401
v  3.2026 8.1891 -91.4401
v  3.2026 8.1891 -0.1000
v  3.2026 206.3091 -0.1000
v  -0.0176 206.3091 -0.1000
v  -0.0176 170.7820 -0.1000
v  3.2026 170.7820 -0.1000
v  3.2026 196.5054 -9.8673
v  3.2026 196.5054 -81.6248
v  3.2026 206.3091 -91.4401
v  3.2026 17.9928 -81.6248
v  3.2026 17.9928 -9.8674
v  3.2026 161.0418 -81.6248
v  3.2026 170.7822 -81.6248
v  3.2026 170.7822 -9.8673
v  3.2026 161.0418 -9.8673
v  -0.0176 161.0420 -91.4401
v  3.2026 161.0420 -91.4401
v  0.3197 17.9928 -9.8674
v  0.3197 161.0418 -9.8673
v  0.3197 17.9928 -81.6248
v  0.3197 161.0418 -81.6248
v  0.3197 196.5054 -81.6248
v  0.3197 170.7822 -81.6248
v  -0.0176 206.3091 -91.4401
v  0.3197 196.5054 -9.8673
v  3.1352 206.4180 -91.5350
v  4.9469 215.9542 -91.5350
v  4.9469 215.9541 91.5440
v  3.1352 206.4180 91.5440
v  0.1059 215.9541 104.0359
v  0.0022 206.4180 101.0496
v  3.1352 206.4180 101.0496
v  4.9469 215.9541 104.0359
v  0.0022 206.4180 -101.0714
v  0.1059 215.9542 -104.0577
v  4.9469 215.9542 -104.0577
v  3.1352 206.4180 -101.0714
v  0.0022 206.4180 91.5440
v  0.0022 206.4180 -91.5350
v  0.1059 215.9542 -91.5350
v  0.1059 215.9541 91.5440
v  3.1352 0.0019 -91.5353
v  3.1352 0.0019 -101.0715
v  0.0022 0.0019 -91.5353
v  0.0022 0.0019 -101.0715
v  3.1352 0.0019 101.0481
v  3.1352 0.0019 91.5120
v  0.0022 0.0019 101.0481
v  0.0022 0.0019 91.5120
v  -0.0176 8.1891 91.4398
v  -0.0176 8.1891 0.0928
v  3.2026 8.1891 0.0928
v  3.2026 8.1891 91.4398
v  3.2026 206.3091 91.4399
v  -0.0176 206.3091 91.4399
v  -0.0176 170.7820 91.4399
v  3.2026 170.7820 91.4399
v  3.2026 17.9928 9.8581
v  3.2026 17.9928 81.6246
v  3.2026 161.0418 9.8581
v  3.2026 170.7822 9.8581
v  3.2026 170.7822 81.6246
v  3.2026 161.0418 81.6246
v  -0.0176 161.0420 0.0929
v  3.2026 161.0420 0.0929
v  0.3197 17.9928 81.6246
v  0.3197 161.0418 81.6246
v  0.3197 17.9928 9.8581
v  0.3197 161.0418 9.8581
v  3.2026 196.5054 9.8581
v  0.3197 196.5054 9.8581
v  0.3197 170.7822 9.8581
v  -0.0176 206.3091 0.0929
v  3.2026 206.3091 0.0929
v  3.2026 196.5053 81.6246
v  0.3197 196.5053 81.6246
v  0.3197 170.7822 -9.8673
v  3.2026 170.7820 0.0929
v  3.2026 170.7820 -91.4401
v  3.2026 161.0420 -0.1000
v  -0.0176 161.0420 -0.1000
v  -0.0176 170.7820 -91.4401
v  3.2026 161.0420 91.4398
v  -0.0176 161.0420 91.4398
v  -0.0176 170.7820 0.0929
v  0.3197 170.7822 81.6246
# 88 vertices

vn 0.0000 -1.0000 -0.0000
vn 0.0000 0.0000 1.0000
vn 0.9996 0.0290 -0.0000
vn 1.0000 0.0000 -0.0000
vn 0.0000 0.0000 -1.0000
vn 0.0000 1.0000 -0.0000
vn 0.9825 -0.1862 -0.0000
vn 0.0000 -0.2990 0.9542
vn 0.0000 -0.2990 -0.9542
vn 0.0000 0.0002 -1.0000
vn 0.9824 -0.1866 -0.0000
vn 0.0000 1.0000 0.0000
vn 1.0000 0.0000 0.0000
vn 0.0000 -0.0000 1.0000
# 14 vertex normals

vt 1.8539 0.3290 0.0000
vt 1.8539 -2.4828 0.0000
vt 1.9530 -2.4828 0.0000
vt 1.9530 0.3290 0.0000
vt 1.3538 3.5576 0.0000
vt 1.2547 3.5576 0.0000
vt 1.2547 2.4640 0.0000
vt 1.3538 2.4640 0.0000
vt 2.9827 3.2844 0.0000
vt 2.6809 2.9838 0.0000
vt 2.6809 0.7748 0.0000
vt 2.9827 0.4727 0.0000
vt 2.2548 -2.1806 0.0000
vt 2.2548 0.0283 0.0000
vt 3.4301 -2.4961 0.0000
vt 3.7299 -2.4961 0.0000
vt 3.7299 -0.2872 0.0000
vt 3.4301 -0.2872 0.0000
vt 0.4446 -2.5412 0.0000
vt 0.5438 -2.5412 0.0000
vt 0.5438 2.1641 0.0000
vt 0.4446 2.1641 0.0000
vt 1.6545 -2.2393 0.0000
vt 1.7432 -2.2393 0.0000
vt 1.7432 2.1641 0.0000
vt 1.6545 2.1641 0.0000
vt 2.3436 -2.1806 0.0000
vt 2.3436 0.0283 0.0000
vt 3.3413 -0.2872 0.0000
vt 3.3413 -2.4961 0.0000
vt 0.1425 3.2558 0.0000
vt 0.0537 3.2558 0.0000
vt 0.0537 2.4639 0.0000
vt 0.1425 2.4639 0.0000
vt 3.0818 0.4727 0.0000
vt 3.0818 3.2844 0.0000
vt 2.5922 2.9838 0.0000
vt 2.5922 0.7748 0.0000
vt -2.2321 -2.0033 0.0000
vt -1.9333 -2.0033 0.0000
vt -1.9333 3.6324 0.0000
vt -2.2321 3.6324 0.0000
vt -2.0018 4.1493 0.0000
vt -2.2764 4.0107 0.0000
vt -2.2321 3.9251 0.0000
vt -1.9333 4.0170 0.0000
vt -2.2764 -2.3825 0.0000
vt -2.0018 -2.5211 0.0000
vt -1.9333 -2.3888 0.0000
vt -2.2321 -2.2969 0.0000
vt -2.3285 3.6324 0.0000
vt -2.3285 -2.0033 0.0000
vt -1.7843 -2.0033 0.0000
vt -1.7843 3.6324 0.0000
vt -1.0508 3.9444 0.0000
vt -1.0508 -2.4097 0.0000
vt -0.7573 -2.4097 0.0000
vt -0.7573 3.9444 0.0000
vt -1.0508 -2.5062 0.0000
vt -0.7573 -2.5062 0.0000
vt -0.6608 -2.4097 0.0000
vt -0.6608 3.9444 0.0000
vt -1.1473 3.9444 0.0000
vt -1.1472 -2.4097 0.0000
vt -1.6119 3.9444 0.0000
vt -1.6118 -2.4097 0.0000
vt -1.3183 -2.4097 0.0000
vt -1.3193 3.9444 0.0000
vt -1.6118 -2.5062 0.0000
vt -1.3183 -2.5062 0.0000
vt -1.2219 -2.4097 0.0000
vt -1.2228 3.9444 0.0000
vt -1.7083 3.9444 0.0000
vt -1.7083 -2.4097 0.0000
vt 1.8539 3.2845 0.0000
vt 1.8539 0.4726 0.0000
vt 1.9530 0.4726 0.0000
vt 1.9530 3.2845 0.0000
vt 0.7486 3.5576 0.0000
vt 0.6495 3.5576 0.0000
vt 0.6495 2.4639 0.0000
vt 0.7486 2.4639 0.0000
vt 2.2548 0.7732 0.0000
vt 2.2548 2.9824 0.0000
vt 3.4301 -0.1111 0.0000
vt 3.7299 -0.1111 0.0000
vt 3.7299 2.0981 0.0000
vt 3.4301 2.0981 0.0000
vt -0.1606 -2.5412 0.0000
vt -0.0615 -2.5412 0.0000
vt -0.0615 2.1641 0.0000
vt -0.1606 2.1641 0.0000
vt 1.0507 -2.2394 0.0000
vt 1.1395 -2.2394 0.0000
vt 1.1395 2.1641 0.0000
vt 1.0507 2.1641 0.0000
vt 2.3436 0.7732 0.0000
vt 2.3436 2.9824 0.0000
vt 3.3413 2.0981 0.0000
vt 3.3413 -0.1111 0.0000
vt -0.4612 3.2558 0.0000
vt -0.5500 3.2558 0.0000
vt -0.5500 2.4639 0.0000
vt -0.4612 2.4639 0.0000
vt 3.0831 -2.4817 0.0000
vt 3.0831 0.3303 0.0000
vt 2.9840 0.3303 0.0000
vt 2.9840 -2.4817 0.0000
vt 2.6822 0.0281 0.0000
vt 2.5935 0.0281 0.0000
vt 2.5935 -2.1811 0.0000
vt 2.6822 -2.1811 0.0000
vt -1.7843 4.0170 0.0000
vt -1.7843 -2.3888 0.0000
vt 3.8187 -2.4961 0.0000
vt 3.8187 -0.2872 0.0000
vt 1.6545 2.4640 0.0000
vt 1.6545 3.2558 0.0000
vt -0.1606 2.4639 0.0000
vt -0.1606 3.5576 0.0000
vt 0.4446 2.4639 0.0000
vt 0.4446 3.5575 0.0000
vt 1.0507 2.4639 0.0000
vt 1.0507 3.2558 0.0000
vt 1.3538 2.1641 0.0000
vt 1.2547 2.1641 0.0000
vt 1.2547 -2.5411 0.0000
vt 1.3538 -2.5411 0.0000
vt 0.5438 2.4639 0.0000
vt 0.1425 2.1641 0.0000
vt 0.0538 2.1641 0.0000
vt 0.0538 -2.2394 0.0000
vt 0.1425 -2.2394 0.0000
vt 0.7486 2.1641 0.0000
vt 0.6495 2.1641 0.0000
vt 0.6495 -2.5412 0.0000
vt 0.7486 -2.5412 0.0000
vt -0.0615 2.4639 0.0000
vt -0.4612 2.1641 0.0000
vt -0.5500 2.1641 0.0000
vt -0.5500 -2.2394 0.0000
vt -0.4612 -2.2394 0.0000
vt 1.7432 2.4640 0.0000
vt 1.7432 3.2558 0.0000
vt 1.1395 2.4639 0.0000
vt 1.1395 3.2558 0.0000
vt 0.5438 3.5575 0.0000
vt -0.0615 3.5576 0.0000
vt 3.8187 -0.1111 0.0000
vt 3.8187 2.0981 0.0000
# 150 texture coords

g default
usemtl None
s 1
f 1/1/1 2/2/1 3/3/1 4/4/1 
s 2
f 5/5/2 6/6/2 7/7/2 8/8/2 
s 4
f 5/9/3 9/10/4 10/11/3 11/12/3 
f 12/13/4 13/14/4 4/4/4 3/3/4 
f 14/15/4 15/16/4 16/17/4 17/18/4 
s 2
f 3/19/5 2/20/5 18/21/5 19/22/5 
s 1
f 13/23/5 20/24/5 21/25/5 17/26/5 
s 2
f 22/27/6 20/28/6 13/14/6 12/13/6 
f 21/29/1 23/30/1 14/15/1 17/18/1 
s 1
f 10/31/2 24/32/2 25/33/2 15/34/2 
f 26/35/6 6/36/6 5/9/6 11/12/6 
s 2
f 9/10/1 27/37/1 24/38/1 10/11/1 
s 1
f 28/39/7 29/40/7 30/41/7 31/42/7 
s 2
f 32/43/8 33/44/8 34/45/8 35/46/8 
f 36/47/9 37/48/9 38/49/9 39/50/9 
f 31/42/1 40/51/1 41/52/1 28/39/1 
s 4
f 29/40/6 42/53/6 43/54/6 30/41/6 
s 1
f 28/55/4 44/56/4 45/57/4 39/58/4 
s 4
f 46/59/1 47/60/1 45/57/1 44/56/1 
s 2
f 39/58/5 45/57/5 47/61/5 36/62/5 
s 8
f 28/55/2 41/63/2 46/64/2 44/56/2 
s 1
f 34/65/4 48/66/4 49/67/4 31/68/4 
s 4
f 50/69/1 51/70/1 49/67/1 48/66/1 
s 8
f 31/68/10 49/67/10 51/71/5 40/72/5 
s 2
f 34/65/2 33/73/2 50/74/2 48/66/2 
s 1
f 52/75/1 53/76/1 54/77/1 55/78/1 
s 2
f 56/79/2 57/80/2 58/81/2 59/82/2 
s 4
f 60/83/4 61/84/4 55/78/4 54/77/4 
f 62/85/4 63/86/4 64/87/4 65/88/4 
s 2
f 54/89/5 53/90/5 66/91/5 67/92/5 
s 1
f 61/93/5 68/94/5 69/95/5 65/96/5 
s 2
f 70/97/6 68/98/6 61/84/6 60/83/6 
f 69/99/1 71/100/1 62/85/1 65/88/1 
s 1
f 72/101/2 73/102/2 74/103/2 63/104/2 
f 75/105/6 57/106/6 56/107/6 76/108/6 
s 2
f 77/109/1 78/110/1 73/111/1 72/112/1 
s 1
f 34/45/11 31/42/11 30/41/11 35/46/11 
f 29/40/11 28/39/11 39/50/11 38/49/11 
s 4
f 30/41/12 43/54/12 32/113/12 35/46/12 
f 42/53/12 29/40/12 38/49/12 37/114/12 
s 2
f 16/17/12 15/16/12 25/115/12 79/116/12 
s 4
f 8/8/4 16/117/4 9/118/4 5/5/4 
f 80/119/4 76/120/4 72/101/4 63/104/4 
f 81/121/13 11/122/13 10/31/13 15/34/13 
f 59/82/4 64/123/4 77/124/4 56/79/4 
s 2
f 82/125/14 83/126/14 1/127/14 4/128/14 
f 19/22/5 18/21/5 84/129/5 81/121/5 
s 1
f 14/130/14 23/131/14 22/132/14 12/133/14 
s 2
f 85/134/14 86/135/14 52/136/14 55/137/14 
f 67/92/5 66/91/5 87/138/5 80/119/5 
s 1
f 62/139/14 71/140/14 70/141/14 60/142/14 
s 4
f 17/26/13 82/125/13 4/128/13 13/23/13 
f 54/89/4 67/92/4 62/139/4 60/142/4 
f 3/19/4 19/22/4 14/130/4 12/133/4 
f 65/96/13 85/134/13 55/137/13 61/93/13 
s 1
f 16/117/5 79/143/5 27/144/5 9/118/5 
s 2
f 8/8/14 7/7/14 83/126/14 82/125/14 
s 1
f 64/123/5 88/145/5 78/146/5 77/124/5 
s 2
f 59/82/14 58/81/14 86/135/14 85/134/14 
s 4
f 17/26/13 16/117/4 8/8/4 82/125/13 
f 67/92/4 80/119/4 63/104/4 62/139/4 
f 19/22/4 81/121/13 15/34/13 14/130/4 
f 65/96/13 64/123/4 59/82/4 85/134/13 
s 2
f 81/121/5 84/129/5 26/147/5 11/122/5 
f 80/119/5 87/138/5 75/148/5 76/120/5 
f 64/87/12 63/86/12 74/149/12 88/150/12 
s 4
f 72/112/4 76/108/4 56/107/4 77/109/4 
# 67 polygons

