# 3ds Max Wavefront OBJ Exporter v0.97b - (c)2007 guruware
# File Created: 22.12.2018 02:25:58

mtllib 72x78_double_smartside_door.mtl

#
# object 72x78_double_smartside_door
#

v  3.0000 208.3769 91.7310
v  3.0000 208.3769 98.3724
v  3.0000 201.9612 98.3729
v  3.0000 201.9612 91.7310
v  3.0000 201.9612 -91.7310
v  3.0000 208.3769 -91.7310
v  3.0000 0.0004 -91.7310
v  3.0000 0.0004 -98.3725
v  3.0000 201.9612 -98.3725
v  3.0000 0.0004 98.3729
v  3.0000 0.0004 91.7310
v  3.0000 208.3769 -98.3720
v  0.0000 201.9612 98.3729
v  0.0000 0.0004 98.3729
v  3.0000 208.3770 99.8724
v  0.0000 208.3770 99.8724
v  0.0000 201.9613 99.8729
v  3.0000 201.9613 99.8729
v  0.0000 208.3769 91.7310
v  0.0000 208.3769 98.3724
v  0.0000 208.3769 -91.7310
v  0.0000 208.3769 -98.3720
v  3.0000 201.9613 -99.8725
v  0.0000 201.9613 -99.8725
v  0.0000 208.3770 -99.8720
v  3.0000 208.3770 -99.8720
v  0.0000 0.0004 -98.3725
v  0.0000 201.9612 -98.3725
v  0.0000 0.0004 -91.7310
v  0.0000 201.9612 -91.7310
v  0.0000 201.9612 91.7310
v  0.0000 0.0004 91.7310
v  3.0000 97.7971 -72.9829
v  3.0000 106.4283 -72.9829
v  3.0000 106.4283 -18.6611
v  3.0000 97.7970 -18.6611
v  3.0000 106.4283 -82.7288
v  3.0000 97.7971 -82.7288
v  3.0000 97.7971 -91.5439
v  3.0000 106.4283 -91.5439
v  3.0000 106.4283 -8.9152
v  3.0000 106.4283 -0.1001
v  3.0000 97.7970 -0.1001
v  3.0000 97.7970 -8.9152
v  3.0000 201.6925 -18.4698
v  3.0000 193.4945 -18.4698
v  3.0000 193.4945 -73.6192
v  3.0000 201.6925 -73.6192
v  3.0000 3.5616 -72.9829
v  3.0000 11.7597 -72.9829
v  3.0000 11.7597 -18.6611
v  3.0000 3.5616 -18.6611
v  3.0000 183.7235 -91.5439
v  3.0000 183.7235 -82.7288
v  3.0000 21.5462 -82.7288
v  3.0000 21.5462 -91.5439
v  3.0000 88.0106 -91.5439
v  3.0000 88.0106 -82.7288
v  3.0000 21.5462 -0.1001
v  3.0000 21.5462 -8.9152
v  3.0000 88.0105 -8.9152
v  3.0000 88.0105 -0.1001
v  3.0000 183.7235 -8.9152
v  3.0000 183.7235 -0.1001
v  3.0000 193.4945 -8.9152
v  3.0000 193.4945 -0.1001
v  3.0000 201.6925 -82.7288
v  3.0000 193.4945 -82.7288
v  3.0000 201.6925 -8.9152
v  3.0000 201.6925 -0.1001
v  3.0000 193.4945 -91.5439
v  3.0000 11.7597 -91.5439
v  3.0000 11.7597 -82.7288
v  3.0000 3.5616 -82.7288
v  3.0000 3.5616 -91.5439
v  3.0000 201.6925 -91.5439
v  3.0000 3.5616 -0.1001
v  3.0000 3.5616 -8.9152
v  3.0000 11.7597 -8.9152
v  3.0000 11.7597 -0.1001
v  0.0000 3.5616 -0.1001
v  0.0000 3.5616 -8.9152
v  0.0000 3.5616 -18.6611
v  0.0000 3.5616 -72.9829
v  0.0000 3.5616 -82.7288
v  0.0000 3.5616 -91.5439
v  0.0000 11.7597 -91.5439
v  0.0000 21.5462 -91.5439
v  0.0000 88.0106 -91.5439
v  0.0000 97.7971 -91.5439
v  0.0000 106.4283 -91.5439
v  0.0000 183.7235 -91.5439
v  0.0000 193.4945 -91.5439
v  0.0000 201.6925 -91.5439
v  0.0000 201.6925 -82.7288
v  0.0000 201.6925 -73.6192
v  0.0000 201.6925 -18.4698
v  0.0000 201.6925 -8.9152
v  0.0000 201.6925 -0.1001
v  0.0000 193.4945 -0.1001
v  0.0000 183.7235 -0.1001
v  0.0000 106.4283 -0.1001
v  0.0000 97.7970 -0.1001
v  0.0000 88.0105 -0.1001
v  0.0000 21.5462 -0.1001
v  0.0000 11.7597 -0.1001
v  0.0000 11.7597 -72.9829
v  0.0000 11.7597 -18.6611
v  0.0000 88.0105 -8.9152
v  0.0000 21.5462 -8.9152
v  0.0000 193.4945 -18.4698
v  0.0000 193.4945 -73.6192
v  0.0000 106.4283 -82.7288
v  0.0000 183.7235 -82.7288
v  0.0000 183.7235 -8.9152
v  0.0000 106.4283 -8.9152
v  0.0000 106.4283 -72.9829
v  0.0000 106.4283 -18.6611
v  0.0000 88.0106 -82.7288
v  0.0000 21.5462 -82.7288
v  0.0000 97.7970 -18.6611
v  0.0000 97.7971 -72.9829
v  3.0000 106.4283 72.9829
v  3.0000 97.7971 72.9829
v  3.0000 97.7970 18.6611
v  3.0000 106.4283 18.6611
v  3.0000 106.4283 82.7288
v  3.0000 106.4283 91.5439
v  3.0000 97.7971 91.5439
v  3.0000 97.7971 82.7288
v  3.0000 106.4283 8.9152
v  3.0000 97.7970 8.9152
v  3.0000 97.7970 0.1001
v  3.0000 106.4283 0.1001
v  3.0000 193.4945 73.6192
v  3.0000 193.4945 18.4698
v  3.0000 201.6925 18.4698
v  3.0000 201.6925 73.6192
v  3.0000 11.7597 72.9829
v  3.0000 3.5616 72.9829
v  3.0000 3.5616 18.6611
v  3.0000 11.7597 18.6611
v  3.0000 183.7235 82.7288
v  3.0000 183.7235 91.5439
v  3.0000 88.0106 82.7288
v  3.0000 88.0106 91.5439
v  3.0000 21.5462 91.5439
v  3.0000 21.5462 82.7288
v  3.0000 88.0105 0.1001
v  3.0000 88.0105 8.9152
v  3.0000 21.5462 8.9152
v  3.0000 21.5462 0.1001
v  3.0000 183.7235 0.1001
v  3.0000 183.7235 8.9152
v  3.0000 193.4945 0.1001
v  3.0000 193.4945 8.9152
v  3.0000 201.6925 82.7288
v  3.0000 193.4945 82.7288
v  3.0000 201.6925 0.1001
v  3.0000 201.6925 8.9152
v  3.0000 193.4945 91.5439
v  3.0000 11.7597 91.5439
v  3.0000 3.5616 91.5439
v  3.0000 3.5616 82.7288
v  3.0000 11.7597 82.7288
v  3.0000 201.6925 91.5439
v  3.0000 3.5616 0.1001
v  3.0000 11.7597 0.1001
v  3.0000 11.7597 8.9152
v  3.0000 3.5616 8.9152
v  0.0000 3.5616 8.9152
v  0.0000 3.5616 0.1001
v  0.0000 3.5616 18.6611
v  0.0000 3.5616 72.9829
v  0.0000 3.5616 91.5439
v  0.0000 3.5616 82.7288
v  0.0000 11.7597 91.5439
v  0.0000 88.0106 91.5439
v  0.0000 21.5462 91.5439
v  0.0000 106.4283 91.5439
v  0.0000 97.7971 91.5439
v  0.0000 183.7235 91.5439
v  0.0000 193.4945 91.5439
v  0.0000 201.6925 91.5439
v  0.0000 201.6925 82.7288
v  0.0000 201.6925 73.6192
v  0.0000 201.6925 18.4698
v  0.0000 201.6925 8.9152
v  0.0000 201.6925 0.1001
v  0.0000 193.4945 0.1001
v  0.0000 183.7235 0.1001
v  0.0000 106.4283 0.1001
v  0.0000 97.7970 0.1001
v  0.0000 21.5462 0.1001
v  0.0000 88.0105 0.1001
v  0.0000 11.7597 0.1001
v  0.0000 11.7597 72.9829
v  0.0000 11.7597 18.6611
v  0.0000 21.5462 8.9152
v  0.0000 88.0105 8.9152
v  0.0000 193.4945 18.4698
v  0.0000 193.4945 73.6192
v  0.0000 106.4283 82.7288
v  0.0000 183.7235 82.7288
v  0.0000 106.4283 8.9152
v  0.0000 183.7235 8.9152
v  0.0000 106.4283 72.9829
v  0.0000 106.4283 18.6611
v  0.0000 21.5462 82.7288
v  0.0000 88.0106 82.7288
v  0.0000 97.7970 18.6611
v  0.0000 97.7971 72.9829
# 212 vertices

vn 1.0000 0.0000 -0.0000
vn 0.0000 0.0000 1.0000
vn 0.0000 0.0001 1.0000
vn 0.0000 1.0000 -0.0000
vn 0.0000 0.0001 -1.0000
vn 0.0000 0.0000 -1.0000
vn 0.0000 -1.0000 -0.0000
vn 0.0000 1.0000 -0.0001
vn 0.0000 -1.0000 0.0001
vn 0.0000 -1.0000 -0.0001
vn 0.0000 1.0000 0.0001
vn 0.0000 -1.0000 0.0000
vn 0.0000 -0.6819 0.7314
vn 0.0000 -0.6991 0.7150
vn 0.0000 -0.6819 -0.7314
vn 0.0000 -0.6991 -0.7150
vn 0.0000 -0.7056 -0.7086
vn 0.0000 -0.7056 0.7086
vn 0.0000 0.7056 0.7086
vn 0.0000 0.7056 -0.7086
# 20 vertex normals

vt -3.4021 -3.0072 0.0000
vt -3.4021 -3.2518 0.0000
vt -3.1658 -3.2518 0.0000
vt -3.1658 -3.0072 0.0000
vt -3.1658 3.7505 0.0000
vt -3.4021 3.7505 0.0000
vt -2.1230 4.1748 0.0000
vt -2.1230 -3.2643 0.0000
vt -1.8784 -3.2643 0.0000
vt -1.8784 4.1748 0.0000
vt -2.5098 4.1751 0.0000
vt -2.7544 4.1751 0.0000
vt -2.7544 -3.2640 0.0000
vt -2.5098 -3.2640 0.0000
vt -3.1658 3.9951 0.0000
vt -3.4021 3.9951 0.0000
vt -2.8649 4.1751 0.0000
vt -2.8649 -3.2640 0.0000
vt -3.4021 -3.3071 0.0000
vt -3.4021 -3.4176 0.0000
vt -3.1658 -3.4176 0.0000
vt -3.1658 -3.3071 0.0000
vt -3.5126 -3.0072 0.0000
vt -3.5126 -3.2518 0.0000
vt -3.5126 3.7505 0.0000
vt -3.5126 3.9951 0.0000
vt -3.1658 4.0503 0.0000
vt -3.1658 4.1608 0.0000
vt -3.4021 4.1608 0.0000
vt -3.4021 4.0504 0.0000
vt -1.7679 -3.2643 0.0000
vt -1.7679 4.1748 0.0000
vt -2.1230 -3.3748 0.0000
vt -1.8784 -3.3748 0.0000
vt -2.2335 4.1748 0.0000
vt -2.2335 -3.2643 0.0000
vt -3.0553 -3.0072 0.0000
vt -3.0553 3.7505 0.0000
vt -2.3993 -3.2640 0.0000
vt -2.3993 4.1751 0.0000
vt -2.7544 -3.3745 0.0000
vt -2.5098 -3.3745 0.0000
vt -3.5126 -3.3071 0.0000
vt -3.0553 -3.3071 0.0000
vt -3.0553 -3.2518 0.0000
vt -3.0553 4.0503 0.0000
vt -3.0553 3.9951 0.0000
vt -3.5126 4.0504 0.0000
vt 0.8109 -2.4039 0.0000
vt 1.1289 -2.4038 0.0000
vt 1.1289 -0.4029 0.0000
vt 0.8109 -0.4029 0.0000
vt 1.1289 -2.7628 0.0000
vt 0.8109 -2.7628 0.0000
vt 0.8110 -3.0875 0.0000
vt 1.1289 -3.0875 0.0000
vt 1.1289 -0.0440 0.0000
vt 1.1289 0.2807 0.0000
vt 0.8109 0.2808 0.0000
vt 0.8109 -0.0439 0.0000
vt 1.9385 3.1813 0.0000
vt 1.6365 3.1813 0.0000
vt 1.6365 1.1499 0.0000
vt 1.9385 1.1499 0.0000
vt 0.9361 1.1648 0.0000
vt 1.2381 1.1648 0.0000
vt 1.2381 3.1657 0.0000
vt 0.9361 3.1657 0.0000
vt 3.1095 -3.0787 0.0000
vt 3.1095 -0.2316 0.0000
vt 2.7848 -0.2316 0.0000
vt 2.7848 -3.0787 0.0000
vt -0.5766 -2.6650 0.0000
vt -0.2519 -2.6650 0.0000
vt -0.2519 -0.2168 0.0000
vt -0.5766 -0.2168 0.0000
vt -0.4678 1.0076 0.0000
vt -0.1431 1.0076 0.0000
vt -0.1431 3.4558 0.0000
vt -0.4678 3.4558 0.0000
vt 2.7034 0.6261 0.0000
vt 2.7034 3.4732 0.0000
vt 2.3787 3.4732 0.0000
vt 2.3787 0.6261 0.0000
vt 2.7034 3.8331 0.0000
vt 2.3787 3.8331 0.0000
vt 1.9385 0.8143 0.0000
vt 1.6365 0.8143 0.0000
vt 1.6365 3.8579 0.0000
vt 1.6365 3.5332 0.0000
vt 1.9385 3.5332 0.0000
vt 1.9385 3.8579 0.0000
vt 3.1095 0.1284 0.0000
vt 2.7848 0.1284 0.0000
vt 1.2381 0.4811 0.0000
vt 1.2381 0.8058 0.0000
vt 0.9361 0.8058 0.0000
vt 0.9361 0.4811 0.0000
vt 1.9385 0.4896 0.0000
vt 1.6365 0.4896 0.0000
vt 0.9361 3.8494 0.0000
vt 0.9361 3.5247 0.0000
vt 1.2381 3.5247 0.0000
vt 1.2381 3.8494 0.0000
vt 0.8256 3.8494 0.0000
vt 0.8256 3.5247 0.0000
vt 0.8256 3.1657 0.0000
vt 0.8256 1.1648 0.0000
vt 0.8256 0.8058 0.0000
vt 0.8256 0.4811 0.0000
vt -0.2519 -3.0255 0.0000
vt -0.2519 -3.3274 0.0000
vt -0.1414 -3.3274 0.0000
vt -0.1414 -3.0255 0.0000
vt -0.1414 -2.6650 0.0000
vt -0.1414 -0.2168 0.0000
vt -0.2519 0.4616 0.0000
vt -0.2519 0.1437 0.0000
vt -0.1414 0.1437 0.0000
vt -0.1414 0.4616 0.0000
vt 3.2200 -0.2315 0.0000
vt 3.2200 -3.0787 0.0000
vt 3.2200 0.1284 0.0000
vt 3.1094 0.4303 0.0000
vt 3.2199 0.4303 0.0000
vt 2.0490 0.4896 0.0000
vt 2.0490 0.8143 0.0000
vt 2.0490 1.1499 0.0000
vt 2.0490 3.1813 0.0000
vt 2.0490 3.5332 0.0000
vt 2.0490 3.8579 0.0000
vt 2.3788 4.1351 0.0000
vt 2.2683 4.1351 0.0000
vt 2.2682 3.8332 0.0000
vt 2.2682 3.4732 0.0000
vt 2.2682 0.6261 0.0000
vt -0.4678 3.8163 0.0000
vt -0.4678 4.1342 0.0000
vt -0.5783 4.1342 0.0000
vt -0.5783 3.8162 0.0000
vt -0.5783 3.4558 0.0000
vt -0.5783 1.0076 0.0000
vt -0.4678 0.3451 0.0000
vt -0.4678 0.6471 0.0000
vt -0.5783 0.6471 0.0000
vt -0.5783 0.3452 0.0000
vt 1.3486 1.1648 0.0000
vt 1.3486 3.1657 0.0000
vt -0.0326 3.4558 0.0000
vt -0.0326 1.0076 0.0000
vt 1.5260 3.1813 0.0000
vt 1.5260 1.1499 0.0000
vt 2.6743 -3.0787 0.0000
vt 2.6743 -0.2316 0.0000
vt 2.8139 3.4732 0.0000
vt 2.8139 0.6261 0.0000
vt 1.2394 -2.4038 0.0000
vt 1.2394 -0.4029 0.0000
vt -0.6872 -0.2168 0.0000
vt -0.6872 -2.6650 0.0000
vt 0.7004 -0.4029 0.0000
vt 0.7004 -2.4038 0.0000
vt 0.2421 1.0027 0.0000
vt 0.5600 1.0027 0.0000
vt 0.5600 3.0036 0.0000
vt 0.2420 3.0036 0.0000
vt 0.2421 0.6437 0.0000
vt 0.2421 0.3190 0.0000
vt 0.5600 0.3190 0.0000
vt 0.5600 0.6437 0.0000
vt 0.2421 3.3626 0.0000
vt 0.5600 3.3626 0.0000
vt 0.5600 3.6873 0.0000
vt 0.2421 3.6873 0.0000
vt 2.4070 -2.4299 0.0000
vt 2.4070 -0.3985 0.0000
vt 2.1051 -0.3985 0.0000
vt 2.1051 -2.4299 0.0000
vt 1.4713 -2.3935 0.0000
vt 1.7732 -2.3935 0.0000
vt 1.7732 -0.3926 0.0000
vt 1.4713 -0.3926 0.0000
vt 0.3983 -0.2299 0.0000
vt 0.0736 -0.2299 0.0000
vt 0.0736 -3.0770 0.0000
vt 0.3983 -3.0770 0.0000
vt -0.7795 3.4560 0.0000
vt -1.1042 3.4560 0.0000
vt -1.1042 1.0078 0.0000
vt -0.7795 1.0078 0.0000
vt -0.8886 -0.2168 0.0000
vt -1.2133 -0.2168 0.0000
vt -1.2133 -2.6649 0.0000
vt -0.8886 -2.6649 0.0000
vt 3.7931 -0.2316 0.0000
vt 3.4684 -0.2316 0.0000
vt 3.4684 -3.0787 0.0000
vt 3.7931 -3.0787 0.0000
vt 3.7931 0.1283 0.0000
vt 3.4684 0.1283 0.0000
vt 2.1051 -2.7654 0.0000
vt 2.4070 -2.7655 0.0000
vt 2.4071 0.2781 0.0000
vt 2.1051 0.2781 0.0000
vt 2.1051 -0.0466 0.0000
vt 2.4071 -0.0466 0.0000
vt 0.3983 0.1300 0.0000
vt 0.0736 0.1300 0.0000
vt 1.4713 -3.0772 0.0000
vt 1.7732 -3.0772 0.0000
vt 1.7732 -2.7525 0.0000
vt 1.4713 -2.7525 0.0000
vt 2.1051 -3.0902 0.0000
vt 2.4070 -3.0902 0.0000
vt 1.7732 0.2911 0.0000
vt 1.4713 0.2911 0.0000
vt 1.4713 -0.0336 0.0000
vt 1.7732 -0.0336 0.0000
vt 1.8837 -0.0336 0.0000
vt 1.8837 0.2911 0.0000
vt 1.8837 -0.3926 0.0000
vt 1.8837 -2.3935 0.0000
vt 1.8837 -3.0772 0.0000
vt 1.8837 -2.7525 0.0000
vt -1.1042 0.6473 0.0000
vt -1.2147 0.6473 0.0000
vt -1.2148 0.3453 0.0000
vt -1.1042 0.3453 0.0000
vt -1.2147 3.4560 0.0000
vt -1.2147 1.0078 0.0000
vt -1.1042 4.1344 0.0000
vt -1.2147 4.1343 0.0000
vt -1.2147 3.8164 0.0000
vt -1.1042 3.8164 0.0000
vt -0.0369 -3.0770 0.0000
vt -0.0369 -0.2299 0.0000
vt -0.0369 0.1300 0.0000
vt 0.0736 0.4320 0.0000
vt -0.0369 0.4320 0.0000
vt 1.9946 -2.7655 0.0000
vt 1.9946 -3.0902 0.0000
vt 1.9946 -2.4299 0.0000
vt 1.9946 -0.3985 0.0000
vt 1.9946 -0.0466 0.0000
vt 1.9946 0.2781 0.0000
vt 3.9036 0.1283 0.0000
vt 3.9035 0.4303 0.0000
vt 3.7930 0.4303 0.0000
vt 3.9036 -0.2316 0.0000
vt 3.9036 -3.0787 0.0000
vt -0.8886 0.1437 0.0000
vt -0.7781 0.1437 0.0000
vt -0.7781 0.4616 0.0000
vt -0.8886 0.4617 0.0000
vt -0.7781 -2.6649 0.0000
vt -0.7781 -0.2168 0.0000
vt -0.8886 -3.3274 0.0000
vt -0.7781 -3.3274 0.0000
vt -0.7781 -3.0254 0.0000
vt -0.8886 -3.0254 0.0000
vt 1.3608 -2.3935 0.0000
vt 1.3608 -0.3926 0.0000
vt -1.3238 -2.6649 0.0000
vt -1.3238 -0.2168 0.0000
vt 2.5175 -0.3985 0.0000
vt 2.5175 -2.4299 0.0000
vt 0.5088 -3.0770 0.0000
vt 0.5088 -0.2299 0.0000
vt 3.3579 -3.0787 0.0000
vt 3.3579 -0.2316 0.0000
vt 0.1315 1.0027 0.0000
vt 0.1315 3.0036 0.0000
vt -0.6690 1.0078 0.0000
vt -0.6690 3.4560 0.0000
vt 0.6705 3.0036 0.0000
vt 0.6705 1.0027 0.0000
vt -0.5766 -3.0255 0.0000
vt -0.5766 0.1437 0.0000
vt -0.1431 0.6471 0.0000
vt -0.1431 3.8163 0.0000
vt -0.7795 3.8164 0.0000
vt -0.7795 0.6473 0.0000
vt -1.2133 0.1437 0.0000
vt -1.2133 -3.0254 0.0000
vt 1.2394 -2.7628 0.0000
vt 1.2394 -0.0440 0.0000
vt 0.1315 0.6437 0.0000
vt 0.1315 3.3626 0.0000
vt 0.7448 4.5337 0.0000
vt 0.7308 5.0256 0.0000
vt 0.6204 5.0225 0.0000
vt 0.6343 4.5306 0.0000
vt 1.8529 4.4785 0.0000
vt 1.8259 4.9812 0.0000
vt 1.7156 4.9753 0.0000
vt 1.7426 4.4726 0.0000
vt 2.3219 4.4602 0.0000
vt 2.3318 4.9521 0.0000
vt 2.2213 4.9544 0.0000
vt 2.2114 4.4624 0.0000
vt -0.4187 4.4167 0.0000
vt -0.4076 4.9200 0.0000
vt -0.5181 4.9224 0.0000
vt -0.5292 4.4192 0.0000
vt 0.1388 4.4836 0.0000
vt 0.1428 4.9923 0.0000
vt 0.0323 4.9932 0.0000
vt 0.0283 4.4844 0.0000
vt 2.8326 4.4095 0.0000
vt 2.8303 4.9182 0.0000
vt 2.7198 4.9177 0.0000
vt 2.7221 4.4090 0.0000
vt 1.2546 4.4052 0.0000
vt 1.2586 4.9139 0.0000
vt 1.1481 4.9148 0.0000
vt 1.1441 4.4061 0.0000
vt -2.9017 4.4378 0.0000
vt -2.8916 4.9464 0.0000
vt -3.0021 4.9486 0.0000
vt -3.0122 4.4400 0.0000
vt -3.4469 4.3790 0.0000
vt -3.4324 4.8875 0.0000
vt -3.5429 4.8907 0.0000
vt -3.5574 4.3821 0.0000
vt -2.2265 4.4513 0.0000
vt -2.2197 4.9599 0.0000
vt -2.3302 4.9614 0.0000
vt -2.3370 4.4527 0.0000
vt -1.6090 4.9468 0.0000
vt -1.6150 4.4381 0.0000
vt -1.5045 4.4368 0.0000
vt -1.4985 4.9455 0.0000
vt -1.0069 4.8641 0.0000
vt -1.0027 4.3554 0.0000
vt -0.8922 4.3563 0.0000
vt -0.8964 4.8650 0.0000
vt 0.3952 4.7349 0.0000
vt -3.1855 4.6249 0.0000
vt -0.1617 4.6572 0.0000
vt 0.9826 4.8039 0.0000
vt -2.6423 4.6881 0.0000
vt -1.2472 4.6892 0.0000
vt 3.0858 4.6640 0.0000
vt -1.9688 4.7011 0.0000
vt 2.0904 4.7490 0.0000
vt 2.5718 4.6840 0.0000
vt -0.6400 4.6138 0.0000
vt 1.5109 4.6586 0.0000
# 348 texture coords

g 72x78_double_smartside_door
usemtl Material__27
s 1
f 1/1/1 2/2/1 3/3/1 4/4/1 
f 5/5/1 6/6/1 1/1/1 4/4/1 
f 5/7/1 7/8/1 8/9/1 9/10/1 
f 4/11/1 3/12/1 10/13/1 11/14/1 
f 9/15/1 12/16/1 6/6/1 5/5/1 
f 3/12/2 13/17/2 14/18/2 10/13/2 
f 15/19/3 16/20/3 17/21/3 18/22/3 
f 1/1/4 19/23/4 20/24/4 2/2/4 
f 6/6/4 21/25/4 19/23/4 1/1/4 
f 12/16/4 22/26/4 21/25/4 6/6/4 
f 23/27/5 24/28/5 25/29/5 26/30/5 
f 8/9/6 27/31/6 28/32/6 9/10/6 
f 7/8/7 29/33/7 27/34/7 8/9/7 
f 5/7/2 30/35/2 29/36/2 7/8/2 
f 4/4/7 31/37/7 30/38/7 5/5/7 
f 11/14/6 32/39/6 31/40/6 4/11/6 
f 10/13/7 14/41/7 32/42/7 11/14/7 
f 15/19/1 18/22/1 3/3/1 2/2/1 
f 16/43/8 15/19/8 2/2/4 20/24/4 
f 18/22/9 17/44/9 13/45/9 3/3/9 
f 23/27/1 26/30/1 12/16/1 9/15/1 
f 24/46/10 23/27/10 9/15/10 28/47/10 
f 26/30/11 25/48/11 22/26/4 12/16/4 
s off
f 33/49/1 34/50/1 35/51/1 36/52/1 
f 37/53/1 38/54/1 39/55/1 40/56/1 
f 41/57/1 42/58/1 43/59/1 44/60/1 
f 45/61/1 46/62/1 47/63/1 48/64/1 
f 49/65/1 50/66/1 51/67/1 52/68/1 
f 40/69/1 53/70/1 54/71/1 37/72/1 
f 55/73/1 56/74/1 57/75/1 58/76/1 
f 59/77/1 60/78/1 61/79/1 62/80/1 
f 41/81/1 63/82/1 64/83/1 42/84/1 
f 64/83/1 63/82/1 65/85/1 66/86/1 
f 67/87/1 48/64/1 47/63/1 68/88/1 
f 66/89/1 65/90/1 69/91/1 70/92/1 
f 53/70/1 71/93/1 68/94/1 54/71/1 
f 72/95/1 73/96/1 74/97/1 75/98/1 
f 69/91/1 65/90/1 46/62/1 45/61/1 
f 76/99/1 67/87/1 68/88/1 71/100/1 
f 77/101/1 78/102/1 79/103/1 80/104/1 
f 78/102/7 77/101/7 81/105/7 82/106/7 
f 52/68/7 83/107/7 84/108/7 49/65/7 
f 75/98/7 74/97/7 85/109/7 86/110/7 
f 72/111/6 75/112/6 86/113/6 87/114/6 
f 56/74/6 88/115/6 89/116/6 57/75/6 
f 40/117/6 39/118/6 90/119/6 91/120/6 
f 92/121/6 53/70/6 40/69/6 91/122/6 
f 71/93/6 53/70/6 92/121/6 93/123/6 
f 76/124/6 71/93/6 93/123/6 94/125/6 
f 67/87/4 76/99/4 94/126/4 95/127/4 
f 48/64/4 67/87/4 95/127/4 96/128/4 
f 97/129/4 45/61/4 48/64/4 96/128/4 
f 69/91/4 45/61/4 97/129/4 98/130/4 
f 70/92/4 69/91/4 98/130/4 99/131/4 
f 66/86/2 70/132/2 99/133/2 100/134/2 
f 64/83/2 66/86/2 100/134/2 101/135/2 
f 102/136/2 42/84/2 64/83/2 101/135/2 
f 43/137/2 42/138/2 102/139/2 103/140/2 
f 62/80/2 104/141/2 105/142/2 59/77/2 
f 77/143/2 80/144/2 106/145/2 81/146/2 
f 50/66/4 107/147/4 108/148/4 51/67/4 
f 109/149/6 61/79/6 60/78/6 110/150/6 
f 47/63/7 46/62/7 111/151/7 112/152/7 
f 113/153/2 37/72/2 54/71/2 114/154/2 
f 115/155/6 63/82/6 41/81/6 116/156/6 
f 34/50/4 117/157/4 118/158/4 35/51/4 
f 58/76/2 119/159/2 120/160/2 55/73/2 
f 36/52/7 121/161/7 122/162/7 33/49/7 
f 123/163/1 124/164/1 125/165/1 126/166/1 
f 127/167/1 128/168/1 129/169/1 130/170/1 
f 131/171/1 132/172/1 133/173/1 134/174/1 
f 135/175/1 136/176/1 137/177/1 138/178/1 
f 139/179/1 140/180/1 141/181/1 142/182/1 
f 143/183/1 144/184/1 128/185/1 127/186/1 
f 145/187/1 146/188/1 147/189/1 148/190/1 
f 149/191/1 150/192/1 151/193/1 152/194/1 
f 153/195/1 154/196/1 131/197/1 134/198/1 
f 153/195/1 155/199/1 156/200/1 154/196/1 
f 157/201/1 158/202/1 135/175/1 138/178/1 
f 155/203/1 159/204/1 160/205/1 156/206/1 
f 144/184/1 143/183/1 158/207/1 161/208/1 
f 162/209/1 163/210/1 164/211/1 165/212/1 
f 160/205/1 137/177/1 136/176/1 156/206/1 
f 166/213/1 161/214/1 158/202/1 157/201/1 
f 167/215/1 168/216/1 169/217/1 170/218/1 
f 170/218/7 171/219/7 172/220/7 167/215/7 
f 173/221/7 141/181/7 140/180/7 174/222/7 
f 163/210/7 175/223/7 176/224/7 164/211/7 
f 162/225/2 177/226/2 175/227/2 163/228/2 
f 146/188/2 178/229/2 179/230/2 147/189/2 
f 128/231/2 180/232/2 181/233/2 129/234/2 
f 180/235/2 128/185/2 144/184/2 182/236/2 
f 161/208/2 183/237/2 182/236/2 144/184/2 
f 166/238/2 184/239/2 183/237/2 161/208/2 
f 157/201/4 185/240/4 184/241/4 166/213/4 
f 138/178/4 186/242/4 185/240/4 157/201/4 
f 186/242/4 138/178/4 137/177/4 187/243/4 
f 160/205/4 188/244/4 187/243/4 137/177/4 
f 159/204/4 189/245/4 188/244/4 160/205/4 
f 155/199/6 190/246/6 189/247/6 159/248/6 
f 153/195/6 191/249/6 190/246/6 155/199/6 
f 153/195/6 134/198/6 192/250/6 191/249/6 
f 133/251/6 193/252/6 192/253/6 134/254/6 
f 152/194/6 194/255/6 195/256/6 149/191/6 
f 167/257/6 172/258/6 196/259/6 168/260/6 
f 197/261/4 139/179/4 142/182/4 198/262/4 
f 199/263/2 151/193/2 150/192/2 200/264/2 
f 201/265/7 136/176/7 135/175/7 202/266/7 
f 203/267/6 204/268/6 143/183/6 127/186/6 
f 205/269/2 131/197/2 154/196/2 206/270/2 
f 207/271/4 123/163/4 126/166/4 208/272/4 
f 148/190/6 209/273/6 210/274/6 145/187/6 
f 211/275/12 125/165/12 124/164/12 212/276/12 
f 73/277/1 72/111/1 56/74/1 55/73/1 
f 39/118/1 38/278/1 58/76/1 57/75/1 
f 80/144/1 79/279/1 60/78/1 59/77/1 
f 44/280/1 43/137/1 62/80/1 61/79/1 
f 72/111/6 87/114/6 88/115/6 56/74/6 
f 90/119/6 39/118/6 57/75/6 89/116/6 
f 43/137/2 103/140/2 104/141/2 62/80/2 
f 106/145/2 80/144/2 59/77/2 105/142/2 
f 130/281/1 129/234/1 146/188/1 145/187/1 
f 162/225/1 165/282/1 148/190/1 147/189/1 
f 133/251/1 132/283/1 150/192/1 149/191/1 
f 169/284/1 168/260/1 152/194/1 151/193/1 
f 129/234/2 181/233/2 178/229/2 146/188/2 
f 177/226/2 162/225/2 147/189/2 179/230/2 
f 168/260/6 196/259/6 194/255/6 152/194/6 
f 193/252/6 133/251/6 149/191/6 195/256/6 
f 38/54/1 37/53/1 34/50/1 33/49/1 
f 41/57/1 44/60/1 36/52/1 35/51/1 
f 74/97/1 73/96/1 50/66/1 49/65/1 
f 79/103/1 78/102/1 52/68/1 51/67/1 
f 78/102/7 82/106/7 83/107/7 52/68/7 
f 85/109/7 74/97/7 49/65/7 84/108/7 
f 37/53/4 113/285/4 117/157/4 34/50/4 
f 116/286/4 41/57/4 35/51/4 118/158/4 
f 127/167/1 130/170/1 124/164/1 123/163/1 
f 132/172/1 131/171/1 126/166/1 125/165/1 
f 165/212/1 164/211/1 140/180/1 139/179/1 
f 170/218/1 169/217/1 142/182/1 141/181/1 
f 171/219/7 170/218/7 141/181/7 173/221/7 
f 164/211/7 176/224/7 174/222/7 140/180/7 
f 203/287/4 127/167/4 123/163/4 207/271/4 
f 131/171/4 205/288/4 208/272/4 126/166/4 
f 54/289/13 47/290/13 112/291/13 114/292/13 
f 154/293/14 136/294/14 201/295/14 206/296/14 
f 135/297/15 143/298/15 204/299/15 202/300/15 
f 46/301/16 63/302/16 115/303/16 111/304/16 
f 36/305/17 61/306/17 109/307/17 121/308/17 
f 124/309/17 145/310/17 210/311/17 212/312/17 
f 150/313/18 125/314/18 211/315/18 200/316/18 
f 58/317/18 33/318/18 122/319/18 119/320/18 
f 50/321/19 55/322/19 120/323/19 107/324/19 
f 142/325/19 151/326/19 199/327/19 198/328/19 
f 108/329/20 110/330/20 60/331/20 51/332/20 
f 197/333/20 209/334/20 148/335/20 139/336/20 
f 44/337/1 61/306/1 36/305/1 
f 73/338/1 55/322/1 50/321/1 
f 63/302/1 46/301/1 65/339/1 
f 47/290/1 54/289/1 68/340/1 
f 38/341/1 33/318/1 58/317/1 
f 79/342/1 51/332/1 60/331/1 
f 130/343/1 145/310/1 124/309/1 
f 169/344/1 151/326/1 142/325/1 
f 156/345/1 136/294/1 154/293/1 
f 158/346/1 143/298/1 135/297/1 
f 165/347/1 139/336/1 148/335/1 
f 132/348/1 125/314/1 150/313/1 
# 157 polygons - 12 triangles

