# 3ds Max Wavefront OBJ Exporter v0.97b - (c)2007 guruware
# File Created: 05.09.2018 21:01:26

mtllib 7x7_double_wood_door.mtl

#
# object 7x7_double_wood_door
#

v  2.9993 106.5899 77.3296
v  2.9993 106.5899 29.4508
v  2.9993 112.6811 29.4508
v  2.9993 112.6811 77.3296
v  2.9993 112.6811 0.1001
v  2.9993 112.6811 6.3752
v  2.9993 106.5899 6.3752
v  2.9993 106.5899 0.1001
v  2.9993 210.3844 100.4048
v  2.9993 210.3844 6.3752
v  2.9993 216.9325 6.3752
v  2.9993 216.9325 100.4048
v  2.9993 10.0476 29.4508
v  2.9993 10.0476 77.3296
v  2.9993 3.5197 77.3296
v  2.9993 3.5197 29.4508
v  2.9993 112.6811 100.4048
v  2.9993 210.3845 106.6799
v  2.9993 112.6811 106.6799
v  2.9993 32.8986 100.4048
v  2.9993 83.5980 100.4048
v  2.9993 83.5980 106.6799
v  2.9993 32.8986 106.6799
v  2.9993 32.8986 0.1001
v  2.9993 83.5980 0.1001
v  2.9993 83.5980 6.3752
v  2.9993 32.8986 6.3752
v  2.9993 210.3844 0.1001
v  2.9993 23.3187 100.4048
v  2.9993 23.3187 106.6799
v  2.9993 92.5542 106.6799
v  2.9993 92.5542 100.4048
v  2.9993 23.3187 0.1001
v  2.9993 23.3187 6.3752
v  2.9993 92.5542 6.3752
v  2.9993 92.5542 0.1001
v  2.9993 106.5899 20.7958
v  2.9993 112.6811 20.7958
v  2.9993 112.6811 86.4296
v  2.9993 106.5899 86.4296
v  2.9993 10.0476 86.4296
v  2.9993 3.5197 86.4296
v  2.9993 3.5197 20.7958
v  2.9993 10.0476 20.7958
v  2.9993 106.5899 106.6799
v  2.9993 106.5899 100.4048
v  2.9993 10.0476 100.4048
v  2.9993 10.0476 106.6799
v  2.9993 3.5197 6.3752
v  2.9993 10.0476 6.3752
v  2.9993 10.0476 0.1001
v  2.9993 216.9325 106.6799
v  2.9993 3.5197 100.4048
v  2.9993 3.5197 0.1001
v  0.0000 3.5197 0.1001
v  0.0000 3.5197 6.3752
v  0.0000 3.5197 20.7958
v  0.0000 3.5197 29.4508
v  0.0000 3.5197 77.3296
v  0.0000 3.5197 86.4296
v  0.0000 3.5197 100.4048
v  2.9993 3.5197 106.6799
v  0.0000 3.5197 106.6799
v  0.0000 10.0476 106.6799
v  0.0000 23.3187 106.6799
v  0.0000 32.8986 106.6799
v  0.0000 83.5980 106.6799
v  0.0000 92.5542 106.6799
v  0.0000 106.5899 106.6799
v  0.0000 112.6811 106.6799
v  0.0000 210.3845 106.6799
v  0.0000 216.9325 106.6799
v  0.0000 216.9325 100.4048
v  0.0000 216.9325 6.3752
v  2.9993 216.9325 0.1001
v  0.0000 216.9325 0.1001
v  0.0000 210.3844 0.1001
v  0.0000 112.6811 0.1001
v  0.0000 106.5899 0.1001
v  0.0000 92.5542 0.1001
v  0.0000 83.5980 0.1001
v  0.0000 32.8986 0.1001
v  0.0000 23.3187 0.1001
v  0.0000 10.0476 0.1001
v  0.0000 23.3187 100.4048
v  0.0000 10.0476 100.4048
v  0.0000 10.0476 86.4296
v  0.0000 10.0476 20.7958
v  0.0000 10.0476 6.3752
v  0.0000 23.3187 6.3752
v  0.0000 112.6811 100.4048
v  0.0000 112.6811 86.4296
v  0.0000 92.5542 6.3752
v  0.0000 106.5899 6.3752
v  0.0000 106.5899 20.7958
v  0.0000 83.5980 100.4048
v  0.0000 32.8986 100.4048
v  0.0000 10.0476 77.3296
v  0.0000 10.0476 29.4508
v  0.0000 32.8986 6.3752
v  0.0000 83.5980 6.3752
v  0.0000 106.5899 29.4508
v  0.0000 106.5899 77.3296
v  0.0000 210.3844 6.3752
v  0.0000 210.3844 100.4048
v  0.0000 112.6811 77.3296
v  0.0000 112.6811 29.4508
v  0.0000 112.6811 6.3752
v  0.0000 112.6811 20.7958
v  0.0000 106.5899 100.4048
v  0.0000 92.5542 100.4048
v  0.0000 106.5899 86.4296
v  2.9993 106.5899 -29.4830
v  2.9993 106.5899 -77.3617
v  2.9993 112.6811 -77.3617
v  2.9993 112.6811 -29.4830
v  2.9993 112.6811 -106.7125
v  2.9993 112.6811 -100.4373
v  2.9993 106.5899 -100.4374
v  2.9993 106.5899 -106.7125
v  2.9993 210.3844 -6.4077
v  2.9993 210.3844 -100.4373
v  2.9993 216.9325 -100.4374
v  2.9993 216.9325 -6.4077
v  2.9993 10.0476 -77.3617
v  2.9993 10.0476 -29.4830
v  2.9993 3.5197 -29.4830
v  2.9993 3.5197 -77.3617
v  2.9993 112.6811 -6.4077
v  2.9993 210.3845 -0.1326
v  2.9993 112.6811 -0.1326
v  2.9993 32.8986 -6.4077
v  2.9993 83.5980 -6.4077
v  2.9993 83.5980 -0.1326
v  2.9993 32.8986 -0.1326
v  2.9993 32.8986 -106.7125
v  2.9993 83.5980 -106.7125
v  2.9993 83.5980 -100.4374
v  2.9993 32.8986 -100.4374
v  2.9993 210.3844 -106.7125
v  2.9993 23.3187 -6.4077
v  2.9993 23.3187 -0.1326
v  2.9993 92.5542 -0.1326
v  2.9993 92.5542 -6.4077
v  2.9993 23.3187 -106.7125
v  2.9993 23.3187 -100.4374
v  2.9993 92.5542 -100.4374
v  2.9993 92.5542 -106.7125
v  2.9993 106.5899 -86.0167
v  2.9993 112.6811 -86.0167
v  2.9993 112.6811 -20.3829
v  2.9993 106.5899 -20.3829
v  2.9993 10.0476 -20.3830
v  2.9993 3.5197 -20.3830
v  2.9993 3.5197 -86.0167
v  2.9993 10.0476 -86.0167
v  2.9993 106.5899 -0.1326
v  2.9993 106.5899 -6.4077
v  2.9993 10.0476 -6.4077
v  2.9993 10.0476 -0.1326
v  2.9993 3.5197 -100.4374
v  2.9993 10.0476 -100.4374
v  2.9993 10.0476 -106.7125
v  2.9993 216.9325 -0.1326
v  2.9993 3.5197 -6.4077
v  2.9993 3.5197 -106.7125
v  0.0000 3.5197 -106.7125
v  0.0000 3.5197 -100.4374
v  0.0000 3.5197 -86.0167
v  0.0000 3.5197 -77.3617
v  0.0000 3.5197 -29.4830
v  0.0000 3.5197 -20.3830
v  0.0000 3.5197 -6.4077
v  2.9993 3.5197 -0.1326
v  0.0000 3.5197 -0.1326
v  0.0000 10.0476 -0.1326
v  0.0000 23.3187 -0.1326
v  0.0000 32.8986 -0.1326
v  0.0000 83.5980 -0.1326
v  0.0000 92.5542 -0.1326
v  0.0000 106.5899 -0.1326
v  0.0000 112.6811 -0.1326
v  0.0000 210.3845 -0.1326
v  0.0000 216.9325 -0.1326
v  0.0000 216.9325 -6.4077
v  0.0000 216.9325 -100.4374
v  2.9993 216.9325 -106.7125
v  0.0000 216.9325 -106.7125
v  0.0000 210.3844 -106.7125
v  0.0000 112.6811 -106.7125
v  0.0000 106.5899 -106.7125
v  0.0000 92.5542 -106.7125
v  0.0000 83.5980 -106.7125
v  0.0000 32.8986 -106.7125
v  0.0000 23.3187 -106.7125
v  0.0000 10.0476 -106.7125
v  0.0000 23.3187 -6.4077
v  0.0000 10.0476 -6.4077
v  0.0000 10.0476 -20.3830
v  0.0000 10.0476 -86.0167
v  0.0000 10.0476 -100.4374
v  0.0000 23.3187 -100.4374
v  0.0000 112.6811 -6.4077
v  0.0000 112.6811 -20.3829
v  0.0000 92.5542 -100.4374
v  0.0000 106.5899 -100.4374
v  0.0000 106.5899 -86.0167
v  0.0000 83.5980 -6.4077
v  0.0000 32.8986 -6.4077
v  0.0000 10.0476 -29.4830
v  0.0000 10.0476 -77.3617
v  0.0000 32.8986 -100.4374
v  0.0000 83.5980 -100.4374
v  0.0000 106.5899 -77.3617
v  0.0000 106.5899 -29.4830
v  0.0000 210.3844 -100.4373
v  0.0000 210.3844 -6.4077
v  0.0000 112.6811 -29.4830
v  0.0000 112.6811 -77.3617
v  0.0000 112.6811 -100.4373
v  0.0000 112.6811 -86.0167
v  0.0000 106.5899 -6.4077
v  0.0000 92.5542 -6.4077
v  0.0000 106.5899 -20.3829
# 224 vertices

vn 1.0000 0.0000 -0.0000
vn 0.0000 -1.0000 -0.0000
vn 0.0000 0.0000 1.0000
vn 0.0000 1.0000 -0.0000
vn 0.0000 0.0000 -1.0000
vn 0.0000 -0.7251 0.6886
vn 0.0000 -0.7358 -0.6772
vn 0.0000 0.7166 -0.6975
vn 0.0000 0.7106 -0.7036
vn 0.0000 0.9248 -0.3804
vn 0.0000 0.9248 0.3804
vn 0.0000 0.7106 0.7036
vn 0.0000 -0.7084 0.7058
vn 0.0000 -0.9242 0.3818
vn 0.0000 -0.9242 -0.3818
vn 0.0000 -0.7084 -0.7058
vn 0.0000 0.7056 0.7086
# 17 vertex normals

vt 2.6390 -0.7544 0.0000
vt 2.6390 -2.4199 0.0000
vt 2.8509 -2.4199 0.0000
vt 2.8509 -0.7544 0.0000
vt -2.3996 0.8359 0.0000
vt -2.6179 0.8359 0.0000
vt -2.6179 0.6241 0.0000
vt -2.3996 0.6241 0.0000
vt 1.4313 4.9165 0.0000
vt 1.4313 1.6456 0.0000
vt 1.6591 1.6456 0.0000
vt 1.6591 4.9165 0.0000
vt 2.0287 3.3901 0.0000
vt 2.0287 1.7245 0.0000
vt 2.2558 1.7245 0.0000
vt 2.2558 3.3901 0.0000
vt -0.0350 0.7680 0.0000
vt -0.0350 4.1667 0.0000
vt -0.2533 4.1667 0.0000
vt -0.2533 0.7680 0.0000
vt -0.0350 -2.0074 0.0000
vt -0.0350 -0.2437 0.0000
vt -0.2533 -0.2437 0.0000
vt -0.2533 -2.0074 0.0000
vt -2.3997 -1.9394 0.0000
vt -2.3997 -0.1757 0.0000
vt -2.6179 -0.1757 0.0000
vt -2.6180 -1.9394 0.0000
vt -2.3996 4.2347 0.0000
vt -2.6179 4.2347 0.0000
vt -0.0350 -2.3406 0.0000
vt -0.2533 -2.3406 0.0000
vt -0.2533 0.0678 0.0000
vt -0.0350 0.0678 0.0000
vt -2.3997 -2.2726 0.0000
vt -2.6180 -2.2726 0.0000
vt -2.6179 0.1358 0.0000
vt -2.3996 0.1358 0.0000
vt 2.6390 -2.7210 0.0000
vt 2.8509 -2.7210 0.0000
vt 2.8509 -0.4378 0.0000
vt 2.6390 -0.4378 0.0000
vt 2.0287 1.4080 0.0000
vt 2.2558 1.4080 0.0000
vt 2.2558 3.6912 0.0000
vt 2.0287 3.6912 0.0000
vt 3.6368 -2.7687 0.0000
vt 3.6425 -1.6390 0.0000
vt 3.4080 -1.8711 0.0000
vt 3.4116 -2.5415 0.0000
vt 3.2141 1.2907 0.0000
vt 3.4260 1.5046 0.0000
vt 3.4509 2.1859 0.0000
vt 3.2141 2.4204 0.0000
vt 4.1356 3.6952 0.0000
vt 3.9122 3.4710 0.0000
vt 3.9149 2.7820 0.0000
vt 4.1356 2.5621 0.0000
vt -0.2533 0.5561 0.0000
vt -0.0350 0.5561 0.0000
vt 3.9574 -0.3630 0.0000
vt 4.1767 -0.1444 0.0000
vt 4.1746 0.5556 0.0000
vt 3.9606 0.7701 0.0000
vt -0.0350 -2.8022 0.0000
vt -0.2533 -2.8023 0.0000
vt 2.8509 0.0483 0.0000
vt 2.6390 0.0483 0.0000
vt 2.6390 -3.2226 0.0000
vt 2.8509 -3.2226 0.0000
vt 2.2558 4.1928 0.0000
vt 2.0287 4.1928 0.0000
vt -2.6180 -2.7343 0.0000
vt -2.3997 -2.7343 0.0000
vt 1.6591 5.1348 0.0000
vt 1.4313 5.1348 0.0000
vt 2.0287 0.9218 0.0000
vt 2.2558 0.9218 0.0000
vt 2.2558 4.4111 0.0000
vt 2.0287 4.4111 0.0000
vt 2.3601 4.4111 0.0000
vt 2.3601 4.1928 0.0000
vt 2.3601 3.6912 0.0000
vt 2.3601 3.3901 0.0000
vt 2.3601 1.7245 0.0000
vt 2.3601 1.4080 0.0000
vt 2.3601 0.9218 0.0000
vt 2.2558 0.7035 0.0000
vt 2.3601 0.7035 0.0000
vt 2.2558 0.5992 0.0000
vt 2.0287 0.7035 0.0000
vt 2.0287 0.5992 0.0000
vt -0.3576 -2.8023 0.0000
vt -0.3576 -2.3406 0.0000
vt -0.3576 -2.0074 0.0000
vt -0.3576 -0.2437 0.0000
vt -0.3576 0.0678 0.0000
vt -0.3577 0.5561 0.0000
vt -0.3577 0.7680 0.0000
vt -0.3577 4.1667 0.0000
vt 1.4313 5.2392 0.0000
vt 1.6591 5.2392 0.0000
vt 1.7635 5.1348 0.0000
vt 1.7635 4.9165 0.0000
vt 1.7635 1.6456 0.0000
vt 1.6591 1.4273 0.0000
vt 1.7635 1.4273 0.0000
vt 1.6591 1.3230 0.0000
vt 1.4313 1.4273 0.0000
vt 1.4313 1.3230 0.0000
vt -2.2952 4.2347 0.0000
vt -2.2952 0.8359 0.0000
vt -2.2952 0.6241 0.0000
vt -2.2953 0.1358 0.0000
vt -2.2953 -0.1757 0.0000
vt -2.2954 -1.9394 0.0000
vt -2.2954 -2.2726 0.0000
vt -2.2954 -2.7343 0.0000
vt 2.0287 4.5155 0.0000
vt 2.2558 4.5155 0.0000
vt 0.0693 -2.3406 0.0000
vt 0.0693 -2.8022 0.0000
vt 1.9244 0.9218 0.0000
vt 1.9244 1.4080 0.0000
vt 3.3055 -2.5415 0.0000
vt 3.3055 -1.8711 0.0000
vt 1.9244 3.6912 0.0000
vt 1.9244 4.1928 0.0000
vt -2.7223 -2.7343 0.0000
vt -2.7223 -2.2726 0.0000
vt 3.5552 2.1821 0.0000
vt 3.5302 1.5008 0.0000
vt 2.9553 0.0483 0.0000
vt 2.9553 -0.4378 0.0000
vt -2.7222 0.1358 0.0000
vt -2.7222 0.6241 0.0000
vt 2.5347 -3.2226 0.0000
vt 2.5347 -2.7210 0.0000
vt 4.2800 0.5556 0.0000
vt 4.2800 -0.1444 0.0000
vt 0.0693 -0.2437 0.0000
vt 0.0693 -2.0074 0.0000
vt 3.7439 -1.6390 0.0000
vt 3.7439 -2.7687 0.0000
vt 1.9243 1.7245 0.0000
vt 1.9243 3.3901 0.0000
vt 3.1098 1.2907 0.0000
vt 3.1098 2.4204 0.0000
vt -2.7223 -1.9394 0.0000
vt -2.7223 -0.1757 0.0000
vt 3.8547 -0.3630 0.0000
vt 3.8547 0.7701 0.0000
vt 2.5347 -2.4199 0.0000
vt 2.5347 -0.7544 0.0000
vt 4.2400 3.6952 0.0000
vt 4.2400 2.5621 0.0000
vt 1.3270 1.6456 0.0000
vt 1.3270 4.9165 0.0000
vt 0.0693 4.1667 0.0000
vt 0.0693 0.7680 0.0000
vt 2.9553 -0.7544 0.0000
vt 2.9553 -2.4199 0.0000
vt -2.7222 0.8359 0.0000
vt -2.7222 4.2347 0.0000
vt 2.9553 -2.7210 0.0000
vt 2.9553 -3.2226 0.0000
vt 0.0693 0.5561 0.0000
vt 0.0693 0.0678 0.0000
vt 3.8106 2.7816 0.0000
vt 3.8078 3.4706 0.0000
vt 2.5347 -0.4378 0.0000
vt 2.5347 0.0483 0.0000
vt 2.8485 1.4348 0.0000
vt 2.8485 3.1003 0.0000
vt 2.6366 3.1003 0.0000
vt 2.6366 1.4348 0.0000
vt 1.1389 0.7939 0.0000
vt 0.9206 0.7939 0.0000
vt 0.9206 0.5820 0.0000
vt 1.1389 0.5820 0.0000
vt 1.6804 -2.7722 0.0000
vt 1.6804 0.4987 0.0000
vt 1.4526 0.4987 0.0000
vt 1.4526 -2.7722 0.0000
vt 2.2453 -2.7981 0.0000
vt 2.2453 -1.1325 0.0000
vt 2.0182 -1.1325 0.0000
vt 2.0182 -2.7981 0.0000
vt 0.5255 0.7939 0.0000
vt 0.5255 4.1926 0.0000
vt 0.3072 4.1926 0.0000
vt 0.3072 0.7939 0.0000
vt 0.5255 -1.9814 0.0000
vt 0.5255 -0.2178 0.0000
vt 0.3072 -0.2178 0.0000
vt 0.3072 -1.9814 0.0000
vt 1.1388 -1.9814 0.0000
vt 1.1388 -0.2178 0.0000
vt 0.9205 -0.2178 0.0000
vt 0.9205 -1.9814 0.0000
vt 1.1389 4.1926 0.0000
vt 0.9206 4.1926 0.0000
vt 0.5255 -2.3147 0.0000
vt 0.3073 -2.3147 0.0000
vt 0.3072 0.0938 0.0000
vt 0.5255 0.0938 0.0000
vt 1.1388 -2.3147 0.0000
vt 0.9205 -2.3147 0.0000
vt 0.9206 0.0937 0.0000
vt 1.1388 0.0937 0.0000
vt 2.8485 3.4014 0.0000
vt 2.6366 3.4014 0.0000
vt 2.6366 1.1182 0.0000
vt 2.8485 1.1182 0.0000
vt 2.2452 -0.8160 0.0000
vt 2.0182 -0.8160 0.0000
vt 2.0182 -3.0992 0.0000
vt 2.2452 -3.0992 0.0000
vt 3.5936 -1.3758 0.0000
vt 3.5936 -0.2461 0.0000
vt 3.3568 -0.4806 0.0000
vt 3.3708 -1.1508 0.0000
vt 3.3308 -0.1637 0.0000
vt 3.5427 0.0503 0.0000
vt 3.5676 0.7316 0.0000
vt 3.3308 0.9660 0.0000
vt 4.1407 2.1638 0.0000
vt 3.9173 1.9395 0.0000
vt 3.9200 1.2505 0.0000
vt 4.1407 1.0307 0.0000
vt 0.3072 0.5820 0.0000
vt 0.5255 0.5820 0.0000
vt 3.2742 2.7025 0.0000
vt 3.4935 2.9212 0.0000
vt 3.4914 3.6212 0.0000
vt 3.2774 3.8357 0.0000
vt 0.5255 -2.7763 0.0000
vt 0.3073 -2.7763 0.0000
vt 2.6366 0.6321 0.0000
vt 2.8485 0.6321 0.0000
vt 2.8485 3.9031 0.0000
vt 2.6366 3.9031 0.0000
vt 2.0181 -3.6008 0.0000
vt 2.2452 -3.6008 0.0000
vt 0.9205 -2.7763 0.0000
vt 1.1388 -2.7763 0.0000
vt 1.4526 -2.9905 0.0000
vt 1.6804 -2.9905 0.0000
vt 2.2452 -0.3298 0.0000
vt 2.0181 -0.3298 0.0000
vt 2.0181 -3.8191 0.0000
vt 2.2452 -3.8191 0.0000
vt 1.9138 -3.8191 0.0000
vt 1.9138 -3.6008 0.0000
vt 1.9138 -3.0992 0.0000
vt 1.9138 -2.7981 0.0000
vt 1.9138 -1.1325 0.0000
vt 1.9138 -0.8160 0.0000
vt 1.9138 -0.3298 0.0000
vt 2.0181 -0.1115 0.0000
vt 1.9138 -0.1115 0.0000
vt 2.0181 -0.0072 0.0000
vt 2.2452 -0.1115 0.0000
vt 2.2452 -0.0072 0.0000
vt 0.2029 -2.7763 0.0000
vt 0.2029 -2.3147 0.0000
vt 0.2029 -1.9814 0.0000
vt 0.2029 -0.2178 0.0000
vt 0.2029 0.0938 0.0000
vt 0.2029 0.5820 0.0000
vt 0.2029 0.7939 0.0000
vt 0.2029 4.1926 0.0000
vt 1.6804 -3.0949 0.0000
vt 1.4526 -3.0949 0.0000
vt 1.3483 -2.9905 0.0000
vt 1.3483 -2.7722 0.0000
vt 1.3483 0.4987 0.0000
vt 1.4526 0.7170 0.0000
vt 1.3483 0.7170 0.0000
vt 1.4526 0.8213 0.0000
vt 1.6804 0.7170 0.0000
vt 1.6804 0.8213 0.0000
vt 1.2432 4.1926 0.0000
vt 1.2432 0.7939 0.0000
vt 1.2432 0.5820 0.0000
vt 1.2432 0.0937 0.0000
vt 1.2432 -0.2178 0.0000
vt 1.2432 -1.9814 0.0000
vt 1.2431 -2.3147 0.0000
vt 1.2431 -2.7763 0.0000
vt 2.2452 -3.9234 0.0000
vt 2.0181 -3.9234 0.0000
vt 0.6299 -2.3147 0.0000
vt 0.6299 -2.7763 0.0000
vt 2.3496 -0.3298 0.0000
vt 2.3496 -0.8160 0.0000
vt 3.2665 -1.1530 0.0000
vt 3.2525 -0.4828 0.0000
vt 2.3496 -3.0992 0.0000
vt 2.3496 -3.6008 0.0000
vt 0.8162 -2.7763 0.0000
vt 0.8162 -2.3147 0.0000
vt 3.6719 0.7277 0.0000
vt 3.6469 0.0464 0.0000
vt 2.5322 0.6321 0.0000
vt 2.5322 1.1182 0.0000
vt 0.8162 0.0937 0.0000
vt 0.8162 0.5820 0.0000
vt 2.9528 3.9031 0.0000
vt 2.9528 3.4014 0.0000
vt 3.5967 3.6212 0.0000
vt 3.5967 2.9212 0.0000
vt 0.6299 -0.2178 0.0000
vt 0.6299 -1.9814 0.0000
vt 3.6979 -0.2461 0.0000
vt 3.6979 -1.3758 0.0000
vt 2.3496 -1.1325 0.0000
vt 2.3496 -2.7981 0.0000
vt 3.2265 -0.1637 0.0000
vt 3.2265 0.9660 0.0000
vt 0.8162 -1.9814 0.0000
vt 0.8162 -0.2178 0.0000
vt 3.1714 2.7025 0.0000
vt 3.1714 3.8357 0.0000
vt 2.9528 3.1003 0.0000
vt 2.9528 1.4348 0.0000
vt 4.2451 2.1638 0.0000
vt 4.2451 1.0307 0.0000
vt 1.7848 0.4987 0.0000
vt 1.7848 -2.7722 0.0000
vt 0.6298 4.1926 0.0000
vt 0.6298 0.7939 0.0000
vt 2.5322 1.4348 0.0000
vt 2.5322 3.1003 0.0000
vt 0.8162 0.7939 0.0000
vt 0.8162 4.1926 0.0000
vt 2.5322 3.4014 0.0000
vt 2.5322 3.9031 0.0000
vt 0.6299 0.5820 0.0000
vt 0.6299 0.0938 0.0000
vt 3.8157 1.2501 0.0000
vt 3.8129 1.9391 0.0000
vt 2.9528 1.1182 0.0000
vt 2.9528 0.6321 0.0000
# 344 texture coords

g 7x7_double_wood_door
usemtl Material__27
s 1
f 1/1/1 2/2/1 3/3/1 4/4/1 
f 5/5/1 6/6/1 7/7/1 8/8/1 
f 9/9/1 10/10/1 11/11/1 12/12/1 
f 13/13/1 14/14/1 15/15/1 16/16/1 
f 17/17/1 9/18/1 18/19/1 19/20/1 
f 20/21/1 21/22/1 22/23/1 23/24/1 
f 24/25/1 25/26/1 26/27/1 27/28/1 
f 5/5/1 28/29/1 10/30/1 6/6/1 
f 29/31/1 20/21/1 23/24/1 30/32/1 
f 31/33/1 22/23/1 21/22/1 32/34/1 
f 33/35/1 24/25/1 27/28/1 34/36/1 
f 35/37/1 26/27/1 25/26/1 36/38/1 
f 2/2/1 37/39/1 38/40/1 3/3/1 
f 39/41/1 40/42/1 1/1/1 4/4/1 
f 14/14/1 41/43/1 42/44/1 15/15/1 
f 43/45/1 44/46/1 13/13/1 16/16/1 
f 14/47/1 20/48/1 29/49/1 41/50/1 
f 13/51/1 44/52/1 34/53/1 27/54/1 
f 1/55/1 40/56/1 32/57/1 21/58/1 
f 45/59/1 31/33/1 32/34/1 46/60/1 
f 7/7/1 35/37/1 36/38/1 8/8/1 
f 26/61/1 35/62/1 37/63/1 2/64/1 
f 47/65/1 29/31/1 30/32/1 48/66/1 
f 17/67/1 46/68/1 40/42/1 39/41/1 
f 7/69/1 6/70/1 38/40/1 37/39/1 
f 49/71/1 50/72/1 44/46/1 43/45/1 
f 34/36/1 50/73/1 51/74/1 33/35/1 
f 9/9/1 12/12/1 52/75/1 18/76/1 
f 42/44/1 41/43/1 47/77/1 53/78/1 
f 50/72/1 49/71/1 54/79/1 51/80/1 
f 55/81/2 54/79/2 49/71/2 56/82/2 
f 56/82/2 49/71/2 43/45/2 57/83/2 
f 57/83/2 43/45/2 16/16/2 58/84/2 
f 58/84/2 16/16/2 15/15/2 59/85/2 
f 59/85/2 15/15/2 42/44/2 60/86/2 
f 60/86/2 42/44/2 53/78/2 61/87/2 
f 61/87/2 53/78/2 62/88/2 63/89/2 
f 63/90/3 62/88/3 48/91/3 64/92/3 
f 64/93/3 48/66/3 30/32/3 65/94/3 
f 65/94/3 30/32/3 23/24/3 66/95/3 
f 66/95/3 23/24/3 22/23/3 67/96/3 
f 67/96/3 22/23/3 31/33/3 68/97/3 
f 68/97/3 31/33/3 45/59/3 69/98/3 
f 69/98/3 45/59/3 19/20/3 70/99/3 
f 70/99/3 19/20/3 18/19/3 71/100/3 
f 71/101/3 18/76/3 52/75/3 72/102/3 
f 72/103/4 52/75/4 12/12/4 73/104/4 
f 73/104/4 12/12/4 11/11/4 74/105/4 
f 74/105/4 11/11/4 75/106/4 76/107/4 
f 76/108/5 75/106/5 28/109/5 77/110/5 
f 77/111/5 28/29/5 5/5/5 78/112/5 
f 78/112/5 5/5/5 8/8/5 79/113/5 
f 79/113/5 8/8/5 36/38/5 80/114/5 
f 80/114/5 36/38/5 25/26/5 81/115/5 
f 81/115/5 25/26/5 24/25/5 82/116/5 
f 82/116/5 24/25/5 33/35/5 83/117/5 
f 83/117/5 33/35/5 51/74/5 84/118/5 
f 84/119/5 51/80/5 54/79/5 55/120/5 
f 85/121/5 29/31/5 47/65/5 86/122/5 
f 86/123/4 47/77/4 41/43/4 87/124/4 
f 87/125/6 41/50/6 29/49/6 85/126/6 
f 88/127/4 44/46/4 50/72/4 89/128/4 
f 89/129/3 50/73/3 34/36/3 90/130/3 
f 90/131/7 34/53/7 44/52/7 88/132/7 
f 91/133/4 17/67/4 39/41/4 92/134/4 
f 93/135/3 35/37/3 7/7/3 94/136/3 
f 94/137/2 7/69/2 37/39/2 95/138/2 
f 95/139/8 37/63/8 35/62/8 93/140/8 
f 96/141/5 21/22/5 20/21/5 97/142/5 
f 97/143/9 20/48/9 14/47/10 98/144/10 
f 98/145/10 14/14/10 13/13/11 99/146/11 
f 99/147/11 13/51/11 27/54/12 100/148/12 
f 100/149/3 27/28/3 26/27/3 101/150/3 
f 101/151/13 26/61/13 2/64/14 102/152/14 
f 102/153/14 2/2/14 1/1/15 103/154/15 
f 103/155/15 1/55/15 21/58/16 96/156/16 
f 104/157/2 10/10/2 9/9/2 105/158/2 
f 105/159/5 9/18/5 17/17/5 91/160/5 
f 106/161/4 4/4/4 3/3/4 107/162/4 
f 108/163/3 6/6/3 10/30/3 104/164/3 
f 109/165/4 38/40/4 6/70/4 108/166/4 
f 110/167/5 46/60/5 32/34/5 111/168/5 
f 111/169/17 32/57/17 40/56/17 112/170/17 
f 112/171/2 40/42/2 46/68/2 110/172/2 
f 45/59/1 46/60/1 17/17/1 19/20/1 
f 75/106/1 11/11/1 10/10/1 28/109/1 
f 62/88/1 53/78/1 47/77/1 48/91/1 
f 109/165/4 107/162/4 3/3/4 38/40/4 
f 106/161/4 92/134/4 39/41/4 4/4/4 
f 113/173/1 114/174/1 115/175/1 116/176/1 
f 117/177/1 118/178/1 119/179/1 120/180/1 
f 121/181/1 122/182/1 123/183/1 124/184/1 
f 125/185/1 126/186/1 127/187/1 128/188/1 
f 129/189/1 121/190/1 130/191/1 131/192/1 
f 132/193/1 133/194/1 134/195/1 135/196/1 
f 136/197/1 137/198/1 138/199/1 139/200/1 
f 117/177/1 140/201/1 122/202/1 118/178/1 
f 141/203/1 132/193/1 135/196/1 142/204/1 
f 143/205/1 134/195/1 133/194/1 144/206/1 
f 145/207/1 136/197/1 139/200/1 146/208/1 
f 147/209/1 138/199/1 137/198/1 148/210/1 
f 114/174/1 149/211/1 150/212/1 115/175/1 
f 151/213/1 152/214/1 113/173/1 116/176/1 
f 126/186/1 153/215/1 154/216/1 127/187/1 
f 155/217/1 156/218/1 125/185/1 128/188/1 
f 126/219/1 132/220/1 141/221/1 153/222/1 
f 125/223/1 156/224/1 146/225/1 139/226/1 
f 113/227/1 152/228/1 144/229/1 133/230/1 
f 157/231/1 143/205/1 144/206/1 158/232/1 
f 119/179/1 147/209/1 148/210/1 120/180/1 
f 138/233/1 147/234/1 149/235/1 114/236/1 
f 159/237/1 141/203/1 142/204/1 160/238/1 
f 129/239/1 158/240/1 152/214/1 151/213/1 
f 119/241/1 118/242/1 150/212/1 149/211/1 
f 161/243/1 162/244/1 156/218/1 155/217/1 
f 146/208/1 162/245/1 163/246/1 145/207/1 
f 121/181/1 124/184/1 164/247/1 130/248/1 
f 154/216/1 153/215/1 159/249/1 165/250/1 
f 162/244/1 161/243/1 166/251/1 163/252/1 
f 167/253/2 166/251/2 161/243/2 168/254/2 
f 168/254/2 161/243/2 155/217/2 169/255/2 
f 169/255/2 155/217/2 128/188/2 170/256/2 
f 170/256/2 128/188/2 127/187/2 171/257/2 
f 171/257/2 127/187/2 154/216/2 172/258/2 
f 172/258/2 154/216/2 165/250/2 173/259/2 
f 173/259/2 165/250/2 174/260/2 175/261/2 
f 175/262/3 174/260/3 160/263/3 176/264/3 
f 176/265/3 160/238/3 142/204/3 177/266/3 
f 177/266/3 142/204/3 135/196/3 178/267/3 
f 178/267/3 135/196/3 134/195/3 179/268/3 
f 179/268/3 134/195/3 143/205/3 180/269/3 
f 180/269/3 143/205/3 157/231/3 181/270/3 
f 181/270/3 157/231/3 131/192/3 182/271/3 
f 182/271/3 131/192/3 130/191/3 183/272/3 
f 183/273/3 130/248/3 164/247/3 184/274/3 
f 184/275/4 164/247/4 124/184/4 185/276/4 
f 185/276/4 124/184/4 123/183/4 186/277/4 
f 186/277/4 123/183/4 187/278/4 188/279/4 
f 188/280/5 187/278/5 140/281/5 189/282/5 
f 189/283/5 140/201/5 117/177/5 190/284/5 
f 190/284/5 117/177/5 120/180/5 191/285/5 
f 191/285/5 120/180/5 148/210/5 192/286/5 
f 192/286/5 148/210/5 137/198/5 193/287/5 
f 193/287/5 137/198/5 136/197/5 194/288/5 
f 194/288/5 136/197/5 145/207/5 195/289/5 
f 195/289/5 145/207/5 163/246/5 196/290/5 
f 196/291/5 163/252/5 166/251/5 167/292/5 
f 197/293/5 141/203/5 159/237/5 198/294/5 
f 198/295/4 159/249/4 153/215/4 199/296/4 
f 199/297/6 153/222/6 141/221/6 197/298/6 
f 200/299/4 156/218/4 162/244/4 201/300/4 
f 201/301/3 162/245/3 146/208/3 202/302/3 
f 202/303/7 146/225/7 156/224/7 200/304/7 
f 203/305/4 129/239/4 151/213/4 204/306/4 
f 205/307/3 147/209/3 119/179/3 206/308/3 
f 206/309/2 119/241/2 149/211/2 207/310/2 
f 207/311/8 149/235/8 147/234/8 205/312/8 
f 208/313/5 133/194/5 132/193/5 209/314/5 
f 209/315/9 132/220/9 126/219/10 210/316/10 
f 210/317/10 126/186/10 125/185/11 211/318/11 
f 211/319/11 125/223/11 139/226/12 212/320/12 
f 212/321/3 139/200/3 138/199/3 213/322/3 
f 213/323/13 138/233/13 114/236/14 214/324/14 
f 214/325/14 114/174/14 113/173/15 215/326/15 
f 215/327/15 113/227/15 133/230/16 208/328/16 
f 216/329/2 122/182/2 121/181/2 217/330/2 
f 217/331/5 121/190/5 129/189/5 203/332/5 
f 218/333/4 116/176/4 115/175/4 219/334/4 
f 220/335/3 118/178/3 122/202/3 216/336/3 
f 221/337/4 150/212/4 118/242/4 220/338/4 
f 222/339/5 158/232/5 144/206/5 223/340/5 
f 223/341/17 144/229/17 152/228/17 224/342/17 
f 224/343/2 152/214/2 158/240/2 222/344/2 
f 157/231/1 158/232/1 129/189/1 131/192/1 
f 187/278/1 123/183/1 122/182/1 140/281/1 
f 174/260/1 165/250/1 159/249/1 160/263/1 
f 221/337/4 219/334/4 115/175/4 150/212/4 
f 218/333/4 204/306/4 151/213/4 116/176/4 
# 178 polygons

