# 3ds Max Wavefront OBJ Exporter v0.97b - (c)2007 guruware
# File Created: 05.09.2018 21:05:15

mtllib 8x6_double_wood_door.mtl

#
# object 8x6_double_wood_door
#

v  2.9993 91.3499 92.5696
v  2.9993 91.3499 29.4508
v  2.9993 97.4411 29.4508
v  2.9993 97.4411 92.5696
v  2.9993 97.4411 0.1001
v  2.9993 97.4411 6.3752
v  2.9993 91.3499 6.3752
v  2.9993 91.3499 0.1001
v  2.9993 179.9044 115.6448
v  2.9993 179.9044 6.3752
v  2.9993 186.4525 6.3752
v  2.9993 186.4525 115.6448
v  2.9993 10.0476 29.4508
v  2.9993 10.0476 92.5696
v  2.9993 3.5197 92.5696
v  2.9993 3.5197 29.4508
v  2.9993 97.4411 115.6448
v  2.9993 179.9045 121.9199
v  2.9993 97.4411 121.9199
v  2.9993 32.8986 115.6448
v  2.9993 68.3580 115.6448
v  2.9993 68.3580 121.9199
v  2.9993 32.8986 121.9199
v  2.9993 32.8986 0.1001
v  2.9993 68.3580 0.1001
v  2.9993 68.3580 6.3752
v  2.9993 32.8986 6.3752
v  2.9993 179.9044 0.1001
v  2.9993 23.3187 115.6448
v  2.9993 23.3187 121.9199
v  2.9993 77.3142 121.9199
v  2.9993 77.3142 115.6448
v  2.9993 23.3187 0.1001
v  2.9993 23.3187 6.3752
v  2.9993 77.3142 6.3752
v  2.9993 77.3142 0.1001
v  2.9993 91.3499 20.7958
v  2.9993 97.4411 20.7958
v  2.9993 97.4411 101.6696
v  2.9993 91.3499 101.6696
v  2.9993 10.0476 101.6696
v  2.9993 3.5197 101.6696
v  2.9993 3.5197 20.7958
v  2.9993 10.0476 20.7958
v  2.9993 91.3499 121.9199
v  2.9993 91.3499 115.6448
v  2.9993 10.0476 115.6448
v  2.9993 10.0476 121.9199
v  2.9993 3.5197 6.3752
v  2.9993 10.0476 6.3752
v  2.9993 10.0476 0.1001
v  2.9993 186.4525 121.9199
v  2.9993 3.5197 115.6448
v  2.9993 3.5197 0.1001
v  0.0000 3.5197 0.1001
v  0.0000 3.5197 6.3752
v  0.0000 3.5197 20.7958
v  0.0000 3.5197 29.4508
v  0.0000 3.5197 92.5696
v  0.0000 3.5197 101.6696
v  0.0000 3.5197 115.6448
v  2.9993 3.5197 121.9199
v  0.0000 3.5197 121.9199
v  0.0000 10.0476 121.9199
v  0.0000 23.3187 121.9199
v  0.0000 32.8986 121.9199
v  0.0000 68.3580 121.9199
v  0.0000 77.3142 121.9199
v  0.0000 91.3499 121.9199
v  0.0000 97.4411 121.9199
v  0.0000 179.9045 121.9199
v  0.0000 186.4525 121.9199
v  0.0000 186.4525 115.6448
v  0.0000 186.4525 6.3752
v  2.9993 186.4525 0.1001
v  0.0000 186.4525 0.1001
v  0.0000 179.9044 0.1001
v  0.0000 97.4411 0.1001
v  0.0000 91.3499 0.1001
v  0.0000 77.3142 0.1001
v  0.0000 68.3580 0.1001
v  0.0000 32.8986 0.1001
v  0.0000 23.3187 0.1001
v  0.0000 10.0476 0.1001
v  0.0000 23.3187 115.6448
v  0.0000 10.0476 115.6448
v  0.0000 10.0476 101.6696
v  0.0000 10.0476 20.7958
v  0.0000 10.0476 6.3752
v  0.0000 23.3187 6.3752
v  0.0000 97.4411 115.6448
v  0.0000 97.4411 101.6696
v  0.0000 77.3142 6.3752
v  0.0000 91.3499 6.3752
v  0.0000 91.3499 20.7958
v  0.0000 68.3580 115.6448
v  0.0000 32.8986 115.6448
v  0.0000 10.0476 92.5696
v  0.0000 10.0476 29.4508
v  0.0000 32.8986 6.3752
v  0.0000 68.3580 6.3752
v  0.0000 91.3499 29.4508
v  0.0000 91.3499 92.5696
v  0.0000 179.9044 6.3752
v  0.0000 179.9044 115.6448
v  0.0000 97.4411 92.5696
v  0.0000 97.4411 29.4508
v  0.0000 97.4411 6.3752
v  0.0000 97.4411 20.7958
v  0.0000 91.3499 115.6448
v  0.0000 77.3142 115.6448
v  0.0000 91.3499 101.6696
v  2.9993 91.3499 -29.4830
v  2.9993 91.3499 -92.6017
v  2.9993 97.4411 -92.6017
v  2.9993 97.4411 -29.4830
v  2.9993 97.4411 -121.9525
v  2.9993 97.4411 -115.6773
v  2.9993 91.3499 -115.6774
v  2.9993 91.3499 -121.9525
v  2.9993 179.9044 -6.4077
v  2.9993 179.9044 -115.6773
v  2.9993 186.4525 -115.6774
v  2.9993 186.4525 -6.4077
v  2.9993 10.0476 -92.6017
v  2.9993 10.0476 -29.4830
v  2.9993 3.5197 -29.4830
v  2.9993 3.5197 -92.6017
v  2.9993 97.4411 -6.4077
v  2.9993 179.9045 -0.1326
v  2.9993 97.4411 -0.1326
v  2.9993 32.8986 -6.4077
v  2.9993 68.3580 -6.4077
v  2.9993 68.3580 -0.1326
v  2.9993 32.8986 -0.1326
v  2.9993 32.8986 -121.9525
v  2.9993 68.3580 -121.9525
v  2.9993 68.3580 -115.6774
v  2.9993 32.8986 -115.6774
v  2.9993 179.9044 -121.9525
v  2.9993 23.3187 -6.4077
v  2.9993 23.3187 -0.1326
v  2.9993 77.3142 -0.1326
v  2.9993 77.3142 -6.4077
v  2.9993 23.3187 -121.9525
v  2.9993 23.3187 -115.6774
v  2.9993 77.3142 -115.6774
v  2.9993 77.3142 -121.9525
v  2.9993 91.3499 -101.2567
v  2.9993 97.4411 -101.2567
v  2.9993 97.4411 -20.3829
v  2.9993 91.3499 -20.3829
v  2.9993 10.0476 -20.3830
v  2.9993 3.5197 -20.3830
v  2.9993 3.5197 -101.2567
v  2.9993 10.0476 -101.2567
v  2.9993 91.3499 -0.1326
v  2.9993 91.3499 -6.4077
v  2.9993 10.0476 -6.4077
v  2.9993 10.0476 -0.1326
v  2.9993 3.5197 -115.6774
v  2.9993 10.0476 -115.6774
v  2.9993 10.0476 -121.9525
v  2.9993 186.4525 -0.1326
v  2.9993 3.5197 -6.4077
v  2.9993 3.5197 -121.9525
v  0.0000 3.5197 -121.9525
v  0.0000 3.5197 -115.6774
v  0.0000 3.5197 -101.2567
v  0.0000 3.5197 -92.6017
v  0.0000 3.5197 -29.4830
v  0.0000 3.5197 -20.3830
v  0.0000 3.5197 -6.4077
v  2.9993 3.5197 -0.1326
v  0.0000 3.5197 -0.1326
v  0.0000 10.0476 -0.1326
v  0.0000 23.3187 -0.1326
v  0.0000 32.8986 -0.1326
v  0.0000 68.3580 -0.1326
v  0.0000 77.3142 -0.1326
v  0.0000 91.3499 -0.1326
v  0.0000 97.4411 -0.1326
v  0.0000 179.9045 -0.1326
v  0.0000 186.4525 -0.1326
v  0.0000 186.4525 -6.4077
v  0.0000 186.4525 -115.6774
v  2.9993 186.4525 -121.9525
v  0.0000 186.4525 -121.9525
v  0.0000 179.9044 -121.9525
v  0.0000 97.4411 -121.9525
v  0.0000 91.3499 -121.9525
v  0.0000 77.3142 -121.9525
v  0.0000 68.3580 -121.9525
v  0.0000 32.8986 -121.9525
v  0.0000 23.3187 -121.9525
v  0.0000 10.0476 -121.9525
v  0.0000 23.3187 -6.4077
v  0.0000 10.0476 -6.4077
v  0.0000 10.0476 -20.3830
v  0.0000 10.0476 -101.2567
v  0.0000 10.0476 -115.6774
v  0.0000 23.3187 -115.6774
v  0.0000 97.4411 -6.4077
v  0.0000 97.4411 -20.3829
v  0.0000 77.3142 -115.6774
v  0.0000 91.3499 -115.6774
v  0.0000 91.3499 -101.2567
v  0.0000 68.3580 -6.4077
v  0.0000 32.8986 -6.4077
v  0.0000 10.0476 -29.4830
v  0.0000 10.0476 -92.6017
v  0.0000 32.8986 -115.6774
v  0.0000 68.3580 -115.6774
v  0.0000 91.3499 -92.6017
v  0.0000 91.3499 -29.4830
v  0.0000 179.9044 -115.6773
v  0.0000 179.9044 -6.4077
v  0.0000 97.4411 -29.4830
v  0.0000 97.4411 -92.6017
v  0.0000 97.4411 -115.6773
v  0.0000 97.4411 -101.2567
v  0.0000 91.3499 -6.4077
v  0.0000 77.3142 -6.4077
v  0.0000 91.3499 -20.3829
# 224 vertices

vn 1.0000 0.0000 -0.0000
vn 0.0000 -1.0000 -0.0000
vn 0.0000 0.0000 1.0000
vn 0.0000 1.0000 -0.0000
vn 0.0000 0.0000 -1.0000
vn 0.0000 -0.7251 0.6886
vn 0.0000 -0.7358 -0.6772
vn 0.0000 0.7166 -0.6975
vn 0.0000 0.7106 -0.7036
vn 0.0000 0.9248 -0.3804
vn 0.0000 0.9248 0.3804
vn 0.0000 0.7106 0.7036
vn 0.0000 -0.7084 0.7058
vn 0.0000 -0.9242 0.3818
vn 0.0000 -0.9242 -0.3818
vn 0.0000 -0.7084 -0.7058
vn 0.0000 0.7056 0.7086
# 17 vertex normals

vt 2.6359 -0.4626 0.0000
vt 2.6359 -2.7118 0.0000
vt 2.8529 -2.7118 0.0000
vt 2.8529 -0.4626 0.0000
vt -2.3976 0.7119 0.0000
vt -2.6212 0.7119 0.0000
vt -2.6213 0.4948 0.0000
vt -2.3977 0.4948 0.0000
vt 1.4277 5.2279 0.0000
vt 1.4277 1.3342 0.0000
vt 1.6610 1.3342 0.0000
vt 1.6610 5.2279 0.0000
vt 2.0251 3.8836 0.0000
vt 2.0251 1.6344 0.0000
vt 2.2577 1.6344 0.0000
vt 2.2577 3.8836 0.0000
vt -0.0317 0.6439 0.0000
vt -0.0317 3.5824 0.0000
vt -0.2553 3.5824 0.0000
vt -0.2553 0.6439 0.0000
vt -0.0317 -1.6560 0.0000
vt -0.0317 -0.3925 0.0000
vt -0.2553 -0.3925 0.0000
vt -0.2553 -1.6560 0.0000
vt -2.3977 -1.5880 0.0000
vt -2.3977 -0.3245 0.0000
vt -2.6213 -0.3245 0.0000
vt -2.6213 -1.5880 0.0000
vt -2.3976 3.6504 0.0000
vt -2.6212 3.6504 0.0000
vt -0.0317 -1.9974 0.0000
vt -0.2553 -1.9974 0.0000
vt -0.2553 -0.0733 0.0000
vt -0.0317 -0.0733 0.0000
vt -2.3976 -1.9294 0.0000
vt -2.6213 -1.9294 0.0000
vt -2.6213 -0.0053 0.0000
vt -2.3977 -0.0053 0.0000
vt 2.6358 -3.0202 0.0000
vt 2.8529 -3.0202 0.0000
vt 2.8529 -0.1383 0.0000
vt 2.6358 -0.1383 0.0000
vt 2.0251 1.3102 0.0000
vt 2.2577 1.3102 0.0000
vt 2.2577 4.1920 0.0000
vt 2.0251 4.1920 0.0000
vt 3.6395 -2.7824 0.0000
vt 3.6453 -1.6252 0.0000
vt 3.4051 -1.8630 0.0000
vt 3.4089 -2.5497 0.0000
vt 3.2114 1.2771 0.0000
vt 3.4284 1.4962 0.0000
vt 3.4540 2.1941 0.0000
vt 3.2114 2.4343 0.0000
vt 4.1383 3.7091 0.0000
vt 3.9094 3.4794 0.0000
vt 3.9123 2.7736 0.0000
vt 4.1383 2.5483 0.0000
vt -0.2553 0.4268 0.0000
vt -0.0317 0.4268 0.0000
vt 3.9547 -0.3768 0.0000
vt 4.1794 -0.1529 0.0000
vt 4.1772 0.5642 0.0000
vt 3.9580 0.7839 0.0000
vt -0.0317 -2.4703 0.0000
vt -0.2553 -2.4703 0.0000
vt 2.8529 0.3597 0.0000
vt 2.6358 0.3597 0.0000
vt 2.6358 -3.5340 0.0000
vt 2.8529 -3.5340 0.0000
vt 2.2577 4.7058 0.0000
vt 2.0251 4.7058 0.0000
vt -2.6212 -2.4023 0.0000
vt -2.3976 -2.4023 0.0000
vt 1.6610 5.4515 0.0000
vt 1.4277 5.4515 0.0000
vt 2.0251 0.8122 0.0000
vt 2.2577 0.8122 0.0000
vt 2.2577 4.9294 0.0000
vt 2.0251 4.9294 0.0000
vt 2.3646 4.9294 0.0000
vt 2.3646 4.7058 0.0000
vt 2.3646 4.1920 0.0000
vt 2.3646 3.8836 0.0000
vt 2.3646 1.6344 0.0000
vt 2.3646 1.3102 0.0000
vt 2.3646 0.8122 0.0000
vt 2.2577 0.5886 0.0000
vt 2.3646 0.5886 0.0000
vt 2.2577 0.4817 0.0000
vt 2.0251 0.5886 0.0000
vt 2.0251 0.4817 0.0000
vt -0.3622 -2.4703 0.0000
vt -0.3622 -1.9974 0.0000
vt -0.3622 -1.6560 0.0000
vt -0.3622 -0.3925 0.0000
vt -0.3622 -0.0733 0.0000
vt -0.3622 0.4268 0.0000
vt -0.3622 0.6439 0.0000
vt -0.3622 3.5824 0.0000
vt 1.4277 5.5583 0.0000
vt 1.6610 5.5583 0.0000
vt 1.7679 5.4515 0.0000
vt 1.7679 5.2279 0.0000
vt 1.7679 1.3342 0.0000
vt 1.6610 1.1106 0.0000
vt 1.7679 1.1106 0.0000
vt 1.6610 1.0037 0.0000
vt 1.4277 1.1106 0.0000
vt 1.4277 1.0037 0.0000
vt -2.2908 3.6504 0.0000
vt -2.2908 0.7119 0.0000
vt -2.2908 0.4948 0.0000
vt -2.2908 -0.0053 0.0000
vt -2.2908 -0.3245 0.0000
vt -2.2908 -1.5880 0.0000
vt -2.2908 -1.9294 0.0000
vt -2.2908 -2.4023 0.0000
vt 2.0251 5.0363 0.0000
vt 2.2577 5.0363 0.0000
vt 0.0752 -1.9974 0.0000
vt 0.0752 -2.4703 0.0000
vt 1.9182 0.8122 0.0000
vt 1.9182 1.3102 0.0000
vt 3.3001 -2.5497 0.0000
vt 3.3001 -1.8630 0.0000
vt 1.9182 4.1920 0.0000
vt 1.9182 4.7058 0.0000
vt -2.7281 -2.4023 0.0000
vt -2.7281 -1.9294 0.0000
vt 3.5608 2.1902 0.0000
vt 3.5352 1.4923 0.0000
vt 2.9598 0.3597 0.0000
vt 2.9598 -0.1383 0.0000
vt -2.7281 -0.0053 0.0000
vt -2.7281 0.4948 0.0000
vt 2.5290 -3.5340 0.0000
vt 2.5290 -3.0201 0.0000
vt 4.2852 0.5642 0.0000
vt 4.2852 -0.1529 0.0000
vt 0.0752 -0.3925 0.0000
vt 0.0752 -1.6560 0.0000
vt 3.7493 -1.6252 0.0000
vt 3.7493 -2.7824 0.0000
vt 1.9182 1.6344 0.0000
vt 1.9182 3.8836 0.0000
vt 3.1045 1.2771 0.0000
vt 3.1045 2.4343 0.0000
vt -2.7281 -1.5880 0.0000
vt -2.7282 -0.3245 0.0000
vt 3.8495 -0.3768 0.0000
vt 3.8495 0.7839 0.0000
vt 2.5290 -2.7118 0.0000
vt 2.5290 -0.4626 0.0000
vt 4.2452 3.7091 0.0000
vt 4.2452 2.5483 0.0000
vt 1.3208 1.3342 0.0000
vt 1.3208 5.2279 0.0000
vt 0.0752 3.5824 0.0000
vt 0.0752 0.6439 0.0000
vt 2.9598 -0.4626 0.0000
vt 2.9598 -2.7118 0.0000
vt -2.7281 0.7119 0.0000
vt -2.7281 3.6504 0.0000
vt 2.9598 -3.0202 0.0000
vt 2.9598 -3.5340 0.0000
vt 0.0752 0.4268 0.0000
vt 0.0752 -0.0733 0.0000
vt 3.8054 2.7731 0.0000
vt 3.8026 3.4789 0.0000
vt 2.5290 -0.1383 0.0000
vt 2.5290 0.3597 0.0000
vt 2.8516 1.3616 0.0000
vt 2.8516 3.6107 0.0000
vt 2.6346 3.6107 0.0000
vt 2.6346 1.3616 0.0000
vt 1.1408 0.6698 0.0000
vt 0.9172 0.6698 0.0000
vt 0.9172 0.4527 0.0000
vt 1.1408 0.4527 0.0000
vt 1.6841 -3.3694 0.0000
vt 1.6841 0.5243 0.0000
vt 1.4508 0.5243 0.0000
vt 1.4508 -3.3694 0.0000
vt 2.2488 -3.0899 0.0000
vt 2.2488 -0.8407 0.0000
vt 2.0162 -0.8407 0.0000
vt 2.0162 -3.0899 0.0000
vt 0.5288 0.6698 0.0000
vt 0.5288 3.6083 0.0000
vt 0.3052 3.6083 0.0000
vt 0.3052 0.6698 0.0000
vt 0.5288 -1.6301 0.0000
vt 0.5288 -0.3665 0.0000
vt 0.3052 -0.3665 0.0000
vt 0.3052 -1.6301 0.0000
vt 1.1408 -1.6301 0.0000
vt 1.1408 -0.3665 0.0000
vt 0.9172 -0.3665 0.0000
vt 0.9172 -1.6301 0.0000
vt 1.1408 3.6083 0.0000
vt 0.9172 3.6083 0.0000
vt 0.5288 -1.9715 0.0000
vt 0.3052 -1.9715 0.0000
vt 0.3052 -0.0474 0.0000
vt 0.5288 -0.0474 0.0000
vt 1.1408 -1.9715 0.0000
vt 0.9172 -1.9715 0.0000
vt 0.9172 -0.0474 0.0000
vt 1.1408 -0.0474 0.0000
vt 2.8516 3.9191 0.0000
vt 2.6346 3.9191 0.0000
vt 2.6346 1.0373 0.0000
vt 2.8517 1.0373 0.0000
vt 2.2488 -0.5164 0.0000
vt 2.0162 -0.5164 0.0000
vt 2.0162 -3.3983 0.0000
vt 2.2488 -3.3982 0.0000
vt 3.5964 -1.3895 0.0000
vt 3.5964 -0.2322 0.0000
vt 3.3538 -0.4725 0.0000
vt 3.3682 -1.1591 0.0000
vt 3.3281 -0.1773 0.0000
vt 3.5451 0.0419 0.0000
vt 3.5707 0.7397 0.0000
vt 3.3281 0.9799 0.0000
vt 4.1434 2.1776 0.0000
vt 3.9145 1.9479 0.0000
vt 3.9173 1.2421 0.0000
vt 4.1434 1.0169 0.0000
vt 0.3052 0.4528 0.0000
vt 0.5288 0.4528 0.0000
vt 3.2715 2.6887 0.0000
vt 3.4961 2.9127 0.0000
vt 3.4940 3.6297 0.0000
vt 3.2748 3.8494 0.0000
vt 0.5288 -2.4444 0.0000
vt 0.3052 -2.4444 0.0000
vt 2.6346 0.5393 0.0000
vt 2.8517 0.5393 0.0000
vt 2.8517 4.4330 0.0000
vt 2.6346 4.4330 0.0000
vt 2.0162 -3.9121 0.0000
vt 2.2488 -3.9121 0.0000
vt 0.9172 -2.4444 0.0000
vt 1.1408 -2.4444 0.0000
vt 1.4508 -3.5930 0.0000
vt 1.6841 -3.5930 0.0000
vt 2.2488 -0.0185 0.0000
vt 2.0162 -0.0184 0.0000
vt 2.0162 -4.1357 0.0000
vt 2.2489 -4.1357 0.0000
vt 1.9094 -4.1357 0.0000
vt 1.9094 -3.9121 0.0000
vt 1.9093 -3.3983 0.0000
vt 1.9093 -3.0899 0.0000
vt 1.9093 -0.8407 0.0000
vt 1.9093 -0.5164 0.0000
vt 1.9094 -0.0184 0.0000
vt 2.0162 0.2052 0.0000
vt 1.9094 0.2052 0.0000
vt 2.0162 0.3120 0.0000
vt 2.2489 0.2052 0.0000
vt 2.2489 0.3120 0.0000
vt 0.1984 -2.4444 0.0000
vt 0.1984 -1.9715 0.0000
vt 0.1984 -1.6301 0.0000
vt 0.1984 -0.3665 0.0000
vt 0.1984 -0.0474 0.0000
vt 0.1984 0.4528 0.0000
vt 0.1984 0.6698 0.0000
vt 0.1984 3.6083 0.0000
vt 1.6841 -3.6998 0.0000
vt 1.4508 -3.6998 0.0000
vt 1.3439 -3.5930 0.0000
vt 1.3439 -3.3694 0.0000
vt 1.3439 0.5243 0.0000
vt 1.4508 0.7479 0.0000
vt 1.3439 0.7479 0.0000
vt 1.4508 0.8548 0.0000
vt 1.6841 0.7479 0.0000
vt 1.6841 0.8548 0.0000
vt 1.2477 3.6083 0.0000
vt 1.2477 0.6698 0.0000
vt 1.2477 0.4527 0.0000
vt 1.2477 -0.0474 0.0000
vt 1.2477 -0.3665 0.0000
vt 1.2477 -1.6301 0.0000
vt 1.2477 -1.9715 0.0000
vt 1.2477 -2.4444 0.0000
vt 2.2489 -4.2426 0.0000
vt 2.0162 -4.2426 0.0000
vt 0.6357 -1.9715 0.0000
vt 0.6357 -2.4444 0.0000
vt 2.3557 -0.0185 0.0000
vt 2.3557 -0.5164 0.0000
vt 3.2613 -1.1613 0.0000
vt 3.2469 -0.4747 0.0000
vt 2.3557 -3.3982 0.0000
vt 2.3557 -3.9121 0.0000
vt 0.8104 -2.4444 0.0000
vt 0.8104 -1.9715 0.0000
vt 3.6775 0.7358 0.0000
vt 3.6519 0.0380 0.0000
vt 2.5277 0.5393 0.0000
vt 2.5277 1.0373 0.0000
vt 0.8103 -0.0474 0.0000
vt 0.8104 0.4527 0.0000
vt 2.9585 4.4330 0.0000
vt 2.9585 3.9191 0.0000
vt 3.6019 3.6297 0.0000
vt 3.6019 2.9127 0.0000
vt 0.6357 -0.3665 0.0000
vt 0.6357 -1.6301 0.0000
vt 3.7032 -0.2322 0.0000
vt 3.7032 -1.3895 0.0000
vt 2.3557 -0.8407 0.0000
vt 2.3557 -3.0899 0.0000
vt 3.2212 -0.1773 0.0000
vt 3.2212 0.9799 0.0000
vt 0.8104 -1.6301 0.0000
vt 0.8103 -0.3666 0.0000
vt 3.1663 2.6887 0.0000
vt 3.1663 3.8494 0.0000
vt 2.9585 3.6107 0.0000
vt 2.9585 1.3616 0.0000
vt 4.2503 2.1776 0.0000
vt 4.2503 1.0169 0.0000
vt 1.7910 0.5243 0.0000
vt 1.7910 -3.3694 0.0000
vt 0.6357 3.6083 0.0000
vt 0.6357 0.6698 0.0000
vt 2.5277 1.3616 0.0000
vt 2.5277 3.6107 0.0000
vt 0.8104 0.6698 0.0000
vt 0.8104 3.6083 0.0000
vt 2.5277 3.9191 0.0000
vt 2.5277 4.4330 0.0000
vt 0.6357 0.4528 0.0000
vt 0.6357 -0.0474 0.0000
vt 3.8105 1.2417 0.0000
vt 3.8077 1.9475 0.0000
vt 2.9585 1.0373 0.0000
vt 2.9585 0.5393 0.0000
# 344 texture coords

g 8x6_double_wood_door
usemtl Material__27
s 1
f 1/1/1 2/2/1 3/3/1 4/4/1 
f 5/5/1 6/6/1 7/7/1 8/8/1 
f 9/9/1 10/10/1 11/11/1 12/12/1 
f 13/13/1 14/14/1 15/15/1 16/16/1 
f 17/17/1 9/18/1 18/19/1 19/20/1 
f 20/21/1 21/22/1 22/23/1 23/24/1 
f 24/25/1 25/26/1 26/27/1 27/28/1 
f 5/5/1 28/29/1 10/30/1 6/6/1 
f 29/31/1 20/21/1 23/24/1 30/32/1 
f 31/33/1 22/23/1 21/22/1 32/34/1 
f 33/35/1 24/25/1 27/28/1 34/36/1 
f 35/37/1 26/27/1 25/26/1 36/38/1 
f 2/2/1 37/39/1 38/40/1 3/3/1 
f 39/41/1 40/42/1 1/1/1 4/4/1 
f 14/14/1 41/43/1 42/44/1 15/15/1 
f 43/45/1 44/46/1 13/13/1 16/16/1 
f 14/47/1 20/48/1 29/49/1 41/50/1 
f 13/51/1 44/52/1 34/53/1 27/54/1 
f 1/55/1 40/56/1 32/57/1 21/58/1 
f 45/59/1 31/33/1 32/34/1 46/60/1 
f 7/7/1 35/37/1 36/38/1 8/8/1 
f 26/61/1 35/62/1 37/63/1 2/64/1 
f 47/65/1 29/31/1 30/32/1 48/66/1 
f 17/67/1 46/68/1 40/42/1 39/41/1 
f 7/69/1 6/70/1 38/40/1 37/39/1 
f 49/71/1 50/72/1 44/46/1 43/45/1 
f 34/36/1 50/73/1 51/74/1 33/35/1 
f 9/9/1 12/12/1 52/75/1 18/76/1 
f 42/44/1 41/43/1 47/77/1 53/78/1 
f 50/72/1 49/71/1 54/79/1 51/80/1 
f 55/81/2 54/79/2 49/71/2 56/82/2 
f 56/82/2 49/71/2 43/45/2 57/83/2 
f 57/83/2 43/45/2 16/16/2 58/84/2 
f 58/84/2 16/16/2 15/15/2 59/85/2 
f 59/85/2 15/15/2 42/44/2 60/86/2 
f 60/86/2 42/44/2 53/78/2 61/87/2 
f 61/87/2 53/78/2 62/88/2 63/89/2 
f 63/90/3 62/88/3 48/91/3 64/92/3 
f 64/93/3 48/66/3 30/32/3 65/94/3 
f 65/94/3 30/32/3 23/24/3 66/95/3 
f 66/95/3 23/24/3 22/23/3 67/96/3 
f 67/96/3 22/23/3 31/33/3 68/97/3 
f 68/97/3 31/33/3 45/59/3 69/98/3 
f 69/98/3 45/59/3 19/20/3 70/99/3 
f 70/99/3 19/20/3 18/19/3 71/100/3 
f 71/101/3 18/76/3 52/75/3 72/102/3 
f 72/103/4 52/75/4 12/12/4 73/104/4 
f 73/104/4 12/12/4 11/11/4 74/105/4 
f 74/105/4 11/11/4 75/106/4 76/107/4 
f 76/108/5 75/106/5 28/109/5 77/110/5 
f 77/111/5 28/29/5 5/5/5 78/112/5 
f 78/112/5 5/5/5 8/8/5 79/113/5 
f 79/113/5 8/8/5 36/38/5 80/114/5 
f 80/114/5 36/38/5 25/26/5 81/115/5 
f 81/115/5 25/26/5 24/25/5 82/116/5 
f 82/116/5 24/25/5 33/35/5 83/117/5 
f 83/117/5 33/35/5 51/74/5 84/118/5 
f 84/119/5 51/80/5 54/79/5 55/120/5 
f 85/121/5 29/31/5 47/65/5 86/122/5 
f 86/123/4 47/77/4 41/43/4 87/124/4 
f 87/125/6 41/50/6 29/49/6 85/126/6 
f 88/127/4 44/46/4 50/72/4 89/128/4 
f 89/129/3 50/73/3 34/36/3 90/130/3 
f 90/131/7 34/53/7 44/52/7 88/132/7 
f 91/133/4 17/67/4 39/41/4 92/134/4 
f 93/135/3 35/37/3 7/7/3 94/136/3 
f 94/137/2 7/69/2 37/39/2 95/138/2 
f 95/139/8 37/63/8 35/62/8 93/140/8 
f 96/141/5 21/22/5 20/21/5 97/142/5 
f 97/143/9 20/48/9 14/47/10 98/144/10 
f 98/145/10 14/14/10 13/13/11 99/146/11 
f 99/147/11 13/51/11 27/54/12 100/148/12 
f 100/149/3 27/28/3 26/27/3 101/150/3 
f 101/151/13 26/61/13 2/64/14 102/152/14 
f 102/153/14 2/2/14 1/1/15 103/154/15 
f 103/155/15 1/55/15 21/58/16 96/156/16 
f 104/157/2 10/10/2 9/9/2 105/158/2 
f 105/159/5 9/18/5 17/17/5 91/160/5 
f 106/161/4 4/4/4 3/3/4 107/162/4 
f 108/163/3 6/6/3 10/30/3 104/164/3 
f 109/165/4 38/40/4 6/70/4 108/166/4 
f 110/167/5 46/60/5 32/34/5 111/168/5 
f 111/169/17 32/57/17 40/56/17 112/170/17 
f 112/171/2 40/42/2 46/68/2 110/172/2 
f 45/59/1 46/60/1 17/17/1 19/20/1 
f 75/106/1 11/11/1 10/10/1 28/109/1 
f 62/88/1 53/78/1 47/77/1 48/91/1 
f 109/165/4 107/162/4 3/3/4 38/40/4 
f 106/161/4 92/134/4 39/41/4 4/4/4 
f 113/173/1 114/174/1 115/175/1 116/176/1 
f 117/177/1 118/178/1 119/179/1 120/180/1 
f 121/181/1 122/182/1 123/183/1 124/184/1 
f 125/185/1 126/186/1 127/187/1 128/188/1 
f 129/189/1 121/190/1 130/191/1 131/192/1 
f 132/193/1 133/194/1 134/195/1 135/196/1 
f 136/197/1 137/198/1 138/199/1 139/200/1 
f 117/177/1 140/201/1 122/202/1 118/178/1 
f 141/203/1 132/193/1 135/196/1 142/204/1 
f 143/205/1 134/195/1 133/194/1 144/206/1 
f 145/207/1 136/197/1 139/200/1 146/208/1 
f 147/209/1 138/199/1 137/198/1 148/210/1 
f 114/174/1 149/211/1 150/212/1 115/175/1 
f 151/213/1 152/214/1 113/173/1 116/176/1 
f 126/186/1 153/215/1 154/216/1 127/187/1 
f 155/217/1 156/218/1 125/185/1 128/188/1 
f 126/219/1 132/220/1 141/221/1 153/222/1 
f 125/223/1 156/224/1 146/225/1 139/226/1 
f 113/227/1 152/228/1 144/229/1 133/230/1 
f 157/231/1 143/205/1 144/206/1 158/232/1 
f 119/179/1 147/209/1 148/210/1 120/180/1 
f 138/233/1 147/234/1 149/235/1 114/236/1 
f 159/237/1 141/203/1 142/204/1 160/238/1 
f 129/239/1 158/240/1 152/214/1 151/213/1 
f 119/241/1 118/242/1 150/212/1 149/211/1 
f 161/243/1 162/244/1 156/218/1 155/217/1 
f 146/208/1 162/245/1 163/246/1 145/207/1 
f 121/181/1 124/184/1 164/247/1 130/248/1 
f 154/216/1 153/215/1 159/249/1 165/250/1 
f 162/244/1 161/243/1 166/251/1 163/252/1 
f 167/253/2 166/251/2 161/243/2 168/254/2 
f 168/254/2 161/243/2 155/217/2 169/255/2 
f 169/255/2 155/217/2 128/188/2 170/256/2 
f 170/256/2 128/188/2 127/187/2 171/257/2 
f 171/257/2 127/187/2 154/216/2 172/258/2 
f 172/258/2 154/216/2 165/250/2 173/259/2 
f 173/259/2 165/250/2 174/260/2 175/261/2 
f 175/262/3 174/260/3 160/263/3 176/264/3 
f 176/265/3 160/238/3 142/204/3 177/266/3 
f 177/266/3 142/204/3 135/196/3 178/267/3 
f 178/267/3 135/196/3 134/195/3 179/268/3 
f 179/268/3 134/195/3 143/205/3 180/269/3 
f 180/269/3 143/205/3 157/231/3 181/270/3 
f 181/270/3 157/231/3 131/192/3 182/271/3 
f 182/271/3 131/192/3 130/191/3 183/272/3 
f 183/273/3 130/248/3 164/247/3 184/274/3 
f 184/275/4 164/247/4 124/184/4 185/276/4 
f 185/276/4 124/184/4 123/183/4 186/277/4 
f 186/277/4 123/183/4 187/278/4 188/279/4 
f 188/280/5 187/278/5 140/281/5 189/282/5 
f 189/283/5 140/201/5 117/177/5 190/284/5 
f 190/284/5 117/177/5 120/180/5 191/285/5 
f 191/285/5 120/180/5 148/210/5 192/286/5 
f 192/286/5 148/210/5 137/198/5 193/287/5 
f 193/287/5 137/198/5 136/197/5 194/288/5 
f 194/288/5 136/197/5 145/207/5 195/289/5 
f 195/289/5 145/207/5 163/246/5 196/290/5 
f 196/291/5 163/252/5 166/251/5 167/292/5 
f 197/293/5 141/203/5 159/237/5 198/294/5 
f 198/295/4 159/249/4 153/215/4 199/296/4 
f 199/297/6 153/222/6 141/221/6 197/298/6 
f 200/299/4 156/218/4 162/244/4 201/300/4 
f 201/301/3 162/245/3 146/208/3 202/302/3 
f 202/303/7 146/225/7 156/224/7 200/304/7 
f 203/305/4 129/239/4 151/213/4 204/306/4 
f 205/307/3 147/209/3 119/179/3 206/308/3 
f 206/309/2 119/241/2 149/211/2 207/310/2 
f 207/311/8 149/235/8 147/234/8 205/312/8 
f 208/313/5 133/194/5 132/193/5 209/314/5 
f 209/315/9 132/220/9 126/219/10 210/316/10 
f 210/317/10 126/186/10 125/185/11 211/318/11 
f 211/319/11 125/223/11 139/226/12 212/320/12 
f 212/321/3 139/200/3 138/199/3 213/322/3 
f 213/323/13 138/233/13 114/236/14 214/324/14 
f 214/325/14 114/174/14 113/173/15 215/326/15 
f 215/327/15 113/227/15 133/230/16 208/328/16 
f 216/329/2 122/182/2 121/181/2 217/330/2 
f 217/331/5 121/190/5 129/189/5 203/332/5 
f 218/333/4 116/176/4 115/175/4 219/334/4 
f 220/335/3 118/178/3 122/202/3 216/336/3 
f 221/337/4 150/212/4 118/242/4 220/338/4 
f 222/339/5 158/232/5 144/206/5 223/340/5 
f 223/341/17 144/229/17 152/228/17 224/342/17 
f 224/343/2 152/214/2 158/240/2 222/344/2 
f 157/231/1 158/232/1 129/189/1 131/192/1 
f 187/278/1 123/183/1 122/182/1 140/281/1 
f 174/260/1 165/250/1 159/249/1 160/263/1 
f 221/337/4 219/334/4 115/175/4 150/212/4 
f 218/333/4 204/306/4 151/213/4 116/176/4 
# 178 polygons

