# 3ds Max Wavefront OBJ Exporter v0.97b - (c)2007 guruware
# File Created: 12.03.2019 23:20:27

mtllib 9x6_double_wood_door_frame.mtl

#
# object 9x6_double_wood_door_frame
#

v  3.0000 193.1369 137.4510
v  3.0000 193.1369 144.0924
v  3.0000 186.7212 144.0928
v  3.0000 186.7212 137.4509
v  3.0000 186.7212 -137.4510
v  3.0000 193.1369 -137.4510
v  3.0000 0.0004 -137.4510
v  3.0000 0.0004 -144.0925
v  3.0000 186.7212 -144.0925
v  3.0000 0.0004 144.0928
v  3.0000 0.0004 137.4509
v  3.0000 193.1369 -144.0920
v  0.0000 186.7212 144.0928
v  0.0000 0.0004 144.0928
v  3.0000 193.1370 145.5924
v  0.0000 193.1370 145.5924
v  0.0000 186.7213 145.5928
v  3.0000 186.7213 145.5928
v  0.0000 193.1369 137.4510
v  0.0000 193.1369 144.0924
v  0.0000 193.1369 -137.4510
v  0.0000 193.1369 -144.0920
v  3.0000 186.7213 -145.5925
v  0.0000 186.7213 -145.5925
v  0.0000 193.1370 -145.5920
v  3.0000 193.1370 -145.5920
v  0.0000 0.0004 -144.0925
v  0.0000 186.7212 -144.0925
v  0.0000 0.0004 -137.4510
v  0.0000 186.7212 -137.4510
v  0.0000 186.7212 137.4509
v  0.0000 0.0004 137.4509
# 32 vertices

vn 1.0000 0.0000 -0.0000
vn 0.0000 0.0000 1.0000
vn 0.0000 0.0001 1.0000
vn 0.0000 1.0000 -0.0000
vn 0.0000 1.0000 0.0000
vn 0.0000 0.0001 -1.0000
vn 0.0000 0.0000 -1.0000
vn 0.0000 -1.0000 -0.0000
vn 0.0000 1.0000 -0.0001
vn 0.0000 -1.0000 0.0001
vn 0.0000 -1.0000 -0.0001
vn 0.0000 1.0000 0.0001
# 12 vertex normals

vt -0.8462 -4.0010 0.0000
vt -0.8462 -4.2266 0.0000
vt -0.6282 -4.2266 0.0000
vt -0.6282 -4.0010 0.0000
vt -0.6282 5.3397 0.0000
vt -0.8462 5.3397 0.0000
vt -1.3995 4.1010 0.0000
vt -1.3995 -2.2435 0.0000
vt -1.1738 -2.2435 0.0000
vt -1.1738 4.1010 0.0000
vt -1.7869 3.8714 0.0000
vt -2.0126 3.8714 0.0000
vt -2.0126 -2.4731 0.0000
vt -1.7869 -2.4731 0.0000
vt -0.6282 5.5654 0.0000
vt -0.8462 5.5654 0.0000
vt -2.1145 3.8714 0.0000
vt -2.1145 -2.4731 0.0000
vt -0.8461 -4.2776 0.0000
vt -0.8461 -4.3795 0.0000
vt -0.6282 -4.3795 0.0000
vt -0.6282 -4.2776 0.0000
vt -0.9481 -4.0010 0.0000
vt -0.9481 -4.2266 0.0000
vt -0.9481 5.3397 0.0000
vt -0.9481 5.5654 0.0000
vt -0.6282 5.6163 0.0000
vt -0.6282 5.7183 0.0000
vt -0.8461 5.7183 0.0000
vt -0.8462 5.6163 0.0000
vt -1.0719 -2.2435 0.0000
vt -1.0719 4.1010 0.0000
vt -1.3995 -2.3454 0.0000
vt -1.1738 -2.3454 0.0000
vt -1.5015 4.1010 0.0000
vt -1.5015 -2.2435 0.0000
vt -0.5262 -4.0010 0.0000
vt -0.5262 5.3397 0.0000
vt -1.6850 -2.4731 0.0000
vt -1.6850 3.8714 0.0000
vt -2.0126 -2.5750 0.0000
vt -1.7869 -2.5750 0.0000
vt -0.9481 -4.2776 0.0000
vt -0.5262 -4.2776 0.0000
vt -0.5262 -4.2266 0.0000
vt -0.5262 5.6163 0.0000
vt -0.5262 5.5654 0.0000
vt -0.9481 5.6163 0.0000
# 48 texture coords

g 9x6_double_wood_door_frame
usemtl Material__27
s 1
f 1/1/1 2/2/1 3/3/1 4/4/1 
f 5/5/1 6/6/1 1/1/1 4/4/1 
f 5/7/1 7/8/1 8/9/1 9/10/1 
f 4/11/1 3/12/1 10/13/1 11/14/1 
f 9/15/1 12/16/1 6/6/1 5/5/1 
s 2
f 3/12/2 13/17/2 14/18/2 10/13/2 
f 15/19/3 16/20/3 17/21/3 18/22/3 
s 4
f 1/1/4 19/23/4 20/24/4 2/2/4 
f 6/6/4 21/25/4 19/23/4 1/1/4 
f 12/16/5 22/26/5 21/25/4 6/6/4 
s 2
f 23/27/6 24/28/6 25/29/6 26/30/6 
f 8/9/7 27/31/7 28/32/7 9/10/7 
s 4
f 7/8/8 29/33/8 27/34/8 8/9/8 
s 2
f 5/7/2 30/35/2 29/36/2 7/8/2 
s 4
f 4/4/8 31/37/8 30/38/8 5/5/8 
s 2
f 11/14/7 32/39/7 31/40/7 4/11/7 
s 4
f 10/13/8 14/41/8 32/42/8 11/14/8 
s 1
f 15/19/1 18/22/1 3/3/1 2/2/1 
s 4
f 16/43/9 15/19/9 2/2/4 20/24/4 
f 18/22/10 17/44/10 13/45/10 3/3/10 
s 1
f 23/27/1 26/30/1 12/16/1 9/15/1 
s 4
f 24/46/11 23/27/11 9/15/11 28/47/11 
f 26/30/12 25/48/12 22/26/5 12/16/5 
# 23 polygons

