# 3ds Max Wavefront OBJ Exporter v0.97b - (c)2007 guruware
# File Created: 09.03.2018 19:50:41

mtllib Chicken Door.mtl

#
# object Door
#

v  -10.0000 9.0000 18.2800
v  -10.0000 9.0000 -18.2800
v  -10.0000 55.2200 -18.2800
v  -10.0000 55.2200 18.2800
# 4 vertices

vn 1.0000 0.0000 -0.0000
# 1 vertex normals

vt 0.3501 0.3125 0.5000
vt 0.6499 0.3125 0.5000
vt 0.6499 0.6916 0.5000
vt 0.3501 0.6916 0.5000
# 4 texture coords

g Door
usemtl Material__36
s 16
f 1/1/1 2/2/1 3/3/1 4/4/1 
# 1 polygons

