# 3ds Max Wavefront OBJ Exporter v0.97b - (c)2007 guruware
# File Created: 12.03.2019 20:50:50

mtllib double_shed_door_w_transom.mtl

#
# object double_shed_door_w_transom
#

v  3.2026 8.1891 -91.5421
v  3.2026 8.1891 -0.1021
v  -0.0176 8.1891 -0.1021
v  -0.0176 8.1891 -91.5421
v  -0.0176 155.5420 -0.1021
v  3.2026 155.5420 -0.1021
v  3.2026 191.0691 -0.1021
v  -0.0176 191.0691 -0.1021
v  3.2026 181.2654 -81.7268
v  3.2026 191.0691 -91.5421
v  3.2026 181.2654 -9.8673
v  3.2026 17.9928 -81.7268
v  3.2026 17.9928 -9.8674
v  3.2026 155.5422 -9.8673
v  3.2026 145.8018 -9.8673
v  3.2026 145.8018 -81.7268
v  3.2026 155.5422 -81.7268
v  -0.0176 145.8020 -91.5421
v  3.2026 145.8020 -91.5421
v  0.3197 145.8018 -9.8673
v  0.3197 17.9928 -9.8674
v  0.3197 17.9928 -81.7268
v  0.3197 145.8018 -81.7268
v  0.3197 155.5422 -81.7268
v  0.3197 181.2654 -81.7268
v  -0.0176 191.0691 -91.5421
v  0.3197 181.2654 -9.8673
v  3.2026 8.1891 0.0928
v  3.2026 8.1891 91.5328
v  -0.0176 8.1891 91.5328
v  -0.0176 8.1891 0.0928
v  -0.0176 155.5420 91.5329
v  3.2026 155.5420 91.5329
v  3.2026 191.0690 91.5329
v  -0.0176 191.0690 91.5329
v  3.2026 181.2654 9.8581
v  3.2026 191.0691 0.0929
v  3.2026 181.2653 81.7176
v  3.2026 17.9928 9.8581
v  3.2026 17.9928 81.7176
v  3.2026 155.5422 81.7176
v  3.2026 145.8018 81.7176
v  3.2026 145.8018 9.8581
v  3.2026 155.5422 9.8581
v  -0.0176 145.8020 0.0929
v  3.2026 145.8020 0.0929
v  0.3197 145.8018 81.7176
v  0.3197 17.9928 81.7176
v  0.3197 17.9928 9.8581
v  0.3197 145.8018 9.8581
v  0.3197 155.5422 9.8581
v  0.3197 181.2654 9.8581
v  -0.0176 191.0691 0.0929
v  0.3197 181.2653 81.7176
v  0.3197 155.5422 -9.8673
v  3.2026 155.5420 0.0929
v  3.2026 155.5420 -91.5421
v  3.2026 145.8020 -0.1021
v  -0.0176 145.8020 -0.1021
v  -0.0176 155.5420 -91.5421
v  3.2026 145.8020 91.5329
v  -0.0176 145.8020 91.5329
v  -0.0176 155.5420 0.0929
v  0.3197 155.5422 81.7176
# 64 vertices

vn 0.0000 -1.0000 -0.0000
vn 0.0000 0.0000 1.0000
vn 0.9996 0.0290 -0.0000
vn 1.0000 0.0000 -0.0000
vn 0.0000 0.0000 -1.0000
vn 0.0000 1.0000 -0.0000
vn 0.9235 -0.0259 -0.3827
vn 0.9312 0.2441 0.2706
vn 0.9234 -0.0259 0.3830
# 9 vertex normals

vt 1.9561 -2.4553 0.0000
vt 1.9561 0.3015 0.0000
vt 1.8590 0.3015 0.0000
vt 1.8590 -2.4553 0.0000
vt 1.2542 1.9872 0.0000
vt 1.3512 1.9872 0.0000
vt 1.3512 3.0583 0.0000
vt 1.2542 3.0583 0.0000
vt 2.5309 0.7027 0.0000
vt 2.8264 0.4068 0.0000
vt 2.8264 3.1636 0.0000
vt 2.5309 2.8692 0.0000
vt 2.2517 -2.1594 0.0000
vt 2.2517 0.0071 0.0000
vt 3.6205 -0.3084 0.0000
vt 3.2818 -0.3084 0.0000
vt 3.2818 -2.4749 0.0000
vt 3.6205 -2.4749 0.0000
vt 0.5439 1.6935 0.0000
vt 0.4468 1.6935 0.0000
vt 0.4468 -2.4553 0.0000
vt 0.5439 -2.4553 0.0000
vt 1.7537 1.6935 0.0000
vt 1.6527 1.6935 0.0000
vt 1.6562 -2.1597 0.0000
vt 1.7537 -2.1597 0.0000
vt 2.3386 -2.1594 0.0000
vt 2.3386 0.0071 0.0000
vt 3.0288 -0.3084 0.0000
vt 3.0288 -2.4749 0.0000
vt 0.0444 1.9872 0.0000
vt 0.1444 1.9872 0.0000
vt 0.1411 2.7627 0.0000
vt 0.0444 2.7627 0.0000
vt 2.9235 0.4068 0.0000
vt 2.9235 3.1636 0.0000
vt 2.4439 0.7027 0.0000
vt 2.4439 2.8692 0.0000
vt 1.9561 0.4068 0.0000
vt 1.9561 3.1636 0.0000
vt 1.8590 3.1636 0.0000
vt 1.8590 0.4068 0.0000
vt 0.6493 1.9872 0.0000
vt 0.7464 1.9872 0.0000
vt 0.7464 3.0583 0.0000
vt 0.6493 3.0583 0.0000
vt 2.5309 -2.1609 0.0000
vt 2.8264 -2.4553 0.0000
vt 2.8264 0.3015 0.0000
vt 2.5309 0.0056 0.0000
vt 2.2517 0.7012 0.0000
vt 2.2517 2.8677 0.0000
vt 3.6205 1.9211 0.0000
vt 3.2818 1.9211 0.0000
vt 3.2818 -0.2453 0.0000
vt 3.6205 -0.2453 0.0000
vt -0.0610 1.6935 0.0000
vt -0.1581 1.6935 0.0000
vt -0.1580 -2.4553 0.0000
vt -0.0610 -2.4553 0.0000
vt 1.1488 1.6935 0.0000
vt 1.0488 1.6935 0.0000
vt 1.0521 -2.1597 0.0000
vt 1.1488 -2.1597 0.0000
vt 2.3386 0.7012 0.0000
vt 2.3386 2.8677 0.0000
vt 3.0288 1.9211 0.0000
vt 3.0288 -0.2453 0.0000
vt -0.5605 1.9872 0.0000
vt -0.4595 1.9872 0.0000
vt -0.4630 2.7627 0.0000
vt -0.5605 2.7627 0.0000
vt 2.9235 -2.4553 0.0000
vt 2.9235 0.3015 0.0000
vt 2.4439 -2.1609 0.0000
vt 2.4439 0.0056 0.0000
vt 3.5868 -2.4749 0.0000
vt 3.5868 -0.3084 0.0000
vt 1.6562 2.7627 0.0000
vt 1.6527 1.9872 0.0000
vt -0.1580 1.9872 0.0000
vt -0.1580 3.0583 0.0000
vt 0.4468 1.9872 0.0000
vt 0.4468 3.0583 0.0000
vt 1.0521 2.7627 0.0000
vt 1.0488 1.9872 0.0000
vt 1.2542 -2.4553 0.0000
vt 1.3512 -2.4553 0.0000
vt 1.3512 1.6935 0.0000
vt 1.2542 1.6935 0.0000
vt 0.5439 1.9872 0.0000
vt 0.0444 -2.1597 0.0000
vt 0.1411 -2.1597 0.0000
vt 0.1444 1.6935 0.0000
vt 0.0444 1.6935 0.0000
vt 0.6493 -2.4553 0.0000
vt 0.7464 -2.4553 0.0000
vt 0.7464 1.6935 0.0000
vt 0.6493 1.6935 0.0000
vt -0.0610 1.9872 0.0000
vt -0.5605 -2.1597 0.0000
vt -0.4630 -2.1597 0.0000
vt -0.4595 1.6935 0.0000
vt -0.5605 1.6935 0.0000
vt 1.7537 2.7627 0.0000
vt 1.7537 1.9872 0.0000
vt 1.1488 2.7627 0.0000
vt 1.1488 1.9872 0.0000
vt 0.5439 3.0583 0.0000
vt -0.0609 3.0583 0.0000
vt 3.5868 -0.2453 0.0000
vt 3.5868 1.9211 0.0000
# 112 texture coords

g double_shed_door_w_transom
usemtl None
s 1
f 1/1/1 2/2/1 3/3/1 4/4/1 
s 2
f 5/5/2 6/6/2 7/7/2 8/8/2 
s 4
f 9/9/3 10/10/3 7/11/3 11/12/4 
f 2/2/4 1/1/4 12/13/4 13/14/4 
f 14/15/4 15/16/4 16/17/4 17/18/4 
s 2
f 18/19/5 19/20/5 1/21/5 4/22/5 
s 1
f 20/23/5 15/24/5 13/25/5 21/26/5 
s 2
f 13/14/6 12/13/6 22/27/6 21/28/6 
f 16/17/1 15/16/1 20/29/1 23/30/1 
s 1
f 24/31/2 17/32/2 9/33/2 25/34/2 
f 7/11/6 10/10/6 26/35/6 8/36/6 
s 2
f 25/37/1 9/9/1 11/12/1 27/38/1 
s 1
f 28/39/1 29/40/1 30/41/1 31/42/1 
s 2
f 32/43/2 33/44/2 34/45/2 35/46/2 
s 4
f 36/47/7 37/48/8 34/49/9 38/50/4 
f 29/40/4 28/39/4 39/51/4 40/52/4 
f 41/53/4 42/54/4 43/55/4 44/56/4 
s 2
f 45/57/5 46/58/5 28/59/5 31/60/5 
s 1
f 47/61/5 42/62/5 40/63/5 48/64/5 
s 2
f 40/52/6 39/51/6 49/65/6 48/66/6 
f 43/55/1 42/54/1 47/67/1 50/68/1 
s 1
f 51/69/2 44/70/2 36/71/2 52/72/2 
f 34/49/6 37/48/6 53/73/6 35/74/6 
s 2
f 52/75/1 36/47/1 38/50/1 54/76/1 
f 24/77/6 55/78/6 14/15/6 17/18/6 
s 4
f 11/79/4 7/7/4 6/6/4 14/80/4 
f 36/71/4 44/70/4 56/81/4 37/82/4 
f 9/33/4 17/32/4 57/83/4 10/84/4 
f 38/85/4 34/45/4 33/44/4 41/86/4 
s 2
f 3/87/2 2/88/2 58/89/2 59/90/2 
f 60/91/5 57/83/5 19/20/5 18/19/5 
s 1
f 22/92/2 12/93/2 16/94/2 23/95/2 
s 2
f 30/96/2 29/97/2 61/98/2 62/99/2 
f 63/100/5 56/81/5 46/58/5 45/57/5 
s 1
f 49/101/2 39/102/2 43/103/2 50/104/2 
s 4
f 2/88/4 13/25/4 15/24/4 58/89/4 
f 43/103/4 39/102/4 28/59/4 46/58/4 
f 16/94/4 12/93/4 1/21/4 19/20/4 
f 29/97/4 40/63/4 42/62/4 61/98/4 
s 1
f 27/105/5 11/79/5 14/80/5 55/106/5 
s 2
f 59/90/2 58/89/2 6/6/2 5/5/2 
s 1
f 54/107/5 38/85/5 41/86/5 64/108/5 
s 2
f 62/99/2 61/98/2 33/44/2 32/43/2 
s 4
f 6/6/4 58/89/4 15/24/4 14/80/4 
f 44/70/4 43/103/4 46/58/4 56/81/4 
f 17/32/4 16/94/4 19/20/4 57/83/4 
f 33/44/4 61/98/4 42/62/4 41/86/4 
s 2
f 26/109/5 10/84/5 57/83/5 60/91/5 
f 53/110/5 37/82/5 56/81/5 63/100/5 
f 51/111/6 64/112/6 41/53/6 44/56/6 
# 50 polygons

