# 3ds Max Wavefront OBJ Exporter v0.97b - (c)2007 guruware
# File Created: 12.03.2019 20:50:27

mtllib double_shed_door_w_transom_frame.mtl

#
# object double_shed_door_w_transom_frame
#

v  4.9469 200.7141 91.6370
v  3.1352 191.1780 91.6370
v  3.1352 191.1780 -91.6370
v  4.9469 200.7142 -91.6370
v  3.1352 191.1780 101.1426
v  4.9469 200.7141 104.1290
v  0.1059 200.7141 104.1290
v  0.0022 191.1780 101.1426
v  4.9469 200.7142 -104.1597
v  3.1352 191.1780 -101.1734
v  0.0022 191.1780 -101.1734
v  0.1059 200.7142 -104.1597
v  0.0022 191.1780 -91.6370
v  0.0022 191.1780 91.6370
v  0.1059 200.7141 91.6370
v  0.1059 200.7142 -91.6370
v  3.1352 0.0019 -101.1735
v  3.1352 0.0019 -91.6373
v  0.0022 0.0019 -91.6373
v  0.0022 0.0019 -101.1735
v  3.1352 0.0019 91.6050
v  3.1352 0.0019 101.1411
v  0.0022 0.0019 101.1411
v  0.0022 0.0019 91.6050
# 24 vertices

vn 0.9824 -0.1866 -0.0000
vn 0.9922 -0.1249 -0.0000
vn 0.0000 -0.1593 0.9872
vn 0.0000 -0.2989 0.9543
vn 0.0000 -0.1507 0.9886
vn 0.0000 -0.2988 -0.9543
vn 0.0000 -0.1593 -0.9872
vn 0.0000 -0.1507 -0.9886
vn 0.0000 -1.0000 -0.0000
vn 0.0000 1.0000 0.0000
vn 1.0000 0.0000 -0.0000
vn 0.9948 -0.1019 -0.0000
vn 0.0000 0.0000 -1.0000
vn 0.0000 -0.0000 1.0000
vn 0.0000 0.0002 -1.0000
vn 0.0000 1.0000 -0.0000
# 16 vertex normals

vt -1.9754 3.5773 0.0000
vt -2.2680 3.5773 0.0000
vt -2.2680 -1.9481 0.0000
vt -1.9754 -1.9481 0.0000
vt -2.2680 3.8639 0.0000
vt -1.9754 3.9539 0.0000
vt -2.0425 4.0835 0.0000
vt -2.3114 3.9478 0.0000
vt -1.9754 -2.3257 0.0000
vt -2.2680 -2.2357 0.0000
vt -2.3114 -2.3196 0.0000
vt -2.0425 -2.4553 0.0000
vt -2.3625 -1.9481 0.0000
vt -2.3625 3.5773 0.0000
vt -1.8294 3.5773 0.0000
vt -1.8294 -1.9481 0.0000
vt -0.7603 -2.3608 0.0000
vt -0.7603 3.4028 0.0000
vt -1.0478 3.4028 0.0000
vt -1.0478 -2.3608 0.0000
vt -1.0478 -2.4553 0.0000
vt -0.7603 -2.4553 0.0000
vt -0.6658 -2.3608 0.0000
vt -0.6658 3.4028 0.0000
vt -1.1422 -2.3608 0.0000
vt -1.1422 3.4028 0.0000
vt -1.3421 -2.3608 0.0000
vt -1.3430 3.4028 0.0000
vt -1.6296 3.4028 0.0000
vt -1.6296 -2.3608 0.0000
vt -1.6295 -2.4553 0.0000
vt -1.3420 -2.4553 0.0000
vt -1.2476 -2.3608 0.0000
vt -1.2486 3.4028 0.0000
vt -1.7240 -2.3609 0.0000
vt -1.7241 3.4028 0.0000
vt -1.8294 3.9539 0.0000
vt -1.8294 -2.3257 0.0000
# 38 texture coords

g double_shed_door_w_transom_frame
usemtl None
s 1
f 1/1/1 2/2/2 3/3/2 4/4/1 
s 2
f 5/5/3 6/6/4 7/7/4 8/8/5 
f 9/9/6 10/10/7 11/11/8 12/12/6 
f 13/13/9 3/3/9 2/2/9 14/14/9 
s 4
f 15/15/10 1/1/10 4/4/10 16/16/10 
s 1
f 17/17/11 10/18/12 3/19/2 18/20/11 
s 4
f 17/17/9 18/20/9 19/21/9 20/22/9 
s 2
f 20/23/13 11/24/8 10/18/7 17/17/13 
s 8
f 19/25/14 18/20/14 3/19/14 13/26/14 
s 1
f 21/27/11 2/28/2 5/29/12 22/30/11 
s 4
f 21/27/9 22/30/9 23/31/9 24/32/9 
s 8
f 24/33/15 14/34/15 2/28/15 21/27/15 
s 2
f 23/35/14 22/30/14 5/29/3 8/36/5 
s 1
f 1/1/1 6/6/1 5/5/12 2/2/2 
f 10/10/12 9/9/1 4/4/1 3/3/2 
s 4
f 7/37/16 6/6/16 1/1/10 15/15/10 
f 9/9/16 12/38/16 16/16/10 4/4/10 
# 17 polygons

