# 3ds Max Wavefront OBJ Exporter v0.97b - (c)2007 guruware
# File Created: 12.03.2019 20:53:19

mtllib econ_door_frame.mtl

#
# object econ_door_frame
#

v  2.0000 3.1507 -51.2073
v  2.0000 16.3533 -51.2073
v  2.0000 16.3534 -45.9161
v  2.0000 3.1507 -45.9162
v  0.0000 3.1507 -45.9162
v  0.0000 3.1507 -51.2073
v  0.0000 16.3533 -51.2073
v  0.0000 16.3534 -45.9161
v  2.0000 88.4597 -51.2073
v  2.0000 101.6623 -51.2073
v  2.0000 101.6624 -45.9161
v  2.0000 88.4597 -45.9162
v  0.0000 88.4597 -45.9162
v  0.0000 88.4597 -51.2073
v  0.0000 101.6623 -51.2073
v  0.0000 101.6624 -45.9161
v  2.0000 175.5077 -51.2073
v  2.0000 188.7103 -51.2073
v  2.0000 188.7104 -45.9161
v  2.0000 175.5077 -45.9162
v  0.0000 175.5077 -45.9162
v  0.0000 175.5077 -51.2073
v  0.0000 188.7103 -51.2073
v  0.0000 188.7104 -45.9161
v  2.0000 189.8556 -45.7220
v  2.0000 191.8556 -45.7220
v  2.0000 191.8556 45.7220
v  2.0000 189.8556 45.7220
v  0.0000 189.8556 45.7220
v  0.0000 189.8556 -45.7220
v  0.0000 191.8556 -45.7220
v  0.0000 191.8556 45.7220
# 32 vertices

vn 1.0000 0.0000 -0.0000
vn 0.0000 -1.0000 -0.0000
vn 0.0000 0.0000 -1.0000
vn 0.0000 1.0000 -0.0000
vn 0.0000 -0.0000 1.0000
vn 0.0000 0.0000 1.0000
# 6 vertex normals

vt 1.2931 0.7100 0.0000
vt 1.2931 1.0701 0.0000
vt 1.1488 1.0701 0.0000
vt 1.1488 0.7100 0.0000
vt 1.1488 0.6554 0.0000
vt 1.2931 0.6554 0.0000
vt 1.3477 0.7100 0.0000
vt 1.3477 1.0701 0.0000
vt 1.1488 1.1247 0.0000
vt 1.2931 1.1247 0.0000
vt 1.0942 1.0701 0.0000
vt 1.0942 0.7100 0.0000
vt 0.5281 1.2988 0.0000
vt 0.5281 1.6590 0.0000
vt 0.3837 1.6590 0.0000
vt 0.3837 1.2988 0.0000
vt 0.3837 1.2443 0.0000
vt 0.5281 1.2443 0.0000
vt 0.5826 1.2988 0.0000
vt 0.5826 1.6590 0.0000
vt 0.3837 1.7135 0.0000
vt 0.5281 1.7135 0.0000
vt 0.3292 1.6590 0.0000
vt 0.3292 1.2988 0.0000
vt 0.9106 1.2988 0.0000
vt 0.9106 1.6590 0.0000
vt 0.7662 1.6590 0.0000
vt 0.7662 1.2988 0.0000
vt 0.7662 1.2443 0.0000
vt 0.9106 1.2443 0.0000
vt 0.9651 1.2988 0.0000
vt 0.9651 1.6590 0.0000
vt 0.7662 1.7135 0.0000
vt 0.9106 1.7135 0.0000
vt 0.7117 1.6590 0.0000
vt 0.7117 1.2988 0.0000
vt 1.5432 -1.3522 0.0000
vt 1.5977 -1.3522 0.0000
vt 1.5977 1.1423 0.0000
vt 1.5432 1.1423 0.0000
vt 1.4886 1.1423 0.0000
vt 1.4886 -1.3522 0.0000
vt 1.5432 -1.4067 0.0000
vt 1.5977 -1.4067 0.0000
vt 1.6523 1.1423 0.0000
vt 1.6523 -1.3522 0.0000
vt 1.5977 1.1969 0.0000
vt 1.5432 1.1969 0.0000
# 48 texture coords

g econ_door_frame
usemtl Material__27
s 1
f 1/1/1 2/2/1 3/3/1 4/4/1 
s 2
f 1/1/2 4/4/2 5/5/2 6/6/2 
s 4
f 2/2/3 1/1/3 6/7/3 7/8/3 
s 2
f 8/9/4 3/3/4 2/2/4 7/10/4 
s 4
f 4/4/5 3/3/5 8/11/5 5/12/5 
s 1
f 9/13/1 10/14/1 11/15/1 12/16/1 
s 2
f 9/13/2 12/16/2 13/17/2 14/18/2 
s 4
f 10/14/3 9/13/3 14/19/3 15/20/3 
s 2
f 16/21/4 11/15/4 10/14/4 15/22/4 
s 4
f 12/16/5 11/15/5 16/23/5 13/24/5 
s 1
f 17/25/1 18/26/1 19/27/1 20/28/1 
s 2
f 17/25/2 20/28/2 21/29/2 22/30/2 
s 4
f 18/26/3 17/25/3 22/31/3 23/32/3 
s 2
f 24/33/4 19/27/4 18/26/4 23/34/4 
s 4
f 20/28/5 19/27/5 24/35/5 21/36/5 
s 1
f 25/37/1 26/38/1 27/39/1 28/40/1 
s 2
f 25/37/2 28/40/2 29/41/2 30/42/2 
s 4
f 26/38/3 25/37/3 30/43/3 31/44/3 
s 2
f 32/45/4 27/39/4 26/38/4 31/46/4 
s 4
f 28/40/6 27/39/6 32/47/6 29/48/6 
# 20 polygons

