# 3ds Max Wavefront OBJ Exporter v0.97b - (c)2007 guruware
# File Created: 15.08.2018 21:49:01

mtllib 24x36_Aluminum_single_pane_window_frame.mtl

#
# object Windows_Frame
#

v  2.0000 193.1539 30.4799
v  2.0000 193.1539 -30.4799
v  2.0000 200.0001 -30.4799
v  2.0000 200.0001 30.4799
v  2.0000 101.7146 -30.4799
v  2.0000 101.7146 30.4799
v  2.0000 94.8684 30.4799
v  2.0000 94.8684 -30.4799
v  0.0000 94.8684 30.4799
v  0.0000 94.8684 -30.4799
v  0.0000 200.0001 -30.4799
v  0.0000 200.0001 30.4799
v  0.0000 101.7146 -30.4799
v  0.0000 101.7146 30.4799
v  0.0000 193.1539 30.4799
v  0.0000 193.1539 -30.4799
# 16 vertices

vn 1.0000 0.0000 -0.0000
vn 0.0000 -1.0000 -0.0000
vn 0.0000 1.0000 -0.0000
vn 0.0000 0.0000 1.0000
vn 0.0000 0.0000 -1.0000
# 5 vertex normals

vt 0.4075 -0.5542 0.0000
vt 0.4075 1.5542 0.0000
vt 0.1707 1.5542 0.0000
vt 0.1707 -0.5542 0.0000
vt 0.6012 1.5542 0.0000
vt 0.6012 -0.5542 0.0000
vt 0.8379 -0.5542 0.0000
vt 0.8379 1.5542 0.0000
vt 0.9071 -0.5542 0.0000
vt 0.9071 1.5542 0.0000
vt 0.1016 1.5542 0.0000
vt 0.1016 -0.5542 0.0000
vt 0.5320 1.5542 0.0000
vt 0.5320 -0.5542 0.0000
vt 0.4767 -0.5542 0.0000
vt 0.4767 1.5542 0.0000
vt 0.1707 -0.6233 0.0000
vt 0.4075 -0.6233 0.0000
vt 0.6012 -0.6233 0.0000
vt 0.8379 -0.6233 0.0000
vt 0.8379 1.6233 0.0000
vt 0.6012 1.6233 0.0000
vt 0.4075 1.6233 0.0000
vt 0.1707 1.6233 0.0000
# 24 texture coords

g Windows_Frame
usemtl Material__27
s 1
f 1/1/1 2/2/1 3/3/1 4/4/1 
f 5/5/1 6/6/1 7/7/1 8/8/1 
s off
f 8/8/2 7/7/2 9/9/2 10/10/2 
f 4/4/3 3/3/3 11/11/3 12/12/3 
f 6/6/3 5/5/3 13/13/3 14/14/3 
f 2/2/2 1/1/2 15/15/2 16/16/2 
f 12/17/4 15/18/4 1/1/4 4/4/4 
f 14/19/4 9/20/4 7/7/4 6/6/4 
f 10/21/5 13/22/5 5/5/5 8/8/5 
f 16/23/5 11/24/5 3/3/5 2/2/5 
# 10 polygons

