# 3ds Max Wavefront OBJ Exporter v0.97b - (c)2007 guruware
# File Created: 15.08.2018 23:22:01

mtllib Shutters_for_2x3_Single_pane_Window.mtl

#
# object Shutters007
#

v  3.9448 183.4472 -30.5520
v  3.9448 110.9071 -51.2740
v  3.9448 111.0560 -60.3334
v  3.9448 183.4674 -39.6126
v  1.9999 200.0000 -30.6234
v  1.9999 94.8680 -30.6235
v  1.9999 94.8680 -39.6840
v  1.9999 200.0000 -39.6839
v  1.9999 200.0000 -51.6053
v  1.9999 94.8680 -51.6054
v  1.9999 94.8680 -60.6660
v  1.9999 200.0000 -60.6659
v  1.9999 200.0000 -50.5226
v  1.9999 200.0000 -40.7667
v  1.9999 94.8680 -40.7668
v  1.9999 94.8680 -50.5227
v  4.0405 110.9888 -60.6626
v  4.0405 110.9888 -30.5343
v  4.0405 101.9282 -30.5343
v  4.0405 101.9282 -60.6626
v  4.0405 192.8091 -60.6625
v  4.0405 192.8090 -30.5342
v  4.0405 183.7485 -30.5342
v  4.0405 183.7485 -60.6625
v  3.9688 183.3923 39.7783
v  3.9688 110.9712 60.6966
v  3.9688 110.9665 51.6400
v  3.9688 183.4095 30.7217
v  3.9688 101.8573 60.6869
v  3.9688 101.8573 30.5541
v  3.9688 110.9179 30.5541
v  3.9688 110.9178 60.6869
v  3.9688 183.6776 60.6870
v  3.9688 183.6776 30.5541
v  3.9688 192.7382 30.5541
v  3.9688 192.7381 60.6870
v  2.0003 94.8680 30.6433
v  2.0003 200.0000 30.6434
v  2.0003 200.0000 39.7039
v  2.0003 94.8680 39.7038
v  2.0003 94.8680 51.6252
v  2.0003 200.0000 51.6253
v  2.0003 200.0000 60.6859
v  2.0003 94.8680 60.6858
v  2.0003 94.8680 50.5425
v  2.0003 94.8680 40.7866
v  2.0003 200.0000 40.7867
v  2.0003 200.0000 50.5426
v  1.9997 183.4472 -30.5520
v  1.9997 183.4674 -39.6126
v  1.9997 111.0560 -60.3334
v  1.9997 110.9071 -51.2740
v  0.0000 200.0000 -50.5226
v  0.0000 94.8680 -50.5227
v  0.0000 200.0000 -51.6053
v  0.0000 200.0000 -60.6659
v  0.0000 94.8680 -30.6235
v  0.0000 200.0000 -30.6234
v  0.0000 94.8680 -40.7668
v  0.0000 200.0000 -39.6839
v  0.0000 94.8680 -39.6840
v  0.0000 94.8680 -60.6660
v  0.0000 94.8680 -51.6054
v  0.0000 200.0000 -40.7667
v  1.9997 110.9888 -60.6626
v  1.9997 101.9282 -60.6626
v  1.9997 101.9282 -30.5343
v  1.9997 110.9888 -30.5343
v  1.9997 192.8091 -60.6625
v  1.9997 183.7485 -60.6625
v  1.9997 183.7485 -30.5342
v  1.9997 192.8090 -30.5342
v  2.0002 183.3682 39.7201
v  2.0002 183.3854 30.6635
v  2.0002 110.9408 51.5822
v  2.0002 110.9455 60.6388
v  2.0002 101.8573 60.6869
v  2.0002 110.9178 60.6869
v  2.0002 110.9179 30.5541
v  2.0002 101.8573 30.5541
v  2.0002 183.6776 60.6870
v  2.0002 192.7381 60.6870
v  2.0002 192.7382 30.5541
v  2.0002 183.6776 30.5541
v  0.0000 94.8680 50.5425
v  0.0000 200.0000 50.5426
v  0.0000 94.8680 51.6252
v  0.0000 94.8680 60.6858
v  0.0000 200.0000 30.6434
v  0.0000 94.8680 30.6433
v  0.0000 200.0000 40.7867
v  0.0000 94.8680 39.7038
v  0.0000 200.0000 39.7039
v  0.0000 200.0000 60.6859
v  0.0000 200.0000 51.6253
v  0.0000 94.8680 40.7866
# 96 vertices

vn 1.0000 0.0000 -0.0000
vn 0.0000 1.0000 0.0022
vn 0.0000 -0.9999 -0.0164
vn 0.0000 0.3720 -0.9282
vn 0.0000 -0.3715 0.9285
vn 0.0000 0.0000 -1.0000
vn 0.0000 1.0000 -0.0000
vn 0.0000 0.0000 1.0000
vn 0.0000 -1.0000 -0.0000
vn -0.0123 0.9999 0.0019
vn 0.0130 -0.9999 0.0005
vn 0.0320 -0.3739 -0.9269
vn 0.0321 -0.3739 -0.9269
vn -0.0321 0.3740 0.9269
vn -0.0320 0.3740 0.9269
# 15 vertex normals

vt 1.9559 0.9592 0.0000
vt 1.9657 -1.6891 0.0000
vt 2.2732 -1.7702 0.0000
vt 2.2622 0.8736 0.0000
vt 0.3613 2.2362 0.0000
vt 0.3613 -1.4542 0.0000
vt 0.6793 -1.4542 0.0000
vt 0.6793 2.2362 0.0000
vt -0.6337 2.2362 0.0000
vt -0.6337 -1.4542 0.0000
vt -0.3157 -1.4542 0.0000
vt -0.3157 2.2362 0.0000
vt -1.3325 2.2362 0.0000
vt -1.6749 2.2362 0.0000
vt -1.6749 -1.4542 0.0000
vt -1.3325 -1.4542 0.0000
vt 2.7866 -0.0727 0.0000
vt 2.7866 0.9849 0.0000
vt 2.4686 0.9849 0.0000
vt 2.4686 -0.0727 0.0000
vt 1.8101 1.3636 0.0000
vt 1.8101 2.4212 0.0000
vt 1.4921 2.4212 0.0000
vt 1.4921 1.3636 0.0000
vt 1.4380 0.8740 0.0000
vt 1.4331 -1.7721 0.0000
vt 1.7388 -1.6846 0.0000
vt 1.7434 0.9622 0.0000
vt 2.0315 2.4061 0.0000
vt 2.0315 1.3484 0.0000
vt 2.3495 1.3484 0.0000
vt 2.3495 2.4061 0.0000
vt 2.4669 -0.5286 0.0000
vt 2.4669 -1.5863 0.0000
vt 2.7849 -1.5863 0.0000
vt 2.7849 -0.5286 0.0000
vt 0.1818 -1.4542 0.0000
vt 0.1818 2.2362 0.0000
vt -0.1362 2.2362 0.0000
vt -0.1362 -1.4542 0.0000
vt 1.1768 -1.4542 0.0000
vt 1.1768 2.2362 0.0000
vt 0.8588 2.2362 0.0000
vt 0.8588 -1.4542 0.0000
vt -1.1547 -1.4542 0.0000
vt -0.8123 -1.4542 0.0000
vt -0.8123 2.2362 0.0000
vt -1.1547 2.2362 0.0000
vt 1.9743 1.0249 0.0000
vt 2.2806 0.9394 0.0000
vt 2.2558 -1.8363 0.0000
vt 1.9482 -1.7551 0.0000
vt 2.3305 0.8739 0.0000
vt 2.3415 -1.7700 0.0000
vt 1.8974 -1.6893 0.0000
vt 1.8876 0.9589 0.0000
vt -1.2623 2.2362 0.0000
vt -1.2623 -1.4542 0.0000
vt -0.6337 2.3064 0.0000
vt -0.3157 2.3064 0.0000
vt 0.2911 -1.4542 0.0000
vt 0.2911 2.2362 0.0000
vt -1.3325 -1.5244 0.0000
vt -1.6749 -1.5244 0.0000
vt 0.7495 2.2362 0.0000
vt 0.7495 -1.4542 0.0000
vt -0.3157 -1.5244 0.0000
vt -0.6337 -1.5244 0.0000
vt -0.2455 2.2362 0.0000
vt -0.2455 -1.4542 0.0000
vt 0.3613 2.3064 0.0000
vt 0.6793 2.3064 0.0000
vt -1.7451 -1.4542 0.0000
vt -1.7451 2.2362 0.0000
vt -0.7039 -1.4542 0.0000
vt -0.7039 2.2362 0.0000
vt 0.6793 -1.5244 0.0000
vt 0.3613 -1.5244 0.0000
vt -1.6749 2.3064 0.0000
vt -1.3325 2.3064 0.0000
vt 2.7866 -0.1443 0.0000
vt 2.4686 -0.1443 0.0000
vt 2.4686 1.0565 0.0000
vt 2.7866 1.0565 0.0000
vt 2.3969 -0.0727 0.0000
vt 2.3969 0.9849 0.0000
vt 2.8582 0.9849 0.0000
vt 2.8583 -0.0727 0.0000
vt 1.8101 1.2920 0.0000
vt 1.4921 1.2920 0.0000
vt 1.4921 2.4928 0.0000
vt 1.8101 2.4929 0.0000
vt 1.4204 1.3636 0.0000
vt 1.4204 2.4212 0.0000
vt 1.8818 2.4212 0.0000
vt 1.8818 1.3636 0.0000
vt 1.4208 0.9410 0.0000
vt 1.7262 1.0292 0.0000
vt 1.7597 -1.7505 0.0000
vt 1.4541 -1.8380 0.0000
vt 1.8125 0.9619 0.0000
vt 1.8079 -1.6850 0.0000
vt 1.3640 -1.7723 0.0000
vt 1.3689 0.8739 0.0000
vt 2.0315 2.4752 0.0000
vt 2.3495 2.4752 0.0000
vt 2.3495 1.2793 0.0000
vt 2.0315 1.2793 0.0000
vt 2.4186 2.4061 0.0000
vt 2.4186 1.3484 0.0000
vt 1.9624 1.3484 0.0000
vt 1.9624 2.4061 0.0000
vt 2.4669 -0.4595 0.0000
vt 2.7849 -0.4595 0.0000
vt 2.7849 -1.6554 0.0000
vt 2.4669 -1.6554 0.0000
vt 2.8540 -0.5286 0.0000
vt 2.8540 -1.5863 0.0000
vt 2.3978 -1.5863 0.0000
vt 2.3978 -0.5286 0.0000
vt -1.2249 -1.4542 0.0000
vt -1.2249 2.2362 0.0000
vt 1.1768 -1.5244 0.0000
vt 0.8588 -1.5244 0.0000
vt 0.2520 2.2362 0.0000
vt 0.2520 -1.4542 0.0000
vt -1.1547 2.3064 0.0000
vt -0.8123 2.3064 0.0000
vt -0.2064 -1.4542 0.0000
vt -0.2064 2.2362 0.0000
vt 0.8588 2.3064 0.0000
vt 1.1768 2.3064 0.0000
vt 0.7886 -1.4542 0.0000
vt 0.7886 2.2362 0.0000
vt 0.1818 -1.5244 0.0000
vt -0.1362 -1.5244 0.0000
vt -0.7421 2.2362 0.0000
vt -0.7421 -1.4542 0.0000
vt 1.2470 2.2362 0.0000
vt 1.2470 -1.4542 0.0000
vt -0.1362 2.3064 0.0000
vt 0.1818 2.3064 0.0000
vt -0.8123 -1.5244 0.0000
vt -1.1547 -1.5244 0.0000
# 144 texture coords

g Shutters007
usemtl None_wood_white_jpg
s 1
f 1/1/1 2/2/1 3/3/1 4/4/1 
f 5/5/1 6/6/1 7/7/1 8/8/1 
f 9/9/1 10/10/1 11/11/1 12/12/1 
f 13/13/1 14/14/1 15/15/1 16/16/1 
f 17/17/1 18/18/1 19/19/1 20/20/1 
f 21/21/1 22/22/1 23/23/1 24/24/1 
f 25/25/1 26/26/1 27/27/1 28/28/1 
f 29/29/1 30/30/1 31/31/1 32/32/1 
f 33/33/1 34/34/1 35/35/1 36/36/1 
f 37/37/1 38/38/1 39/39/1 40/40/1 
f 41/41/1 42/42/1 43/43/1 44/44/1 
f 45/45/1 46/46/1 47/47/1 48/48/1 
s 2
f 49/49/2 1/1/2 4/4/2 50/50/2 
f 51/51/3 3/3/3 2/2/3 52/52/3 
s 4
f 50/53/4 4/4/4 3/3/4 51/54/4 
f 52/55/5 2/2/5 1/1/5 49/56/5 
s 2
f 53/57/6 13/13/6 16/16/6 54/58/6 
f 55/59/7 9/9/7 12/12/7 56/60/7 
f 57/61/8 6/6/8 5/5/8 58/62/8 
s 4
f 54/63/9 16/16/9 15/15/9 59/64/9 
s 2
f 60/65/6 8/8/6 7/7/6 61/66/6 
f 62/67/9 11/11/9 10/10/9 63/68/9 
s 4
f 56/69/6 12/12/6 11/11/6 62/70/6 
f 58/71/7 5/5/7 8/8/7 60/72/7 
s 2
f 59/73/8 15/15/8 14/14/8 64/74/8 
s 4
f 63/75/8 10/10/8 9/9/8 55/76/8 
f 61/77/9 7/7/9 6/6/9 57/78/9 
f 64/79/7 14/14/7 13/13/7 53/80/7 
s 2
f 65/81/6 17/17/6 20/20/6 66/82/6 
f 67/83/8 19/19/8 18/18/8 68/84/8 
s 4
f 66/85/9 20/20/9 19/19/9 67/86/9 
f 68/87/7 18/18/7 17/17/7 65/88/7 
s 2
f 69/89/6 21/21/6 24/24/6 70/90/6 
f 71/91/8 23/23/8 22/22/8 72/92/8 
s 4
f 70/93/9 24/24/9 23/23/9 71/94/9 
f 72/95/7 22/22/7 21/21/7 69/96/7 
s 2
f 73/97/10 25/25/10 28/28/10 74/98/10 
f 75/99/11 27/27/11 26/26/11 76/100/11 
s 4
f 74/101/12 28/28/12 27/27/13 75/102/13 
f 76/103/14 26/26/14 25/25/15 73/104/15 
s 2
f 77/105/8 29/29/8 32/32/8 78/106/8 
f 79/107/6 31/31/6 30/30/6 80/108/6 
s 4
f 78/109/7 32/32/7 31/31/7 79/110/7 
f 80/111/9 30/30/9 29/29/9 77/112/9 
s 2
f 81/113/8 33/33/8 36/36/8 82/114/8 
f 83/115/6 35/35/6 34/34/6 84/116/6 
s 4
f 82/117/7 36/36/7 35/35/7 83/118/7 
f 84/119/9 34/34/9 33/33/9 81/120/9 
s 2
f 85/121/8 45/45/8 48/48/8 86/122/8 
f 87/123/9 41/41/9 44/44/9 88/124/9 
f 89/125/6 38/38/6 37/37/6 90/126/6 
s 4
f 86/127/7 48/48/7 47/47/7 91/128/7 
s 2
f 92/129/8 40/40/8 39/39/8 93/130/8 
f 94/131/7 43/43/7 42/42/7 95/132/7 
s 4
f 88/133/8 44/44/8 43/43/8 94/134/8 
f 90/135/9 37/37/9 40/40/9 92/136/9 
s 2
f 91/137/6 47/47/6 46/46/6 96/138/6 
s 4
f 95/139/6 42/42/6 41/41/6 87/140/6 
f 93/141/7 39/39/7 38/38/7 89/142/7 
f 96/143/9 46/46/9 45/45/9 85/144/9 
# 60 polygons

