# 3ds Max Wavefront OBJ Exporter v0.97b - (c)2007 guruware
# File Created: 15.08.2018 22:44:13

mtllib Shutters_for_18x36_Aluminum_single_pane_Window.mtl

#
# object Shutters002
#

v  3.9709 183.3253 31.1583
v  3.9709 110.9797 49.5766
v  3.9709 110.9750 41.5200
v  3.9709 183.3425 23.1017
v  3.9709 101.8658 49.7737
v  3.9709 101.8658 22.9341
v  3.9709 110.9263 22.9341
v  3.9709 110.9263 49.7737
v  3.9709 183.6106 49.7738
v  3.9709 183.6106 22.9341
v  3.9709 192.6712 22.9341
v  3.9709 192.6711 49.7738
v  2.0013 94.8680 23.0233
v  2.0013 200.0000 23.0234
v  2.0013 200.0000 31.0839
v  2.0013 94.8680 31.0838
v  2.0013 94.8680 41.5052
v  2.0013 200.0000 41.5053
v  2.0013 200.0000 49.5659
v  2.0013 94.8680 49.5658
v  2.0013 94.8680 40.4225
v  2.0013 94.8680 32.1666
v  2.0013 200.0000 32.1667
v  2.0013 200.0000 40.4226
v  2.0013 183.3012 31.1001
v  2.0013 183.3184 23.0435
v  2.0013 110.9492 41.4622
v  2.0013 110.9540 49.5188
v  2.0013 101.8658 49.7737
v  2.0013 110.9263 49.7737
v  2.0013 110.9263 22.9341
v  2.0013 101.8658 22.9341
v  2.0013 183.6106 49.7738
v  2.0013 192.6711 49.7738
v  2.0013 192.6712 22.9341
v  2.0013 183.6106 22.9341
v  0.0314 94.8680 40.4225
v  0.0314 200.0000 40.4226
v  0.0314 94.8680 41.5052
v  0.0314 94.8680 49.5658
v  0.0314 200.0000 23.0234
v  0.0314 94.8680 23.0233
v  0.0314 200.0000 32.1667
v  0.0314 94.8680 31.0838
v  0.0314 200.0000 31.0839
v  0.0314 200.0000 49.5659
v  0.0314 200.0000 41.5053
v  0.0314 94.8680 32.1666
v  3.9709 183.3253 -31.1583
v  3.9709 183.3425 -23.1017
v  3.9709 110.9750 -41.5200
v  3.9709 110.9797 -49.5766
v  3.9709 101.8658 -49.7737
v  3.9709 110.9263 -49.7737
v  3.9709 110.9263 -22.9341
v  3.9709 101.8658 -22.9341
v  3.9709 183.6106 -49.7738
v  3.9709 192.6711 -49.7738
v  3.9709 192.6712 -22.9341
v  3.9709 183.6106 -22.9341
v  2.0013 94.8680 -23.0233
v  2.0013 94.8680 -31.0838
v  2.0013 200.0000 -31.0839
v  2.0013 200.0000 -23.0234
v  2.0013 94.8680 -41.5052
v  2.0013 94.8680 -49.5658
v  2.0013 200.0000 -49.5659
v  2.0013 200.0000 -41.5053
v  2.0013 94.8680 -40.4225
v  2.0013 200.0000 -40.4226
v  2.0013 200.0000 -32.1667
v  2.0013 94.8680 -32.1666
v  2.0013 183.3012 -31.1001
v  2.0013 183.3184 -23.0435
v  2.0013 110.9492 -41.4622
v  2.0013 110.9540 -49.5188
v  2.0013 101.8658 -49.7737
v  2.0013 110.9263 -49.7737
v  2.0013 110.9263 -22.9341
v  2.0013 101.8658 -22.9341
v  2.0013 183.6106 -49.7738
v  2.0013 192.6711 -49.7738
v  2.0013 192.6712 -22.9341
v  2.0013 183.6106 -22.9341
v  0.0314 94.8680 -40.4225
v  0.0314 200.0000 -40.4226
v  0.0314 94.8680 -41.5052
v  0.0314 94.8680 -49.5658
v  0.0314 200.0000 -23.0234
v  0.0314 94.8680 -23.0233
v  0.0314 200.0000 -32.1667
v  0.0314 94.8680 -31.0838
v  0.0314 200.0000 -31.0839
v  0.0314 200.0000 -49.5659
v  0.0314 200.0000 -41.5053
v  0.0314 94.8680 -32.1666
# 96 vertices

vn 1.0000 0.0000 -0.0000
vn -0.0123 0.9999 0.0021
vn 0.0131 -0.9999 0.0006
vn 0.0130 -0.9999 0.0006
vn 0.0319 -0.3462 -0.9376
vn 0.0320 -0.3462 -0.9376
vn -0.0320 0.3463 0.9376
vn -0.0319 0.3463 0.9376
vn 0.0000 0.0000 1.0000
vn 0.0000 0.0000 -1.0000
vn 0.0000 1.0000 -0.0000
vn 0.0000 -1.0000 -0.0000
vn -0.0123 0.9999 -0.0021
vn 0.0131 -0.9999 -0.0006
vn 0.0130 -0.9999 -0.0006
vn 0.0319 -0.3462 0.9376
vn 0.0320 -0.3462 0.9376
vn -0.0320 0.3463 -0.9376
vn -0.0319 0.3463 -0.9376
# 19 vertex normals

vt 1.9385 1.1622 0.0000
vt 1.9378 -1.2444 0.0000
vt 2.1896 -1.1805 0.0000
vt 2.1900 1.2268 0.0000
vt 2.4313 2.2972 0.0000
vt 2.4313 1.4320 0.0000
vt 2.7234 1.4320 0.0000
vt 2.7234 2.2972 0.0000
vt 2.4129 0.8615 0.0000
vt 2.4129 -0.0037 0.0000
vt 2.7049 -0.0037 0.0000
vt 2.7049 0.8615 0.0000
vt 0.1253 -1.2076 0.0000
vt 0.1253 2.1816 0.0000
vt -0.1345 2.1816 0.0000
vt -0.1345 -1.2076 0.0000
vt 0.6859 -1.2061 0.0000
vt 0.6859 2.1831 0.0000
vt 0.4261 2.1831 0.0000
vt 0.4261 -1.2061 0.0000
vt -1.6291 -1.2071 0.0000
vt -1.3630 -1.2071 0.0000
vt -1.3630 2.1821 0.0000
vt -1.6291 2.1821 0.0000
vt 1.9245 1.2242 0.0000
vt 2.1761 1.2887 0.0000
vt 2.2070 -1.2416 0.0000
vt 1.9553 -1.3055 0.0000
vt 2.2536 1.2265 0.0000
vt 2.2531 -1.1809 0.0000
vt 1.8743 -1.2447 0.0000
vt 1.8749 1.1619 0.0000
vt 2.4313 2.3607 0.0000
vt 2.7234 2.3607 0.0000
vt 2.7234 1.3685 0.0000
vt 2.4313 1.3685 0.0000
vt 2.7869 2.2972 0.0000
vt 2.7869 1.4320 0.0000
vt 2.3678 1.4320 0.0000
vt 2.3678 2.2972 0.0000
vt 2.4129 0.9250 0.0000
vt 2.7049 0.9250 0.0000
vt 2.7049 -0.0672 0.0000
vt 2.4129 -0.0672 0.0000
vt 2.7684 0.8615 0.0000
vt 2.7684 -0.0037 0.0000
vt 2.3494 -0.0037 0.0000
vt 2.3494 0.8615 0.0000
vt -1.6926 -1.2071 0.0000
vt -1.6926 2.1821 0.0000
vt 0.6859 -1.2696 0.0000
vt 0.4261 -1.2696 0.0000
vt 0.1888 2.1816 0.0000
vt 0.1888 -1.2076 0.0000
vt -1.6291 2.2456 0.0000
vt -1.3630 2.2456 0.0000
vt -0.1980 -1.2076 0.0000
vt -0.1980 2.1816 0.0000
vt 0.4261 2.2466 0.0000
vt 0.6859 2.2466 0.0000
vt 0.3626 -1.2061 0.0000
vt 0.3626 2.1831 0.0000
vt 0.1253 -1.2711 0.0000
vt -0.1345 -1.2711 0.0000
vt -1.2995 2.1821 0.0000
vt -1.2995 -1.2071 0.0000
vt 0.7494 2.1831 0.0000
vt 0.7494 -1.2061 0.0000
vt -0.1345 2.2451 0.0000
vt 0.1253 2.2451 0.0000
vt -1.3630 -1.2706 0.0000
vt -1.6291 -1.2706 0.0000
vt 1.7205 1.1735 0.0000
vt 1.4690 1.2380 0.0000
vt 1.4694 -1.1693 0.0000
vt 1.7212 -1.2332 0.0000
vt 1.9899 2.3774 0.0000
vt 1.6978 2.3774 0.0000
vt 1.6978 1.5122 0.0000
vt 1.9899 1.5122 0.0000
vt 2.7049 -0.4531 0.0000
vt 2.4129 -0.4531 0.0000
vt 2.4129 -1.3183 0.0000
vt 2.7049 -1.3183 0.0000
vt -0.6315 -1.2107 0.0000
vt -0.3717 -1.2107 0.0000
vt -0.3717 2.1785 0.0000
vt -0.6315 2.1785 0.0000
vt 0.9341 -1.2061 0.0000
vt 1.1939 -1.2061 0.0000
vt 1.1939 2.1831 0.0000
vt 0.9341 2.1831 0.0000
vt -0.8663 -1.2071 0.0000
vt -0.8663 2.1821 0.0000
vt -1.1324 2.1821 0.0000
vt -1.1324 -1.2071 0.0000
vt 1.7345 1.2354 0.0000
vt 1.4829 1.3000 0.0000
vt 1.4520 -1.2304 0.0000
vt 1.7037 -1.2943 0.0000
vt 1.4055 1.2377 0.0000
vt 1.4059 -1.1696 0.0000
vt 1.7847 -1.2335 0.0000
vt 1.7841 1.1732 0.0000
vt 1.9899 2.4409 0.0000
vt 1.6978 2.4409 0.0000
vt 1.6978 1.4487 0.0000
vt 1.9899 1.4487 0.0000
vt 1.6343 2.3774 0.0000
vt 1.6343 1.5122 0.0000
vt 2.0534 1.5122 0.0000
vt 2.0534 2.3774 0.0000
vt 2.7049 -0.3896 0.0000
vt 2.4128 -0.3896 0.0000
vt 2.4129 -1.3818 0.0000
vt 2.7049 -1.3818 0.0000
vt 2.3494 -0.4531 0.0000
vt 2.3494 -1.3183 0.0000
vt 2.7684 -1.3183 0.0000
vt 2.7684 -0.4531 0.0000
vt -0.8028 -1.2071 0.0000
vt -0.8028 2.1821 0.0000
vt 0.9341 -1.2696 0.0000
vt 1.1939 -1.2696 0.0000
vt -0.6950 2.1785 0.0000
vt -0.6950 -1.2107 0.0000
vt -0.8663 2.2456 0.0000
vt -1.1324 2.2456 0.0000
vt -0.3082 -1.2107 0.0000
vt -0.3082 2.1785 0.0000
vt 1.1939 2.2466 0.0000
vt 0.9341 2.2466 0.0000
vt 1.2574 -1.2061 0.0000
vt 1.2574 2.1831 0.0000
vt -0.6315 -1.2742 0.0000
vt -0.3717 -1.2742 0.0000
vt -1.1959 2.1821 0.0000
vt -1.1959 -1.2071 0.0000
vt 0.8706 2.1831 0.0000
vt 0.8706 -1.2061 0.0000
vt -0.3717 2.2420 0.0000
vt -0.6315 2.2420 0.0000
vt -1.1324 -1.2706 0.0000
vt -0.8663 -1.2706 0.0000
# 144 texture coords

g Shutters002
usemtl None_wood_white_jpg
s 1
f 1/1/1 2/2/1 3/3/1 4/4/1 
f 5/5/1 6/6/1 7/7/1 8/8/1 
f 9/9/1 10/10/1 11/11/1 12/12/1 
f 13/13/1 14/14/1 15/15/1 16/16/1 
f 17/17/1 18/18/1 19/19/1 20/20/1 
f 21/21/1 22/22/1 23/23/1 24/24/1 
s 2
f 25/25/2 1/1/2 4/4/2 26/26/2 
f 27/27/3 3/3/3 2/2/4 28/28/4 
s 4
f 26/29/5 4/4/5 3/3/6 27/30/6 
f 28/31/7 2/2/7 1/1/8 25/32/8 
s 2
f 29/33/9 5/5/9 8/8/9 30/34/9 
f 31/35/10 7/7/10 6/6/10 32/36/10 
s 4
f 30/37/11 8/8/11 7/7/11 31/38/11 
f 32/39/12 6/6/12 5/5/12 29/40/12 
s 2
f 33/41/9 9/9/9 12/12/9 34/42/9 
f 35/43/10 11/11/10 10/10/10 36/44/10 
s 4
f 34/45/11 12/12/11 11/11/11 35/46/11 
f 36/47/12 10/10/12 9/9/12 33/48/12 
s 2
f 37/49/9 21/21/9 24/24/9 38/50/9 
f 39/51/12 17/17/12 20/20/12 40/52/12 
f 41/53/10 14/14/10 13/13/10 42/54/10 
s 4
f 38/55/11 24/24/11 23/23/11 43/56/11 
s 2
f 44/57/9 16/16/9 15/15/9 45/58/9 
f 46/59/11 19/19/11 18/18/11 47/60/11 
s 4
f 40/61/9 20/20/9 19/19/9 46/62/9 
f 42/63/12 13/13/12 16/16/12 44/64/12 
s 2
f 43/65/10 23/23/10 22/22/10 48/66/10 
s 4
f 47/67/10 18/18/10 17/17/10 39/68/10 
f 45/69/11 15/15/11 14/14/11 41/70/11 
f 48/71/12 22/22/12 21/21/12 37/72/12 
s 1
f 49/73/1 50/74/1 51/75/1 52/76/1 
f 53/77/1 54/78/1 55/79/1 56/80/1 
f 57/81/1 58/82/1 59/83/1 60/84/1 
f 61/85/1 62/86/1 63/87/1 64/88/1 
f 65/89/1 66/90/1 67/91/1 68/92/1 
f 69/93/1 70/94/1 71/95/1 72/96/1 
s 2
f 73/97/13 74/98/13 50/74/13 49/73/13 
f 75/99/14 76/100/15 52/76/15 51/75/14 
s 4
f 74/101/16 75/102/17 51/75/17 50/74/16 
f 76/103/18 73/104/19 49/73/19 52/76/18 
s 2
f 77/105/10 78/106/10 54/78/10 53/77/10 
f 79/107/9 80/108/9 56/80/9 55/79/9 
s 4
f 78/109/11 79/110/11 55/79/11 54/78/11 
f 80/111/12 77/112/12 53/77/12 56/80/12 
s 2
f 81/113/10 82/114/10 58/82/10 57/81/10 
f 83/115/9 84/116/9 60/84/9 59/83/9 
s 4
f 82/117/11 83/118/11 59/83/11 58/82/11 
f 84/119/12 81/120/12 57/81/12 60/84/12 
s 2
f 85/121/10 86/122/10 70/94/10 69/93/10 
f 87/123/12 88/124/12 66/90/12 65/89/12 
f 89/125/9 90/126/9 61/85/9 64/88/9 
s 4
f 86/127/11 91/128/11 71/95/11 70/94/11 
s 2
f 92/129/10 93/130/10 63/87/10 62/86/10 
f 94/131/11 95/132/11 68/92/11 67/91/11 
s 4
f 88/133/10 94/134/10 67/91/10 66/90/10 
f 90/135/12 92/136/12 62/86/12 61/85/12 
s 2
f 91/137/9 96/138/9 72/96/9 71/95/9 
s 4
f 95/139/9 87/140/9 65/89/9 68/92/9 
f 93/141/11 89/142/11 64/88/11 63/87/11 
f 96/143/12 85/144/12 69/93/12 72/96/12 
# 60 polygons

