# 3ds Max Wavefront OBJ Exporter v0.97b - (c)2007 guruware
# File Created: 15.08.2018 23:01:54

mtllib Shutters_for_24x24_Vinyl_double_pane_Windows.mtl

#
# object Shutters004
#

v  3.9897 183.3802 -30.3408
v  3.9897 141.3997 -51.2740
v  3.9897 141.5485 -60.3334
v  3.9897 183.4004 -39.4014
v  2.0345 200.0000 -30.6234
v  2.0345 125.3480 -30.6235
v  2.0345 125.3480 -39.6840
v  2.0345 200.0000 -39.6839
v  2.0345 200.0000 -51.6053
v  2.0345 125.3480 -51.6054
v  2.0345 125.3480 -60.6660
v  2.0345 200.0000 -60.6659
v  2.0345 200.0000 -50.5226
v  2.0345 200.0000 -40.7667
v  2.0345 125.3480 -40.7668
v  2.0345 125.3480 -50.5227
v  3.9897 141.4813 -60.8739
v  3.9897 141.4813 -30.5343
v  3.9897 132.4208 -30.5343
v  3.9897 132.4208 -60.8739
v  3.9897 192.7421 -60.8738
v  3.9897 192.7420 -30.5342
v  3.9897 183.6815 -30.5342
v  3.9897 183.6815 -60.8738
v  3.9897 183.3253 39.7783
v  3.9897 141.4638 60.6966
v  3.9897 141.4591 51.6400
v  3.9897 183.3425 30.7217
v  3.9897 132.3499 60.8937
v  3.9897 132.3499 30.5541
v  3.9897 141.4104 30.5541
v  3.9897 141.4104 60.8937
v  3.9897 183.6106 60.8938
v  3.9897 183.6106 30.5541
v  3.9897 192.6712 30.5541
v  3.9897 192.6711 60.8938
v  2.0345 125.3480 30.6433
v  2.0345 200.0000 30.6434
v  2.0345 200.0000 39.7039
v  2.0345 125.3480 39.7038
v  2.0345 125.3480 51.6252
v  2.0345 200.0000 51.6253
v  2.0345 200.0000 60.6859
v  2.0345 125.3480 60.6858
v  2.0345 125.3480 50.5425
v  2.0345 125.3480 40.7866
v  2.0345 200.0000 40.7867
v  2.0345 200.0000 50.5426
v  2.0345 183.3802 -30.3408
v  2.0345 183.4004 -39.4014
v  2.0345 141.5485 -60.3334
v  2.0345 141.3997 -51.2740
v  0.0792 200.0000 -50.5226
v  0.0792 125.3480 -50.5227
v  0.0792 200.0000 -51.6053
v  0.0792 200.0000 -60.6659
v  0.0792 125.3480 -30.6235
v  0.0792 200.0000 -30.6234
v  0.0792 125.3480 -40.7668
v  0.0792 200.0000 -39.6839
v  0.0792 125.3480 -39.6840
v  0.0792 125.3480 -60.6660
v  0.0792 125.3480 -51.6054
v  0.0792 200.0000 -40.7667
v  2.0345 141.4813 -60.8739
v  2.0345 132.4208 -60.8739
v  2.0345 132.4208 -30.5343
v  2.0345 141.4813 -30.5343
v  2.0345 192.7421 -60.8738
v  2.0345 183.6815 -60.8738
v  2.0345 183.6815 -30.5342
v  2.0345 192.7420 -30.5342
v  2.0345 183.3012 39.7201
v  2.0345 183.3184 30.6635
v  2.0345 141.4333 51.5822
v  2.0345 141.4381 60.6388
v  2.0345 132.3499 60.8937
v  2.0345 141.4104 60.8937
v  2.0345 141.4104 30.5541
v  2.0345 132.3499 30.5541
v  2.0345 183.6106 60.8938
v  2.0345 192.6711 60.8938
v  2.0345 192.6712 30.5541
v  2.0345 183.6106 30.5541
v  0.0792 125.3480 50.5425
v  0.0792 200.0000 50.5426
v  0.0792 125.3480 51.6252
v  0.0792 125.3480 60.6858
v  0.0792 200.0000 30.6434
v  0.0792 125.3480 30.6433
v  0.0792 200.0000 40.7867
v  0.0792 125.3480 39.7038
v  0.0792 200.0000 39.7039
v  0.0792 200.0000 60.6859
v  0.0792 200.0000 51.6253
v  0.0792 125.3480 40.7866
# 96 vertices

vn 1.0000 0.0000 -0.0000
vn 0.0000 1.0000 0.0022
vn 0.0000 -0.9999 -0.0164
vn 0.0000 0.5726 -0.8198
vn 0.0000 -0.5715 0.8206
vn 0.0000 0.0000 -1.0000
vn 0.0000 1.0000 -0.0000
vn 0.0000 0.0000 1.0000
vn 0.0000 -1.0000 -0.0000
vn -0.0124 0.9999 0.0019
vn 0.0132 -0.9999 0.0005
vn 0.0131 -0.9999 0.0005
vn 0.0315 -0.5719 -0.8197
vn 0.0314 -0.5719 -0.8197
vn 0.0318 -0.5718 -0.8197
vn -0.0317 0.5721 0.8196
vn -0.0318 0.5721 0.8196
vn -0.0315 0.5721 0.8196
# 18 vertex normals

vt 2.4870 0.9757 0.0000
vt 2.4772 -0.9858 0.0000
vt 2.8182 -1.1509 0.0000
vt 2.8255 0.8057 0.0000
vt 0.3243 2.1098 0.0000
vt 0.3243 -1.0117 0.0000
vt 0.7032 -1.0117 0.0000
vt 0.7032 2.1098 0.0000
vt -1.0219 2.1098 0.0000
vt -1.0219 -1.0117 0.0000
vt -0.6431 -1.0117 0.0000
vt -0.6431 2.1098 0.0000
vt -2.0739 2.1098 0.0000
vt -2.4819 2.1098 0.0000
vt -2.4819 -1.0117 0.0000
vt -2.0739 -1.0117 0.0000
vt 3.5619 0.7551 0.0000
vt 3.5619 2.0238 0.0000
vt 3.1831 2.0238 0.0000
vt 3.1831 0.7551 0.0000
vt 2.1090 1.4029 0.0000
vt 2.1090 2.6716 0.0000
vt 1.7301 2.6716 0.0000
vt 1.7301 1.4029 0.0000
vt 1.7820 0.8325 0.0000
vt 1.7858 -1.1242 0.0000
vt 2.1243 -0.9545 0.0000
vt 2.1201 1.0031 0.0000
vt 2.4459 2.7019 0.0000
vt 2.4459 1.4332 0.0000
vt 2.8248 1.4332 0.0000
vt 2.8248 2.7019 0.0000
vt 3.1646 0.1438 0.0000
vt 3.1646 -1.1249 0.0000
vt 3.5435 -1.1249 0.0000
vt 3.5435 0.1438 0.0000
vt 0.0267 -1.0117 0.0000
vt 0.0267 2.1098 0.0000
vt -0.3522 2.1098 0.0000
vt -0.3522 -1.0117 0.0000
vt 1.4023 -1.0118 0.0000
vt 1.4023 2.1098 0.0000
vt 1.0234 2.1098 0.0000
vt 1.0234 -1.0118 0.0000
vt -1.7461 -1.0117 0.0000
vt -1.3381 -1.0117 0.0000
vt -1.3381 2.1098 0.0000
vt -1.7461 2.1098 0.0000
vt 2.5236 1.0488 0.0000
vt 2.8622 0.8788 0.0000
vt 2.7825 -1.2245 0.0000
vt 2.4415 -1.0593 0.0000
vt 2.9073 0.8054 0.0000
vt 2.8999 -1.1513 0.0000
vt 2.3954 -0.9854 0.0000
vt 2.4052 0.9761 0.0000
vt -1.9922 2.1098 0.0000
vt -1.9922 -1.0117 0.0000
vt -1.0219 2.1916 0.0000
vt -0.6431 2.1916 0.0000
vt 0.2426 -1.0117 0.0000
vt 0.2426 2.1098 0.0000
vt -2.0739 -1.0935 0.0000
vt -2.4819 -1.0935 0.0000
vt 0.7849 2.1098 0.0000
vt 0.7849 -1.0117 0.0000
vt -0.6431 -1.0935 0.0000
vt -1.0219 -1.0935 0.0000
vt -0.5613 2.1098 0.0000
vt -0.5613 -1.0117 0.0000
vt 0.3243 2.1916 0.0000
vt 0.7032 2.1916 0.0000
vt -2.5636 -1.0117 0.0000
vt -2.5636 2.1098 0.0000
vt -1.1037 -1.0117 0.0000
vt -1.1037 2.1098 0.0000
vt 0.7032 -1.0935 0.0000
vt 0.3243 -1.0935 0.0000
vt -2.4819 2.1916 0.0000
vt -2.0739 2.1916 0.0000
vt 3.5619 0.6734 0.0000
vt 3.1831 0.6734 0.0000
vt 3.1831 2.1055 0.0000
vt 3.5619 2.1055 0.0000
vt 3.1013 0.7551 0.0000
vt 3.1013 2.0238 0.0000
vt 3.6437 2.0238 0.0000
vt 3.6437 0.7551 0.0000
vt 2.1090 1.3212 0.0000
vt 1.7301 1.3212 0.0000
vt 1.7301 2.7533 0.0000
vt 2.1090 2.7533 0.0000
vt 1.6484 1.4029 0.0000
vt 1.6484 2.6716 0.0000
vt 2.1907 2.6716 0.0000
vt 2.1907 1.4029 0.0000
vt 1.7473 0.9066 0.0000
vt 2.0854 1.0772 0.0000
vt 2.1631 -1.0265 0.0000
vt 1.8246 -1.1962 0.0000
vt 2.2019 1.0035 0.0000
vt 2.2061 -0.9542 0.0000
vt 1.7040 -1.1243 0.0000
vt 1.7002 0.8326 0.0000
vt 2.4459 2.7836 0.0000
vt 2.8248 2.7836 0.0000
vt 2.8248 1.3515 0.0000
vt 2.4459 1.3515 0.0000
vt 2.9065 2.7019 0.0000
vt 2.9065 1.4332 0.0000
vt 2.3642 1.4332 0.0000
vt 2.3642 2.7019 0.0000
vt 3.1646 0.2255 0.0000
vt 3.5435 0.2255 0.0000
vt 3.5435 -1.2066 0.0000
vt 3.1646 -1.2066 0.0000
vt 3.6252 0.1438 0.0000
vt 3.6252 -1.1249 0.0000
vt 3.0829 -1.1249 0.0000
vt 3.0829 0.1438 0.0000
vt -1.8278 -1.0117 0.0000
vt -1.8278 2.1098 0.0000
vt 1.4023 -1.0935 0.0000
vt 1.0234 -1.0935 0.0000
vt 0.1084 2.1098 0.0000
vt 0.1084 -1.0117 0.0000
vt -1.7461 2.1916 0.0000
vt -1.3381 2.1916 0.0000
vt -0.4339 -1.0117 0.0000
vt -0.4339 2.1098 0.0000
vt 1.0234 2.1915 0.0000
vt 1.4023 2.1915 0.0000
vt 0.9417 -1.0118 0.0000
vt 0.9417 2.1098 0.0000
vt 0.0267 -1.0935 0.0000
vt -0.3522 -1.0935 0.0000
vt -1.2564 2.1098 0.0000
vt -1.2564 -1.0117 0.0000
vt 1.4840 2.1098 0.0000
vt 1.4840 -1.0118 0.0000
vt -0.3522 2.1916 0.0000
vt 0.0267 2.1916 0.0000
vt -1.3381 -1.0935 0.0000
vt -1.7461 -1.0935 0.0000
# 144 texture coords

g Shutters004
usemtl None_wood_white_jpg
s 1
f 1/1/1 2/2/1 3/3/1 4/4/1 
f 5/5/1 6/6/1 7/7/1 8/8/1 
f 9/9/1 10/10/1 11/11/1 12/12/1 
f 13/13/1 14/14/1 15/15/1 16/16/1 
f 17/17/1 18/18/1 19/19/1 20/20/1 
f 21/21/1 22/22/1 23/23/1 24/24/1 
f 25/25/1 26/26/1 27/27/1 28/28/1 
f 29/29/1 30/30/1 31/31/1 32/32/1 
f 33/33/1 34/34/1 35/35/1 36/36/1 
f 37/37/1 38/38/1 39/39/1 40/40/1 
f 41/41/1 42/42/1 43/43/1 44/44/1 
f 45/45/1 46/46/1 47/47/1 48/48/1 
s 2
f 49/49/2 1/1/2 4/4/2 50/50/2 
f 51/51/3 3/3/3 2/2/3 52/52/3 
s 4
f 50/53/4 4/4/4 3/3/4 51/54/4 
f 52/55/5 2/2/5 1/1/5 49/56/5 
s 2
f 53/57/6 13/13/6 16/16/6 54/58/6 
f 55/59/7 9/9/7 12/12/7 56/60/7 
f 57/61/8 6/6/8 5/5/8 58/62/8 
s 4
f 54/63/9 16/16/9 15/15/9 59/64/9 
s 2
f 60/65/6 8/8/6 7/7/6 61/66/6 
f 62/67/9 11/11/9 10/10/9 63/68/9 
s 4
f 56/69/6 12/12/6 11/11/6 62/70/6 
f 58/71/7 5/5/7 8/8/7 60/72/7 
s 2
f 59/73/8 15/15/8 14/14/8 64/74/8 
s 4
f 63/75/8 10/10/8 9/9/8 55/76/8 
f 61/77/9 7/7/9 6/6/9 57/78/9 
f 64/79/7 14/14/7 13/13/7 53/80/7 
s 2
f 65/81/6 17/17/6 20/20/6 66/82/6 
f 67/83/8 19/19/8 18/18/8 68/84/8 
s 4
f 66/85/9 20/20/9 19/19/9 67/86/9 
f 68/87/7 18/18/7 17/17/7 65/88/7 
s 2
f 69/89/6 21/21/6 24/24/6 70/90/6 
f 71/91/8 23/23/8 22/22/8 72/92/8 
s 4
f 70/93/9 24/24/9 23/23/9 71/94/9 
f 72/95/7 22/22/7 21/21/7 69/96/7 
s 2
f 73/97/10 25/25/10 28/28/10 74/98/10 
f 75/99/11 27/27/11 26/26/12 76/100/12 
s 4
f 74/101/13 28/28/14 27/27/15 75/102/15 
f 76/103/16 26/26/17 25/25/18 73/104/18 
s 2
f 77/105/8 29/29/8 32/32/8 78/106/8 
f 79/107/6 31/31/6 30/30/6 80/108/6 
s 4
f 78/109/7 32/32/7 31/31/7 79/110/7 
f 80/111/9 30/30/9 29/29/9 77/112/9 
s 2
f 81/113/8 33/33/8 36/36/8 82/114/8 
f 83/115/6 35/35/6 34/34/6 84/116/6 
s 4
f 82/117/7 36/36/7 35/35/7 83/118/7 
f 84/119/9 34/34/9 33/33/9 81/120/9 
s 2
f 85/121/8 45/45/8 48/48/8 86/122/8 
f 87/123/9 41/41/9 44/44/9 88/124/9 
f 89/125/6 38/38/6 37/37/6 90/126/6 
s 4
f 86/127/7 48/48/7 47/47/7 91/128/7 
s 2
f 92/129/8 40/40/8 39/39/8 93/130/8 
f 94/131/7 43/43/7 42/42/7 95/132/7 
s 4
f 88/133/8 44/44/8 43/43/8 94/134/8 
f 90/135/9 37/37/9 40/40/9 92/136/9 
s 2
f 91/137/6 47/47/6 46/46/6 96/138/6 
s 4
f 95/139/6 42/42/6 41/41/6 87/140/6 
f 93/141/7 39/39/7 38/38/7 89/142/7 
f 96/143/9 46/46/9 45/45/9 85/144/9 
# 60 polygons

