# 3ds Max Wavefront OBJ Exporter v0.97b - (c)2007 guruware
# File Created: 11.09.2018 16:33:57

mtllib Shutters_for_36x60_Vinyl_double_pane_windows.mtl

#
# object Shutters006
#

v  3.9709 50.1054 80.9195
v  3.9709 183.3425 45.9617
v  3.9709 183.3253 56.5183
v  3.9709 50.1101 91.4762
v  3.9709 50.0567 45.7941
v  3.9709 50.0567 91.6733
v  3.9709 40.9961 91.6733
v  3.9709 40.9962 45.7941
v  3.9709 192.6712 45.7941
v  3.9709 192.6711 91.6733
v  3.9709 183.6105 91.6733
v  3.9709 183.6106 45.7941
v  2.0012 200.0001 56.4439
v  2.0012 33.9080 56.4438
v  2.0012 33.9080 45.8833
v  2.0012 200.0001 45.8834
v  2.0012 200.0000 79.9259
v  2.0012 33.9080 79.9258
v  2.0012 33.9080 69.3652
v  2.0012 200.0000 69.3653
v  2.0012 200.0001 57.5267
v  2.0012 200.0000 68.2826
v  2.0012 33.9080 68.2825
v  2.0012 33.9080 57.5266
v  2.0012 183.3184 45.9035
v  2.0012 183.3012 56.4601
v  2.0012 50.0843 91.4184
v  2.0012 50.0796 80.8617
v  2.0012 50.0567 91.6733
v  2.0012 40.9961 91.6733
v  2.0012 40.9962 45.7941
v  2.0012 50.0567 45.7941
v  2.0012 192.6711 91.6733
v  2.0012 183.6105 91.6733
v  2.0012 183.6106 45.7941
v  2.0012 192.6712 45.7941
v  0.0314 200.0000 68.2826
v  0.0314 33.9080 68.2825
v  0.0314 33.9080 79.9258
v  0.0314 33.9080 69.3652
v  0.0314 33.9080 45.8833
v  0.0314 200.0001 45.8834
v  0.0314 200.0001 57.5267
v  0.0314 200.0001 56.4439
v  0.0314 33.9080 56.4438
v  0.0314 200.0000 69.3653
v  0.0314 200.0000 79.9259
v  0.0314 33.9080 57.5266
v  2.0012 200.0000 91.5020
v  2.0012 33.9080 91.5019
v  2.0012 33.9080 80.9413
v  2.0012 200.0000 80.9414
v  0.0314 33.9080 91.5019
v  0.0314 33.9080 80.9413
v  0.0314 200.0000 80.9414
v  0.0314 200.0000 91.5020
v  3.9709 50.1054 -80.9195
v  3.9709 50.1101 -91.4762
v  3.9709 183.3253 -56.5183
v  3.9709 183.3425 -45.9617
v  3.9709 50.0567 -45.7941
v  3.9709 40.9962 -45.7941
v  3.9709 40.9961 -91.6733
v  3.9709 50.0567 -91.6733
v  3.9709 192.6712 -45.7941
v  3.9709 183.6106 -45.7941
v  3.9709 183.6105 -91.6733
v  3.9709 192.6711 -91.6733
v  2.0012 200.0001 -56.4439
v  2.0012 200.0001 -45.8834
v  2.0012 33.9080 -45.8833
v  2.0012 33.9080 -56.4438
v  2.0012 200.0000 -79.9259
v  2.0012 200.0000 -69.3653
v  2.0012 33.9080 -69.3652
v  2.0012 33.9080 -79.9258
v  2.0012 200.0001 -57.5267
v  2.0012 33.9080 -57.5266
v  2.0012 33.9080 -68.2825
v  2.0012 200.0000 -68.2826
v  2.0012 183.3012 -56.4601
v  2.0012 183.3184 -45.9035
v  2.0012 50.0796 -80.8617
v  2.0012 50.0843 -91.4184
v  2.0012 40.9961 -91.6733
v  2.0012 50.0567 -91.6733
v  2.0012 50.0567 -45.7941
v  2.0012 40.9962 -45.7941
v  2.0012 183.6105 -91.6733
v  2.0012 192.6711 -91.6733
v  2.0012 192.6712 -45.7941
v  2.0012 183.6106 -45.7941
v  0.0314 33.9080 -68.2825
v  0.0314 200.0000 -68.2826
v  0.0314 33.9080 -69.3652
v  0.0314 33.9080 -79.9258
v  0.0314 200.0001 -45.8834
v  0.0314 33.9080 -45.8833
v  0.0314 200.0001 -57.5267
v  0.0314 33.9080 -56.4438
v  0.0314 200.0001 -56.4439
v  0.0314 200.0000 -79.9259
v  0.0314 200.0000 -69.3653
v  0.0314 33.9080 -57.5266
v  2.0012 200.0000 -91.5020
v  2.0012 200.0000 -80.9414
v  2.0012 33.9080 -80.9413
v  2.0012 33.9080 -91.5019
v  0.0314 33.9080 -80.9413
v  0.0314 33.9080 -91.5019
v  0.0314 200.0000 -91.5020
v  0.0314 200.0000 -80.9414
# 112 vertices

vn 1.0000 0.0000 -0.0000
vn -0.0123 0.9999 0.0016
vn 0.0131 -0.9999 0.0004
vn 0.0321 -0.3878 -0.9212
vn 0.0320 -0.3878 -0.9212
vn -0.0320 0.3879 0.9212
vn -0.0321 0.3879 0.9212
vn 0.0000 0.0000 1.0000
vn 0.0000 0.0000 -1.0000
vn 0.0000 1.0000 -0.0000
vn 0.0000 -1.0000 -0.0000
vn -0.0123 0.9999 -0.0016
vn 0.0131 -0.9999 -0.0004
vn 0.0321 -0.3878 0.9212
vn 0.0320 -0.3878 0.9212
vn -0.0320 0.3879 -0.9212
vn -0.0321 0.3879 -0.9212
# 17 vertex normals

vt 3.6815 -1.9988 0.0000
vt 3.7055 2.0668 0.0000
vt 3.4038 1.9891 0.0000
vt 3.3796 -2.0759 0.0000
vt 2.1152 0.9154 0.0000
vt 2.1153 2.2695 0.0000
vt 1.8478 2.2695 0.0000
vt 1.8478 0.9154 0.0000
vt 2.1110 -0.9137 0.0000
vt 2.1110 0.4404 0.0000
vt 1.8436 0.4404 0.0000
vt 1.8436 -0.9137 0.0000
vt -1.3314 2.5725 0.0000
vt -1.3314 -2.3299 0.0000
vt -1.0197 -2.3299 0.0000
vt -1.0197 2.5725 0.0000
vt 1.2946 2.5725 0.0000
vt 1.2946 -2.3299 0.0000
vt 1.6063 -2.3299 0.0000
vt 1.6063 2.5725 0.0000
vt -2.0564 2.5725 0.0000
vt -2.3738 2.5725 0.0000
vt -2.3738 -2.3299 0.0000
vt -2.0564 -2.3299 0.0000
vt 3.6926 2.1236 0.0000
vt 3.3909 2.0458 0.0000
vt 3.3956 -2.1318 0.0000
vt 3.6975 -2.0547 0.0000
vt 3.7396 -1.9994 0.0000
vt 3.7637 2.0662 0.0000
vt 3.3456 1.9891 0.0000
vt 3.3214 -2.0759 0.0000
vt 2.1153 2.3277 0.0000
vt 1.8478 2.3277 0.0000
vt 1.8478 0.8572 0.0000
vt 2.1152 0.8572 0.0000
vt 2.1734 0.9154 0.0000
vt 2.1734 2.2695 0.0000
vt 1.7897 2.2695 0.0000
vt 1.7897 0.9154 0.0000
vt 2.1110 0.4986 0.0000
vt 1.8436 0.4986 0.0000
vt 1.8436 -0.9719 0.0000
vt 2.1110 -0.9719 0.0000
vt 2.1692 -0.9137 0.0000
vt 2.1692 0.4404 0.0000
vt 1.7855 0.4404 0.0000
vt 1.7855 -0.9137 0.0000
vt -2.4320 2.5725 0.0000
vt -2.4320 -2.3299 0.0000
vt 1.2946 -2.3880 0.0000
vt 1.6063 -2.3880 0.0000
vt -0.9616 -2.3299 0.0000
vt -0.9616 2.5725 0.0000
vt -2.0564 2.6306 0.0000
vt -2.3738 2.6306 0.0000
vt -1.3895 2.5725 0.0000
vt -1.3895 -2.3299 0.0000
vt 1.6063 2.6306 0.0000
vt 1.2946 2.6306 0.0000
vt 1.2365 2.5725 0.0000
vt 1.2365 -2.3299 0.0000
vt -1.3314 -2.3880 0.0000
vt -1.0197 -2.3880 0.0000
vt -1.9982 -2.3299 0.0000
vt -1.9982 2.5725 0.0000
vt 1.6644 -2.3299 0.0000
vt 1.6644 2.5725 0.0000
vt -1.0197 2.6306 0.0000
vt -1.3314 2.6306 0.0000
vt -2.3738 -2.3880 0.0000
vt -2.0564 -2.3880 0.0000
vt -0.2872 2.5725 0.0000
vt -0.2872 -2.3299 0.0000
vt 0.0245 -2.3299 0.0000
vt 0.0245 2.5725 0.0000
vt -0.2872 -2.3880 0.0000
vt 0.0245 -2.3880 0.0000
vt 0.0245 2.6306 0.0000
vt -0.2872 2.6306 0.0000
vt -0.3453 2.5725 0.0000
vt -0.3453 -2.3299 0.0000
vt 0.0826 -2.3299 0.0000
vt 0.0826 2.5725 0.0000
vt 2.8551 -1.9651 0.0000
vt 3.1566 -2.0436 0.0000
vt 3.1505 2.0214 0.0000
vt 2.8491 2.1006 0.0000
vt 2.3184 0.9046 0.0000
vt 2.5858 0.9046 0.0000
vt 2.5858 2.2588 0.0000
vt 2.3184 2.2588 0.0000
vt 2.3506 -0.9302 0.0000
vt 2.6180 -0.9302 0.0000
vt 2.6180 0.4239 0.0000
vt 2.3506 0.4239 0.0000
vt -0.4917 2.5725 0.0000
vt -0.8034 2.5725 0.0000
vt -0.8034 -2.3299 0.0000
vt -0.4917 -2.3299 0.0000
vt 1.0705 2.5725 0.0000
vt 0.7588 2.5725 0.0000
vt 0.7588 -2.3299 0.0000
vt 1.0705 -2.3299 0.0000
vt -1.8551 2.5725 0.0000
vt -1.8551 -2.3299 0.0000
vt -1.5377 -2.3299 0.0000
vt -1.5377 2.5725 0.0000
vt 3.1636 2.0781 0.0000
vt 2.8622 2.1572 0.0000
vt 2.8388 -2.0210 0.0000
vt 3.1403 -2.0995 0.0000
vt 2.7909 2.1002 0.0000
vt 2.7969 -1.9655 0.0000
vt 3.2148 -2.0438 0.0000
vt 3.2086 2.0213 0.0000
vt 2.5858 2.3169 0.0000
vt 2.3184 2.3169 0.0000
vt 2.3184 0.8465 0.0000
vt 2.5858 0.8465 0.0000
vt 2.2602 2.2588 0.0000
vt 2.2602 0.9046 0.0000
vt 2.6439 0.9046 0.0000
vt 2.6439 2.2588 0.0000
vt 2.6180 0.4821 0.0000
vt 2.3506 0.4821 0.0000
vt 2.3506 -0.9884 0.0000
vt 2.6180 -0.9884 0.0000
vt 2.2924 0.4239 0.0000
vt 2.2924 -0.9302 0.0000
vt 2.6761 -0.9302 0.0000
vt 2.6761 0.4239 0.0000
vt -1.4795 -2.3299 0.0000
vt -1.4795 2.5725 0.0000
vt 0.7588 -2.3880 0.0000
vt 1.0705 -2.3880 0.0000
vt -0.8615 2.5725 0.0000
vt -0.8615 -2.3299 0.0000
vt -1.5377 2.6306 0.0000
vt -1.8551 2.6306 0.0000
vt -0.4336 -2.3299 0.0000
vt -0.4336 2.5725 0.0000
vt 1.0705 2.6306 0.0000
vt 0.7588 2.6306 0.0000
vt 1.1286 -2.3299 0.0000
vt 1.1286 2.5725 0.0000
vt -0.8034 -2.3880 0.0000
vt -0.4917 -2.3880 0.0000
vt -1.9133 2.5725 0.0000
vt -1.9133 -2.3299 0.0000
vt 0.7007 2.5725 0.0000
vt 0.7007 -2.3299 0.0000
vt -0.4917 2.6306 0.0000
vt -0.8034 2.6306 0.0000
vt -1.8551 -2.3880 0.0000
vt -1.5377 -2.3880 0.0000
vt 0.5453 2.5725 0.0000
vt 0.2336 2.5725 0.0000
vt 0.2336 -2.3299 0.0000
vt 0.5453 -2.3299 0.0000
vt 0.2336 -2.3880 0.0000
vt 0.5453 -2.3880 0.0000
vt 0.5453 2.6306 0.0000
vt 0.2336 2.6306 0.0000
vt 0.6034 -2.3299 0.0000
vt 0.6034 2.5725 0.0000
vt 0.1755 2.5725 0.0000
vt 0.1755 -2.3299 0.0000
# 168 texture coords

g Shutters006
usemtl None_wood_white_jpg
s 1
f 1/1/1 2/2/1 3/3/1 4/4/1 
f 5/5/1 6/6/1 7/7/1 8/8/1 
f 9/9/1 10/10/1 11/11/1 12/12/1 
f 13/13/1 14/14/1 15/15/1 16/16/1 
f 17/17/1 18/18/1 19/19/1 20/20/1 
f 21/21/1 22/22/1 23/23/1 24/24/1 
f 2/2/2 25/25/2 26/26/2 3/3/2 
f 4/4/3 27/27/3 28/28/3 1/1/3 
f 1/1/4 28/29/4 25/30/5 2/2/5 
f 3/3/6 26/31/6 27/32/7 4/4/7 
f 6/6/8 29/33/8 30/34/8 7/7/8 
f 8/8/9 31/35/9 32/36/9 5/5/9 
f 5/5/10 32/37/10 29/38/10 6/6/10 
f 7/7/11 30/39/11 31/40/11 8/8/11 
f 10/10/8 33/41/8 34/42/8 11/11/8 
f 12/12/9 35/43/9 36/44/9 9/9/9 
f 9/9/10 36/45/10 33/46/10 10/10/10 
f 11/11/11 34/47/11 35/48/11 12/12/11 
f 22/22/8 37/49/8 38/50/8 23/23/8 
f 18/18/11 39/51/11 40/52/11 19/19/11 
f 15/15/9 41/53/9 42/54/9 16/16/9 
f 21/21/10 43/55/10 37/56/10 22/22/10 
f 13/13/8 44/57/8 45/58/8 14/14/8 
f 20/20/10 46/59/10 47/60/10 17/17/10 
f 17/17/8 47/61/8 39/62/8 18/18/8 
f 14/14/11 45/63/11 41/64/11 15/15/11 
f 24/24/9 48/65/9 43/66/9 21/21/9 
f 19/19/9 40/67/9 46/68/9 20/20/9 
f 16/16/10 42/69/10 44/70/10 13/13/10 
f 23/23/11 38/71/11 48/72/11 24/24/11 
f 49/73/1 50/74/1 51/75/1 52/76/1 
f 50/74/11 53/77/11 54/78/11 51/75/11 
f 52/76/10 55/79/10 56/80/10 49/73/10 
f 49/73/8 56/81/8 53/82/8 50/74/8 
f 51/75/9 54/83/9 55/84/9 52/76/9 
f 57/85/1 58/86/1 59/87/1 60/88/1 
f 61/89/1 62/90/1 63/91/1 64/92/1 
f 65/93/1 66/94/1 67/95/1 68/96/1 
f 69/97/1 70/98/1 71/99/1 72/100/1 
f 73/101/1 74/102/1 75/103/1 76/104/1 
f 77/105/1 78/106/1 79/107/1 80/108/1 
f 60/88/12 59/87/12 81/109/12 82/110/12 
f 58/86/13 57/85/13 83/111/13 84/112/13 
f 57/85/14 60/88/15 82/113/15 83/114/14 
f 59/87/16 58/86/17 84/115/17 81/116/16 
f 64/92/9 63/91/9 85/117/9 86/118/9 
f 62/90/8 61/89/8 87/119/8 88/120/8 
f 61/89/10 64/92/10 86/121/10 87/122/10 
f 63/91/11 62/90/11 88/123/11 85/124/11 
f 68/96/9 67/95/9 89/125/9 90/126/9 
f 66/94/8 65/93/8 91/127/8 92/128/8 
f 65/93/10 68/96/10 90/129/10 91/130/10 
f 67/95/11 66/94/11 92/131/11 89/132/11 
f 80/108/9 79/107/9 93/133/9 94/134/9 
f 76/104/11 75/103/11 95/135/11 96/136/11 
f 71/99/8 70/98/8 97/137/8 98/138/8 
f 77/105/10 80/108/10 94/139/10 99/140/10 
f 69/97/9 72/100/9 100/141/9 101/142/9 
f 74/102/10 73/101/10 102/143/10 103/144/10 
f 73/101/9 76/104/9 96/145/9 102/146/9 
f 72/100/11 71/99/11 98/147/11 100/148/11 
f 78/106/8 77/105/8 99/149/8 104/150/8 
f 75/103/8 74/102/8 103/151/8 95/152/8 
f 70/98/10 69/97/10 101/153/10 97/154/10 
f 79/107/11 78/106/11 104/155/11 93/156/11 
f 105/157/1 106/158/1 107/159/1 108/160/1 
f 108/160/11 107/159/11 109/161/11 110/162/11 
f 106/158/10 105/157/10 111/163/10 112/164/10 
f 105/157/9 108/160/9 110/165/9 111/166/9 
f 107/159/8 106/158/8 112/167/8 109/168/8 
# 70 polygons

