# 3ds Max Wavefront OBJ Exporter v0.97b - (c)2007 guruware
# File Created: 15.08.2018 22:26:23

mtllib Shutters_for_14x21_Aluminum_single_pane_Window.mtl

#
# object Shutters
#

v  3.9709 184.0253 27.0350
v  3.9709 148.4975 36.8903
v  3.9709 148.4927 28.3337
v  3.9709 184.0425 18.1784
v  3.9709 140.0835 36.8881
v  3.9709 140.0835 18.0108
v  3.9709 148.4441 18.0108
v  3.9709 148.4440 36.8881
v  3.9709 184.3105 36.8882
v  3.9709 184.3106 18.0108
v  3.9709 192.6712 18.0108
v  3.9709 192.6711 36.8882
v  2.0003 132.9678 18.1000
v  2.0003 200.0001 18.1001
v  2.0003 200.0000 26.9606
v  2.0003 132.9678 26.9605
v  2.0003 132.9678 28.3189
v  2.0003 200.0000 28.3190
v  2.0003 200.0000 36.8796
v  2.0003 132.9678 36.8795
v  2.0023 184.0012 26.9768
v  2.0023 184.0184 18.1202
v  2.0023 148.4670 28.2759
v  2.0023 148.4717 36.8325
v  2.0023 140.0835 36.8881
v  2.0023 148.4440 36.8881
v  2.0023 148.4441 18.0108
v  2.0023 140.0835 18.0108
v  2.0023 184.3105 36.8882
v  2.0023 192.6711 36.8882
v  2.0023 192.6712 18.0108
v  2.0023 184.3106 18.0108
v  0.0314 132.9678 28.3189
v  0.0314 132.9678 36.8795
v  0.0314 200.0001 18.1001
v  0.0314 132.9678 18.1000
v  0.0314 132.9678 26.9605
v  0.0314 200.0000 26.9606
v  0.0314 200.0000 36.8796
v  0.0314 200.0000 28.3190
v  3.9709 184.0253 -27.0350
v  3.9709 184.0425 -18.1784
v  3.9709 148.4927 -28.3337
v  3.9709 148.4975 -36.8903
v  3.9709 140.0835 -36.8845
v  3.9709 148.4440 -36.8845
v  3.9709 148.4441 -18.0108
v  3.9709 140.0835 -18.0108
v  3.9709 184.3105 -36.8846
v  3.9709 192.6711 -36.8846
v  3.9709 192.6712 -18.0108
v  3.9709 184.3106 -18.0108
v  2.0003 132.9678 -18.1000
v  2.0003 132.9678 -26.9605
v  2.0003 200.0000 -26.9606
v  2.0003 200.0001 -18.1001
v  2.0003 132.9678 -28.3189
v  2.0003 132.9678 -36.8795
v  2.0003 200.0000 -36.8796
v  2.0003 200.0000 -28.3190
v  2.0023 184.0012 -26.9768
v  2.0023 184.0184 -18.1202
v  2.0023 148.4670 -28.2759
v  2.0023 148.4717 -36.8325
v  2.0023 140.0835 -36.8845
v  2.0023 148.4440 -36.8845
v  2.0023 148.4441 -18.0108
v  2.0023 140.0835 -18.0108
v  2.0023 184.3105 -36.8846
v  2.0023 192.6711 -36.8846
v  2.0023 192.6712 -18.0108
v  2.0023 184.3106 -18.0108
v  0.0314 132.9678 -28.3189
v  0.0314 132.9678 -36.8795
v  0.0314 200.0001 -18.1001
v  0.0314 132.9678 -18.1000
v  0.0314 132.9678 -26.9605
v  0.0314 200.0000 -26.9606
v  0.0314 200.0000 -36.8796
v  0.0314 200.0000 -28.3190
# 80 vertices

vn 1.0000 0.0000 -0.0000
vn -0.0123 0.9999 0.0019
vn 0.0131 -0.9999 0.0006
vn 0.0130 -0.9999 0.0006
vn 0.0131 -0.9999 0.0005
vn 0.0319 -0.4605 -0.8871
vn 0.0321 -0.4605 -0.8871
vn -0.0321 0.4548 0.8900
vn -0.0319 0.4548 0.8900
vn 0.0000 0.0000 1.0000
vn 0.0000 0.0000 -1.0000
vn 0.0000 1.0000 -0.0000
vn 0.0000 -1.0000 -0.0000
vn -0.0123 0.9999 -0.0019
vn 0.0131 -0.9999 -0.0006
vn 0.0131 -0.9999 -0.0005
vn 0.0130 -0.9999 -0.0006
vn 0.0319 -0.4605 0.8871
vn 0.0321 -0.4605 0.8871
vn -0.0321 0.4548 -0.8900
vn -0.0319 0.4548 -0.8900
# 21 vertex normals

vt 2.2354 0.5193 0.0000
vt 2.2494 -1.8545 0.0000
vt 2.7795 -1.7044 0.0000
vt 2.7836 0.6760 0.0000
vt 2.2670 2.5247 0.0000
vt 2.2670 1.3093 0.0000
vt 2.8053 1.3093 0.0000
vt 2.8053 2.5247 0.0000
vt 3.3151 1.7851 0.0000
vt 3.3151 0.5696 0.0000
vt 3.8534 0.5696 0.0000
vt 3.8534 1.7851 0.0000
vt -2.2483 -1.5425 0.0000
vt -2.2483 2.7734 0.0000
vt -2.8188 2.7734 0.0000
vt -2.8187 -1.5425 0.0000
vt -0.1765 -1.5576 0.0000
vt -0.1765 2.7582 0.0000
vt -0.7277 2.7582 0.0000
vt -0.7277 -1.5576 0.0000
vt 2.2041 0.6422 0.0000
vt 2.7524 0.7989 0.0000
vt 2.8176 -1.8254 0.0000
vt 2.2875 -1.9755 0.0000
vt 2.9104 0.6753 0.0000
vt 2.9063 -1.7052 0.0000
vt 2.1226 -1.8559 0.0000
vt 2.1086 0.5180 0.0000
vt 2.2670 2.6515 0.0000
vt 2.8053 2.6515 0.0000
vt 2.8053 1.1825 0.0000
vt 2.2670 1.1825 0.0000
vt 2.9320 2.5247 0.0000
vt 2.9320 1.3093 0.0000
vt 2.1402 1.3093 0.0000
vt 2.1402 2.5247 0.0000
vt 3.3151 1.9118 0.0000
vt 3.8534 1.9118 0.0000
vt 3.8534 0.4429 0.0000
vt 3.3151 0.4429 0.0000
vt 3.9801 1.7851 0.0000
vt 3.9801 0.5696 0.0000
vt 3.1883 0.5696 0.0000
vt 3.1883 1.7851 0.0000
vt -0.1765 -1.6844 0.0000
vt -0.7277 -1.6844 0.0000
vt -2.1215 2.7734 0.0000
vt -2.1215 -1.5425 0.0000
vt -2.9455 -1.5425 0.0000
vt -2.9455 2.7734 0.0000
vt -0.7277 2.8850 0.0000
vt -0.1765 2.8850 0.0000
vt -0.8545 -1.5577 0.0000
vt -0.8545 2.7582 0.0000
vt -2.2483 -1.6693 0.0000
vt -2.8187 -1.6693 0.0000
vt -0.0498 2.7582 0.0000
vt -0.0498 -1.5576 0.0000
vt -2.8188 2.9002 0.0000
vt -2.2483 2.9002 0.0000
vt 1.8215 0.5244 0.0000
vt 1.2703 0.6704 0.0000
vt 1.3206 -1.7095 0.0000
vt 1.8535 -1.8492 0.0000
vt 1.9019 2.5120 0.0000
vt 1.3636 2.5120 0.0000
vt 1.3636 1.2969 0.0000
vt 1.9019 1.2969 0.0000
vt 3.8534 -0.3143 0.0000
vt 3.3151 -0.3143 0.0000
vt 3.3151 -1.5294 0.0000
vt 3.8534 -1.5294 0.0000
vt -1.2547 2.8001 0.0000
vt -1.8252 2.8001 0.0000
vt -1.8252 -1.5157 0.0000
vt -1.2548 -1.5158 0.0000
vt 0.2793 -1.5711 0.0000
vt 0.8305 -1.5711 0.0000
vt 0.8305 2.7448 0.0000
vt 0.2793 2.7448 0.0000
vt 1.8503 0.6479 0.0000
vt 1.2991 0.7939 0.0000
vt 1.2849 -1.8311 0.0000
vt 1.8178 -1.9709 0.0000
vt 1.1435 0.6673 0.0000
vt 1.1939 -1.7127 0.0000
vt 1.9803 -1.8481 0.0000
vt 1.9483 0.5256 0.0000
vt 1.9019 2.6388 0.0000
vt 1.3636 2.6388 0.0000
vt 1.3636 1.1701 0.0000
vt 1.9019 1.1701 0.0000
vt 1.2369 2.5120 0.0000
vt 1.2369 1.2969 0.0000
vt 2.0287 1.2969 0.0000
vt 2.0287 2.5120 0.0000
vt 3.8534 -0.1875 0.0000
vt 3.3151 -0.1875 0.0000
vt 3.3151 -1.6562 0.0000
vt 3.8534 -1.6562 0.0000
vt 3.1884 -0.3143 0.0000
vt 3.1884 -1.5294 0.0000
vt 3.9802 -1.5294 0.0000
vt 3.9802 -0.3143 0.0000
vt 0.2793 -1.6979 0.0000
vt 0.8305 -1.6979 0.0000
vt -1.1280 -1.5158 0.0000
vt -1.1280 2.8001 0.0000
vt -1.9520 2.8001 0.0000
vt -1.9520 -1.5157 0.0000
vt 0.8305 2.8716 0.0000
vt 0.2793 2.8716 0.0000
vt 0.9573 -1.5711 0.0000
vt 0.9573 2.7448 0.0000
vt -1.2547 2.9269 0.0000
vt -1.8252 2.9269 0.0000
vt 0.1526 2.7448 0.0000
vt 0.1526 -1.5711 0.0000
vt -1.8252 -1.6425 0.0000
vt -1.2548 -1.6425 0.0000
# 120 texture coords

g Shutters
usemtl None_wood_white_jpg
s 1
f 1/1/1 2/2/1 3/3/1 4/4/1 
f 5/5/1 6/6/1 7/7/1 8/8/1 
f 9/9/1 10/10/1 11/11/1 12/12/1 
f 13/13/1 14/14/1 15/15/1 16/16/1 
f 17/17/1 18/18/1 19/19/1 20/20/1 
s 2
f 21/21/2 1/1/2 4/4/2 22/22/2 
f 23/23/3 3/3/4 2/2/3 24/24/5 
s 4
f 22/25/6 4/4/6 3/3/7 23/26/7 
f 24/27/8 2/2/8 1/1/9 21/28/9 
s 2
f 25/29/10 5/5/10 8/8/10 26/30/10 
f 27/31/11 7/7/11 6/6/11 28/32/11 
s 4
f 26/33/12 8/8/12 7/7/12 27/34/12 
f 28/35/13 6/6/13 5/5/13 25/36/13 
s 2
f 29/37/10 9/9/10 12/12/10 30/38/10 
f 31/39/11 11/11/11 10/10/11 32/40/11 
s 4
f 30/41/12 12/12/12 11/11/12 31/42/12 
f 32/43/13 10/10/13 9/9/13 29/44/13 
s 2
f 33/45/13 17/17/13 20/20/13 34/46/13 
f 35/47/11 14/14/11 13/13/11 36/48/11 
f 37/49/10 16/16/10 15/15/10 38/50/10 
f 39/51/12 19/19/12 18/18/12 40/52/12 
s 4
f 34/53/10 20/20/10 19/19/10 39/54/10 
f 36/55/13 13/13/13 16/16/13 37/56/13 
f 40/57/11 18/18/11 17/17/11 33/58/11 
f 38/59/12 15/15/12 14/14/12 35/60/12 
s 1
f 41/61/1 42/62/1 43/63/1 44/64/1 
f 45/65/1 46/66/1 47/67/1 48/68/1 
f 49/69/1 50/70/1 51/71/1 52/72/1 
f 53/73/1 54/74/1 55/75/1 56/76/1 
f 57/77/1 58/78/1 59/79/1 60/80/1 
s 2
f 61/81/14 62/82/14 42/62/14 41/61/14 
f 63/83/15 64/84/16 44/64/15 43/63/17 
s 4
f 62/85/18 63/86/19 43/63/19 42/62/18 
f 64/87/20 61/88/21 41/61/21 44/64/20 
s 2
f 65/89/11 66/90/11 46/66/11 45/65/11 
f 67/91/10 68/92/10 48/68/10 47/67/10 
s 4
f 66/93/12 67/94/12 47/67/12 46/66/12 
f 68/95/13 65/96/13 45/65/13 48/68/13 
s 2
f 69/97/11 70/98/11 50/70/11 49/69/11 
f 71/99/10 72/100/10 52/72/10 51/71/10 
s 4
f 70/101/12 71/102/12 51/71/12 50/70/12 
f 72/103/13 69/104/13 49/69/13 52/72/13 
s 2
f 73/105/13 74/106/13 58/78/13 57/77/13 
f 75/107/10 76/108/10 53/73/10 56/76/10 
f 77/109/11 78/110/11 55/75/11 54/74/11 
f 79/111/12 80/112/12 60/80/12 59/79/12 
s 4
f 74/113/11 79/114/11 59/79/11 58/78/11 
f 76/115/13 77/116/13 54/74/13 53/73/13 
f 80/117/10 73/118/10 57/77/10 60/80/10 
f 78/119/12 75/120/12 56/76/12 55/75/12 
# 50 polygons

