# 3ds Max Wavefront OBJ Exporter v0.97b - (c)2007 guruware
# File Created: 15.08.2018 23:09:14

mtllib Shutters_for_30x40_Vinyl_double_pane_Windows.mtl

#
# object Shutters005
#

v  3.9897 183.3802 -38.1448
v  3.9897 100.7022 -63.9740
v  3.9897 100.8511 -75.5734
v  3.9897 183.4004 -49.7454
v  2.0345 200.0000 -38.2434
v  2.0345 84.7080 -38.2435
v  2.0345 84.7080 -49.8440
v  2.0345 200.0000 -49.8439
v  2.0345 200.0000 -64.3053
v  2.0345 84.7080 -64.3054
v  2.0345 84.7080 -75.9060
v  2.0345 200.0000 -75.9059
v  2.0345 200.0000 -63.2226
v  2.0345 200.0000 -50.9267
v  2.0345 84.7080 -50.9268
v  2.0345 84.7080 -63.2227
v  3.9897 100.7839 -76.1139
v  3.9897 100.7838 -38.1543
v  3.9897 91.7233 -38.1543
v  3.9897 91.7233 -76.1139
v  3.9897 192.7421 -76.1138
v  3.9897 192.7420 -38.1542
v  3.9897 183.6815 -38.1542
v  3.9897 183.6815 -76.1138
v  3.9897 183.3253 49.9383
v  3.9897 100.7663 75.9366
v  3.9897 100.7616 64.3400
v  3.9897 183.3425 38.3417
v  3.9897 91.6524 76.1337
v  3.9897 91.6524 38.1741
v  3.9897 100.7130 38.1741
v  3.9897 100.7129 76.1337
v  3.9897 183.6105 76.1338
v  3.9897 183.6106 38.1741
v  3.9897 192.6712 38.1741
v  3.9897 192.6711 76.1338
v  2.0345 84.7080 38.2633
v  2.0345 200.0000 38.2634
v  2.0345 200.0000 49.8639
v  2.0345 84.7080 49.8638
v  2.0345 84.7080 64.3252
v  2.0345 200.0000 64.3253
v  2.0345 200.0000 75.9259
v  2.0345 84.7080 75.9258
v  2.0345 84.7080 63.2425
v  2.0345 84.7080 50.9466
v  2.0345 200.0000 50.9467
v  2.0345 200.0000 63.2426
v  2.0345 183.3802 -38.1448
v  2.0345 183.4004 -49.7454
v  2.0345 100.8511 -75.5734
v  2.0345 100.7022 -63.9740
v  0.0792 200.0000 -63.2226
v  0.0792 84.7080 -63.2227
v  0.0792 200.0000 -64.3053
v  0.0792 200.0000 -75.9059
v  0.0792 84.7080 -38.2435
v  0.0792 200.0000 -38.2434
v  0.0792 84.7080 -50.9268
v  0.0792 200.0000 -49.8439
v  0.0792 84.7080 -49.8440
v  0.0792 84.7080 -75.9060
v  0.0792 84.7080 -64.3054
v  0.0792 200.0000 -50.9267
v  2.0345 100.7839 -76.1139
v  2.0345 91.7233 -76.1139
v  2.0345 91.7233 -38.1543
v  2.0345 100.7838 -38.1543
v  2.0345 192.7421 -76.1138
v  2.0345 183.6815 -76.1138
v  2.0345 183.6815 -38.1542
v  2.0345 192.7420 -38.1542
v  2.0345 183.3012 49.8801
v  2.0345 183.3184 38.2835
v  2.0345 100.7359 64.2822
v  2.0345 100.7406 75.8788
v  2.0345 91.6524 76.1337
v  2.0345 100.7129 76.1337
v  2.0345 100.7130 38.1741
v  2.0345 91.6524 38.1741
v  2.0345 183.6105 76.1338
v  2.0345 192.6711 76.1338
v  2.0345 192.6712 38.1741
v  2.0345 183.6106 38.1741
v  0.0792 84.7080 63.2425
v  0.0792 200.0000 63.2426
v  0.0792 84.7080 64.3252
v  0.0792 84.7080 75.9258
v  0.0792 200.0000 38.2634
v  0.0792 84.7080 38.2633
v  0.0792 200.0000 50.9467
v  0.0792 84.7080 49.8638
v  0.0792 200.0000 49.8639
v  0.0792 200.0000 75.9259
v  0.0792 200.0000 64.3253
v  0.0792 84.7080 50.9466
# 96 vertices

vn 1.0000 0.0000 -0.0000
vn 0.0000 1.0000 0.0017
vn 0.0000 -0.9999 -0.0128
vn 0.0000 0.3821 -0.9241
vn 0.0000 -0.3816 0.9243
vn 0.0000 0.0000 -1.0000
vn 0.0000 1.0000 -0.0000
vn 0.0000 0.0000 1.0000
vn 0.0000 -1.0000 -0.0000
vn -0.0124 0.9999 0.0015
vn 0.0131 -0.9999 0.0004
vn 0.0322 -0.3834 -0.9230
vn 0.0323 -0.3834 -0.9230
vn -0.0323 0.3834 0.9230
vn -0.0322 0.3834 0.9230
# 15 vertex normals

vt 1.8700 0.8784 0.0000
vt 1.8697 -1.6154 0.0000
vt 2.1897 -1.7110 0.0000
vt 2.1889 0.7793 0.0000
vt 0.2904 2.0405 0.0000
vt 0.2904 -1.2788 0.0000
vt 0.6243 -1.2788 0.0000
vt 0.6243 2.0405 0.0000
vt -0.7750 2.0405 0.0000
vt -0.7750 -1.2788 0.0000
vt -0.4411 -1.2788 0.0000
vt -0.4411 2.0405 0.0000
vt -1.4999 2.0405 0.0000
vt -1.8539 2.0405 0.0000
vt -1.8539 -1.2788 0.0000
vt -1.4999 -1.2788 0.0000
vt 2.6444 -0.2738 0.0000
vt 2.6444 0.8191 0.0000
vt 2.3835 0.8191 0.0000
vt 2.3835 -0.2738 0.0000
vt 1.6432 1.3137 0.0000
vt 1.6432 2.4066 0.0000
vt 1.3823 2.4066 0.0000
vt 1.3823 1.3137 0.0000
vt 1.3599 0.7799 0.0000
vt 1.3465 -1.7121 0.0000
vt 1.6655 -1.6136 0.0000
vt 1.6787 0.8790 0.0000
vt 2.3835 2.3125 0.0000
vt 2.3835 1.2196 0.0000
vt 2.6444 1.2196 0.0000
vt 2.6444 2.3125 0.0000
vt 2.3821 -0.7620 0.0000
vt 2.3821 -1.8549 0.0000
vt 2.6430 -1.8549 0.0000
vt 2.6430 -0.7620 0.0000
vt 0.1016 -1.2788 0.0000
vt 0.1016 2.0405 0.0000
vt -0.2324 2.0405 0.0000
vt -0.2324 -1.2788 0.0000
vt 1.1570 -1.2788 0.0000
vt 1.1570 2.0405 0.0000
vt 0.8231 2.0405 0.0000
vt 0.8231 -1.2788 0.0000
vt -1.3040 -1.2788 0.0000
vt -0.9499 -1.2788 0.0000
vt -0.9499 2.0405 0.0000
vt -1.3040 2.0405 0.0000
vt 1.8867 0.9322 0.0000
vt 2.2056 0.8331 0.0000
vt 2.1736 -1.7649 0.0000
vt 1.8536 -1.6694 0.0000
vt 2.2452 0.7793 0.0000
vt 2.2460 -1.7110 0.0000
vt 1.8134 -1.6154 0.0000
vt 1.8137 0.8784 0.0000
vt -1.4436 2.0405 0.0000
vt -1.4436 -1.2788 0.0000
vt -0.7750 2.0968 0.0000
vt -0.4411 2.0968 0.0000
vt 0.2341 -1.2788 0.0000
vt 0.2341 2.0405 0.0000
vt -1.4999 -1.3351 0.0000
vt -1.8539 -1.3351 0.0000
vt 0.6806 2.0405 0.0000
vt 0.6806 -1.2788 0.0000
vt -0.4411 -1.3351 0.0000
vt -0.7750 -1.3351 0.0000
vt -0.3848 2.0405 0.0000
vt -0.3848 -1.2788 0.0000
vt 0.2904 2.0968 0.0000
vt 0.6243 2.0968 0.0000
vt -1.9102 -1.2788 0.0000
vt -1.9102 2.0405 0.0000
vt -0.8313 -1.2788 0.0000
vt -0.8313 2.0405 0.0000
vt 0.6243 -1.3351 0.0000
vt 0.2904 -1.3351 0.0000
vt -1.8539 2.0968 0.0000
vt -1.4999 2.0968 0.0000
vt 2.6444 -0.3301 0.0000
vt 2.3835 -0.3301 0.0000
vt 2.3835 0.8753 0.0000
vt 2.6444 0.8753 0.0000
vt 2.3272 -0.2738 0.0000
vt 2.3272 0.8191 0.0000
vt 2.7007 0.8191 0.0000
vt 2.7007 -0.2738 0.0000
vt 1.6432 1.2574 0.0000
vt 1.3823 1.2574 0.0000
vt 1.3823 2.4629 0.0000
vt 1.6432 2.4629 0.0000
vt 1.3260 1.3137 0.0000
vt 1.3260 2.4066 0.0000
vt 1.6995 2.4066 0.0000
vt 1.6995 1.3137 0.0000
vt 1.3447 0.8342 0.0000
vt 1.6636 0.9332 0.0000
vt 1.6837 -1.6669 0.0000
vt 1.3647 -1.7654 0.0000
vt 1.7350 0.8785 0.0000
vt 1.7219 -1.6141 0.0000
vt 1.2902 -1.7120 0.0000
vt 1.3035 0.7801 0.0000
vt 2.3835 2.3688 0.0000
vt 2.6444 2.3688 0.0000
vt 2.6444 1.1634 0.0000
vt 2.3835 1.1634 0.0000
vt 2.7007 2.3125 0.0000
vt 2.7007 1.2196 0.0000
vt 2.3272 1.2196 0.0000
vt 2.3272 2.3125 0.0000
vt 2.3821 -0.7057 0.0000
vt 2.6430 -0.7057 0.0000
vt 2.6430 -1.9112 0.0000
vt 2.3821 -1.9112 0.0000
vt 2.6993 -0.7620 0.0000
vt 2.6993 -1.8549 0.0000
vt 2.3258 -1.8549 0.0000
vt 2.3258 -0.7620 0.0000
vt -1.3602 -1.2788 0.0000
vt -1.3602 2.0405 0.0000
vt 1.1570 -1.3351 0.0000
vt 0.8231 -1.3351 0.0000
vt 0.1579 2.0405 0.0000
vt 0.1579 -1.2788 0.0000
vt -1.3040 2.0968 0.0000
vt -0.9499 2.0968 0.0000
vt -0.2887 -1.2788 0.0000
vt -0.2887 2.0405 0.0000
vt 0.8231 2.0968 0.0000
vt 1.1570 2.0968 0.0000
vt 0.7668 -1.2788 0.0000
vt 0.7668 2.0405 0.0000
vt 0.1016 -1.3351 0.0000
vt -0.2324 -1.3351 0.0000
vt -0.8937 2.0405 0.0000
vt -0.8936 -1.2788 0.0000
vt 1.2133 2.0405 0.0000
vt 1.2133 -1.2788 0.0000
vt -0.2324 2.0968 0.0000
vt 0.1016 2.0968 0.0000
vt -0.9499 -1.3351 0.0000
vt -1.3040 -1.3351 0.0000
# 144 texture coords

g Shutters005
usemtl None_wood_white_jpg
s 1
f 1/1/1 2/2/1 3/3/1 4/4/1 
f 5/5/1 6/6/1 7/7/1 8/8/1 
f 9/9/1 10/10/1 11/11/1 12/12/1 
f 13/13/1 14/14/1 15/15/1 16/16/1 
f 17/17/1 18/18/1 19/19/1 20/20/1 
f 21/21/1 22/22/1 23/23/1 24/24/1 
f 25/25/1 26/26/1 27/27/1 28/28/1 
f 29/29/1 30/30/1 31/31/1 32/32/1 
f 33/33/1 34/34/1 35/35/1 36/36/1 
f 37/37/1 38/38/1 39/39/1 40/40/1 
f 41/41/1 42/42/1 43/43/1 44/44/1 
f 45/45/1 46/46/1 47/47/1 48/48/1 
s 2
f 49/49/2 1/1/2 4/4/2 50/50/2 
f 51/51/3 3/3/3 2/2/3 52/52/3 
s 4
f 50/53/4 4/4/4 3/3/4 51/54/4 
f 52/55/5 2/2/5 1/1/5 49/56/5 
s 2
f 53/57/6 13/13/6 16/16/6 54/58/6 
f 55/59/7 9/9/7 12/12/7 56/60/7 
f 57/61/8 6/6/8 5/5/8 58/62/8 
s 4
f 54/63/9 16/16/9 15/15/9 59/64/9 
s 2
f 60/65/6 8/8/6 7/7/6 61/66/6 
f 62/67/9 11/11/9 10/10/9 63/68/9 
s 4
f 56/69/6 12/12/6 11/11/6 62/70/6 
f 58/71/7 5/5/7 8/8/7 60/72/7 
s 2
f 59/73/8 15/15/8 14/14/8 64/74/8 
s 4
f 63/75/8 10/10/8 9/9/8 55/76/8 
f 61/77/9 7/7/9 6/6/9 57/78/9 
f 64/79/7 14/14/7 13/13/7 53/80/7 
s 2
f 65/81/6 17/17/6 20/20/6 66/82/6 
f 67/83/8 19/19/8 18/18/8 68/84/8 
s 4
f 66/85/9 20/20/9 19/19/9 67/86/9 
f 68/87/7 18/18/7 17/17/7 65/88/7 
s 2
f 69/89/6 21/21/6 24/24/6 70/90/6 
f 71/91/8 23/23/8 22/22/8 72/92/8 
s 4
f 70/93/9 24/24/9 23/23/9 71/94/9 
f 72/95/7 22/22/7 21/21/7 69/96/7 
s 2
f 73/97/10 25/25/10 28/28/10 74/98/10 
f 75/99/11 27/27/11 26/26/11 76/100/11 
s 4
f 74/101/12 28/28/12 27/27/13 75/102/13 
f 76/103/14 26/26/14 25/25/15 73/104/15 
s 2
f 77/105/8 29/29/8 32/32/8 78/106/8 
f 79/107/6 31/31/6 30/30/6 80/108/6 
s 4
f 78/109/7 32/32/7 31/31/7 79/110/7 
f 80/111/9 30/30/9 29/29/9 77/112/9 
s 2
f 81/113/8 33/33/8 36/36/8 82/114/8 
f 83/115/6 35/35/6 34/34/6 84/116/6 
s 4
f 82/117/7 36/36/7 35/35/7 83/118/7 
f 84/119/9 34/34/9 33/33/9 81/120/9 
s 2
f 85/121/8 45/45/8 48/48/8 86/122/8 
f 87/123/9 41/41/9 44/44/9 88/124/9 
f 89/125/6 38/38/6 37/37/6 90/126/6 
s 4
f 86/127/7 48/48/7 47/47/7 91/128/7 
s 2
f 92/129/8 40/40/8 39/39/8 93/130/8 
f 94/131/7 43/43/7 42/42/7 95/132/7 
s 4
f 88/133/8 44/44/8 43/43/8 94/134/8 
f 90/135/9 37/37/9 40/40/9 92/136/9 
s 2
f 91/137/6 47/47/6 46/46/6 96/138/6 
s 4
f 95/139/6 42/42/6 41/41/6 87/140/6 
f 93/141/7 39/39/7 38/38/7 89/142/7 
f 96/143/9 46/46/9 45/45/9 85/144/9 
# 60 polygons

