# 3ds Max Wavefront OBJ Exporter v0.97b - (c)2007 guruware
# File Created: 11.09.2018 17:49:21

mtllib USC_flower_box_for_3x3_windows.mtl

#
# object default
#

v  1.5001 80.7166 -45.7205
v  1.5001 80.7165 45.7204
v  1.5001 94.7675 45.7205
v  1.5001 94.7675 -45.7204
v  8.4173 80.7166 -45.7205
v  11.5163 94.7675 -45.7204
v  8.4173 80.7165 45.7204
v  11.5163 94.7675 45.7205
v  7.2186 81.7479 -44.8958
v  7.2186 81.7479 44.8958
v  10.6916 94.7675 44.8958
v  10.6916 94.7675 -44.8958
v  2.3248 94.7675 44.8958
v  2.3248 94.7675 -44.8958
v  2.3248 81.7479 -44.8958
v  2.3248 81.7479 44.8958
# 16 vertices

vn -1.0000 0.0000 -0.0000
vn 0.0000 0.0000 -1.0000
vn 0.9766 -0.2152 -0.0000
vn 0.0000 0.0000 1.0000
vn 0.0000 -1.0000 -0.0000
vn -0.9662 0.2579 -0.0000
vn 0.0000 1.0000 -0.0000
vn 1.0000 0.0000 -0.0000
# 8 vertex normals

vt 0.0337 2.2609 0.0000
vt 0.0337 -2.1758 0.0000
vt 0.7155 -2.1758 0.0000
vt 0.7155 2.2609 0.0000
vt -2.4214 2.8958 0.0000
vt -2.4214 2.3624 0.0000
vt -1.3379 2.3624 0.0000
vt -1.3379 3.1348 0.0000
vt -0.3019 -2.1758 0.0000
vt -0.3019 2.2610 0.0000
vt -1.0001 2.2610 0.0000
vt -1.0001 -2.1758 0.0000
vt 2.0128 2.3583 0.0000
vt 2.0128 2.8917 0.0000
vt 0.9293 3.1307 0.0000
vt 0.9293 2.3583 0.0000
vt -1.6939 2.2209 0.0000
vt -1.6939 -2.1358 0.0000
vt -1.0401 -2.1358 0.0000
vt -1.0401 2.2209 0.0000
vt 0.7555 -2.1358 0.0000
vt 0.7555 2.2209 0.0000
vt -1.2743 2.4260 0.0000
vt -1.2743 3.0712 0.0000
vt 0.8657 3.0671 0.0000
vt 0.8657 2.4219 0.0000
vt 1.3872 2.2209 0.0000
vt 1.3872 -2.1358 0.0000
vt 1.6246 -2.1358 0.0000
vt 1.6246 2.2209 0.0000
vt -0.1383 2.7993 0.0000
vt -0.1383 2.4219 0.0000
vt -0.2703 2.4260 0.0000
vt -0.2703 2.8034 0.0000
# 34 texture coords

g default
usemtl None_wood_white_jpg_NONE
s off
f 1/1/1 2/2/1 3/3/1 4/4/1 
f 5/5/2 1/6/2 4/7/2 6/8/2 
f 7/9/3 5/10/3 6/11/3 8/12/3 
f 2/13/4 7/14/4 8/15/4 3/16/4 
f 5/10/5 7/9/5 2/2/5 1/1/5 
f 9/17/6 10/18/6 11/19/6 12/20/6 
f 4/4/7 3/3/7 13/21/7 14/22/7 
f 6/8/7 4/7/7 14/23/7 12/24/7 
f 8/12/7 6/11/7 12/20/7 11/19/7 
f 3/16/7 8/15/7 11/25/7 13/26/7 
f 15/27/7 16/28/7 10/29/7 9/30/7 
f 16/28/8 15/27/8 14/22/8 13/21/8 
f 10/31/2 16/32/2 13/26/2 11/25/2 
f 15/33/4 9/34/4 12/24/4 14/23/4 
# 14 polygons

