# 3ds Max Wavefront OBJ Exporter v0.97b - (c)2007 guruware
# File Created: 11.09.2018 16:56:06

mtllib USC_flower_box_for_18x27_window.mtl

#
# object default
#

v  1.5001 103.5776 -22.8605
v  1.5001 103.5775 22.8604
v  1.5001 117.6285 22.8605
v  1.5001 117.6285 -22.8604
v  8.4173 103.5776 -22.8605
v  11.5163 117.6285 -22.8604
v  8.4173 103.5775 22.8604
v  11.5163 117.6285 22.8605
v  7.2186 104.6089 -22.0358
v  7.2186 104.6088 22.0358
v  10.6916 117.6285 22.0358
v  10.6916 117.6285 -22.0358
v  2.3248 117.6285 22.0358
v  2.3248 117.6285 -22.0358
v  2.3248 104.6089 -22.0358
v  2.3248 104.6088 22.0358
# 16 vertices

vn -1.0000 0.0000 -0.0000
vn 0.0000 0.0000 -1.0000
vn 0.9766 -0.2152 -0.0000
vn 0.0000 0.0000 1.0000
vn 0.0000 -1.0000 -0.0000
vn -0.9662 0.2579 -0.0000
vn 0.0000 1.0000 -0.0000
vn 1.0000 0.0000 -0.0000
# 8 vertex normals

vt 0.1007 1.1168 0.0000
vt 0.1007 -0.5606 0.0000
vt 0.7666 -0.5606 0.0000
vt 0.7666 1.1168 0.0000
vt -1.3767 1.6063 0.0000
vt -1.3767 1.2785 0.0000
vt -0.7108 1.2785 0.0000
vt -0.7108 1.7532 0.0000
vt -0.2271 -0.5606 0.0000
vt -0.2271 1.1168 0.0000
vt -0.9090 1.1168 0.0000
vt -0.9090 -0.5606 0.0000
vt 1.4950 1.2783 0.0000
vt 1.4950 1.6061 0.0000
vt 0.8291 1.7530 0.0000
vt 0.8291 1.2783 0.0000
vt -1.5867 1.0777 0.0000
vt -1.5867 -0.5215 0.0000
vt -0.9481 -0.5215 0.0000
vt -0.9481 1.0777 0.0000
vt 0.8057 -0.5215 0.0000
vt 0.8057 1.0777 0.0000
vt -0.6717 1.3176 0.0000
vt -0.6717 1.7141 0.0000
vt 0.7900 1.7139 0.0000
vt 0.7900 1.3173 0.0000
vt 1.4227 1.0777 0.0000
vt 1.4227 -0.5215 0.0000
vt 1.6547 -0.5215 0.0000
vt 1.6547 1.0777 0.0000
vt 0.1730 1.5493 0.0000
vt 0.1730 1.3173 0.0000
vt -0.0547 1.3176 0.0000
vt -0.0547 1.5495 0.0000
# 34 texture coords

g default
usemtl None_wood_white_jpg_NONE
s off
f 1/1/1 2/2/1 3/3/1 4/4/1 
f 5/5/2 1/6/2 4/7/2 6/8/2 
f 7/9/3 5/10/3 6/11/3 8/12/3 
f 2/13/4 7/14/4 8/15/4 3/16/4 
f 5/10/5 7/9/5 2/2/5 1/1/5 
f 9/17/6 10/18/6 11/19/6 12/20/6 
f 4/4/7 3/3/7 13/21/7 14/22/7 
f 6/8/7 4/7/7 14/23/7 12/24/7 
f 8/12/7 6/11/7 12/20/7 11/19/7 
f 3/16/7 8/15/7 11/25/7 13/26/7 
f 15/27/7 16/28/7 10/29/7 9/30/7 
f 16/28/8 15/27/8 14/22/8 13/21/8 
f 10/31/2 16/32/2 13/26/2 11/25/2 
f 15/33/4 9/34/4 12/24/4 14/23/4 
# 14 polygons

