# 3ds Max Wavefront OBJ Exporter v0.97b - (c)2007 guruware
# File Created: 11.09.2018 17:50:22

mtllib USC_flower_box_for_36x60_windows.mtl

#
# object default
#

v  1.5001 19.7566 -45.7205
v  1.5001 19.7565 45.7204
v  1.5001 33.8075 45.7205
v  1.5001 33.8076 -45.7204
v  8.4173 19.7566 -45.7205
v  11.5163 33.8076 -45.7204
v  8.4173 19.7565 45.7204
v  11.5163 33.8075 45.7205
v  7.2186 20.7879 -44.8958
v  7.2186 20.7879 44.8958
v  10.6916 33.8075 44.8958
v  10.6916 33.8076 -44.8958
v  2.3248 33.8075 44.8958
v  2.3248 33.8076 -44.8958
v  2.3248 20.7879 -44.8958
v  2.3248 20.7879 44.8958
# 16 vertices

vn -1.0000 0.0000 -0.0000
vn 0.0000 0.0000 -1.0000
vn 0.9766 -0.2152 -0.0000
vn 0.0000 0.0000 1.0000
vn 0.0000 -1.0000 -0.0000
vn -0.9662 0.2579 -0.0000
vn 0.0000 1.0000 -0.0000
vn 1.0000 0.0000 -0.0000
# 8 vertex normals

vt 0.0928 2.1772 0.0000
vt 0.0928 -2.5267 0.0000
vt 0.8156 -2.5267 0.0000
vt 0.8156 2.1772 0.0000
vt -2.5101 2.8503 0.0000
vt -2.5101 2.2848 0.0000
vt -1.3614 2.2848 0.0000
vt -1.3614 3.1037 0.0000
vt -0.2630 -2.5267 0.0000
vt -0.2630 2.1772 0.0000
vt -1.0032 2.1772 0.0000
vt -1.0032 -2.5267 0.0000
vt 2.1910 2.2805 0.0000
vt 2.1910 2.8460 0.0000
vt 1.0423 3.0993 0.0000
vt 1.0423 2.2805 0.0000
vt -1.7388 2.1348 0.0000
vt -1.7388 -2.4842 0.0000
vt -1.0457 -2.4842 0.0000
vt -1.0457 2.1348 0.0000
vt 0.8580 -2.4842 0.0000
vt 0.8580 2.1348 0.0000
vt -1.2940 2.3523 0.0000
vt -1.2940 3.0363 0.0000
vt 0.9749 3.0319 0.0000
vt 0.9749 2.3479 0.0000
vt 1.5278 2.1348 0.0000
vt 1.5278 -2.4842 0.0000
vt 1.7795 -2.4842 0.0000
vt 1.7795 2.1348 0.0000
vt -0.0895 2.7480 0.0000
vt -0.0895 2.3479 0.0000
vt -0.2296 2.3523 0.0000
vt -0.2296 2.7523 0.0000
# 34 texture coords

g default
usemtl None_wood_white_jpg_NONE
s off
f 1/1/1 2/2/1 3/3/1 4/4/1 
f 5/5/2 1/6/2 4/7/2 6/8/2 
f 7/9/3 5/10/3 6/11/3 8/12/3 
f 2/13/4 7/14/4 8/15/4 3/16/4 
f 5/10/5 7/9/5 2/2/5 1/1/5 
f 9/17/6 10/18/6 11/19/6 12/20/6 
f 4/4/7 3/3/7 13/21/7 14/22/7 
f 6/8/7 4/7/7 14/23/7 12/24/7 
f 8/12/7 6/11/7 12/20/7 11/19/7 
f 3/16/7 8/15/7 11/25/7 13/26/7 
f 15/27/7 16/28/7 10/29/7 9/30/7 
f 16/28/8 15/27/8 14/22/8 13/21/8 
f 10/31/2 16/32/2 13/26/2 11/25/2 
f 15/33/4 9/34/4 12/24/4 14/23/4 
# 14 polygons

