# 3ds Max Wavefront OBJ Exporter v0.97b - (c)2007 guruware
# File Created: 31.10.2018 18:48:21

mtllib 107_inch_sunburst_railing.mtl

#
# object Railing_Panel_107
#

v  135.8900 40.6800 4.0000
v  131.8900 40.6800 4.0000
v  131.8900 -40.6800 4.0000
v  135.8900 -40.6800 4.0000
v  135.8900 40.6800 -0.0000
v  135.8900 -40.6800 -0.0000
v  131.8900 40.6800 -0.0000
v  131.8900 -40.6800 -0.0000
v  -131.8900 40.6800 4.0000
v  -135.8900 40.6800 4.0000
v  -135.8900 -40.6800 4.0000
v  -131.8900 -40.6800 4.0000
v  -131.8900 40.6800 -0.0000
v  -131.8900 -40.6800 -0.0000
v  -135.8900 40.6800 -0.0000
v  -135.8900 -40.6800 -0.0000
v  -135.8900 40.6800 -6.3500
v  135.8900 40.6800 -6.3500
v  135.8900 40.6800 6.3500
v  -135.8900 40.6800 6.3500
v  -135.8900 45.6800 -6.3500
v  -135.8900 45.6800 6.3500
v  135.8900 45.6800 6.3500
v  135.8900 45.6800 -6.3500
v  -135.8900 33.1800 -4.0000
v  135.8900 33.1800 -4.0000
v  135.8900 33.1800 -0.0000
v  -135.8900 33.1800 -0.0000
v  -135.8900 40.6800 -4.0000
v  135.8900 40.6800 -4.0000
v  -135.8900 -40.6800 -4.0000
v  135.8900 -40.6800 -4.0000
v  -135.8900 -33.1800 -4.0000
v  -135.8900 -33.1800 -0.0000
v  135.8900 -33.1800 -0.0000
v  135.8900 -33.1800 -4.0000
v  2.0005 40.6800 4.0000
v  -1.9995 40.6800 4.0000
v  -1.9999 -40.6800 4.0000
v  2.0001 -40.6800 4.0000
v  2.0005 40.6800 -0.0000
v  2.0001 -40.6800 -0.0000
v  -1.9995 40.6800 -0.0000
v  -1.9999 -40.6800 -0.0000
v  6.4505 -40.6800 4.0000
v  14.5717 40.6800 4.0000
v  10.5518 40.6800 4.0000
v  2.4306 -40.6800 4.0000
v  14.5717 40.6800 -0.0000
v  6.4505 -40.6800 -0.0000
v  10.5518 40.6800 -0.0000
v  2.4306 -40.6800 -0.0000
v  11.0106 -40.6800 4.0000
v  27.4160 40.6800 4.0000
v  23.3355 40.6800 4.0000
v  6.9301 -40.6800 4.0000
v  27.4160 40.6800 -0.0000
v  11.0106 -40.6800 -0.0000
v  23.3355 40.6800 -0.0000
v  6.9301 -40.6800 -0.0000
v  15.7787 -40.6800 4.0000
v  40.8088 40.6800 4.0000
v  36.6237 40.6800 4.0000
v  11.5937 -40.6800 4.0000
v  40.8088 40.6800 -0.0000
v  15.7787 -40.6800 -0.0000
v  36.6237 40.6800 -0.0000
v  11.5937 -40.6800 -0.0000
v  20.8705 -40.6800 4.0000
v  55.0715 40.6800 4.0000
v  50.7324 40.6800 4.0000
v  16.5314 -40.6800 4.0000
v  55.0715 40.6800 -0.0000
v  20.8705 -40.6800 -0.0000
v  50.7324 40.6800 -0.0000
v  16.5314 -40.6800 -0.0000
v  26.4306 -40.6800 4.0000
v  71.6060 40.6800 4.0000
v  67.0544 40.6800 4.0000
v  21.8791 -40.6800 4.0000
v  71.6060 40.6800 -0.0000
v  26.4306 -40.6800 -0.0000
v  67.0544 40.6800 -0.0000
v  21.8791 -40.6800 -0.0000
v  32.6520 -40.6800 4.0000
v  89.9447 40.6800 4.0000
v  85.1084 40.6800 4.0000
v  27.8157 -40.6800 4.0000
v  89.9447 40.6800 -0.0000
v  32.6520 -40.6800 -0.0000
v  85.1084 40.6800 -0.0000
v  27.8157 -40.6800 -0.0000
v  39.8045 -40.6800 4.0000
v  111.8326 40.6800 4.0000
v  106.6186 40.6800 4.0000
v  34.5905 -40.6800 4.0000
v  111.8326 40.6800 -0.0000
v  39.8045 -40.6800 -0.0000
v  106.6186 40.6800 -0.0000
v  34.5905 -40.6800 -0.0000
v  -10.5508 40.6800 4.0000
v  -14.5707 40.6800 4.0000
v  -6.4503 -40.6800 4.0000
v  -2.4304 -40.6800 4.0000
v  -10.5508 40.6800 -0.0000
v  -2.4304 -40.6800 -0.0000
v  -6.4503 -40.6800 -0.0000
v  -14.5707 40.6800 -0.0000
v  -23.3346 40.6800 4.0000
v  -27.4151 40.6800 4.0000
v  -11.0104 -40.6800 4.0000
v  -6.9299 -40.6800 4.0000
v  -23.3346 40.6800 -0.0000
v  -6.9299 -40.6800 -0.0000
v  -11.0104 -40.6800 -0.0000
v  -27.4151 40.6800 -0.0000
v  -36.6227 40.6800 4.0000
v  -40.8077 40.6800 4.0000
v  -15.7785 -40.6800 4.0000
v  -11.5935 -40.6800 4.0000
v  -36.6227 40.6800 -0.0000
v  -11.5935 -40.6800 -0.0000
v  -15.7785 -40.6800 -0.0000
v  -40.8077 40.6800 -0.0000
v  -50.7313 40.6800 4.0000
v  -55.0704 40.6800 4.0000
v  -20.8702 -40.6800 4.0000
v  -16.5312 -40.6800 4.0000
v  -50.7313 40.6800 -0.0000
v  -16.5312 -40.6800 -0.0000
v  -20.8702 -40.6800 -0.0000
v  -55.0704 40.6800 -0.0000
v  -67.0532 40.6800 4.0000
v  -71.6048 40.6800 4.0000
v  -26.4303 -40.6800 4.0000
v  -21.8788 -40.6800 4.0000
v  -67.0532 40.6800 -0.0000
v  -21.8788 -40.6800 -0.0000
v  -26.4303 -40.6800 -0.0000
v  -71.6047 40.6800 -0.0000
v  -85.1070 40.6800 4.0000
v  -89.9433 40.6800 4.0000
v  -32.6516 -40.6800 4.0000
v  -27.8153 -40.6800 4.0000
v  -85.1070 40.6800 -0.0000
v  -27.8153 -40.6800 -0.0000
v  -32.6516 -40.6800 -0.0000
v  -89.9433 40.6800 -0.0000
v  -106.6170 40.6800 4.0000
v  -111.8310 40.6800 4.0000
v  -39.8041 -40.6800 4.0000
v  -34.5901 -40.6800 4.0000
v  -106.6170 40.6800 -0.0000
v  -34.5901 -40.6800 -0.0000
v  -39.8041 -40.6800 -0.0000
v  -111.8310 40.6800 -0.0000
v  131.8900 34.9702 4.0000
v  131.8900 40.5687 4.0000
v  42.5708 -40.6800 4.0000
v  48.2879 -40.6800 4.0000
v  131.8900 34.9702 -0.0000
v  48.2879 -40.6800 -0.0000
v  131.8900 40.5687 -0.0000
v  42.5708 -40.6800 -0.0000
v  57.7285 -40.6800 4.0000
v  131.8900 2.3556 4.0000
v  131.8900 7.0859 4.0000
v  50.3310 -40.6800 4.0000
v  131.8900 2.3556 -0.0000
v  57.7285 -40.6800 -0.0000
v  131.8900 7.0859 -0.0000
v  50.3310 -40.6800 -0.0000
v  -131.8900 40.5706 4.0000
v  -131.8900 34.9721 4.0000
v  -48.2873 -40.6800 4.0000
v  -42.5703 -40.6800 4.0000
v  -131.8900 40.5706 -0.0000
v  -42.5703 -40.6800 -0.0000
v  -131.8900 34.9721 -0.0000
v  -48.2873 -40.6800 -0.0000
v  -131.8900 7.0875 4.0000
v  -131.8900 2.3572 4.0000
v  -57.7278 -40.6800 4.0000
v  -50.3303 -40.6800 4.0000
v  -131.8900 7.0875 -0.0000
v  -50.3303 -40.6800 -0.0000
v  -57.7278 -40.6800 -0.0000
v  -131.8900 2.3572 -0.0000
# 188 vertices

vn 0.0000 0.0000 1.0000
vn 1.0000 0.0000 -0.0000
vn 0.0000 0.0000 -1.0000
vn -1.0000 0.0000 -0.0000
vn 0.0000 -1.0000 -0.0000
vn 0.0000 1.0000 -0.0000
vn 0.9951 -0.0993 -0.0000
vn -0.9951 0.0993 -0.0000
vn 0.9803 -0.1977 -0.0000
vn -0.9803 0.1977 -0.0000
vn 0.9558 -0.2940 -0.0000
vn -0.9558 0.2940 -0.0000
vn 0.9219 -0.3875 -0.0000
vn -0.9219 0.3875 -0.0000
vn 0.8788 -0.4772 -0.0000
vn -0.8788 0.4772 -0.0000
vn 0.8271 -0.5621 -0.0000
vn -0.8271 0.5621 -0.0000
vn 0.7672 -0.6415 -0.0000
vn -0.7672 0.6415 -0.0000
vn 0.9951 0.0993 -0.0000
vn -0.9951 -0.0993 -0.0000
vn 0.9803 0.1977 -0.0000
vn -0.9803 -0.1977 -0.0000
vn 0.9558 0.2940 -0.0000
vn -0.9558 -0.2940 -0.0000
vn 0.9219 0.3875 -0.0000
vn -0.9219 -0.3875 -0.0000
vn 0.8788 0.4772 -0.0000
vn -0.8788 -0.4772 -0.0000
vn 0.8271 0.5621 -0.0000
vn -0.8271 -0.5621 -0.0000
vn 0.7672 0.6414 -0.0000
vn -0.7672 -0.6414 -0.0000
vn 0.6997 -0.7145 -0.0000
vn -0.6997 0.7145 -0.0000
vn 0.5415 -0.8407 -0.0000
vn -0.5464 0.8375 -0.0000
vn 0.6997 0.7145 -0.0000
vn -0.6997 -0.7145 -0.0000
vn 0.5464 0.8375 -0.0000
vn -0.5415 -0.8407 -0.0000
# 42 vertex normals

vt 4.3153 3.0760 0.0000
vt 4.5328 3.0760 0.0000
vt 4.5328 7.4999 0.0000
vt 4.3153 7.4999 0.0000
vt 4.0978 3.0761 0.0000
vt 4.0978 7.4999 0.0000
vt 3.8803 3.0761 0.0000
vt 3.8803 7.4999 0.0000
vt 4.7503 3.0760 0.0000
vt 4.7503 7.4999 0.0000
vt 5.4819 2.5530 0.0000
vt 5.2644 2.5530 0.0000
vt 5.2644 -1.8708 0.0000
vt 5.4819 -1.8708 0.0000
vt 5.6995 2.5530 0.0000
vt 5.6995 -1.8708 0.0000
vt 5.9170 2.5530 0.0000
vt 5.9170 -1.8708 0.0000
vt 5.0469 2.5530 0.0000
vt 5.0469 -1.8708 0.0000
vt 4.0978 7.7174 0.0000
vt 3.8803 7.7174 0.0000
vt 5.6995 -2.0883 0.0000
vt 5.9170 -2.0883 0.0000
vt -5.2747 -7.3182 0.0000
vt -5.2747 7.4595 0.0000
vt -5.9653 7.4595 0.0000
vt -5.9653 -7.3182 0.0000
vt -6.9277 -7.3182 0.0000
vt -6.2372 -7.3182 0.0000
vt -6.2372 7.4595 0.0000
vt -6.9277 7.4594 0.0000
vt -6.9277 -7.5901 0.0000
vt -6.2372 -7.5901 0.0000
vt -6.2372 7.7313 0.0000
vt -6.9277 7.7313 0.0000
vt -7.1996 7.4594 0.0000
vt -7.1996 -7.3183 0.0000
vt -2.5744 -7.2076 0.0000
vt -2.5744 7.5701 0.0000
vt -2.7919 7.5700 0.0000
vt -2.7919 -7.2077 0.0000
vt -3.4172 -7.2077 0.0000
vt -3.1997 -7.2077 0.0000
vt -3.1997 7.5700 0.0000
vt -3.4172 7.5700 0.0000
vt -3.4172 -7.6155 0.0000
vt -3.1997 -7.6155 0.0000
vt -3.1997 7.9778 0.0000
vt -3.4172 7.9778 0.0000
vt -2.1666 -7.2076 0.0000
vt -2.1666 7.5701 0.0000
vt -3.7074 -7.1997 0.0000
vt -3.7074 7.5780 0.0000
vt -3.9249 7.5780 0.0000
vt -3.9249 -7.1997 0.0000
vt -4.5503 -7.1997 0.0000
vt -4.3328 -7.1997 0.0000
vt -4.3328 7.5780 0.0000
vt -4.5503 7.5780 0.0000
vt -4.5503 -7.6075 0.0000
vt -4.3328 -7.6075 0.0000
vt -4.3328 7.9858 0.0000
vt -4.5503 7.9858 0.0000
vt -4.9581 7.5780 0.0000
vt -4.9581 -7.1997 0.0000
vt 6.6301 7.1853 0.0000
vt 6.4126 7.1853 0.0000
vt 6.4126 2.7614 0.0000
vt 6.6301 2.7614 0.0000
vt 6.8476 7.1853 0.0000
vt 6.8476 2.7614 0.0000
vt 7.0651 7.1853 0.0000
vt 7.0651 2.7614 0.0000
vt 6.1951 7.1853 0.0000
vt 6.1951 2.7614 0.0000
vt 6.6301 -2.0595 0.0000
vt 6.6301 2.3864 0.0000
vt 6.4126 2.3647 0.0000
vt 6.4126 -2.0812 0.0000
vt 6.8476 2.3864 0.0000
vt 6.8476 -2.0594 0.0000
vt 7.0651 2.3647 0.0000
vt 7.0651 -2.0812 0.0000
vt 6.1951 2.3647 0.0000
vt 6.1951 -2.0812 0.0000
vt 6.6301 -7.1131 0.0000
vt 6.6301 -2.6002 0.0000
vt 6.4126 -2.6441 0.0000
vt 6.4126 -7.1570 0.0000
vt 6.8476 -2.6002 0.0000
vt 6.8476 -7.1131 0.0000
vt 7.0651 -2.6441 0.0000
vt 7.0651 -7.1570 0.0000
vt 6.1951 -2.6441 0.0000
vt 6.1951 -7.1570 0.0000
vt 4.3170 -1.9430 0.0000
vt 4.3170 2.6855 0.0000
vt 4.0995 2.6185 0.0000
vt 4.0995 -2.0099 0.0000
vt 4.5345 2.6855 0.0000
vt 4.5345 -1.9430 0.0000
vt 4.7520 2.6185 0.0000
vt 4.7520 -2.0099 0.0000
vt 3.8820 2.6185 0.0000
vt 3.8820 -2.0099 0.0000
vt 3.1671 -7.0611 0.0000
vt 3.1671 -2.2623 0.0000
vt 2.9496 -2.3537 0.0000
vt 2.9496 -7.1525 0.0000
vt 3.3846 -2.2623 0.0000
vt 3.3846 -7.0611 0.0000
vt 3.6021 -2.3537 0.0000
vt 3.6021 -7.1525 0.0000
vt 2.7321 -2.3537 0.0000
vt 2.7321 -7.1526 0.0000
vt 0.8670 -0.6798 0.0000
vt 0.8670 4.3803 0.0000
vt 0.6506 4.2601 0.0000
vt 0.6506 -0.7999 0.0000
vt 1.0845 4.3803 0.0000
vt 1.0845 -0.6798 0.0000
vt 1.3009 4.2601 0.0000
vt 1.3009 -0.7999 0.0000
vt 0.4332 4.2601 0.0000
vt 0.4332 -0.7999 0.0000
vt -0.2832 -0.6625 0.0000
vt -0.2832 4.7482 0.0000
vt -0.4982 4.5967 0.0000
vt -0.4982 -0.8139 0.0000
vt -0.0657 4.7482 0.0000
vt -0.0657 -0.6625 0.0000
vt 0.1493 4.5968 0.0000
vt 0.1493 -0.8139 0.0000
vt -0.7157 4.5967 0.0000
vt -0.7157 -0.8139 0.0000
vt -0.2839 -7.0245 0.0000
vt -0.2839 -1.1161 0.0000
vt -0.4962 -1.3041 0.0000
vt -0.4962 -7.2124 0.0000
vt -0.0664 -1.1162 0.0000
vt -0.0664 -7.0245 0.0000
vt 0.1459 -1.3041 0.0000
vt 0.1459 -7.2125 0.0000
vt -0.7137 -1.3041 0.0000
vt -0.7137 -7.2124 0.0000
vt 7.7800 -2.7123 0.0000
vt 7.5625 -2.6906 0.0000
vt 7.5625 -7.1364 0.0000
vt 7.7800 -7.1582 0.0000
vt 7.9976 -2.7123 0.0000
vt 7.9976 -7.1582 0.0000
vt 8.2151 -7.1365 0.0000
vt 8.2151 -2.6906 0.0000
vt 7.3450 -2.6906 0.0000
vt 7.3450 -7.1364 0.0000
vt 5.4802 7.4545 0.0000
vt 5.2627 7.4983 0.0000
vt 5.2627 2.9854 0.0000
vt 5.4802 2.9416 0.0000
vt 5.6977 7.4544 0.0000
vt 5.6977 2.9416 0.0000
vt 5.9152 2.9854 0.0000
vt 5.9152 7.4983 0.0000
vt 5.0452 7.4983 0.0000
vt 5.0452 2.9854 0.0000
vt 5.4802 -2.5267 0.0000
vt 5.2627 -2.4598 0.0000
vt 5.2627 -7.0882 0.0000
vt 5.4802 -7.1551 0.0000
vt 5.6977 -2.5267 0.0000
vt 5.6977 -7.1552 0.0000
vt 5.9152 -7.0883 0.0000
vt 5.9152 -2.4598 0.0000
vt 5.0452 -2.4598 0.0000
vt 5.0452 -7.0882 0.0000
vt 3.1671 2.9233 0.0000
vt 2.9496 3.0148 0.0000
vt 2.9496 -1.7840 0.0000
vt 3.1671 -1.8755 0.0000
vt 3.3846 2.9233 0.0000
vt 3.3846 -1.8755 0.0000
vt 3.6021 -1.7841 0.0000
vt 3.6021 3.0148 0.0000
vt 2.7321 3.0148 0.0000
vt 2.7321 -1.7840 0.0000
vt 2.0169 3.7963 0.0000
vt 1.8006 3.9164 0.0000
vt 1.8005 -1.1436 0.0000
vt 2.0169 -1.2637 0.0000
vt 2.2344 3.7963 0.0000
vt 2.2344 -1.2637 0.0000
vt 2.4508 -1.1436 0.0000
vt 2.4508 3.9164 0.0000
vt 1.5831 3.9164 0.0000
vt 1.5830 -1.1436 0.0000
vt 2.0166 -1.7666 0.0000
vt 1.8016 -1.6152 0.0000
vt 1.8016 -7.0258 0.0000
vt 2.0166 -7.1773 0.0000
vt 2.2341 -1.7667 0.0000
vt 2.2341 -7.1773 0.0000
vt 2.4491 -7.0259 0.0000
vt 2.4491 -1.6152 0.0000
vt 1.5841 -1.6152 0.0000
vt 1.5841 -7.0258 0.0000
vt 0.8660 -1.3041 0.0000
vt 0.6537 -1.1162 0.0000
vt 0.6537 -7.0246 0.0000
vt 0.8660 -7.2125 0.0000
vt 1.0835 -1.3041 0.0000
vt 1.0835 -7.2125 0.0000
vt 1.2958 -7.0245 0.0000
vt 1.2958 -1.1162 0.0000
vt 0.4362 -1.1162 0.0000
vt 0.4362 -7.0246 0.0000
vt -1.4352 -0.9019 0.0000
vt -1.6609 -0.6977 0.0000
vt -1.6434 -7.2630 0.0000
vt -1.4349 -7.0325 0.0000
vt -1.2177 -0.9019 0.0000
vt -1.2174 -7.0325 0.0000
vt -0.9920 -0.6977 0.0000
vt -1.0088 -7.2630 0.0000
vt -1.8784 -0.6983 0.0000
vt -1.8609 -7.2636 0.0000
vt 4.3614 -7.0099 0.0000
vt 4.3179 -2.3479 0.0000
vt 4.0942 -2.2208 0.0000
vt 4.1628 -7.3596 0.0000
vt 4.5354 -2.3458 0.0000
vt 4.5789 -7.0078 0.0000
vt 4.7566 -2.2147 0.0000
vt 4.7840 -7.3539 0.0000
vt 3.8768 -2.2237 0.0000
vt 3.9453 -7.3625 0.0000
vt -1.4357 6.0419 0.0000
vt -1.6608 5.8370 0.0000
vt -1.6441 -0.2936 0.0000
vt -1.4349 -0.5235 0.0000
vt -1.2182 6.0419 0.0000
vt -1.2174 -0.5235 0.0000
vt -0.9930 5.8371 0.0000
vt -1.0083 -0.2935 0.0000
vt -1.8783 5.8364 0.0000
vt -1.8616 -0.2942 0.0000
vt 3.1653 8.3303 0.0000
vt 2.9436 8.1998 0.0000
vt 2.9727 3.5376 0.0000
vt 3.1767 3.1910 0.0000
vt 3.3828 8.3308 0.0000
vt 3.3942 3.1915 0.0000
vt 3.5967 3.5391 0.0000
vt 3.6050 8.2014 0.0000
vt 2.7261 8.1985 0.0000
vt 2.7552 3.5363 0.0000
# 256 texture coords

g Railing_Panel_107
usemtl Material__27
s 1
f 1/1/1 2/2/1 3/3/1 4/4/1 
f 5/5/2 1/1/2 4/4/2 6/6/2 
f 7/7/3 5/5/3 6/6/3 8/8/3 
f 2/2/4 7/9/4 8/10/4 3/3/4 
f 9/11/1 10/12/1 11/13/1 12/14/1 
f 13/15/2 9/11/2 12/14/2 14/16/2 
f 15/17/3 13/15/3 14/16/3 16/18/3 
f 10/12/4 15/19/4 16/20/4 11/13/4 
f 8/8/5 6/6/5 4/21/5 3/22/5 
f 16/18/5 14/16/5 12/23/5 11/24/5 
f 17/25/5 18/26/5 19/27/5 20/28/5 
f 21/29/6 22/30/6 23/31/6 24/32/6 
f 17/33/4 20/34/4 22/30/4 21/29/4 
f 20/28/1 19/27/1 23/31/1 22/30/1 
f 19/35/2 18/36/2 24/32/2 23/31/2 
f 18/37/3 17/38/3 21/29/3 24/32/3 
f 25/39/5 26/40/5 27/41/5 28/42/5 
f 29/43/6 15/44/6 5/45/6 30/46/6 
f 25/47/4 28/48/4 15/44/4 29/43/4 
f 28/42/1 27/41/1 5/45/1 15/44/1 
f 27/49/2 26/50/2 30/46/2 5/45/2 
f 26/40/3 25/39/3 29/51/3 30/52/3 
f 31/53/5 32/54/5 6/55/5 16/56/5 
f 33/57/6 34/58/6 35/59/6 36/60/6 
f 31/61/4 16/62/4 34/58/4 33/57/4 
f 16/56/1 6/55/1 35/59/1 34/58/1 
f 6/63/2 32/64/2 36/60/2 35/59/2 
f 32/65/3 31/66/3 33/57/3 36/60/3 
f 37/67/1 38/68/1 39/69/1 40/70/1 
f 41/71/2 37/67/2 40/70/2 42/72/2 
f 43/73/3 41/71/3 42/72/3 44/74/3 
f 38/68/4 43/75/4 44/76/4 39/69/4 
f 45/77/1 46/78/1 47/79/1 48/80/1 
f 49/81/7 46/78/7 45/77/7 50/82/7 
f 51/83/3 49/81/3 50/82/3 52/84/3 
f 47/79/8 51/85/8 52/86/8 48/80/8 
f 53/87/1 54/88/1 55/89/1 56/90/1 
f 57/91/9 54/88/9 53/87/9 58/92/9 
f 59/93/3 57/91/3 58/92/3 60/94/3 
f 55/89/10 59/95/10 60/96/10 56/90/10 
f 61/97/1 62/98/1 63/99/1 64/100/1 
f 65/101/11 62/98/11 61/97/11 66/102/11 
f 67/103/3 65/101/3 66/102/3 68/104/3 
f 63/99/12 67/105/12 68/106/12 64/100/12 
f 69/107/1 70/108/1 71/109/1 72/110/1 
f 73/111/13 70/108/13 69/107/13 74/112/13 
f 75/113/3 73/111/3 74/112/3 76/114/3 
f 71/109/14 75/115/14 76/116/14 72/110/14 
f 77/117/1 78/118/1 79/119/1 80/120/1 
f 81/121/15 78/118/15 77/117/15 82/122/15 
f 83/123/3 81/121/3 82/122/3 84/124/3 
f 79/119/16 83/125/16 84/126/16 80/120/16 
f 85/127/1 86/128/1 87/129/1 88/130/1 
f 89/131/17 86/128/17 85/127/17 90/132/17 
f 91/133/3 89/131/3 90/132/3 92/134/3 
f 87/129/18 91/135/18 92/136/18 88/130/18 
f 93/137/1 94/138/1 95/139/1 96/140/1 
f 97/141/19 94/138/19 93/137/19 98/142/19 
f 99/143/3 97/141/3 98/142/3 100/144/3 
f 95/139/20 99/145/20 100/146/20 96/140/20 
f 101/147/1 102/148/1 103/149/1 104/150/1 
f 105/151/21 101/147/21 104/150/21 106/152/21 
f 107/153/3 108/154/3 105/151/3 106/152/3 
f 102/148/22 108/155/22 107/156/22 103/149/22 
f 109/157/1 110/158/1 111/159/1 112/160/1 
f 113/161/23 109/157/23 112/160/23 114/162/23 
f 115/163/3 116/164/3 113/161/3 114/162/3 
f 110/158/24 116/165/24 115/166/24 111/159/24 
f 117/167/1 118/168/1 119/169/1 120/170/1 
f 121/171/25 117/167/25 120/170/25 122/172/25 
f 123/173/3 124/174/3 121/171/3 122/172/3 
f 118/168/26 124/175/26 123/176/26 119/169/26 
f 125/177/1 126/178/1 127/179/1 128/180/1 
f 129/181/27 125/177/27 128/180/27 130/182/27 
f 131/183/3 132/184/3 129/181/3 130/182/3 
f 126/178/28 132/185/28 131/186/28 127/179/28 
f 133/187/1 134/188/1 135/189/1 136/190/1 
f 137/191/29 133/187/29 136/190/29 138/192/29 
f 139/193/3 140/194/3 137/191/3 138/192/3 
f 134/188/30 140/195/30 139/196/30 135/189/30 
f 141/197/1 142/198/1 143/199/1 144/200/1 
f 145/201/31 141/197/31 144/200/31 146/202/31 
f 147/203/3 148/204/3 145/201/3 146/202/3 
f 142/198/32 148/205/32 147/206/32 143/199/32 
f 149/207/1 150/208/1 151/209/1 152/210/1 
f 153/211/33 149/207/33 152/210/33 154/212/33 
f 155/213/3 156/214/3 153/211/3 154/212/3 
f 150/208/34 156/215/34 155/216/34 151/209/34 
f 157/217/1 158/218/1 159/219/1 160/220/1 
f 161/221/35 157/217/35 160/220/35 162/222/35 
f 163/223/3 161/221/3 162/222/3 164/224/3 
f 158/218/36 163/225/36 164/226/36 159/219/36 
f 165/227/1 166/228/1 167/229/1 168/230/1 
f 169/231/37 166/228/37 165/227/37 170/232/37 
f 171/233/3 169/231/3 170/232/3 172/234/3 
f 167/229/38 171/235/38 172/236/38 168/230/38 
f 173/237/1 174/238/1 175/239/1 176/240/1 
f 177/241/39 173/237/39 176/240/39 178/242/39 
f 179/243/3 177/241/3 178/242/3 180/244/3 
f 174/238/40 179/245/40 180/246/40 175/239/40 
f 181/247/1 182/248/1 183/249/1 184/250/1 
f 185/251/41 181/247/41 184/250/41 186/252/41 
f 187/253/3 188/254/3 185/251/3 186/252/3 
f 182/248/42 188/255/42 187/256/42 183/249/42 
# 104 polygons

