# 3ds Max Wavefront OBJ Exporter v0.97b - (c)2007 guruware
# File Created: 31.10.2018 18:52:30

mtllib 38.5_inch_sunburst_railing.mtl

#
# object Railing_Panel_38_5
#

v  48.8950 40.6800 4.0000
v  44.8950 40.6800 4.0000
v  44.8950 -40.6800 4.0000
v  48.8950 -40.6800 4.0000
v  48.8950 40.6800 -0.0000
v  48.8950 -40.6800 -0.0000
v  44.8950 40.6800 -0.0000
v  44.8950 -40.6800 -0.0000
v  -44.8950 40.6800 4.0000
v  -48.8950 40.6800 4.0000
v  -48.8950 -40.6800 4.0000
v  -44.8950 -40.6800 4.0000
v  -44.8950 40.6800 -0.0000
v  -44.8950 -40.6800 -0.0000
v  -48.8950 40.6800 -0.0000
v  -48.8950 -40.6800 -0.0000
v  -48.8950 40.6800 -6.3500
v  48.8950 40.6800 -6.3500
v  48.8950 40.6800 6.3500
v  -48.8950 40.6800 6.3500
v  -48.8950 45.6800 -6.3500
v  -48.8950 45.6800 6.3500
v  48.8950 45.6800 6.3500
v  48.8950 45.6800 -6.3500
v  -48.8950 33.1800 -4.0000
v  48.8950 33.1800 -4.0000
v  48.8950 33.1800 -0.0000
v  -48.8950 33.1800 -0.0000
v  -48.8950 40.6800 -4.0000
v  48.8950 40.6800 -4.0000
v  -48.8950 -40.6800 -4.0000
v  48.8950 -40.6800 -4.0000
v  -48.8950 -33.1800 -4.0000
v  -48.8950 -33.1800 -0.0000
v  48.8950 -33.1800 -0.0000
v  48.8950 -33.1800 -4.0000
v  1.9998 40.6800 4.0000
v  -2.0002 40.6800 4.0000
v  -2.0001 -40.6800 4.0000
v  1.9999 -40.6800 4.0000
v  1.9998 40.6800 -0.0000
v  1.9999 -40.6800 -0.0000
v  -2.0002 40.6800 -0.0000
v  -2.0001 -40.6800 -0.0000
v  7.0568 -40.6800 4.0000
v  15.7875 40.6800 4.0000
v  11.7645 40.6800 4.0000
v  3.0339 -40.6800 4.0000
v  15.7875 40.6800 -0.0000
v  7.0568 -40.6800 -0.0000
v  11.7645 40.6800 -0.0000
v  3.0339 -40.6800 -0.0000
v  12.2549 -40.6800 4.0000
v  29.9198 40.6800 4.0000
v  25.8266 40.6800 4.0000
v  8.1617 -40.6800 4.0000
v  29.9198 40.6800 -0.0000
v  12.2549 -40.6800 -0.0000
v  25.8266 40.6800 -0.0000
v  8.1617 -40.6800 -0.0000
v  17.5251 -40.6800 4.0000
v  44.7504 40.6800 4.0000
v  40.5355 40.6800 4.0000
v  13.3102 -40.6800 4.0000
v  44.7504 40.6800 -0.0000
v  17.5251 -40.6800 -0.0000
v  40.5355 40.6800 -0.0000
v  13.3102 -40.6800 -0.0000
v  -11.7649 40.6800 4.0000
v  -15.7879 40.6800 4.0000
v  -7.0570 -40.6800 4.0000
v  -3.0340 -40.6800 4.0000
v  -11.7649 40.6800 -0.0000
v  -3.0340 -40.6800 -0.0000
v  -7.0570 -40.6800 -0.0000
v  -15.7879 40.6800 -0.0000
v  -25.8270 40.6800 4.0000
v  -29.9202 40.6800 4.0000
v  -12.2551 -40.6800 4.0000
v  -8.1619 -40.6800 4.0000
v  -25.8270 40.6800 -0.0000
v  -8.1619 -40.6800 -0.0000
v  -12.2551 -40.6800 -0.0000
v  -29.9202 40.6800 -0.0000
v  -40.5359 40.6800 4.0000
v  -44.7508 40.6800 4.0000
v  -17.5252 -40.6800 4.0000
v  -13.3103 -40.6800 4.0000
v  -40.5359 40.6800 -0.0000
v  -13.3103 -40.6800 -0.0000
v  -17.5252 -40.6800 -0.0000
v  -44.7508 40.6800 -0.0000
v  -18.5769 -40.6800 4.0000
v  -44.8950 7.6746 4.0000
v  -44.8950 -0.6002 4.0000
v  -23.2733 -40.6800 4.0000
v  -44.8950 7.6746 -0.0000
v  -18.5769 -40.6800 -0.0000
v  -44.8950 -0.6002 -0.0000
v  -23.2733 -40.6800 -0.0000
v  44.8950 -0.5996 4.0000
v  44.8950 7.6752 4.0000
v  18.5768 -40.6800 4.0000
v  23.2731 -40.6800 4.0000
v  44.8950 -0.5996 -0.0000
v  23.2731 -40.6800 -0.0000
v  18.5768 -40.6800 -0.0000
v  44.8950 7.6752 -0.0000
# 108 vertices

vn 0.0000 0.0000 1.0000
vn 1.0000 0.0000 -0.0000
vn 0.0000 0.0000 -1.0000
vn -1.0000 0.0000 -0.0000
vn 0.0000 -1.0000 -0.0000
vn 0.0000 1.0000 -0.0000
vn 0.9943 -0.1067 -0.0000
vn -0.9943 0.1067 -0.0000
vn 0.9772 -0.2122 -0.0000
vn -0.9772 0.2122 -0.0000
vn 0.9490 -0.3152 -0.0000
vn -0.9490 0.3152 -0.0000
vn 0.9943 0.1067 -0.0000
vn -0.9943 -0.1067 -0.0000
vn 0.9772 0.2122 -0.0000
vn -0.9772 -0.2122 -0.0000
vn 0.9490 0.3152 -0.0000
vn -0.9490 -0.3152 -0.0000
vn 0.8517 0.5240 -0.0000
vn -0.8517 -0.5240 -0.0000
vn 0.8517 -0.5240 -0.0000
vn -0.8517 0.5240 -0.0000
# 22 vertex normals

vt 4.0795 0.7926 0.0000
vt 3.9527 0.7926 0.0000
vt 3.9527 -1.7856 0.0000
vt 4.0795 -1.7856 0.0000
vt 4.2063 0.7926 0.0000
vt 4.2063 -1.7856 0.0000
vt 4.3330 0.7926 0.0000
vt 4.3330 -1.7856 0.0000
vt 3.8260 0.7926 0.0000
vt 3.8260 -1.7856 0.0000
vt 2.0623 0.8623 0.0000
vt 1.9356 0.8623 0.0000
vt 1.9356 -1.7159 0.0000
vt 2.0623 -1.7159 0.0000
vt 2.1891 0.8623 0.0000
vt 2.1891 -1.7159 0.0000
vt 2.3158 0.8623 0.0000
vt 2.3158 -1.7159 0.0000
vt 1.8088 0.8623 0.0000
vt 1.8088 -1.7159 0.0000
vt 4.2063 -1.9124 0.0000
vt 4.3330 -1.9124 0.0000
vt 2.1891 -1.8427 0.0000
vt 2.3158 -1.8427 0.0000
vt -1.8356 1.3726 0.0000
vt -1.8356 -1.7262 0.0000
vt -1.4331 -1.7262 0.0000
vt -1.4331 1.3726 0.0000
vt -0.8722 1.3726 0.0000
vt -1.2747 1.3726 0.0000
vt -1.2747 -1.7262 0.0000
vt -0.8722 -1.7262 0.0000
vt -0.8722 1.5310 0.0000
vt -1.2747 1.5310 0.0000
vt -1.2747 -1.8847 0.0000
vt -0.8722 -1.8847 0.0000
vt -0.7138 -1.7262 0.0000
vt -0.7138 1.3726 0.0000
vt -0.3337 1.4583 0.0000
vt -0.3337 -1.6405 0.0000
vt -0.2069 -1.6405 0.0000
vt -0.2069 1.4583 0.0000
vt 0.1575 1.4583 0.0000
vt 0.0307 1.4583 0.0000
vt 0.0307 -1.6405 0.0000
vt 0.1575 -1.6405 0.0000
vt 0.1575 1.6960 0.0000
vt 0.0307 1.6960 0.0000
vt 0.0307 -1.8782 0.0000
vt 0.1575 -1.8782 0.0000
vt -0.5713 1.4583 0.0000
vt -0.5713 -1.6405 0.0000
vt 0.2880 1.4552 0.0000
vt 0.2880 -1.6436 0.0000
vt 0.4148 -1.6436 0.0000
vt 0.4148 1.4552 0.0000
vt 0.7792 1.4552 0.0000
vt 0.6524 1.4552 0.0000
vt 0.6524 -1.6436 0.0000
vt 0.7792 -1.6436 0.0000
vt 0.7792 1.6929 0.0000
vt 0.6524 1.6929 0.0000
vt 0.6524 -1.8813 0.0000
vt 0.7792 -1.8813 0.0000
vt 1.0169 -1.6436 0.0000
vt 1.0169 1.4552 0.0000
vt 3.4011 3.5708 0.0000
vt 3.2744 3.5708 0.0000
vt 3.2744 0.9926 0.0000
vt 3.4011 0.9926 0.0000
vt 3.5279 3.5708 0.0000
vt 3.5279 0.9926 0.0000
vt 3.6546 3.5708 0.0000
vt 3.6546 0.9926 0.0000
vt 3.1476 3.5708 0.0000
vt 3.1476 0.9926 0.0000
vt 3.4011 -1.7952 0.0000
vt 3.4011 0.7978 0.0000
vt 3.2744 0.7842 0.0000
vt 3.2744 -1.8088 0.0000
vt 3.5279 0.7978 0.0000
vt 3.5279 -1.7952 0.0000
vt 3.6546 0.7842 0.0000
vt 3.6546 -1.8088 0.0000
vt 3.1476 0.7842 0.0000
vt 3.1476 -1.8088 0.0000
vt 2.7383 -1.7823 0.0000
vt 2.7383 0.8560 0.0000
vt 2.6116 0.8285 0.0000
vt 2.6116 -1.8098 0.0000
vt 2.8651 0.8560 0.0000
vt 2.8651 -1.7823 0.0000
vt 2.9918 0.8285 0.0000
vt 2.9918 -1.8098 0.0000
vt 2.4848 0.8285 0.0000
vt 2.4848 -1.8098 0.0000
vt 1.4363 -1.7810 0.0000
vt 1.4363 0.9377 0.0000
vt 1.3096 0.8954 0.0000
vt 1.3096 -1.8234 0.0000
vt 1.5630 0.9377 0.0000
vt 1.5630 -1.7810 0.0000
vt 1.6897 0.8954 0.0000
vt 1.6897 -1.8234 0.0000
vt 1.1829 0.8954 0.0000
vt 1.1829 -1.8234 0.0000
vt 2.7383 3.5752 0.0000
vt 2.6116 3.5888 0.0000
vt 2.6116 0.9958 0.0000
vt 2.7383 0.9822 0.0000
vt 2.8651 3.5752 0.0000
vt 2.8651 0.9822 0.0000
vt 2.9918 0.9958 0.0000
vt 2.9918 3.5888 0.0000
vt 2.4848 3.5888 0.0000
vt 2.4848 0.9958 0.0000
vt 2.0855 3.6971 0.0000
vt 1.9587 3.7247 0.0000
vt 1.9587 1.0864 0.0000
vt 2.0855 1.0589 0.0000
vt 2.2122 3.6971 0.0000
vt 2.2122 1.0589 0.0000
vt 2.3390 1.0864 0.0000
vt 2.3390 3.7247 0.0000
vt 1.8320 3.7246 0.0000
vt 1.8320 1.0864 0.0000
vt 1.4363 3.8161 0.0000
vt 1.3096 3.8585 0.0000
vt 1.3096 1.1398 0.0000
vt 1.4363 1.0974 0.0000
vt 1.5630 3.8161 0.0000
vt 1.5630 1.0974 0.0000
vt 1.6897 1.1398 0.0000
vt 1.6897 3.8585 0.0000
vt 1.1829 3.8585 0.0000
vt 1.1829 1.1398 0.0000
vt -0.4585 1.7742 0.0000
vt -0.4602 3.5187 0.0000
vt -0.5866 3.2882 0.0000
vt -0.5879 1.8451 0.0000
vt -0.3326 3.5187 0.0000
vt -0.3326 1.7742 0.0000
vt -0.2072 3.2884 0.0000
vt -0.2019 1.8453 0.0000
vt -0.7140 3.2882 0.0000
vt -0.7140 1.8451 0.0000
vt -1.2676 3.3178 0.0000
vt -1.3940 3.5484 0.0000
vt -1.3956 1.8038 0.0000
vt -1.2663 1.8747 0.0000
vt -1.1402 3.3178 0.0000
vt -1.1402 1.8747 0.0000
vt -1.0092 1.8040 0.0000
vt -1.0157 3.5486 0.0000
vt -1.5216 3.5484 0.0000
vt -1.5216 1.8038 0.0000
# 156 texture coords

g Railing_Panel_38_5
usemtl Material__27
s 1
f 1/1/1 2/2/1 3/3/1 4/4/1 
f 5/5/2 1/1/2 4/4/2 6/6/2 
f 7/7/3 5/5/3 6/6/3 8/8/3 
f 2/2/4 7/9/4 8/10/4 3/3/4 
f 9/11/1 10/12/1 11/13/1 12/14/1 
f 13/15/2 9/11/2 12/14/2 14/16/2 
f 15/17/3 13/15/3 14/16/3 16/18/3 
f 10/12/4 15/19/4 16/20/4 11/13/4 
f 8/8/5 6/6/5 4/21/5 3/22/5 
f 16/18/5 14/16/5 12/23/5 11/24/5 
f 17/25/5 18/26/5 19/27/5 20/28/5 
f 21/29/6 22/30/6 23/31/6 24/32/6 
f 17/33/4 20/34/4 22/30/4 21/29/4 
f 20/28/1 19/27/1 23/31/1 22/30/1 
f 19/35/2 18/36/2 24/32/2 23/31/2 
f 18/37/3 17/38/3 21/29/3 24/32/3 
f 25/39/5 26/40/5 27/41/5 28/42/5 
f 29/43/6 15/44/6 5/45/6 30/46/6 
f 25/47/4 28/48/4 15/44/4 29/43/4 
f 28/42/1 27/41/1 5/45/1 15/44/1 
f 27/49/2 26/50/2 30/46/2 5/45/2 
f 26/40/3 25/39/3 29/51/3 30/52/3 
f 31/53/5 32/54/5 6/55/5 16/56/5 
f 33/57/6 34/58/6 35/59/6 36/60/6 
f 31/61/4 16/62/4 34/58/4 33/57/4 
f 16/56/1 6/55/1 35/59/1 34/58/1 
f 6/63/2 32/64/2 36/60/2 35/59/2 
f 32/65/3 31/66/3 33/57/3 36/60/3 
f 37/67/1 38/68/1 39/69/1 40/70/1 
f 41/71/2 37/67/2 40/70/2 42/72/2 
f 43/73/3 41/71/3 42/72/3 44/74/3 
f 38/68/4 43/75/4 44/76/4 39/69/4 
f 45/77/1 46/78/1 47/79/1 48/80/1 
f 49/81/7 46/78/7 45/77/7 50/82/7 
f 51/83/3 49/81/3 50/82/3 52/84/3 
f 47/79/8 51/85/8 52/86/8 48/80/8 
f 53/87/1 54/88/1 55/89/1 56/90/1 
f 57/91/9 54/88/9 53/87/9 58/92/9 
f 59/93/3 57/91/3 58/92/3 60/94/3 
f 55/89/10 59/95/10 60/96/10 56/90/10 
f 61/97/1 62/98/1 63/99/1 64/100/1 
f 65/101/11 62/98/11 61/97/11 66/102/11 
f 67/103/3 65/101/3 66/102/3 68/104/3 
f 63/99/12 67/105/12 68/106/12 64/100/12 
f 69/107/1 70/108/1 71/109/1 72/110/1 
f 73/111/13 69/107/13 72/110/13 74/112/13 
f 75/113/3 76/114/3 73/111/3 74/112/3 
f 70/108/14 76/115/14 75/116/14 71/109/14 
f 77/117/1 78/118/1 79/119/1 80/120/1 
f 81/121/15 77/117/15 80/120/15 82/122/15 
f 83/123/3 84/124/3 81/121/3 82/122/3 
f 78/118/16 84/125/16 83/126/16 79/119/16 
f 85/127/1 86/128/1 87/129/1 88/130/1 
f 89/131/17 85/127/17 88/130/17 90/132/17 
f 91/133/3 92/134/3 89/131/3 90/132/3 
f 86/128/18 92/135/18 91/136/18 87/129/18 
f 93/137/1 94/138/1 95/139/1 96/140/1 
f 97/141/19 94/138/19 93/137/19 98/142/19 
f 99/143/3 97/141/3 98/142/3 100/144/3 
f 95/139/20 99/145/20 100/146/20 96/140/20 
f 101/147/1 102/148/1 103/149/1 104/150/1 
f 105/151/21 101/147/21 104/150/21 106/152/21 
f 107/153/3 108/154/3 105/151/3 106/152/3 
f 102/148/22 108/155/22 107/156/22 103/149/22 
# 64 polygons

