# 3ds Max Wavefront OBJ Exporter v0.97b - (c)2007 guruware
# File Created: 31.10.2018 18:50:21

mtllib 47_inch_sunburst_railing.mtl

#
# object Railing_Panel_47
#

v  59.6900 40.6800 4.0000
v  55.6900 40.6800 4.0000
v  55.6900 -40.6800 4.0000
v  59.6900 -40.6800 4.0000
v  59.6900 40.6800 -0.0000
v  59.6900 -40.6800 -0.0000
v  55.6900 40.6800 -0.0000
v  55.6900 -40.6800 -0.0000
v  -55.6900 40.6800 4.0000
v  -59.6900 40.6800 4.0000
v  -59.6900 -40.6800 4.0000
v  -55.6900 -40.6800 4.0000
v  -55.6900 40.6800 -0.0000
v  -55.6900 -40.6800 -0.0000
v  -59.6900 40.6800 -0.0000
v  -59.6900 -40.6800 -0.0000
v  -59.6900 40.6800 -6.3500
v  59.6900 40.6800 -6.3500
v  59.6900 40.6800 6.3500
v  -59.6900 40.6800 6.3500
v  -59.6900 45.6800 -6.3500
v  -59.6900 45.6800 6.3500
v  59.6900 45.6800 6.3500
v  59.6900 45.6800 -6.3500
v  -59.6900 33.1800 -4.0000
v  59.6900 33.1800 -4.0000
v  59.6900 33.1800 -0.0000
v  -59.6900 33.1800 -0.0000
v  -59.6900 40.6800 -4.0000
v  59.6900 40.6800 -4.0000
v  -59.6900 -40.6800 -4.0000
v  59.6900 -40.6800 -4.0000
v  -59.6900 -33.1800 -4.0000
v  -59.6900 -33.1800 -0.0000
v  59.6900 -33.1800 -0.0000
v  59.6900 -33.1800 -4.0000
v  1.9998 40.6800 4.0000
v  -2.0002 40.6800 4.0000
v  -2.0001 -40.6800 4.0000
v  1.9999 -40.6800 4.0000
v  1.9998 40.6800 -0.0000
v  1.9999 -40.6800 -0.0000
v  -2.0002 40.6800 -0.0000
v  -2.0001 -40.6800 -0.0000
v  7.0568 -40.6800 4.0000
v  15.7875 40.6800 4.0000
v  11.7645 40.6800 4.0000
v  3.0339 -40.6800 4.0000
v  15.7875 40.6800 -0.0000
v  7.0568 -40.6800 -0.0000
v  11.7645 40.6800 -0.0000
v  3.0339 -40.6800 -0.0000
v  12.2549 -40.6800 4.0000
v  29.9198 40.6800 4.0000
v  25.8266 40.6800 4.0000
v  8.1617 -40.6800 4.0000
v  29.9198 40.6800 -0.0000
v  12.2549 -40.6800 -0.0000
v  25.8266 40.6800 -0.0000
v  8.1617 -40.6800 -0.0000
v  17.7251 -40.6800 4.0000
v  44.7504 40.6800 4.0000
v  40.5355 40.6800 4.0000
v  13.5102 -40.6800 4.0000
v  44.7504 40.6800 -0.0000
v  17.7251 -40.6800 -0.0000
v  40.5355 40.6800 -0.0000
v  13.5102 -40.6800 -0.0000
v  23.6247 -40.6800 4.0000
v  55.6900 31.0746 4.0000
v  55.6717 40.6800 4.0000
v  19.2289 -40.6800 4.0000
v  55.6717 40.6800 -0.0000
v  19.2289 -40.6800 -0.0000
v  -11.7649 40.6800 4.0000
v  -15.7879 40.6800 4.0000
v  -7.0570 -40.6800 4.0000
v  -3.0340 -40.6800 4.0000
v  -11.7649 40.6800 -0.0000
v  -3.0340 -40.6800 -0.0000
v  -7.0570 -40.6800 -0.0000
v  -15.7879 40.6800 -0.0000
v  -25.8270 40.6800 4.0000
v  -29.9202 40.6800 4.0000
v  -12.2551 -40.6800 4.0000
v  -8.1619 -40.6800 4.0000
v  -25.8270 40.6800 -0.0000
v  -8.1619 -40.6800 -0.0000
v  -12.2551 -40.6800 -0.0000
v  -29.9202 40.6800 -0.0000
v  -40.5359 40.6800 4.0000
v  -44.7508 40.6800 4.0000
v  -17.7252 -40.6800 4.0000
v  -13.5103 -40.6800 4.0000
v  -40.5359 40.6800 -0.0000
v  -13.5103 -40.6800 -0.0000
v  -17.7252 -40.6800 -0.0000
v  -44.7508 40.6800 -0.0000
v  -55.6721 40.6800 -0.0000
v  -55.6721 40.6800 4.0000
v  -19.2290 -40.6800 4.0000
v  -19.2290 -40.6800 -0.0000
v  -23.6248 -40.6800 -0.0000
v  -55.6900 31.0737 -0.0000
v  -55.6900 40.7194 4.0000
v  -55.6900 40.7194 -0.0000
v  -55.6900 31.0737 4.0000
v  -23.6248 -40.6800 4.0000
v  -26.5769 -40.6800 4.0000
v  -55.6900 7.6746 4.0000
v  -55.6900 0.0408 4.0000
v  -31.2733 -40.6800 4.0000
v  -55.6900 7.6746 -0.0000
v  -26.5769 -40.6800 -0.0000
v  -55.6900 0.0408 -0.0000
v  -31.2733 -40.6800 -0.0000
v  55.6900 40.7203 4.0000
v  55.6900 40.7203 -0.0000
v  55.6900 31.0746 -0.0000
v  23.6247 -40.6800 -0.0000
v  55.6900 0.0414 4.0000
v  55.6900 7.6752 4.0000
v  26.5768 -40.6800 4.0000
v  31.2731 -40.6800 4.0000
v  55.6900 0.0414 -0.0000
v  31.2731 -40.6800 -0.0000
v  26.5768 -40.6800 -0.0000
v  55.6900 7.6752 -0.0000
# 128 vertices

vn 0.0000 0.0000 1.0000
vn 1.0000 0.0000 -0.0000
vn 0.0000 0.0000 -1.0000
vn -1.0000 0.0000 -0.0000
vn 0.0000 -1.0000 -0.0000
vn 0.0000 1.0000 -0.0000
vn 0.9943 -0.1067 -0.0000
vn -0.9943 0.1067 -0.0000
vn 0.9772 -0.2122 -0.0000
vn -0.9772 0.2122 -0.0000
vn 0.9490 -0.3152 -0.0000
vn -0.9490 0.3152 -0.0000
vn -0.9100 0.4147 -0.0000
vn 0.9943 0.1067 -0.0000
vn -0.9943 -0.1067 -0.0000
vn 0.9772 0.2122 -0.0000
vn -0.9772 -0.2122 -0.0000
vn 0.9490 0.3152 -0.0000
vn -0.9490 -0.3152 -0.0000
vn 0.9100 0.4147 -0.0000
vn -0.9100 -0.4147 -0.0000
vn 0.8517 0.5240 -0.0000
vn -0.8517 -0.5240 -0.0000
vn 0.9100 -0.4147 -0.0000
vn 0.8517 -0.5240 -0.0000
vn -0.8517 0.5240 -0.0000
# 26 vertex normals

vt 2.9909 0.3630 0.0000
vt 2.8683 0.3630 0.0000
vt 2.8683 -2.1312 0.0000
vt 2.9909 -2.1312 0.0000
vt 3.1329 0.3630 0.0000
vt 3.1362 -2.1312 0.0000
vt 3.2654 0.3630 0.0000
vt 3.2654 -2.1312 0.0000
vt 2.7553 0.3630 0.0000
vt 2.7553 -2.1312 0.0000
vt 2.4171 0.3632 0.0000
vt 2.2945 0.3632 0.0000
vt 2.2945 -2.1311 0.0000
vt 2.4171 -2.1311 0.0000
vt 2.5204 0.3632 0.0000
vt 2.5171 -2.1311 0.0000
vt 2.6332 0.3632 0.0000
vt 2.6332 -2.1311 0.0000
vt 2.1622 0.3632 0.0000
vt 2.1622 -2.1311 0.0000
vt 3.1428 -2.2538 0.0000
vt 3.2654 -2.2538 0.0000
vt 2.5105 -2.2538 0.0000
vt 2.6332 -2.2538 0.0000
vt -1.8073 1.6359 0.0000
vt -1.8073 -1.9864 0.0000
vt -1.4199 -1.9868 0.0000
vt -1.4219 1.6359 0.0000
vt -0.8848 1.6736 0.0000
vt -1.2690 1.6739 0.0000
vt -1.2703 -2.0247 0.0000
vt -0.8861 -2.0250 0.0000
vt -0.8848 1.9032 0.0000
vt -1.2703 1.9032 0.0000
vt -1.2703 -2.2538 0.0000
vt -0.8848 -2.2538 0.0000
vt -0.7331 -1.9864 0.0000
vt -0.7369 1.6367 0.0000
vt -0.4019 1.7295 0.0000
vt -0.4019 -1.9090 0.0000
vt -0.2787 -1.9092 0.0000
vt -0.2801 1.7294 0.0000
vt 0.0718 1.7868 0.0000
vt -0.0505 1.7676 0.0000
vt -0.0505 -1.9477 0.0000
vt 0.0705 -1.9669 0.0000
vt 0.0705 2.0742 0.0000
vt -0.0514 2.0742 0.0000
vt -0.0514 -2.2538 0.0000
vt 0.0705 -2.2538 0.0000
vt -0.6305 1.7295 0.0000
vt -0.6305 -1.9090 0.0000
vt 0.1732 1.7241 0.0000
vt 0.1732 -1.9095 0.0000
vt 0.2962 -1.9097 0.0000
vt 0.2949 1.7241 0.0000
vt 0.6449 1.7620 0.0000
vt 0.5240 1.7621 0.0000
vt 0.5231 -1.9480 0.0000
vt 0.6440 -1.9481 0.0000
vt 0.6449 2.0683 0.0000
vt 0.5231 2.0683 0.0000
vt 0.5231 -2.2538 0.0000
vt 0.6449 -2.2538 0.0000
vt 0.8732 -1.9095 0.0000
vt 0.8706 1.7244 0.0000
vt 4.1870 2.9220 0.0000
vt 4.0643 2.9220 0.0000
vt 4.0643 0.4278 0.0000
vt 4.1870 0.4278 0.0000
vt 4.3096 2.9220 0.0000
vt 4.3096 0.4278 0.0000
vt 4.4322 2.9220 0.0000
vt 4.4322 0.4278 0.0000
vt 3.9417 2.9220 0.0000
vt 3.9417 0.4278 0.0000
vt 4.1870 -2.2406 0.0000
vt 4.1870 0.2679 0.0000
vt 4.0643 0.2547 0.0000
vt 4.0643 -2.2538 0.0000
vt 4.3096 0.2679 0.0000
vt 4.3096 -2.2406 0.0000
vt 4.4322 0.2548 0.0000
vt 4.4322 -2.2538 0.0000
vt 3.9417 0.2547 0.0000
vt 3.9417 -2.2538 0.0000
vt 3.5938 -2.2272 0.0000
vt 3.5938 0.3252 0.0000
vt 3.4711 0.2985 0.0000
vt 3.4712 -2.2538 0.0000
vt 3.7164 0.3252 0.0000
vt 3.7164 -2.2272 0.0000
vt 3.8390 0.2985 0.0000
vt 3.8390 -2.2538 0.0000
vt 3.3485 0.2985 0.0000
vt 3.3485 -2.2538 0.0000
vt 1.8143 -2.2130 0.0000
vt 1.8143 0.4152 0.0000
vt 1.6917 0.3744 0.0000
vt 1.6917 -2.2538 0.0000
vt 1.9369 0.4152 0.0000
vt 1.9369 -2.2130 0.0000
vt 2.0595 0.3744 0.0000
vt 2.0596 -2.2538 0.0000
vt 1.5690 0.3744 0.0000
vt 1.5690 -2.2538 0.0000
vt 1.2211 -2.1979 0.0000
vt 1.2091 0.2113 0.0000
vt 1.0865 0.4790 0.0000
vt 1.0985 -2.2538 0.0000
vt 1.0817 0.4771 0.0000
vt 0.9759 0.4791 0.0000
vt 0.9759 -2.2538 0.0000
vt 3.5938 2.9363 0.0000
vt 3.4711 2.9495 0.0000
vt 3.4712 0.4410 0.0000
vt 3.5938 0.4278 0.0000
vt 3.7164 2.9364 0.0000
vt 3.7164 0.4278 0.0000
vt 3.8390 0.4410 0.0000
vt 3.8390 2.9495 0.0000
vt 3.3485 2.9495 0.0000
vt 3.3485 0.4410 0.0000
vt 3.0006 3.0180 0.0000
vt 2.8780 3.0446 0.0000
vt 2.8780 0.4923 0.0000
vt 3.0006 0.4657 0.0000
vt 3.1232 3.0180 0.0000
vt 3.1232 0.4657 0.0000
vt 3.2459 0.4923 0.0000
vt 3.2459 3.0446 0.0000
vt 2.7553 3.0446 0.0000
vt 2.7553 0.4923 0.0000
vt 1.8143 3.1460 0.0000
vt 1.6917 3.1868 0.0000
vt 1.6917 0.5585 0.0000
vt 1.8143 0.5178 0.0000
vt 1.9369 3.1460 0.0000
vt 1.9369 0.5178 0.0000
vt 2.0596 0.5585 0.0000
vt 2.0595 3.1868 0.0000
vt 1.5690 3.1868 0.0000
vt 1.5690 0.5585 0.0000
vt 1.3310 3.3226 0.0000
vt 1.2329 3.3234 0.0000
vt 1.2211 0.5901 0.0000
vt 1.3438 0.5901 0.0000
vt 1.4664 0.6460 0.0000
vt 1.4474 3.0547 0.0000
vt 1.3230 3.3242 0.0000
vt 0.1874 2.1987 0.0000
vt 0.1795 2.2021 0.0000
vt 0.1803 2.2032 0.0000
vt 0.2789 2.1676 0.0000
vt 0.2789 2.1674 0.0000
vt 0.2719 2.1695 0.0000
vt 1.1102 3.0554 0.0000
vt 1.0985 0.6460 0.0000
vt 1.2380 3.3234 0.0000
vt 0.9759 3.0553 0.0000
vt 0.9759 0.6460 0.0000
vt -0.4612 1.9152 0.0000
vt -0.4529 3.6455 0.0000
vt -0.5755 3.4462 0.0000
vt -0.5838 1.9907 0.0000
vt -0.3468 3.6455 0.0000
vt -0.3385 1.9152 0.0000
vt -0.2325 3.4462 0.0000
vt -0.2159 1.9907 0.0000
vt -0.7064 3.4462 0.0000
vt -0.7064 1.9907 0.0000
vt 1.0898 3.4276 0.0000
vt 1.0898 3.4267 0.0000
vt 1.0820 3.4265 0.0000
vt -0.6131 3.8290 0.0000
vt -0.6128 3.8266 0.0000
vt -0.6136 3.8281 0.0000
vt 0.9759 3.4276 0.0000
vt 0.9759 3.4263 0.0000
vt 1.3557 0.2113 0.0000
vt 1.3438 -2.1979 0.0000
vt 1.4839 0.4780 0.0000
vt 1.4664 -2.2538 0.0000
vt 1.4842 0.4792 0.0000
vt -1.6463 3.3933 0.0000
vt -1.7690 3.5927 0.0000
vt -1.7607 1.8624 0.0000
vt -1.6380 1.9378 0.0000
vt -1.5071 3.3933 0.0000
vt -1.5154 1.9378 0.0000
vt -1.3928 1.8624 0.0000
vt -1.3762 3.5927 0.0000
vt -1.8833 3.5927 0.0000
vt -1.8833 1.8624 0.0000
# 194 texture coords

g Railing_Panel_47
usemtl Material__27
s 1
f 1/1/1 2/2/1 3/3/1 4/4/1 
f 5/5/2 1/1/2 4/4/2 6/6/2 
f 7/7/3 5/5/3 6/6/3 8/8/3 
f 2/2/4 7/9/4 8/10/4 3/3/4 
f 9/11/1 10/12/1 11/13/1 12/14/1 
f 13/15/2 9/11/2 12/14/2 14/16/2 
f 15/17/3 13/15/3 14/16/3 16/18/3 
f 10/12/4 15/19/4 16/20/4 11/13/4 
f 8/8/5 6/6/5 4/21/5 3/22/5 
f 16/18/5 14/16/5 12/23/5 11/24/5 
f 17/25/5 18/26/5 19/27/5 20/28/5 
f 21/29/6 22/30/6 23/31/6 24/32/6 
f 17/33/4 20/34/4 22/30/4 21/29/4 
f 20/28/1 19/27/1 23/31/1 22/30/1 
f 19/35/2 18/36/2 24/32/2 23/31/2 
f 18/37/3 17/38/3 21/29/3 24/32/3 
f 25/39/5 26/40/5 27/41/5 28/42/5 
f 29/43/6 15/44/6 5/45/6 30/46/6 
f 25/47/4 28/48/4 15/44/4 29/43/4 
f 28/42/1 27/41/1 5/45/1 15/44/1 
f 27/49/2 26/50/2 30/46/2 5/45/2 
f 26/40/3 25/39/3 29/51/3 30/52/3 
f 31/53/5 32/54/5 6/55/5 16/56/5 
f 33/57/6 34/58/6 35/59/6 36/60/6 
f 31/61/4 16/62/4 34/58/4 33/57/4 
f 16/56/1 6/55/1 35/59/1 34/58/1 
f 6/63/2 32/64/2 36/60/2 35/59/2 
f 32/65/3 31/66/3 33/57/3 36/60/3 
f 37/67/1 38/68/1 39/69/1 40/70/1 
f 41/71/2 37/67/2 40/70/2 42/72/2 
f 43/73/3 41/71/3 42/72/3 44/74/3 
f 38/68/4 43/75/4 44/76/4 39/69/4 
f 45/77/1 46/78/1 47/79/1 48/80/1 
f 49/81/7 46/78/7 45/77/7 50/82/7 
f 51/83/3 49/81/3 50/82/3 52/84/3 
f 47/79/8 51/85/8 52/86/8 48/80/8 
f 53/87/1 54/88/1 55/89/1 56/90/1 
f 57/91/9 54/88/9 53/87/9 58/92/9 
f 59/93/3 57/91/3 58/92/3 60/94/3 
f 55/89/10 59/95/10 60/96/10 56/90/10 
f 61/97/1 62/98/1 63/99/1 64/100/1 
f 65/101/11 62/98/11 61/97/11 66/102/11 
f 67/103/3 65/101/3 66/102/3 68/104/3 
f 63/99/12 67/105/12 68/106/12 64/100/12 
f 69/107/1 70/108/1 71/109/1 72/110/1 
f 71/109/1 70/108/1 2/111/1 
f 71/109/13 73/112/13 74/113/13 72/110/13 
f 75/114/1 76/115/1 77/116/1 78/117/1 
f 79/118/14 75/114/14 78/117/14 80/119/14 
f 81/120/3 82/121/3 79/118/3 80/119/3 
f 76/115/15 82/122/15 81/123/15 77/116/15 
f 83/124/1 84/125/1 85/126/1 86/127/1 
f 87/128/16 83/124/16 86/127/16 88/129/16 
f 89/130/3 90/131/3 87/128/3 88/129/3 
f 84/125/17 90/132/17 89/133/17 85/126/17 
f 91/134/1 92/135/1 93/136/1 94/137/1 
f 95/138/18 91/134/18 94/137/18 96/139/18 
f 97/140/3 98/141/3 95/138/3 96/139/3 
f 92/135/19 98/142/19 97/143/19 93/136/19 
f 99/144/20 100/145/20 101/146/20 102/147/20 
f 103/148/3 104/149/3 99/144/3 102/147/3 
f 99/144/3 104/149/3 13/150/3 
f 9/151/1 100/152/1 105/153/1 
f 106/154/20 105/153/20 100/152/20 99/155/20 
f 106/154/3 99/155/3 13/156/3 
f 100/145/1 107/157/1 108/158/1 101/146/1 
f 107/157/1 100/145/1 9/159/1 
f 107/157/21 104/160/21 103/161/21 108/158/21 
f 109/162/1 110/163/1 111/164/1 112/165/1 
f 113/166/22 110/163/22 109/162/22 114/167/22 
f 115/168/3 113/166/3 114/167/3 116/169/3 
f 111/164/23 115/170/23 116/171/23 112/165/23 
f 117/172/1 71/173/1 2/174/1 
f 7/175/3 73/176/3 118/177/3 
f 117/172/13 118/178/13 73/179/13 71/173/13 
f 119/180/24 70/108/24 69/107/24 120/181/24 
f 73/182/3 119/180/3 120/181/3 74/183/3 
f 119/180/3 73/182/3 7/184/3 
f 121/185/1 122/186/1 123/187/1 124/188/1 
f 125/189/25 121/185/25 124/188/25 126/190/25 
f 127/191/3 128/192/3 125/189/3 126/190/3 
f 122/186/26 128/193/26 127/194/26 123/187/26 
# 74 polygons - 8 triangles

