# 3ds Max Wavefront OBJ Exporter v0.97b - (c)2007 guruware
# File Created: 31.10.2018 18:51:11

mtllib 49_inch_sunburst_railing.mtl

#
# object Railing_Panel_49
#

v  58.2300 -40.6800 4.0000
v  62.2300 -40.6800 4.0000
v  62.2300 40.6800 4.0000
v  58.2300 40.6800 4.0000
v  62.2300 -40.6800 -0.0000
v  62.2300 40.6800 -0.0000
v  58.2300 -40.6800 -0.0000
v  58.2300 40.6800 -0.0000
v  -62.2300 -40.6800 4.0000
v  -58.2300 -40.6800 4.0000
v  -58.2300 40.6800 4.0000
v  -62.2300 40.6800 4.0000
v  -58.2300 -40.6800 -0.0000
v  -58.2300 40.6800 -0.0000
v  -62.2300 -40.6800 -0.0000
v  -62.2300 40.6800 -0.0000
v  62.2300 40.6800 6.3500
v  -62.2300 40.6800 6.3500
v  -62.2300 40.6800 -6.3500
v  62.2300 40.6800 -6.3500
v  62.2300 45.6800 6.3500
v  62.2300 45.6800 -6.3500
v  -62.2300 45.6800 -6.3500
v  -62.2300 45.6800 6.3500
v  62.2300 33.1800 -0.0000
v  -62.2300 33.1800 -0.0000
v  -62.2300 33.1800 -4.0000
v  62.2300 33.1800 -4.0000
v  62.2300 40.6800 -4.0000
v  -62.2300 40.6800 -4.0000
v  -62.2300 -40.6800 -4.0000
v  62.2300 -40.6800 -4.0000
v  62.2300 -33.1800 -0.0000
v  62.2300 -33.1800 -4.0000
v  -62.2300 -33.1800 -4.0000
v  -62.2300 -33.1800 -0.0000
v  -2.0001 -40.6800 4.0000
v  1.9999 -40.6800 4.0000
v  1.9998 40.6800 4.0000
v  -2.0002 40.6800 4.0000
v  1.9999 -40.6800 -0.0000
v  1.9998 40.6800 -0.0000
v  -2.0001 -40.6800 -0.0000
v  -2.0002 40.6800 -0.0000
v  11.7645 40.6800 4.0000
v  3.0339 -40.6800 4.0000
v  7.0568 -40.6800 4.0000
v  15.7875 40.6800 4.0000
v  7.0568 -40.6800 -0.0000
v  15.7875 40.6800 -0.0000
v  3.0339 -40.6800 -0.0000
v  11.7645 40.6800 -0.0000
v  25.8266 40.6800 4.0000
v  8.1617 -40.6800 4.0000
v  12.2549 -40.6800 4.0000
v  29.9198 40.6800 4.0000
v  12.2549 -40.6800 -0.0000
v  29.9198 40.6800 -0.0000
v  8.1617 -40.6800 -0.0000
v  25.8266 40.6800 -0.0000
v  41.5355 40.6800 4.0000
v  13.5102 -40.6800 4.0000
v  17.7251 -40.6800 4.0000
v  45.7504 40.6800 4.0000
v  17.7251 -40.6800 -0.0000
v  45.7504 40.6800 -0.0000
v  13.5102 -40.6800 -0.0000
v  41.5355 40.6800 -0.0000
v  58.2239 40.6934 4.0000
v  19.2289 -40.6800 4.0000
v  23.6247 -40.6800 4.0000
v  58.2300 31.0746 4.0000
v  19.2289 -40.6800 -0.0000
v  58.2239 40.6934 -0.0000
v  -7.0570 -40.6800 4.0000
v  -3.0340 -40.6800 4.0000
v  -11.7649 40.6800 4.0000
v  -15.7879 40.6800 4.0000
v  -3.0340 -40.6800 -0.0000
v  -11.7649 40.6800 -0.0000
v  -7.0570 -40.6800 -0.0000
v  -15.7879 40.6800 -0.0000
v  -12.2551 -40.6800 4.0000
v  -8.1619 -40.6800 4.0000
v  -25.8270 40.6800 4.0000
v  -29.9202 40.6800 4.0000
v  -8.1619 -40.6800 -0.0000
v  -25.8270 40.6800 -0.0000
v  -12.2551 -40.6800 -0.0000
v  -29.9202 40.6800 -0.0000
v  -17.7252 -40.6800 4.0000
v  -13.5103 -40.6800 4.0000
v  -41.5359 40.6800 4.0000
v  -45.7508 40.6800 4.0000
v  -13.5103 -40.6800 -0.0000
v  -41.5359 40.6800 -0.0000
v  -17.7252 -40.6800 -0.0000
v  -45.7508 40.6800 -0.0000
v  -19.2290 -40.6800 4.0000
v  -19.2290 -40.6800 -0.0000
v  -58.2240 40.6931 -0.0000
v  -58.2240 40.6931 4.0000
v  -23.6248 -40.6800 -0.0000
v  -58.2300 31.0737 -0.0000
v  -23.6248 -40.6800 4.0000
v  -58.2300 31.0737 4.0000
v  -58.2300 0.0408 4.0000
v  -30.2733 -40.6800 4.0000
v  -25.5769 -40.6800 4.0000
v  -58.2300 7.6746 4.0000
v  -25.5769 -40.6800 -0.0000
v  -58.2300 7.6746 -0.0000
v  -30.2733 -40.6800 -0.0000
v  -58.2300 0.0408 -0.0000
v  23.6247 -40.6800 -0.0000
v  58.2300 31.0746 -0.0000
v  25.5768 -40.6800 4.0000
v  30.2731 -40.6800 4.0000
v  58.2300 0.0414 4.0000
v  58.2300 7.6752 4.0000
v  30.2731 -40.6800 -0.0000
v  58.2300 0.0414 -0.0000
v  25.5768 -40.6800 -0.0000
v  58.2300 7.6752 -0.0000
# 124 vertices

vn 0.0000 0.0000 1.0000
vn 1.0000 0.0000 -0.0000
vn 0.0000 0.0000 -1.0000
vn -1.0000 0.0000 -0.0000
vn 0.0000 -1.0000 -0.0000
vn 0.0000 1.0000 -0.0000
vn 0.9943 -0.1067 -0.0000
vn -0.9943 0.1067 -0.0000
vn 0.9772 -0.2122 -0.0000
vn -0.9772 0.2122 -0.0000
vn 0.9490 -0.3152 -0.0000
vn -0.9490 0.3152 -0.0000
vn -0.9100 0.4147 -0.0000
vn 0.9943 0.1067 -0.0000
vn -0.9943 -0.1067 -0.0000
vn 0.9772 0.2122 -0.0000
vn -0.9772 -0.2122 -0.0000
vn 0.9490 0.3152 -0.0000
vn -0.9490 -0.3152 -0.0000
vn 0.9100 0.4147 -0.0000
vn -0.9100 -0.4147 -0.0000
vn 0.8517 0.5240 -0.0000
vn -0.8517 -0.5240 -0.0000
vn 0.9100 -0.4147 -0.0000
vn 0.8517 -0.5240 -0.0000
vn -0.8517 0.5240 -0.0000
# 26 vertex normals

vt 2.8835 -2.1213 0.0000
vt 3.0049 -2.1213 0.0000
vt 3.0049 0.3478 0.0000
vt 2.8835 0.3478 0.0000
vt 3.1263 -2.1213 0.0000
vt 3.1263 0.3478 0.0000
vt 3.2477 -2.1213 0.0000
vt 3.2477 0.3478 0.0000
vt 2.7621 -2.1213 0.0000
vt 2.7621 0.3478 0.0000
vt 2.2825 -2.1212 0.0000
vt 2.4039 -2.1212 0.0000
vt 2.4039 0.3480 0.0000
vt 2.2825 0.3480 0.0000
vt 2.5253 -2.1212 0.0000
vt 2.5253 0.3480 0.0000
vt 2.6467 -2.1212 0.0000
vt 2.6467 0.3480 0.0000
vt 2.1611 -2.1212 0.0000
vt 2.1611 0.3480 0.0000
vt 3.1263 -2.2427 0.0000
vt 3.2477 -2.2427 0.0000
vt 2.5253 -2.2426 0.0000
vt 2.6467 -2.2426 0.0000
vt -1.4220 -2.0640 0.0000
vt -1.4220 1.7132 0.0000
vt -1.8074 1.7132 0.0000
vt -1.8074 -2.0640 0.0000
vt -1.2702 -2.0640 0.0000
vt -0.8848 -2.0640 0.0000
vt -0.8848 1.7132 0.0000
vt -1.2702 1.7132 0.0000
vt -0.8848 1.8649 0.0000
vt -1.2702 1.8649 0.0000
vt -1.2702 -2.2157 0.0000
vt -0.8848 -2.2157 0.0000
vt -0.7331 -2.0640 0.0000
vt -0.7331 1.7132 0.0000
vt -0.2791 -1.9785 0.0000
vt -0.2791 1.7987 0.0000
vt -0.4005 1.7987 0.0000
vt -0.4005 -1.9785 0.0000
vt -0.0515 -1.9785 0.0000
vt 0.0699 -1.9785 0.0000
vt 0.0699 1.7987 0.0000
vt -0.0515 1.7987 0.0000
vt 0.0699 2.0263 0.0000
vt -0.0515 2.0263 0.0000
vt -0.0515 -2.2061 0.0000
vt 0.0699 -2.2061 0.0000
vt -0.6281 1.7987 0.0000
vt -0.6281 -1.9785 0.0000
vt 0.2955 -1.9814 0.0000
vt 0.2955 1.7957 0.0000
vt 0.1741 1.7957 0.0000
vt 0.1741 -1.9814 0.0000
vt 0.5232 -1.9814 0.0000
vt 0.6445 -1.9814 0.0000
vt 0.6445 1.7957 0.0000
vt 0.5232 1.7957 0.0000
vt 0.6445 2.0233 0.0000
vt 0.5232 2.0233 0.0000
vt 0.5232 -2.2090 0.0000
vt 0.6445 -2.2090 0.0000
vt 0.8722 -1.9814 0.0000
vt 0.8722 1.7957 0.0000
vt 4.0656 0.4403 0.0000
vt 4.1870 0.4403 0.0000
vt 4.1870 2.9095 0.0000
vt 4.0656 2.9095 0.0000
vt 4.3084 0.4403 0.0000
vt 4.3084 2.9095 0.0000
vt 4.4298 0.4403 0.0000
vt 4.4298 2.9095 0.0000
vt 3.9442 0.4403 0.0000
vt 3.9442 2.9095 0.0000
vt 4.0656 0.2422 0.0000
vt 4.0656 -2.2411 0.0000
vt 4.1870 -2.2281 0.0000
vt 4.1870 0.2552 0.0000
vt 4.3084 -2.2281 0.0000
vt 4.3084 0.2552 0.0000
vt 4.4298 -2.2411 0.0000
vt 4.4298 0.2422 0.0000
vt 3.9442 -2.2411 0.0000
vt 3.9442 0.2422 0.0000
vt 3.4724 0.2858 0.0000
vt 3.4724 -2.2408 0.0000
vt 3.5938 -2.2145 0.0000
vt 3.5938 0.3122 0.0000
vt 3.7152 -2.2145 0.0000
vt 3.7152 0.3122 0.0000
vt 3.8366 -2.2408 0.0000
vt 3.8366 0.2858 0.0000
vt 3.3510 -2.2408 0.0000
vt 3.3510 0.2858 0.0000
vt 1.6932 0.3656 0.0000
vt 1.6932 -2.2459 0.0000
vt 1.8142 -2.2042 0.0000
vt 1.8142 0.4073 0.0000
vt 1.9356 -2.2042 0.0000
vt 1.9356 0.4073 0.0000
vt 2.0565 -2.2459 0.0000
vt 2.0565 0.3656 0.0000
vt 1.5718 -2.2459 0.0000
vt 1.5718 0.3656 0.0000
vt 1.0966 0.4801 0.0000
vt 1.0983 -2.2584 0.0000
vt 1.2202 -2.2006 0.0000
vt 1.2217 0.2171 0.0000
vt 0.9761 -2.2584 0.0000
vt 0.9761 0.4801 0.0000
vt 3.4724 0.4535 0.0000
vt 3.5938 0.4405 0.0000
vt 3.5938 2.9238 0.0000
vt 3.4724 2.9368 0.0000
vt 3.7152 0.4405 0.0000
vt 3.7152 2.9238 0.0000
vt 3.8366 0.4535 0.0000
vt 3.8366 2.9368 0.0000
vt 3.3510 0.4535 0.0000
vt 3.3510 2.9368 0.0000
vt 2.8792 0.5050 0.0000
vt 3.0006 0.4786 0.0000
vt 3.0006 3.0053 0.0000
vt 2.8792 3.0317 0.0000
vt 3.1220 0.4786 0.0000
vt 3.1220 3.0053 0.0000
vt 3.2434 0.5050 0.0000
vt 3.2434 3.0317 0.0000
vt 2.7578 0.5050 0.0000
vt 2.7578 3.0317 0.0000
vt 1.6932 0.5673 0.0000
vt 1.8142 0.5257 0.0000
vt 1.8142 3.1372 0.0000
vt 1.6932 3.1789 0.0000
vt 1.9356 0.5257 0.0000
vt 1.9356 3.1372 0.0000
vt 2.0565 0.5673 0.0000
vt 2.0565 3.1789 0.0000
vt 1.5718 0.5673 0.0000
vt 1.5718 3.1789 0.0000
vt 1.2208 0.5858 0.0000
vt 1.3430 0.5858 0.0000
vt 1.3430 3.3242 0.0000
vt 1.2225 3.3242 0.0000
vt 1.4633 0.6434 0.0000
vt 1.4693 3.0610 0.0000
vt 1.0989 0.6436 0.0000
vt 1.0974 3.0612 0.0000
vt 0.9768 0.6436 0.0000
vt 0.9768 3.0612 0.0000
vt -0.5860 3.4711 0.0000
vt -0.5831 1.9721 0.0000
vt -0.4622 1.8919 0.0000
vt -0.4588 3.6626 0.0000
vt -0.3391 1.8919 0.0000
vt -0.3391 3.6627 0.0000
vt -0.2209 1.9717 0.0000
vt -0.2094 3.4707 0.0000
vt -0.7060 1.9721 0.0000
vt -0.7060 3.4711 0.0000
vt 1.3423 -2.2006 0.0000
vt 1.3423 0.2171 0.0000
vt 1.4625 -2.2585 0.0000
vt 1.4693 0.4799 0.0000
vt -1.7598 1.8391 0.0000
vt -1.6388 1.9193 0.0000
vt -1.6359 3.4183 0.0000
vt -1.7632 3.6098 0.0000
vt -1.5160 1.9193 0.0000
vt -1.5160 3.4183 0.0000
vt -1.3985 1.8386 0.0000
vt -1.3849 3.6093 0.0000
vt -1.8829 1.8391 0.0000
vt -1.8829 3.6098 0.0000
# 176 texture coords

g Railing_Panel_49
usemtl Material__27
s 1
f 1/1/1 2/2/1 3/3/1 4/4/1 
f 2/2/2 5/5/2 6/6/2 3/3/2 
f 5/5/3 7/7/3 8/8/3 6/6/3 
f 7/9/4 1/1/4 4/4/4 8/10/4 
f 9/11/1 10/12/1 11/13/1 12/14/1 
f 10/12/2 13/15/2 14/16/2 11/13/2 
f 13/15/3 15/17/3 16/18/3 14/16/3 
f 15/19/4 9/11/4 12/14/4 16/20/4 
f 2/21/5 1/22/5 7/7/5 5/5/5 
f 10/23/5 9/24/5 15/17/5 13/15/5 
f 17/25/5 18/26/5 19/27/5 20/28/5 
f 21/29/6 22/30/6 23/31/6 24/32/6 
f 24/32/4 23/31/4 19/33/4 18/34/4 
f 21/29/1 24/32/1 18/26/1 17/25/1 
f 22/30/2 21/29/2 17/35/2 20/36/2 
f 23/31/3 22/30/3 20/37/3 19/38/3 
f 25/39/5 26/40/5 27/41/5 28/42/5 
f 6/43/6 29/44/6 30/45/6 16/46/6 
f 16/46/4 30/45/4 27/47/4 26/48/4 
f 6/43/1 16/46/1 26/40/1 25/39/1 
f 29/44/2 6/43/2 25/49/2 28/50/2 
f 30/51/3 29/52/3 28/42/3 27/41/3 
f 5/53/5 15/54/5 31/55/5 32/56/5 
f 33/57/6 34/58/6 35/59/6 36/60/6 
f 36/60/4 35/59/4 31/61/4 15/62/4 
f 33/57/1 36/60/1 15/54/1 5/53/1 
f 34/58/2 33/57/2 5/63/2 32/64/2 
f 35/59/3 34/58/3 32/65/3 31/66/3 
f 37/67/1 38/68/1 39/69/1 40/70/1 
f 38/68/2 41/71/2 42/72/2 39/69/2 
f 41/71/3 43/73/3 44/74/3 42/72/3 
f 43/75/4 37/67/4 40/70/4 44/76/4 
f 45/77/1 46/78/1 47/79/1 48/80/1 
f 47/79/7 49/81/7 50/82/7 48/80/7 
f 49/81/3 51/83/3 52/84/3 50/82/3 
f 51/85/8 46/78/8 45/77/8 52/86/8 
f 53/87/1 54/88/1 55/89/1 56/90/1 
f 55/89/9 57/91/9 58/92/9 56/90/9 
f 57/91/3 59/93/3 60/94/3 58/92/3 
f 59/95/10 54/88/10 53/87/10 60/96/10 
f 61/97/1 62/98/1 63/99/1 64/100/1 
f 63/99/11 65/101/11 66/102/11 64/100/11 
f 65/101/3 67/103/3 68/104/3 66/102/3 
f 67/105/12 62/98/12 61/97/12 68/106/12 
f 69/107/1 70/108/1 71/109/1 72/110/1 
f 73/111/13 70/108/13 69/107/13 74/112/13 
f 75/113/1 76/114/1 77/115/1 78/116/1 
f 76/114/14 79/117/14 80/118/14 77/115/14 
f 80/118/3 79/117/3 81/119/3 82/120/3 
f 81/121/15 75/113/15 78/116/15 82/122/15 
f 83/123/1 84/124/1 85/125/1 86/126/1 
f 84/124/16 87/127/16 88/128/16 85/125/16 
f 88/128/3 87/127/3 89/129/3 90/130/3 
f 89/131/17 83/123/17 86/126/17 90/132/17 
f 91/133/1 92/134/1 93/135/1 94/136/1 
f 92/134/18 95/137/18 96/138/18 93/135/18 
f 96/138/3 95/137/3 97/139/3 98/140/3 
f 97/141/19 91/133/19 94/136/19 98/142/19 
f 99/143/20 100/144/20 101/145/20 102/146/20 
f 101/145/3 100/144/3 103/147/3 104/148/3 
f 105/149/1 99/143/1 102/146/1 106/150/1 
f 103/151/21 105/149/21 106/150/21 104/152/21 
f 107/153/1 108/154/1 109/155/1 110/156/1 
f 109/155/22 111/157/22 112/158/22 110/156/22 
f 111/157/3 113/159/3 114/160/3 112/158/3 
f 113/161/23 108/154/23 107/153/23 114/162/23 
f 71/109/24 115/163/24 116/164/24 72/110/24 
f 115/163/3 73/165/3 74/166/3 116/164/3 
f 117/167/1 118/168/1 119/169/1 120/170/1 
f 118/168/25 121/171/25 122/172/25 119/169/25 
f 122/172/3 121/171/3 123/173/3 124/174/3 
f 123/175/26 117/167/26 120/170/26 124/176/26 
# 72 polygons

