# 3ds Max Wavefront OBJ Exporter v0.97b - (c)2007 guruware
# File Created: 24.07.2018 15:39:51

mtllib 57.5_Inch_wooden_railing_panel_with_sunburst_pattern.mtl

#
# object Railing_Panel
#

v  56.3250 -40.6800 4.0000
v  60.3250 -40.6800 4.0000
v  60.3250 40.6800 4.0000
v  56.3250 40.6800 4.0000
v  60.3250 -40.6800 -0.0000
v  60.3250 40.6800 -0.0000
v  56.3250 -40.6800 -0.0000
v  56.3250 40.6800 -0.0000
v  -60.3250 -40.6800 4.0000
v  -56.3250 -40.6800 4.0000
v  -56.3250 40.6800 4.0000
v  -60.3250 40.6800 4.0000
v  -56.3250 -40.6800 -0.0000
v  -56.3250 40.6800 -0.0000
v  -60.3250 -40.6800 -0.0000
v  -60.3250 40.6800 -0.0000
v  60.3250 40.6800 6.3500
v  -60.3250 40.6800 6.3500
v  -60.3250 40.6800 -6.3500
v  60.3250 40.6800 -6.3500
v  60.3250 45.6800 6.3500
v  60.3250 45.6800 -6.3500
v  -60.3250 45.6800 -6.3500
v  -60.3250 45.6800 6.3500
v  60.3250 33.1800 -0.0000
v  -60.3250 33.1800 -0.0000
v  -60.3250 33.1800 -4.0000
v  60.3250 33.1800 -4.0000
v  60.3250 40.6800 -4.0000
v  -60.3250 40.6800 -4.0000
v  -60.3250 -40.6800 -4.0000
v  60.3250 -40.6800 -4.0000
v  60.3250 -33.1800 -0.0000
v  60.3250 -33.1800 -4.0000
v  -60.3250 -33.1800 -4.0000
v  -60.3250 -33.1800 -0.0000
v  -2.0001 -40.6800 4.0000
v  1.9999 -40.6800 4.0000
v  1.9998 40.6800 4.0000
v  -2.0002 40.6800 4.0000
v  1.9999 -40.6800 -0.0000
v  1.9998 40.6800 -0.0000
v  -2.0001 -40.6800 -0.0000
v  -2.0002 40.6800 -0.0000
v  11.7645 40.6800 4.0000
v  3.0339 -40.6800 4.0000
v  7.0568 -40.6800 4.0000
v  15.7875 40.6800 4.0000
v  7.0568 -40.6800 -0.0000
v  15.7875 40.6800 -0.0000
v  3.0339 -40.6800 -0.0000
v  11.7645 40.6800 -0.0000
v  25.8266 40.6800 4.0000
v  8.1617 -40.6800 4.0000
v  12.2549 -40.6800 4.0000
v  29.9198 40.6800 4.0000
v  12.2549 -40.6800 -0.0000
v  29.9198 40.6800 -0.0000
v  8.1617 -40.6800 -0.0000
v  25.8266 40.6800 -0.0000
v  40.5355 40.6800 4.0000
v  13.5102 -40.6800 4.0000
v  17.7251 -40.6800 4.0000
v  44.7504 40.6800 4.0000
v  17.7251 -40.6800 -0.0000
v  44.7504 40.6800 -0.0000
v  13.5102 -40.6800 -0.0000
v  40.5355 40.6800 -0.0000
v  56.3067 40.6800 4.0000
v  19.2289 -40.6800 4.0000
v  23.6247 -40.6800 4.0000
v  56.3250 31.0746 4.0000
v  19.2289 -40.6800 -0.0000
v  56.3067 40.6800 -0.0000
v  -7.0570 -40.6800 4.0000
v  -3.0340 -40.6800 4.0000
v  -11.7649 40.6800 4.0000
v  -15.7879 40.6800 4.0000
v  -3.0340 -40.6800 -0.0000
v  -11.7649 40.6800 -0.0000
v  -7.0570 -40.6800 -0.0000
v  -15.7879 40.6800 -0.0000
v  -12.2551 -40.6800 4.0000
v  -8.1619 -40.6800 4.0000
v  -25.8270 40.6800 4.0000
v  -29.9202 40.6800 4.0000
v  -8.1619 -40.6800 -0.0000
v  -25.8270 40.6800 -0.0000
v  -12.2551 -40.6800 -0.0000
v  -29.9202 40.6800 -0.0000
v  -17.7252 -40.6800 4.0000
v  -13.5103 -40.6800 4.0000
v  -40.5359 40.6800 4.0000
v  -44.7508 40.6800 4.0000
v  -13.5103 -40.6800 -0.0000
v  -40.5359 40.6800 -0.0000
v  -17.7252 -40.6800 -0.0000
v  -44.7508 40.6800 -0.0000
v  -19.2290 -40.6800 4.0000
v  -19.2290 -40.6800 -0.0000
v  -56.3071 40.6800 -0.0000
v  -56.3071 40.6800 4.0000
v  -23.6248 -40.6800 -0.0000
v  -56.3250 31.0737 -0.0000
v  -56.3250 40.7194 4.0000
v  -56.3250 40.7194 -0.0000
v  -23.6248 -40.6800 4.0000
v  -56.3250 31.0737 4.0000
v  -56.3250 0.0408 4.0000
v  -31.2733 -40.6800 4.0000
v  -26.5769 -40.6800 4.0000
v  -56.3250 7.6746 4.0000
v  -26.5769 -40.6800 -0.0000
v  -56.3250 7.6746 -0.0000
v  -31.2733 -40.6800 -0.0000
v  -56.3250 0.0408 -0.0000
v  56.3250 40.7203 4.0000
v  56.3250 40.7203 -0.0000
v  23.6247 -40.6800 -0.0000
v  56.3250 31.0746 -0.0000
v  26.5768 -40.6800 4.0000
v  31.2731 -40.6800 4.0000
v  56.3250 0.0414 4.0000
v  56.3250 7.6752 4.0000
v  31.2731 -40.6800 -0.0000
v  56.3250 0.0414 -0.0000
v  26.5768 -40.6800 -0.0000
v  56.3250 7.6752 -0.0000
# 128 vertices

vn 0.0000 0.0000 1.0000
vn 1.0000 0.0000 -0.0000
vn 0.0000 0.0000 -1.0000
vn -1.0000 0.0000 -0.0000
vn 0.0000 -1.0000 -0.0000
vn 0.0000 1.0000 -0.0000
vn -1.0000 -0.0000 -0.0000
vn 0.9943 -0.1067 -0.0000
vn -0.9943 0.1067 -0.0000
vn 0.9772 -0.2122 -0.0000
vn -0.9772 0.2122 0.0000
vn -0.9772 0.2122 -0.0000
vn 0.9490 -0.3152 -0.0000
vn -0.9490 0.3152 -0.0000
vn -0.9100 0.4147 -0.0000
vn 0.9943 0.1067 -0.0000
vn -0.9943 -0.1067 -0.0000
vn 0.9772 0.2122 -0.0000
vn -0.9772 -0.2122 0.0000
vn -0.9772 -0.2122 -0.0000
vn 0.9490 0.3152 -0.0000
vn -0.9490 -0.3152 0.0000
vn 0.9100 0.4147 -0.0000
vn -0.9100 -0.4147 0.0000
vn -0.9100 -0.4147 -0.0000
vn 0.8517 0.5240 -0.0000
vn -0.8517 -0.5240 -0.0000
vn 0.9100 -0.4147 -0.0000
vn 0.8517 -0.5240 -0.0000
vn -0.8517 0.5240 -0.0000
# 30 vertex normals

vt 2.8780 -2.1312 0.0000
vt 3.0006 -2.1312 0.0000
vt 3.0006 0.3630 0.0000
vt 2.8780 0.3630 0.0000
vt 3.1232 -2.1312 0.0000
vt 3.1232 0.3630 0.0000
vt 3.2459 -2.1312 0.0000
vt 3.2459 0.3630 0.0000
vt 2.7553 -2.1312 0.0000
vt 2.7553 0.3630 0.0000
vt 2.2848 -2.1311 0.0000
vt 2.4074 -2.1311 0.0000
vt 2.4074 0.3632 0.0000
vt 2.2848 0.3632 0.0000
vt 2.5301 -2.1311 0.0000
vt 2.5301 0.3632 0.0000
vt 2.6527 -2.1311 0.0000
vt 2.6527 0.3632 0.0000
vt 2.1622 -2.1311 0.0000
vt 2.1622 0.3632 0.0000
vt 3.1233 -2.2538 0.0000
vt 3.2459 -2.2538 0.0000
vt 2.5300 -2.2538 0.0000
vt 2.6527 -2.2538 0.0000
vt -1.4219 -2.0057 0.0000
vt -1.4219 1.6552 0.0000
vt -1.8073 1.6552 0.0000
vt -1.8073 -2.0057 0.0000
vt -1.2703 -2.0378 0.0000
vt -0.8848 -2.0378 0.0000
vt -0.8848 1.6867 0.0000
vt -1.2703 1.6867 0.0000
vt -0.8848 1.9032 0.0000
vt -1.2703 1.9032 0.0000
vt -1.2703 -2.2538 0.0000
vt -0.8848 -2.2538 0.0000
vt -0.7331 -2.0057 0.0000
vt -0.7331 1.6552 0.0000
vt -0.2800 -1.9284 0.0000
vt -0.2801 1.7488 0.0000
vt -0.4019 1.7489 0.0000
vt -0.4019 -1.9284 0.0000
vt -0.0514 -1.9607 0.0000
vt 0.0705 -1.9768 0.0000
vt 0.0705 1.7966 0.0000
vt -0.0514 1.7806 0.0000
vt 0.0705 2.0742 0.0000
vt -0.0514 2.0742 0.0000
vt -0.0514 -2.2538 0.0000
vt 0.0705 -2.2538 0.0000
vt -0.6305 1.7489 0.0000
vt -0.6305 -1.9284 0.0000
vt 0.2949 -1.9288 0.0000
vt 0.2949 1.7434 0.0000
vt 0.1732 1.7434 0.0000
vt 0.1732 -1.9288 0.0000
vt 0.5231 -1.9611 0.0000
vt 0.6449 -1.9611 0.0000
vt 0.6449 1.7751 0.0000
vt 0.5231 1.7751 0.0000
vt 0.6449 2.0683 0.0000
vt 0.5231 2.0683 0.0000
vt 0.5231 -2.2538 0.0000
vt 0.6449 -2.2538 0.0000
vt 0.8732 -1.9288 0.0000
vt 0.8732 1.7434 0.0000
vt 4.0643 0.4278 0.0000
vt 4.1870 0.4278 0.0000
vt 4.1870 2.9220 0.0000
vt 4.0643 2.9220 0.0000
vt 4.3096 0.4278 0.0000
vt 4.3096 2.9220 0.0000
vt 4.4322 0.4278 0.0000
vt 4.4322 2.9220 0.0000
vt 3.9417 0.4278 0.0000
vt 3.9417 2.9220 0.0000
vt 4.0643 0.2547 0.0000
vt 4.0643 -2.2538 0.0000
vt 4.1870 -2.2406 0.0000
vt 4.1870 0.2679 0.0000
vt 4.3096 -2.2406 0.0000
vt 4.3096 0.2679 0.0000
vt 4.4322 -2.2538 0.0000
vt 4.4322 0.2548 0.0000
vt 3.9417 -2.2538 0.0000
vt 3.9417 0.2547 0.0000
vt 3.4711 0.2985 0.0000
vt 3.4712 -2.2538 0.0000
vt 3.5938 -2.2272 0.0000
vt 3.5938 0.3252 0.0000
vt 3.7164 -2.2272 0.0000
vt 3.7164 0.3252 0.0000
vt 3.8390 -2.2538 0.0000
vt 3.8390 0.2985 0.0000
vt 3.3485 -2.2538 0.0000
vt 3.3485 0.2985 0.0000
vt 1.6917 0.3744 0.0000
vt 1.6917 -2.2538 0.0000
vt 1.8143 -2.2130 0.0000
vt 1.8143 0.4152 0.0000
vt 1.9369 -2.2130 0.0000
vt 1.9369 0.4152 0.0000
vt 2.0596 -2.2538 0.0000
vt 2.0595 0.3744 0.0000
vt 1.5690 -2.2538 0.0000
vt 1.5690 0.3744 0.0000
vt 1.0985 0.4872 0.0000
vt 1.0985 -2.2538 0.0000
vt 1.2211 -2.1979 0.0000
vt 1.2211 0.2195 0.0000
vt 1.0990 0.4875 0.0000
vt 0.9759 -2.2538 0.0000
vt 0.9759 0.4872 0.0000
vt 3.4712 0.4410 0.0000
vt 3.5938 0.4278 0.0000
vt 3.5938 2.9363 0.0000
vt 3.4711 2.9495 0.0000
vt 3.7164 0.4278 0.0000
vt 3.7164 2.9364 0.0000
vt 3.8390 0.4410 0.0000
vt 3.8390 2.9495 0.0000
vt 3.3485 0.4410 0.0000
vt 3.3485 2.9495 0.0000
vt 2.8780 0.4923 0.0000
vt 3.0006 0.4657 0.0000
vt 3.0006 3.0180 0.0000
vt 2.8780 3.0446 0.0000
vt 3.1232 0.4657 0.0000
vt 3.1232 3.0180 0.0000
vt 3.2459 0.4923 0.0000
vt 3.2459 3.0446 0.0000
vt 2.7553 0.4923 0.0000
vt 2.7553 3.0446 0.0000
vt 1.6917 0.5585 0.0000
vt 1.8143 0.5178 0.0000
vt 1.8143 3.1460 0.0000
vt 1.6917 3.1868 0.0000
vt 1.9369 0.5178 0.0000
vt 1.9369 3.1460 0.0000
vt 2.0596 0.5585 0.0000
vt 2.0595 3.1868 0.0000
vt 1.5690 0.5585 0.0000
vt 1.5690 3.1868 0.0000
vt 1.2211 0.5901 0.0000
vt 1.3438 0.5901 0.0000
vt 1.3437 3.3311 0.0000
vt 1.2211 3.3311 0.0000
vt 1.4664 0.6460 0.0000
vt 1.4664 3.0634 0.0000
vt 1.3443 3.3313 0.0000
vt 0.1732 2.2129 0.0000
vt 0.1736 2.2125 0.0000
vt 0.1740 2.2138 0.0000
vt 0.2890 2.1710 0.0000
vt 0.2894 2.1722 0.0000
vt 0.2895 2.1710 0.0000
vt 1.0985 0.6460 0.0000
vt 1.0985 3.0634 0.0000
vt 1.2206 3.3313 0.0000
vt 0.9759 0.6460 0.0000
vt 0.9759 3.0634 0.0000
vt -0.5838 3.4564 0.0000
vt -0.5838 1.9907 0.0000
vt -0.4612 1.9152 0.0000
vt -0.4612 3.6557 0.0000
vt -0.3385 1.9152 0.0000
vt -0.3385 3.6557 0.0000
vt -0.2159 1.9907 0.0000
vt -0.2159 3.4564 0.0000
vt -0.7064 1.9907 0.0000
vt -0.7064 3.4564 0.0000
vt 1.0985 3.4353 0.0000
vt 1.0985 3.4340 0.0000
vt 1.0990 3.4342 0.0000
vt -0.6305 3.8359 0.0000
vt -0.6300 3.8357 0.0000
vt -0.6299 3.8370 0.0000
vt 0.9759 3.4340 0.0000
vt 0.9759 3.4353 0.0000
vt 1.3438 -2.1979 0.0000
vt 1.3437 0.2195 0.0000
vt 1.4664 -2.2538 0.0000
vt 1.4664 0.4872 0.0000
vt 1.4659 0.4875 0.0000
vt -1.7607 1.8624 0.0000
vt -1.6380 1.9378 0.0000
vt -1.6380 3.4035 0.0000
vt -1.7607 3.6029 0.0000
vt -1.5154 1.9378 0.0000
vt -1.5154 3.4035 0.0000
vt -1.3928 1.8624 0.0000
vt -1.3928 3.6029 0.0000
vt -1.8833 1.8624 0.0000
vt -1.8833 3.6029 0.0000
# 194 texture coords

g Railing_Panel
usemtl Material__27
s 1
f 1/1/1 2/2/1 3/3/1 4/4/1 
s 2
f 2/2/2 5/5/2 6/6/2 3/3/2 
s 1
f 5/5/3 7/7/3 8/8/3 6/6/3 
s 2
f 7/9/4 1/1/4 4/4/4 8/10/4 
s 1
f 9/11/1 10/12/1 11/13/1 12/14/1 
s 2
f 10/12/2 13/15/2 14/16/2 11/13/2 
s 1
f 13/15/3 15/17/3 16/18/3 14/16/3 
s 2
f 15/19/4 9/11/4 12/14/4 16/20/4 
s 4
f 2/21/5 1/22/5 7/7/5 5/5/5 
f 10/23/5 9/24/5 15/17/5 13/15/5 
s 1
f 17/25/5 18/26/5 19/27/5 20/28/5 
f 21/29/6 22/30/6 23/31/6 24/32/6 
s 2
f 24/32/4 23/31/4 19/33/4 18/34/4 
s 4
f 21/29/1 24/32/1 18/26/1 17/25/1 
s 2
f 22/30/2 21/29/2 17/35/2 20/36/2 
s 4
f 23/31/3 22/30/3 20/37/3 19/38/3 
s 1
f 25/39/5 26/40/5 27/41/5 28/42/5 
s 4
f 6/43/6 29/44/6 30/45/6 16/46/6 
s 8
f 16/46/4 30/45/4 27/47/4 26/48/4 
s 16
f 6/43/1 16/46/1 26/40/1 25/39/1 
s 8
f 29/44/2 6/43/2 25/49/2 28/50/2 
s 2
f 30/51/3 29/52/3 28/42/3 27/41/3 
s 8
f 5/53/5 15/54/5 31/55/5 32/56/5 
s 1
f 33/57/6 34/58/6 35/59/6 36/60/6 
s 16
f 36/60/4 35/59/4 31/61/4 15/62/4 
s 32
f 33/57/1 36/60/1 15/54/1 5/53/1 
s 16
f 34/58/2 33/57/2 5/63/2 32/64/2 
s 2
f 35/59/3 34/58/3 32/65/3 31/66/3 
f 37/67/1 38/68/1 39/69/1 40/70/1 
s 4
f 38/68/2 41/71/2 42/72/2 39/69/2 
s 2
f 41/71/3 43/73/3 44/74/3 42/72/3 
s 4
f 43/75/7 37/67/7 40/70/7 44/76/7 
s 2
f 45/77/1 46/78/1 47/79/1 48/80/1 
s 4
f 47/79/8 49/81/8 50/82/8 48/80/8 
s 2
f 49/81/3 51/83/3 52/84/3 50/82/3 
s 4
f 51/85/9 46/78/9 45/77/9 52/86/9 
s 2
f 53/87/1 54/88/1 55/89/1 56/90/1 
s 4
f 55/89/10 57/91/10 58/92/10 56/90/10 
s 2
f 57/91/3 59/93/3 60/94/3 58/92/3 
s 4
f 59/95/11 54/88/11 53/87/11 60/96/12 
s 2
f 61/97/1 62/98/1 63/99/1 64/100/1 
s 4
f 63/99/13 65/101/13 66/102/13 64/100/13 
s 2
f 65/101/3 67/103/3 68/104/3 66/102/3 
s 4
f 67/105/14 62/98/14 61/97/14 68/106/14 
s 2
f 69/107/1 70/108/1 71/109/1 72/110/1 
f 69/107/1 72/110/1 4/111/1 
s 4
f 73/112/15 70/108/15 69/107/15 74/113/15 
s 2
f 75/114/1 76/115/1 77/116/1 78/117/1 
s 4
f 76/115/16 79/118/16 80/119/16 77/116/16 
s 2
f 80/119/3 79/118/3 81/120/3 82/121/3 
s 4
f 81/122/17 75/114/17 78/117/17 82/123/17 
s 2
f 83/124/1 84/125/1 85/126/1 86/127/1 
s 4
f 84/125/18 87/128/18 88/129/18 85/126/18 
s 2
f 88/129/3 87/128/3 89/130/3 90/131/3 
s 4
f 89/132/19 83/124/19 86/127/19 90/133/20 
s 2
f 91/134/1 92/135/1 93/136/1 94/137/1 
s 4
f 92/135/21 95/138/21 96/139/21 93/136/21 
s 2
f 96/139/3 95/138/3 97/140/3 98/141/3 
s 4
f 97/142/22 91/134/22 94/137/22 98/143/22 
f 99/144/23 100/145/23 101/146/23 102/147/23 
s 2
f 101/146/3 100/145/3 103/148/3 104/149/3 
f 101/146/3 104/149/3 14/150/3 
f 11/151/1 102/152/1 105/153/1 
s 4
f 102/152/23 101/154/23 106/155/23 105/153/23 
s 2
f 106/155/3 101/154/3 14/156/3 
f 107/157/1 99/144/1 102/147/1 108/158/1 
f 108/158/1 102/147/1 11/159/1 
s 4
f 103/160/24 107/157/24 108/158/25 104/161/25 
s 2
f 109/162/1 110/163/1 111/164/1 112/165/1 
s 4
f 111/164/26 113/166/26 114/167/26 112/165/26 
s 2
f 113/166/3 115/168/3 116/169/3 114/167/3 
s 4
f 115/170/27 110/163/27 109/162/27 116/171/27 
s 2
f 117/172/1 69/173/1 4/174/1 
f 8/175/3 74/176/3 118/177/3 
s 4
f 74/178/15 69/173/15 117/172/15 118/179/15 
f 71/109/28 119/180/28 120/181/28 72/110/28 
s 2
f 119/180/3 73/182/3 74/183/3 120/181/3 
f 120/181/3 74/183/3 8/184/3 
f 121/185/1 122/186/1 123/187/1 124/188/1 
s 4
f 122/186/29 125/189/29 126/190/29 123/187/29 
s 2
f 126/190/3 125/189/3 127/191/3 128/192/3 
s 4
f 127/193/30 121/185/30 124/188/30 128/194/30 
# 74 polygons - 8 triangles

