# 3ds Max Wavefront OBJ Exporter v0.97b - (c)2007 guruware
# File Created: 24.07.2018 16:25:13

mtllib 88_Inch_wooden_railing_panel_with_sunburst_pattern.mtl

#
# object Railing_Panel
#

v  95.0600 -40.6800 4.0000
v  99.0600 -40.6800 4.0000
v  99.0600 40.6800 4.0000
v  95.0600 40.6800 4.0000
v  99.0600 -40.6800 -0.0000
v  99.0600 40.6800 -0.0000
v  95.0600 -40.6800 -0.0000
v  95.0600 40.6800 -0.0000
v  -99.0600 -40.6800 4.0000
v  -95.0600 -40.6800 4.0000
v  -95.0600 40.6800 4.0000
v  -99.0600 40.6800 4.0000
v  -95.0600 -40.6800 -0.0000
v  -95.0600 40.6800 -0.0000
v  -99.0600 -40.6800 -0.0000
v  -99.0600 40.6800 -0.0000
v  99.0600 40.6800 6.3500
v  -99.0600 40.6800 6.3500
v  -99.0600 40.6800 -6.3500
v  99.0600 40.6800 -6.3500
v  99.0600 45.6800 6.3500
v  99.0600 45.6800 -6.3500
v  -99.0600 45.6800 -6.3500
v  -99.0600 45.6800 6.3500
v  99.0600 33.1800 -0.0000
v  -99.0600 33.1800 -0.0000
v  -99.0600 33.1800 -4.0000
v  99.0600 33.1800 -4.0000
v  99.0600 40.6800 -4.0000
v  -99.0600 40.6800 -4.0000
v  -99.0600 -40.6800 -4.0000
v  99.0600 -40.6800 -4.0000
v  99.0600 -33.1800 -0.0000
v  99.0600 -33.1800 -4.0000
v  -99.0600 -33.1800 -4.0000
v  -99.0600 -33.1800 -0.0000
v  -2.0000 -40.6800 4.0000
v  2.0000 -40.6800 4.0000
v  2.0000 40.6800 4.0000
v  -2.0000 40.6800 4.0000
v  2.0000 -40.6800 -0.0000
v  2.0000 40.6800 -0.0000
v  -2.0000 -40.6800 -0.0000
v  -2.0000 40.6800 -0.0000
v  12.0304 40.6800 4.0000
v  3.2637 -40.6800 4.0000
v  7.2868 -40.6800 4.0000
v  16.0535 40.6800 4.0000
v  7.2868 -40.6800 -0.0000
v  16.0535 40.6800 -0.0000
v  3.2637 -40.6800 -0.0000
v  12.0304 40.6800 -0.0000
v  26.3668 40.6800 4.0000
v  8.6275 -40.6800 4.0000
v  12.7214 -40.6800 4.0000
v  30.4608 40.6800 4.0000
v  12.7214 -40.6800 -0.0000
v  30.4608 40.6800 -0.0000
v  8.6275 -40.6800 -0.0000
v  26.3668 40.6800 -0.0000
v  41.3688 40.6800 4.0000
v  14.2251 -40.6800 4.0000
v  18.4418 -40.6800 4.0000
v  45.5856 40.6800 4.0000
v  18.4418 -40.6800 -0.0000
v  45.5856 40.6800 -0.0000
v  14.2251 -40.6800 -0.0000
v  41.3688 40.6800 -0.0000
v  57.4644 40.6800 4.0000
v  20.2148 -40.6800 4.0000
v  24.6141 -40.6800 4.0000
v  61.8637 40.6800 4.0000
v  24.6141 -40.6800 -0.0000
v  61.8637 40.6800 -0.0000
v  20.2148 -40.6800 -0.0000
v  57.4644 40.6800 -0.0000
v  75.2036 40.6800 4.0000
v  26.7995 -40.6800 4.0000
v  31.4538 -40.6800 4.0000
v  79.8579 40.6800 4.0000
v  31.4538 -40.6800 -0.0000
v  79.8579 40.6800 -0.0000
v  26.7995 -40.6800 -0.0000
v  75.2036 40.6800 -0.0000
v  -7.2868 -40.6800 4.0000
v  -3.2637 -40.6800 4.0000
v  -12.0304 40.6800 4.0000
v  -16.0535 40.6800 4.0000
v  -3.2637 -40.6800 -0.0000
v  -12.0304 40.6800 -0.0000
v  -7.2868 -40.6800 -0.0000
v  -16.0535 40.6800 -0.0000
v  -12.7214 -40.6800 4.0000
v  -8.6275 -40.6800 4.0000
v  -26.3668 40.6800 4.0000
v  -30.4608 40.6800 4.0000
v  -8.6275 -40.6800 -0.0000
v  -26.3668 40.6800 -0.0000
v  -12.7214 -40.6800 -0.0000
v  -30.4608 40.6800 -0.0000
v  -18.4418 -40.6800 4.0000
v  -14.2251 -40.6800 4.0000
v  -41.3688 40.6800 4.0000
v  -45.5856 40.6800 4.0000
v  -14.2251 -40.6800 -0.0000
v  -41.3688 40.6800 -0.0000
v  -18.4418 -40.6800 -0.0000
v  -45.5856 40.6800 -0.0000
v  -24.6141 -40.6800 4.0000
v  -20.2148 -40.6800 4.0000
v  -57.4643 40.6800 4.0000
v  -61.8636 40.6800 4.0000
v  -20.2148 -40.6800 -0.0000
v  -57.4643 40.6800 -0.0000
v  -24.6141 -40.6800 -0.0000
v  -61.8636 40.6800 -0.0000
v  -31.4538 -40.6800 4.0000
v  -26.7994 -40.6800 4.0000
v  -75.2036 40.6800 4.0000
v  -79.8579 40.6800 4.0000
v  -26.7994 -40.6800 -0.0000
v  -75.2036 40.6800 -0.0000
v  -31.4538 -40.6800 -0.0000
v  -79.8579 40.6800 -0.0000
v  41.9966 -40.6800 4.0000
v  47.4704 -40.6800 4.0000
v  95.0600 1.5408 4.0000
v  95.0600 7.4005 4.0000
v  47.4704 -40.6800 -0.0000
v  95.0600 1.5408 -0.0000
v  41.9966 -40.6800 -0.0000
v  95.0600 7.4005 -0.0000
v  34.2573 -40.6800 4.0000
v  39.2593 -40.6800 4.0000
v  95.0600 33.6396 4.0000
v  95.0600 40.3016 4.0000
v  39.2593 -40.6800 -0.0000
v  95.0600 33.6396 -0.0000
v  34.2573 -40.6800 -0.0000
v  95.0600 40.3016 -0.0000
v  -95.0600 1.5409 4.0000
v  -47.4704 -40.6800 4.0000
v  -41.9966 -40.6800 4.0000
v  -95.0600 7.4005 4.0000
v  -41.9966 -40.6800 -0.0000
v  -95.0600 7.4005 -0.0000
v  -47.4704 -40.6800 -0.0000
v  -95.0600 1.5409 -0.0000
v  -95.0600 33.6396 4.0000
v  -39.2593 -40.6800 4.0000
v  -34.2573 -40.6800 4.0000
v  -95.0600 40.3016 4.0000
v  -34.2573 -40.6800 -0.0000
v  -95.0600 40.3016 -0.0000
v  -39.2593 -40.6800 -0.0000
v  -95.0600 33.6396 -0.0000
# 156 vertices

vn 0.0000 0.0000 1.0000
vn 1.0000 0.0000 -0.0000
vn 0.0000 0.0000 -1.0000
vn -1.0000 0.0000 -0.0000
vn 0.0000 -1.0000 -0.0000
vn 0.0000 1.0000 -0.0000
vn 1.0000 -0.0000 -0.0000
vn 0.9942 -0.1071 -0.0000
vn -0.9942 0.1071 -0.0000
vn 0.9770 -0.2130 -0.0000
vn -0.9770 0.2130 0.0000
vn -0.9770 0.2130 -0.0000
vn 0.9486 -0.3165 -0.0000
vn -0.9486 0.3165 0.0000
vn 0.9092 -0.4163 -0.0000
vn -0.9092 0.4163 -0.0000
vn 0.8594 -0.5113 -0.0000
vn -0.8594 0.5113 -0.0000
vn 0.9942 0.1071 -0.0000
vn -0.9942 -0.1071 0.0000
vn -0.9942 -0.1071 -0.0000
vn 0.9770 0.2130 -0.0000
vn -0.9770 -0.2130 -0.0000
vn 0.9486 0.3165 -0.0000
vn -0.9486 -0.3165 0.0000
vn -0.9486 -0.3165 -0.0000
vn 0.9092 0.4163 -0.0000
vn -0.9092 -0.4163 0.0000
vn -0.9092 -0.4163 -0.0000
vn 0.8594 0.5113 -0.0000
vn -0.8594 -0.5113 0.0000
vn -0.8594 -0.5113 -0.0000
vn 0.6637 -0.7480 -0.0000
vn -0.6715 0.7410 -0.0000
vn 0.7997 -0.6004 -0.0000
vn -0.7997 0.6004 -0.0000
vn 0.6715 0.7410 -0.0000
vn -0.6637 -0.7480 -0.0000
vn 0.7997 0.6004 -0.0000
vn -0.7997 -0.6004 0.0000
vn -0.7997 -0.6004 -0.0000
# 41 vertex normals

vt 3.8442 -1.1116 0.0000
vt 3.6320 -1.1116 0.0000
vt 3.6320 -5.4277 0.0000
vt 3.8442 -5.4277 0.0000
vt 3.4198 -1.1116 0.0000
vt 3.4198 -5.4277 0.0000
vt 3.2077 -1.1116 0.0000
vt 3.2076 -5.4277 0.0000
vt 4.0564 -1.1116 0.0000
vt 4.0564 -5.4277 0.0000
vt 4.4835 -5.2155 0.0000
vt 4.6956 -5.2155 0.0000
vt 4.6956 -0.8995 0.0000
vt 4.4835 -0.8996 0.0000
vt 4.9078 -5.2155 0.0000
vt 4.9078 -0.8995 0.0000
vt 5.1200 -5.2155 0.0000
vt 5.1200 -0.8995 0.0000
vt 4.2713 -5.2155 0.0000
vt 4.2713 -0.8996 0.0000
vt 3.4199 -0.8994 0.0000
vt 3.2077 -0.8994 0.0000
vt 4.9078 -5.4277 0.0000
vt 5.1200 -5.4277 0.0000
vt -4.8054 5.3473 0.0000
vt -4.8054 -5.1625 0.0000
vt -4.1317 -5.1625 0.0000
vt -4.1317 5.3473 0.0000
vt -5.0706 5.3473 0.0000
vt -5.7444 5.3473 0.0000
vt -5.7444 -5.1625 0.0000
vt -5.0706 -5.1625 0.0000
vt -5.7444 -5.4277 0.0000
vt -5.0707 -5.4277 0.0000
vt -5.0707 5.6125 0.0000
vt -5.7444 5.6125 0.0000
vt -6.0096 5.3473 0.0000
vt -6.0096 -5.1625 0.0000
vt -1.8718 5.4798 0.0000
vt -1.8718 -5.0299 0.0000
vt -1.6596 -5.0299 0.0000
vt -1.6596 5.4798 0.0000
vt -2.2696 5.4799 0.0000
vt -2.4818 5.4799 0.0000
vt -2.4818 -5.0299 0.0000
vt -2.2696 -5.0299 0.0000
vt -2.4818 -5.4277 0.0000
vt -2.2696 -5.4277 0.0000
vt -2.2696 5.8777 0.0000
vt -2.4818 5.8777 0.0000
vt -1.2617 -5.0299 0.0000
vt -1.2617 5.4798 0.0000
vt -2.9089 5.4799 0.0000
vt -2.9089 -5.0299 0.0000
vt -2.6967 -5.0299 0.0000
vt -2.6967 5.4799 0.0000
vt -3.3068 5.4800 0.0000
vt -3.5190 5.4800 0.0000
vt -3.5190 -5.0299 0.0000
vt -3.3068 -5.0299 0.0000
vt -3.5190 -5.4277 0.0000
vt -3.3068 -5.4277 0.0000
vt -3.3068 5.8778 0.0000
vt -3.5190 5.8778 0.0000
vt -3.9168 5.4800 0.0000
vt -3.9168 -5.0298 0.0000
vt 6.6107 -5.4277 0.0000
vt 6.8229 -5.4277 0.0000
vt 6.8229 -1.1116 0.0000
vt 6.6107 -1.1116 0.0000
vt 7.0351 -5.4277 0.0000
vt 7.0351 -1.1116 0.0000
vt 7.2473 -5.4277 0.0000
vt 7.2473 -1.1116 0.0000
vt 6.3985 -5.4277 0.0000
vt 6.3985 -1.1116 0.0000
vt 5.5471 -1.0866 0.0000
vt 5.5471 -5.4277 0.0000
vt 5.7593 -5.4048 0.0000
vt 5.7593 -1.0638 0.0000
vt 5.9715 -5.4048 0.0000
vt 5.9715 -1.0638 0.0000
vt 6.1836 -5.4277 0.0000
vt 6.1836 -1.0867 0.0000
vt 5.3349 -5.4277 0.0000
vt 5.3349 -1.0866 0.0000
vt 4.4835 3.7329 0.0000
vt 4.4835 -0.6846 0.0000
vt 4.6956 -0.6384 0.0000
vt 4.6956 3.7791 0.0000
vt 4.9078 -0.6384 0.0000
vt 4.9078 3.7791 0.0000
vt 5.1200 -0.6847 0.0000
vt 5.1200 3.7328 0.0000
vt 4.2713 -0.6846 0.0000
vt 4.2713 3.7329 0.0000
vt 2.3562 4.1812 0.0000
vt 2.3562 -0.3687 0.0000
vt 2.5684 -0.2979 0.0000
vt 2.5684 4.2520 0.0000
vt 2.7806 -0.2979 0.0000
vt 2.7806 4.2520 0.0000
vt 2.9928 -0.3687 0.0000
vt 2.9928 4.1812 0.0000
vt 2.1440 -0.3687 0.0000
vt 2.1440 4.1813 0.0000
vt 2.3562 -0.6807 0.0000
vt 2.3562 -5.4277 0.0000
vt 2.5684 -5.3305 0.0000
vt 2.5684 -0.5836 0.0000
vt 2.7806 -5.3306 0.0000
vt 2.7806 -0.5836 0.0000
vt 2.9928 -5.4277 0.0000
vt 2.9928 -0.6808 0.0000
vt 2.1440 -5.4277 0.0000
vt 2.1440 -0.6807 0.0000
vt 0.2290 -0.4055 0.0000
vt 0.2290 -5.4277 0.0000
vt 0.4412 -5.3014 0.0000
vt 0.4412 -0.2793 0.0000
vt 0.6533 -5.3015 0.0000
vt 0.6533 -0.2793 0.0000
vt 0.8655 -5.4277 0.0000
vt 0.8655 -0.4056 0.0000
vt 0.0168 -5.4277 0.0000
vt 0.0168 -0.4055 0.0000
vt 5.5471 -0.8260 0.0000
vt 5.7593 -0.8489 0.0000
vt 5.7593 3.4922 0.0000
vt 5.5471 3.5150 0.0000
vt 5.9715 -0.8489 0.0000
vt 5.9715 3.4922 0.0000
vt 6.1837 -0.8260 0.0000
vt 6.1837 3.5150 0.0000
vt 5.3349 -0.8260 0.0000
vt 5.3349 3.5150 0.0000
vt 3.4198 -0.6383 0.0000
vt 3.6320 -0.6846 0.0000
vt 3.6320 3.7329 0.0000
vt 3.4198 3.7792 0.0000
vt 3.8442 -0.6845 0.0000
vt 3.8442 3.7330 0.0000
vt 4.0564 -0.6383 0.0000
vt 4.0564 3.7792 0.0000
vt 3.2076 -0.6383 0.0000
vt 3.2076 3.7792 0.0000
vt 1.2926 -0.2980 0.0000
vt 1.5048 -0.3687 0.0000
vt 1.5048 4.1812 0.0000
vt 1.2926 4.2520 0.0000
vt 1.7170 -0.3687 0.0000
vt 1.7170 4.1812 0.0000
vt 1.9291 -0.2979 0.0000
vt 1.9291 4.2520 0.0000
vt 1.0804 -0.2980 0.0000
vt 1.0804 4.2520 0.0000
vt 1.2926 -5.3306 0.0000
vt 1.5048 -5.4277 0.0000
vt 1.5048 -0.6808 0.0000
vt 1.2926 -0.5837 0.0000
vt 1.7170 -5.4277 0.0000
vt 1.7170 -0.6808 0.0000
vt 1.9291 -5.3305 0.0000
vt 1.9291 -0.5836 0.0000
vt 1.0804 -5.3306 0.0000
vt 1.0804 -0.5837 0.0000
vt 0.2290 0.0618 0.0000
vt 0.4412 -0.0644 0.0000
vt 0.4411 4.9577 0.0000
vt 0.2290 5.0840 0.0000
vt 0.6533 -0.0644 0.0000
vt 0.6533 4.9578 0.0000
vt 0.8655 0.0619 0.0000
vt 0.8655 5.0840 0.0000
vt 0.0168 0.0618 0.0000
vt 0.0168 5.0840 0.0000
vt 6.6375 3.1700 0.0000
vt 6.8309 3.3865 0.0000
vt 6.8425 6.7614 0.0000
vt 6.6107 6.9686 0.0000
vt 7.0431 3.3858 0.0000
vt 7.0547 6.7607 0.0000
vt 7.2351 3.1679 0.0000
vt 7.2879 6.9662 0.0000
vt 6.4253 3.1685 0.0000
vt 6.3985 6.9671 0.0000
vt -0.8346 -5.4277 0.0000
vt -0.6225 -5.2684 0.0000
vt -0.6225 -0.3382 0.0000
vt -0.8347 -0.0556 0.0000
vt -0.4103 -5.2683 0.0000
vt -0.4103 -0.3382 0.0000
vt -0.1981 -5.4277 0.0000
vt -0.1981 -0.0555 0.0000
vt -1.0468 -5.4277 0.0000
vt -1.0468 -0.0556 0.0000
vt 6.6368 2.7486 0.0000
vt 6.6107 -0.6263 0.0000
vt 6.8017 -0.8450 0.0000
vt 6.8708 2.9531 0.0000
vt 7.0138 -0.8489 0.0000
vt 7.0830 2.9492 0.0000
vt 7.2127 -0.6373 0.0000
vt 7.3095 2.7363 0.0000
vt 6.3985 -0.6247 0.0000
vt 6.4246 2.7502 0.0000
vt -0.8346 5.2489 0.0000
vt -0.8347 0.3187 0.0000
vt -0.6225 0.1594 0.0000
vt -0.6225 5.5315 0.0000
vt -0.4103 0.1593 0.0000
vt -0.4103 5.5315 0.0000
vt -0.1981 0.3186 0.0000
vt -0.1981 5.2488 0.0000
vt -1.0468 0.3187 0.0000
vt -1.0468 5.2489 0.0000
# 216 texture coords

g Railing_Panel
usemtl Material__27
s 1
f 1/1/1 2/2/1 3/3/1 4/4/1 
s 2
f 2/2/2 5/5/2 6/6/2 3/3/2 
s 1
f 5/5/3 7/7/3 8/8/3 6/6/3 
s 2
f 7/9/4 1/1/4 4/4/4 8/10/4 
s 1
f 9/11/1 10/12/1 11/13/1 12/14/1 
s 2
f 10/12/2 13/15/2 14/16/2 11/13/2 
s 1
f 13/15/3 15/17/3 16/18/3 14/16/3 
s 2
f 15/19/4 9/11/4 12/14/4 16/20/4 
s 4
f 2/21/5 1/22/5 7/7/5 5/5/5 
f 10/23/5 9/24/5 15/17/5 13/15/5 
s 1
f 17/25/5 18/26/5 19/27/5 20/28/5 
f 21/29/6 22/30/6 23/31/6 24/32/6 
s 2
f 24/32/4 23/31/4 19/33/4 18/34/4 
s 4
f 21/29/1 24/32/1 18/26/1 17/25/1 
s 2
f 22/30/2 21/29/2 17/35/2 20/36/2 
s 4
f 23/31/3 22/30/3 20/37/3 19/38/3 
s 1
f 25/39/5 26/40/5 27/41/5 28/42/5 
s 4
f 6/43/6 29/44/6 30/45/6 16/46/6 
s 8
f 16/46/4 30/45/4 27/47/4 26/48/4 
s 16
f 6/43/1 16/46/1 26/40/1 25/39/1 
s 8
f 29/44/2 6/43/2 25/49/2 28/50/2 
s 2
f 30/51/3 29/52/3 28/42/3 27/41/3 
s 8
f 5/53/5 15/54/5 31/55/5 32/56/5 
s 1
f 33/57/6 34/58/6 35/59/6 36/60/6 
s 16
f 36/60/4 35/59/4 31/61/4 15/62/4 
s 32
f 33/57/1 36/60/1 15/54/1 5/53/1 
s 16
f 34/58/2 33/57/2 5/63/2 32/64/2 
s 2
f 35/59/3 34/58/3 32/65/3 31/66/3 
f 37/67/1 38/68/1 39/69/1 40/70/1 
s 4
f 38/68/7 41/71/7 42/72/7 39/69/7 
s 2
f 41/71/3 43/73/3 44/74/3 42/72/3 
s 4
f 43/75/4 37/67/4 40/70/4 44/76/4 
s 2
f 45/77/1 46/78/1 47/79/1 48/80/1 
s 4
f 47/79/8 49/81/8 50/82/8 48/80/8 
s 2
f 49/81/3 51/83/3 52/84/3 50/82/3 
s 4
f 51/85/9 46/78/9 45/77/9 52/86/9 
s 2
f 53/87/1 54/88/1 55/89/1 56/90/1 
s 4
f 55/89/10 57/91/10 58/92/10 56/90/10 
s 2
f 57/91/3 59/93/3 60/94/3 58/92/3 
s 4
f 59/95/11 54/88/11 53/87/11 60/96/12 
s 2
f 61/97/1 62/98/1 63/99/1 64/100/1 
s 4
f 63/99/13 65/101/13 66/102/13 64/100/13 
s 2
f 65/101/3 67/103/3 68/104/3 66/102/3 
s 4
f 67/105/14 62/98/14 61/97/14 68/106/14 
s 2
f 69/107/1 70/108/1 71/109/1 72/110/1 
s 4
f 71/109/15 73/111/15 74/112/15 72/110/15 
s 2
f 73/111/3 75/113/3 76/114/3 74/112/3 
s 4
f 75/115/16 70/108/16 69/107/16 76/116/16 
s 2
f 77/117/1 78/118/1 79/119/1 80/120/1 
s 4
f 79/119/17 81/121/17 82/122/17 80/120/17 
s 2
f 81/121/3 83/123/3 84/124/3 82/122/3 
s 4
f 83/125/18 78/118/18 77/117/18 84/126/18 
s 2
f 85/127/1 86/128/1 87/129/1 88/130/1 
s 4
f 86/128/19 89/131/19 90/132/19 87/129/19 
s 2
f 90/132/3 89/131/3 91/133/3 92/134/3 
s 4
f 91/135/20 85/127/21 88/130/20 92/136/20 
s 2
f 93/137/1 94/138/1 95/139/1 96/140/1 
s 4
f 94/138/22 97/141/22 98/142/22 95/139/22 
s 2
f 98/142/3 97/141/3 99/143/3 100/144/3 
s 4
f 99/145/23 93/137/23 96/140/23 100/146/23 
s 2
f 101/147/1 102/148/1 103/149/1 104/150/1 
s 4
f 102/148/24 105/151/24 106/152/24 103/149/24 
s 2
f 106/152/3 105/151/3 107/153/3 108/154/3 
s 4
f 107/155/25 101/147/25 104/150/25 108/156/26 
s 2
f 109/157/1 110/158/1 111/159/1 112/160/1 
s 4
f 110/158/27 113/161/27 114/162/27 111/159/27 
s 2
f 114/162/3 113/161/3 115/163/3 116/164/3 
s 4
f 115/165/28 109/157/28 112/160/28 116/166/29 
s 2
f 117/167/1 118/168/1 119/169/1 120/170/1 
s 4
f 118/168/30 121/171/30 122/172/30 119/169/30 
s 2
f 122/172/3 121/171/3 123/173/3 124/174/3 
s 4
f 123/175/31 117/167/32 120/170/31 124/176/31 
s 2
f 125/177/1 126/178/1 127/179/1 128/180/1 
s 4
f 126/178/33 129/181/33 130/182/33 127/179/33 
s 2
f 130/182/3 129/181/3 131/183/3 132/184/3 
s 4
f 131/185/34 125/177/34 128/180/34 132/186/34 
s 2
f 133/187/1 134/188/1 135/189/1 136/190/1 
s 4
f 134/188/35 137/191/35 138/192/35 135/189/35 
s 2
f 138/192/3 137/191/3 139/193/3 140/194/3 
s 4
f 139/195/36 133/187/36 136/190/36 140/196/36 
s 2
f 141/197/1 142/198/1 143/199/1 144/200/1 
s 4
f 143/199/37 145/201/37 146/202/37 144/200/37 
s 2
f 145/201/3 147/203/3 148/204/3 146/202/3 
s 4
f 147/205/38 142/198/38 141/197/38 148/206/38 
s 2
f 149/207/1 150/208/1 151/209/1 152/210/1 
s 4
f 151/209/39 153/211/39 154/212/39 152/210/39 
s 2
f 153/211/3 155/213/3 156/214/3 154/212/3 
s 4
f 155/215/40 150/208/40 149/207/41 156/216/41 
# 88 polygons

