# 3ds Max Wavefront OBJ Exporter v0.97b - (c)2007 guruware
# File Created: 31.10.2018 18:49:27

mtllib 83_inch_sunburst_railing.mtl

#
# object Railing_Panel_83
#

v  105.4100 40.6800 4.0000
v  101.4100 40.6800 4.0000
v  101.4100 -40.6800 4.0000
v  105.4100 -40.6800 4.0000
v  105.4100 40.6800 -0.0000
v  105.4100 -40.6800 -0.0000
v  101.4100 40.6800 -0.0000
v  101.4100 -40.6800 -0.0000
v  -101.4100 40.6800 4.0000
v  -105.4100 40.6800 4.0000
v  -105.4100 -40.6800 4.0000
v  -101.4100 -40.6800 4.0000
v  -101.4100 40.6800 -0.0000
v  -101.4100 -40.6800 -0.0000
v  -105.4100 40.6800 -0.0000
v  -105.4100 -40.6800 -0.0000
v  -105.4100 40.6800 -6.3500
v  105.4100 40.6800 -6.3500
v  105.4100 40.6800 6.3500
v  -105.4100 40.6800 6.3500
v  -105.4100 45.6800 -6.3500
v  -105.4100 45.6800 6.3500
v  105.4100 45.6800 6.3500
v  105.4100 45.6800 -6.3500
v  -105.4100 33.1800 -4.0000
v  105.4100 33.1800 -4.0000
v  105.4100 33.1800 -0.0000
v  -105.4100 33.1800 -0.0000
v  -105.4100 40.6800 -4.0000
v  105.4100 40.6800 -4.0000
v  -105.4100 -40.6800 -4.0000
v  105.4100 -40.6800 -4.0000
v  -105.4100 -33.1800 -4.0000
v  -105.4100 -33.1800 -0.0000
v  105.4100 -33.1800 -0.0000
v  105.4100 -33.1800 -4.0000
v  2.0000 40.6800 4.0000
v  -2.0000 40.6800 4.0000
v  -2.0000 -40.6800 4.0000
v  2.0000 -40.6800 4.0000
v  2.0000 40.6800 -0.0000
v  2.0000 -40.6800 -0.0000
v  -2.0000 40.6800 -0.0000
v  -2.0000 -40.6800 -0.0000
v  7.2868 -40.6800 4.0000
v  16.0535 40.6800 4.0000
v  12.0304 40.6800 4.0000
v  3.2637 -40.6800 4.0000
v  16.0535 40.6800 -0.0000
v  7.2868 -40.6800 -0.0000
v  12.0304 40.6800 -0.0000
v  3.2637 -40.6800 -0.0000
v  12.7214 -40.6800 4.0000
v  30.4608 40.6800 4.0000
v  26.3668 40.6800 4.0000
v  8.6275 -40.6800 4.0000
v  30.4608 40.6800 -0.0000
v  12.7214 -40.6800 -0.0000
v  26.3668 40.6800 -0.0000
v  8.6275 -40.6800 -0.0000
v  18.4418 -40.6800 4.0000
v  46.5856 40.6800 4.0000
v  42.3688 40.6800 4.0000
v  14.2251 -40.6800 4.0000
v  46.5856 40.6800 -0.0000
v  18.4418 -40.6800 -0.0000
v  42.3688 40.6800 -0.0000
v  14.2251 -40.6800 -0.0000
v  24.6141 -40.6800 4.0000
v  63.8637 40.6800 4.0000
v  59.4644 40.6800 4.0000
v  20.2148 -40.6800 4.0000
v  63.8637 40.6800 -0.0000
v  24.6141 -40.6800 -0.0000
v  59.4644 40.6800 -0.0000
v  20.2148 -40.6800 -0.0000
v  31.4538 -40.6800 4.0000
v  83.8579 40.6800 4.0000
v  79.2036 40.6800 4.0000
v  26.7995 -40.6800 4.0000
v  83.8579 40.6800 -0.0000
v  31.4538 -40.6800 -0.0000
v  79.2036 40.6800 -0.0000
v  26.7995 -40.6800 -0.0000
v  -12.0304 40.6800 4.0000
v  -16.0535 40.6800 4.0000
v  -7.2868 -40.6800 4.0000
v  -3.2637 -40.6800 4.0000
v  -12.0304 40.6800 -0.0000
v  -3.2637 -40.6800 -0.0000
v  -7.2868 -40.6800 -0.0000
v  -16.0535 40.6800 -0.0000
v  -26.3668 40.6800 4.0000
v  -30.4608 40.6800 4.0000
v  -12.7214 -40.6800 4.0000
v  -8.6275 -40.6800 4.0000
v  -26.3668 40.6800 -0.0000
v  -8.6275 -40.6800 -0.0000
v  -12.7214 -40.6800 -0.0000
v  -30.4608 40.6800 -0.0000
v  -42.3688 40.6800 4.0000
v  -46.5856 40.6800 4.0000
v  -18.4418 -40.6800 4.0000
v  -14.2251 -40.6800 4.0000
v  -42.3688 40.6800 -0.0000
v  -14.2251 -40.6800 -0.0000
v  -18.4418 -40.6800 -0.0000
v  -46.5856 40.6800 -0.0000
v  -59.4643 40.6800 4.0000
v  -63.8636 40.6800 4.0000
v  -24.6141 -40.6800 4.0000
v  -20.2148 -40.6800 4.0000
v  -59.4643 40.6800 -0.0000
v  -20.2148 -40.6800 -0.0000
v  -24.6141 -40.6800 -0.0000
v  -63.8636 40.6800 -0.0000
v  -79.2036 40.6800 4.0000
v  -83.8579 40.6800 4.0000
v  -31.4538 -40.6800 4.0000
v  -26.7994 -40.6800 4.0000
v  -79.2036 40.6800 -0.0000
v  -26.7994 -40.6800 -0.0000
v  -31.4538 -40.6800 -0.0000
v  -83.8579 40.6800 -0.0000
v  101.4100 2.1240 4.0000
v  101.4100 7.4005 4.0000
v  41.9966 -40.6800 4.0000
v  47.4704 -40.6800 4.0000
v  101.4100 2.1240 -0.0000
v  47.4704 -40.6800 -0.0000
v  41.9966 -40.6800 -0.0000
v  101.4100 7.4005 -0.0000
v  101.4100 34.4310 4.0000
v  101.4100 40.3016 4.0000
v  34.2573 -40.6800 4.0000
v  39.2593 -40.6800 4.0000
v  101.4100 34.4310 -0.0000
v  39.2593 -40.6800 -0.0000
v  34.2573 -40.6800 -0.0000
v  101.4100 40.3016 -0.0000
v  -41.9966 -40.6800 4.0000
v  -101.4100 7.4005 4.0000
v  -101.4100 2.1241 4.0000
v  -47.4704 -40.6800 4.0000
v  -101.4100 7.4005 -0.0000
v  -41.9966 -40.6800 -0.0000
v  -101.4100 2.1241 -0.0000
v  -47.4704 -40.6800 -0.0000
v  -34.2573 -40.6800 4.0000
v  -101.4100 40.3016 4.0000
v  -101.4100 34.4310 4.0000
v  -39.2593 -40.6800 4.0000
v  -101.4100 40.3016 -0.0000
v  -34.2573 -40.6800 -0.0000
v  -101.4100 34.4310 -0.0000
v  -39.2593 -40.6800 -0.0000
# 156 vertices

vn 0.0000 0.0000 1.0000
vn 1.0000 0.0000 -0.0000
vn 0.0000 0.0000 -1.0000
vn -1.0000 0.0000 -0.0000
vn 0.0000 -1.0000 -0.0000
vn 0.0000 1.0000 -0.0000
vn 0.9942 -0.1071 -0.0000
vn -0.9942 0.1071 -0.0000
vn 0.9770 -0.2130 -0.0000
vn -0.9770 0.2130 -0.0000
vn 0.9486 -0.3165 -0.0000
vn -0.9486 0.3165 -0.0000
vn 0.9092 -0.4163 -0.0000
vn -0.9092 0.4163 -0.0000
vn 0.8594 -0.5113 -0.0000
vn -0.8594 0.5113 -0.0000
vn 0.9942 0.1071 -0.0000
vn -0.9942 -0.1071 -0.0000
vn 0.9770 0.2130 -0.0000
vn -0.9770 -0.2130 -0.0000
vn 0.9486 0.3165 -0.0000
vn -0.9486 -0.3165 -0.0000
vn 0.9092 0.4163 -0.0000
vn -0.9092 -0.4163 -0.0000
vn 0.8594 0.5113 -0.0000
vn -0.8594 -0.5113 -0.0000
vn 0.6637 -0.7480 -0.0000
vn -0.6715 0.7410 -0.0000
vn 0.7997 -0.6004 -0.0000
vn -0.7997 0.6004 -0.0000
vn 0.6715 0.7410 -0.0000
vn -0.6637 -0.7480 -0.0000
vn 0.7997 0.6004 -0.0000
vn -0.7997 -0.6004 -0.0000
# 34 vertex normals

vt 3.6303 -5.3570 0.0000
vt 3.8368 -5.3570 0.0000
vt 3.8368 -1.1578 0.0000
vt 3.6303 -1.1578 0.0000
vt 3.4238 -5.3570 0.0000
vt 3.4238 -1.1578 0.0000
vt 3.2174 -5.3570 0.0000
vt 3.2174 -1.1578 0.0000
vt 4.0432 -5.3570 0.0000
vt 4.0432 -1.1578 0.0000
vt 4.6973 -0.9702 0.0000
vt 4.4909 -0.9702 0.0000
vt 4.4909 -5.1694 0.0000
vt 4.6973 -5.1694 0.0000
vt 4.9038 -0.9702 0.0000
vt 4.9038 -5.1694 0.0000
vt 5.1103 -0.9702 0.0000
vt 5.1103 -5.1694 0.0000
vt 4.2844 -0.9702 0.0000
vt 4.2844 -5.1693 0.0000
vt 3.4238 -0.9513 0.0000
vt 3.2174 -0.9513 0.0000
vt 4.9038 -5.3758 0.0000
vt 5.1103 -5.3758 0.0000
vt -4.1620 -5.3481 0.0000
vt -4.1620 5.5329 0.0000
vt -4.8175 5.5329 0.0000
vt -4.8175 -5.3481 0.0000
vt -5.7310 -5.3481 0.0000
vt -5.0756 -5.3481 0.0000
vt -5.0756 5.5329 0.0000
vt -5.7310 5.5329 0.0000
vt -5.7310 -5.6061 0.0000
vt -5.0756 -5.6061 0.0000
vt -5.0756 5.7909 0.0000
vt -5.7310 5.7909 0.0000
vt -5.9891 5.5329 0.0000
vt -5.9891 -5.3481 0.0000
vt -1.6707 -5.2155 0.0000
vt -1.6707 5.6654 0.0000
vt -1.8772 5.6654 0.0000
vt -1.8772 -5.2155 0.0000
vt -2.4707 -5.2155 0.0000
vt -2.2643 -5.2155 0.0000
vt -2.2643 5.6654 0.0000
vt -2.4707 5.6654 0.0000
vt -2.4707 -5.6026 0.0000
vt -2.2643 -5.6026 0.0000
vt -2.2643 6.0525 0.0000
vt -2.4707 6.0525 0.0000
vt -1.2836 -5.2155 0.0000
vt -1.2836 5.6654 0.0000
vt -2.7134 -5.2154 0.0000
vt -2.7134 5.6655 0.0000
vt -2.9198 5.6655 0.0000
vt -2.9198 -5.2154 0.0000
vt -3.5134 -5.2154 0.0000
vt -3.3069 -5.2154 0.0000
vt -3.3069 5.6655 0.0000
vt -3.5134 5.6655 0.0000
vt -3.5134 -5.6025 0.0000
vt -3.3069 -5.6025 0.0000
vt -3.3069 6.0526 0.0000
vt -3.5134 6.0526 0.0000
vt -3.9005 5.6655 0.0000
vt -3.9005 -5.2154 0.0000
vt 6.8229 -1.1701 0.0000
vt 6.6164 -1.1701 0.0000
vt 6.6164 -5.3692 0.0000
vt 6.8229 -5.3692 0.0000
vt 7.0294 -1.1701 0.0000
vt 7.0294 -5.3692 0.0000
vt 7.2358 -1.1701 0.0000
vt 7.2358 -5.3692 0.0000
vt 6.4100 -1.1701 0.0000
vt 6.4100 -5.3692 0.0000
vt 5.7593 -5.3464 0.0000
vt 5.7593 -1.1229 0.0000
vt 5.5528 -1.1451 0.0000
vt 5.5528 -5.3686 0.0000
vt 5.9657 -1.1229 0.0000
vt 5.9657 -5.3463 0.0000
vt 6.1722 -1.1451 0.0000
vt 6.1722 -5.3686 0.0000
vt 5.3464 -1.1451 0.0000
vt 5.3464 -5.3686 0.0000
vt 4.6956 -0.5792 0.0000
vt 4.6956 3.7187 0.0000
vt 4.4892 3.6736 0.0000
vt 4.4892 -0.6242 0.0000
vt 4.9021 3.7187 0.0000
vt 4.9021 -0.5792 0.0000
vt 5.1086 3.6737 0.0000
vt 5.1086 -0.6242 0.0000
vt 4.2827 3.6736 0.0000
vt 4.2827 -0.6242 0.0000
vt 2.5682 -0.2444 0.0000
vt 2.5682 4.1989 0.0000
vt 2.3625 4.1277 0.0000
vt 2.3625 -0.3156 0.0000
vt 2.7747 4.1989 0.0000
vt 2.7747 -0.2444 0.0000
vt 2.9803 4.1277 0.0000
vt 2.9803 -0.3156 0.0000
vt 2.1561 4.1278 0.0000
vt 2.1561 -0.3156 0.0000
vt 2.5679 -5.2875 0.0000
vt 2.5679 -0.6252 0.0000
vt 2.3634 -0.7238 0.0000
vt 2.3634 -5.3861 0.0000
vt 2.7744 -0.6252 0.0000
vt 2.7744 -5.2875 0.0000
vt 2.9789 -0.7238 0.0000
vt 2.9789 -5.3861 0.0000
vt 2.1570 -0.7238 0.0000
vt 2.1570 -5.3861 0.0000
vt 0.4400 -5.2859 0.0000
vt 0.4400 -0.2910 0.0000
vt 0.2381 -0.4211 0.0000
vt 0.2381 -5.4159 0.0000
vt 0.6465 -0.2910 0.0000
vt 0.6465 -5.2859 0.0000
vt 0.8484 -0.4211 0.0000
vt 0.8484 -5.4160 0.0000
vt 0.0316 -0.4211 0.0000
vt 0.0316 -5.4159 0.0000
vt 5.7593 3.4337 0.0000
vt 5.5528 3.4559 0.0000
vt 5.5528 -0.7675 0.0000
vt 5.7593 -0.7898 0.0000
vt 5.9658 3.4337 0.0000
vt 5.9658 -0.7898 0.0000
vt 6.1722 -0.7676 0.0000
vt 6.1722 3.4559 0.0000
vt 5.3464 3.4559 0.0000
vt 5.3464 -0.7675 0.0000
vt 3.6320 3.6737 0.0000
vt 3.4255 3.7188 0.0000
vt 3.4255 -0.5791 0.0000
vt 3.6320 -0.6241 0.0000
vt 3.8385 3.6737 0.0000
vt 3.8385 -0.6241 0.0000
vt 4.0449 -0.5791 0.0000
vt 4.0449 3.7187 0.0000
vt 3.2191 3.7188 0.0000
vt 3.2191 -0.5791 0.0000
vt 1.5046 4.1277 0.0000
vt 1.2989 4.1989 0.0000
vt 1.2989 -0.2445 0.0000
vt 1.5046 -0.3156 0.0000
vt 1.7110 4.1277 0.0000
vt 1.7110 -0.3156 0.0000
vt 1.9167 -0.2445 0.0000
vt 1.9167 4.1989 0.0000
vt 1.0925 4.1989 0.0000
vt 1.0925 -0.2445 0.0000
vt 1.5043 -0.7239 0.0000
vt 1.2998 -0.6252 0.0000
vt 1.2998 -5.2875 0.0000
vt 1.5043 -5.3862 0.0000
vt 1.7108 -0.7239 0.0000
vt 1.7108 -5.3861 0.0000
vt 1.9153 -5.2875 0.0000
vt 1.9153 -0.6252 0.0000
vt 1.0933 -0.6252 0.0000
vt 1.0933 -5.2875 0.0000
vt 0.4400 4.9422 0.0000
vt 0.2381 5.0723 0.0000
vt 0.2381 0.0774 0.0000
vt 0.4400 -0.0527 0.0000
vt 0.6465 4.9422 0.0000
vt 0.6465 -0.0527 0.0000
vt 0.8484 0.0774 0.0000
vt 0.8484 5.0723 0.0000
vt 0.0316 5.0722 0.0000
vt 0.0316 0.0774 0.0000
vt 6.8398 6.8612 0.0000
vt 6.6271 7.0313 0.0000
vt 6.6511 3.0866 0.0000
vt 6.8275 3.3072 0.0000
vt 7.0463 6.8605 0.0000
vt 7.0339 3.3065 0.0000
vt 7.2088 3.0846 0.0000
vt 7.2602 7.0290 0.0000
vt 6.4206 7.0300 0.0000
vt 6.4446 3.0853 0.0000
vt -0.6257 -0.2738 0.0000
vt -0.8204 -0.0404 0.0000
vt -0.8218 -5.4702 0.0000
vt -0.6244 -5.3055 0.0000
vt -0.4186 -0.2738 0.0000
vt -0.4186 -5.3055 0.0000
vt -0.2197 -5.4701 0.0000
vt -0.2255 -0.0404 0.0000
vt -1.0276 -0.0404 0.0000
vt -1.0276 -5.4702 0.0000
vt 6.7981 -0.9285 0.0000
vt 6.8679 3.0157 0.0000
vt 6.6532 2.8481 0.0000
vt 6.6243 -0.7058 0.0000
vt 7.0744 3.0120 0.0000
vt 7.0046 -0.9321 0.0000
vt 7.2830 2.8370 0.0000
vt 7.1861 -0.7157 0.0000
vt 6.4468 2.8498 0.0000
vt 6.4179 -0.7041 0.0000
vt -0.6244 0.1169 0.0000
vt -0.6258 5.5466 0.0000
vt -0.8205 5.3133 0.0000
vt -0.8218 0.2816 0.0000
vt -0.4186 5.5466 0.0000
vt -0.4186 0.1169 0.0000
vt -0.2252 5.3134 0.0000
vt -0.2199 0.2817 0.0000
vt -1.0276 5.3133 0.0000
vt -1.0276 0.2816 0.0000
# 216 texture coords

g Railing_Panel_83
usemtl Material__27
s 1
f 1/1/1 2/2/1 3/3/1 4/4/1 
f 5/5/2 1/1/2 4/4/2 6/6/2 
f 7/7/3 5/5/3 6/6/3 8/8/3 
f 2/2/4 7/9/4 8/10/4 3/3/4 
f 9/11/1 10/12/1 11/13/1 12/14/1 
f 13/15/2 9/11/2 12/14/2 14/16/2 
f 15/17/3 13/15/3 14/16/3 16/18/3 
f 10/12/4 15/19/4 16/20/4 11/13/4 
f 8/8/5 6/6/5 4/21/5 3/22/5 
f 16/18/5 14/16/5 12/23/5 11/24/5 
f 17/25/5 18/26/5 19/27/5 20/28/5 
f 21/29/6 22/30/6 23/31/6 24/32/6 
f 17/33/4 20/34/4 22/30/4 21/29/4 
f 20/28/1 19/27/1 23/31/1 22/30/1 
f 19/35/2 18/36/2 24/32/2 23/31/2 
f 18/37/3 17/38/3 21/29/3 24/32/3 
f 25/39/5 26/40/5 27/41/5 28/42/5 
f 29/43/6 15/44/6 5/45/6 30/46/6 
f 25/47/4 28/48/4 15/44/4 29/43/4 
f 28/42/1 27/41/1 5/45/1 15/44/1 
f 27/49/2 26/50/2 30/46/2 5/45/2 
f 26/40/3 25/39/3 29/51/3 30/52/3 
f 31/53/5 32/54/5 6/55/5 16/56/5 
f 33/57/6 34/58/6 35/59/6 36/60/6 
f 31/61/4 16/62/4 34/58/4 33/57/4 
f 16/56/1 6/55/1 35/59/1 34/58/1 
f 6/63/2 32/64/2 36/60/2 35/59/2 
f 32/65/3 31/66/3 33/57/3 36/60/3 
f 37/67/1 38/68/1 39/69/1 40/70/1 
f 41/71/2 37/67/2 40/70/2 42/72/2 
f 43/73/3 41/71/3 42/72/3 44/74/3 
f 38/68/4 43/75/4 44/76/4 39/69/4 
f 45/77/1 46/78/1 47/79/1 48/80/1 
f 49/81/7 46/78/7 45/77/7 50/82/7 
f 51/83/3 49/81/3 50/82/3 52/84/3 
f 47/79/8 51/85/8 52/86/8 48/80/8 
f 53/87/1 54/88/1 55/89/1 56/90/1 
f 57/91/9 54/88/9 53/87/9 58/92/9 
f 59/93/3 57/91/3 58/92/3 60/94/3 
f 55/89/10 59/95/10 60/96/10 56/90/10 
f 61/97/1 62/98/1 63/99/1 64/100/1 
f 65/101/11 62/98/11 61/97/11 66/102/11 
f 67/103/3 65/101/3 66/102/3 68/104/3 
f 63/99/12 67/105/12 68/106/12 64/100/12 
f 69/107/1 70/108/1 71/109/1 72/110/1 
f 73/111/13 70/108/13 69/107/13 74/112/13 
f 75/113/3 73/111/3 74/112/3 76/114/3 
f 71/109/14 75/115/14 76/116/14 72/110/14 
f 77/117/1 78/118/1 79/119/1 80/120/1 
f 81/121/15 78/118/15 77/117/15 82/122/15 
f 83/123/3 81/121/3 82/122/3 84/124/3 
f 79/119/16 83/125/16 84/126/16 80/120/16 
f 85/127/1 86/128/1 87/129/1 88/130/1 
f 89/131/17 85/127/17 88/130/17 90/132/17 
f 91/133/3 92/134/3 89/131/3 90/132/3 
f 86/128/18 92/135/18 91/136/18 87/129/18 
f 93/137/1 94/138/1 95/139/1 96/140/1 
f 97/141/19 93/137/19 96/140/19 98/142/19 
f 99/143/3 100/144/3 97/141/3 98/142/3 
f 94/138/20 100/145/20 99/146/20 95/139/20 
f 101/147/1 102/148/1 103/149/1 104/150/1 
f 105/151/21 101/147/21 104/150/21 106/152/21 
f 107/153/3 108/154/3 105/151/3 106/152/3 
f 102/148/22 108/155/22 107/156/22 103/149/22 
f 109/157/1 110/158/1 111/159/1 112/160/1 
f 113/161/23 109/157/23 112/160/23 114/162/23 
f 115/163/3 116/164/3 113/161/3 114/162/3 
f 110/158/24 116/165/24 115/166/24 111/159/24 
f 117/167/1 118/168/1 119/169/1 120/170/1 
f 121/171/25 117/167/25 120/170/25 122/172/25 
f 123/173/3 124/174/3 121/171/3 122/172/3 
f 118/168/26 124/175/26 123/176/26 119/169/26 
f 125/177/1 126/178/1 127/179/1 128/180/1 
f 129/181/27 125/177/27 128/180/27 130/182/27 
f 131/183/3 132/184/3 129/181/3 130/182/3 
f 126/178/28 132/185/28 131/186/28 127/179/28 
f 133/187/1 134/188/1 135/189/1 136/190/1 
f 137/191/29 133/187/29 136/190/29 138/192/29 
f 139/193/3 140/194/3 137/191/3 138/192/3 
f 134/188/30 140/195/30 139/196/30 135/189/30 
f 141/197/1 142/198/1 143/199/1 144/200/1 
f 145/201/31 142/198/31 141/197/31 146/202/31 
f 147/203/3 145/201/3 146/202/3 148/204/3 
f 143/199/32 147/205/32 148/206/32 144/200/32 
f 149/207/1 150/208/1 151/209/1 152/210/1 
f 153/211/33 150/208/33 149/207/33 154/212/33 
f 155/213/3 153/211/3 154/212/3 156/214/3 
f 151/209/34 155/215/34 156/216/34 152/210/34 
# 88 polygons

